<svg id="a56944e7-6a84-4e9a-b6d7-bc7d04915d4c" data-name="a549614d-a311-47a1-acd1-af99ae8f3fe8" xmlns="http://www.w3.org/2000/svg" xmlns:xlink="http://www.w3.org/1999/xlink" viewBox="0 0 2360.23 1679.89"><defs><linearGradient id="eb157382-3e80-400b-b4f4-1dd9c511856f" x1="921.61" y1="-577.62" x2="1018.64" y2="-577.62" gradientTransform="translate(0 1392.13)" gradientUnits="userSpaceOnUse"><stop offset="0" stop-color="#f9eac2"/><stop offset="1" stop-color="#ffd131"/></linearGradient><linearGradient id="a733d61d-ed0f-468c-8980-c47e7ef22b8d" x1="16793.89" y1="-519.08" x2="16803.65" y2="-519.08" gradientTransform="matrix(-1, 0, 0, 1, 17845.02, 1392.13)" gradientUnits="userSpaceOnUse"><stop offset="0.02" stop-color="#2d6375"/><stop offset="1" stop-color="#41b3a7"/></linearGradient><linearGradient id="a4ffab71-23d6-432e-b66f-cc4389a803b6" x1="16721.35" y1="-466.72" x2="16731.11" y2="-466.72" gradientTransform="matrix(-1, 0, 0, 1, 17845.02, 1392.13)" gradientUnits="userSpaceOnUse"><stop offset="0" stop-color="#5ecff5"/><stop offset="1" stop-color="#cce8f7"/></linearGradient></defs><g id="eaede76d-5c58-4e49-b57b-c9ea735dc4af" data-name="a8b1ef76-a9dd-4086-935e-d859973487d4"><polygon points="907.67 317.17 2360.23 1155.82 1452.56 1679.89 0 841.22 907.67 317.17" style="fill:#519399;opacity:0.47999998927116394;isolation:isolate"/><polygon points="907.67 167.92 2360.23 1006.59 2360.23 1048.98 1452.56 1573.04 0 734.38 0 691.98 907.67 167.92" style="fill:#fff"/><polygon points="1452.56 1456.88 63.88 655.1 907.67 167.92 2296.36 969.71 1452.56 1456.88" style="fill:#41b3a7;opacity:0.4000000059604645;isolation:isolate"/><polygon points="0 734.38 1452.56 1573.04 1452.56 1530.64 0 691.98 0 734.38" style="fill:#a1dbcc;opacity:0.7699999809265137;isolation:isolate"/><polygon points="2360.23 1048.98 1452.56 1573.04 1452.56 1530.64 2360.23 1006.59 2360.23 1048.98" style="fill:#66c2ab"/><polygon points="907.67 0 2360.23 838.66 2360.23 881.05 1452.56 1405.12 0 566.45 0 524.06 907.67 0" style="fill:#fff"/><polygon points="0 566.45 1452.56 1405.12 1452.56 1362.72 0 524.06 0 566.45" style="fill:#13a8c5;opacity:0.20000000298023224;isolation:isolate"/><polygon points="1214.44 1225.24 1452.56 1362.72 2360.23 838.66 2122.11 701.18 1214.44 1225.24" style="fill:#070b3b"/><polygon points="2070.67 849.41 2165.93 904.4 2261.17 849.41 2165.93 794.41 2070.67 849.41" style="fill:#13a8c5;opacity:0.5;isolation:isolate"/><polygon points="1975.65 848.51 2119.19 931.38 2131.89 924.04 1988.36 841.16 1975.65 848.51" style="fill:#13a8c5;opacity:0.5;isolation:isolate"/><polygon points="1984.91 887.56 2089.99 948.24 2102.69 940.91 1997.61 880.24 1984.91 887.56" style="fill:#13a8c5;opacity:0.5;isolation:isolate"/><polygon points="1903.12 874.06 2060.79 965.1 2073.49 957.77 1915.83 866.74 1903.12 874.06" style="fill:#13a8c5;opacity:0.5;isolation:isolate"/><polygon points="1905.67 909.26 2031.59 981.96 2044.29 974.63 1918.38 901.91 1905.67 909.26" style="fill:#13a8c5;opacity:0.5;isolation:isolate"/><polygon points="2360.23 881.05 1452.56 1405.12 1452.56 1362.72 2360.23 838.66 2360.23 881.05" style="fill:#2d6375"/><polygon points="1214.44 1225.24 1452.56 1362.72 1452.56 1405.12 1214.44 1267.63 1214.44 1225.24" style="fill:#4aa4c2"/><polygon points="2070.67 829.05 2070.67 841.27 2165.92 897.59 2261.17 841.27 2261.17 829.05 2165.93 774.07 2070.67 829.05" style="fill:#b5e3df"/><polygon points="2165.93 884.05 2165.92 897.59 2261.17 841.27 2261.17 829.05 2165.93 884.05" style="fill:#506c75;opacity:0.30000001192092896;isolation:isolate"/><polygon points="2070.67 829.05 2165.93 884.05 2165.92 897.59 2070.67 841.27 2070.67 829.05" style="fill:#4aa4c2;opacity:0.20000000298023224;isolation:isolate"/><polygon points="1918.38 881.57 2044.29 954.28 2044.29 966.49 2031.59 973.81 1905.67 901.12 1905.67 888.91 1918.38 881.57" style="fill:#b5e3df"/><polygon points="1915.83 846.39 2073.49 937.42 2073.49 949.63 2060.79 956.96 1903.12 865.92 1903.12 853.72 1915.83 846.39" style="fill:#b5e3df"/><polygon points="1997.61 859.89 2102.69 920.55 2102.69 932.77 2089.99 940.11 1984.91 879.42 1984.91 867.23 1997.61 859.89" style="fill:#b5e3df"/><polygon points="1988.36 820.82 2131.89 903.69 2131.89 915.91 2119.19 923.25 1975.65 840.37 1975.65 828.16 1988.36 820.82" style="fill:#b5e3df"/><polygon points="2119.19 911.04 2119.19 923.25 2131.89 915.91 2131.89 903.69 2119.19 911.04" style="fill:#506c75;opacity:0.30000001192092896;isolation:isolate"/><polygon points="2089.99 927.9 2089.99 940.11 2102.69 932.77 2102.69 920.55 2089.99 927.9" style="fill:#506c75;opacity:0.30000001192092896;isolation:isolate"/><polygon points="2060.79 944.76 2060.79 956.96 2073.49 949.63 2073.49 937.42 2060.79 944.76" style="fill:#506c75;opacity:0.30000001192092896;isolation:isolate"/><polygon points="2031.59 961.62 2031.59 973.81 2044.29 966.49 2044.29 954.28 2031.59 961.62" style="fill:#506c75;opacity:0.30000001192092896;isolation:isolate"/><polygon points="1975.65 828.16 2119.19 911.04 2119.19 923.25 1975.65 840.37 1975.65 828.16" style="fill:#4aa4c2;opacity:0.20000000298023224;isolation:isolate"/><polygon points="1984.91 867.23 2089.99 927.9 2089.99 940.11 1984.91 879.42 1984.91 867.23" style="fill:#4aa4c2;opacity:0.20000000298023224;isolation:isolate"/><polygon points="1903.12 853.72 2060.79 944.76 2060.79 956.96 1903.12 865.92 1903.12 853.72" style="fill:#4aa4c2;opacity:0.20000000298023224;isolation:isolate"/><polygon points="1905.67 888.91 2031.59 961.62 2031.59 973.81 1905.67 901.12 1905.67 888.91" style="fill:#4aa4c2;opacity:0.20000000298023224;isolation:isolate"/><polygon points="1515.43 496.61 1515.59 554.84 1533.28 620.85 1533.12 562.63 1515.43 496.61" style="fill:#d6a41a"/><polygon points="1359.85 541.01 1360.01 599.23 1441.38 646.51 1441.21 588.3 1359.85 541.01" style="fill:#008e99"/><path d="M1359.85,541l81.36,47.29c24.32-13.47,53.94-21.8,84.84-25l-17.68-66C1449.78,503,1402.39,517,1359.85,541Z" style="fill:#a1dbcc"/><path d="M1441.21,588.3l.17,58.21c24.32-13.46,53.93-21.79,84.83-25l-.16-58.22C1495.15,566.48,1465.53,574.83,1441.21,588.3Z" style="fill:#41b3a7"/><polygon points="1669.28 588.3 1669.45 646.51 1751.34 599.23 1751.18 541.01 1669.28 588.3" style="fill:#d6a41a"/><path d="M1533.1,562.63l.16,58.22c48.2-3.8,98.63,4.77,136.17,25.66l-.17-58.21C1631.75,567.41,1581.32,558.83,1533.1,562.63Z" style="fill:#ffd131"/><path d="M1515.43,496.61l17.69,66c48.2-3.8,98.63,4.77,136.16,25.67l81.9-47.29C1686.55,504.28,1605.19,489,1515.43,496.61Z" style="fill:#f9eac2"/><path d="M1389.91,657.77q.09,29.12.17,58.22c-.07-24,15.34-48,46.18-66.54l-.17-58.22C1405.28,609.81,1389.91,633.81,1389.91,657.77Z" style="fill:#2d6375"/><path d="M1719.91,715.07q-.08-29.13-.16-58.22c-.07-23.66-15.21-47.28-45.45-65.63l.16,58.21C1704.71,667.78,1719.91,691.41,1719.91,715.07Z" style="fill:#519399"/><path d="M1835.49,714.87q-.08-29.11-.16-58.22c.12,42.3-28.4,84-82.84,115.44-20,11.54-42.84,21.25-68,28.9l.16,58.22c25.2-7.65,48.07-17.36,68-28.9C1807.1,798.88,1835.61,757.16,1835.49,714.87Z" style="fill:#4a878c"/><polygon points="1632.42 741.44 1632.59 799.66 1684.61 859.2 1684.45 800.99 1632.42 741.44" style="fill:#62a1a7"/><path d="M1674.31,591.22c61.67,37.43,60.56,96.79-3.2,133.61a191.91,191.91,0,0,1-38.69,16.65l52,59.55c25.2-7.65,48.07-17.36,68-28.9,86.39-49.87,107.49-125.63,52.49-188.52-13.5-15.45-28.2-27.41-48.8-39.63Z" style="fill:#73d0d9"/><path d="M1274.67,658.07q.07,29.1.16,58.22c.12,41.3,27.22,82.56,81.33,114,86.35,50.18,212.41,62.16,322.08,30.78l-.17-58.22c-109.67,31.38-235.72,19.4-322.07-30.78C1301.91,740.63,1274.79,699.41,1274.67,658.07Z" style="fill:#061e43"/><path d="M1354.76,544c-107.14,63.4-106.85,165.32,1.24,228.13,86.35,50.18,212.4,62.16,322.07,30.78l-52-59.54c-61.5,17.16-137.42,11-188.18-18.5-63.35-36.82-63.81-96.19-1.73-133.59Z" style="fill:#5ecff5"/><path d="M662.63,208.05l-.92-.53L913.91,61.93l.3-.17,571.52,330,.92.53-252.2,145.56-.31.17ZM914.17,63.17l-250,144.31,570,329.1,250-144.36Z" style="fill:#070b3b"/><path d="M720.25,884.74l-.92-.52,809.37-467.3.31-.18,502.9,290.35.92.53-809.37,467.3-.3.18ZM1529,418.15,721.77,884.22l501.33,289.47,807.23-466.07Z" style="fill:#070b3b"/><path d="M890.64,116.13c.15.08.29.11.43.19C901.82,96.68,909,52.87,923.18,45.23c-.11.06-.23.08-.33.14l3.64-2.12,5.09-3,5.83-3.38c3-1.77,6.43-1.87,10.25.33C975.88,53.5,972.72,79.09,993.32,91a17.67,17.67,0,0,0,3.35,1.5c10.61-19.92,12.83-66.53,26.14-74.16h0c2.19-1.26,4.38-2.54,6.55-3.81l7.28-4.23.74-.42c2.68-1.56,5.82-1.53,9.58.64,36.8,21.25,13.4,119.32,75.47,155.16,7.48,4.32,13.52,5.71,18.59,5.19,8.8-10.05,14.3-25.83,24.48-30a15.58,15.58,0,0,0-2,1l14.55-8.43c4.73-2.74,10.46-2.93,18.16,1.51,35.27,20.37,36.75,88,63.21,103.26a14.19,14.19,0,0,0,3.91,1.55c11.08-16.17,18.18-49.5,28.31-54.08a3.93,3.93,0,0,0-.66.3l14.56-8.47a5.71,5.71,0,0,1,6.13.06c22.53,13,28.74,198.23,78.26,226.82l-14.56,8.46L876.1,124.59Z" style="fill:#f9eac2"/><path d="M933.1,45.71C961.33,62,958.17,87.59,978.77,99.49c32.61,18.83,23.9-97.61,53.58-80.47,36.8,21.25,13.4,119.32,75.48,155.16,44.51,25.7,38.59-51.1,73.84-30.76s36.74,88,63.2,103.26,33.74-71.34,52.26-60.64c22.53,13,28.74,198.23,78.26,226.82L876.1,124.59C900.46,138.67,904.91,29.41,933.1,45.71Z" style="fill:#ffd131"/><path d="M851,139.27c16.56,9.56,29.24,9.35,40,5.12,7.51-5.54,14.35-11.84,21.5-15.89-.15.09-.32.16-.48.25l14.56-8.46c8.43-4.9,17.29-6.71,28.26-.38,37.12,21.43,55.46,98.61,79.75,112.64,5.53,3.19,10.7,3.89,15.57,2.86,17.7-16.58,31.55-51,45.88-57.15a15.85,15.85,0,0,0-1.7.85l14.56-8.47c3.7-2.15,7.42-2.52,11.24-.32,23.43,13.53,18.73,40.3,43.5,54.6a13.72,13.72,0,0,0,2.45,1.08c6.7-10.44,12.12-26.67,20.87-30.16a11,11,0,0,0-1.47.7l14.57-8.46c3.15-1.83,6.74-2,11,.46,46.88,27.07,59.15,192.74,139.27,239L1335.73,436,836.4,147.73Z" style="fill:#a1dbcc"/><path d="M940.19,128.41c37.12,21.43,55.45,98.6,79.75,112.63,39,22.52,60.15-76.89,85.55-62.23,23.43,13.53,18.73,40.3,43.51,54.6,21.26,12.27,24.68-49.51,47.43-36.38,46.87,27.07,59.14,192.74,139.26,239L836.4,147.73C890.1,178.75,903.1,106.94,940.19,128.41Z" style="fill:#41b3a7"/><path d="M802.1,167.09a21.51,21.51,0,0,0,8.81,3.08c8.07-11.42,13-30.83,23.71-36.15-.29.15-.59.27-.87.44L848.31,126c4.5-2.61,10-2.7,17.35,1.52,25,14.44,25,43.77,62.17,65.23,8.83,5.1,16.27,6.31,22.75,4.92,17.7-17.41,27.54-54.62,45.85-61.95a17.69,17.69,0,0,0-2.67,1.28l14.56-8.46c5.94-3.46,12.76-3.74,21.1,1.07,40.16,23.19,52.53,170.28,89.34,191.53,42.36,24.45,44.92-2.82,86.32,21.08s80.32,103.92,96.31,113.15l-14.56,8.46L787.53,175.55Z" style="fill:#73d0d9"/><path d="M1014.91,138.07c-44.8-25.86-45.72,95.39-101.6,63.13-37.19-21.46-37.19-50.79-62.19-65.23-35.2-20.32-29.4,59.31-63.57,39.58l499.3,288.27c-16-9.23-54.9-89.23-96.31-113.15s-44,3.38-86.33-21.08C1067.41,308.34,1055,161.25,1014.91,138.07Z" style="fill:#4a878c"/><path d="M758.1,192.62c80.11,46.26,93-2.57,139.9,24.51,22.74,13.13,25.92,37.59,47.15,49.85,24.78,14.3,20.19,1.18,43.62,14.71,25.4,14.66,46.11,66.21,85.13,88.74,24.29,14,42.88,1.13,80,22.56s49.75,56.88,103.49,87.9l-14.56,8.46L743.51,201.08Z" style="fill:#88f5ff"/><path d="M883.42,225.59c22.73,13.13,25.92,37.59,47.16,49.85,24.77,14.3,20.18,1.18,43.61,14.71,25.4,14.66,46.1,66.21,85.12,88.74,24.3,14,42.88,1.13,80,22.56s49.75,56.88,103.49,87.9L743.51,201.08C823.63,247.34,836.51,198.48,883.42,225.59Z" style="fill:#4a878c;opacity:0.30000001192092896;isolation:isolate"/><polygon points="509.19 564.73 509.24 581.61 702.24 693.78 702.19 676.89 509.19 564.73" style="fill:#f9eac2"/><polygon points="702.19 676.89 702.24 693.78 735.88 674.35 735.83 657.47 702.19 676.89" style="fill:#d6a41a"/><polygon points="509.19 564.73 702.19 676.89 735.83 657.47 542.83 545.31 509.19 564.73" style="fill:#ffd131"/><polygon points="469.05 587.9 469.1 604.79 625.37 695.6 625.33 678.72 469.05 587.9" style="fill:#41b3a7"/><polygon points="625.33 678.72 625.37 695.6 659.03 676.17 658.98 659.29 625.33 678.72" style="fill:#2d7770"/><polygon points="469.05 587.9 625.33 678.72 658.98 659.29 502.71 568.47 469.05 587.9" style="fill:#a1dbcc"/><polygon points="428.93 611.07 428.98 627.94 547.15 696.62 547.11 679.74 428.93 611.07" style="fill:#4aa4c2"/><polygon points="547.11 679.74 547.15 696.62 580.79 677.19 580.75 660.32 547.11 679.74" style="fill:#2d6375"/><polygon points="428.93 611.07 547.11 679.74 580.75 660.32 462.57 591.64 428.93 611.07" style="fill:#a8e3f7"/><polygon points="388.8 634.24 388.84 651.12 462.13 693.7 462.08 676.82 388.8 634.24" style="fill:#b5e3df"/><polygon points="462.08 676.82 462.13 693.7 495.77 674.29 495.72 657.4 462.08 676.82" style="fill:#519399"/><polygon points="388.8 634.24 462.08 676.82 495.72 657.4 422.44 614.81 388.8 634.24" style="fill:#d8f0dd"/><path d="M314.52,650.48l-.91-.52L829.1,352.33l.31-.17,362.41,209.25.91.53L677.23,859.56l-.31.18Zm514.9-296.93L316.1,650,677,858.33l513.37-296.4Z" style="fill:#070b3b"/><polygon points="532.21 301.46 675.74 384.34 688.45 377 544.91 294.12 532.21 301.46" style="fill:#070b3b"/><polygon points="500.68 319.66 644.22 402.54 656.92 395.2 513.38 312.33 500.68 319.66" style="fill:#070b3b"/><polygon points="469.15 337.86 612.69 420.74 625.4 413.4 481.86 330.53 469.15 337.86" style="fill:#070b3b"/><polygon points="437.62 356.07 581.16 438.94 593.87 431.61 450.33 348.73 437.62 356.07" style="fill:#070b3b"/><polygon points="406.1 374.27 549.63 457.14 562.34 449.81 418.8 366.93 406.1 374.27" style="fill:#070b3b"/><polygon points="374.57 392.47 518.11 475.35 530.82 468.01 387.28 385.14 374.57 392.47" style="fill:#070b3b"/><polygon points="343.04 410.68 486.58 493.55 499.29 486.2 355.75 403.34 343.04 410.68" style="fill:#070b3b"/><polygon points="311.52 428.88 455.05 511.75 467.76 504.42 324.23 421.54 311.52 428.88" style="fill:#070b3b"/><polygon points="279.99 447.07 423.53 529.94 436.23 522.62 292.7 439.74 279.99 447.07" style="fill:#070b3b"/><polygon points="248.46 465.28 392 548.15 404.71 540.82 261.17 457.94 248.46 465.28" style="fill:#070b3b"/><polygon points="216.94 483.48 360.48 566.36 373.18 559.02 229.64 476.15 216.94 483.48" style="fill:#070b3b"/><polygon points="185.41 501.69 328.95 584.56 341.65 577.23 198.12 494.35 185.41 501.69" style="fill:#070b3b"/><polygon points="153.88 519.89 297.42 602.76 310.13 595.43 166.59 512.55 153.88 519.89" style="fill:#070b3b"/><polygon points="200.53 583.23 265.9 620.97 278.6 613.63 213.24 575.89 200.53 583.23" style="fill:#070b3b"/><polygon points="854.85 875.97 1248.19 1103.06 1257.69 1097.59 864.35 870.48 854.85 875.97" style="fill:#070b3b"/><polygon points="831.27 889.57 1224.62 1116.69 1234.12 1111.2 840.77 884.09 831.27 889.57" style="fill:#070b3b"/><polygon points="982.32 1004.01 1201.04 1130.29 1210.55 1124.8 991.82 998.53 982.32 1004.01" style="fill:#070b3b"/><polygon points="643.55 506.8 936.54 674.94 946.04 669.45 653.05 501.32 643.55 506.8" style="fill:#2d7770"/><polygon points="619.97 520.41 912.97 688.56 922.47 683.07 629.47 514.93 619.97 520.41" style="fill:#2d7770"/><polygon points="670.67 575.88 889.39 702.17 898.9 696.68 680.17 570.4 670.67 575.88" style="fill:#2d7770"/><polygon points="1105.73 755.11 1465.25 962.68 1491.46 947.54 1131.94 739.98 1105.73 755.11" style="fill:#2d7770"/><polygon points="1035.01 767.29 1419.34 989.19 1432.05 981.85 1047.71 759.94 1035.01 767.29" style="fill:#2d7770"/><polygon points="1095.31 838.51 1387.82 1007.39 1400.52 1000.05 1108.02 831.16 1095.31 838.51" style="fill:#2d7770"/><g style="opacity:0.20000000298023224"><path d="M923.59,860.65c-2.62,1.53-2.65,4,0,5.52l41.65,24.2a10.53,10.53,0,0,0,9.53,0l41.92-24.2c2.62-1.52,2.64-4,0-5.52L975,836.41a10.51,10.51,0,0,0-9.52,0Z" style="fill:#519399"/></g><path d="M963.91,896.48,913.52,867.2a4.47,4.47,0,0,1-2.59-3.73c0-1.46,1-2.8,2.65-3.79l50.71-29.27a13.22,13.22,0,0,1,12,0l50.38,29.28a4.47,4.47,0,0,1,2.6,3.76c0,1.45-.94,2.79-2.64,3.77l-50.72,29.26A13.22,13.22,0,0,1,963.91,896.48Zm.88-65.22L914.1,860.48a3.62,3.62,0,0,0-2.19,2.93,3.51,3.51,0,0,0,2.1,2.88l50.38,29.28a12.24,12.24,0,0,0,11,0l50.72-29.27a3.63,3.63,0,0,0,2.15-2.93,3.56,3.56,0,0,0-2.12-2.91l-50.38-29.28a12.18,12.18,0,0,0-11,0Z" style="fill:#070b3b"/><path d="M923.54,756.59l41.65,24.21a10.59,10.59,0,0,0,9.53,0l41.92-24.2a3.4,3.4,0,0,0,2-2.78v93.27a3.38,3.38,0,0,1-2,2.78l-41.91,24.19a10.53,10.53,0,0,1-9.53,0l-41.65-24.2a3.32,3.32,0,0,1-1.94-2.72V753.87A3.34,3.34,0,0,0,923.54,756.59Z" style="fill:url(#eb157382-3e80-400b-b4f4-1dd9c511856f)"/><path d="M923.59,751.08c-2.62,1.52-2.65,4,0,5.51l41.65,24.21a10.59,10.59,0,0,0,9.53,0l41.92-24.2c2.62-1.52,2.64-4,0-5.53L975,726.87a10.57,10.57,0,0,0-9.52,0Z" style="fill:#f0b14b"/><g style="opacity:0.20000000298023224"><path d="M999.79,902.48c-2.62,1.52-2.65,4,0,5.51l41.65,24.2a10.53,10.53,0,0,0,9.53,0l41.92-24.2c2.63-1.51,2.64-4,0-5.52l-41.64-24.2a10.51,10.51,0,0,0-9.52,0Z" style="fill:#519399"/></g><path d="M1040.1,938.3,989.71,909a4.47,4.47,0,0,1-2.59-3.73c0-1.46,1-2.8,2.66-3.79l50.71-29.27a13.16,13.16,0,0,1,12,0l50.38,29.27a4.47,4.47,0,0,1,2.6,3.76c0,1.45-.94,2.79-2.64,3.77L1052.1,938.3A13.22,13.22,0,0,1,1040.1,938.3Zm.88-65.23-50.71,29.28c-1.39.81-2.16,1.85-2.16,2.94a3.56,3.56,0,0,0,2.1,2.89l50.39,29.3a12.31,12.31,0,0,0,11,0l50.71-29.27c1.39-.81,2.15-1.84,2.15-2.93a3.59,3.59,0,0,0-2.11-2.91L1052,873.1a10.9,10.9,0,0,0-5.48-1.31,11.15,11.15,0,0,0-5.49,1.28Z" style="fill:#070b3b"/><path d="M999.74,831.83l41.65,24.2a10.53,10.53,0,0,0,9.53,0l41.92-24.2a3.35,3.35,0,0,0,2-2.78v59.89a3.38,3.38,0,0,1-2,2.78l-41.92,24.2a10.59,10.59,0,0,1-9.53,0l-41.65-24.21a3.29,3.29,0,0,1-1.93-2.72V829.11A3.34,3.34,0,0,0,999.74,831.83Z" style="fill:url(#a733d61d-ed0f-468c-8980-c47e7ef22b8d)"/><path d="M999.79,826.32c-2.62,1.51-2.65,4,0,5.51l41.65,24.2a10.53,10.53,0,0,0,9.53,0l41.92-24.2c2.63-1.51,2.64-4,0-5.52l-41.64-24.2a10.51,10.51,0,0,0-9.52,0Z" style="fill:#a1dbcc"/><g style="opacity:0.20000000298023224"><path d="M1072.33,945.34c-2.63,1.52-2.66,4,0,5.51L1114,975.06a10.61,10.61,0,0,0,9.54,0l41.92-24.2c2.62-1.52,2.64-4,0-5.53l-41.64-24.2a10.53,10.53,0,0,0-9.53,0Z" style="fill:#519399"/></g><path d="M1112.65,981.14l-50.39-29.29a4.47,4.47,0,0,1-2.59-3.73c0-1.45,1-2.79,2.66-3.78l50.7-29.28a12.18,12.18,0,0,1,6-1.45,11.86,11.86,0,0,1,6,1.44l50.39,29.28a4,4,0,0,1,2.4,5.12,4.06,4.06,0,0,1-2.4,2.4l-50.71,29.29A13.35,13.35,0,0,1,1112.65,981.14Zm.88-65.23-50.71,29.28a3,3,0,0,0-.06,5.82l50.38,29.28a12.31,12.31,0,0,0,11,0L1174.91,951a3.63,3.63,0,0,0,2.15-2.93,3.55,3.55,0,0,0-2.12-2.9l-50.38-29.28a12.24,12.24,0,0,0-11,0Z" style="fill:#070b3b"/><path d="M1072.28,893.71l41.64,24.2a10.55,10.55,0,0,0,9.54,0l41.92-24.2a3.38,3.38,0,0,0,2-2.78v40.84a3.33,3.33,0,0,1-2,2.78l-41.92,24.2a10.55,10.55,0,0,1-9.54,0l-41.64-24.2a3.34,3.34,0,0,1-1.94-2.73V891A3.34,3.34,0,0,0,1072.28,893.71Z" style="fill:url(#a4ffab71-23d6-432e-b66f-cc4389a803b6)"/><path d="M1072.33,888.2c-2.63,1.51-2.66,4,0,5.51l41.64,24.2a10.55,10.55,0,0,0,9.54,0l41.92-24.2c2.62-1.52,2.64-4,0-5.52L1123.79,864a10.53,10.53,0,0,0-9.53,0Z" style="fill:#a8e3f7"/><path d="M1088.33,579.58a.18.18,0,0,0,.18-.18h0v-62a.18.18,0,1,0-.36,0v62A.19.19,0,0,0,1088.33,579.58Z" style="fill:#2d7770"/><path d="M1014.66,537.05a.18.18,0,0,0,.18-.18V448.41a.19.19,0,0,0-.18-.19.18.18,0,0,0-.18.18h0v88.51A.19.19,0,0,0,1014.66,537.05Z" style="fill:#2d7770"/><path d="M941,494.48a.18.18,0,0,0,.18-.18h0V384.48a.18.18,0,1,0-.36,0V494.33A.17.17,0,0,0,941,494.48Z" style="fill:#2d7770"/><path d="M867.31,452a.18.18,0,0,0,.18-.18V358.35a.18.18,0,0,0-.36,0V451.8A.19.19,0,0,0,867.31,452Z" style="fill:#2d7770"/><path d="M793.63,409.48a.18.18,0,0,0,.18-.18h0v-61a.19.19,0,0,0-.18-.19.18.18,0,0,0-.18.18h0v61a.17.17,0,0,0,.14.21Z" style="fill:#2d7770"/><path d="M1096.19,584.3a.35.35,0,0,0,.31-.18.36.36,0,0,0-.13-.49l-311.8-180a.36.36,0,0,0-.49.13.34.34,0,0,0,.12.48h0l311.8,180A.6.6,0,0,0,1096.19,584.3Z" style="fill:#2d7770"/><path d="M1037.1,609a.19.19,0,0,0,.18-.18h0V535.68a.18.18,0,1,0-.36,0v73.16A.19.19,0,0,0,1037.1,609Z" style="fill:#2d7770"/><path d="M963.46,566.48a.18.18,0,0,0,.18-.18h0V470.84a.18.18,0,1,0-.36,0h0v95.47A.18.18,0,0,0,963.46,566.48Z" style="fill:#2d7770"/><path d="M889.79,524a.18.18,0,0,0,.18-.16h0V470.84a.18.18,0,1,0-.36,0v52.94a.19.19,0,0,0,.17.17Z" style="fill:#2d7770"/><path d="M816.1,481.41a.18.18,0,0,0,.18-.18h0v-74.1a.18.18,0,1,0-.36,0v74.11A.19.19,0,0,0,816.1,481.41Z" style="fill:#2d7770"/><path d="M742.44,438.89a.19.19,0,0,0,.18-.18V387.84a.18.18,0,1,0-.36,0v50.87A.19.19,0,0,0,742.44,438.89Z" style="fill:#2d7770"/><path d="M1045,613.74a.37.37,0,0,0,.36-.37.35.35,0,0,0-.18-.3l-311.81-180a.36.36,0,0,0-.48.17h0a.37.37,0,0,0,.12.45l311.81,180A.61.61,0,0,0,1045,613.74Z" style="fill:#2d7770"/><path d="M986.42,638.48a.18.18,0,0,0,.18-.18h0V584a.18.18,0,0,0-.36,0h0v54.31a.19.19,0,0,0,.17.19Z" style="fill:#2d7770"/><path d="M912.74,595.93a.18.18,0,0,0,.18-.18h0V542.31a.18.18,0,1,0-.36,0h0v53.44A.19.19,0,0,0,912.74,595.93Z" style="fill:#2d7770"/><path d="M839.1,553.41a.19.19,0,0,0,.18-.18h0V509.55a.19.19,0,0,0-.18-.19.18.18,0,0,0-.18.18h0v43.67a.19.19,0,0,0,.18.2Z" style="fill:#2d7770"/><path d="M765.39,510.86a.18.18,0,0,0,.18-.18h0V459a.18.18,0,0,0-.36,0h0v51.72A.18.18,0,0,0,765.39,510.86Z" style="fill:#2d7770"/><path d="M691.72,468.33a.19.19,0,0,0,.18-.18h0V417.29a.19.19,0,0,0-.18-.19.18.18,0,0,0-.18.18h0v50.86A.19.19,0,0,0,691.72,468.33Z" style="fill:#2d7770"/><path d="M784.39,334.66c0,5.71,4,12.72,9,15.59,2.69,1.55,5.09,1.56,6.74.37l-.33.26,4-2.32a5,5,0,0,0,1.84-2.09,20.45,20.45,0,0,0,7.52-2.73h0l4-2.32c4.29-2.49,8.13-6.26,11.77-9.84a74.71,74.71,0,0,1,7.59-6.86c.22-.09.44-.2.66-.27a19.59,19.59,0,0,0,7.5,8.94c2.51,1.45,4.79,1.58,6.44.6h0l.8-.46a129.77,129.77,0,0,1,7.59,14.62c5.5,11.69,11.73,25,22.73,31.3,4.85,2.8,8.74,2.45,12.09.42l-.2.14,4-2.32c4.22-2.45,7.57-7.61,10.87-12.67,2.61-4,5.16-7.9,8-10.44a19,19,0,0,0,7,8c2.73,1.58,5.19,1.57,6.86.32l-.44.29.45-.26c4.55,8.07,7.88,20.68,11.12,33,5.1,19.43,9.92,37.79,20.56,43.93,9.93,5.74,15.61,3.18,20.6.91,3.12-1.4,6.13-2.75,10.1-2.25a19.85,19.85,0,0,0,8,10.13c2.56,1.48,4.88,1.56,6.53.52l-.11.1,1.15-.68c5.29,6.44,10.26,15.44,15.1,24.3,7.4,13.5,15,27.48,24.36,32.85,8.89,5.14,14.36,4.15,19.64,3.2,3.45-.63,6.79-1.21,11.13-.18,1.38,4.51,4.57,8.93,8.29,11.08,2.52,1.46,4.8,1.58,6.44.6h0l.2-.12,3.79-2.2c1.62-1,2.63-3,2.64-5.79,0-5.72-4-12.72-9-15.6-2.51-1.45-4.79-1.58-6.43-.62l-.4.23-3.59,2.08a3.39,3.39,0,0,1,.67-.31,4.36,4.36,0,0,0-1.74,1.23,29.5,29.5,0,0,0-10.92.41c-5,.92-9.4,1.7-16.69-2.51-7-4-13.51-16-20.43-28.6-5.49-10-11.11-20.25-17.56-27.68-.07-5.69-4.06-12.57-9-15.42-2.5-1.45-4.78-1.58-6.42-.62l-4,2.32a1.91,1.91,0,0,1,.32-.16,4.59,4.59,0,0,0-2.1,2.14c-3.75,0-6.73,1.33-9.49,2.56-4.9,2.23-9.14,4.15-17-.41-6.88-4-11.29-20.74-15.55-37-3.77-14.34-7.63-29-14-38.7,0-6.37-4-13.36-9-16.23-2.51-1.45-4.79-1.59-6.43-.63l-4,2.29h0c-1.53.87-2.5,2.7-2.63,5.26l-3.14,1.83.18-.09c-4.64,2.6-8.24,8.09-11.77,13.52-2.59,4-5.12,7.85-7.9,10.29a7.82,7.82,0,0,1-6.16-1c-8.31-4.8-13.24-15.27-18.44-26.35-3-6.47-6.16-13.06-10-18.51,0-6-4-13-9-15.84-2.5-1.44-4.77-1.57-6.41-.62l-.4.23-3.58,2.09h.09a5.55,5.55,0,0,0-2.62,4.34l-1,.53-.2.11-3.79,2.2c.26-.15.52-.28.77-.41-3.75,2-7.31,5.44-11,9a77.57,77.57,0,0,1-9.3,8.25,15.48,15.48,0,0,1-5.82,1.43c-1.49-4.22-4.52-8.28-8-10.3-2.51-1.45-4.79-1.58-6.44-.63l-4,2.32h0C785.41,329.8,784.4,331.81,784.39,334.66ZM1087.6,505.48a8.14,8.14,0,0,1,3.31,5.71A8.25,8.25,0,0,1,1087.6,505.48Zm-86.09-71.19a8.19,8.19,0,0,1,3.31,5.69,8.24,8.24,0,0,1-3.31-5.66ZM924.28,348.2a8.31,8.31,0,0,1,3.33,5.71,8.28,8.28,0,0,1-3.33-5.68ZM845,319a8.22,8.22,0,0,1,3.32,5.7A8.29,8.29,0,0,1,845,319Zm-51.22,16.82a8.25,8.25,0,0,1,3.31,5.71,8.28,8.28,0,0,1-3.31-5.68Z" style="fill:#d6a41a"/><path d="M784.39,334.66c0,5.71,4,12.72,9,15.59,4.51,2.61,8.27.94,9-3.66,9,.58,16.12-6.34,22.54-12.66,4.2-4.14,8.25-8.1,12.24-9.45a19.59,19.59,0,0,0,7.5,8.94c2.9,1.67,5.49,1.59,7.15.08a133.09,133.09,0,0,1,7.64,14.71c5.5,11.69,11.73,25,22.73,31.3,10.82,6.25,16.89-3.09,22.76-12.12,3.76-5.77,7.38-11.32,11.9-12.89a19.07,19.07,0,0,0,7.12,8.13c2.73,1.58,5.19,1.57,6.86.32,4.55,8.08,7.88,20.69,11.13,33,5.1,19.43,9.92,37.79,20.56,43.93,9.93,5.74,15.61,3.18,20.6.91,3.12-1.4,6.13-2.75,10.1-2.25a19.85,19.85,0,0,0,8,10.13c3.08,1.78,5.82,1.56,7.45-.21,5.33,6.44,10.34,15.53,15.22,24.45,7.4,13.5,15,27.48,24.36,32.85,8.89,5.14,14.36,4.15,19.64,3.2,3.45-.63,6.79-1.21,11.13-.18,1.38,4.51,4.57,8.93,8.29,11.08,5,2.88,9,.55,9-5.16s-4-12.72-9-15.6c-4.37-2.52-8-1.06-8.89,3.18-5.63-1.57-9.75-.83-13.53-.16-5,.91-9.39,1.7-16.69-2.52-7-4-13.5-16-20.43-28.59-5.49-10-11.1-20.26-17.56-27.68-.06-5.69-4.06-12.57-9-15.42-4.61-2.66-8.43-.88-9,3.94-5.36-1-9.19.73-12.69,2.3-4.9,2.23-9.14,4.14-17-.41-6.87-4-11.29-20.74-15.55-37-3.76-14.34-7.63-29-14-38.7,0-6.38-4-13.37-9-16.24s-9.06-.57-9.07,5.16c-6.13,1.58-10.47,8.21-14.71,14.73-5.35,8.23-10.41,16-18,11.59-8.32-4.8-13.24-15.26-18.45-26.34-3-6.47-6.16-13.06-10-18.52,0-6-4-13-9-15.83-4.82-2.78-8.78-.69-9,4.63-5.34.94-10.11,5.63-15.07,10.51-5.91,5.84-12,11.78-19.11,12-1.49-4.21-4.52-8.27-8-10.3C788.47,326.62,784.4,328.94,784.39,334.66Zm299.19,172.75c0-2.34,1.66-3.29,3.7-2.12a8.15,8.15,0,0,1,3.67,6.38c0,2.32-1.66,3.27-3.7,2.1A8.13,8.13,0,0,1,1083.58,507.41Zm-86.09-71.2c0-2.34,1.66-3.28,3.7-2.11a8.07,8.07,0,0,1,3.72,6.31c0,2.34-1.66,3.28-3.7,2.1a8.12,8.12,0,0,1-3.72-6.31Zm-77.23-86.09c0-2.34,1.67-3.27,3.71-2.1a8.09,8.09,0,0,1,3.67,6.36c0,2.34-1.67,3.28-3.7,2.11a8.16,8.16,0,0,1-3.68-6.38ZM841,320.93c0-2.34,1.67-3.28,3.7-2.11a8.09,8.09,0,0,1,3.67,6.36c0,2.34-1.66,3.28-3.7,2.11a8.13,8.13,0,0,1-3.67-6.37Zm-51.23,16.83c0-2.33,1.67-3.29,3.7-2.12a8.15,8.15,0,0,1,3.67,6.38c0,2.32-1.66,3.28-3.69,2.1a8.14,8.14,0,0,1-3.68-6.37Z" style="fill:#ffd131"/><path d="M733.19,374.57c0,5.73,4,12.72,9,15.59,2.56,1.48,4.86,1.57,6.5.55l-.1.08,1-.61,1.07,1.26c5.81,6.86,13.75,16.23,29.41,25.27,12.64,7.3,19.14,3.5,25.43-.16l-.55.31,1.75-1c5.1-2.93,10.29-5.34,19.12-2.41,1.35,4.55,4.57,9.07,8.33,11.24,2.6,1.5,4.94,1.55,6.6.47-.07,0-.12.11-.18.15.66-.39,1.32-.78,2-1.16l.66-.39c6.85,6.12,11,13.23,15.28,20.67,6,10.43,12.81,22.24,27.33,30.63,4.8,2.77,8.76,2.69,12.14.69l-.08.06,4-2.32c7.64-4.44,12.33-18.74,16.89-32.72,3.5-10.68,7.07-21.57,11.72-27.23a18.93,18.93,0,0,0,6.86,7.66c2.57,1.49,4.89,1.56,6.54.52a.4.4,0,0,1-.12.1l1.22-.71c6.83,11,11.87,30.2,16.77,48.92,7.42,28.3,15.08,57.57,30.84,66.67,11.66,6.73,18.54,5.55,23.56,2.51l-.29.19,4-2.32a35.25,35.25,0,0,0,5.73-4.44c.84-.75,1.65-1.46,2.45-2.11.2-.06.4-.13.61-.18a19.24,19.24,0,0,0,7.4,8.75c2.51,1.45,4.79,1.57,6.44.61h0l4-2.31c1.63-1,2.63-3,2.64-5.79,0-5.72-4-12.72-9-15.6-2.5-1.44-4.78-1.57-6.42-.62-.07,0-.14.08-.2.12l-2,1.15-.4.24-1.39.81h0a5.72,5.72,0,0,0-2.59,4.45c-.27.13-.54.27-.8.42l-4,2.32.36-.19a28.39,28.39,0,0,0-5.32,4,39.88,39.88,0,0,1-3.3,2.79c-4.06,1.61-9.33,1.41-17.49-3.29-12-6.92-19-33.76-25.82-59.7-5.8-22.14-11.34-43.29-20.41-55.62-.34-5.56-4.22-12-9-14.8-2.5-1.44-4.77-1.57-6.41-.62l-4,2.31h0c-1.53.86-2.52,2.67-2.67,5.22l-2.2,1.28c.13-.08.27-.13.4-.2-7.64,4-12.33,18.28-16.88,32.21-3.93,12-8,24.28-13.51,29.45a8.31,8.31,0,0,1-6.33-1.15C877.48,459.49,872,450,866.23,440c-4.76-8.28-10-17.43-19.3-25.09-.87-5.19-4.48-10.78-8.8-13.27-2.5-1.45-4.77-1.58-6.42-.62l-4,2.31a3.26,3.26,0,0,1,.68-.32,4.24,4.24,0,0,0-1.51,1c-9.65-2.65-15.47.35-20.64,3.36l-1.89,1.1c-5.51,3.17-10.7,5.38-20.36-.2-14.34-8.28-21.31-16.52-26.93-23.14l-1.95-2.28c0-5.85-4-12.86-9-15.73-2.51-1.45-4.79-1.58-6.43-.63l-4,2.3h0C734.21,369.71,733.2,371.72,733.19,374.57Zm303.28,150.12a8.28,8.28,0,0,1,3.3,5.72A8.22,8.22,0,0,1,1036.47,524.69ZM937.76,406.8a8.18,8.18,0,0,1,3.34,5.68,8.29,8.29,0,0,1-3.34-5.68Zm-103.19,3.48a8.21,8.21,0,0,1,3.31,5.7,8.23,8.23,0,0,1-3.31-5.7Zm-92-34.51a8.25,8.25,0,0,1,3.31,5.71,8.25,8.25,0,0,1-3.31-5.71Z" style="fill:#a1dbcc"/><path d="M733.19,374.57c0,5.73,4,12.72,9,15.59,3,1.75,5.7,1.58,7.34-.11l1.18,1.36c5.81,6.86,13.75,16.23,29.41,25.27,12.64,7.3,19.14,3.5,25.43-.16,5.5-3.23,10.8-6.27,20.32-3.11,1.35,4.55,4.57,9.07,8.33,11.24s7,1.37,8.36-1.59c7.3,6.26,11.56,13.63,16,21.33,6,10.43,12.81,22.24,27.33,30.63,15.54,9,22.37-11.83,29-32,4.34-13.28,8.8-26.85,15.29-30.36a19.18,19.18,0,0,0,7.27,8.47c3.13,1.81,5.89,1.56,7.52-.28,6.89,11,12,30.29,16.89,49.11,7.42,28.3,15.08,57.57,30.84,66.67,16.44,9.49,23.4,3.27,29-1.74,2.38-2.13,4.5-4,7-4.61a19.24,19.24,0,0,0,7.4,8.75c5,2.88,9,.55,9-5.16s-4-12.72-9-15.6-9-.61-9.06,5c-4,.36-6.84,2.92-9.66,5.43-5.38,4.82-10.94,9.8-24.77,1.81-12-6.92-19-33.76-25.83-59.7-5.79-22.13-11.34-43.28-20.41-55.61-.33-5.56-4.22-12.06-9-14.8s-8.91-.63-9.06,4.9c-8.71,2.6-13.76,18-18.66,33-6,18.35-12.21,37.32-23.83,30.62-12.3-7.1-17.76-16.59-23.54-26.63-4.76-8.28-10.06-17.43-19.31-25.1-.86-5.18-4.47-10.77-8.79-13.26s-8-1.07-8.86,3.11c-11.52-4-17.91-.36-23.64,3-6,3.52-11.22,6.54-21.62.54-14.35-8.28-21.32-16.52-26.93-23.14-.66-.78-1.31-1.53-2-2.28,0-5.86-4-12.86-9-15.74S733.21,368.84,733.19,374.57Zm299.25,152c0-2.34,1.66-3.29,3.7-2.12a8.13,8.13,0,0,1,3.67,6.37c0,2.33-1.66,3.28-3.69,2.11a8.14,8.14,0,0,1-3.68-6.34Zm-98.7-117.9c0-2.34,1.67-3.3,3.7-2.12a8.09,8.09,0,0,1,3.67,6.37c0,2.32-1.66,3.28-3.7,2.11a8.14,8.14,0,0,1-3.67-6.34Zm-103.19,3.47c0-2.34,1.66-3.28,3.7-2.1a8.08,8.08,0,0,1,3.66,6.37c0,2.34-1.66,3.28-3.7,2.11a8.1,8.1,0,0,1-3.67-6.34Zm-92-34.5c0-2.34,1.66-3.29,3.69-2.12a8.16,8.16,0,0,1,3.68,6.38c0,2.32-1.67,3.27-3.7,2.1a8.13,8.13,0,0,1-3.67-6.34Z" style="fill:#41b3a7"/><path d="M682.37,406.48c0,5.73,4,12.72,9,15.6,2.76,1.59,5.24,1.59,6.91.3a3.08,3.08,0,0,1-.48.32l.4-.23.11-.06a48.83,48.83,0,0,0,11.09,9.32c5.42,3.13,9.76,3.39,13.81,3.62,3.42.18,6.66.37,10.25,2.45,5.54,3.2,8.62,7.38,12.17,12.24,3.87,5.28,8.27,11.26,16,15.71,7.36,4.26,12.41,1.53,17.28-1.12,3.5-1.88,7.09-3.78,11.66-3.36,1.31,4.63,4.58,9.28,8.41,11.5,2.55,1.47,4.85,1.57,6.51.55l-.09.07,1.93-1.12c3.46,4.53,6.41,10,9.44,15.62,5.64,10.52,11.46,21.4,21.18,27,4.59,2.65,8.32,2.29,11.55.32-.08,0-.15.1-.23.15l4-2.32c4-2.36,7.33-7.28,10.56-12.1a59.1,59.1,0,0,1,6.81-9,18.89,18.89,0,0,0,6.67,7.27c2.57,1.48,4.89,1.56,6.54.52l-.12.1,1.23-.72c3.72,5,6.89,11.44,10.14,18.15,5.88,12.1,12,24.6,22.3,30.57,10.85,6.26,19.68,4,27.49,2.1,5.52-1.37,10.71-2.68,15-.21,5.45,3.14,12.12,12.71,17.12,21a8.78,8.78,0,0,0-.76,3.71c0,5.72,4,12.71,9,15.59,2.52,1.46,4.8,1.58,6.45.61h0l4-2.32c1.62-.94,2.63-2.94,2.64-5.79,0-5.72-4-12.72-9-15.6a7.52,7.52,0,0,0-4.8-1.17c-5.42-9-13.27-20.32-20.62-24.56-6-3.46-11.88-2-18.12-.42-7.14,1.78-15.23,3.81-24.36-1.45-7.73-4.46-12.75-14.82-18.09-25.78-3.84-7.93-7.8-16-13-22.27-.17-5.65-4.13-12.38-9-15.19-2.51-1.45-4.79-1.58-6.43-.63l-4,2.3h0c-1.6.93-2.6,2.88-2.64,5.65l-1.63.94a13.54,13.54,0,0,1,1.62-.8c-5.29,2.17-9.26,8.12-13.13,14-2.52,3.76-5,7.42-7.62,9.75a7.12,7.12,0,0,1-5.58-.91c-7.33-4.23-11.9-12.77-17.21-22.66-3.64-6.8-7.61-14.21-12.84-20.2-.68-5.35-4.39-11.3-8.88-13.89-2.5-1.44-4.77-1.57-6.41-.62l-4,2.32a4,4,0,0,1,.82-.36,4.21,4.21,0,0,0-1.59,1c-5.14-.28-9.07,1.81-12.68,3.77-4.48,2.43-8.36,4.53-13.55,1.53-6-3.49-9.25-7.86-13-12.91s-8-10.9-15.17-15c-4.76-2.74-8.67-3-12.47-3.18s-7.23-.41-11.62-3a39.92,39.92,0,0,1-9-7.59v-1c0-5.72-4-12.73-9-15.6-2.51-1.45-4.79-1.58-6.43-.63l-4,2.32h0C683.4,401.65,682.38,403.66,682.37,406.48ZM985.59,575.71a8.18,8.18,0,0,1,3.32,5.7,8.24,8.24,0,0,1-3.31-5.66ZM877.65,484.88a8.25,8.25,0,0,1,3.31,5.71A8.25,8.25,0,0,1,877.65,484.88Zm-78.33-26.47a8.15,8.15,0,0,1,3.32,5.71A8.26,8.26,0,0,1,799.32,458.41ZM691.75,407.73a8.19,8.19,0,0,1,3.31,5.69A8.19,8.19,0,0,1,691.75,407.73Z" style="fill:#88f5ff"/><path d="M682.37,406.48c0,5.73,4,12.72,9,15.6,2.76,1.59,5.24,1.59,6.91.3a49.12,49.12,0,0,0,11.12,9.35c5.42,3.13,9.76,3.39,13.81,3.62,3.42.18,6.66.37,10.25,2.45,5.54,3.2,8.62,7.38,12.17,12.24,3.87,5.28,8.27,11.26,16,15.71,7.36,4.26,12.41,1.53,17.28-1.12,3.5-1.88,7.09-3.78,11.66-3.36,1.31,4.63,4.58,9.28,8.41,11.5,3.47,2,6.5,1.48,8-1,3.61,4.61,6.64,10.24,9.77,16.08,5.64,10.52,11.46,21.4,21.18,27,10.2,5.89,16.13-3,21.88-11.64,3.28-4.92,6.64-9.93,10.56-11.72a19.11,19.11,0,0,0,6.91,7.71c3.12,1.79,5.88,1.56,7.51-.28,3.79,5,7,11.54,10.28,18.33,5.88,12.1,12,24.6,22.3,30.57,10.85,6.26,19.68,4,27.49,2.1,5.52-1.37,10.71-2.68,15-.21,5.45,3.14,12.12,12.71,17.12,21a8.78,8.78,0,0,0-.76,3.71c0,5.72,4,12.71,9,15.59s9,.57,9.06-5.16-4-12.72-9-15.6a7.57,7.57,0,0,0-4.79-1.18c-5.43-9-13.28-20.31-20.62-24.55-6-3.46-11.88-2-18.13-.42-7.14,1.78-15.23,3.81-24.36-1.46-7.72-4.46-12.75-14.81-18.08-25.77-3.85-7.93-7.81-16-13-22.27-.17-5.66-4.13-12.39-9-15.2s-9-.55-9.07,5.16c-5.29,2.17-9.26,8.12-13.13,14-5.19,7.77-10.19,15.17-17.19,11.11-7.33-4.23-11.9-12.77-17.2-22.67-3.65-6.8-7.62-14.2-12.85-20.2-.68-5.34-4.39-11.29-8.88-13.88-4.15-2.4-7.66-1.17-8.72,2.61-6.39-1.24-11,1.21-15.13,3.47-4.48,2.43-8.36,4.53-13.54,1.53-6.06-3.5-9.25-7.86-13-12.91s-8-10.91-15.18-15c-4.75-2.75-8.67-3-12.47-3.19s-7.23-.41-11.62-2.94a39.92,39.92,0,0,1-9-7.59v-1c0-5.73-4-12.73-9-15.61S682.39,400.79,682.37,406.48Zm299.2,171.11c0-2.34,1.66-3.28,3.69-2.11a8.11,8.11,0,0,1,3.68,6.36c0,2.34-1.67,3.28-3.7,2.11a8.07,8.07,0,0,1-3.67-6.33ZM873.63,486.73c0-2.32,1.66-3.28,3.69-2.1A8.09,8.09,0,0,1,881,491c0,2.34-1.67,3.3-3.7,2.12a8.1,8.1,0,0,1-3.67-6.34ZM795.3,460.28c0-2.34,1.67-3.27,3.7-2.1a8.11,8.11,0,0,1,3.68,6.36c0,2.34-1.67,3.27-3.7,2.11a8.14,8.14,0,0,1-3.68-6.37ZM687.73,409.6c0-2.33,1.66-3.28,3.69-2.1a8,8,0,0,1,3.67,6.36c0,2.34-1.66,3.28-3.69,2.1A8.07,8.07,0,0,1,687.73,409.6Z" style="fill:#4a878c;opacity:0.30000001192092896;isolation:isolate"/><path d="M994.28,643.19a.44.44,0,0,0,.31-.18.36.36,0,0,0-.13-.49l-311.81-180a.37.37,0,0,0-.48.18.36.36,0,0,0,.12.44l311.81,180A.61.61,0,0,0,994.28,643.19Z" style="fill:#2d7770"/><path d="M707.39,290.28c9.89,0,19.77,2.18,27.31,6.53S746,306.87,746,312.58,742.24,324,734.7,328.34s-17.42,6.53-27.31,6.53-19.76-2.18-27.3-6.53-11.31-10.06-11.31-15.76,3.77-11.41,11.31-15.77S697.51,290.28,707.39,290.28Z" style="fill:#144d4c;opacity:0.20000000298023224;isolation:isolate"/><path d="M675.1,331.48c-8.71-5-13.51-11.76-13.51-18.93s4.8-13.9,13.51-18.93,20.08-7.72,32.26-7.72,23.64,2.74,32.27,7.72,13.51,11.75,13.51,18.93-4.8,13.89-13.51,18.93-20.09,7.72-32.27,7.72S683.76,336.48,675.1,331.48Zm.53-37c-8.38,4.84-13,11.24-13,18s4.62,13.18,13,18,19.74,7.58,31.73,7.58,23.27-2.69,31.74-7.58,13-11.24,13-18-4.61-13.18-13-18S719.36,287,707.35,287s-23.25,2.72-31.69,7.61Z" style="fill:#070b3b"/><path d="M680.1,274.48c7.54-4.36,17.42-6.53,27.3-6.53s19.77,2.17,27.31,6.53S746,284.54,746,290.24v9.51c0,5.7-3.77,11.41-11.31,15.76S717.29,322,707.4,322s-19.76-2.17-27.3-6.53-11.31-10.1-11.31-15.76v-9.47C668.78,284.58,672.55,278.87,680.1,274.48Z" style="fill:#061e43"/><path d="M707.39,268c9.89,0,19.77,2.17,27.31,6.53S746,284.58,746,290.28s-3.77,11.41-11.31,15.77-17.42,6.53-27.31,6.53-19.76-2.18-27.3-6.53S668.78,296,668.78,290.28s3.77-11.41,11.31-15.76S697.51,268,707.39,268Z" style="fill:#a8e3f7"/><path d="M674.77,754.89c9.89,0,19.77,2.18,27.31,6.53s11.31,10.06,11.31,15.76S709.62,788.6,702.08,793s-17.42,6.53-27.31,6.53S655,797.3,647.47,793s-11.31-10.06-11.31-15.77,3.75-11.41,11.31-15.77S664.91,754.89,674.77,754.89Z" style="fill:#144d4c;opacity:0.20000000298023224;isolation:isolate"/><path d="M642.51,796.11c-8.72-5-13.52-11.75-13.52-18.93s4.8-13.89,13.52-18.92,20.08-7.73,32.26-7.73,23.64,2.75,32.26,7.73,13.52,11.75,13.52,18.92-4.8,13.9-13.52,18.93-20.08,7.73-32.26,7.73S651.1,801.09,642.51,796.11Zm.53-36.94c-8.38,4.83-13,11.23-13,18s4.62,13.19,13,18,19.74,7.58,31.73,7.58,23.27-2.7,31.74-7.58,13-11.24,13-18-4.61-13.18-13-18-19.74-7.59-31.75-7.59S651.51,754.27,643,759.17Z" style="fill:#070b3b"/><path d="M647.47,739.12c7.54-4.35,17.42-6.53,27.3-6.52s19.77,2.17,27.31,6.52,11.31,10.06,11.31,15.77v9.52c0,5.71-3.77,11.41-11.31,15.77s-17.42,6.53-27.31,6.53-19.76-2.18-27.3-6.53-11.31-10.08-11.31-15.77v-9.5C636.16,749.18,639.91,743.48,647.47,739.12Z" style="fill:#061e43"/><path d="M674.77,732.6c9.89,0,19.77,2.17,27.31,6.52s11.31,10.06,11.31,15.77-3.77,11.41-11.31,15.76-17.42,6.53-27.31,6.53S655,775,647.47,770.65s-11.31-10-11.31-15.76,3.77-11.41,11.31-15.77S664.91,732.59,674.77,732.6Z" style="fill:#a8e3f7"/></g></svg>