<?xml version="1.0"?>
<svg xmlns="http://www.w3.org/2000/svg" viewBox="0 0 48 48" width="512" height="512"><g id="Roman_balcony" data-name="Roman balcony"><path d="M38.8,11.94A6,6,0,0,0,38,0H10a6,6,0,0,0-.8,11.94c1,3.82.8,2.43.8,6.06a3,3,0,0,0-2.11.87A3,3,0,0,0,10,24V41a3,3,0,0,0-3,3v3a1,1,0,0,0,1,1H40a1,1,0,0,0,1-1V44a3,3,0,0,0-3-3V24a3,3,0,0,0,2.11-.87A3,3,0,0,0,38,18C38,14.38,37.84,15.76,38.8,11.94ZM11.28,12H36.72l-.5,2H11.78Zm3.18-2a6,6,0,0,0,0-8H33.54a6,6,0,0,0,0,8ZM42,6a4,4,0,1,1-4-4A4,4,0,0,1,42,6ZM6,6a4,4,0,1,1,4,4A4,4,0,0,1,6,6ZM39,44v2H9V44a1,1,0,0,1,1-1H38A1,1,0,0,1,39,44Zm-3-3H31V29a1,1,0,0,0-2,0V41H25V29a1,1,0,0,0-2,0V41H19V29a1,1,0,0,0-2,0V41H12V24H36Zm2-19H10a1,1,0,0,1,0-2H38A1,1,0,0,1,38,22ZM12,18V16H36v2Z"/><path d="M10.71,6.71A1,1,0,1,0,9,6,1,1,0,0,0,10.71,6.71Z"/><path d="M37,6a1,1,0,0,0,2,0A1,1,0,0,0,37,6Z"/></g></svg>
