<svg id="b970bff0-31a7-4301-8e14-418edc429bcb" data-name="Layer 1" xmlns="http://www.w3.org/2000/svg" xmlns:xlink="http://www.w3.org/1999/xlink" viewBox="0 0 2150.02 1448.28"><defs><linearGradient id="b5b8b71d-edab-49a3-9262-82708496c42a" x1="6204.25" y1="148.65" x2="6192.71" y2="47.96" gradientTransform="matrix(1, 0, 0, -1, -6108.89, 1465.69)" gradientUnits="userSpaceOnUse"><stop offset="0" stop-color="#ff928e"/><stop offset="1" stop-color="#feb3b1"/></linearGradient><linearGradient id="af87b53b-b628-4845-940e-feb218c38383" x1="7203.59" y1="74.3" x2="7195.2" y2="1.12" gradientTransform="matrix(0.96, 0.27, 0.27, -0.96, -6676.58, -643.13)" xlink:href="#b5b8b71d-edab-49a3-9262-82708496c42a"/><linearGradient id="b495224e-61a0-49a6-a111-cca43954da93" x1="2845.49" y1="63.88" x2="2863.83" y2="63.88" gradientTransform="matrix(1, 0, 0, -1, -1537.78, 1465.69)" xlink:href="#b5b8b71d-edab-49a3-9262-82708496c42a"/><linearGradient id="b83ae77f-8274-45c9-8f7e-7a2a75458f69" x1="2779.37" y1="64.81" x2="2795.21" y2="64.81" gradientTransform="matrix(1, 0, 0, -1, -1537.78, 1465.69)" xlink:href="#b5b8b71d-edab-49a3-9262-82708496c42a"/></defs><g id="ae6f552e-714f-4c00-9d52-416514531c76" data-name="a79c63f7-4224-4b7a-ac2c-afc906e97deb"><path d="M2116,322c-54.21-107.36-173.24-188.09-289.1-163.32-69.37,14.83-138.32,64.58-204.84,39.61-47.94-18-75-69.06-115.3-101.1-62-49.3-150.08-48.73-225.67-26.64-46.8,13.68-91.35,25.84-141,24.81-52.92-1.1-104.65-16.08-154.66-32.23-75.74-24.44-154.65-52-233.08-38.55a230.87,230.87,0,0,0-78.52,29C649.9,67.81,626.84,87,599,88.64,573.24,90.16,549.5,76.13,525.73,66c-51.51-22-154.31-39.09-203,.08-9.63,7.75-18.92,22.67-28.36,32.34a140.36,140.36,0,0,0-25.16,35.17c-12.67,25.39-17.14,55-8.2,82.34,3.71,11.36,9.53,22.54,8.77,34.48-1.22,19.15-19.35,33.18-37.69,37.44s-37.46,1.48-56.26,2C91.44,292,16,370.54,15.63,456.65c-.33,71.41,42.84,134.16,79.75,194.84S165.46,785,143.47,852.77c-13,40.2-43.62,71.65-63.66,108.74-51.94,96.14-24.18,223.42,48.36,304.51s181.17,120.77,288.38,130.22,214.73-8.29,321-25.82,213.84-35,321-24.92c0,0,422.57,62.24,636.44,34,147-19.45,265.73-132.83,338.22-256,36.75-62.44,64.54-131.44,77.3-202.94C2125.07,838.94,2150,759.74,2159,676.4,2171.89,556.28,2170.22,429.35,2116,322Z" transform="translate(-15.63 -12.84)" style="fill:#b5e3df;opacity:0.5;isolation:isolate"/><path d="M2038.43,405.72c0-9.07-12.14-12.17-16.41-4.17-41.28,77.4-155.88,277-284.69,367.89C1527.59,917.5,1349,1193.56,1423,1373.15,1423,1373.15,2034.31,1394.25,2038.43,405.72Z" transform="translate(-15.63 -12.84)" style="fill:#2d6375"/><path d="M1995.71,519.72c-.79,2.53-1.69,4.69-2.54,7l-2.66,6.77L1985,547c-3.7,9-7.5,17.88-11.32,26.79q-11.55,26.7-23.69,53.13c-16.21,35.23-33.33,70-51,104.56s-36.16,68.64-55.38,102.33l-7.19,12.65L1829.1,859c-4.94,8.35-9.72,16.79-14.8,25l-15.06,24.9-15.44,24.66c-41.51,65.56-86.47,129-135.77,189-3,3.79-6.18,7.48-9.35,11.15l-9.48,11-9.48,11c-3.21,3.64-6.51,7.2-9.76,10.8-6.56,7.16-13,14.46-19.65,21.48l-20.22,21a1027.06,1027.06,0,0,1-86.54,77.79,1,1,0,0,1-1.24-1.52h0a1101.79,1101.79,0,0,0,84.87-79.11L1587.1,1185c6.6-7.06,12.9-14.41,19.36-21.6,3.2-3.63,6.46-7.2,9.61-10.87l9.33-11.11,9.34-11.09c3.12-3.69,6.22-7.41,9.2-11.21l18.14-22.65c6-7.59,11.78-15.34,17.69-23,2.92-3.85,5.9-7.67,8.78-11.56l8.57-11.7,8.56-11.71c2.87-3.9,5.71-7.82,8.46-11.79,22.49-31.5,43.72-63.86,64.64-96.43,41.57-65.3,79.79-132.72,115.85-201.23q27-51.47,51.93-103.91,12.51-26.2,24.49-52.67,5.94-13.26,11.73-26.57l5.68-13.37,2.77-6.7c.87-2.23,1.83-4.54,2.54-6.63l.07-.2a1,1,0,0,1,1.37-.37,1,1,0,0,1,.49,1Z" transform="translate(-15.63 -12.84)" style="fill:#fff;opacity:0.4300000071525574;isolation:isolate"/><path d="M422.2,721.84a5.33,5.33,0,0,1,8.57-3.43c49.42,39,327.75,277.62,150.73,579C581.5,1297.39,357.83,1187.45,422.2,721.84Z" transform="translate(-15.63 -12.84)" style="fill:#73d0d9"/><path d="M446.05,779a.93.93,0,0,1,1.25.36c9.68,17.64,19,35.46,28.14,53.37s18.09,35.92,26.82,54c17.45,36.23,34.11,72.86,49.62,110s29.9,74.74,42.23,113.08q9.35,28.71,16.56,58.11a509,509,0,0,1,11.17,59.48,2.18,2.18,0,1,1-4.33.52h0a504.81,504.81,0,0,0-10.78-59q-7-29.24-16.17-57.93c-12.1-38.27-26.29-75.88-41.55-113s-31.74-73.82-49-110.11q-12.93-27.21-26.51-54.13t-27.83-53.45h0a.91.91,0,0,1,.29-1.25Z" transform="translate(-15.63 -12.84)" style="fill:#fff;opacity:0.8600000143051147;isolation:isolate"/><path d="M966,821.3a5.41,5.41,0,0,0-8.44-3.92c-52.27,35.51-347.85,254.34-188.1,563C769.49,1380.39,1001.93,1285.41,966,821.3Z" transform="translate(-15.63 -12.84)" style="fill:#4a878c"/><path d="M937.18,876.72c-10.86,16.85-21.35,33.89-31.7,51s-20.47,34.4-30.4,51.77-19.65,34.86-29.15,52.46-18.73,35.35-27.72,53.21c-17.93,35.75-34.8,72-49.62,109.18q-11.21,27.81-20.31,56.41a495,495,0,0,0-15,58.08,2,2,0,0,0,1.62,2.32h0a2,2,0,0,0,2.36-1.55v0h0a492.44,492.44,0,0,1,14.61-57.71q8.88-28.47,19.94-56.27c14.59-37.08,31.26-73.38,49-109.16q13.33-26.82,27.42-53.27t28.87-52.55q14.76-26.1,30.12-51.87c10.25-17.17,20.66-34.26,31.42-51.12h0a.82.82,0,0,0-.27-1.15h0A.89.89,0,0,0,937.18,876.72Z" transform="translate(-15.63 -12.84)" style="fill:#fff;opacity:0.8600000143051147;isolation:isolate"/><path d="M1723.71,1405.23s-3.48-89.16,79.88-165.17c77.35-70.52,268.19-231.72,308.43-331.7,1.79-4.43,8.84-1.88,9.2,3.34,3.89,56,2.79,194.46-84,318.09C1925.23,1389.21,1723.71,1405.23,1723.71,1405.23Z" transform="translate(-15.63 -12.84)" style="fill:#73d0d9"/><path d="M2085.93,1003.1a174,174,0,0,1-5.29,32.71,283.63,283.63,0,0,1-9.85,31.75,317.25,317.25,0,0,1-30.24,59.27c-23.66,37.75-55.8,69.65-89.57,98-8.41,7.16-16.93,14.19-25.45,21.22s-17.19,13.86-25.92,20.62-17.46,13.51-26.22,20.22l-26.55,19.74c-17.71,13.11-35.42,26.19-52.57,39.89-8.63,6.78-16.88,14-24.82,21.5-3.77,3.94-7.76,7.71-11.18,12-3.73,4-6.78,8.53-10,12.94v.06a1,1,0,0,1-1.75-1.16,156.69,156.69,0,0,1,20.35-26.38q11.61-12,24.25-22.76c16.8-14.44,34.38-27.79,51.74-41.36l26.06-20.31c8.66-6.79,17.36-13.53,25.93-20.42q25.8-20.58,51-41.9c8.27-7.21,16.83-14.21,24.72-21.72l12-11.1c3.87-3.84,7.58-7.85,11.39-11.76l5.67-5.91c2-1.91,3.57-4.12,5.39-6.15l10.67-12.42c3.42-4.25,6.64-8.67,10-13,1.62-2.19,3.35-4.31,4.9-6.55l4.57-6.8A338.3,338.3,0,0,0,2067,1066c2-5.1,4.28-10.09,6.13-15.24s3.78-10.3,5.28-15.57c1.69-5.23,3-10.56,4.31-15.89a153.38,153.38,0,0,0,3-16.2.13.13,0,0,1,.13-.13h0A.18.18,0,0,1,2085.93,1003.1Z" transform="translate(-15.63 -12.84)" style="fill:#fff;opacity:0.44999998807907104;isolation:isolate"/><path d="M72.71,687.62a6.19,6.19,0,0,1,11.73-2.57c27.45,55.83,104,200,193.24,267.46,145.24,109.88,265.42,309.77,208.76,435.33C486.44,1387.84,52.53,1388.55,72.71,687.62Z" transform="translate(-15.63 -12.84)" style="fill:#2d6375"/><path d="M102.19,769.11c.45,1.37,1.1,3.08,1.68,4.65l1.84,4.8,3.81,9.56,7.79,19.06q7.95,19,16.32,37.82,16.63,37.68,34.63,74.72c24.16,49.29,49.6,98,77.62,145.14,14.1,23.52,28.31,47,43.48,69.82s30.88,45.32,47.45,67.15c33,43.77,69.26,85.12,109.93,122a1.23,1.23,0,0,1,.13,1.73,1.22,1.22,0,0,1-1.72.13h0a708,708,0,0,1-60-56.84c-18.84-20.14-36.48-41.36-53.55-63a1314.58,1314.58,0,0,1-92.09-137.21c-14-23.74-27.2-47.92-40-72.27s-25.15-49-36.75-74-22.9-50.07-33.46-75.49q-7.89-19.08-15.38-38.31c-2.46-6.43-4.93-12.85-7.3-19.31l-3.48-9.73-1.69-4.88c-.53-1.68-1.1-3.19-1.61-5.12a1.22,1.22,0,0,1,2.33-.69Z" transform="translate(-15.63 -12.84)" style="fill:#fff;opacity:0.4300000071525574;isolation:isolate"/><path d="M1440.42,1251.31h368.91a40.42,40.42,0,0,1,40.42,40.42h0v115.85H1400V1291.73a40.42,40.42,0,0,1,40.42-40.42Z" transform="translate(-15.63 -12.84)" style="fill:#4aa4c2"/><path d="M1387,1251.31h368.91a40.42,40.42,0,0,1,40.42,40.42h0v115.85H1346.57V1291.73a40.42,40.42,0,0,1,40.42-40.42Z" transform="translate(-15.63 -12.84)" style="fill:#5ecff5"/><path d="M1248.42,656.51l-5.78,16.33A76,76,0,0,0,1220,682l-15.51-7.71a1.43,1.43,0,0,0-1.63.26L1188,689.13a1.44,1.44,0,0,0-.29,1.63l7.46,15.64a75.43,75.43,0,0,0-9.54,22.53l-16.44,5.51a1.44,1.44,0,0,0-1,1.34l-.17,20.79a1.4,1.4,0,0,0,1,1.36l16.34,5.79a75.36,75.36,0,0,0,9.17,22.68l-7.72,15.51a1.43,1.43,0,0,0,.26,1.64l14.58,14.82a1.4,1.4,0,0,0,1.63.29l15.64-7.46a75.21,75.21,0,0,0,22.53,9.54l5.51,16.44a1.42,1.42,0,0,0,1.34,1l20.8.17a1.38,1.38,0,0,0,1.35-.94l5.79-16.35a74.85,74.85,0,0,0,22.68-9.17l15.52,7.72a1.4,1.4,0,0,0,1.63-.26l14.83-14.58a1.43,1.43,0,0,0,.28-1.63l-7.45-15.65a75,75,0,0,0,9.55-22.53l16.43-5.51a1.42,1.42,0,0,0,1-1.34l.18-20.8a1.44,1.44,0,0,0-.95-1.35l-16.34-5.79a75.57,75.57,0,0,0-9.17-22.68l7.72-15.52a1.43,1.43,0,0,0-.26-1.63l-14.59-14.82a1.42,1.42,0,0,0-1.62-.29L1300,682.69a76,76,0,0,0-22.53-9.55L1272,656.71a1.42,1.42,0,0,0-1.34-1l-20.79-.18A1.46,1.46,0,0,0,1248.42,656.51Z" transform="translate(-15.63 -12.84)" style="fill:#071841"/><path d="M1251.25,728.84a19.85,19.85,0,1,1-8.82,7.78h0A19.82,19.82,0,0,1,1251.25,728.84Zm15.19,33.66a17,17,0,1,0-21.59-24.41h0a17.07,17.07,0,0,0,21.59,24.41Zm-22.8-25.14Z" transform="translate(-15.63 -12.84)" style="fill:#fff"/><g style="opacity:0.6399999856948853"><path d="M1279.25,634.27a3.64,3.64,0,0,1,2.11-.25c1.91.37,3.83.79,5.7,1.26a3.53,3.53,0,0,1-1.7,6.86h0c-1.76-.43-3.56-.83-5.34-1.18a3.53,3.53,0,0,1-.77-6.69Z" transform="translate(-15.63 -12.84)" style="fill:#2d6375"/><path d="M1302.64,641.58a3.58,3.58,0,0,1,2.87,0,116.72,116.72,0,0,1,10.72,5.39,3.54,3.54,0,0,1-3.3,6.27,1.32,1.32,0,0,1-.2-.12,109.44,109.44,0,0,0-10-5.08,3.53,3.53,0,0,1,0-6.46Zm26,15.89a3.54,3.54,0,0,1,3.69.49,117.18,117.18,0,0,1,8.89,8.07,3.54,3.54,0,0,1-5,5,108.69,108.69,0,0,0-8.33-7.57,3.53,3.53,0,0,1-.52-5l0,0a3.67,3.67,0,0,1,1.22-1Zm20.69,22.37a3.55,3.55,0,0,1,4.34,1.2,115.53,115.53,0,0,1,6.36,10.19,3.54,3.54,0,0,1-6.19,3.42,110.13,110.13,0,0,0-6-9.56,3.53,3.53,0,0,1,.86-4.91h0A5.18,5.18,0,0,1,1349.33,679.84ZM1363.19,707l.29-.11A3.54,3.54,0,0,1,1368,709h0a115.8,115.8,0,0,1,3.36,11.52,3.53,3.53,0,0,1-6.88,1.62h0q-1.31-5.48-3.15-10.81a3.55,3.55,0,0,1,1.88-4.44Zm6,29.84a3.7,3.7,0,0,1,1.22-.3,3.55,3.55,0,0,1,3.76,3.3,114.41,114.41,0,0,1,.13,12,3.53,3.53,0,1,1-7.06-.29,108.46,108.46,0,0,0-.13-11.26,3.54,3.54,0,0,1,2.13-3.5ZM1367,767.15a3.48,3.48,0,0,1,2.18-.23,3.54,3.54,0,0,1,2.72,4.2,115,115,0,0,1-3.13,11.58,3.54,3.54,0,0,1-6.72-2.2,108.82,108.82,0,0,0,2.93-10.87,3.54,3.54,0,0,1,2.07-2.53Zm-10.42,28.6a3.54,3.54,0,0,1,4.58,4.88c-1.09,2.06-2.26,4.13-3.48,6.14-.86,1.4-1.75,2.8-2.66,4.16a3.53,3.53,0,0,1-5.88-3.92c.85-1.28,1.69-2.6,2.49-3.91,1.15-1.9,2.26-3.84,3.28-5.77a3.58,3.58,0,0,1,1.72-1.63Zm-17.72,24.76a3.54,3.54,0,0,1,4,5.66,115.09,115.09,0,0,1-8.7,8.27,3.54,3.54,0,1,1-4.87-5.13l.27-.24a108.64,108.64,0,0,0,8.16-7.76,3.6,3.6,0,0,1,1.19-.85Z" transform="translate(-15.63 -12.84)" style="fill:#2d6375"/><path d="M1315.05,839.51a3.54,3.54,0,0,1,3.25,6.27c-1.65,1-3.36,1.94-5.08,2.85a3.54,3.54,0,1,1-3.6-6.09,2.69,2.69,0,0,1,.29-.16c1.62-.85,3.23-1.76,4.78-2.68Z" transform="translate(-15.63 -12.84)" style="fill:#2d6375"/></g><g style="opacity:0.6399999856948853"><path d="M1222.13,849.31a3.62,3.62,0,0,1,2.59-.12c1.71.59,3.46,1.14,5.22,1.64a3.53,3.53,0,0,1-1.93,6.8h0c-1.88-.54-3.75-1.12-5.57-1.74a3.54,3.54,0,0,1-.31-6.58Z" transform="translate(-15.63 -12.84)" style="fill:#2d6375"/><path d="M1189.71,655.52a3.54,3.54,0,0,1,4.61,2,3.51,3.51,0,0,1-1,4c-2.92,2.27-5.73,4.68-8.4,7.22a3.54,3.54,0,0,1-4.88-5.12,118.2,118.2,0,0,1,9-7.7A5.06,5.06,0,0,1,1189.71,655.52Zm-21,21.37a3.53,3.53,0,0,1,4.28,5.34c-2.06,2.76-4,5.67-5.83,8.63l-.35.57a3.53,3.53,0,1,1-6.06-3.63l.37-.61c1.92-3.16,4-6.25,6.21-9.19A3.56,3.56,0,0,1,1168.71,676.89Zm-14.59,26.17a3.53,3.53,0,0,1,4.74,4.52,108.46,108.46,0,0,0-3.51,10.49,3.53,3.53,0,1,1-6.81-1.89,113.83,113.83,0,0,1,3.74-11.19,3.5,3.5,0,0,1,1.87-1.93ZM1147,732.15a3.63,3.63,0,0,1,1.81-.29,3.54,3.54,0,0,1,3.15,3.88,107.65,107.65,0,0,0-.57,11.06,3.54,3.54,0,0,1-7.07,0A113.4,113.4,0,0,1,1145,735a3.53,3.53,0,0,1,2.1-2.86Zm.94,29.94a4.29,4.29,0,0,1,.86-.27,3.55,3.55,0,0,1,4.07,2.9h0a107.58,107.58,0,0,0,2.39,10.82,3.54,3.54,0,0,1-6.82,1.87,115.36,115.36,0,0,1-2.54-11.52,3.54,3.54,0,0,1,2.07-3.81Zm8.85,28.62a3.54,3.54,0,0,1,4.65,1.74c1.55,3.33,3.29,6.63,5.17,9.8a3.53,3.53,0,1,1-6.07,3.61,110.53,110.53,0,0,1-5.51-10.44,3.55,3.55,0,0,1,1.72-4.7ZM1173,815.94a3.54,3.54,0,0,1,4.14.94,107.38,107.38,0,0,0,7.61,8.06,3.54,3.54,0,0,1-4.89,5.11,111.45,111.45,0,0,1-8.1-8.59,3.54,3.54,0,0,1,.39-5h0a3.46,3.46,0,0,1,.87-.52Zm22.31,20a3.55,3.55,0,0,1,3.44.3c1.49,1,3,2,4.58,2.94s3.24,1.92,4.9,2.81a3.53,3.53,0,1,1-3.36,6.22c-1.76-1-3.52-2-5.22-3s-3.29-2.06-4.87-3.13a3.55,3.55,0,0,1,.53-6.15Z" transform="translate(-15.63 -12.84)" style="fill:#2d6375"/><path d="M1210.45,642.84a3.55,3.55,0,0,1,3,6.43h0c-1.64.77-3.29,1.59-4.89,2.45a3.54,3.54,0,0,1-3.61-6.09l.28-.15c1.71-.91,3.47-1.79,5.21-2.61Z" transform="translate(-15.63 -12.84)" style="fill:#2d6375"/></g><path d="M1232,703.24a1.42,1.42,0,0,1,1.77.54l.1.17a1.41,1.41,0,0,1-.54,1.78,49.74,49.74,0,0,0-8.13,6.46h0a48.84,48.84,0,0,0-4.44,64.52,48.06,48.06,0,0,0,3.87,4.44,48.76,48.76,0,1,0,47-81.4,1.38,1.38,0,0,1-1-1.68v0a1.41,1.41,0,0,1,1.71-1h0a51.6,51.6,0,1,1-49.17,13.15h0a52.25,52.25,0,0,1,7.86-6.35l.25-.17.49-.31Z" transform="translate(-15.63 -12.84)" style="fill:#fff"/><path d="M1117.33,494a3.67,3.67,0,0,1-3.32-2.07c-1.71-3.51-3.36-7.1-4.9-10.68a3.69,3.69,0,0,1,6.71-3.06,1,1,0,0,1,.07.15c1.49,3.47,3.08,7,4.75,10.35a3.69,3.69,0,0,1-1.69,4.93A3.39,3.39,0,0,1,1117.33,494Zm-23.4-87.51a3.69,3.69,0,0,1-3.68-3.44c-.27-3.89-.44-7.84-.51-11.74a3.69,3.69,0,1,1,7.36-.49c0,.12,0,.24,0,.35.07,3.78.24,7.6.5,11.38a3.68,3.68,0,0,1-3.43,3.93Zm-.1-30.36h-.23a3.67,3.67,0,0,1-3.45-3.89v0c.24-3.89.58-7.84,1-11.73a3.68,3.68,0,1,1,7.32.82h0c-.42,3.77-.75,7.6-1,11.37A3.69,3.69,0,0,1,1093.83,376.14Zm3.85-30.14a2.81,2.81,0,0,1-.71-.07,3.66,3.66,0,0,1-2.91-4.31h0c.75-3.84,1.6-7.7,2.54-11.5a3.69,3.69,0,0,1,7.16,1.77c-.91,3.68-1.74,7.42-2.46,11.14a3.69,3.69,0,0,1-3.59,3Zm7.74-29.37a3.34,3.34,0,0,1-1.17-.19,3.68,3.68,0,0,1-2.34-4.65v0c1.23-3.69,2.58-7.42,4-11.06a3.69,3.69,0,0,1,7,2.41c0,.09-.07.19-.11.27-1.38,3.53-2.68,7.14-3.88,10.72a3.68,3.68,0,0,1-3.49,2.52Zm11.46-28.12a3.67,3.67,0,0,1-3.31-5.3c1.7-3.51,3.51-7,5.39-10.45a3.69,3.69,0,0,1,6.47,3.55c-1.82,3.31-3.58,6.72-5.23,10.12a3.67,3.67,0,0,1-3.32,2.08Zm15-26.4a3.69,3.69,0,0,1-3.08-5.71c2.14-3.26,4.39-6.51,6.69-9.67a3.7,3.7,0,0,1,6,4.34h0c-2.23,3.06-4.41,6.22-6.48,9.37a3.68,3.68,0,0,1-3.14,1.67Zm18.25-24.27a3.69,3.69,0,0,1-2.8-6.09c2.54-3,5.19-5.89,7.87-8.72a3.69,3.69,0,0,1,5.35,5.07c-2.6,2.75-5.16,5.59-7.62,8.46A3.63,3.63,0,0,1,1150.13,237.84Zm21.22-21.7a3.69,3.69,0,0,1-2.47-6.43c2.9-2.6,5.9-5.16,8.93-7.63a3.69,3.69,0,0,1,4.65,5.73c-2.93,2.38-5.84,4.87-8.65,7.39a3.61,3.61,0,0,1-2.46,1Zm23.84-18.77a3.68,3.68,0,0,1-2.09-6.72c3.21-2.21,6.51-4.36,9.83-6.41a3.69,3.69,0,0,1,4.06,6.17l-.19.11c-3.21,2-6.42,4.07-9.52,6.21a3.74,3.74,0,0,1-2.09.65Zm26.06-15.5a3.69,3.69,0,0,1-1.67-7c3.47-1.77,7-3.48,10.6-5.07a3.69,3.69,0,0,1,3,6.73c-3.45,1.54-6.9,3.2-10.27,4.92a3.68,3.68,0,0,1-1.66.39Zm27.88-12a3.69,3.69,0,0,1-1.23-7.16c3.68-1.31,7.44-2.54,11.17-3.66a3.69,3.69,0,0,1,2.12,7.06c-3.62,1.09-7.26,2.28-10.82,3.55a3.73,3.73,0,0,1-1.24.18Zm131.11-7.74a3.84,3.84,0,0,1-.83-.09c-3.7-.85-7.45-1.61-11.17-2.27a3.69,3.69,0,0,1,1.3-7.26c3.83.68,7.71,1.47,11.52,2.34a3.69,3.69,0,0,1-.82,7.28Zm-101.91-.56a3.69,3.69,0,0,1-.78-7.29L1279,154c3.32-.7,6.72-1.33,10.08-1.89a3.68,3.68,0,0,1,1.2,7.27h0c-3.26.54-6.55,1.16-9.78,1.84l-1.41.3a3.46,3.46,0,0,1-.78.09Zm71.93-4.29h-.35c-3.76-.35-7.59-.62-11.36-.79a3.69,3.69,0,1,1,.13-7.37h.2c3.9.17,7.84.45,11.73.82a3.69,3.69,0,0,1-.35,7.36Zm-41.91-.21a3.69,3.69,0,0,1-.3-7.37c3.88-.32,7.83-.56,11.73-.7a3.69,3.69,0,0,1,.54,7.36,1.31,1.31,0,0,1-.28,0c-3.78.13-7.61.36-11.37.68Z" transform="translate(-15.63 -12.84)" style="fill:#2d6375"/><path d="M1404.1,169a3.48,3.48,0,0,1-1.2-.21c-1.83-.62-3.67-1.22-5.51-1.82a3.69,3.69,0,0,1,2.22-7c1.91.61,3.8,1.23,5.69,1.88a3.69,3.69,0,0,1-1.2,7.18Z" transform="translate(-15.63 -12.84)" style="fill:#2d6375"/><path d="M1538.93,288.43a3.67,3.67,0,0,1-3.33-2.08q-1.26-2.61-2.59-5.19a3.69,3.69,0,1,1,6.38-3.7,3.24,3.24,0,0,1,.17.32q1.38,2.66,2.68,5.36a3.69,3.69,0,0,1-1.67,4.92,3.58,3.58,0,0,1-1.64.37Z" transform="translate(-15.63 -12.84)" style="fill:#2d6375"/><path d="M1328.21,625.27a3.69,3.69,0,0,1,0-7.38c3.92,0,7.91-.12,11.84-.33a3.69,3.69,0,0,1,.4,7.37c-4.06.21-8.17.33-12.23.34Zm-19.54-.78h-.31c-4-.33-8.13-.77-12.15-1.31a3.69,3.69,0,1,1,.83-7.33l.17,0c3.9.52,7.86,1,11.78,1.27a3.69,3.69,0,0,1-.3,7.36Zm51-1.42a3.69,3.69,0,0,1-.5-7.35c3.89-.53,7.83-1.18,11.69-1.91a3.69,3.69,0,0,1,1.38,7.24c-4,.76-8,1.43-12.06,2a2.47,2.47,0,0,1-.47,0Zm-82.22-3.23a3.57,3.57,0,0,1-.8-.09c-4-.87-8-1.86-11.87-2.94a3.69,3.69,0,1,1,2-7.11h0c3.8,1,7.67,2,11.5,2.85a3.69,3.69,0,0,1-.79,7.29Zm113.17-3.11a3.69,3.69,0,0,1-1-7.24c3.8-1,7.61-2.21,11.33-3.45a3.69,3.69,0,0,1,2.51,7l-.18,0c-3.84,1.28-7.78,2.48-11.69,3.56a3.54,3.54,0,0,1-1,.08Zm29.8-10.43a3.69,3.69,0,0,1-1.45-7.08c3.61-1.55,7.23-3.21,10.76-4.94a3.69,3.69,0,0,1,3.25,6.62c-3.65,1.79-7.38,3.5-11.11,5.1a3.61,3.61,0,0,1-1.45.25Zm28.11-14.36a3.69,3.69,0,0,1-1.9-6.85c3.37-2,6.73-4.16,10-6.34a3.69,3.69,0,0,1,4.79,5.62,4.16,4.16,0,0,1-.71.47c-3.35,2.25-6.82,4.46-10.3,6.54a3.57,3.57,0,0,1-1.88.51Zm25.89-18a3.69,3.69,0,0,1-2.3-6.57c3-2.45,6.09-5,9-7.63a3.69,3.69,0,1,1,4.91,5.51c-3,2.7-6.18,5.35-9.33,7.88a3.6,3.6,0,0,1-2.28.71Zm23.29-21.42a3.69,3.69,0,0,1-2.67-6.23c2.7-2.85,5.37-5.8,7.93-8.79a3.69,3.69,0,0,1,5.76,4.61,1.46,1.46,0,0,1-.16.19c-2.64,3.09-5.4,6.14-8.19,9.07A3.66,3.66,0,0,1,1497.71,552.52Zm20.17-24.28a3.69,3.69,0,0,1-3-5.85c2.31-3.18,4.56-6.47,6.7-9.77a3.69,3.69,0,0,1,6.4,3.68l-.21.32c-2.21,3.41-4.54,6.8-6.91,10.08a3.65,3.65,0,0,1-3,1.54Zm16.75-26.76a3.52,3.52,0,0,1-1.74-.44,3.66,3.66,0,0,1-1.52-5v0c1.86-3.47,3.65-7,5.33-10.59a3.69,3.69,0,0,1,6.67,3.15c-1.73,3.67-3.58,7.35-5.5,10.92a3.68,3.68,0,0,1-3.3,2Zm13-28.77a3.67,3.67,0,0,1-3.46-5c1.38-3.67,2.68-7.44,3.87-11.2a3.69,3.69,0,0,1,7,2.22c-1.23,3.88-2.57,7.77-4,11.57a3.68,3.68,0,0,1-3.43,2.41Zm9-30.25a3.75,3.75,0,0,1-.82-.09A3.68,3.68,0,0,1,1553,438v0c.87-3.84,1.65-7.75,2.32-11.63a3.69,3.69,0,0,1,7.27,1.26q-1,6-2.4,12a3.68,3.68,0,0,1-3.51,2.88Zm4.87-31.21h-.32a3.69,3.69,0,0,1-3.35-4c.34-3.91.58-7.89.72-11.82a3.69,3.69,0,0,1,7.37.26c-.14,4.06-.39,8.16-.75,12.2a3.67,3.67,0,0,1-3.64,3.36Zm.61-31.56a3.67,3.67,0,0,1-3.68-3.51c-.19-3.92-.49-7.89-.88-11.82a3.69,3.69,0,0,1,7.34-.73c.4,4,.71,8.15.9,12.19a3.68,3.68,0,0,1-3.49,3.86h-.19Zm-3.65-31.37a3.69,3.69,0,0,1-3.62-3c-.35-1.87-.71-3.74-1.11-5.61s-.86-4-1.33-6a3.68,3.68,0,0,1,7.17-1.7q.73,3.06,1.38,6.17.61,2.91,1.14,5.79a3.69,3.69,0,0,1-3,4.29h0a3.05,3.05,0,0,1-.6.06Zm-7.77-30.6a3.67,3.67,0,0,1-3.5-2.55c-1.22-3.74-2.56-7.49-4-11.16a3.69,3.69,0,0,1,6.89-2.64c1.45,3.78,2.83,7.66,4.09,11.52a3.7,3.7,0,0,1-2.36,4.65,3.47,3.47,0,0,1-1.1.18Z" transform="translate(-15.63 -12.84)" style="fill:#2d6375"/><path d="M1247,610.84a3.25,3.25,0,0,1-1.27-.23c-1.88-.69-3.74-1.4-5.6-2.14a3.69,3.69,0,0,1,2.73-6.85c1.79.71,3.6,1.41,5.42,2.07a3.69,3.69,0,0,1-1.28,7.15Z" transform="translate(-15.63 -12.84)" style="fill:#2d6375"/><path d="M1241,544.84a2.76,2.76,0,0,0,3.26,0l27.72-20.13a148.92,148.92,0,0,0,47.19,10.47l16.58,29.87a2.79,2.79,0,0,0,3,1.4l40.45-7.14a2.8,2.8,0,0,0,2.29-2.33l5.36-33.81a148.91,148.91,0,0,0,40.75-26l32.94,9.42a2.78,2.78,0,0,0,3.07-1.1l23.55-33.65a2.79,2.79,0,0,0,0-3.26L1467,440.84a148.84,148.84,0,0,0,10.46-47.19L1507.35,377a2.81,2.81,0,0,0,1.41-2.95l-7.15-40.45a2.82,2.82,0,0,0-2.33-2.29L1465.47,326a149.06,149.06,0,0,0-26-40.75l9.42-32.94a2.79,2.79,0,0,0-1.1-3.07l-33.66-23.56a2.79,2.79,0,0,0-3.26,0l-27.72,20.18A149.53,149.53,0,0,0,1336,235.37l-16.62-29.92a2.83,2.83,0,0,0-3-1.41l-40.45,7.15a2.8,2.8,0,0,0-2.29,2.33l-5.36,33.81a149.15,149.15,0,0,0-40.75,26l-32.94-9.42a2.81,2.81,0,0,0-3.07,1.1l-23.56,33.66a2.79,2.79,0,0,0,0,3.26l20.13,27.72a148.93,148.93,0,0,0-10.34,47.19l-30,16.61a2.8,2.8,0,0,0-1.4,2.95l7.14,40.45a2.78,2.78,0,0,0,2.33,2.29l33.81,5.36a148.76,148.76,0,0,0,26,40.75l-9.42,32.94a2.79,2.79,0,0,0,1.1,3.07Z" transform="translate(-15.63 -12.84)" style="fill:#ffd131"/><path d="M1327.56,424.7a39.48,39.48,0,1,1,16.14-3.49A39.47,39.47,0,0,1,1327.56,424.7Zm-.06-73a33.52,33.52,0,1,0,30.63,19.79,33.54,33.54,0,0,0-30.63-19.79Z" transform="translate(-15.63 -12.84)" style="fill:#fff"/><path d="M1327.85,485.12h-3.76a1.48,1.48,0,0,1-1.42-1.48v-.05a1.49,1.49,0,0,1,1.53-1.42,97.4,97.4,0,0,0,20.74-1.44h0a97.63,97.63,0,1,0-90.8-32.21,1.48,1.48,0,0,1,.36,1,1.48,1.48,0,0,1-2.59,1h0a100.62,100.62,0,1,1,93.55,33.18h0A100.93,100.93,0,0,1,1327.85,485.12Z" transform="translate(-15.63 -12.84)" style="fill:#fff;stroke:#fff;stroke-miterlimit:10;stroke-width:4px"/><path d="M820.85,621.18a3.35,3.35,0,0,1-3.22-2.41c-.51-1.74-1-3.5-1.46-5.26a3.37,3.37,0,0,1,6.54-1.67h0q.67,2.55,1.41,5.07a3.35,3.35,0,0,1-2.27,4.16h0A3.08,3.08,0,0,1,820.85,621.18Z" transform="translate(-15.63 -12.84)" style="fill:#2d6375"/><path d="M815.71,598.61a3.36,3.36,0,0,1-3.31-2.82c-.59-3.66-1.08-7.38-1.46-11.06a3.36,3.36,0,0,1,6.65-1l0,.27c.36,3.55.83,7.14,1.4,10.66a3.35,3.35,0,0,1-2.76,3.85h0A2.47,2.47,0,0,1,815.71,598.61ZM813.32,570a3.35,3.35,0,0,1-3.35-3.33v-1.21c0-3.28.08-6.62.25-9.93a3.35,3.35,0,0,1,6.7.34c-.16,3.2-.25,6.42-.25,9.59v1.17a3.35,3.35,0,0,1-3.33,3.37h0Zm2-28.65a2,2,0,0,1-.49,0,3.34,3.34,0,0,1-2.83-3.79h0c.54-3.67,1.19-7.36,1.94-11a3.35,3.35,0,0,1,6.57,1.36c-.72,3.49-1.35,7-1.87,10.59a3.34,3.34,0,0,1-3.3,2.85Zm6.34-28a3.35,3.35,0,0,1-3.21-4.35c1.09-3.53,2.3-7.08,3.6-10.55a3.36,3.36,0,0,1,6.29,2.35c-1.26,3.35-2.43,6.78-3.48,10.18a3.34,3.34,0,0,1-3.15,2.36Zm10.57-26.71a3.35,3.35,0,0,1-3.35-3.35,3.46,3.46,0,0,1,.35-1.48c1.63-3.32,3.38-6.65,5.2-9.88a3.35,3.35,0,1,1,5.84,3.3c-1.76,3.12-3.44,6.32-5,9.53a3.35,3.35,0,0,1-3,1.87Zm14.61-24.77a3.23,3.23,0,0,1-1.92-.61,3.35,3.35,0,0,1-.84-4.66h0c2.12-3,4.36-6.05,6.65-9a3.35,3.35,0,0,1,5.26,4.15c-2.2,2.8-4.36,5.71-6.41,8.64A3.29,3.29,0,0,1,846.84,461.84Zm18.21-22.23a3.36,3.36,0,0,1-2.43-5.67c2.56-2.68,5.23-5.32,7.94-7.84a3.36,3.36,0,0,1,4.57,4.92c-2.61,2.43-5.19,5-7.66,7.55A3.32,3.32,0,0,1,865.05,439.61Zm21.38-19.19a3.35,3.35,0,0,1-2-6c2.94-2.25,6-4.45,9-6.53a3.35,3.35,0,1,1,3.77,5.55c-3,2-5.88,4.13-8.72,6.3A3.19,3.19,0,0,1,886.43,420.42Zm24.06-15.69a3.36,3.36,0,0,1-1.61-6.3c3.24-1.77,6.58-3.47,9.92-5.06a3.35,3.35,0,0,1,2.87,6.06h0c-3.22,1.53-6.44,3.17-9.57,4.89A3.14,3.14,0,0,1,910.49,404.73Zm176.22-1.64a3.16,3.16,0,0,1-1.56-.38c-3.16-1.65-6.41-3.24-9.67-4.71a3.35,3.35,0,1,1,2.76-6.11c3.38,1.52,6.75,3.16,10,4.88a3.35,3.35,0,0,1-1.56,6.32Zm-150-10.18a3.36,3.36,0,0,1-1.15-6.51c3.48-1.25,7-2.42,10.58-3.47a3.35,3.35,0,0,1,1.9,6.43h0c-3.41,1-6.84,2.14-10.19,3.35A3,3,0,0,1,936.71,392.91Zm123.59-1.13a3.31,3.31,0,0,1-1.08-.18c-3.38-1.15-6.84-2.21-10.28-3.16a3.36,3.36,0,0,1,1.78-6.47c3.57,1,7.15,2.08,10.66,3.28a3.35,3.35,0,0,1-1.08,6.53Zm-95.93-6.51a3.36,3.36,0,0,1-.64-6.65c3.64-.71,7.34-1.31,11-1.8a3.35,3.35,0,0,1,.89,6.65c-3.53.47-7.1,1-10.61,1.74a2.69,2.69,0,0,1-.69.06Zm68.1-.6a2.88,2.88,0,0,1-.59-.05c-3.51-.62-7.09-1.13-10.64-1.54a3.36,3.36,0,0,1,.76-6.67c3.68.43,7.39,1,11,1.6a3.35,3.35,0,0,1-.57,6.66ZM992.9,382a3.35,3.35,0,1,1-.12-6.7c3.68-.14,7.42-.17,11.15-.09a3.35,3.35,0,1,1-.14,6.7c-3.6-.07-7.2,0-10.76.09Z" transform="translate(-15.63 -12.84)" style="fill:#2d6375"/><path d="M1106.56,415.17a3.35,3.35,0,0,1-1.91-.6q-2.16-1.5-4.36-2.94A3.35,3.35,0,0,1,1104,406h0c1.53,1,3,2,4.53,3.05a3.36,3.36,0,0,1-1.92,6.11Z" transform="translate(-15.63 -12.84)" style="fill:#2d6375"/><path d="M1184.09,536.61a3.35,3.35,0,0,1-3.31-2.79q-.43-2.6-1-5.17a3.36,3.36,0,0,1,6.58-1.34q.54,2.67,1,5.37a3.36,3.36,0,0,1-2.74,3.88A3.17,3.17,0,0,1,1184.09,536.61Z" transform="translate(-15.63 -12.84)" style="fill:#2d6375"/><path d="M996.79,755.3h-.08c-3.25-.06-6.53-.21-9.77-.43l-1.19-.09a3.35,3.35,0,1,1,.5-6.69l1.15.09c3.13.21,6.3.35,9.43.41a3.36,3.36,0,0,1-.06,6.71Zm17.5-.5a3.35,3.35,0,1,1-.25-6.7h0c3.51-.26,7.05-.63,10.53-1.09a3.35,3.35,0,0,1,.89,6.65c-3.61.48-7.28.86-10.91,1.13Zm-45.65-2.13a2.75,2.75,0,0,1-.57,0c-3.6-.61-7.22-1.33-10.76-2.15a3.35,3.35,0,1,1,1.5-6.53c3.42.78,6.91,1.48,10.39,2.07a3.35,3.35,0,0,1-.56,6.66Zm73.6-2.12a3.35,3.35,0,0,1-.76-6.62c3.43-.79,6.87-1.7,10.24-2.69a3.36,3.36,0,0,1,1.89,6.44c-3.49,1-7.06,2-10.62,2.78a3.2,3.2,0,0,1-.75.09Zm-101-4.71a3.09,3.09,0,0,1-1-.17c-3.46-1.15-6.93-2.41-10.32-3.75a3.36,3.36,0,0,1,2.48-6.24c3.27,1.3,6.61,2.52,10,3.62a3.36,3.36,0,0,1-1.06,6.54Zm128-3.74a3.35,3.35,0,0,1-1.24-6.47c3.25-1.3,6.52-2.72,9.7-4.2a3.35,3.35,0,0,1,2.84,6.07h0c-3.3,1.54-6.68,3-10,4.36a3.37,3.37,0,0,1-1.33.24Zm-154.1-7.17a3.22,3.22,0,0,1-1.52-.37c-3.25-1.66-6.49-3.44-9.63-5.28a3.36,3.36,0,0,1,3.4-5.79c3,1.78,6.15,3.49,9.28,5.09a3.36,3.36,0,0,1-1.53,6.35Zm179.47-5.27a3.36,3.36,0,0,1-1.7-6.25c3-1.78,6-3.67,9-5.62a3.36,3.36,0,0,1,4,5.4,1.59,1.59,0,0,1-.27.18c-3,2-6.15,4-9.29,5.83a3.26,3.26,0,0,1-1.77.46Zm23.22-16.12a3.36,3.36,0,0,1-2.12-6c2.73-2.21,5.43-4.54,8-6.91a3.37,3.37,0,0,1,4.52,5h0c-2.68,2.45-5.48,4.86-8.31,7.16a3.29,3.29,0,0,1-2.12.75Zm20.53-19.43a3.35,3.35,0,0,1-2.48-5.61c2.37-2.6,4.69-5.3,6.9-8a3.35,3.35,0,0,1,5.21,4.22h0c-2.29,2.84-4.69,5.64-7.14,8.33a3.3,3.3,0,0,1-2.52,1.06Zm17.35-22.27a3.35,3.35,0,0,1-2.79-5.21c1.94-2.92,3.83-6,5.6-9a3.36,3.36,0,0,1,5.8,3.39c-1.85,3.15-3.8,6.28-5.82,9.32A3.32,3.32,0,0,1,1155.71,671.84Zm13.82-24.67a3.12,3.12,0,0,1-1.41-.31,3.37,3.37,0,0,1-1.64-4.46c1.48-3.18,2.89-6.46,4.18-9.74a3.36,3.36,0,1,1,6.37,2.15,3.05,3.05,0,0,1-.13.32c-1.34,3.39-2.8,6.79-4.33,10.1a3.36,3.36,0,0,1-3,1.91Zm9.9-26.49a3.22,3.22,0,0,1-.93-.13,3.36,3.36,0,0,1-2.29-4.16c1-3.37,1.87-6.82,2.65-10.25a3.35,3.35,0,0,1,6.54,1.49c-.81,3.55-1.73,7.12-2.75,10.62a3.34,3.34,0,0,1-3.21,2.4Zm5.78-27.67h-.44a3.33,3.33,0,0,1-2.89-3.75h0c.45-3.48.81-7,1.07-10.53a3.35,3.35,0,0,1,6.69.49h0c-.27,3.63-.64,7.3-1.11,10.91a3.34,3.34,0,0,1-3.31,2.86Zm1.56-28.23a3.35,3.35,0,0,1-3.36-3.29c-.06-3.51-.24-7.07-.51-10.57a3.36,3.36,0,0,1,6.66-.88,2.19,2.19,0,0,1,0,.36c.28,3.63.46,7.32.53,11a3.35,3.35,0,0,1-3.29,3.42Z" transform="translate(-15.63 -12.84)" style="fill:#2d6375"/><path d="M890.9,720.11a3.27,3.27,0,0,1-2-.64c-1.47-1.06-2.93-2.15-4.38-3.25a3.36,3.36,0,0,1,4-5.41l.12.08C890,712,891.4,713,892.83,714a3.36,3.36,0,0,1,.76,4.68,3.31,3.31,0,0,1-2.76,1.39Z" transform="translate(-15.63 -12.84)" style="fill:#2d6375"/><path d="M899.24,667.27a2.23,2.23,0,0,0,2.51.68l25.6-9.41a118.64,118.64,0,0,0,33.9,18.25l6.24,26.54a2.22,2.22,0,0,0,2,1.71l32.55,3.3a2.22,2.22,0,0,0,2.26-1.29l11.41-24.74a118.43,118.43,0,0,0,36.86-11.09l23.2,14.36a2.21,2.21,0,0,0,2.59-.17l25.35-20.69a2.24,2.24,0,0,0,.69-2.51l-9.41-25.6a118.7,118.7,0,0,0,18.25-33.89l26.53-6.25a2.23,2.23,0,0,0,1.72-2l3.3-32.55a2.26,2.26,0,0,0-1.29-2.26l-24.79-11.39a118.76,118.76,0,0,0-11-36.87l14.36-23.19a2.26,2.26,0,0,0-.17-2.6l-20.69-25.35a2.26,2.26,0,0,0-2.51-.68L1073.1,469a119.21,119.21,0,0,0-33.89-18.25L1033,424.2a2.24,2.24,0,0,0-2-1.71l-32.56-3.3a2.25,2.25,0,0,0-2.26,1.29l-11.43,24.74a119,119,0,0,0-36.86,11.09L924.66,442a2.26,2.26,0,0,0-2.6.17l-25.35,20.72a2.25,2.25,0,0,0-.69,2.51l9.42,25.6a118.53,118.53,0,0,0-18.27,33.89l-26.53,6.24a2.27,2.27,0,0,0-1.72,2l-3.3,32.55a2.26,2.26,0,0,0,1.29,2.26l24.8,11.37a119,119,0,0,0,11,36.87l-14.35,23.19a2.23,2.23,0,0,0,.17,2.6Z" transform="translate(-15.63 -12.84)" style="fill:#2d6375"/><path d="M1000.13,595.51a31.79,31.79,0,1,1,4.7-.35A30.89,30.89,0,0,1,1000.13,595.51Zm.09-58.12a27.74,27.74,0,0,0-3.86.29,26.37,26.37,0,0,0,6.88,52.29l.81-.12a26.37,26.37,0,0,0-3.83-52.46Z" transform="translate(-15.63 -12.84)" style="fill:#fff"/><path d="M1000.76,643.58a80.87,80.87,0,0,1-8.15-.41,80,80,0,0,1-12-2.15h-.09l-.52-.14h-.14l-.25-.07h-.09l-.75-.2-.26-.08c-.54-.15-1.08-.32-1.61-.48l-.92-.29a1.35,1.35,0,0,1-.93-1.28,1.18,1.18,0,0,1,.07-.41,1.34,1.34,0,0,1,1.68-.87h0a77.56,77.56,0,1,0-46.3-40.88,1.28,1.28,0,0,1,.13.57,1.35,1.35,0,0,1-1.35,1.34,1.33,1.33,0,0,1-1.2-.77,80.3,80.3,0,1,1,72.77,46.22Z" transform="translate(-15.63 -12.84)" style="fill:#fff"/><path d="M716,423.56l13.13-6.05a62.63,62.63,0,0,0,18.67,8.22l4.42,13.76a1.17,1.17,0,0,0,1.1.82l17.34.38a1.17,1.17,0,0,0,1.14-.78l5-13.55a62.89,62.89,0,0,0,19-7.41l12.86,6.61a1.15,1.15,0,0,0,1.36-.2l12.53-12a1.21,1.21,0,0,0,.25-1.36l-6-13.16a62.63,62.63,0,0,0,8.22-18.67l13.78-4.33a1.18,1.18,0,0,0,.83-1.1l.37-17.34a1.2,1.2,0,0,0-.77-1.14l-13.56-5a63.23,63.23,0,0,0-7.4-19l6.61-12.85a1.2,1.2,0,0,0-.2-1.37l-12-12.52a1.19,1.19,0,0,0-1.35-.26l-13.13,6A63.31,63.31,0,0,0,779.43,303L775,289.28a1.22,1.22,0,0,0-1.11-.83l-17.34-.37a1.22,1.22,0,0,0-1.14.78l-5,13.55a63,63,0,0,0-19,7.41l-12.86-6.61a1.2,1.2,0,0,0-1.37.19l-12.52,12a1.18,1.18,0,0,0-.26,1.35l6,13.13a63.05,63.05,0,0,0-8.22,18.68L688.44,353a1.2,1.2,0,0,0-.82,1.11l-.38,17.34a1.18,1.18,0,0,0,.78,1.14l13.55,5a63.31,63.31,0,0,0,7.41,19l-6.61,12.85a1.2,1.2,0,0,0,.2,1.37l12,12.52A1.18,1.18,0,0,0,716,423.56Z" transform="translate(-15.63 -12.84)" style="fill:#5ecff5"/><path d="M763.57,381.05a16.69,16.69,0,1,1,3.76-.43A15.89,15.89,0,0,1,763.57,381.05Zm0-30.81a15.31,15.31,0,0,0-3.16.36,14.12,14.12,0,1,0,3.16-.36Z" transform="translate(-15.63 -12.84)" style="fill:#fff;opacity:0.5600000023841858;isolation:isolate"/><g style="opacity:0.6399999856948853"><path d="M685.82,418.52a3.12,3.12,0,0,1-2.65-1.43c-1-1.46-1.88-3-2.76-4.47a3.17,3.17,0,0,1,5.49-3.18c.82,1.41,1.68,2.81,2.57,4.17a3.17,3.17,0,0,1-2.65,4.91Z" transform="translate(-15.63 -12.84)" style="fill:#2d6375"/><path d="M676.47,400a3.17,3.17,0,0,1-3-2.07,92.58,92.58,0,0,1-3-9.54,3.17,3.17,0,0,1,6.14-1.58,92,92,0,0,0,2.79,8.91,3.17,3.17,0,0,1-1.87,4.08A3,3,0,0,1,676.47,400Zm-5.53-24.7a3.17,3.17,0,0,1-3.16-2.91c-.23-2.68-.34-5.4-.34-8.1V362.4a3.13,3.13,0,0,1,3.15-3.11h.08a3.18,3.18,0,0,1,3.11,3.23h0v1.76c0,2.52.11,5.06.32,7.57a3.17,3.17,0,0,1-2.89,3.43h-.27ZM672.28,350a3.08,3.08,0,0,1-.61-.06,3.14,3.14,0,0,1-2.51-3.69v0a93.59,93.59,0,0,1,2.4-9.71,3.17,3.17,0,0,1,6.07,1.84h0a88.73,88.73,0,0,0-2.24,9.06A3.16,3.16,0,0,1,672.28,350Zm8.12-24a3.17,3.17,0,0,1-3.17-3.19,3.13,3.13,0,0,1,.33-1.4,98,98,0,0,1,4.92-8.7,3.17,3.17,0,0,1,5.41,3.31l-.06.09a91.55,91.55,0,0,0-4.59,8.13,3.16,3.16,0,0,1-2.84,1.79Zm14.31-20.87a3.18,3.18,0,0,1-2.35-5.3,98.24,98.24,0,0,1,7.08-7.06,3.17,3.17,0,0,1,4.24,4.72,89.34,89.34,0,0,0-6.61,6.59A3.17,3.17,0,0,1,694.71,305.16ZM714,288.84a3.18,3.18,0,0,1-1.7-5.86,99.27,99.27,0,0,1,8.73-4.88,3.18,3.18,0,0,1,3.11,5.55,1.77,1.77,0,0,1-.31.15,92.45,92.45,0,0,0-8.14,4.55A3.17,3.17,0,0,1,714,288.84Zm23-10.43a3.17,3.17,0,0,1-3.15-3.21,3.21,3.21,0,0,1,2.25-3c1.94-.57,3.92-1.09,5.91-1.55,1.26-.29,2.53-.55,3.8-.79a3.17,3.17,0,0,1,1.17,6.23c-1.18.23-2.37.47-3.55.75-1.86.42-3.72.91-5.53,1.45a2.78,2.78,0,0,1-.85.16Zm34.68-3.53h-.28a90.81,90.81,0,0,0-9.33-.33,3.14,3.14,0,0,1-3.23-3v-.07a3.18,3.18,0,0,1,3.11-3.23h0a98.18,98.18,0,0,1,10,.35,3.17,3.17,0,0,1-.27,6.33Z" transform="translate(-15.63 -12.84)" style="fill:#2d6375"/><path d="M792.14,279.06a2.83,2.83,0,0,1-1-.16c-1.55-.5-3.14-1-4.71-1.38a3.17,3.17,0,1,1,1.63-6.13c1.68.44,3.37.94,5,1.47a3.18,3.18,0,0,1-1,6.2Z" transform="translate(-15.63 -12.84)" style="fill:#2d6375"/></g><g style="opacity:0.6399999856948853"><path d="M847.71,327.84a3.13,3.13,0,0,1-2.87-1.82c-.7-1.48-1.44-2.95-2.21-4.38a3.17,3.17,0,0,1,5.59-3c.82,1.53,1.62,3.1,2.36,4.68a3.17,3.17,0,0,1-1.51,4.23h0A3,3,0,0,1,847.71,327.84Z" transform="translate(-15.63 -12.84)" style="fill:#2d6375"/><path d="M763.55,460.54a94,94,0,0,1-11-.64,3.17,3.17,0,1,1,.73-6.3,87.64,87.64,0,0,0,10.24.59h.13a3.18,3.18,0,0,1,.36,6.35h-.46Zm17.49-1.7a3.17,3.17,0,0,1-.6-6.29c1.08-.21,2.17-.44,3.25-.69,2.3-.53,4.6-1.15,6.83-1.85a3.18,3.18,0,1,1,2.22,6,1.7,1.7,0,0,1-.32.1c-2.39.75-4.85,1.41-7.31,2-1.16.26-2.32.51-3.47.73A2.43,2.43,0,0,1,781,458.84Zm26.53-9.38a3.18,3.18,0,0,1-1.5-6,88.36,88.36,0,0,0,8.86-5.44,3.17,3.17,0,0,1,3.62,5.21h0a93,93,0,0,1-9.48,5.82,3.19,3.19,0,0,1-1.5.44Zm22.49-16.92a3.17,3.17,0,0,1-3.18-3.16,3.22,3.22,0,0,1,.91-2.23,89,89,0,0,0,6.81-7.83,3.17,3.17,0,0,1,5,3.88,95.57,95.57,0,0,1-7.3,8.39,3.13,3.13,0,0,1-2.24,1Zm16.4-22.86a2.9,2.9,0,0,1-1.44-.35,3.17,3.17,0,0,1-1.39-4.26,91.54,91.54,0,0,0,4.18-9.52,3.17,3.17,0,1,1,6,2.21h0A95.36,95.36,0,0,1,849.28,408a3.14,3.14,0,0,1-2.82,1.76ZM855.3,383a2.35,2.35,0,0,1-.53,0,3.15,3.15,0,0,1-2.6-3.63v0A87,87,0,0,0,853.3,369a3.17,3.17,0,1,1,6.34.32,97.81,97.81,0,0,1-1.21,11.07A3.18,3.18,0,0,1,855.3,383Zm.41-28.12a3.16,3.16,0,0,1-3.14-2.74c-.37-2.61-.85-5.24-1.44-7.83-.19-.79-.38-1.58-.58-2.37a3.17,3.17,0,0,1,6.14-1.58h0c.22.84.43,1.68.62,2.53.63,2.77,1.15,5.58,1.54,8.38a3.16,3.16,0,0,1-2.7,3.57A2.18,2.18,0,0,1,855.71,354.84Z" transform="translate(-15.63 -12.84)" style="fill:#2d6375"/><path d="M735.78,456.27a3.06,3.06,0,0,1-1-.14q-2.49-.79-5-1.71a3.2,3.2,0,1,1,2.23-6c1.52.58,3.08,1.11,4.63,1.6a3.17,3.17,0,0,1-.95,6.2Z" transform="translate(-15.63 -12.84)" style="fill:#2d6375"/></g><path d="M763.62,407.49h-.91a42.42,42.42,0,0,1-9.11-1.17,1.25,1.25,0,0,1-1-1.23,1.5,1.5,0,0,1,0-.3,1.29,1.29,0,0,1,1.53-.94,40.57,40.57,0,0,0,50-38.59v-.88a40.57,40.57,0,0,0-81.14-.87h0v.88a40.56,40.56,0,0,0,5.31,20.07,1.29,1.29,0,0,1,.17.63,1.27,1.27,0,0,1-1.28,1.27,1.25,1.25,0,0,1-1.09-.64,43,43,0,0,1-5.65-21.33v-.94a43.12,43.12,0,0,1,86.22.93v.94a43.11,43.11,0,0,1-43.08,42.18Z" transform="translate(-15.63 -12.84)" style="fill:#fff;opacity:0.5600000023841858;isolation:isolate"/><path d="M783.89,744.19a.68.68,0,0,0,.8.22l8.17-3a37.65,37.65,0,0,0,10.85,5.82l2,8.48a.7.7,0,0,0,.62.54l10.38,1.06a.71.71,0,0,0,.73-.41l3.65-7.91a37.68,37.68,0,0,0,11.77-3.53l7.4,4.58a.69.69,0,0,0,.83,0l8.1-6.61a.73.73,0,0,0,.22-.8l-3-8.17a37.82,37.82,0,0,0,5.83-10.83l8.47-2a.69.69,0,0,0,.55-.62l1-10.4a.71.71,0,0,0-.41-.72l-7.9-3.65a38.32,38.32,0,0,0-3.54-11.77L855,687a.74.74,0,0,0,0-.83l-6.61-8.09a.71.71,0,0,0-.8-.22l-8.17,3A37.76,37.76,0,0,0,828.64,675l-2-8.47A.74.74,0,0,0,826,666l-10.39-1a.72.72,0,0,0-.73.41l-3.65,7.9a38.12,38.12,0,0,0-11.85,3.56l-7.4-4.59a.72.72,0,0,0-.83.06l-8.1,6.6a.74.74,0,0,0-.22.8l3,8.18A37.89,37.89,0,0,0,780,698.71l-8.47,2a.72.72,0,0,0-.55.63l-1,10.39a.7.7,0,0,0,.41.72l7.9,3.65a37.91,37.91,0,0,0,3.5,11.74l-4.58,7.41a.72.72,0,0,0,0,.83Z" transform="translate(-15.63 -12.84)" style="fill:#2d6375"/><path d="M816.11,721.41a10,10,0,1,1,1.51-.11h0A9.59,9.59,0,0,1,816.11,721.41Zm0-18.55a8.28,8.28,0,1,0,1.2,16.49h0a8.29,8.29,0,0,0-1.2-16.49Z" transform="translate(-15.63 -12.84)" style="fill:#fff;opacity:0.5600000023841858;isolation:isolate"/><path d="M816.33,737.19a21.93,21.93,0,0,1-2.69-.14h0a8,8,0,0,1-1.08-.13,24.64,24.64,0,0,1-3.7-.8h-.12l-.31-.09-.25-.08a1,1,0,0,1-.68-.94.79.79,0,0,1,0-.3,1,1,0,0,1,1.24-.64,23.68,23.68,0,0,0,5,1.06,24.21,24.21,0,0,0,26.53-21.64v0a22.81,22.81,0,0,0,.13-2.49,24.22,24.22,0,0,0-48.32-2.39q-.12,1.23-.12,2.46a24.09,24.09,0,0,0,2.29,10.26,1.06,1.06,0,0,1,.09.42,1,1,0,0,1-.57.89,1,1,0,0,1-1.31-.47,26,26,0,0,1-2.48-11.1,26.49,26.49,0,0,1,.14-2.66A26.2,26.2,0,0,1,842.43,711a17.39,17.39,0,0,1-.14,2.69,26.18,26.18,0,0,1-26,23.56Z" transform="translate(-15.63 -12.84)" style="fill:#bdd0fb"/><path d="M788.93,243.57a4.63,4.63,0,0,1-4.45-3.33c-.7-2.42-1.37-4.89-2-7.35a4.64,4.64,0,0,1,9-2.23c.58,2.33,1.21,4.68,1.88,7a4.63,4.63,0,0,1-4.45,5.94Z" transform="translate(-15.63 -12.84)" style="fill:#2d6375"/><path d="M782.89,212.84a4.62,4.62,0,0,1-4.61-4.16c-.51-5-.82-10.07-.9-15.1a4.64,4.64,0,1,1,9.26-.55c0,.13,0,.26,0,.39.08,4.77.37,9.58.86,14.31a4.63,4.63,0,0,1-4.13,5.08h0Zm.34-38.59h-.55a4.65,4.65,0,0,1-4.06-5.16c.6-5,1.42-10,2.43-14.91a4.64,4.64,0,1,1,9.16,1.47c0,.13-.05.27-.08.4-1,4.65-1.73,9.41-2.3,14.15a4.62,4.62,0,0,1-4.6,4.06Zm8.82-37.56a4.19,4.19,0,0,1-1.57-.27,4.62,4.62,0,0,1-2.8-5.91h0c1.69-4.74,3.61-9.45,5.69-14a4.64,4.64,0,1,1,8.44,3.86c-2,4.31-3.79,8.78-5.4,13.27a4.64,4.64,0,0,1-4.36,3.07Zm17-34.65a4.64,4.64,0,0,1-4.63-4.65,4.72,4.72,0,0,1,.73-2.48c2.7-4.24,5.62-8.4,8.68-12.39a4.63,4.63,0,0,1,7.35,5.64c-2.89,3.78-5.65,7.73-8.22,11.74a4.61,4.61,0,0,1-3.93,2.15Zm24.28-30a4.64,4.64,0,0,1-3.26-7.94c3.57-3.52,7.34-6.94,11.2-10.16a4.64,4.64,0,0,1,6.19,6.92,2.65,2.65,0,0,1-.26.21c-3.66,3-7.23,6.29-10.62,9.63a4.57,4.57,0,0,1-3.27,1.35Zm30.29-23.9a4.63,4.63,0,0,1-2.45-8.57c4.26-2.65,8.69-5.16,13.16-7.43a4.64,4.64,0,0,1,4.57,8.08,3,3,0,0,1-.36.18c-4.23,2.16-8.43,4.53-12.47,7a4.45,4.45,0,0,1-2.47.75Zm162.32-10.69A4.35,4.35,0,0,1,1024,37c-4.33-2-8.81-3.76-13.29-5.34a4.63,4.63,0,1,1,3.07-8.74h0c4.74,1.67,9.47,3.56,14,5.63a4.63,4.63,0,0,1-1.91,8.86Zm-127.51-5.9a4.64,4.64,0,0,1-1.51-9c4.75-1.64,9.62-3.09,14.48-4.31a4.64,4.64,0,0,1,2.27,9h0c-4.61,1.16-9.22,2.53-13.73,4.09a4.41,4.41,0,0,1-1.53.23Zm90.79-6a4.7,4.7,0,0,1-.92-.09c-4.67-.94-9.43-1.69-14.17-2.24A4.64,4.64,0,0,1,975.19,14c5,.58,10,1.37,14.94,2.36a4.64,4.64,0,0,1-.91,9.18Zm-53.15-2.46a4.64,4.64,0,0,1-.49-9.25c5-.53,10-.86,15.08-1h.11a4.64,4.64,0,0,1,.1,9.27c-4.77.1-9.58.41-14.3.92Z" transform="translate(-15.63 -12.84)" style="fill:#2d6375"/><path d="M1053.26,53a4.5,4.5,0,0,1-2.65-.83c-2-1.36-4-2.71-6-4a4.65,4.65,0,1,1,5-7.83c2.14,1.35,4.27,2.77,6.34,4.21A4.63,4.63,0,0,1,1053.3,53Z" transform="translate(-15.63 -12.84)" style="fill:#2d6375"/><path d="M1125.37,167.75a4.62,4.62,0,0,1-4.57-3.92c-.38-2.38-.81-4.77-1.28-7.09a4.64,4.64,0,0,1,9-2.1c0,.08,0,.17,0,.25.5,2.46,1,5,1.35,7.5a4.64,4.64,0,0,1-3.86,5.3A3,3,0,0,1,1125.37,167.75Z" transform="translate(-15.63 -12.84)" style="fill:#2d6375"/><path d="M955,367.68c-2,0-4,0-6-.1a4.64,4.64,0,0,1,.15-9.27h.16c1.9.06,3.79.09,5.68.09h0c2.78,0,5.59-.07,8.37-.21a4.64,4.64,0,1,1,.47,9.27C960.87,367.6,957.9,367.68,955,367.68Zm-29.3-2.46a3.43,3.43,0,0,1-.78-.07c-4.88-.83-9.77-1.87-14.56-3.1a4.65,4.65,0,1,1,2.31-9c4.53,1.17,9.18,2.16,13.8,2.94a4.64,4.64,0,0,1-.77,9.21Zm61.26-.53a4.63,4.63,0,0,1-.85-9.19c4.6-.87,9.22-2,13.72-3.21a4.64,4.64,0,0,1,2.49,8.94c-4.76,1.32-9.64,2.46-14.49,3.38A4.27,4.27,0,0,1,986.93,364.69Zm-97.78-9.91a4.63,4.63,0,0,1-1.76-.34c-4.57-1.88-9.12-4-13.52-6.23A4.64,4.64,0,0,1,878.1,340c4.17,2.14,8.48,4.12,12.81,5.9a4.63,4.63,0,0,1-1.76,8.92Zm134.06-1.22a4.64,4.64,0,0,1-1.84-8.89c4.29-1.86,8.56-3.92,12.69-6.14a4.64,4.64,0,0,1,4.76,8,3.48,3.48,0,0,1-.38.2c-4.35,2.34-8.86,4.52-13.39,6.48A4.34,4.34,0,0,1,1023.21,353.56Zm33-18.81a4.63,4.63,0,0,1-2.72-8.38c3.79-2.75,7.5-5.7,11-8.76a4.64,4.64,0,0,1,6.06,7c-3.75,3.22-7.67,6.33-11.67,9.23a4.48,4.48,0,0,1-2.7.91Zm28.1-25.53a4.63,4.63,0,0,1-3.47-7.7c3.1-3.52,6.09-7.2,8.89-10.95a4.63,4.63,0,0,1,7.43,5.54c-3,4-6.1,7.84-9.38,11.55a4.6,4.6,0,0,1-3.5,1.56Zm21.87-31a4.63,4.63,0,0,1-4.63-4.64,4.71,4.71,0,0,1,.57-2.23c2.26-4.1,4.37-8.35,6.27-12.63a4.64,4.64,0,0,1,8.48,3.77c-2,4.52-4.25,9-6.63,13.33a4.62,4.62,0,0,1-4.09,2.36Zm14.53-35.1a4.67,4.67,0,0,1-1.29-.18,4.62,4.62,0,0,1-3.17-5.71v0c1.29-4.49,2.42-9.1,3.34-13.7a4.64,4.64,0,0,1,9.09,1.82c-1,4.85-2.16,9.71-3.53,14.45a4.63,4.63,0,0,1-4.45,3.31Zm6.48-37.4h-.29a4.64,4.64,0,0,1-4.34-4.92c.22-3.53.34-7.11.34-10.62V186.7a4.61,4.61,0,0,1,4.51-4.72h.12a4.65,4.65,0,0,1,4.64,4.54v3.67c0,3.7-.12,7.47-.36,11.2a4.62,4.62,0,0,1-4.65,4.3Z" transform="translate(-15.63 -12.84)" style="fill:#2d6375"/><path d="M855.71,336.51a4.49,4.49,0,0,1-2.65-.84c-2.08-1.45-4.15-3-6.14-4.5a4.63,4.63,0,1,1,5.64-7.35c1.89,1.45,3.85,2.88,5.81,4.26a4.64,4.64,0,0,1,1.15,6.45A4.59,4.59,0,0,1,855.71,336.51Z" transform="translate(-15.63 -12.84)" style="fill:#2d6375"/><path d="M861.46,284.67a2.06,2.06,0,0,0,2.32.64l23.68-8.71a110,110,0,0,0,31.36,16.89L924.6,318a2,2,0,0,0,1.8,1.59l30.12,3.05a2.06,2.06,0,0,0,2.09-1.19l10.58-22.89a109.4,109.4,0,0,0,34.11-10.26l21.46,13.29a2.06,2.06,0,0,0,2.4-.16l23.45-19.14a2.07,2.07,0,0,0,.64-2.32l-8.71-23.69A109.79,109.79,0,0,0,1059.42,225l24.55-5.78a2.08,2.08,0,0,0,1.59-1.81l3-30.11a2.09,2.09,0,0,0-1.19-2.1l-22.89-10.58a110.5,110.5,0,0,0-10.26-34.1L1067.55,119a2.06,2.06,0,0,0-.15-2.4l-19.14-23.46a2.09,2.09,0,0,0-2.32-.63l-23.69,8.71A110.06,110.06,0,0,0,990.9,84.35l-5.78-24.51a2.09,2.09,0,0,0-1.81-1.58l-30.12-3a2.07,2.07,0,0,0-2.09,1.19L940.52,79.34A109.86,109.86,0,0,0,906.41,89.6L885,76.31a2.11,2.11,0,0,0-2.41.16L859.1,95.61a2.07,2.07,0,0,0-.63,2.32l8.71,23.68a110.18,110.18,0,0,0-16.89,31.23l-24.58,5.82a2.09,2.09,0,0,0-1.59,1.81l-3,30.11a2,2,0,0,0,1.2,2.09l22.89,10.59a109.78,109.78,0,0,0,10.25,34.1l-13.25,21.48a2.08,2.08,0,0,0,.16,2.4Z" transform="translate(-15.63 -12.84)" style="fill:#071841"/><path d="M954.79,221.37a32.63,32.63,0,1,1,4.8-.36A32.12,32.12,0,0,1,954.79,221.37Zm.11-53.77a23.72,23.72,0,0,0-3.15.23,21.32,21.32,0,1,0,5.65,42.27c.19,0,.38,0,.57-.09h0a21.32,21.32,0,0,0-3.07-42.41Z" transform="translate(-15.63 -12.84)" style="fill:#fff;opacity:0.5600000023841858;isolation:isolate"/><path d="M955.38,263.37c-2.52,0-5-.13-7.61-.38h0a74.3,74.3,0,0,1-15.6-3.28,1.84,1.84,0,0,1-1.28-1.76,1.62,1.62,0,0,1,.09-.57,1.84,1.84,0,0,1,2.31-1.19h0A71.2,71.2,0,1,0,884.5,181.3h0a69.68,69.68,0,0,0-.37,7.22,71.08,71.08,0,0,0,6.72,30.16,1.86,1.86,0,0,1-3.36,1.58,74.56,74.56,0,0,1-7.06-31.74,71.63,71.63,0,0,1,.38-7.6,74.89,74.89,0,1,1,74.57,82.45Z" transform="translate(-15.63 -12.84)" style="fill:#fff;opacity:0.5600000023841858;isolation:isolate"/><path d="M516.33,628.7a2,2,0,0,0,1.49,1.72L541.07,636A103.74,103.74,0,0,0,557,665.69l-8.25,22.39a2,2,0,0,0,.59,2.2l22.16,18.18a2,2,0,0,0,2.28.15l20.33-12.52a103.48,103.48,0,0,0,32.24,9.75l10,21.72a2,2,0,0,0,2,1.13l28.52-2.82a2,2,0,0,0,1.71-1.5l5.53-23.24a103.71,103.71,0,0,0,29.75-15.9l22.39,8.3a2,2,0,0,0,2.2-.6l18.12-22.09a2,2,0,0,0,.15-2.27l-12.51-20.33A104.63,104.63,0,0,0,743.94,616l21.71-10a2,2,0,0,0,1.13-2L764,575.44a2,2,0,0,0-1.5-1.72l-23.25-5.53a104.5,104.5,0,0,0-15.89-29.74l8.29-22.39a2,2,0,0,0-.59-2.2l-22.16-18.17a2,2,0,0,0-2.28-.16l-20.33,12.52A104.63,104.63,0,0,0,654,498.28l-10-21.71a2,2,0,0,0-2-1.14l-28.52,2.82a2,2,0,0,0-1.71,1.5L606.22,503a104.37,104.37,0,0,0-29.74,15.89l-22.4-8.3a2,2,0,0,0-2.2.6l-18.17,22.16a2,2,0,0,0-.15,2.27L546.07,556a104.12,104.12,0,0,0-9.77,32.27l-21.71,10a2,2,0,0,0-1.13,2Z" transform="translate(-15.63 -12.84)" style="fill:#ffd131"/><path d="M620.62,631.44a35.36,35.36,0,1,1,4.52,2.54A34,34,0,0,1,620.62,631.44Zm28.2-42.38a18.76,18.76,0,0,0-2-1.14,15.64,15.64,0,1,0,7.49,20.82h0a15.67,15.67,0,0,0-5.47-19.67Z" transform="translate(-15.63 -12.84)" style="fill:#fff"/><path d="M600.71,662.34a68,68,0,0,1-5.92-4.38c-1.21-1-2.4-2-3.55-3.11h0a68.06,68.06,0,0,1-5.27-5.47l-.09-.1a1.15,1.15,0,0,1-.14-.17l-1-1.15c-.34-.39-.51-.62-.76-.94A3.27,3.27,0,0,1,589.1,643h0A65.07,65.07,0,0,0,599,653h0A65.94,65.94,0,0,0,691,644.6l.67-.81a65.19,65.19,0,0,0,4-5.45,65.89,65.89,0,0,0-105.92-78.11c-1.42,1.73-2.76,3.53-4,5.38a65.62,65.62,0,0,0-10.26,26.7,3.13,3.13,0,0,1-.51,1.33,3.27,3.27,0,0,1-6-2.29A72.43,72.43,0,1,1,701.07,642q-2.05,3.09-4.43,6A72.54,72.54,0,0,1,600.71,662.34Z" transform="translate(-15.63 -12.84)" style="fill:#fff"/><path d="M498.71,559.54a3.94,3.94,0,0,1-1.59-4.46c.64-2,1.33-4.12,2.05-6.15a4,4,0,0,1,7.44,2.66c-.69,1.93-1.34,3.89-1.94,5.83a4,4,0,0,1-5,2.6A3.2,3.2,0,0,1,498.71,559.54Z" transform="translate(-15.63 -12.84)" style="fill:#2d6375"/><path d="M508.88,534.84a4,4,0,0,1-1.32-5.13c2-3.78,4.17-7.53,6.48-11.14a4,4,0,0,1,6.67,4.27c-2.19,3.43-4.26,7-6.14,10.57a4,4,0,0,1-5.33,1.66ZM527.3,507.6a2.4,2.4,0,0,1-.37-.28,3.94,3.94,0,0,1-.47-5.55l0,0c2.77-3.27,5.72-6.45,8.75-9.45a3.95,3.95,0,0,1,5.67,5.5,1.14,1.14,0,0,1-.11.11c-2.87,2.85-5.66,5.86-8.3,9a4,4,0,0,1-5.19.73Zm24-22.51a3.69,3.69,0,0,1-1-.93,4,4,0,0,1,.8-5.53c3.44-2.56,7-5,10.65-7.26a4,4,0,0,1,5.24,6.05,3.82,3.82,0,0,1-1.07.66c-3.44,2.14-6.83,4.45-10.09,6.88a3.92,3.92,0,0,1-4.57.17Zm28.4-16.6a3.95,3.95,0,0,1,.59-6.9c3.91-1.74,8-3.32,12-4.71a4,4,0,1,1,2.78,7.4l-.22.07c-3.83,1.32-7.66,2.82-11.37,4.46a3.9,3.9,0,0,1-3.77-.28Zm31.37-9.87a4,4,0,0,1,1.43-7.16c4.2-.83,8.48-1.48,12.74-1.94a3.95,3.95,0,0,1,.85,7.85c-4,.44-8.09,1.06-12.07,1.84a3.89,3.89,0,0,1-3-.55Zm32.78-2.69a4,4,0,0,1,2.29-7.24c4.28.13,8.61.44,12.86.93a4,4,0,0,1-.91,7.85c-4-.47-8.12-.76-12.18-.88a3.72,3.72,0,0,1-2.1-.62Zm120.29,68.92a4,4,0,0,1-1.16-1.2c-2.15-3.43-4.48-6.82-6.92-10a4,4,0,1,1,5.57-5.74,4.43,4.43,0,0,1,.74,1c2.57,3.42,5,7,7.31,10.62a4,4,0,0,1-5.54,5.39Zm-87.76-64.29a4,4,0,0,1,3.18-7.12c4.15,1.08,8.29,2.34,12.32,3.77a4,4,0,1,1-1.45,7.87,3.63,3.63,0,0,1-1.18-.42c-3.82-1.35-7.74-2.55-11.67-3.57a3.5,3.5,0,0,1-1.24-.49Zm67.27,38.57a3.61,3.61,0,0,1-.61-.5c-2.87-2.87-5.89-5.65-9-8.27a4,4,0,0,1,5.09-6c3.28,2.76,6.47,5.7,9.5,8.72a4,4,0,0,1-5,6.09Zm-36.57-26.8a4,4,0,0,1,4-6.8c3.79,2,7.55,4.13,11.18,6.42l.07.05a4,4,0,0,1-4.3,6.63c-3.43-2.18-7-4.22-10.59-6.09Z" transform="translate(-15.63 -12.84)" style="fill:#2d6375"/><path d="M776.2,548.84a3.84,3.84,0,0,1-1.48-1.84c-.75-1.89-1.56-3.8-2.39-5.66a3.95,3.95,0,1,1,7.11-3.43,2,2,0,0,1,.1.21c.88,2,1.73,4,2.52,6a4,4,0,0,1-2.43,5.11,4,4,0,0,1-3.43-.36Z" transform="translate(-15.63 -12.84)" style="fill:#2d6375"/><path d="M773.32,664.27a4,4,0,0,1-1.4-4.93c.85-1.87,1.67-3.77,2.43-5.65a4,4,0,0,1,7.32,3c-.8,2-1.67,4-2.57,5.95a3.94,3.94,0,0,1-5.2,2l0,0A2.53,2.53,0,0,1,773.32,664.27Z" transform="translate(-15.63 -12.84)" style="fill:#2d6375"/><path d="M558.09,725.92c-1.39-.93-2.83-1.92-4.24-2.92a4,4,0,0,1,4.48-6.51l.11.08c1.33.94,2.67,1.86,4,2.74h0c2,1.31,4,2.58,6,3.79a4,4,0,0,1-4,6.8C562.32,728.65,560.17,727.3,558.09,725.92Zm-19.64-15.55a3.06,3.06,0,0,1-.53-.42c-3.07-2.88-6.06-5.93-8.87-9.06a4,4,0,0,1,5.87-5.29c2.67,3,5.5,5.86,8.41,8.59a4,4,0,0,1-4.88,6.18Zm43.75,28.47a4,4,0,0,1,3.72-6.93c3.68,1.55,7.47,3,11.26,4.2a4,4,0,0,1-2.47,7.53h0c-4-1.3-8-2.79-11.88-4.43A2.67,2.67,0,0,1,582.2,738.84Zm-64.77-53.11a3.83,3.83,0,0,1-1.08-1.08c-2.37-3.49-4.61-7.12-6.67-10.79a3.95,3.95,0,1,1,6.79-4l.1.17c2,3.47,4.08,6.91,6.32,10.22a4,4,0,0,1-5.46,5.51ZM613.2,748a4,4,0,0,1,2.89-7.18c3.92.7,7.92,1.25,11.9,1.62a4,4,0,0,1-.74,7.87c-4.2-.39-8.42-1-12.56-1.71a3.83,3.83,0,0,1-1.49-.58Zm32.28,2.19a3.95,3.95,0,0,1,2-7.24q6-.25,12-1a4,4,0,0,1,1,7.84c-4.18.53-8.43.88-12.63,1.06a3.83,3.83,0,0,1-2.37-.64Zm32-4.89a4,4,0,0,1,1.17-7.11c3.86-1,7.71-2.24,11.47-3.58a4,4,0,0,1,2.93,7.34,1.34,1.34,0,0,1-.26.09c-4,1.42-8,2.7-12.1,3.78a3.92,3.92,0,0,1-3.23-.5Zm30.16-11.74a3.79,3.79,0,0,1-1.32-1.46,4,4,0,0,1,1.68-5.33c3.53-1.85,7-3.87,10.41-6a4,4,0,0,1,4.23,6.67c-3.56,2.26-7.25,4.39-11,6.34a4,4,0,0,1-4-.2Zm26.86-18.07a3.64,3.64,0,0,1-.83-.74,4,4,0,0,1,.46-5.57c3-2.57,6-5.31,8.83-8.14a4,4,0,0,1,5.85,5.31,3.19,3.19,0,0,1-.26.26c-3,3-6.1,5.88-9.31,8.6a4,4,0,0,1-4.76.3ZM756.71,692l-.2-.14a4,4,0,0,1-.77-5.54c1.83-2.4,3.59-4.89,5.25-7.38.55-.83,1.08-1.65,1.61-2.48a4,4,0,0,1,5.43-1.24h0l.07.05a3.93,3.93,0,0,1,1.15,5.4c-.55.88-1.12,1.76-1.7,2.63-1.74,2.63-3.61,5.25-5.53,7.79A4,4,0,0,1,756.71,692Z" transform="translate(-15.63 -12.84)" style="fill:#2d6375"/><path d="M502.31,657a3.82,3.82,0,0,1-1.49-1.85c-.79-2-1.54-4.06-2.23-6.09a4,4,0,0,1,7.47-2.56c.66,1.92,1.37,3.86,2.12,5.77a4,4,0,0,1-5.87,4.73Z" transform="translate(-15.63 -12.84)" style="fill:#2d6375"/><path d="M1056.37,418.55a.71.71,0,0,0,.8.22l8.08-3a37.08,37.08,0,0,0,10.7,5.77l2,8.37a.69.69,0,0,0,.62.54l10.27,1a.71.71,0,0,0,.72-.41l3.61-7.81a37.61,37.61,0,0,0,11.63-3.5l7.33,4.53a.68.68,0,0,0,.81,0l8-6.53a.71.71,0,0,0,.21-.8l-3-8.08a37.16,37.16,0,0,0,5.76-10.7l8.38-2a.69.69,0,0,0,.54-.62l1-10.27a.71.71,0,0,0-.4-.71l-7.82-3.62a37.4,37.4,0,0,0-3.49-11.63l4.53-7.32a.69.69,0,0,0-.06-.82l-6.53-8a.72.72,0,0,0-.79-.21l-8.08,3a37.92,37.92,0,0,0-10.7-5.76l-2-8.38a.71.71,0,0,0-.62-.54l-10.27-1a.73.73,0,0,0-.72.41l-3.61,7.81a37.59,37.59,0,0,0-11.64,3.5l-7.32-4.54a.72.72,0,0,0-.82.06l-8,6.53a.7.7,0,0,0-.21.79l3,8.08a37.7,37.7,0,0,0-5.77,10.7l-8.37,2a.7.7,0,0,0-.54.62l-1,10.27a.72.72,0,0,0,.4.72l7.81,3.61a37.59,37.59,0,0,0,3.5,11.64l-4.53,7.32a.71.71,0,0,0,0,.82Z" transform="translate(-15.63 -12.84)" style="fill:#5ecff5"/><path d="M1088.24,396.39a10.49,10.49,0,1,1,1.54-.11A10,10,0,0,1,1088.24,396.39Zm0-18.34a8.77,8.77,0,0,0-1.15.08,7.83,7.83,0,0,0,2.29,15.49h0a7.83,7.83,0,0,0-1.14-15.57Z" transform="translate(-15.63 -12.84)" style="fill:#7d97f4"/><path d="M1088.42,412a21.45,21.45,0,0,1-2.66-.14h0a25.68,25.68,0,0,1-5.48-1.14,1.34,1.34,0,0,1-.92-1.28,1.51,1.51,0,0,1,.06-.41,1.36,1.36,0,0,1,1.69-.87,23,23,0,0,0,4.92,1h0a23.6,23.6,0,0,0,25.77-20.5l.06-.58a21.67,21.67,0,0,0,.13-2.42,23.58,23.58,0,0,0-47-2.33c-.08.8-.12,1.6-.12,2.39a23.47,23.47,0,0,0,2.23,10,1.42,1.42,0,0,1,.12.57,1.35,1.35,0,0,1-1.35,1.34,1.33,1.33,0,0,1-1.2-.77,26.1,26.1,0,0,1-2.48-11.13,26.27,26.27,0,0,1,52.53-.07,17.45,17.45,0,0,1-.14,2.7A26.3,26.3,0,0,1,1088.42,412Z" transform="translate(-15.63 -12.84)" style="fill:#7d97f4"/><path d="M1527.1,600.68a.7.7,0,0,0,.82.23l8.39-3.08a38.47,38.47,0,0,0,11.09,6l2,8.69a.72.72,0,0,0,.64.56l10.66,1.08a.75.75,0,0,0,.74-.42l3.74-8.1a38.73,38.73,0,0,0,12.07-3.63l7.59,4.7a.72.72,0,0,0,.85-.06l8.3-6.77a.71.71,0,0,0,.23-.82l-3.08-8.38a39,39,0,0,0,6-11.1l8.69-2.05a.7.7,0,0,0,.56-.64l1.08-10.65a.75.75,0,0,0-.42-.74l-8.1-3.75a39,39,0,0,0-3.63-12.07l4.7-7.59a.72.72,0,0,0-.06-.85l-6.77-8.3a.73.73,0,0,0-.82-.23L1584,535.8a38.9,38.9,0,0,0-11.1-6l-2-8.69a.76.76,0,0,0-.64-.56l-10.66-1.08a.74.74,0,0,0-.74.42l-3.75,8.1a39.55,39.55,0,0,0-12.07,3.63l-7.59-4.7a.75.75,0,0,0-.85.06l-8.3,6.77a.75.75,0,0,0-.23.82l3.09,8.38a38.9,38.9,0,0,0-6,11.1l-8.69,2a.72.72,0,0,0-.56.64l-1.08,10.65a.73.73,0,0,0,.42.74l8.1,3.75A39.19,39.19,0,0,0,1525,583.9l-4.7,7.59a.74.74,0,0,0,.06.85Z" transform="translate(-15.63 -12.84)" style="fill:#2d6375"/><path d="M1560.15,577.7a10.91,10.91,0,1,1,1.6-.12A10.77,10.77,0,0,1,1560.15,577.7Zm0-19a11.69,11.69,0,0,0-1.19.09,8.12,8.12,0,1,0,2.37,16.07h0a8.12,8.12,0,0,0-1.18-16.16Z" transform="translate(-15.63 -12.84)" style="fill:#fff"/><path d="M1560.34,593.84a18.3,18.3,0,0,1-2.76-.14h0a27,27,0,0,1-5.68-1.19,1.38,1.38,0,0,1-1-1.33,1.23,1.23,0,0,1,.07-.42,1.39,1.39,0,0,1,1.75-.9h0a24.11,24.11,0,0,0,5.1,1.07h0a24.48,24.48,0,0,0,26.73-21.26l.06-.61a23.31,23.31,0,0,0,.13-2.51,24.46,24.46,0,0,0-48.79-2.42,23,23,0,0,0-.13,2.48,24.37,24.37,0,0,0,2.31,10.36,1.41,1.41,0,0,1,.13.6,1.39,1.39,0,0,1-2.65.59,27.07,27.07,0,0,1-2.57-11.54c0-.92,0-1.85.14-2.77a27.24,27.24,0,0,1,54.34,2.69,26.12,26.12,0,0,1-.14,2.8A27.26,27.26,0,0,1,1560.34,593.84Z" transform="translate(-15.63 -12.84)" style="fill:#fff"/><path d="M1578.05,379.34a1.77,1.77,0,0,1-1.71-1.28c-.42-1.46-.81-2.94-1.15-4.41a1.78,1.78,0,0,1,3.47-.8c.32,1.4.7,2.81,1.1,4.2a1.78,1.78,0,0,1-1.17,2.22,1.67,1.67,0,0,1-.54.07Z" transform="translate(-15.63 -12.84)" style="fill:#2d6375"/><path d="M1575.42,366.4a1.78,1.78,0,0,1-1.77-1.58,80.78,80.78,0,0,1-.53-8.94,1.78,1.78,0,0,1,1.77-1.79h0a1.78,1.78,0,0,1,1.82,1.74h0a78.45,78.45,0,0,0,.52,8.54,1.79,1.79,0,0,1-1.56,2h0Zm-.07-17.49h-.19a1.78,1.78,0,0,1-1.59-2v0a77.88,77.88,0,0,1,1.44-8.84,1.78,1.78,0,0,1,3.48.77,80.83,80.83,0,0,0-1.38,8.45A1.77,1.77,0,0,1,1575.35,348.91Zm3.78-17.06a1.65,1.65,0,0,1-.58-.1,1.79,1.79,0,0,1-1.11-2.27,81.53,81.53,0,0,1,3.38-8.3,1.78,1.78,0,0,1,3.22,1.53h0a76.52,76.52,0,0,0-3.22,7.93,1.79,1.79,0,0,1-1.69,1.2Zm7.49-15.81a1.79,1.79,0,0,1-1.79-1.79,1.86,1.86,0,0,1,.27-.94,82.41,82.41,0,0,1,5.14-7.33,1.78,1.78,0,0,1,2.81,2.2h0a78.66,78.66,0,0,0-4.92,7A1.75,1.75,0,0,1,1586.62,316Zm10.82-13.74a1.77,1.77,0,0,1-1.74-1.83,1.82,1.82,0,0,1,.47-1.17,81.92,81.92,0,0,1,6.63-6,1.78,1.78,0,0,1,2.24,2.77h0a78.46,78.46,0,0,0-6.34,5.75,1.69,1.69,0,0,1-1.26.48Zm13.58-11a1.79,1.79,0,0,1-1-3.29,83,83,0,0,1,7.8-4.4,1.78,1.78,0,0,1,1.58,3.2h0A77.76,77.76,0,0,0,1612,291a1.64,1.64,0,0,1-.93.28Zm75.39-5a1.57,1.57,0,0,1-.76-.17,78.62,78.62,0,0,0-7.94-3.17,1.79,1.79,0,0,1-1.12-2.26,1.76,1.76,0,0,1,2.22-1.13h0a80.53,80.53,0,0,1,8.32,3.32,1.79,1.79,0,0,1,.88,2.36,1.77,1.77,0,0,1-1.63,1Zm-59.7-2.75a1.77,1.77,0,0,1-1.8-1.75,1.79,1.79,0,0,1,1.19-1.71,82.3,82.3,0,0,1,8.59-2.56,1.78,1.78,0,0,1,.82,3.47h0a74.86,74.86,0,0,0-8.19,2.45A1.6,1.6,0,0,1,1626.71,283.55Zm43.14-2.85h-.37a77.91,77.91,0,0,0-8.46-1.33,1.78,1.78,0,0,1-1.6-1.95,1.8,1.8,0,0,1,2-1.6,85.25,85.25,0,0,1,8.85,1.39,1.79,1.79,0,0,1-.38,3.53Zm-26.13-1.2a1.78,1.78,0,0,1-.22-3.55,83.5,83.5,0,0,1,8.94-.58h0a1.78,1.78,0,0,1,0,3.56h0a81.08,81.08,0,0,0-8.54.56Z" transform="translate(-15.63 -12.84)" style="fill:#2d6375"/><path d="M1697.93,292.91a1.7,1.7,0,0,1-1-.32c-1.19-.83-2.41-1.63-3.64-2.38a1.78,1.78,0,1,1,1.47-3.24,2,2,0,0,1,.39.24c1.29.79,2.57,1.63,3.82,2.49a1.79,1.79,0,0,1,.44,2.48A1.74,1.74,0,0,1,1697.93,292.91Z" transform="translate(-15.63 -12.84)" style="fill:#2d6375"/><path d="M1730.8,346a1.79,1.79,0,0,1-1.77-1.53c-.2-1.44-.45-2.88-.74-4.29a1.78,1.78,0,0,1,3.49-.72c.3,1.48.57,3,.78,4.5a1.77,1.77,0,0,1-1.51,2Z" transform="translate(-15.63 -12.84)" style="fill:#2d6375"/><path d="M1653.33,435.62c-1.23,0-2.46,0-3.7-.08a1.78,1.78,0,0,1-1.7-1.86,1.82,1.82,0,0,1,1.86-1.7,73.9,73.9,0,0,0,8.42-.08,1.78,1.78,0,0,1,.23,3.56C1656.71,435.57,1655,435.62,1653.33,435.62Zm-12.19-.94h-.27a74.63,74.63,0,0,1-8.62-1.83,1.76,1.76,0,0,1-1.27-2.15v0a1.8,1.8,0,0,1,2.19-1.26,74.81,74.81,0,0,0,8.23,1.75,1.78,1.78,0,0,1-.27,3.54Zm25.74-.24a1.78,1.78,0,0,1-.31-3.54,72,72,0,0,0,8.19-1.91,1.78,1.78,0,1,1,1,3.42,76.77,76.77,0,0,1-8.58,2Zm-42.35-4.25a1.82,1.82,0,0,1-.65-.12,81.39,81.39,0,0,1-8-3.68,1.78,1.78,0,0,1-.61-2.45,1.8,1.8,0,0,1,2.28-.71,74.28,74.28,0,0,0,7.64,3.52,1.79,1.79,0,0,1,1,2.31,1.77,1.77,0,0,1-1.67,1.13Zm58.85-.58a1.78,1.78,0,0,1-.68-3.43,76.41,76.41,0,0,0,7.57-3.66,1.78,1.78,0,0,1,1.73,3.12,80.34,80.34,0,0,1-7.93,3.83A1.64,1.64,0,0,1,1683.38,429.61Zm15-8.33a1.72,1.72,0,0,1-1.45-.75,1.79,1.79,0,0,1,.42-2.49,75.35,75.35,0,0,0,6.6-5.23,1.79,1.79,0,0,1,2.36,2.68,78.74,78.74,0,0,1-6.9,5.46,1.67,1.67,0,0,1-1,.33Zm12.93-11.44a1.78,1.78,0,0,1-1.32-3,75.79,75.79,0,0,0,5.31-6.54,1.78,1.78,0,0,1,2.94,2l-.06.08a76,76,0,0,1-5.55,6.84A1.72,1.72,0,0,1,1711.31,409.84Zm10.09-13.93a1.78,1.78,0,0,1-1.78-1.79,1.81,1.81,0,0,1,.23-.88,73.48,73.48,0,0,0,3.75-7.54,1.79,1.79,0,0,1,3.28,1.41A76.42,76.42,0,0,1,1723,395a1.79,1.79,0,0,1-1.55.94Zm6.8-15.81a1.32,1.32,0,0,1-.52-.08,1.77,1.77,0,0,1-1.19-2.21h0a73.35,73.35,0,0,0,2-8.18,1.79,1.79,0,0,1,3.51.66,81,81,0,0,1-2.1,8.56,1.77,1.77,0,0,1-1.7,1.3Zm3.17-16.91h-.14a1.77,1.77,0,0,1-1.64-1.9h0v-.54c.13-1.78.19-3.59.19-5.36v-2.52a1.78,1.78,0,0,1,3.56-.12h0c0,.88.05,1.75.05,2.64,0,1.85-.07,3.74-.2,5.6v.56a1.77,1.77,0,0,1-1.82,1.69Z" transform="translate(-15.63 -12.84)" style="fill:#2d6375"/><path d="M1609.25,422.11a1.63,1.63,0,0,1-1-.31c-1.27-.86-2.51-1.75-3.7-2.67a1.78,1.78,0,0,1,2.17-2.83q1.71,1.32,3.53,2.55a1.78,1.78,0,0,1,.47,2.48h0A1.74,1.74,0,0,1,1609.25,422.11Z" transform="translate(-15.63 -12.84)" style="fill:#2d6375"/><path d="M1610.94,398.3a1,1,0,0,0,1.06.29l10.71-3.95a49.66,49.66,0,0,0,14.22,7.66l2.62,11.13a.92.92,0,0,0,.82.72l13.66,1.38a.9.9,0,0,0,.94-.54l4.8-10.38a49.42,49.42,0,0,0,15.47-4.65l9.73,6a.92.92,0,0,0,1.09-.07l10.64-8.68a.93.93,0,0,0,.28-1l-4-10.74a49.9,49.9,0,0,0,7.66-14.22l11.13-2.62a1,1,0,0,0,.73-.82l1.38-13.66a1,1,0,0,0-.54-1l-10.38-4.8a49.89,49.89,0,0,0-4.65-15.46l6-9.73a1,1,0,0,0-.07-1.09l-8.53-10.62a1,1,0,0,0-1-.29L1684,315.11a50.34,50.34,0,0,0-14.23-7.66l-2.62-11.13a1,1,0,0,0-.82-.72l-13.65-1.38a1,1,0,0,0-1,.54l-4.8,10.38a50.41,50.41,0,0,0-15.47,4.65l-9.73-6a1,1,0,0,0-1.09.07L1610,312.54a.94.94,0,0,0-.29,1l4,10.74a50.17,50.17,0,0,0-7.66,14.22l-11.27,2.6a1,1,0,0,0-.72.82l-1.39,13.66a1,1,0,0,0,.54.95l10.39,4.8a49.2,49.2,0,0,0,4.65,15.46l-6,9.74a.93.93,0,0,0,.07,1.08Z" transform="translate(-15.63 -12.84)" style="fill:#071841"/><path d="M1653.29,368.84a14,14,0,1,1,2-.15A14,14,0,0,1,1653.29,368.84Zm0-24.38a11.25,11.25,0,0,0-1.53.11,10.41,10.41,0,0,0,3,20.59h0a10.41,10.41,0,0,0-1.51-20.7Z" transform="translate(-15.63 -12.84)" style="fill:#fff"/><path d="M1653.54,389.58a35,35,0,0,1-3.55-.18h0a34.73,34.73,0,0,1-7.28-1.56,1.79,1.79,0,0,1-1.23-1.7,1.75,1.75,0,0,1,.08-.55,1.81,1.81,0,0,1,2.25-1.15,29.77,29.77,0,0,0,6.53,1.37h0a31.37,31.37,0,0,0,34.26-27.24c0-.26.06-.52.08-.78a31.35,31.35,0,1,0-59.56,10.14,1.83,1.83,0,0,1,.17.76,1.79,1.79,0,0,1-3.4.76,34.91,34.91,0,1,1,66.52-14.89c0,1.19-.06,2.39-.18,3.59A35,35,0,0,1,1653.54,389.58Z" transform="translate(-15.63 -12.84)" style="fill:#fff"/><path d="M1396.43,695.74a1.63,1.63,0,0,1-1.58-1.19c-.4-1.35-.76-2.72-1.08-4.08a1.65,1.65,0,0,1,3.22-.74h0c.3,1.29.64,2.6,1,3.89a1.64,1.64,0,0,1-1.12,2h0A1.31,1.31,0,0,1,1396.43,695.74Z" transform="translate(-15.63 -12.84)" style="fill:#2d6375"/><path d="M1394,683.77a1.63,1.63,0,0,1-1.63-1.46,73.57,73.57,0,0,1-.5-8.27,1.67,1.67,0,0,1,1.64-1.66h0a1.65,1.65,0,0,1,1.65,1.65h0a71.88,71.88,0,0,0,.47,7.9,1.65,1.65,0,0,1-1.44,1.83Zm-.06-16.18h-.22a1.63,1.63,0,0,1-1.46-1.8h0a75.55,75.55,0,0,1,1.33-8.17,1.65,1.65,0,0,1,3.25.59l0,.12a71.37,71.37,0,0,0-1.27,7.81A1.65,1.65,0,0,1,1393.93,667.59Zm3.49-15.78a1.6,1.6,0,0,1-.53-.09,1.65,1.65,0,0,1-1-2.09A73.93,73.93,0,0,1,1399,642a1.66,1.66,0,0,1,3,1.41,72.72,72.72,0,0,0-3,7.33,1.62,1.62,0,0,1-1.59,1.15Zm6.93-14.62a1.5,1.5,0,0,1-.87-.25,1.65,1.65,0,0,1-.53-2.27,75.62,75.62,0,0,1,4.75-6.78,1.65,1.65,0,1,1,2.59,2,72.42,72.42,0,0,0-4.54,6.48A1.63,1.63,0,0,1,1404.35,637.19Zm10-12.71a1.63,1.63,0,0,1-1.17-2.78v0a73.48,73.48,0,0,1,6.13-5.57,1.65,1.65,0,0,1,2.08,2.56,75.76,75.76,0,0,0-5.86,5.32,1.61,1.61,0,0,1-1.19.49Zm12.56-10.18a1.64,1.64,0,0,1-1.59-1.7,1.68,1.68,0,0,1,.7-1.3,78.46,78.46,0,0,1,7.21-4.07,1.67,1.67,0,0,1,1.46,3,71.66,71.66,0,0,0-6.89,3.89,1.53,1.53,0,0,1-.89.18Zm69.72-4.64a1.65,1.65,0,0,1-.69-.15,69.49,69.49,0,0,0-7.35-2.94,1.65,1.65,0,0,1,1-3.13,73,73,0,0,1,7.69,3.08,1.66,1.66,0,0,1,.78,2.2,1.63,1.63,0,0,1-1.48.94Zm-55.22-2.51a1.65,1.65,0,0,1-1.65-1.65,1.68,1.68,0,0,1,1.09-1.55,73,73,0,0,1,7.93-2.37,1.65,1.65,0,0,1,.77,3.21h0a73.37,73.37,0,0,0-7.58,2.26,1.54,1.54,0,0,1-.56.1Zm39.9-2.64a1,1,0,0,1-.35,0,73.51,73.51,0,0,0-7.82-1.23,1.65,1.65,0,1,1,.18-3.29h.15a75.22,75.22,0,0,1,8.18,1.29,1.65,1.65,0,0,1-.34,3.26Zm-24.17-1.11a1.64,1.64,0,0,1-1.6-1.7,1.66,1.66,0,0,1,1.4-1.58,71.3,71.3,0,0,1,8.26-.54h0a1.65,1.65,0,0,1,1.64,1.66,1.63,1.63,0,0,1-1.64,1.64,69.36,69.36,0,0,0-7.89.51Z" transform="translate(-15.63 -12.84)" style="fill:#2d6375"/><path d="M1507.29,615.84a1.57,1.57,0,0,1-.94-.3c-1.1-.76-2.23-1.5-3.37-2.2a1.65,1.65,0,0,1,1.7-2.82h0c1.19.73,2.37,1.51,3.52,2.31a1.66,1.66,0,0,1,.4,2.3,1.64,1.64,0,0,1-1.34.7Z" transform="translate(-15.63 -12.84)" style="fill:#2d6375"/><path d="M1537.71,664.93a1.65,1.65,0,0,1-1.63-1.41c-.19-1.33-.43-2.66-.69-4a1.65,1.65,0,0,1,3.23-.66c.28,1.37.52,2.77.72,4.16a1.65,1.65,0,0,1-1.4,1.87h0Z" transform="translate(-15.63 -12.84)" style="fill:#2d6375"/><path d="M1466,747.84c-1.13,0-2.27,0-3.42-.08a1.64,1.64,0,0,1-1.57-1.72h0a1.68,1.68,0,0,1,1.72-1.57,67.47,67.47,0,0,0,7.79-.07,1.68,1.68,0,0,1,1.75,1.55,1.64,1.64,0,0,1-1.54,1.75C1469.21,747.73,1467.62,747.84,1466,747.84Zm-11.27-.87h-.25a74.79,74.79,0,0,1-8-1.69,1.65,1.65,0,1,1,.86-3.19,68.37,68.37,0,0,0,7.62,1.62,1.66,1.66,0,0,1,1.37,1.89,1.64,1.64,0,0,1-1.62,1.39Zm23.8-.23a1.65,1.65,0,0,1-.28-3.27,70,70,0,0,0,7.58-1.77,1.65,1.65,0,0,1,.92,3.17h0a72.34,72.34,0,0,1-7.93,1.85,1.36,1.36,0,0,1-.29,0Zm-39.16-3.93a1.52,1.52,0,0,1-.6-.11,72.81,72.81,0,0,1-7.41-3.4,1.65,1.65,0,1,1,1.54-2.92h0a69.35,69.35,0,0,0,7.07,3.25,1.65,1.65,0,0,1,1,2.11A1.63,1.63,0,0,1,1439.41,742.81Zm54.43-.53a1.65,1.65,0,0,1-1.63-1.68,1.67,1.67,0,0,1,1-1.5,65.38,65.38,0,0,0,7-3.39,1.65,1.65,0,0,1,1.6,2.89h0a74.93,74.93,0,0,1-7.33,3.55,1.5,1.5,0,0,1-.63.08Zm13.92-7.71a1.65,1.65,0,0,1-1-3,70.9,70.9,0,0,0,6.11-4.84,1.65,1.65,0,0,1,2.18,2.47,72.26,72.26,0,0,1-6.38,5.06,1.56,1.56,0,0,1-.91.26Zm12-10.59a1.58,1.58,0,0,1-1.11-.43,1.63,1.63,0,0,1-.12-2.31v0a72.39,72.39,0,0,0,4.9-6,1.65,1.65,0,0,1,2.67,1.93,74.6,74.6,0,0,1-5.13,6.33A1.64,1.64,0,0,1,1519.71,724Zm9.33-12.89a1.67,1.67,0,0,1-.82-.21,1.65,1.65,0,0,1-.61-2.25,71.08,71.08,0,0,0,3.46-7,1.65,1.65,0,0,1,3.18.89,1.38,1.38,0,0,1-.18.41,72.91,72.91,0,0,1-3.63,7.3,1.64,1.64,0,0,1-1.44.86Zm6.28-14.62a1.63,1.63,0,0,1-1.65-1.63,1.69,1.69,0,0,1,.08-.5,71.84,71.84,0,0,0,1.85-7.56,1.65,1.65,0,0,1,3.24.61,73.58,73.58,0,0,1-1.94,7.91,1.62,1.62,0,0,1-1.62,1.17Zm2.89-15.63h-.12a1.64,1.64,0,0,1-1.52-1.77v-.49c.12-1.65.18-3.32.18-5v-2.33a1.65,1.65,0,0,1,3.29-.11v2.44c0,1.72-.06,3.46-.17,5.18v.52A1.65,1.65,0,0,1,1538.21,680.84Z" transform="translate(-15.63 -12.84)" style="fill:#2d6375"/><path d="M1425.27,735.29a1.58,1.58,0,0,1-.92-.28c-1.17-.8-2.32-1.63-3.42-2.47a1.64,1.64,0,0,1-.2-2.32,1.66,1.66,0,0,1,2.2-.3c1,.81,2.15,1.6,3.26,2.36a1.66,1.66,0,0,1,.4,2.3,1.61,1.61,0,0,1-1.33.7Z" transform="translate(-15.63 -12.84)" style="fill:#2d6375"/><path d="M1426.84,713.27a.87.87,0,0,0,1,.27l9.87-3.7a45.59,45.59,0,0,0,13.15,7.08l2.43,10.3a.86.86,0,0,0,.75.67l12.64,1.28a.85.85,0,0,0,.87-.5l4.44-9.6a46.08,46.08,0,0,0,14.31-4.31l9,5.57a.86.86,0,0,0,1-.06l9.84-8a.85.85,0,0,0,.26-1l-3.65-9.93a46,46,0,0,0,7.08-13.16l10.3-2.42a.86.86,0,0,0,.67-.76l1.28-12.63a.89.89,0,0,0-.51-.88l-9.6-4.43a46.08,46.08,0,0,0-4.26-14.22l5.57-9a.87.87,0,0,0-.06-1l-8-9.83a.87.87,0,0,0-1-.27l-9.94,3.65a46.58,46.58,0,0,0-13.15-7.08L1478.71,619a.9.9,0,0,0-.76-.67L1465.32,617a.9.9,0,0,0-.88.5l-4.44,9.6a46.46,46.46,0,0,0-14.3,4.3l-9-5.57a.87.87,0,0,0-1,.07l-9.83,8a.87.87,0,0,0-.27,1l3.65,9.93a46.35,46.35,0,0,0-7.08,13.15l-10.29,2.43a.86.86,0,0,0-.67.76l-1.29,12.66a.85.85,0,0,0,.5.87l9.6,4.44a46.17,46.17,0,0,0,4.3,14.31l-5.57,9a.86.86,0,0,0,.07,1Z" transform="translate(-15.63 -12.84)" style="fill:#5ecff5"/><path d="M1466,686a12.93,12.93,0,1,1,1.89-.14A10.93,10.93,0,0,1,1466,686Zm0-22.55a11.16,11.16,0,0,0-1.41.11,9.62,9.62,0,0,0,2.81,19h0a9.63,9.63,0,0,0-1.4-19.15Z" transform="translate(-15.63 -12.84)" style="fill:#fff"/><path d="M1466.24,705.21c-1.09,0-2.18-.06-3.28-.17h0a32.24,32.24,0,0,1-6.73-1.41,1.64,1.64,0,0,1-1.14-1.57,1.81,1.81,0,0,1,.08-.51,1.66,1.66,0,0,1,2.08-1.06,28.62,28.62,0,0,0,6,1.27h0a29,29,0,0,0,31.68-25.2,2.21,2.21,0,0,1,.08-.72,29.83,29.83,0,0,0,.15-3,29,29,0,1,0-55.24,12.36,1.71,1.71,0,0,1,.16.7,1.65,1.65,0,0,1-3.14.7,32,32,0,0,1-3-13.68,32.29,32.29,0,0,1,64.57-.08c0,1.1-.06,2.2-.17,3.31A32.33,32.33,0,0,1,1466.24,705.21Z" transform="translate(-15.63 -12.84)" style="fill:#fff"/><g style="opacity:0.6399999856948853"><path d="M413.13,430.58a1.49,1.49,0,0,1-1.45-1.08c-.37-1.24-.7-2.5-1-3.75a1.51,1.51,0,0,1,2.95-.68c.28,1.19.59,2.39.94,3.57a1.51,1.51,0,0,1-1,1.88A1.61,1.61,0,0,1,413.13,430.58Z" transform="translate(-15.63 -12.84)" style="fill:#2d6375"/><path d="M410.89,419.6a1.51,1.51,0,0,1-1.5-1.34,68.7,68.7,0,0,1-.45-7.59,1.51,1.51,0,0,1,1.48-1.52h0a1.51,1.51,0,0,1,1.51,1.5,65.19,65.19,0,0,0,.44,7.26,1.51,1.51,0,0,1-1.33,1.68Zm0-14.85h-.18a1.5,1.5,0,0,1-1.34-1.66,70.75,70.75,0,0,1,1.22-7.51,1.54,1.54,0,0,1,3,.66,67.34,67.34,0,0,0-1.17,7.17,1.5,1.5,0,0,1-1.58,1.34Zm3.2-14.49a1.36,1.36,0,0,1-.49-.08,1.5,1.5,0,0,1-.94-1.91h0a69.33,69.33,0,0,1,2.86-7.05,1.51,1.51,0,0,1,2.74,1.29,64.27,64.27,0,0,0-2.74,6.74,1.51,1.51,0,0,1-1.48,1Zm6.31-13.42a1.36,1.36,0,0,1-.8-.23,1.5,1.5,0,0,1-.49-2.07h0a70.28,70.28,0,0,1,4.36-6.23,1.53,1.53,0,0,1,2.14-.13,1.51,1.51,0,0,1,.25,2,67.71,67.71,0,0,0-4.18,5.95A1.47,1.47,0,0,1,420.4,376.84Zm9.18-11.67a1.45,1.45,0,0,1-1.06-.43,1.51,1.51,0,0,1,0-2.14,70.06,70.06,0,0,1,5.64-5.11,1.51,1.51,0,0,1,1.9,2.35h0a67.26,67.26,0,0,0-5.38,4.88A1.48,1.48,0,0,1,429.58,365.17Zm11.53-9.33a1.52,1.52,0,0,1-1.51-1.53,1.55,1.55,0,0,1,.69-1.26,70.37,70.37,0,0,1,6.62-3.74,1.51,1.51,0,0,1,1.34,2.71h0a66.61,66.61,0,0,0-6.32,3.58A1.51,1.51,0,0,1,441.11,355.84Zm64-4.26a1.42,1.42,0,0,1-.64-.14,65.48,65.48,0,0,0-6.75-2.7,1.52,1.52,0,1,1,1-2.87,69.22,69.22,0,0,1,7.06,2.82,1.53,1.53,0,0,1,.71,2,1.5,1.5,0,0,1-1.35.86Zm-50.7-2.31a1.52,1.52,0,0,1-1.5-1.54,1.54,1.54,0,0,1,1-1.4,70.94,70.94,0,0,1,7.29-2.17,1.51,1.51,0,1,1,.7,2.94,67.78,67.78,0,0,0-7,2.08,1.44,1.44,0,0,1-.46.08Zm36.64-2.43a.86.86,0,0,1-.32,0,72.42,72.42,0,0,0-7.18-1.13,1.51,1.51,0,1,1,.13-3h.17a70.63,70.63,0,0,1,7.51,1.18,1.52,1.52,0,0,1,1.13,1.83,1.49,1.49,0,0,1-1.44,1.17Zm-22.19-1a1.5,1.5,0,0,1-1.46-1.55,1.52,1.52,0,0,1,1.27-1.45,71.29,71.29,0,0,1,7.59-.5h0a1.52,1.52,0,0,1,0,3,67.69,67.69,0,0,0-7.25.47Z" transform="translate(-15.63 -12.84)" style="fill:#2d6375"/><path d="M514.9,357.2a1.52,1.52,0,0,1-.87-.27c-1-.7-2-1.38-3.09-2a1.52,1.52,0,1,1,1.39-2.7l.2.12c1.09.67,2.18,1.38,3.23,2.11a1.51,1.51,0,0,1,.39,2.1h0A1.46,1.46,0,0,1,514.9,357.2Z" transform="translate(-15.63 -12.84)" style="fill:#2d6375"/></g><g style="opacity:0.6399999856948853"><path d="M542.8,402.31a1.5,1.5,0,0,1-1.49-1.3c-.18-1.22-.39-2.45-.64-3.64a1.53,1.53,0,0,1,3-.61c.26,1.26.48,2.54.66,3.82a1.5,1.5,0,0,1-1.26,1.71h0Z" transform="translate(-15.63 -12.84)" style="fill:#2d6375"/><path d="M477,478.36c-1,0-2.08,0-3.14-.07a1.5,1.5,0,0,1-1.44-1.57h0a1.54,1.54,0,0,1,1.58-1.44,63.17,63.17,0,0,0,7.15-.07,1.52,1.52,0,0,1,.64,3,1.36,1.36,0,0,1-.45,0C479.94,478.32,478.48,478.36,477,478.36Zm-10.32-.79h-.24a67.86,67.86,0,0,1-7.31-1.55,1.51,1.51,0,0,1-.94-1.93,1.53,1.53,0,0,1,1.72-1,61.78,61.78,0,0,0,7,1.49,1.51,1.51,0,0,1,1.24,1.74,1.49,1.49,0,0,1-1.47,1.26Zm21.84-.21a1.51,1.51,0,0,1-.26-3,62.31,62.31,0,0,0,7-1.63,1.52,1.52,0,0,1,1.07,2.85.9.9,0,0,1-.22.06,64.61,64.61,0,0,1-7.28,1.7.92.92,0,0,1-.33,0Zm-35.94-3.61a1.35,1.35,0,0,1-.56-.1,64.19,64.19,0,0,1-6.8-3.13,1.51,1.51,0,1,1,1.42-2.67h0a62.45,62.45,0,0,0,6.49,3,1.51,1.51,0,0,1-.55,2.92Zm50-.49a1.52,1.52,0,0,1-1.53-1.49,1.53,1.53,0,0,1,.95-1.42,64.48,64.48,0,0,0,6.43-3.11,1.51,1.51,0,0,1,1.46,2.65,65.08,65.08,0,0,1-6.73,3.25,1.41,1.41,0,0,1-.64.12Zm12.78-7.07a1.47,1.47,0,0,1-1.24-.64,1.52,1.52,0,0,1,.36-2.11,61.29,61.29,0,0,0,5.6-4.44,1.52,1.52,0,0,1,2,2.27,65.2,65.2,0,0,1-5.86,4.64,1.45,1.45,0,0,1-.92.28Zm10.93-9.68a1.48,1.48,0,0,1-1-.39,1.52,1.52,0,0,1-.1-2.14,64.9,64.9,0,0,0,4.5-5.55,1.52,1.52,0,0,1,2.11-.34,1.51,1.51,0,0,1,.34,2.11,64.23,64.23,0,0,1-4.71,5.81,1.49,1.49,0,0,1-1.2.5Zm8.57-11.83a1.34,1.34,0,0,1-.75-.2,1.5,1.5,0,0,1-.57-2.05h0a62.46,62.46,0,0,0,3.18-6.4,1.52,1.52,0,0,1,2.79,1.2,68.54,68.54,0,0,1-3.34,6.7,1.5,1.5,0,0,1-1.37.76Zm5.77-13.42a1.1,1.1,0,0,1-.44-.07,1.49,1.49,0,0,1-1-1.86v0a65.63,65.63,0,0,0,1.7-6.94,1.53,1.53,0,0,1,3,.55,64.23,64.23,0,0,1-1.78,7.27,1.49,1.49,0,0,1-1.54,1.07Zm2.69-14.35h-.12a1.49,1.49,0,0,1-1.39-1.6v-.47c.1-1.52.16-3,.16-4.56v-2.14a1.52,1.52,0,0,1,1.47-1.56A1.54,1.54,0,0,1,545,408v2.24a47.31,47.31,0,0,1-.16,4.76v.48a1.49,1.49,0,0,1-1.58,1.39Z" transform="translate(-15.63 -12.84)" style="fill:#2d6375"/><path d="M439.61,466.89a1.38,1.38,0,0,1-.85-.26c-1.07-.73-2.13-1.49-3.14-2.26a1.51,1.51,0,0,1-.21-2.13,1.53,1.53,0,0,1,2.06-.28c1,.74,2,1.47,3,2.17a1.51,1.51,0,0,1,.4,2.1,1.47,1.47,0,0,1-1.25.66Z" transform="translate(-15.63 -12.84)" style="fill:#2d6375"/></g><path d="M441.05,446.68a.77.77,0,0,0,.89.24l9.12-3.35a42.26,42.26,0,0,0,12.08,6.5l2.22,9.45a.79.79,0,0,0,.7.61l11.59,1.18a.82.82,0,0,0,.81-.46l4.07-8.81a42.34,42.34,0,0,0,13.13-4l8.26,5.11a.78.78,0,0,0,.93-.06l9-7.37a.79.79,0,0,0,.24-.89l-3.35-9.12a42.32,42.32,0,0,0,6.5-12.07l9.45-2.23a.78.78,0,0,0,.61-.69l1.18-11.6a.8.8,0,0,0-.46-.8l-8.82-4.08a42.31,42.31,0,0,0-3.94-13.13l5.11-8.26a.8.8,0,0,0-.06-.93l-7.37-9a.79.79,0,0,0-.89-.25L502.93,376a43,43,0,0,0-12.07-6.5l-2.15-9.42a.82.82,0,0,0-.69-.61l-11.6-1.18a.81.81,0,0,0-.8.46l-4.08,8.82a42.25,42.25,0,0,0-13.13,4l-8.26-5.12a.83.83,0,0,0-.93.06l-9,7.37a.8.8,0,0,0-.24.89l3.35,9.12a42.35,42.35,0,0,0-6.62,12.08l-9.45,2.22a.81.81,0,0,0-.61.7l-1.18,11.59a.81.81,0,0,0,.46.81l8.82,4.07a42.18,42.18,0,0,0,4,13.13l-5.11,8.26a.8.8,0,0,0,.06.93Z" transform="translate(-15.63 -12.84)" style="fill:#071841"/><path d="M477,421.68a11.89,11.89,0,1,1,1.74-.13A11.32,11.32,0,0,1,477,421.68Zm0-20.7c-.44,0-.87,0-1.3.09a8.83,8.83,0,0,0,2.58,17.48h0A8.83,8.83,0,0,0,477,401Z" transform="translate(-15.63 -12.84)" style="fill:#bdd0fb"/><path d="M477.21,439.28a25.13,25.13,0,0,1-3-.16h0a28.22,28.22,0,0,1-6.17-1.29,1.5,1.5,0,0,1-1.05-1.44,1.58,1.58,0,0,1,.07-.47,1.54,1.54,0,0,1,1.91-1,25.61,25.61,0,0,0,5.55,1.16h0A26.6,26.6,0,0,0,503.6,413a2.12,2.12,0,0,1,.07-.66c.09-.91.14-1.83.14-2.73a26.61,26.61,0,0,0-53.1-2.6c-.09.9-.14,1.8-.14,2.7a26.41,26.41,0,0,0,2.51,11.27,1.43,1.43,0,0,1,.15.64,1.52,1.52,0,0,1-2.89.65,29.42,29.42,0,0,1-2.8-12.56,20.1,20.1,0,0,1,.15-3,29.64,29.64,0,0,1,59.13,2.93,28.19,28.19,0,0,1-.16,3.05A29.67,29.67,0,0,1,477.21,439.28Z" transform="translate(-15.63 -12.84)" style="fill:#bdd0fb"/><circle cx="392.01" cy="252.96" r="77.81" style="fill:#73d0d9"/><circle cx="408.36" cy="265.52" r="65.86" transform="translate(-83.77 353.68) rotate(-45)" style="fill:#fff;opacity:0.699999988079071;isolation:isolate"/><path d="M428.5,240.61c0,11.15-9,23.19-20.19,23.19s-20.19-12-20.19-23.19,9-19.06,20.19-19.06S428.5,229.46,428.5,240.61Z" transform="translate(-15.63 -12.84)" style="fill:#4aa4c2"/><path d="M383.25,306.74h49.29a12,12,0,0,0,11.37-8.3l2.65-8.29a11.93,11.93,0,0,0-7.2-14.83c-20.06-7.33-40.8-6.39-62,.68a11.89,11.89,0,0,0-7.62,14.4l2,7.53A11.92,11.92,0,0,0,383.25,306.74Z" transform="translate(-15.63 -12.84)" style="fill:#4aa4c2"/><circle cx="301.25" cy="386.52" r="77.81" style="fill:#73d0d9"/><circle cx="316.59" cy="400.03" r="65.86" transform="translate(-205.77 328.19) rotate(-45)" style="fill:#fff;opacity:0.699999988079071;isolation:isolate"/><path d="M336.71,375.17c0,11.15-9,23.19-20.19,23.19s-20.19-12-20.19-23.19,9-19.07,20.19-19.07S336.71,364,336.71,375.17Z" transform="translate(-15.63 -12.84)" style="fill:#506c75"/><path d="M291.49,441.29h49.29A11.92,11.92,0,0,0,352.15,433l2.65-8.29a11.92,11.92,0,0,0-7.2-14.83c-20.06-7.34-40.81-6.4-62.05.67a11.88,11.88,0,0,0-7.62,14.4l2,7.53A11.91,11.91,0,0,0,291.49,441.29Z" transform="translate(-15.63 -12.84)" style="fill:#506c75"/><circle cx="371.43" cy="523.43" r="72.32" style="fill:#73d0d9"/><circle cx="386.64" cy="536.84" r="61.21" transform="translate(-281.99 417.79) rotate(-45)" style="fill:#fff;opacity:0.699999988079071;isolation:isolate"/><path d="M405.38,513.71c0,10.37-8.4,21.56-18.77,21.56s-18.76-11.19-18.76-21.56S376.25,496,386.61,496,405.38,503.35,405.38,513.71Z" transform="translate(-15.63 -12.84)" style="fill:#41b3a7"/><path d="M363.32,575.17h45.81a11.09,11.09,0,0,0,10.58-7.71l2.46-7.7A11.09,11.09,0,0,0,415.48,546c-18.65-6.81-37.92-5.94-57.67.63a11.07,11.07,0,0,0-7.1,13.39l1.9,7A11.07,11.07,0,0,0,363.32,575.17Z" transform="translate(-15.63 -12.84)" style="fill:#41b3a7"/><path d="M1943,604.13l-328.42-1.58c-4,0-7.17,4.34-7.14,9.73l.72,129.94c0,5.41,3.33,9.74,7.31,9.57l326.55-7c3.8-.16,6.83-4.36,6.88-9.53l1.15-121.36C1950.13,608.55,1947,604.16,1943,604.13Z" transform="translate(-15.63 -12.84)" style="fill:#41b3a7"/><rect x="1612.29" y="658.43" width="15.98" height="61.08" style="fill:#a2dab0"/><rect x="1639" y="679.42" width="15.98" height="40.09" style="fill:#a2dab0"/><rect x="1665.71" y="627.54" width="15.98" height="91.96" style="fill:#a2dab0"/><rect x="1692.41" y="697.41" width="15.98" height="22.09" style="fill:#bdd0fb"/><rect x="1719.12" y="639.84" width="15.98" height="79.67" style="fill:#a2dab0"/><rect x="1745.82" y="653.63" width="15.98" height="65.87" style="fill:#a2dab0"/><rect x="1772.53" y="668.63" width="15.98" height="50.88" style="fill:#a2dab0"/><rect x="1799.23" y="608.95" width="15.98" height="110.56" style="fill:#a2dab0"/><rect x="1825.94" y="620.65" width="15.98" height="98.86" style="fill:#a2dab0"/><rect x="1852.64" y="638.34" width="15.98" height="81.17" style="fill:#a2dab0"/><rect x="1879.35" y="699.47" width="15.98" height="20.04" style="fill:#a2dab0"/><rect x="1906.06" y="660.53" width="15.98" height="58.98" style="fill:#a2dab0"/><circle cx="1718.25" cy="287.94" r="27.18" style="fill:#66c2ab"/><circle cx="1717.84" cy="287.53" r="23.01" style="fill:#fff;opacity:0.6899999976158142;isolation:isolate"/><path d="M1731.21,317.47V315a20.3,20.3,0,0,1-7-1.52,1.45,1.45,0,0,1-.8-1.71l.64-2.34a1.46,1.46,0,0,1,1.79-1l.21.07a16.81,16.81,0,0,0,6.48,1.37c2.51,0,4.39-.86,4.39-2.6,0-1.58-1.45-2.52-4.94-3.45-5-1.37-8.56-3.54-8.56-7.93,0-4,2.89-7,7.92-7.79v-2.5a1.46,1.46,0,0,1,1.46-1.46h1.47a1.46,1.46,0,0,1,1.46,1.46v2.29a18.81,18.81,0,0,1,5.56,1,1.44,1.44,0,0,1,.91,1.75l-.59,2.16a1.45,1.45,0,0,1-1.76,1.05l-.16-.05a15.44,15.44,0,0,0-5.46-1c-3,0-3.83,1.24-3.83,2.34,0,1.37,1.79,2.3,5.67,3.5,5.53,1.66,7.83,4,7.83,8.09,0,3.79-2.81,7.2-8.26,8.05v2.8a1.46,1.46,0,0,1-1.46,1.46h-1.47a1.45,1.45,0,0,1-1.5-1.41Z" transform="translate(-15.63 -12.84)" style="fill:#2d6375"/><circle cx="1814.01" cy="267.48" r="47.32" transform="translate(1195.42 1986.28) rotate(-79.19)" style="fill:#66c2ab"/><circle cx="1813.94" cy="267.5" r="40.05" transform="translate(-25.95 439.03) rotate(-14.16)" style="fill:#fff;opacity:0.6899999976158142;isolation:isolate"/><path d="M1810,297.24v-4.4a35.15,35.15,0,0,1-12.22-2.65,2.54,2.54,0,0,1-1.4-3l1.11-4.06a2.55,2.55,0,0,1,3.14-1.76l.31.1a29.26,29.26,0,0,0,11.29,2.38c4.37,0,7.63-1.48,7.63-4.52,0-2.75-2.52-4.38-8.6-6-8.67-2.37-14.9-6.15-14.9-13.79,0-6.9,5-12.16,13.79-13.57v-4.36a2.54,2.54,0,0,1,2.54-2.54h2.56a2.54,2.54,0,0,1,2.54,2.54h0v3.91a32.93,32.93,0,0,1,9.69,1.74,2.56,2.56,0,0,1,1.58,3l-1,3.76a2.54,2.54,0,0,1-3,1.92,1.7,1.7,0,0,1-.32-.1,26.64,26.64,0,0,0-9.51-1.73c-5.19,0-6.67,2.15-6.67,4.08,0,2.37,3.11,4,9.86,6.08,9.64,2.89,13.64,6.9,13.64,14.09,0,6.6-4.89,12.53-14.38,14v4.88a2.54,2.54,0,0,1-2.54,2.54h-2.56A2.54,2.54,0,0,1,1810,297.24Z" transform="translate(-15.63 -12.84)" style="fill:#2d6375"/><circle cx="1847.81" cy="376.83" r="48.69" transform="translate(1037.98 2074.43) rotate(-76.62)" style="fill:#66c2ab"/><circle cx="1847.64" cy="376.77" r="41.21" transform="translate(1037.31 2073.95) rotate(-76.6)" style="fill:#fff;opacity:0.6899999976158142;isolation:isolate"/><path d="M1843.71,407.45V403a36.53,36.53,0,0,1-12.58-2.73,2.58,2.58,0,0,1-1.43-3.06l1.14-4.18a2.62,2.62,0,0,1,3.22-1.82,3.19,3.19,0,0,1,.33.11,30.13,30.13,0,0,0,11.61,2.45c4.5,0,7.86-1.53,7.86-4.66,0-2.82-2.59-4.5-8.85-6.18-8.93-2.44-15.34-6.33-15.34-14.19,0-7.1,5.19-12.51,14.19-14v-4.49a2.61,2.61,0,0,1,2.61-2.61h2.64a2.61,2.61,0,0,1,2.61,2.61v4a33.41,33.41,0,0,1,10,1.79,2.61,2.61,0,0,1,1.63,3.14l-1,3.86a2.6,2.6,0,0,1-3.18,1.85,2,2,0,0,1-.26-.09,27.45,27.45,0,0,0-9.78-1.78c-5.34,0-6.86,2.22-6.86,4.2,0,2.44,3.2,4.12,10.14,6.26,9.92,3,14,7.09,14,14.49,0,6.79-5,12.9-14.8,14.42v5A2.61,2.61,0,0,1,1849,410h-2.64A2.6,2.6,0,0,1,1843.71,407.45Z" transform="translate(-15.63 -12.84)" style="fill:#2d6375"/><circle cx="1912.14" cy="308.08" r="35.67" transform="translate(326.58 1429.48) rotate(-45)" style="fill:#66c2ab"/><circle cx="1896.42" cy="295.09" r="30.19" style="fill:#fff;opacity:0.6899999976158142;isolation:isolate"/><path d="M1909.09,330.37v-3.28a26.56,26.56,0,0,1-9.22-2,1.88,1.88,0,0,1-1-2.24l.89-3a1.92,1.92,0,0,1,2.34-1.35l.26.09a22,22,0,0,0,8.51,1.8c3.29,0,5.75-1.12,5.75-3.42,0-2.06-1.9-3.29-6.48-4.52-6.54-1.79-11.24-4.64-11.24-10.4,0-5.2,3.8-9.17,10.4-10.23v-3.29a1.92,1.92,0,0,1,1.92-1.91h1.92a1.92,1.92,0,0,1,1.92,1.91v3a24.87,24.87,0,0,1,7.3,1.31,1.9,1.9,0,0,1,1.19,2.3l-.79,2.76a1.91,1.91,0,0,1-2.34,1.35.64.64,0,0,1-.18-.06,20.4,20.4,0,0,0-7.17-1.3c-3.91,0-5,1.62-5,3.08,0,1.79,2.35,3,7.44,4.58,7.26,2.18,10.28,5.2,10.28,10.62,0,5-3.69,9.45-10.84,10.57v3.67a1.91,1.91,0,0,1-1.92,1.92h-1.93a1.91,1.91,0,0,1-2-1.87Z" transform="translate(-15.63 -12.84)" style="fill:#2d6375"/><path d="M1520.4,194.22c-.08-1-1.13-1.9-2.89-2.61,1.92-1.06,3-2.19,2.89-3.3-.27-3.37-10.92-5.25-23.79-4.21s-23.07,4.6-22.8,8c.08,1,1.12,1.91,2.88,2.61-1.91,1.06-3,2.2-2.88,3.31s1.12,1.9,2.88,2.61c-1.91,1.05-3,2.19-2.88,3.3s1.12,1.9,2.88,2.61c-1.91,1.06-3,2.19-2.88,3.3.12,1.49,2.27,2.69,5.74,3.47a31.32,31.32,0,0,0,.09,3.63c.5,6.2,7.47,11.06,16.69,11.06s17.2-6.63,17.29-12.84a30.65,30.65,0,0,0-.18-4.06c4.41-1.47,7.1-3.27,7-5-.08-1-1.13-1.9-2.89-2.61,1.92-1,3-2.19,2.89-3.3s-1.13-1.9-2.89-2.61C1519.43,196.46,1520.49,195.33,1520.4,194.22Z" transform="translate(-15.63 -12.84)" style="fill:#071841"/><path d="M1490.71,214.61a54.62,54.62,0,0,1-10.21-.84.28.28,0,0,1-.25-.32s0,0,0,0a.31.31,0,0,1,.36-.24,66.73,66.73,0,0,0,17,.53,71.9,71.9,0,0,0,14.26-2.46.31.31,0,0,1,.38.22.3.3,0,0,1-.21.38,73.86,73.86,0,0,1-14.38,2.48C1495.22,214.51,1492.89,214.61,1490.71,214.61Z" transform="translate(-15.63 -12.84)" style="fill:#7d97f4"/><path d="M1490.71,208.69a48.06,48.06,0,0,1-12.53-1.36.3.3,0,0,1-.21-.38.32.32,0,0,1,.38-.21c4.46,1.27,11.64,1.66,19.21,1s14.47-2.12,18.67-4.06a.3.3,0,0,1,.4.14h0a.32.32,0,0,1-.13.41h0c-4.27,2-11.33,3.51-18.88,4.12C1495.26,208.6,1492.94,208.69,1490.71,208.69Z" transform="translate(-15.63 -12.84)" style="fill:#7d97f4"/><path d="M1490.71,202.78a45,45,0,0,1-13.21-1.59.31.31,0,0,1-.2-.39.31.31,0,0,1,.38-.19h0c4.4,1.45,11.85,1.92,19.93,1.27,7.48-.6,14.47-2.12,18.67-4.06a.32.32,0,0,1,.4.19.31.31,0,0,1-.14.37c-4.27,2-11.33,3.51-18.88,4.12C1495.22,202.69,1492.88,202.78,1490.71,202.78Z" transform="translate(-15.63 -12.84)" style="fill:#7d97f4"/><path d="M1490.71,196.84a53.24,53.24,0,0,1-11.13-1,.31.31,0,0,1-.24-.37.33.33,0,0,1,.38-.24,64.54,64.54,0,0,0,17.86.72c7.42-.6,14.36-2.1,18.58-4a.32.32,0,0,1,.43.1.31.31,0,0,1-.1.43.19.19,0,0,1-.08,0c-4.27,2-11.3,3.47-18.78,4.07C1495.25,196.77,1492.92,196.84,1490.71,196.84Z" transform="translate(-15.63 -12.84)" style="fill:#7d97f4"/><path d="M1465.17,164.38a43.65,43.65,0,0,0-7.79-15.22c-7.66-9.65-20.16-29.28-21.69-56.08-2.24-39,32.32-58.48,63.86-55.83s62.67,26.13,59.26,62.39c-2.1,22.31-14.58,39.23-23.88,49a51.71,51.71,0,0,0-12.39,22c-2.79,10.07-9.43,22.62-25.22,23.39C1476.9,194.93,1468.42,175.89,1465.17,164.38Z" transform="translate(-15.63 -12.84)" style="fill:#ffd131"/><path d="M1502.54,186.17l11-71.78c.23-1.49,1-2.48,1.63-2.23s1,1.67.8,3.15v.13l-12.57,71.11c-.09.53-.37.87-.61.75S1502.46,186.68,1502.54,186.17Z" transform="translate(-15.63 -12.84)" style="fill:#fff"/><path d="M1491.09,186.74l-11-71.78c-.23-1.49-1-2.48-1.63-2.23s-1,1.67-.8,3.15a.28.28,0,0,0,0,.13l12.57,71.11c.09.53.36.87.6.75S1491.16,187.25,1491.09,186.74Z" transform="translate(-15.63 -12.84)" style="fill:#fff"/><path d="M1513.5,108.22a1.16,1.16,0,0,0-1.45-.37l-6.15,2.87-2.13-6.08a1.29,1.29,0,0,0-.75-.75,1.52,1.52,0,0,0-1.88.58h0l-5.06,9.22-4.69-13.12h0a1.5,1.5,0,0,0-.71-.8,1.85,1.85,0,0,0-2.32.45L1481.3,110a.85.85,0,0,0,.19,1.19l.06,0a1.16,1.16,0,0,0,1.5-.17l6.22-6.94,5.6,12.48h0a.94.94,0,0,0,.49.49,1.16,1.16,0,0,0,1.46-.38l5.41-8.68,2,4.39h0v.09a1.15,1.15,0,0,0,1.45.38l7.29-3.41a.86.86,0,0,0,.58-1.08S1513.52,108.26,1513.5,108.22Z" transform="translate(-15.63 -12.84)" style="fill:#fff;opacity:0.5600000023841858;isolation:isolate"/><path d="M1535.17,138.46a.53.53,0,0,1-.42-.83h0a80.67,80.67,0,0,0,5.17-7.86.54.54,0,0,1,.72-.19.51.51,0,0,1,.2.7h0a81.5,81.5,0,0,1-5.24,8A.5.5,0,0,1,1535.17,138.46Z" transform="translate(-15.63 -12.84)" style="fill:#fff;opacity:0.5600000023841858;isolation:isolate"/><path d="M1544.25,122.84a.38.38,0,0,1-.21,0,.51.51,0,0,1-.27-.68h0c11.81-27.21,1.6-50.11,1.49-50.33a.53.53,0,0,1,.26-.7.53.53,0,0,1,.7.26A55.76,55.76,0,0,1,1550,86.51a69.34,69.34,0,0,1-5.3,36.06A.51.51,0,0,1,1544.25,122.84Z" transform="translate(-15.63 -12.84)" style="fill:#fff;opacity:0.5600000023841858;isolation:isolate"/><path d="M536.32,1387.66V1098.78c0-34.39,29.76-62.27,66.47-62.27H832.1c36.71,0,66.47,27.88,66.47,62.27v288.88Z" transform="translate(-15.63 -12.84)" style="fill:#071841"/><path d="M282.2,1402v-99.59c0-16.1,25.21-29.15,56.32-29.15H532.79c31.1,0,56.31,13,56.31,29.15V1402Z" transform="translate(-15.63 -12.84)" style="fill:#4aa4c2"/><path d="M236.23,1402v-99.59c0-16.1,25.21-29.15,56.31-29.15H486.82c31.1,0,56.31,13,56.31,29.15V1402Z" transform="translate(-15.63 -12.84)" style="fill:#5ecff5"/><path d="M122.71,1399.84a3.81,3.81,0,0,0-.11-1.11c-5.53-21.92-33-35.57-33-35.57l-7,.55a5.69,5.69,0,0,0-5,4.1c-5.12,17.57-4.17,28.32-3.2,33h0A256.53,256.53,0,0,0,122.71,1399.84Z" transform="translate(-15.63 -12.84)" style="fill:#071841"/><path d="M74.39,1400.89a4.73,4.73,0,0,0,3.45,3.49c12.76,2.68,33.05.52,41.56-.59a4,4,0,0,0,3.28-4A257.19,257.19,0,0,1,74.39,1400.89Z" transform="translate(-15.63 -12.84)" style="fill:#2d6375"/><path d="M84.61,1343.84,79,1370a4.28,4.28,0,0,0,3.66,3.52,35.49,35.49,0,0,0,8.43-.13,5.38,5.38,0,0,0,4.26-6.32h0l7.31-23.26Z" transform="translate(-15.63 -12.84)" style="fill:url(#b5b8b71d-edab-49a3-9262-82708496c42a)"/><path d="M275.47,1283.74c-10.74-.3-16.3-1.56-19.17-2.73v3.28a2.09,2.09,0,0,0,2,2.15l59-.38a2.7,2.7,0,0,0,2.46-2.92,2.74,2.74,0,0,0-.29-1C311.77,1282.78,292.07,1284.21,275.47,1283.74Z" transform="translate(-15.63 -12.84)" style="fill:#2d6375"/><path d="M319.5,1282.14v-.06c-5-7.15-18.28-22-44.95-28.44l-9.8-.31a4.23,4.23,0,0,0-4,2.65c-1.66,4-4.37,12.55-4.44,25,2.87,1.17,8.43,2.43,19.17,2.73C292.08,1284.21,311.77,1282.78,319.5,1282.14Z" transform="translate(-15.63 -12.84)" style="fill:#071841"/><path d="M267.42,1235.41c-.12.94-2.3,15.12-3.15,20.62a2.73,2.73,0,0,0,1.55,3,28.85,28.85,0,0,0,8.36,2.2,3.7,3.7,0,0,0,3.72-2.83l6-21.53Z" transform="translate(-15.63 -12.84)" style="fill:url(#af87b53b-b628-4845-940e-feb218c38383)"/><path d="M146,1089.16s-14.08,21.12-18.77,51.63c-4.32,28.07-41.11,185.66-47,210.69a3.5,3.5,0,0,0,2.62,4.21h0a59.67,59.67,0,0,0,14.15,1.7,6.56,6.56,0,0,0,5.76-4l87.76-203.24s58.37-11.24,79.79,14.08c12.86,15.2,4.4,42-7,79.8,0,0,14.08,7,23.47,2.35,0,0,43.76-68.39,25.82-110.31-8.31-19.4-44.15-38.53-79.8-42.24Z" transform="translate(-15.63 -12.84)" style="fill:#071841"/><path d="M146,1089.16l21.12-187.75s91.53,0,150.2,32.85l-76,158.41a24.39,24.39,0,0,1-22.07,13.9C203.24,1106.5,176.42,1103.62,146,1089.16Z" transform="translate(-15.63 -12.84)" style="fill:#66c2ab"/><path d="M393.63,883.84s-5.86,59.85-76.27,50.46c0,0-27,29.81-27.59,56,0,0,128.51,33.2,116.77-100.57Z" transform="translate(-15.63 -12.84)" style="fill:#66c2ab"/><path d="M136.65,1068s9.39-16.42,23.47-14.08,21.12,16.43,21.12,16.43l-23.47,11.73C148.39,1086.84,132,1082.11,136.65,1068Z" transform="translate(-15.63 -12.84)" style="fill:#fca372"/><path d="M164.82,960.08s-119.7,54-28.17,108l2,11.71s-72.8,10.51-75.94-73.95c-2.35-63.36,104.43-104.43,104.43-104.43Z" transform="translate(-15.63 -12.84)" style="fill:#66c2ab"/><path d="M241.76,873.23,224.52,910.1s19.2,14.07,38.73,8.57l5-52.35Z" transform="translate(-15.63 -12.84)" style="fill:#fca372"/><path d="M284.24,833.1c.36.66,7.61,49.94,7.61,49.94l-28.22,3.54L249.81,840.9S278.3,822,284.24,833.1Z" transform="translate(-15.63 -12.84)" style="fill:#fca372"/><path d="M260.21,845.54a4.11,4.11,0,0,0-.85,3.5l5.35,24.26a3.9,3.9,0,0,0,.38,1c1,1.83,4.61,7.39,10.21,3.36,4.78-3.43,9.21-6.52,13.05-7.12A4.09,4.09,0,0,1,293,874v0a153.47,153.47,0,0,1,1.66,22.45,4.05,4.05,0,0,1-3.83,4c-5.59.34-16.52.67-25.54-1a4.08,4.08,0,0,1-3.14-2.79c-2-6.33-7.67-24-10-28.81-2.2-4.42-8.74-5.23-11.76-5.37a4.06,4.06,0,0,1-3-1.45c-2.23-2.62-5.7-8.46,1.16-14.06a4.1,4.1,0,0,0,.57-5.67c-2.43-3.11-4.52-8.1.81-13.26s11.43-3.82,15.24-2a4.22,4.22,0,0,0,5-.93,2.78,2.78,0,0,1,2.53-.9,4,4,0,0,0,4.53-3.38h0c.5-3.81,2.59-8.28,9.36-9.5,12.42-2.23,18.43,10.25,18.1,19s-13.93,10.36-21.62,8.81C267.4,837.94,262.44,842.84,260.21,845.54Z" transform="translate(-15.63 -12.84)" style="fill:#061e43"/><path d="M254.12,876.84s-.07-15.2-6.2-16.71-12.82,2.85-7.68,12C246.63,883.5,254.12,876.84,254.12,876.84Z" transform="translate(-15.63 -12.84)" style="fill:#fca372"/><polygon points="281.78 833.41 476.57 802.9 474.23 863.92 281.78 847.5 281.78 833.41" style="fill:#506c75"/><path d="M485.51,813.6c-1,12.08,0,50.11.55,62.64a4.23,4.23,0,0,0,4.24,4h3.3a5.26,5.26,0,0,0,5.21-4.4c3.63-22.45,5.48-43.56,4.24-62.33a4,4,0,0,0-4-3.66h-9.5A4.09,4.09,0,0,0,485.51,813.6Z" transform="translate(-15.63 -12.84)" style="fill:#506c75"/><path d="M301.13,842.73h-5.76a2,2,0,0,0-1.9,1.54c-1.25,5.71-.31,14.31.18,17.91a1.92,1.92,0,0,0,1.91,1.68h3.65a1.92,1.92,0,0,0,1.91-1.72l1.92-17.3a1.93,1.93,0,0,0-1.72-2.1Z" transform="translate(-15.63 -12.84)" style="fill:#506c75"/><path d="M393.63,883.84s1.07-13.59,2.88-15,15.9-15.51,18.25-15.51,4.69,4.7,0,7-5.87,9.51-5.87,9.51l12.74,1.09s-9.22,17.57-13.92,19.91S393.63,883.84,393.63,883.84Z" transform="translate(-15.63 -12.84)" style="fill:#fca372"/><path d="M1185.56,954.3h264.29a40.42,40.42,0,0,1,40.42,40.42h0v413.12H1145.13V994.72a40.42,40.42,0,0,1,40.42-40.42Z" transform="translate(-15.63 -12.84)" style="fill:#071841"/><path d="M1146.71,953.3H1411a40.42,40.42,0,0,1,40.42,40.42h0v417H1106.31v-417A40.43,40.43,0,0,1,1146.71,953.3Z" transform="translate(-15.63 -12.84)" style="fill:#ffd131"/><path d="M1412.57,766.23l346.51-1.51a5.94,5.94,0,0,1,6,5.88v.12L1764.34,892a5.94,5.94,0,0,1-6,5.91h-.13c-30.56-.91-343.73-4.93-349.72-4.68s-2.71-95.53-1.82-121.24A5.94,5.94,0,0,1,1412.57,766.23Z" transform="translate(-15.63 -12.84)" style="fill:#41b3a7"/><path d="M1427.4,797.56h0c0,3.28,1.09,5.93,2.44,5.93h132.73c1.35,0,2.45-2.65,2.45-5.93h0c0-3.28-1.1-5.94-2.45-5.94H1429.84C1428.49,791.62,1427.4,794.28,1427.4,797.56Z" transform="translate(-15.63 -12.84)" style="fill:#a2dab0"/><path d="M1427.4,817.84h0c0,3.28,1.09,5.94,2.44,5.94h132.73c1.35,0,2.45-2.66,2.45-5.94h0c0-3.28-1.1-5.94-2.45-5.94H1429.84C1428.49,811.84,1427.4,814.52,1427.4,817.84Z" transform="translate(-15.63 -12.84)" style="fill:#a2dab0"/><path d="M1427.4,838.05h0c0,3.28,1.09,5.94,2.44,5.94h132.73c1.35,0,2.45-2.66,2.45-5.94h0c0-3.28-1.1-5.94-2.45-5.94H1429.84C1428.49,832.11,1427.4,834.77,1427.4,838.05Z" transform="translate(-15.63 -12.84)" style="fill:#a2dab0"/><path d="M1427.4,858.29h0c0,3.28,1.09,5.94,2.44,5.94h132.73c1.35,0,2.45-2.66,2.45-5.94h0c0-3.28-1.1-5.94-2.45-5.94H1429.84C1428.49,852.35,1427.4,855,1427.4,858.29Z" transform="translate(-15.63 -12.84)" style="fill:#a2dab0"/><circle cx="1598.59" cy="801.68" r="23.09" transform="translate(435.5 2160.52) rotate(-76.72)" style="fill:#071841"/><circle cx="1656.03" cy="801.75" r="23.09" transform="translate(-97.51 1392.97) rotate(-45)" style="fill:#071841"/><circle cx="1697.78" cy="789.65" r="23.09" style="fill:#071841"/><path d="M1612.37,796.84a14.83,14.83,0,1,1-13.72-9.2h.74v-3.76h-.74a18.57,18.57,0,1,0,17.16,11.45Z" transform="translate(-15.63 -12.84)" style="fill:#ffd131"/><path d="M1663.71,815a14.83,14.83,0,1,1-7.9-27.38h.75V783.9h-.75a18.59,18.59,0,1,0,9.76,34.4Z" transform="translate(-15.63 -12.84)" style="fill:#ffd131"/><path d="M1725.79,810.84a14.83,14.83,0,1,1-12.27-23.17h.75v-3.76h-.75A18.59,18.59,0,1,0,1728.83,813Z" transform="translate(-15.63 -12.84)" style="fill:#ffd131"/><g style="opacity:0.6399999856948853"><path d="M1617.46,834.61h-37.63a4.28,4.28,0,0,0,0,8.55h37.63a4.28,4.28,0,1,0,.41-8.55Z" transform="translate(-15.63 -12.84)" style="fill:#66c2ab"/><path d="M1674.84,834.61h-37.62a4.28,4.28,0,1,0-.41,8.55h38a4.28,4.28,0,1,0,.41-8.55Z" transform="translate(-15.63 -12.84)" style="fill:#66c2ab"/><path d="M1694.6,843.16h37.62a4.28,4.28,0,1,0,.41-8.55h-38a4.28,4.28,0,1,0-.41,8.55Z" transform="translate(-15.63 -12.84)" style="fill:#66c2ab"/><rect x="1559.93" y="835.07" width="46.18" height="33.73" rx="4.28" style="fill:#66c2ab"/><rect x="1617.31" y="835.07" width="46.18" height="33.73" rx="4.28" style="fill:#66c2ab"/><rect x="1674.69" y="835.07" width="46.18" height="33.73" rx="4.28" style="fill:#66c2ab"/></g><path d="M1309.46,1401.84s-2.14,12.11-3.19,24.09a8.25,8.25,0,0,0,7.46,9l.44,0c16,.67,50.11,2,62.36,1.41a2.69,2.69,0,0,0,2.55-2.82,2.89,2.89,0,0,0-.19-.86h0a6.06,6.06,0,0,0-3.08-3.24l-56.39-25.92Z" transform="translate(-15.63 -12.84)" style="fill:#071841"/><path d="M1307.71,1394.74l1.71,14.48s9.88,4.6,16.63-.58L1322,1392.5Z" transform="translate(-15.63 -12.84)" style="fill:url(#b495224e-61a0-49a6-a111-cca43954da93)"/><path d="M1309,1122.45c-.74,3.78-4,188.74,15.78,271.62a2.8,2.8,0,0,1-1.65,3.28,48.79,48.79,0,0,1-16.1,3.27,4.84,4.84,0,0,1-4.8-3.48c-5.66-19.23-32.74-115.58-36.27-207.62-4-102.85,0-3.51,0-3.51l2.32-63.57Z" transform="translate(-15.63 -12.84)" style="fill:#071841"/><path d="M1244.58,1408.17s-3.4,6.11-6.7,22.35a5.06,5.06,0,0,0,4,5.94,3.4,3.4,0,0,0,.46.06c5.27.51,13.38,1.18,19.88,1.14a5,5,0,0,0,5-5,4.82,4.82,0,0,0,0-.65c-.72-5.93-3-15.65-9.89-23.24Z" transform="translate(-15.63 -12.84)" style="fill:#071841"/><path d="M1241.59,1389.54l4,21.9s4,3,11.82.81l-1.91-23.56Z" transform="translate(-15.63 -12.84)" style="fill:url(#b83ae77f-8274-45c9-8f7e-7a2a75458f69)"/><path d="M1230.71,1128.12c-16.17,97.59,3.5,241.19,10.14,269.3a4.37,4.37,0,0,0,3.54,3.33,29.36,29.36,0,0,0,12.65-.51,4,4,0,0,0,2.88-3.7c.89-22.72-.71-162.22,14.36-217.35a12.53,12.53,0,0,1,4.83-6.91l29.24-20.79,2.24-33.6Z" transform="translate(-15.63 -12.84)" style="fill:#071841"/><path d="M1333.78,943.22c-48.46-.8-101.93,12.72-101.93,12.72-14.44,84.28-2.52,181.5-2.52,181.5,37.51,9.83,79.83-6,79.83-6,6.24-35.23,35.33-134.37,35.33-134.37,23.67-2.94,43.18-9.77,59.24-18.8-12.25-14.2-18-32.27-20.54-43C1366.06,940.62,1348.71,943.47,1333.78,943.22Z" transform="translate(-15.63 -12.84)" style="fill:#4aa4c2"/><path d="M1476.91,871.84a9.28,9.28,0,0,0-10.78-3c-7.13,30.13-44.52,54.55-82.94,66.49,2.51,10.68,8.29,28.75,20.54,43C1467.48,942.41,1476.91,871.84,1476.91,871.84Z" transform="translate(-15.63 -12.84)" style="fill:#fca372"/><path d="M1475.76,873.31c.5,1.58-5.27,4-8.67-2.49-.12-3.1-2-16.4-.15-18.93,9.88-13.46,29-30.34,29-30.34a4.55,4.55,0,0,1,.57,6.33l-9.29,9.68c1.94,3.51,4.31,6.47,5.42,10.72a13,13,0,0,1-1.29,9.58,107.07,107.07,0,0,1-6,9.75A12.86,12.86,0,0,1,1475.76,873.31Z" transform="translate(-15.63 -12.84)" style="fill:#fca372"/><path d="M1483.19,843.84l-8.47,7.18-2.66,7.15,7.55,8.37s2.54-14.18,4.42-17.25S1484.94,844.73,1483.19,843.84Z" transform="translate(-15.63 -12.84)" style="fill:#fca372"/><path d="M1250.44,1002.84l-18.59-46.92s-45.26,30.76-52.7,69.75c8.55.63,24.11,2.85,39.35,10.54C1221.84,1017.84,1250.44,1002.84,1250.44,1002.84Z" transform="translate(-15.63 -12.84)" style="fill:#4aa4c2"/><path d="M1290,1047s-50.81,28.72-68,4.2a19.27,19.27,0,0,1-3.53-15c-15.24-7.69-30.8-9.91-39.35-10.54a53.74,53.74,0,0,0,5.85,36.89c30,54.94,111.72-3,111.72-3Z" transform="translate(-15.63 -12.84)" style="fill:#fca372"/><path d="M1283.89,1083.35l27.73-96.86a2.83,2.83,0,0,1,2.39-2c5-.59,19.59-2.23,36.4-3.65,20.25-1.72,43.77-3.11,57.82-1.92a2.83,2.83,0,0,1,2.6,3,2.88,2.88,0,0,1-.29,1c-8,16.17-40.86,81.93-57.32,103.48a2.81,2.81,0,0,1-2.28,1.12l-64.35-.6a2.82,2.82,0,0,1-2.82-2.84A2.72,2.72,0,0,1,1283.89,1083.35Z" transform="translate(-15.63 -12.84)" style="fill:#071841"/><path d="M1353.29,972.41l20.1-3.35a1.45,1.45,0,0,1,1.66,1.18,1.47,1.47,0,0,1,0,.69l-2,6a1.42,1.42,0,0,1-1.18,1l-19.35,2.59a1.44,1.44,0,0,1-1.62-1.23,1.58,1.58,0,0,1,0-.53l1.23-5.27A1.45,1.45,0,0,1,1353.29,972.41Z" transform="translate(-15.63 -12.84)" style="fill:#73d0d9"/><path d="M1338.23,989.43l1.66-8.63a2,2,0,0,1,1.75-1.61l40.62-4.12a2,2,0,0,1,2.18,1.8,2,2,0,0,1,0,.65l-2.58,10.76a2,2,0,0,1-1.84,1.52l-39.69,2a2,2,0,0,1-2.09-1.9A1.89,1.89,0,0,1,1338.23,989.43Z" transform="translate(-15.63 -12.84)" style="fill:#73d0d9"/><path d="M1290.59,1060s-3.86-15.89-2.31-21.52,4.58-12.89,14.65-11.28a148.31,148.31,0,0,1,21.93,5.85s-.6,7.34-8.25,5l4.75,3.67s-.68,5.87-7.14,2.73l4.41,4.87s-2.77,4.83-7.53,1.73S1304.07,1061.84,1290.59,1060Z" transform="translate(-15.63 -12.84)" style="fill:#fca372"/><path d="M1284.71,903.84l-15.42,44.59a1.59,1.59,0,0,0,.73,1.93c4.2,2.33,19.34,9,37.59-2.53a7.55,7.55,0,0,0,3.49-5.4l5-38.59Z" transform="translate(-15.63 -12.84)" style="fill:#fca372"/><path d="M1318.24,862.59s16.94,31.87,14.76,44.74-23.15,12-41.47,1.5l-12.82-34.42Z" transform="translate(-15.63 -12.84)" style="fill:#fca372"/><path d="M1292.34,891.93a1.31,1.31,0,0,0,.67-1.74,1.74,1.74,0,0,0-.1-.19c-1.36-2.07-3.9-6.3-4.71-10,0,0-3-2,7.75-4.53s26.88-6.59,30.26-15.78c3.3-9-5.37-31.47-19.19-13.53a1.31,1.31,0,0,1-1.84.25,1.14,1.14,0,0,1-.24-.25c-2.27-3-8.22-9.07-16.49-5.36-7.75,3.47-8.62,9.14-8.51,12a1.31,1.31,0,0,1-1.26,1.37,1.43,1.43,0,0,1-.29,0c-3.91-.75-13.3-1.39-17.69,8.25-3.61,7.93-1.26,12.42.88,14.62a1.32,1.32,0,0,1,0,1.86,1.39,1.39,0,0,1-.54.31c-2.58.79-5.9,3-5.56,9,.46,8.33,9.77,7.59,12.42,7.21a1.36,1.36,0,0,1,1.17.42c2.27,2.51,12.52,13.2,23.6,14.49a1.33,1.33,0,0,0,1.46-1.18,1.43,1.43,0,0,0-.07-.58l-4.8-13.94A1.33,1.33,0,0,1,1290,893Z" transform="translate(-15.63 -12.84)" style="fill:#061e43"/><path d="M1294.27,893.91s-12.06-8.27-12.94-1.31,10.86,10.09,16.67,7.49Z" transform="translate(-15.63 -12.84)" style="fill:#fca372"/><path d="M862.78,778.84a1.33,1.33,0,0,0-.51,1.81,1.13,1.13,0,0,0,.27.34l69.06,61.5a49.75,49.75,0,0,1,16.18,37.06l-1.63,517.17a2.64,2.64,0,0,0,2.59,2.71h132.55a3,3,0,0,0,2.93-3.07.61.61,0,0,1,0-.14L1057.1,897.63a44.65,44.65,0,0,1,19.75-39.81l54.85-38.3a1.15,1.15,0,0,0,.32-1.6,1.18,1.18,0,0,0-1.07-.52l-100.24,12A48.61,48.61,0,0,1,993,819.28l-93.19-74.2a3,3,0,0,0-4.22.43,2.92,2.92,0,0,0-.37.57C887.71,760.58,876.71,771.2,862.78,778.84Z" transform="translate(-15.63 -12.84)" style="fill:#071841"/><path d="M1628.86,1461.12a6.67,6.67,0,0,0,6.5-5.72l102.73-631.65a6.84,6.84,0,0,0-5.38-7.91,6.63,6.63,0,0,0-7.59,5.51.36.36,0,0,0,0,.1L1622.38,1453.1a6.82,6.82,0,0,0,5.41,7.9A6.37,6.37,0,0,0,1628.86,1461.12Z" transform="translate(-15.63 -12.84)" style="fill:#070b3b"/><path d="M1975.42,1461.12a5.78,5.78,0,0,0,1.31-.14,6.85,6.85,0,0,0,5.17-8.07L1860.8,829.48a6.6,6.6,0,0,0-7.62-5.38l-.16,0a6.86,6.86,0,0,0-5.17,8.07L1969,1455.62A6.67,6.67,0,0,0,1975.42,1461.12Z" transform="translate(-15.63 -12.84)" style="fill:#070b3b"/><path d="M1707.24,979.84h175.55a6.85,6.85,0,0,0,0-13.7H1707.24a6.85,6.85,0,0,0,0,13.7Z" transform="translate(-15.63 -12.84)" style="fill:#071841"/><path d="M1710.42,979.84H1879.6a6.87,6.87,0,0,0,0-13.7H1710.42a6.87,6.87,0,0,0,0,13.7Z" transform="translate(-15.63 -12.84)" style="fill:#070b3b"/><path d="M1707.24,1094.06h175.55a6.85,6.85,0,0,0,0-13.7H1707.24a6.85,6.85,0,0,0,0,13.7Z" transform="translate(-15.63 -12.84)" style="fill:#7d97f4"/><path d="M1691.3,1094.06h212.83a6.85,6.85,0,0,0,0-13.7H1691.3a6.85,6.85,0,0,0,0,13.7Z" transform="translate(-15.63 -12.84)" style="fill:#070b3b"/><path d="M1707.24,1208.27h175.55a6.85,6.85,0,0,0,0-13.7H1707.24a6.85,6.85,0,0,0,0,13.7Z" transform="translate(-15.63 -12.84)" style="fill:#7d97f4"/><path d="M1671,1208.27h254.74a6.85,6.85,0,0,0,0-13.7H1671a6.85,6.85,0,0,0,0,13.7Z" transform="translate(-15.63 -12.84)" style="fill:#070b3b"/><path d="M1707.24,1322.49h239a6.86,6.86,0,0,0,0-13.71h-239a6.86,6.86,0,0,0,0,13.71Z" transform="translate(-15.63 -12.84)" style="fill:#7d97f4"/><path d="M1654.53,1322.49H1946.2a6.86,6.86,0,0,0,0-13.71H1654.53a6.86,6.86,0,0,0,0,13.71Z" transform="translate(-15.63 -12.84)" style="fill:#070b3b"/><path d="M1733.87,462.38s11.47,5.58,13.58,12c1.69,5.14,14.37,5.81,15.63,15.92a11.59,11.59,0,0,0,9.71,10.2c13,2,32.91,8.71,36.11,31.2,2.43,17.17-6.32,23.68-15.5,25.93a13,13,0,0,0-9.86,15c1.31,6.54-.65,14.09-12,20.06-25.36,13.38-50.69-31.7-50.69-31.7l-5.14-78.7Z" transform="translate(-15.63 -12.84)" style="fill:#061e43"/><path d="M1614.5,420.84s32.63,89,88.23,116.75c0,0-18.5,30.2-28.16,32,0,0-59.4-76-65.45-138.3Z" transform="translate(-15.63 -12.84)" style="fill:#fca372"/><path d="M1838.1,955.94l1.64,13.49a5.59,5.59,0,0,0,4.89,4.88,85.86,85.86,0,0,0,18.06.28,4.79,4.79,0,0,0,4-6.19c-1.65-5.21-4.68-13-9-17.62h-15a4.61,4.61,0,0,0-4.62,4.6A5.12,5.12,0,0,0,1838.1,955.94Z" transform="translate(-15.63 -12.84)" style="fill:#071841"/><path d="M1720.89,797.92l-2.52,14.85s8.46,85.68,10,120a26.8,26.8,0,0,1-4,15.26l-14.72,23.81L1747,949.78l.74-4.56-6.12-8.42,8-96a29.48,29.48,0,0,0-3.35-16.29L1738.57,810Z" transform="translate(-15.63 -12.84)" style="fill:#fca372"/><path d="M1707.19,975.33h11.93a7.16,7.16,0,0,0,5.7-2.8c3.72-4.83,11.42-14.26,15.1-14.5,5-.34,4.33,17.3,4.33,17.3H1747l3.52-21.91a13,13,0,0,0-6.84-13.58h0s-1.14,8.39-7.29,12.09-25,17-25,17a17.51,17.51,0,0,0-4.85.13,3.16,3.16,0,0,0,.62,6.27Z" transform="translate(-15.63 -12.84)" style="fill:#071841"/><path d="M1772.09,805s49.55,94,57.43,115.46,10.64,39.36,10.74,41.06c.17,2.65,3.46,5.19,12.55,5.19,4.68,0,7-1.88,8.1-3.7a5.29,5.29,0,0,0,.2-5.13c-2.86-5.8-12-24.34-15.33-32.75-4-10-12.67-55.53-17.42-71.35s-10.11-33-30.77-48.78C1797.59,805,1783.4,791.08,1772.09,805Z" transform="translate(-15.63 -12.84)" style="fill:#fca372"/><path d="M1740.79,651c-12.78-54.17,19.6-84.8,19.6-84.8-20.43-19.61-57.66-28.54-57.66-28.54s-35.52,26-31.31,46.3c2.47,11.91,25,71.36,25,71.36S1717.2,665.13,1740.79,651Z" transform="translate(-15.63 -12.84)" style="fill:#070b3b"/><path d="M1769.13,677.77c-5.2-15.67-28.34-26.81-28.34-26.81-23.59,14.17-44.4,4.32-44.4,4.32s-4.66,17.84-1.44,34.41,23.42,123.08,23.42,123.08c31.83,6.45,80.79-6.49,80.79-6.49C1778.89,770.28,1774.33,693.44,1769.13,677.77Z" transform="translate(-15.63 -12.84)" style="fill:#506c75"/><path d="M1726,501.84l10.4,46.68c1,4.11-2.76,3.44-6.92,2.66-6.8-1.29-15.58-3.93-18.51-9.23a4.67,4.67,0,0,1-.53-1.76l-4.47-32.35a5.84,5.84,0,0,1,3.41-6.11l8.61-3.82a5.82,5.82,0,0,1,7.67,2.95A5.68,5.68,0,0,1,1726,501.84Z" transform="translate(-15.63 -12.84)" style="fill:#fca372"/><path d="M1713.76,457.39s-12.31,5.19-20.68,23-2.12,26,5.73,27.12,19.59,1,32-10.53S1729.76,451.23,1713.76,457.39Z" transform="translate(-15.63 -12.84)" style="fill:#fca372"/><path d="M1722.47,487.46s9.29-26-13.78-26.32l-5.43,3.79s-8.46-14.43,5.43-21.31,30.15-1.2,36.07,17.52,6.92,31.24-2.92,40.2-13.89-1.2-13.89-1.2,5.36-8.38,3.18-12.86-7.21.93-7.21.93Z" transform="translate(-15.63 -12.84)" style="fill:#061e43"/><path d="M1725.06,490.36s4.7-13.4,11-8.06-5.09,12.38-9.54,14.66Z" transform="translate(-15.63 -12.84)" style="fill:#fca372"/><path d="M1611.37,437.06c-.5,1.58,5.27,4,8.66-2.48.12-3.1,2-16.39.15-18.92-9.87-13.46-20.29-14.33-20.29-14.33-2,3.51-4.32,6.47-5.43,10.72a13,13,0,0,0,1.3,9.57,111.78,111.78,0,0,0,6,9.75A12.83,12.83,0,0,0,1611.37,437.06Z" transform="translate(-15.63 -12.84)" style="fill:#fca372"/><path d="M1766.13,580.58s-95.06,116.07-166.07-16.09a16.31,16.31,0,0,1-.52-8.26c.43-2.46-1.19-11.2-2.09-15.66a2.46,2.46,0,0,1,1.93-2.89l.26,0h0a3.38,3.38,0,0,1,3,1.27l13,16.52a6.92,6.92,0,0,1-3.67,8.22h0a3.41,3.41,0,0,0-1.65,4.54,3,3,0,0,0,.38.62c54,70.8,144.35-6.89,146-6C1762.51,566.07,1769.28,569.65,1766.13,580.58Z" transform="translate(-15.63 -12.84)" style="fill:#fca372"/></g></svg>