<svg id="a4bcd8ea-8318-4f22-8b3f-f849ce45a34b" data-name="Layer 1" xmlns="http://www.w3.org/2000/svg" xmlns:xlink="http://www.w3.org/1999/xlink" viewBox="0 0 2150.02 1448.28"><defs><linearGradient id="f2b2a49f-c692-4e7a-88c1-d74371db18f5" x1="6188.63" y1="354.35" x2="6177.09" y2="253.66" gradientTransform="matrix(1, 0, 0, -1, -6108.89, 1658.54)" gradientUnits="userSpaceOnUse"><stop offset="0" stop-color="#ff928e"/><stop offset="1" stop-color="#feb3b1"/></linearGradient><linearGradient id="aa15e61c-55d7-49a4-9312-36ff5d4fb620" x1="7164.19" y1="234.28" x2="7155.8" y2="161.1" gradientTransform="matrix(0.96, 0.27, 0.27, -0.96, -6697.45, -491.3)" xlink:href="#f2b2a49f-c692-4e7a-88c1-d74371db18f5"/><linearGradient id="bd40f4b8-4053-423b-9b9a-7bb517de59b8" x1="2829.86" y1="269.58" x2="2848.2" y2="269.58" gradientTransform="matrix(1, 0, 0, -1, -1537.78, 1658.54)" xlink:href="#f2b2a49f-c692-4e7a-88c1-d74371db18f5"/><linearGradient id="b6856e48-92fa-4241-9667-55cae2aee987" x1="2763.74" y1="270.51" x2="2779.58" y2="270.51" gradientTransform="matrix(1, 0, 0, -1, -1537.78, 1658.54)" xlink:href="#f2b2a49f-c692-4e7a-88c1-d74371db18f5"/></defs><g id="a81d5e12-f16a-4be4-b47c-12ec37ae7ae8" data-name="a79c63f7-4224-4b7a-ac2c-afc906e97deb"><path d="M2100.38,309.16c-54.21-107.36-173.24-188.09-289.1-163.32-69.37,14.83-138.32,64.58-204.84,39.61-47.94-18-75-69.06-115.3-101.1-62-49.3-150.08-48.73-225.67-26.64-46.8,13.68-91.35,25.84-141,24.81-52.92-1.1-104.65-16.08-154.66-32.23-75.74-24.44-154.65-52-233.08-38.55a230.87,230.87,0,0,0-78.52,29c-23.94,14.23-47,33.42-74.8,35.06-25.8,1.52-49.54-12.51-73.31-22.67-51.51-22-154.31-39.09-203,.08-9.63,7.75-18.92,22.67-28.36,32.34a140.44,140.44,0,0,0-25.16,35.17c-12.67,25.39-17.14,55-8.2,82.34,3.71,11.36,9.53,22.54,8.77,34.48-1.22,19.15-19.35,33.18-37.69,37.44s-37.46,1.48-56.26,2C75.81,279.17.4,357.7,0,443.81-.33,515.22,42.84,578,79.75,638.65s70.08,133.48,48.09,201.28c-13,40.2-43.62,71.65-63.66,108.74-51.94,96.14-24.18,223.42,48.36,304.51S293.71,1374,400.92,1383.4s214.73-8.29,321-25.82,213.84-35,321-24.92c0,0,422.57,62.24,636.44,34,147-19.45,265.73-132.83,338.22-256,36.75-62.44,64.54-131.44,77.3-202.94,14.56-81.62,39.45-160.82,48.45-244.16C2156.26,543.44,2154.59,416.51,2100.38,309.16Z" style="fill:#b5e3df;opacity:0.5;isolation:isolate"/><path d="M2022.8,392.88c0-9.07-12.14-12.17-16.41-4.17-41.28,77.4-155.88,277-284.69,367.89-209.74,148.06-388.35,424.12-314.35,603.71C1407.35,1360.31,2018.68,1381.41,2022.8,392.88Z" style="fill:#2d6375"/><path d="M1980.08,506.88c-.79,2.53-1.69,4.69-2.54,7l-2.66,6.77-5.48,13.48c-3.7,9-7.5,17.88-11.32,26.79q-11.55,26.7-23.69,53.13c-16.21,35.23-33.33,70-51,104.56s-36.16,68.64-55.38,102.33l-7.19,12.65-7.35,12.55c-4.94,8.35-9.72,16.79-14.8,25L1783.61,896l-15.44,24.66c-41.51,65.56-86.47,129-135.77,189-3,3.79-6.18,7.48-9.35,11.15l-9.48,11-9.48,11c-3.21,3.64-6.51,7.2-9.76,10.8-6.56,7.16-13,14.46-19.65,21.48l-20.22,21a1029,1029,0,0,1-86.54,77.79,1,1,0,0,1-1.24-1.52h0a1101.79,1101.79,0,0,0,84.87-79.11l19.92-21.09c6.6-7.06,12.9-14.41,19.36-21.6,3.2-3.63,6.46-7.21,9.61-10.87l9.33-11.11,9.34-11.1c3.12-3.69,6.22-7.4,9.2-11.21l18.14-22.65c6-7.59,11.78-15.34,17.69-23,2.92-3.85,5.9-7.66,8.78-11.55l8.57-11.71,8.56-11.71c2.87-3.9,5.71-7.81,8.46-11.79,22.49-31.5,43.72-63.86,64.64-96.43,41.57-65.3,79.79-132.71,115.85-201.23q27-51.45,51.93-103.91,12.51-26.21,24.49-52.67,5.94-13.26,11.73-26.57l5.68-13.37,2.77-6.7c.87-2.23,1.83-4.54,2.54-6.63l.07-.2a1,1,0,0,1,1.37-.36,1,1,0,0,1,.49,1Z" style="fill:#fff;opacity:0.4300000071525574;isolation:isolate"/><path d="M406.57,709a5.32,5.32,0,0,1,6-4.53,5.25,5.25,0,0,1,2.56,1.1c49.42,39,327.75,277.62,150.73,579C565.87,1284.55,342.2,1174.61,406.57,709Z" style="fill:#73d0d9"/><path d="M430.42,766.2a.92.92,0,0,1,1.25.36c9.68,17.64,19,35.46,28.14,53.37s18.09,35.92,26.82,54c17.45,36.23,34.11,72.86,49.62,110s29.9,74.74,42.23,113.08q9.36,28.71,16.56,58.11a509,509,0,0,1,11.17,59.48,2.18,2.18,0,0,1-4.33.52h0a500.3,500.3,0,0,0-10.78-59q-7-29.23-16.17-57.93c-12.1-38.27-26.29-75.88-41.55-113s-31.74-73.82-49-110.11Q471.45,847.85,457.87,821T430,767.5h0a.91.91,0,0,1,.3-1.25Z" style="fill:#fff;opacity:0.8600000143051147;isolation:isolate"/><path d="M950.4,808.46a5.4,5.4,0,0,0-8.44-3.92c-52.27,35.51-347.85,254.34-188.1,563C753.86,1367.55,986.3,1272.57,950.4,808.46Z" style="fill:#4a878c"/><path d="M921.55,863.88c-10.86,16.85-21.35,33.89-31.7,51s-20.47,34.4-30.4,51.77-19.65,34.86-29.15,52.46-18.73,35.35-27.72,53.21c-17.93,35.75-34.8,72-49.62,109.18q-11.21,27.81-20.31,56.41a494.48,494.48,0,0,0-15,58.08,2,2,0,0,0,1.62,2.32h0a2,2,0,0,0,2.36-1.56v0h0A491.93,491.93,0,0,1,736.26,1239q8.88-28.47,19.94-56.27c14.59-37.08,31.26-73.38,49-109.16q13.34-26.82,27.42-53.27t28.87-52.55q14.76-26.1,30.12-51.87c10.25-17.17,20.66-34.26,31.42-51.12h0a.84.84,0,0,0-.26-1.16h0A.88.88,0,0,0,921.55,863.88Z" style="fill:#fff;opacity:0.8600000143051147;isolation:isolate"/><path d="M1708.08,1392.39s-3.48-89.16,79.88-165.17c77.35-70.52,268.19-231.72,308.43-331.7,1.79-4.43,8.84-1.88,9.2,3.34,3.89,56,2.79,194.46-84,318.09C1909.6,1376.37,1708.08,1392.39,1708.08,1392.39Z" style="fill:#73d0d9"/><path d="M2070.3,990.26A173.23,173.23,0,0,1,2065,1023a283.63,283.63,0,0,1-9.85,31.75,317,317,0,0,1-30.24,59.27c-23.66,37.75-55.8,69.65-89.57,98-8.41,7.16-16.93,14.19-25.45,21.22s-17.19,13.86-25.92,20.62-17.46,13.51-26.22,20.22l-26.55,19.74c-17.71,13.11-35.42,26.19-52.57,39.89-8.63,6.78-16.88,14-24.82,21.5-3.77,3.94-7.76,7.71-11.18,12-3.73,4-6.78,8.53-10,12.94v.06a1,1,0,0,1-1.46.27,1.06,1.06,0,0,1-.29-1.43,156.81,156.81,0,0,1,20.35-26.38q11.61-12,24.25-22.76c16.8-14.44,34.38-27.79,51.74-41.36l26.06-20.31c8.66-6.79,17.36-13.53,25.93-20.42q25.8-20.58,51-41.9c8.27-7.21,16.83-14.21,24.72-21.72l12-11.1c3.87-3.84,7.58-7.85,11.39-11.76l5.67-5.91c2-1.91,3.57-4.12,5.39-6.15l10.67-12.42c3.42-4.25,6.64-8.67,10-13,1.62-2.19,3.35-4.31,4.9-6.55l4.57-6.8a338.3,338.3,0,0,0,31.82-57.23c2-5.1,4.28-10.09,6.13-15.24s3.78-10.3,5.28-15.57c1.69-5.23,3-10.56,4.31-15.89a153.38,153.38,0,0,0,3-16.2.13.13,0,0,1,.13-.13h0A.11.11,0,0,1,2070.3,990.26Z" style="fill:#fff;opacity:0.44999998807907104;isolation:isolate"/><path d="M57.08,674.78a6.19,6.19,0,0,1,11.73-2.57c27.45,55.83,104,200,193.24,267.46C407.29,1049.55,527.47,1249.44,470.81,1375,470.81,1375,36.9,1375.71,57.08,674.78Z" style="fill:#2d6375"/><path d="M86.56,756.27c.45,1.37,1.1,3.08,1.68,4.65l1.84,4.8,3.81,9.56,7.79,19.06q7.95,19,16.32,37.82,16.63,37.68,34.63,74.72c24.16,49.29,49.6,98,77.62,145.14,14.1,23.52,28.31,47,43.48,69.82s30.88,45.32,47.45,67.15c33,43.77,69.26,85.12,109.93,122a1.22,1.22,0,1,1-1.59,1.86h0a708,708,0,0,1-60-56.84c-18.84-20.14-36.48-41.36-53.55-63a1315.63,1315.63,0,0,1-92.09-137.21c-14-23.74-27.2-47.92-40-72.27s-25.15-49-36.75-74-22.9-50.07-33.46-75.49Q105.73,815,98.24,795.73c-2.46-6.43-4.93-12.85-7.3-19.31l-3.48-9.73-1.69-4.88c-.53-1.68-1.1-3.19-1.61-5.12a1.22,1.22,0,0,1,2.33-.69Z" style="fill:#fff;opacity:0.4300000071525574;isolation:isolate"/><path d="M1424.79,1238.47H1793.7a40.42,40.42,0,0,1,40.42,40.42h0v115.85H1384.36V1278.89a40.42,40.42,0,0,1,40.42-40.42Z" style="fill:#4aa4c2"/><path d="M1371.37,1238.47h368.91a40.42,40.42,0,0,1,40.42,40.42h0v115.85H1330.94V1278.89a40.42,40.42,0,0,1,40.42-40.42Z" style="fill:#5ecff5"/><path d="M1232.79,643.67,1227,660a75.76,75.76,0,0,0-22.69,9.16l-15.51-7.71a1.41,1.41,0,0,0-1.63.26l-14.83,14.58a1.44,1.44,0,0,0-.29,1.63l7.46,15.64a75.47,75.47,0,0,0-9.54,22.53l-16.44,5.51a1.43,1.43,0,0,0-1,1.34l-.17,20.79a1.42,1.42,0,0,0,1,1.36l16.34,5.79a75.36,75.36,0,0,0,9.17,22.68l-7.72,15.51a1.43,1.43,0,0,0,.26,1.64L1186,805.53a1.42,1.42,0,0,0,1.63.29l15.64-7.46a75.47,75.47,0,0,0,22.53,9.54l5.51,16.44a1.44,1.44,0,0,0,1.34,1l20.8.17a1.4,1.4,0,0,0,1.35-.94l5.79-16.35a75.36,75.36,0,0,0,22.68-9.17l15.52,7.72a1.41,1.41,0,0,0,1.63-.26l14.83-14.58a1.43,1.43,0,0,0,.28-1.63l-7.45-15.65a75.24,75.24,0,0,0,9.55-22.53l16.43-5.51a1.42,1.42,0,0,0,1-1.34l.18-20.8a1.43,1.43,0,0,0-1-1.35L1318,717.33a75.36,75.36,0,0,0-9.17-22.68l7.72-15.52a1.41,1.41,0,0,0-.26-1.63l-14.59-14.82a1.4,1.4,0,0,0-1.62-.29l-15.64,7.46a75.75,75.75,0,0,0-22.53-9.55l-5.52-16.43a1.4,1.4,0,0,0-1.34-1l-20.79-.18A1.46,1.46,0,0,0,1232.79,643.67Z" style="fill:#071841"/><path d="M1235.62,716a19.84,19.84,0,1,1-8.82,7.78h0A19.81,19.81,0,0,1,1235.62,716Zm15.19,33.66a17,17,0,1,0-21.59-24.41h0a17.07,17.07,0,0,0,21.59,24.41ZM1228,724.52Z" style="fill:#fff"/><g style="opacity:0.6399999856948853"><path d="M1263.62,621.43a3.48,3.48,0,0,1,2.11-.25c1.91.37,3.83.79,5.7,1.26a3.53,3.53,0,0,1-1.7,6.86h0c-1.76-.43-3.56-.83-5.34-1.18a3.53,3.53,0,0,1-.77-6.69Z" style="fill:#2d6375"/><path d="M1287,628.74a3.5,3.5,0,0,1,2.87,0,115.46,115.46,0,0,1,10.72,5.39,3.54,3.54,0,1,1-3.3,6.26l-.2-.11a107,107,0,0,0-10-5.08,3.54,3.54,0,0,1,0-6.46Zm26,15.89a3.53,3.53,0,0,1,3.69.49,117.18,117.18,0,0,1,8.89,8.07,3.54,3.54,0,0,1-5,5,104.71,104.71,0,0,0-8.33-7.57,3.53,3.53,0,0,1-.51-5v0a3.53,3.53,0,0,1,1.22-1ZM1333.7,667a3.53,3.53,0,0,1,4.34,1.2,112.67,112.67,0,0,1,6.36,10.19,3.54,3.54,0,0,1-6.19,3.42,106.34,106.34,0,0,0-6-9.56,3.53,3.53,0,0,1,.87-4.92h0A4.12,4.12,0,0,1,1333.7,667Zm13.86,27.11.29-.11a3.53,3.53,0,0,1,4.5,2.17h0a110,110,0,0,1,3.36,11.52,3.53,3.53,0,0,1-6.88,1.62h0a107.66,107.66,0,0,0-3.15-10.81,3.55,3.55,0,0,1,1.88-4.44Zm6,29.84a3.7,3.7,0,0,1,1.22-.3,3.54,3.54,0,0,1,3.76,3.3,111.7,111.7,0,0,1,.13,12,3.53,3.53,0,1,1-7.06-.29,108.46,108.46,0,0,0-.13-11.26,3.53,3.53,0,0,1,2.13-3.5Zm-2.23,30.36a3.48,3.48,0,0,1,2.18-.23,3.54,3.54,0,0,1,2.72,4.2,115.7,115.7,0,0,1-3.13,11.58,3.54,3.54,0,0,1-6.72-2.2,105,105,0,0,0,2.93-10.87,3.52,3.52,0,0,1,2.07-2.53Zm-10.42,28.6a3.54,3.54,0,0,1,4.58,4.88c-1.09,2.06-2.26,4.13-3.48,6.14-.86,1.4-1.75,2.8-2.66,4.16a3.53,3.53,0,1,1-5.88-3.92c.85-1.28,1.69-2.6,2.49-3.91,1.15-1.9,2.26-3.84,3.28-5.77a3.58,3.58,0,0,1,1.72-1.63Zm-17.72,24.76a3.54,3.54,0,0,1,4,5.66,117.22,117.22,0,0,1-8.7,8.27,3.54,3.54,0,0,1-4.87-5.14l.27-.23a110.8,110.8,0,0,0,8.16-7.76,3.71,3.71,0,0,1,1.19-.85Z" style="fill:#2d6375"/><path d="M1299.42,826.67a3.54,3.54,0,0,1,3.25,6.27c-1.65,1-3.36,1.94-5.08,2.85a3.54,3.54,0,1,1-3.6-6.1l.29-.15c1.62-.85,3.23-1.76,4.78-2.68Z" style="fill:#2d6375"/></g><g style="opacity:0.6399999856948853"><path d="M1206.5,836.47a3.52,3.52,0,0,1,2.59-.12c1.71.59,3.46,1.14,5.22,1.64a3.53,3.53,0,1,1-1.93,6.8h0c-1.88-.54-3.75-1.12-5.57-1.74a3.54,3.54,0,0,1-.31-6.58Z" style="fill:#2d6375"/><path d="M1174.08,642.68a3.54,3.54,0,0,1,3.6,6,108.73,108.73,0,0,0-8.4,7.22,3.54,3.54,0,0,1-4.88-5.12,115.66,115.66,0,0,1,9-7.7A4.66,4.66,0,0,1,1174.08,642.68Zm-21,21.37a3.53,3.53,0,0,1,4.28,5.34c-2.06,2.76-4,5.67-5.83,8.63l-.35.57a3.53,3.53,0,1,1-6.06-3.63l.37-.61c1.92-3.16,4-6.25,6.21-9.19A3.56,3.56,0,0,1,1153.08,664.05Zm-14.59,26.17a3.53,3.53,0,0,1,4.74,4.52,107.55,107.55,0,0,0-3.51,10.49,3.53,3.53,0,1,1-6.81-1.89c1.06-3.79,2.31-7.53,3.74-11.19a3.5,3.5,0,0,1,1.87-1.93Zm-7.08,29.09a3.42,3.42,0,0,1,1.81-.29,3.54,3.54,0,0,1,3.15,3.88,107.51,107.51,0,0,0-.57,11.06,3.54,3.54,0,0,1-7.07,0,113.26,113.26,0,0,1,.61-11.79,3.55,3.55,0,0,1,2.1-2.86Zm.94,29.94a4.51,4.51,0,0,1,.86-.27,3.53,3.53,0,0,1,4.07,2.89v0a107.58,107.58,0,0,0,2.39,10.82,3.54,3.54,0,0,1-6.82,1.87,116,116,0,0,1-2.54-11.52,3.54,3.54,0,0,1,2.07-3.81Zm8.85,28.62a3.53,3.53,0,0,1,4.65,1.74c1.55,3.33,3.29,6.63,5.17,9.8A3.53,3.53,0,0,1,1145,793a116.72,116.72,0,0,1-5.51-10.44,3.56,3.56,0,0,1,1.72-4.7Zm16.14,25.23a3.53,3.53,0,0,1,4.14.94,107.38,107.38,0,0,0,7.61,8.06,3.54,3.54,0,0,1-4.89,5.11,113.31,113.31,0,0,1-8.1-8.59,3.54,3.54,0,0,1,.39-5h0a3.35,3.35,0,0,1,.87-.52Zm22.31,20a3.52,3.52,0,0,1,3.44.3c1.49,1,3,2,4.58,2.94s3.24,1.92,4.9,2.81a3.53,3.53,0,1,1-3.36,6.22c-1.76-1-3.52-2-5.22-3s-3.29-2.06-4.87-3.13a3.55,3.55,0,0,1-.93-4.92,3.49,3.49,0,0,1,1.46-1.23Z" style="fill:#2d6375"/><path d="M1194.82,630a3.55,3.55,0,1,1,3,6.43h0c-1.64.77-3.29,1.59-4.89,2.45a3.54,3.54,0,0,1-3.61-6.09l.28-.15c1.71-.91,3.47-1.79,5.21-2.61Z" style="fill:#2d6375"/></g><path d="M1216.39,690.4a1.4,1.4,0,0,1,1.77.54,1,1,0,0,1,.1.17,1.41,1.41,0,0,1-.54,1.78,49.63,49.63,0,0,0-8.13,6.46h0a48.85,48.85,0,0,0-4.44,64.52,51,51,0,0,0,3.87,4.44,48.76,48.76,0,1,0,47-81.4,1.4,1.4,0,0,1-1-1.69v0a1.4,1.4,0,0,1,1.71-1h0a51.59,51.59,0,1,1-49.17,13.15h0a51.52,51.52,0,0,1,7.86-6.35l.25-.17.49-.31Z" style="fill:#fff"/><path d="M1101.7,481.17a3.69,3.69,0,0,1-3.32-2.07c-1.71-3.51-3.36-7.1-4.9-10.68a3.69,3.69,0,0,1,6.72-3.06l.06.15c1.49,3.47,3.08,7,4.75,10.35a3.69,3.69,0,0,1-1.69,4.93A3.64,3.64,0,0,1,1101.7,481.17Zm-23.4-87.51a3.69,3.69,0,0,1-3.68-3.44c-.27-3.89-.44-7.84-.51-11.74a3.69,3.69,0,0,1,7.37-.5c0,.12,0,.24,0,.36.07,3.78.24,7.6.5,11.38a3.69,3.69,0,0,1-3.43,3.93Zm-.1-30.36H1078a3.68,3.68,0,0,1-3.45-3.9h0c.24-3.89.58-7.84,1-11.73a3.68,3.68,0,1,1,7.32.82h0c-.42,3.77-.75,7.6-1,11.37A3.7,3.7,0,0,1,1078.2,363.3Zm3.85-30.14a3.42,3.42,0,0,1-.71-.07,3.68,3.68,0,0,1-2.91-4.31h0c.75-3.84,1.6-7.7,2.54-11.5a3.69,3.69,0,0,1,7.16,1.77c-.91,3.68-1.74,7.42-2.46,11.14a3.7,3.7,0,0,1-3.59,3Zm7.74-29.37a3.59,3.59,0,0,1-1.17-.19,3.67,3.67,0,0,1-2.33-4.65v0c1.23-3.69,2.58-7.42,4-11.06a3.69,3.69,0,0,1,7,2.41c0,.09-.07.18-.11.27-1.38,3.53-2.68,7.14-3.88,10.72a3.68,3.68,0,0,1-3.49,2.52Zm11.46-28.12a3.69,3.69,0,0,1-3.31-5.3c1.7-3.51,3.51-7,5.39-10.45a3.69,3.69,0,0,1,6.47,3.55c-1.82,3.31-3.58,6.72-5.23,10.12a3.68,3.68,0,0,1-3.32,2.08Zm15-26.4a3.69,3.69,0,0,1-3.08-5.71c2.14-3.26,4.39-6.51,6.69-9.67a3.7,3.7,0,0,1,6,4.34h0c-2.23,3.06-4.41,6.22-6.48,9.37a3.67,3.67,0,0,1-3.14,1.67ZM1134.5,225a3.69,3.69,0,0,1-3.69-3.69,3.76,3.76,0,0,1,.89-2.4c2.54-3,5.19-5.89,7.87-8.72a3.69,3.69,0,0,1,5.35,5.07c-2.6,2.75-5.16,5.59-7.62,8.46A3.67,3.67,0,0,1,1134.5,225Zm21.22-21.7a3.69,3.69,0,0,1-2.47-6.43c2.9-2.6,5.9-5.16,8.93-7.63a3.69,3.69,0,0,1,4.65,5.73c-2.93,2.38-5.84,4.87-8.65,7.39a3.66,3.66,0,0,1-2.46.95Zm23.84-18.77a3.68,3.68,0,0,1-2.09-6.72c3.21-2.21,6.51-4.36,9.83-6.41a3.69,3.69,0,1,1,4.06,6.16l-.19.12c-3.21,2-6.42,4.07-9.52,6.21a3.69,3.69,0,0,1-2.09.65Zm26.06-15.5a3.69,3.69,0,0,1-1.67-7c3.47-1.77,7-3.48,10.6-5.07a3.69,3.69,0,0,1,3,6.73c-3.45,1.54-6.9,3.2-10.27,4.92a3.65,3.65,0,0,1-1.66.39Zm27.88-12a3.69,3.69,0,0,1-1.23-7.16c3.68-1.31,7.44-2.54,11.17-3.66a3.69,3.69,0,0,1,2.12,7.06c-3.62,1.09-7.26,2.28-10.82,3.55a3.73,3.73,0,0,1-1.24.18Zm131.11-7.74a3.84,3.84,0,0,1-.83-.09c-3.7-.85-7.45-1.61-11.17-2.27a3.69,3.69,0,0,1,1.3-7.26c3.83.68,7.71,1.47,11.52,2.34a3.69,3.69,0,0,1-.82,7.28Zm-101.91-.56a3.69,3.69,0,0,1-.78-7.29l1.47-.31c3.32-.7,6.72-1.33,10.08-1.89a3.68,3.68,0,1,1,1.2,7.27h0c-3.26.54-6.55,1.16-9.78,1.84l-1.41.3a3.39,3.39,0,0,1-.78.09Zm71.93-4.29h-.35c-3.76-.35-7.59-.62-11.36-.79a3.69,3.69,0,1,1,.14-7.38h.19c3.9.17,7.84.45,11.73.82a3.69,3.69,0,0,1-.35,7.36Zm-41.91-.21a3.69,3.69,0,0,1-.3-7.37c3.88-.32,7.83-.56,11.73-.7a3.69,3.69,0,1,1,.54,7.36h-.28c-3.78.13-7.61.36-11.37.68Z" style="fill:#2d6375"/><path d="M1388.47,156.14a3.53,3.53,0,0,1-1.2-.21q-2.74-.93-5.51-1.82a3.69,3.69,0,0,1,2.22-7c1.91.61,3.8,1.23,5.69,1.88a3.69,3.69,0,0,1-1.2,7.18Z" style="fill:#2d6375"/><path d="M1523.3,275.59a3.69,3.69,0,0,1-3.33-2.08q-1.26-2.61-2.59-5.19a3.69,3.69,0,0,1,6.38-3.71c.06.11.12.22.17.33.92,1.77,1.82,3.55,2.68,5.36a3.66,3.66,0,0,1-1.67,4.91,3.72,3.72,0,0,1-1.64.38Z" style="fill:#2d6375"/><path d="M1312.58,612.43a3.69,3.69,0,0,1,0-7.38c3.92,0,7.91-.12,11.84-.33a3.69,3.69,0,1,1,.4,7.37c-4.06.21-8.17.33-12.23.34Zm-19.54-.78h-.31c-4-.33-8.13-.77-12.15-1.31a3.69,3.69,0,1,1,.84-7.33l.16,0c3.9.52,7.86,1,11.78,1.27a3.69,3.69,0,0,1-.3,7.36Zm51-1.42a3.69,3.69,0,0,1-.5-7.35c3.89-.53,7.83-1.18,11.69-1.91a3.69,3.69,0,0,1,1.38,7.24c-4,.76-8,1.43-12.06,2a3.62,3.62,0,0,1-.47,0ZM1261.82,607a3.57,3.57,0,0,1-.8-.09c-4-.87-8-1.86-11.87-2.94a3.69,3.69,0,0,1,2-7.11h0c3.8,1,7.67,2,11.5,2.85a3.69,3.69,0,0,1-.79,7.29ZM1375,603.89a3.69,3.69,0,0,1-1-7.24c3.8-1,7.61-2.21,11.33-3.45a3.69,3.69,0,1,1,2.51,6.94l-.18.06c-3.84,1.28-7.78,2.48-11.69,3.56a3.51,3.51,0,0,1-1,.08Zm29.8-10.43a3.69,3.69,0,0,1-1.45-7.08c3.61-1.55,7.23-3.21,10.76-4.94a3.69,3.69,0,0,1,3.25,6.62c-3.65,1.79-7.38,3.5-11.11,5.1a3.76,3.76,0,0,1-1.45.25Zm28.11-14.36a3.69,3.69,0,0,1-1.9-6.85c3.37-2,6.73-4.16,10-6.34a3.69,3.69,0,0,1,4.79,5.61,3.41,3.41,0,0,1-.71.48c-3.35,2.25-6.82,4.46-10.3,6.54a3.57,3.57,0,0,1-1.88.51Zm25.89-18a3.69,3.69,0,0,1-2.3-6.57c3-2.45,6.09-5,9-7.63a3.69,3.69,0,1,1,4.91,5.51c-3,2.7-6.18,5.35-9.33,7.88a3.72,3.72,0,0,1-2.28.71Zm23.29-21.42a3.69,3.69,0,0,1-2.67-6.23c2.7-2.85,5.37-5.8,7.93-8.79a3.69,3.69,0,0,1,5.77,4.61l-.17.19c-2.64,3.09-5.4,6.14-8.19,9.07A3.68,3.68,0,0,1,1482.08,539.68Zm20.17-24.28a3.69,3.69,0,0,1-3.7-3.68,3.74,3.74,0,0,1,.7-2.17c2.31-3.18,4.56-6.47,6.7-9.77a3.69,3.69,0,0,1,6.4,3.68,2.2,2.2,0,0,1-.21.32c-2.21,3.41-4.54,6.8-6.91,10.08a3.68,3.68,0,0,1-3,1.54ZM1519,488.64a3.7,3.7,0,0,1-3.26-5.42v0c1.86-3.47,3.65-7,5.33-10.59a3.69,3.69,0,0,1,6.67,3.15c-1.73,3.67-3.58,7.35-5.5,10.92a3.67,3.67,0,0,1-3.3,2Zm13-28.77a3.69,3.69,0,0,1-3.46-5c1.38-3.67,2.68-7.44,3.87-11.2a3.69,3.69,0,0,1,7,2.22c-1.23,3.88-2.57,7.77-4,11.57a3.67,3.67,0,0,1-3.43,2.41Zm9-30.25a3.81,3.81,0,0,1-.82-.09,3.67,3.67,0,0,1-2.78-4.4v0c.87-3.84,1.65-7.75,2.32-11.63a3.69,3.69,0,0,1,7.27,1.26q-1,6-2.4,12a3.69,3.69,0,0,1-3.51,2.88Zm4.87-31.21h-.32a3.69,3.69,0,0,1-3.35-4c.34-3.91.58-7.89.72-11.82a3.69,3.69,0,0,1,7.37.26c-.14,4.06-.39,8.16-.75,12.2a3.67,3.67,0,0,1-3.64,3.36Zm.61-31.56a3.68,3.68,0,0,1-3.68-3.51c-.19-3.92-.49-7.89-.88-11.82a3.69,3.69,0,0,1,7.34-.73c.4,4,.71,8.15.9,12.19a3.68,3.68,0,0,1-3.49,3.86h-.19Zm-3.65-31.37a3.69,3.69,0,0,1-3.62-3c-.35-1.87-.71-3.74-1.11-5.61s-.86-4-1.33-6a3.68,3.68,0,1,1,7.17-1.7q.74,3.06,1.38,6.17.63,2.9,1.14,5.79a3.67,3.67,0,0,1-3,4.28h0a3.05,3.05,0,0,1-.6.06Zm-7.77-30.6a3.68,3.68,0,0,1-3.5-2.55c-1.22-3.74-2.56-7.49-4-11.16a3.69,3.69,0,0,1,6.89-2.64c1.45,3.78,2.83,7.66,4.09,11.52a3.7,3.7,0,0,1-2.36,4.65,4,4,0,0,1-1.1.18Z" style="fill:#2d6375"/><path d="M1231.38,598a3.7,3.7,0,0,1-1.27-.23c-1.88-.69-3.74-1.4-5.6-2.14a3.69,3.69,0,0,1,2.73-6.85c1.79.71,3.6,1.41,5.42,2.07a3.69,3.69,0,0,1-1.28,7.15Z" style="fill:#2d6375"/><path d="M1225.33,532a2.79,2.79,0,0,0,3.26,0l27.72-20.13a149.25,149.25,0,0,0,47.19,10.47l16.58,29.87a2.8,2.8,0,0,0,3,1.4l40.45-7.14a2.78,2.78,0,0,0,2.29-2.33l5.36-33.81a148.76,148.76,0,0,0,40.75-26l32.94,9.42a2.79,2.79,0,0,0,3.07-1.1L1471.49,459a2.79,2.79,0,0,0,0-3.26L1451.33,428a148.69,148.69,0,0,0,10.46-47.19l29.93-16.62a2.82,2.82,0,0,0,1.41-2.95L1486,320.79a2.79,2.79,0,0,0-2.33-2.29l-33.81-5.36a148.91,148.91,0,0,0-26-40.75l9.42-32.94a2.79,2.79,0,0,0-1.1-3.07l-33.66-23.56a2.79,2.79,0,0,0-3.26,0L1367.52,233a149.13,149.13,0,0,0-47.19-10.47l-16.62-29.92a2.82,2.82,0,0,0-3-1.41l-40.45,7.15a2.8,2.8,0,0,0-2.29,2.33l-5.36,33.81a148.91,148.91,0,0,0-40.75,26l-32.94-9.42a2.79,2.79,0,0,0-3.07,1.1l-23.56,33.66a2.79,2.79,0,0,0,0,3.26l20.13,27.72A149.08,149.08,0,0,0,1162.08,364l-30,16.61a2.81,2.81,0,0,0-1.4,2.95l7.14,40.45a2.8,2.8,0,0,0,2.33,2.29l33.81,5.36a148.91,148.91,0,0,0,26,40.75l-9.42,32.94a2.79,2.79,0,0,0,1.1,3.07Z" style="fill:#ffd131"/><path d="M1311.93,411.86a39.48,39.48,0,1,1,16.14-3.49A39.49,39.49,0,0,1,1311.93,411.86Zm-.06-73a33.55,33.55,0,1,0,30.63,19.79,33.52,33.52,0,0,0-30.63-19.79Z" style="fill:#fff"/><path d="M1312.22,472.28h-3.76a1.48,1.48,0,0,1-1.42-1.48v-.05a1.48,1.48,0,0,1,1.53-1.42,98.68,98.68,0,0,0,20.74-1.44h0a97.63,97.63,0,1,0-90.8-32.21,1.47,1.47,0,0,1,.36,1,1.44,1.44,0,0,1-.51,1.11,1.46,1.46,0,0,1-2.07-.13h0a100.62,100.62,0,1,1,93.55,33.18h0A101.83,101.83,0,0,1,1312.22,472.28Z" style="fill:#fff;stroke:#fff;stroke-miterlimit:10;stroke-width:4px"/><path d="M805.22,608.34a3.35,3.35,0,0,1-3.22-2.41c-.51-1.74-1-3.5-1.46-5.26a3.37,3.37,0,1,1,6.54-1.67h0q.67,2.55,1.41,5.07a3.35,3.35,0,0,1-2.27,4.16h0A3,3,0,0,1,805.22,608.34Z" style="fill:#2d6375"/><path d="M800.08,585.77a3.38,3.38,0,0,1-3.31-2.82c-.59-3.66-1.08-7.38-1.46-11.06a3.36,3.36,0,0,1,6.65-.95,1.24,1.24,0,0,1,0,.27c.36,3.55.83,7.14,1.4,10.66a3.35,3.35,0,0,1-2.76,3.85h0A3.29,3.29,0,0,1,800.08,585.77Zm-2.39-28.64a3.35,3.35,0,0,1-3.35-3.33v-1.21c0-3.28.08-6.62.25-9.93a3.35,3.35,0,0,1,6.7.34c-.16,3.2-.25,6.42-.25,9.59v1.17a3.35,3.35,0,0,1-3.33,3.37h0Zm2-28.65h-.49a3.35,3.35,0,0,1-2.83-3.8h0c.54-3.67,1.19-7.36,1.94-11a3.35,3.35,0,1,1,6.57,1.36c-.72,3.49-1.35,7.05-1.87,10.59a3.35,3.35,0,0,1-3.3,2.85Zm6.34-28a3.41,3.41,0,0,1-1-.15,3.36,3.36,0,0,1-2.21-4.2c1.09-3.53,2.3-7.08,3.6-10.55a3.36,3.36,0,0,1,6.29,2.35c-1.26,3.35-2.43,6.78-3.48,10.18a3.37,3.37,0,0,1-3.15,2.36Zm10.57-26.71a3.34,3.34,0,0,1-3.34-3.36,3.41,3.41,0,0,1,.34-1.47c1.63-3.32,3.38-6.65,5.2-9.88a3.35,3.35,0,1,1,5.84,3.3c-1.76,3.12-3.44,6.32-5,9.53a3.37,3.37,0,0,1-3,1.87ZM831.21,449a3.3,3.3,0,0,1-1.92-.61,3.34,3.34,0,0,1-.83-4.66h0c2.12-3,4.36-6.05,6.65-9a3.35,3.35,0,0,1,5.26,4.15c-2.2,2.8-4.36,5.71-6.41,8.64A3.34,3.34,0,0,1,831.21,449Zm18.21-22.23a3.37,3.37,0,0,1-3.35-3.37,3.33,3.33,0,0,1,.92-2.3c2.56-2.68,5.23-5.32,7.94-7.84a3.36,3.36,0,0,1,4.57,4.92c-2.61,2.43-5.19,5-7.66,7.55A3.34,3.34,0,0,1,849.42,426.77Zm21.38-19.19a3.35,3.35,0,0,1-2-6c2.94-2.25,6-4.45,9-6.53a3.35,3.35,0,1,1,3.77,5.55c-3,2-5.88,4.13-8.72,6.3A3.3,3.3,0,0,1,870.8,407.58Zm24.06-15.69a3.36,3.36,0,0,1-1.61-6.3c3.24-1.77,6.58-3.47,9.92-5.06a3.35,3.35,0,1,1,2.87,6.06h0c-3.22,1.53-6.44,3.17-9.57,4.89A3.35,3.35,0,0,1,894.86,391.89Zm176.22-1.64a3.39,3.39,0,0,1-1.56-.38c-3.16-1.65-6.41-3.24-9.67-4.71a3.35,3.35,0,0,1,2.76-6.11c3.38,1.52,6.75,3.16,10,4.88a3.35,3.35,0,0,1-1.56,6.32Zm-150-10.18a3.36,3.36,0,0,1-1.15-6.51c3.48-1.25,7-2.42,10.58-3.47a3.35,3.35,0,1,1,1.9,6.43h0c-3.41,1-6.84,2.14-10.19,3.35A3.38,3.38,0,0,1,921.08,380.07Zm123.59-1.13a3.31,3.31,0,0,1-1.08-.18c-3.38-1.15-6.84-2.21-10.28-3.16a3.36,3.36,0,0,1,1.78-6.47c3.57,1,7.15,2.08,10.66,3.28a3.35,3.35,0,0,1-1.08,6.53Zm-95.93-6.51a3.36,3.36,0,0,1-.64-6.65c3.64-.71,7.34-1.31,11-1.8a3.35,3.35,0,0,1,.89,6.65c-3.53.47-7.1,1.05-10.61,1.74a4,4,0,0,1-.69.06Zm68.1-.6a3.92,3.92,0,0,1-.59-.05c-3.51-.62-7.09-1.13-10.64-1.54a3.36,3.36,0,0,1,.76-6.67c3.68.43,7.39,1,11,1.6a3.35,3.35,0,0,1-.57,6.66Zm-39.57-2.69a3.35,3.35,0,1,1-.12-6.7c3.68-.14,7.42-.17,11.15-.09a3.35,3.35,0,0,1-.14,6.7c-3.6-.07-7.2,0-10.76.09Z" style="fill:#2d6375"/><path d="M1090.93,402.33a3.35,3.35,0,0,1-1.91-.6q-2.16-1.5-4.36-2.94a3.35,3.35,0,0,1,3.66-5.62h0c1.53,1,3,2,4.53,3.05a3.36,3.36,0,0,1-1.92,6.11Z" style="fill:#2d6375"/><path d="M1168.46,523.77a3.37,3.37,0,0,1-3.31-2.79q-.44-2.6-1-5.17a3.36,3.36,0,0,1,6.58-1.34q.54,2.67,1,5.37a3.36,3.36,0,0,1-2.74,3.88A3.07,3.07,0,0,1,1168.46,523.77Z" style="fill:#2d6375"/><path d="M981.16,742.46h-.08c-3.25-.06-6.53-.21-9.77-.43l-1.19-.09a3.35,3.35,0,0,1,.5-6.69l1.15.09c3.13.21,6.3.35,9.43.41a3.36,3.36,0,0,1-.06,6.71Zm17.5-.5a3.35,3.35,0,0,1-.25-6.7h0c3.51-.26,7.05-.63,10.53-1.09a3.35,3.35,0,0,1,.89,6.65c-3.61.48-7.28.86-10.91,1.13ZM953,739.83a3.66,3.66,0,0,1-.57-.05c-3.6-.61-7.22-1.33-10.76-2.15a3.35,3.35,0,0,1,1.5-6.53c3.42.78,6.91,1.48,10.39,2.07a3.35,3.35,0,0,1-.56,6.66Zm73.6-2.12a3.35,3.35,0,0,1-.76-6.62c3.43-.79,6.87-1.7,10.24-2.69a3.36,3.36,0,0,1,1.89,6.44c-3.49,1-7.06,2-10.62,2.78a3.14,3.14,0,0,1-.75.09Zm-101-4.71a3.09,3.09,0,0,1-1-.17c-3.46-1.15-6.93-2.41-10.32-3.75a3.36,3.36,0,0,1,2.48-6.24c3.27,1.3,6.61,2.52,10,3.62a3.36,3.36,0,0,1-1.06,6.54Zm128-3.74a3.35,3.35,0,0,1-1.24-6.47c3.25-1.3,6.52-2.72,9.7-4.2a3.35,3.35,0,1,1,2.84,6.07h0c-3.3,1.54-6.68,3-10,4.36a3.34,3.34,0,0,1-1.33.24Zm-154.1-7.17a3.34,3.34,0,0,1-1.52-.37c-3.25-1.66-6.49-3.44-9.63-5.28a3.36,3.36,0,0,1,3.4-5.79c3,1.78,6.15,3.49,9.28,5.09a3.36,3.36,0,0,1-1.53,6.35ZM1079,716.82a3.36,3.36,0,0,1-1.7-6.25c3-1.78,6-3.67,9-5.62a3.36,3.36,0,0,1,4,5.4l-.28.18c-3,2-6.15,4-9.29,5.83a3.42,3.42,0,0,1-1.77.46Zm23.22-16.12a3.36,3.36,0,0,1-2.12-6c2.73-2.21,5.43-4.54,8-6.91a3.37,3.37,0,0,1,4.52,5h0c-2.68,2.45-5.48,4.86-8.31,7.16a3.35,3.35,0,0,1-2.12.75Zm20.53-19.43a3.36,3.36,0,0,1-3.36-3.34,3.4,3.4,0,0,1,.88-2.27c2.37-2.6,4.69-5.3,6.9-8a3.35,3.35,0,0,1,5.21,4.22h0c-2.29,2.84-4.69,5.64-7.14,8.33a3.34,3.34,0,0,1-2.52,1.06ZM1140.08,659a3.35,3.35,0,0,1-2.79-5.21c1.94-2.92,3.83-6,5.6-9a3.36,3.36,0,0,1,5.8,3.39c-1.85,3.15-3.8,6.28-5.82,9.32A3.34,3.34,0,0,1,1140.08,659Zm13.82-24.67a3.26,3.26,0,0,1-1.41-.31,3.37,3.37,0,0,1-1.64-4.46c1.48-3.18,2.89-6.46,4.18-9.74a3.36,3.36,0,0,1,6.37,2.15c0,.11-.08.21-.13.32-1.34,3.39-2.8,6.79-4.33,10.1a3.35,3.35,0,0,1-3,1.91Zm9.9-26.49a3.72,3.72,0,0,1-.93-.13,3.37,3.37,0,0,1-2.29-4.16c1-3.37,1.87-6.82,2.65-10.25a3.35,3.35,0,0,1,6.54,1.49c-.81,3.55-1.73,7.12-2.75,10.62a3.35,3.35,0,0,1-3.21,2.4Zm5.78-27.67h-.44a3.35,3.35,0,0,1-2.89-3.75h0c.45-3.48.81-7,1.07-10.53a3.35,3.35,0,0,1,6.69.49h0c-.27,3.63-.64,7.3-1.11,10.91a3.35,3.35,0,0,1-3.31,2.86Zm1.56-28.23a3.36,3.36,0,0,1-3.36-3.29c-.06-3.51-.24-7.07-.51-10.57a3.36,3.36,0,1,1,6.66-.88,2.19,2.19,0,0,1,0,.36c.28,3.63.46,7.32.53,11a3.36,3.36,0,0,1-3.29,3.42Z" style="fill:#2d6375"/><path d="M875.27,707.27a3.34,3.34,0,0,1-2-.64c-1.47-1.06-2.93-2.15-4.38-3.25a3.36,3.36,0,0,1,4-5.42l.11.09q2.09,1.61,4.22,3.15a3.35,3.35,0,0,1-2,6.07Z" style="fill:#2d6375"/><path d="M883.61,654.43a2.25,2.25,0,0,0,2.51.68l25.6-9.41A118.64,118.64,0,0,0,945.62,664l6.24,26.54a2.26,2.26,0,0,0,2,1.71l32.55,3.3a2.23,2.23,0,0,0,2.26-1.29l11.41-24.74a118.7,118.7,0,0,0,36.86-11.09l23.2,14.36a2.24,2.24,0,0,0,2.59-.17l25.35-20.69a2.24,2.24,0,0,0,.69-2.51l-9.41-25.6a118.72,118.72,0,0,0,18.25-33.89l26.53-6.25a2.23,2.23,0,0,0,1.72-2l3.3-32.55a2.23,2.23,0,0,0-1.29-2.26l-24.79-11.39a118.41,118.41,0,0,0-11-36.87l14.36-23.19a2.26,2.26,0,0,0-.17-2.6l-20.69-25.35a2.24,2.24,0,0,0-2.51-.68l-25.6,9.41a119,119,0,0,0-33.89-18.25l-6.25-26.54a2.21,2.21,0,0,0-2-1.71l-32.56-3.3a2.23,2.23,0,0,0-2.26,1.29l-11.43,24.74a118.7,118.7,0,0,0-36.86,11.09L909,429.11a2.23,2.23,0,0,0-2.6.17L881.08,450a2.24,2.24,0,0,0-.69,2.51l9.42,25.6A118.64,118.64,0,0,0,871.54,512L845,518.24a2.27,2.27,0,0,0-1.72,2L840,552.79a2.27,2.27,0,0,0,1.29,2.26l24.8,11.37a119,119,0,0,0,11,36.87l-14.35,23.19a2.23,2.23,0,0,0,.17,2.6Z" style="fill:#2d6375"/><path d="M984.5,582.67a31.81,31.81,0,1,1,4.7-.35A31.8,31.8,0,0,1,984.5,582.67Zm.09-58.12a26.4,26.4,0,1,0,3,52.58l.81-.12a26.37,26.37,0,0,0-3.83-52.46Z" style="fill:#fff"/><path d="M985.13,630.74q-4,0-8.15-.41a80,80,0,0,1-12-2.15h-.09l-.52-.14h-.14L964,628h-.09l-.75-.2-.26-.08c-.54-.15-1.08-.32-1.61-.48l-.92-.29a1.35,1.35,0,0,1-.93-1.28,1.14,1.14,0,0,1,.07-.41,1.33,1.33,0,0,1,1.68-.87h0a77.56,77.56,0,1,0-46.3-40.88,1.25,1.25,0,0,1,.13.57,1.34,1.34,0,0,1-2.55.57,80.28,80.28,0,1,1,72.77,46.22Z" style="fill:#fff"/><path d="M700.33,410.72l13.13-6.05a63,63,0,0,0,18.67,8.22l4.42,13.76a1.19,1.19,0,0,0,1.1.82l17.34.38a1.18,1.18,0,0,0,1.14-.78l5-13.55a62.79,62.79,0,0,0,19-7.41L793,412.72a1.18,1.18,0,0,0,1.36-.2l12.53-12a1.17,1.17,0,0,0,.25-1.36l-6-13.16a62.63,62.63,0,0,0,8.22-18.67L823.08,363a1.17,1.17,0,0,0,.83-1.1l.37-17.34a1.2,1.2,0,0,0-.77-1.14l-13.56-5a63.13,63.13,0,0,0-7.4-19l6.61-12.85a1.2,1.2,0,0,0-.2-1.37l-12-12.52a1.18,1.18,0,0,0-1.35-.26l-13.13,6a63.05,63.05,0,0,0-18.68-8.22l-4.41-13.76a1.22,1.22,0,0,0-1.11-.83l-17.34-.37a1.21,1.21,0,0,0-1.14.78l-5,13.55a62.89,62.89,0,0,0-19,7.41l-12.86-6.61a1.18,1.18,0,0,0-1.37.19l-12.52,12a1.18,1.18,0,0,0-.26,1.35l6,13.13a63.31,63.31,0,0,0-8.22,18.68l-13.76,4.41a1.19,1.19,0,0,0-.82,1.11l-.38,17.34a1.22,1.22,0,0,0,.78,1.14l13.55,5a63.41,63.41,0,0,0,7.41,19l-6.61,12.85a1.2,1.2,0,0,0,.2,1.37l12,12.52A1.19,1.19,0,0,0,700.33,410.72Z" style="fill:#5ecff5"/><path d="M747.94,368.21a16.69,16.69,0,1,1,3.76-.43A16.37,16.37,0,0,1,747.94,368.21Zm0-30.81a14.12,14.12,0,1,0,13.77,11A14.05,14.05,0,0,0,747.94,337.4Z" style="fill:#fff;opacity:0.5600000023841858;isolation:isolate"/><g style="opacity:0.6399999856948853"><path d="M670.19,405.68a3.15,3.15,0,0,1-2.65-1.43c-1-1.46-1.88-3-2.76-4.47a3.17,3.17,0,1,1,5.49-3.18c.82,1.41,1.68,2.81,2.57,4.17a3.17,3.17,0,0,1-2.65,4.91Z" style="fill:#2d6375"/><path d="M660.84,387.16a3.19,3.19,0,0,1-3-2.07,93.36,93.36,0,0,1-3-9.54A3.17,3.17,0,0,1,661,374a92,92,0,0,0,2.79,8.91A3.18,3.18,0,0,1,661.9,387,3,3,0,0,1,660.84,387.16Zm-5.53-24.7a3.18,3.18,0,0,1-3.16-2.91c-.23-2.68-.34-5.4-.34-8.1v-1.89a3.13,3.13,0,0,1,3.15-3.11H655a3.17,3.17,0,0,1,3.11,3.23h0v1.76c0,2.52.11,5.06.32,7.57a3.17,3.17,0,0,1-2.89,3.43h-.27Zm1.34-25.27a3.18,3.18,0,0,1-3.12-3.76h0a94.9,94.9,0,0,1,2.4-9.71,3.17,3.17,0,0,1,6.07,1.84h0a90.75,90.75,0,0,0-2.24,9.06A3.17,3.17,0,0,1,656.65,337.19Zm8.12-24A3.19,3.19,0,0,1,661.6,310a3.24,3.24,0,0,1,.33-1.4,96.63,96.63,0,0,1,4.92-8.7,3.17,3.17,0,0,1,5.41,3.3l-.06.1a90.16,90.16,0,0,0-4.59,8.13,3.18,3.18,0,0,1-2.84,1.79Zm14.31-20.87a3.18,3.18,0,0,1-3.16-3.2,3.24,3.24,0,0,1,.81-2.1,98.24,98.24,0,0,1,7.08-7.06,3.17,3.17,0,1,1,4.24,4.72,91.32,91.32,0,0,0-6.61,6.59A3.17,3.17,0,0,1,679.08,292.32ZM698.4,276a3.18,3.18,0,0,1-1.7-5.86,98.15,98.15,0,0,1,8.73-4.88,3.18,3.18,0,1,1,3.11,5.55l-.31.15a87.58,87.58,0,0,0-8.14,4.55A3.14,3.14,0,0,1,698.4,276Zm23-10.43a3.18,3.18,0,0,1-.9-6.22c1.94-.57,3.92-1.09,5.91-1.55,1.26-.29,2.53-.55,3.8-.79a3.17,3.17,0,0,1,1.17,6.23c-1.18.23-2.37.47-3.55.75-1.86.42-3.72.91-5.53,1.45a3,3,0,0,1-.85.16ZM756.08,262h-.28a90.71,90.71,0,0,0-9.33-.33,3.15,3.15,0,0,1-3.23-3v-.06a3.17,3.17,0,0,1,3.11-3.23h0a95.29,95.29,0,0,1,10,.35,3.17,3.17,0,0,1-.27,6.33Z" style="fill:#2d6375"/><path d="M776.51,266.22a3.08,3.08,0,0,1-1-.16c-1.55-.5-3.14-1-4.71-1.38a3.17,3.17,0,1,1,1.63-6.13c1.68.44,3.37.94,5,1.47a3.18,3.18,0,0,1-1,6.2Z" style="fill:#2d6375"/></g><g style="opacity:0.6399999856948853"><path d="M832.08,315a3.17,3.17,0,0,1-2.87-1.82c-.7-1.48-1.44-2.95-2.21-4.38a3.17,3.17,0,1,1,5.59-3c.82,1.53,1.62,3.1,2.36,4.68a3.17,3.17,0,0,1-1.5,4.22h0A3.27,3.27,0,0,1,832.08,315Z" style="fill:#2d6375"/><path d="M747.92,447.7a96.33,96.33,0,0,1-11-.64,3.17,3.17,0,0,1,.73-6.3,89.88,89.88,0,0,0,10.24.59H748a3.18,3.18,0,1,1,.36,6.35h-.46Zm17.49-1.7a3.17,3.17,0,0,1-.6-6.29c1.08-.21,2.17-.44,3.25-.69,2.3-.53,4.6-1.15,6.83-1.85a3.18,3.18,0,0,1,2.23,6l-.33.1c-2.39.75-4.85,1.41-7.31,2-1.16.26-2.32.51-3.47.73A3,3,0,0,1,765.41,446Zm26.53-9.38a3.18,3.18,0,0,1-1.5-6,89.07,89.07,0,0,0,8.86-5.44,3.17,3.17,0,1,1,3.62,5.21h0a94.76,94.76,0,0,1-9.48,5.82,3.15,3.15,0,0,1-1.5.44Zm22.49-16.92a3.17,3.17,0,0,1-2.27-5.39,88.81,88.81,0,0,0,6.81-7.83,3.17,3.17,0,0,1,5,3.88,93.93,93.93,0,0,1-7.3,8.39,3.15,3.15,0,0,1-2.24,1Zm16.4-22.86a3.18,3.18,0,0,1-2.83-4.61,91.54,91.54,0,0,0,4.18-9.52,3.17,3.17,0,1,1,6,2.21h0a95.12,95.12,0,0,1-4.48,10.19,3.15,3.15,0,0,1-2.82,1.76Zm8.84-26.72h-.53a3.15,3.15,0,0,1-2.6-3.63v0a87.46,87.46,0,0,0,1.13-10.33,3.17,3.17,0,1,1,6.34.32,95.57,95.57,0,0,1-1.21,11.07,3.18,3.18,0,0,1-3.13,2.62Zm.41-28.12a3.18,3.18,0,0,1-3.14-2.74c-.37-2.61-.85-5.24-1.44-7.83-.19-.79-.38-1.58-.58-2.37a3.17,3.17,0,0,1,6.14-1.58h0c.22.84.43,1.68.62,2.53.63,2.77,1.15,5.58,1.54,8.38a3.17,3.17,0,0,1-2.7,3.57A3.13,3.13,0,0,1,840.08,342Z" style="fill:#2d6375"/><path d="M720.15,443.43a3.1,3.1,0,0,1-1-.14q-2.49-.8-5-1.71a3.2,3.2,0,0,1,2.23-6c1.52.58,3.08,1.11,4.63,1.6a3.17,3.17,0,0,1-1,6.2Z" style="fill:#2d6375"/></g><path d="M748,394.65h-.91a43.72,43.72,0,0,1-9.11-1.17,1.28,1.28,0,0,1-1-1.23,1.5,1.5,0,0,1,0-.3,1.28,1.28,0,0,1,1.53-.94,40.58,40.58,0,0,0,50-38.59v-.88a40.57,40.57,0,1,0-81.14-.87h0v.88a40.59,40.59,0,0,0,5.31,20.07,1.27,1.27,0,0,1-1.1,1.9,1.31,1.31,0,0,1-1.1-.64,43.12,43.12,0,0,1-5.65-21.33v-.94a43.12,43.12,0,0,1,86.22.93v.94A43.11,43.11,0,0,1,748,394.66Z" style="fill:#fff;opacity:0.5600000023841858;isolation:isolate"/><path d="M768.26,731.35a.7.7,0,0,0,.8.22l8.17-3a38,38,0,0,0,10.85,5.82l2,8.48a.71.71,0,0,0,.62.54l10.38,1.06a.72.72,0,0,0,.73-.41l3.65-7.91a37.87,37.87,0,0,0,11.77-3.53l7.4,4.58a.72.72,0,0,0,.83-.05l8.1-6.61a.73.73,0,0,0,.22-.8l-3-8.17a38,38,0,0,0,5.83-10.83l8.47-2a.71.71,0,0,0,.55-.62l1-10.4a.71.71,0,0,0-.41-.72l-7.9-3.65a38,38,0,0,0-3.54-11.77l4.58-7.41a.71.71,0,0,0,0-.83l-6.61-8.09a.7.7,0,0,0-.8-.22l-8.17,3A37.76,37.76,0,0,0,813,662.2l-2-8.47a.7.7,0,0,0-.62-.55l-10.39-1a.71.71,0,0,0-.73.41l-3.65,7.9A37.85,37.85,0,0,0,783.77,664l-7.4-4.59a.71.71,0,0,0-.83.06l-8.1,6.6a.73.73,0,0,0-.22.8l3,8.18a37.89,37.89,0,0,0-5.83,10.82l-8.47,2a.71.71,0,0,0-.55.63l-1,10.39a.71.71,0,0,0,.41.72l7.9,3.65a38.26,38.26,0,0,0,3.5,11.74l-4.58,7.41a.72.72,0,0,0,0,.83Z" style="fill:#2d6375"/><path d="M800.48,708.57a10,10,0,1,1,1.51-.11h0A10.84,10.84,0,0,1,800.48,708.57Zm0-18.55a8.28,8.28,0,1,0,1.2,16.49h0a8.29,8.29,0,0,0-1.2-16.49Z" style="fill:#fff;opacity:0.5600000023841858;isolation:isolate"/><path d="M800.7,724.35a24.24,24.24,0,0,1-2.69-.14h0a8,8,0,0,1-1.08-.13,25.94,25.94,0,0,1-3.7-.8h-.12l-.31-.09-.25-.08a1,1,0,0,1-.68-.94,1,1,0,0,1,0-.3,1,1,0,0,1,1.24-.64,24.47,24.47,0,0,0,5,1.06,24.21,24.21,0,0,0,26.53-21.64v0a23.07,23.07,0,0,0,.13-2.49,24.22,24.22,0,0,0-48.32-2.39q-.12,1.23-.12,2.46a24.09,24.09,0,0,0,2.29,10.26,1,1,0,0,1,.09.42,1,1,0,0,1-.57.89,1,1,0,0,1-1.31-.47,26.19,26.19,0,1,1,49.92-11.17,17.39,17.39,0,0,1-.14,2.69,26.18,26.18,0,0,1-26,23.56Z" style="fill:#bdd0fb"/><path d="M773.3,230.73a4.64,4.64,0,0,1-4.45-3.33c-.7-2.42-1.37-4.89-2-7.35a4.64,4.64,0,0,1,9-2.23c.58,2.33,1.21,4.68,1.88,7a4.63,4.63,0,0,1-3.15,5.75,4.4,4.4,0,0,1-1.3.19Z" style="fill:#2d6375"/><path d="M767.26,200a4.65,4.65,0,0,1-4.61-4.16c-.51-5-.82-10.07-.9-15.1a4.64,4.64,0,0,1,9.27-.56c0,.13,0,.27,0,.4.08,4.77.37,9.58.86,14.31a4.63,4.63,0,0,1-4.13,5.08h0Zm.34-38.59h-.55a4.66,4.66,0,0,1-4.06-5.16c.6-5,1.42-10,2.43-14.91a4.64,4.64,0,0,1,9.17,1.46c0,.14-.05.27-.09.41-1,4.65-1.73,9.41-2.3,14.15a4.63,4.63,0,0,1-4.6,4.06Zm8.82-37.56a4.71,4.71,0,0,1-1.57-.27,4.63,4.63,0,0,1-2.8-5.92h0c1.69-4.74,3.61-9.45,5.69-14a4.64,4.64,0,1,1,8.44,3.86c-2,4.31-3.79,8.78-5.4,13.27a4.63,4.63,0,0,1-4.36,3.07Zm17-34.65a4.65,4.65,0,0,1-3.9-7.13c2.7-4.24,5.62-8.4,8.68-12.39a4.63,4.63,0,0,1,7.35,5.64c-2.89,3.78-5.65,7.73-8.22,11.74a4.63,4.63,0,0,1-3.93,2.15Zm24.28-30a4.64,4.64,0,0,1-3.26-7.94c3.57-3.52,7.34-6.94,11.2-10.16A4.64,4.64,0,0,1,831.83,48a2.75,2.75,0,0,1-.26.22c-3.66,3-7.23,6.29-10.62,9.63a4.61,4.61,0,0,1-3.27,1.35ZM848,35.3a4.63,4.63,0,0,1-2.45-8.57c4.26-2.65,8.69-5.16,13.16-7.43a4.64,4.64,0,1,1,4.58,8.07l-.37.19c-4.23,2.16-8.43,4.53-12.47,7a4.6,4.6,0,0,1-2.47.75Zm162.32-10.69a4.65,4.65,0,0,1-1.91-.41c-4.33-2-8.81-3.76-13.29-5.34a4.63,4.63,0,0,1,3.07-8.74h0c4.74,1.67,9.47,3.56,14,5.63a4.63,4.63,0,0,1-1.91,8.86ZM882.8,18.71a4.64,4.64,0,0,1-1.51-9c4.75-1.64,9.62-3.09,14.48-4.31a4.64,4.64,0,1,1,2.27,9h0c-4.61,1.16-9.22,2.53-13.73,4.09a4.66,4.66,0,0,1-1.53.23Zm90.79-6a4.78,4.78,0,0,1-.92-.09c-4.67-.94-9.43-1.69-14.17-2.24a4.64,4.64,0,0,1,1.06-9.21c5,.58,10,1.37,14.94,2.36a4.64,4.64,0,0,1-.91,9.18Zm-53.15-2.46A4.64,4.64,0,0,1,920,1c5-.53,10-.86,15.08-1h.11a4.64,4.64,0,0,1,.1,9.27c-4.77.1-9.58.41-14.3.92Z" style="fill:#2d6375"/><path d="M1037.63,40.14a4.65,4.65,0,0,1-2.65-.83c-2-1.36-4-2.71-6-4a4.65,4.65,0,0,1,5-7.83c2.14,1.35,4.27,2.77,6.34,4.21a4.63,4.63,0,0,1-2.65,8.44Z" style="fill:#2d6375"/><path d="M1109.74,154.91a4.63,4.63,0,0,1-4.57-3.92c-.38-2.38-.81-4.77-1.28-7.09a4.64,4.64,0,0,1,9-2.11,2.38,2.38,0,0,1,0,.26c.5,2.46,1,5,1.35,7.5a4.64,4.64,0,0,1-3.86,5.3A4.4,4.4,0,0,1,1109.74,154.91Z" style="fill:#2d6375"/><path d="M939.34,354.84c-2,0-4,0-6-.1a4.64,4.64,0,0,1,.15-9.27h.16c1.9.06,3.79.09,5.68.09h0c2.78,0,5.59-.07,8.37-.21a4.64,4.64,0,1,1,.47,9.27C945.24,354.76,942.27,354.84,939.34,354.84ZM910,352.38a4.11,4.11,0,0,1-.78-.07c-4.88-.83-9.77-1.87-14.56-3.1a4.65,4.65,0,0,1,2.31-9c4.53,1.17,9.18,2.16,13.8,2.94a4.64,4.64,0,0,1-.77,9.21Zm61.26-.53a4.63,4.63,0,0,1-.85-9.19c4.6-.87,9.22-2,13.72-3.21a4.64,4.64,0,1,1,2.49,8.94c-4.76,1.32-9.64,2.46-14.49,3.38A5.12,5.12,0,0,1,971.3,351.85Zm-97.78-9.91a4.83,4.83,0,0,1-1.76-.34c-4.57-1.88-9.12-4-13.52-6.23a4.64,4.64,0,0,1,4.23-8.25c4.17,2.14,8.48,4.12,12.81,5.9a4.63,4.63,0,0,1-1.76,8.92Zm134.06-1.22a4.64,4.64,0,0,1-1.84-8.89c4.29-1.86,8.56-3.92,12.69-6.14a4.64,4.64,0,0,1,4.76,8l-.38.2c-4.35,2.34-8.86,4.52-13.39,6.48A4.66,4.66,0,0,1,1007.58,340.72Zm33-18.81a4.63,4.63,0,0,1-2.72-8.38c3.79-2.75,7.5-5.7,11-8.76a4.64,4.64,0,0,1,6.06,7c-3.75,3.22-7.67,6.33-11.67,9.23a4.59,4.59,0,0,1-2.7.91Zm28.1-25.53a4.63,4.63,0,0,1-3.47-7.7c3.1-3.52,6.09-7.2,8.89-10.95a4.63,4.63,0,1,1,7.43,5.54c-3,4-6.1,7.84-9.38,11.55a4.62,4.62,0,0,1-3.5,1.56Zm21.87-31a4.64,4.64,0,0,1-4.06-6.87c2.26-4.1,4.37-8.35,6.27-12.63a4.64,4.64,0,1,1,8.48,3.77c-2,4.52-4.25,9-6.63,13.33a4.64,4.64,0,0,1-4.09,2.36Zm14.53-35.1a4.73,4.73,0,0,1-1.29-.18,4.62,4.62,0,0,1-3.17-5.71v0c1.29-4.49,2.42-9.1,3.34-13.7a4.64,4.64,0,0,1,9.09,1.82c-1,4.85-2.16,9.71-3.53,14.45a4.64,4.64,0,0,1-4.45,3.31Zm6.48-37.4h-.29a4.64,4.64,0,0,1-4.34-4.92c.22-3.53.34-7.11.34-10.62v-3.48a4.62,4.62,0,0,1,4.51-4.73h.12a4.64,4.64,0,0,1,4.64,4.54v3.67c0,3.7-.12,7.47-.36,11.2a4.62,4.62,0,0,1-4.65,4.3Z" style="fill:#2d6375"/><path d="M840.08,323.67a4.58,4.58,0,0,1-2.65-.84c-2.08-1.45-4.15-3-6.14-4.5a4.63,4.63,0,0,1,5.64-7.35c1.89,1.45,3.85,2.88,5.81,4.26a4.63,4.63,0,0,1-2.66,8.43Z" style="fill:#2d6375"/><path d="M845.83,271.83a2.07,2.07,0,0,0,2.32.64l23.68-8.71a110.25,110.25,0,0,0,31.36,16.89L909,305.19a2.06,2.06,0,0,0,1.8,1.59l30.12,3.05a2.07,2.07,0,0,0,2.09-1.19l10.58-22.89a109.51,109.51,0,0,0,34.11-10.26l21.46,13.29a2.08,2.08,0,0,0,2.4-.16L1035,269.48a2.06,2.06,0,0,0,.64-2.32l-8.71-23.69a109.54,109.54,0,0,0,16.88-31.35l24.55-5.78a2.08,2.08,0,0,0,1.59-1.81l3-30.11a2.09,2.09,0,0,0-1.19-2.1l-22.89-10.58a110.15,110.15,0,0,0-10.26-34.1l13.28-21.46a2.06,2.06,0,0,0-.15-2.4l-19.14-23.46a2.07,2.07,0,0,0-2.32-.63l-23.69,8.71a109.82,109.82,0,0,0-31.35-16.89L969.49,47a2.07,2.07,0,0,0-1.81-1.58l-30.12-3a2.07,2.07,0,0,0-2.09,1.19L924.89,66.5a109.67,109.67,0,0,0-34.11,10.26L869.33,63.47a2.09,2.09,0,0,0-2.41.16L843.47,82.77a2.09,2.09,0,0,0-.63,2.32l8.71,23.68A110,110,0,0,0,834.66,140l-24.58,5.82a2.08,2.08,0,0,0-1.59,1.81l-3,30.11a2.08,2.08,0,0,0,1.2,2.09l22.89,10.59a110,110,0,0,0,10.25,34.1L826.53,246a2.08,2.08,0,0,0,.16,2.4Z" style="fill:#071841"/><path d="M939.16,208.53a32.64,32.64,0,1,1,4.8-.36A32.12,32.12,0,0,1,939.16,208.53Zm.11-53.77a22.25,22.25,0,0,0-3.15.23,21.32,21.32,0,0,0,5.65,42.26l.57-.08h0a21.32,21.32,0,0,0-3.07-42.41Z" style="fill:#fff;opacity:0.5600000023841858;isolation:isolate"/><path d="M939.75,250.53c-2.52,0-5-.13-7.61-.38h0a74.94,74.94,0,0,1-15.6-3.28,1.86,1.86,0,0,1-1.28-1.76,1.85,1.85,0,0,1,2.4-1.77h0a72.43,72.43,0,0,0,14.84,3.11,71.19,71.19,0,1,0-63.65-78h0a69.68,69.68,0,0,0-.37,7.22,71.3,71.3,0,0,0,6.72,30.16,1.86,1.86,0,0,1-3.36,1.58,74.86,74.86,0,0,1-7.06-31.74,71.36,71.36,0,0,1,.38-7.6,74.89,74.89,0,1,1,74.57,82.45Z" style="fill:#fff;opacity:0.5600000023841858;isolation:isolate"/><path d="M500.7,615.86a2,2,0,0,0,1.49,1.72l23.25,5.53a104.12,104.12,0,0,0,15.89,29.74l-8.25,22.39a2,2,0,0,0,.59,2.2l22.16,18.18a2,2,0,0,0,2.28.15l20.33-12.52A103.91,103.91,0,0,0,610.68,693l10,21.72a2,2,0,0,0,2,1.13L651.2,713a2,2,0,0,0,1.71-1.5l5.53-23.24a103.82,103.82,0,0,0,29.75-15.9l22.39,8.3a2,2,0,0,0,2.2-.6L730.9,658a2,2,0,0,0,.15-2.27L718.54,635.4a104.1,104.1,0,0,0,9.77-32.28l21.71-10a2,2,0,0,0,1.13-2l-2.81-28.52a2,2,0,0,0-1.5-1.72l-23.25-5.53a104.25,104.25,0,0,0-15.89-29.74L716,503.22a2,2,0,0,0-.59-2.2l-22.16-18.17a2,2,0,0,0-2.28-.16l-20.33,12.52a104.1,104.1,0,0,0-32.28-9.77l-10-21.71a2,2,0,0,0-2-1.14l-28.52,2.82a2,2,0,0,0-1.71,1.5l-5.53,23.25a103.87,103.87,0,0,0-29.74,15.89l-22.4-8.3a2,2,0,0,0-2.2.6l-18.17,22.16a2,2,0,0,0-.15,2.27l12.51,20.34a104.58,104.58,0,0,0-9.77,32.27l-21.71,10a2,2,0,0,0-1.13,2Z" style="fill:#ffd131"/><path d="M605,618.6a35.36,35.36,0,1,1,4.52,2.54A37.86,37.86,0,0,1,605,618.6Zm28.2-42.38a18.76,18.76,0,0,0-2-1.14,15.64,15.64,0,1,0,7.49,20.81h0a15.65,15.65,0,0,0-5.47-19.67Z" style="fill:#fff"/><path d="M585.08,649.5a72.36,72.36,0,0,1-5.92-4.38c-1.21-1-2.4-2-3.55-3.11h0a71.63,71.63,0,0,1-5.27-5.47l-.09-.1c0-.05-.09-.11-.14-.17l-1-1.15c-.34-.39-.51-.62-.76-.94a3.26,3.26,0,0,1-.16-3.84,3.08,3.08,0,0,1,.69-.75,3.27,3.27,0,0,1,4.6.51h0a66.46,66.46,0,0,0,9.84,10h0a66,66,0,0,0,92.06-8.35l.67-.81a65.9,65.9,0,0,0-101.92-83.56c-1.42,1.73-2.76,3.52-4,5.38a65.71,65.71,0,0,0-10.26,26.7,3.18,3.18,0,0,1-.51,1.33,3.27,3.27,0,0,1-6-2.29,72.43,72.43,0,1,1,132.08,50.6q-2.06,3.09-4.43,6A72.55,72.55,0,0,1,585.08,649.5Z" style="fill:#fff"/><path d="M483.08,546.7a4,4,0,0,1-1.59-4.46c.64-2,1.33-4.12,2.05-6.15a4,4,0,0,1,7.44,2.66c-.69,1.93-1.34,3.89-1.94,5.83a4,4,0,0,1-5,2.6A3.6,3.6,0,0,1,483.08,546.7Z" style="fill:#2d6375"/><path d="M493.25,522a4,4,0,0,1-1.32-5.13c2-3.78,4.17-7.53,6.48-11.14a4,4,0,0,1,6.67,4.27c-2.19,3.43-4.26,7-6.14,10.57a4,4,0,0,1-5.33,1.66Zm18.42-27.24a3.27,3.27,0,0,1-.37-.28,3.93,3.93,0,0,1-.46-5.55v0c2.77-3.27,5.72-6.45,8.75-9.45a3.95,3.95,0,1,1,5.67,5.5,1.14,1.14,0,0,1-.11.11c-2.87,2.85-5.66,5.86-8.3,9a4,4,0,0,1-5.19.73Zm24-22.51a3.93,3.93,0,0,1-.2-6.46c3.44-2.56,7-5,10.65-7.26a4,4,0,0,1,5.24,6.05,4.07,4.07,0,0,1-1.07.66c-3.44,2.14-6.83,4.45-10.09,6.88a3.94,3.94,0,0,1-4.57.17Zm28.4-16.6a3.94,3.94,0,0,1-1.12-5.46,4,4,0,0,1,1.71-1.44c3.91-1.74,8-3.32,12-4.71a3.95,3.95,0,1,1,2.79,7.39l-.23.08c-3.83,1.32-7.66,2.82-11.37,4.46a3.93,3.93,0,0,1-3.77-.28Zm31.37-9.87a3.95,3.95,0,0,1,1.43-7.16c4.2-.83,8.48-1.48,12.74-1.94a3.95,3.95,0,0,1,.85,7.85c-4,.44-8.09,1.06-12.07,1.84a3.89,3.89,0,0,1-3-.55Zm32.78-2.69a3.95,3.95,0,0,1,2.29-7.24c4.28.13,8.61.44,12.86.93a4,4,0,0,1-.91,7.85c-4-.47-8.12-.76-12.18-.88a3.85,3.85,0,0,1-2.1-.62ZM748.51,512a4.28,4.28,0,0,1-1.16-1.2c-2.15-3.43-4.48-6.82-6.92-10.05A4,4,0,1,1,746,495a3.77,3.77,0,0,1,.74,1c2.57,3.42,5,7,7.31,10.62a4,4,0,0,1-5.54,5.39Zm-87.76-64.29a4,4,0,0,1,3.18-7.12c4.15,1.08,8.29,2.34,12.32,3.77a4,4,0,0,1-1.44,7.87,4.11,4.11,0,0,1-1.19-.42c-3.82-1.35-7.74-2.55-11.67-3.57a3.92,3.92,0,0,1-1.24-.49ZM728,486.29a5.79,5.79,0,0,1-.61-.5c-2.87-2.87-5.89-5.65-9-8.27a4,4,0,0,1,5.09-6c3.28,2.76,6.47,5.7,9.5,8.72a4,4,0,0,1-5,6.09Zm-36.57-26.8a4,4,0,0,1,4-6.8c3.79,2,7.55,4.13,11.18,6.42l.07.05a4,4,0,0,1-4.3,6.63c-3.43-2.18-7-4.22-10.59-6.09Z" style="fill:#2d6375"/><path d="M760.57,536a3.88,3.88,0,0,1-1.48-1.84c-.75-1.89-1.56-3.8-2.39-5.66a3.95,3.95,0,1,1,7.11-3.44,2.14,2.14,0,0,1,.1.22c.88,2,1.73,4,2.52,6a4,4,0,0,1-5.86,4.75Z" style="fill:#2d6375"/><path d="M757.69,651.43a4,4,0,0,1-1.4-4.93c.85-1.87,1.67-3.77,2.43-5.65a4,4,0,0,1,7.32,3c-.8,2-1.67,4-2.57,5.95a4,4,0,0,1-5.19,2l0,0A3.31,3.31,0,0,1,757.69,651.43Z" style="fill:#2d6375"/><path d="M542.46,713.08c-1.39-.93-2.83-1.92-4.24-2.92a4,4,0,0,1,4.48-6.51l.11.08q2,1.41,4,2.74h0c2,1.31,4,2.58,6,3.79a4,4,0,0,1-4,6.8C546.69,715.81,544.54,714.46,542.46,713.08Zm-19.64-15.55a5.43,5.43,0,0,1-.53-.42c-3.07-2.88-6.06-5.93-8.87-9.06a4,4,0,0,1,5.87-5.29c2.67,3,5.5,5.86,8.41,8.59a4,4,0,0,1-4.88,6.18ZM566.57,726a4,4,0,0,1,3.72-6.93c3.68,1.55,7.47,3,11.26,4.2a4,4,0,1,1-2.47,7.53h0c-4-1.3-8-2.79-11.88-4.43A3.35,3.35,0,0,1,566.57,726ZM501.8,672.89a4.26,4.26,0,0,1-1.08-1.08c-2.37-3.49-4.61-7.12-6.67-10.79a4,4,0,0,1,6.8-4l.09.17c2,3.47,4.08,6.91,6.32,10.22a4,4,0,0,1-5.46,5.51Zm95.77,62.31a4,4,0,0,1,2.89-7.18c3.92.7,7.92,1.25,11.9,1.62a4,4,0,0,1-.74,7.87c-4.2-.39-8.42-1-12.56-1.71a4,4,0,0,1-1.49-.58Zm32.28,2.19a4,4,0,0,1,2-7.24q6-.25,12-1a4,4,0,0,1,1,7.84c-4.18.53-8.43.88-12.63,1.06a4,4,0,0,1-2.37-.64Zm32-4.89a4,4,0,0,1,1.17-7.11c3.86-1,7.71-2.24,11.47-3.58a4,4,0,1,1,2.93,7.34l-.26.09c-4,1.42-8,2.7-12.1,3.78a3.93,3.93,0,0,1-3.23-.5ZM692,720.76a3.94,3.94,0,0,1-1.32-1.46,4,4,0,0,1,1.68-5.33c3.53-1.85,7-3.87,10.41-6a3.95,3.95,0,0,1,4.23,6.67c-3.56,2.26-7.25,4.39-11,6.34a4,4,0,0,1-4-.2Zm26.86-18.07A4.19,4.19,0,0,1,718,702a4,4,0,0,1,.46-5.57c3-2.57,6-5.31,8.83-8.14a4,4,0,0,1,5.85,5.31,3.19,3.19,0,0,1-.26.26c-3,3-6.1,5.88-9.31,8.6a4,4,0,0,1-4.76.3Zm22.21-23.49-.2-.14a4,4,0,0,1-.77-5.54c1.83-2.4,3.59-4.89,5.25-7.38.55-.83,1.08-1.65,1.61-2.48a3.94,3.94,0,0,1,5.43-1.24h0l.07.05a3.92,3.92,0,0,1,1.15,5.4c-.55.88-1.12,1.76-1.7,2.63-1.74,2.63-3.61,5.25-5.53,7.79A4,4,0,0,1,741.08,679.2Z" style="fill:#2d6375"/><path d="M486.68,644.18a4,4,0,0,1-1.49-1.85c-.79-2-1.54-4.06-2.23-6.09a4,4,0,0,1,7.47-2.56c.66,1.92,1.37,3.86,2.12,5.77a4,4,0,0,1-5.87,4.73Z" style="fill:#2d6375"/><path d="M1040.74,405.71a.74.74,0,0,0,.8.22l8.08-3a37.32,37.32,0,0,0,10.7,5.77l2,8.37a.7.7,0,0,0,.62.54l10.27,1a.73.73,0,0,0,.72-.41l3.61-7.81a37.61,37.61,0,0,0,11.63-3.5l7.33,4.53a.68.68,0,0,0,.81,0l8-6.53a.7.7,0,0,0,.21-.8l-3-8.08a37,37,0,0,0,5.76-10.7l8.38-2a.69.69,0,0,0,.54-.62l1-10.27a.71.71,0,0,0-.4-.71l-7.82-3.62a37.32,37.32,0,0,0-3.49-11.63l4.53-7.32a.69.69,0,0,0-.06-.82l-6.53-8a.7.7,0,0,0-.79-.21l-8.08,3a37.54,37.54,0,0,0-10.7-5.76l-2-8.38a.71.71,0,0,0-.62-.54l-10.27-1a.71.71,0,0,0-.72.41l-3.61,7.81a37.48,37.48,0,0,0-11.64,3.5l-7.32-4.54a.71.71,0,0,0-.82.06l-8,6.53a.72.72,0,0,0-.21.79l3,8.08a37.57,37.57,0,0,0-5.77,10.7l-8.37,2a.71.71,0,0,0-.54.62l-1,10.27a.72.72,0,0,0,.4.72l7.81,3.61a38.3,38.3,0,0,0,3.5,11.64l-4.53,7.32a.71.71,0,0,0,0,.82Z" style="fill:#5ecff5"/><path d="M1072.61,383.55a10.5,10.5,0,1,1,1.54-.11A11.28,11.28,0,0,1,1072.61,383.55Zm0-18.34a7.41,7.41,0,0,0-1.15.08,7.83,7.83,0,0,0,2.29,15.49h0a7.83,7.83,0,0,0-1.14-15.57Z" style="fill:#7d97f4"/><path d="M1072.79,399.15a23.7,23.7,0,0,1-2.66-.14h0a25.68,25.68,0,0,1-5.48-1.14,1.35,1.35,0,0,1-.92-1.28,1.4,1.4,0,0,1,.06-.41,1.36,1.36,0,0,1,1.69-.87,23.61,23.61,0,0,0,4.92,1h0a23.59,23.59,0,0,0,25.77-20.5l.06-.58a21.67,21.67,0,0,0,.13-2.42,23.56,23.56,0,1,0-44.89,10.06,1.39,1.39,0,0,1,.12.57,1.34,1.34,0,0,1-2.55.57,26.25,26.25,0,1,1,50-11.2,17.45,17.45,0,0,1-.14,2.7A26.32,26.32,0,0,1,1072.79,399.15Z" style="fill:#7d97f4"/><path d="M1511.47,587.84a.72.72,0,0,0,.82.23l8.39-3.08a38.84,38.84,0,0,0,11.09,6l2,8.69a.75.75,0,0,0,.64.56l10.66,1.08a.74.74,0,0,0,.74-.42l3.74-8.1a39.19,39.19,0,0,0,12.07-3.63l7.59,4.7a.74.74,0,0,0,.85-.06l8.3-6.77a.72.72,0,0,0,.23-.82l-3.08-8.38a38.9,38.9,0,0,0,6-11.1l8.69-2a.71.71,0,0,0,.56-.64l1.08-10.65a.73.73,0,0,0-.42-.74l-8.1-3.75a38.73,38.73,0,0,0-3.63-12.07l4.7-7.59a.71.71,0,0,0-.06-.85l-6.77-8.3a.71.71,0,0,0-.82-.23l-8.38,3.09a38.9,38.9,0,0,0-11.1-6l-2-8.69a.75.75,0,0,0-.64-.56L1544,506.63a.75.75,0,0,0-.74.42l-3.75,8.1a39.27,39.27,0,0,0-12.07,3.63l-7.59-4.7a.74.74,0,0,0-.85.06l-8.3,6.77a.75.75,0,0,0-.23.82l3.09,8.38a39.14,39.14,0,0,0-6,11.1l-8.69,2a.74.74,0,0,0-.56.64l-1.08,10.65a.74.74,0,0,0,.42.74l8.1,3.75a39.27,39.27,0,0,0,3.63,12.07l-4.7,7.59a.74.74,0,0,0,.06.85Z" style="fill:#2d6375"/><path d="M1544.52,564.86a10.92,10.92,0,1,1,1.6-.12A10.67,10.67,0,0,1,1544.52,564.86Zm0-19a8,8,0,0,0-1.19.09A8.12,8.12,0,1,0,1545.7,562h0a8.12,8.12,0,0,0-1.18-16.16Z" style="fill:#fff"/><path d="M1544.71,581a18.3,18.3,0,0,1-2.76-.14h0a28.27,28.27,0,0,1-5.68-1.19,1.38,1.38,0,0,1-1-1.33,1.2,1.2,0,0,1,.07-.42,1.4,1.4,0,0,1,1.75-.9h0a25.43,25.43,0,0,0,5.1,1.07h0a24.48,24.48,0,0,0,26.73-21.26l.06-.61a23.31,23.31,0,0,0,.13-2.51,24.46,24.46,0,0,0-48.79-2.42,22.76,22.76,0,0,0-.13,2.48,24.4,24.4,0,0,0,2.31,10.36,1.41,1.41,0,0,1-.67,1.86,1.4,1.4,0,0,1-1.85-.67,27.22,27.22,0,0,1-2.57-11.54c0-.92,0-1.85.14-2.77a27.24,27.24,0,0,1,54.34,2.69,23.76,23.76,0,0,1-.14,2.8A27.27,27.27,0,0,1,1544.71,581Z" style="fill:#fff"/><path d="M1562.42,366.5a1.78,1.78,0,0,1-1.71-1.28c-.42-1.46-.81-2.94-1.15-4.41a1.78,1.78,0,0,1,3.47-.8c.32,1.4.7,2.81,1.1,4.2a1.77,1.77,0,0,1-1.17,2.21,1.64,1.64,0,0,1-.54.08Z" style="fill:#2d6375"/><path d="M1559.79,353.56A1.79,1.79,0,0,1,1558,352a80.93,80.93,0,0,1-.53-8.94,1.79,1.79,0,0,1,1.77-1.79h0a1.78,1.78,0,0,1,1.82,1.74h0a78.76,78.76,0,0,0,.52,8.54,1.79,1.79,0,0,1-1.55,2h0Zm-.07-17.49h-.19a1.77,1.77,0,0,1-1.58-2v0a82.62,82.62,0,0,1,1.44-8.84,1.78,1.78,0,1,1,3.48.77,80.4,80.4,0,0,0-1.38,8.45A1.77,1.77,0,0,1,1559.72,336.07ZM1563.5,319a1.91,1.91,0,0,1-.58-.1,1.79,1.79,0,0,1-1.11-2.27,79.71,79.71,0,0,1,3.38-8.3,1.78,1.78,0,0,1,3.22,1.53h0a77.86,77.86,0,0,0-3.22,7.93,1.79,1.79,0,0,1-1.69,1.2ZM1571,303.2a1.77,1.77,0,0,1-1.78-1.79,1.82,1.82,0,0,1,.26-.94,84.54,84.54,0,0,1,5.14-7.33,1.78,1.78,0,1,1,2.81,2.2h0a79.28,79.28,0,0,0-4.92,7A1.75,1.75,0,0,1,1571,303.2Zm10.82-13.74a1.79,1.79,0,0,1-1.27-3,81.92,81.92,0,0,1,6.63-6,1.78,1.78,0,1,1,2.24,2.77h0a80.19,80.19,0,0,0-6.34,5.75,1.78,1.78,0,0,1-1.26.48Zm13.58-11a1.79,1.79,0,0,1-1-3.29,80.78,80.78,0,0,1,7.8-4.4,1.78,1.78,0,1,1,1.58,3.2h0a75.66,75.66,0,0,0-7.45,4.2,1.69,1.69,0,0,1-.93.28Zm75.39-5a1.83,1.83,0,0,1-.76-.17,76.79,76.79,0,0,0-7.94-3.17,1.79,1.79,0,0,1-1.12-2.26,1.76,1.76,0,0,1,2.22-1.13h0a77.51,77.51,0,0,1,8.32,3.32,1.78,1.78,0,0,1-.75,3.4Zm-59.7-2.75a1.78,1.78,0,0,1-.61-3.46,80.64,80.64,0,0,1,8.59-2.56,1.78,1.78,0,1,1,.82,3.47h0a75.53,75.53,0,0,0-8.19,2.45A1.77,1.77,0,0,1,1611.08,270.71Zm43.14-2.85h-.37a75.54,75.54,0,0,0-8.46-1.33,1.78,1.78,0,0,1,.36-3.55,82.26,82.26,0,0,1,8.85,1.39,1.79,1.79,0,0,1-.38,3.53Zm-26.13-1.2a1.78,1.78,0,0,1-.22-3.55,81,81,0,0,1,8.94-.58h0a1.78,1.78,0,0,1,0,3.56h0a78.82,78.82,0,0,0-8.54.56Z" style="fill:#2d6375"/><path d="M1682.3,280.07a1.88,1.88,0,0,1-1-.32c-1.19-.83-2.41-1.63-3.64-2.38a1.78,1.78,0,1,1,1.47-3.24,1.58,1.58,0,0,1,.39.24c1.29.79,2.57,1.63,3.82,2.49a1.79,1.79,0,0,1,.44,2.48A1.75,1.75,0,0,1,1682.3,280.07Z" style="fill:#2d6375"/><path d="M1715.17,333.2a1.79,1.79,0,0,1-1.77-1.53c-.2-1.44-.45-2.88-.74-4.29a1.78,1.78,0,0,1,3.49-.72c.3,1.48.57,3,.78,4.5a1.78,1.78,0,0,1-1.51,2Z" style="fill:#2d6375"/><path d="M1637.7,422.78c-1.23,0-2.46,0-3.7-.08a1.78,1.78,0,1,1,.16-3.56,76.28,76.28,0,0,0,8.42-.08,1.78,1.78,0,1,1,.23,3.56C1641.08,422.73,1639.41,422.78,1637.7,422.78Zm-12.19-.94a1.22,1.22,0,0,1-.27,0,79.59,79.59,0,0,1-8.62-1.83,1.77,1.77,0,0,1-1.26-2.16v0a1.8,1.8,0,0,1,2.19-1.26,77.2,77.2,0,0,0,8.23,1.75,1.78,1.78,0,0,1-.27,3.54Zm25.74-.24a1.78,1.78,0,0,1-.31-3.54,73.72,73.72,0,0,0,8.19-1.91,1.78,1.78,0,0,1,1,3.42,78.51,78.51,0,0,1-8.58,2Zm-42.35-4.25a1.82,1.82,0,0,1-.65-.12,81.39,81.39,0,0,1-8-3.68,1.79,1.79,0,0,1,1.67-3.16,76.46,76.46,0,0,0,7.64,3.52,1.78,1.78,0,0,1-.65,3.44Zm58.85-.58a1.78,1.78,0,0,1-.68-3.43,77.57,77.57,0,0,0,7.57-3.66,1.78,1.78,0,1,1,1.73,3.12,80.34,80.34,0,0,1-7.93,3.83A1.81,1.81,0,0,1,1667.75,416.77Zm15-8.33a1.77,1.77,0,0,1-1.45-.75,1.79,1.79,0,0,1,.42-2.49,75.74,75.74,0,0,0,6.6-5.23,1.79,1.79,0,0,1,2.36,2.68,77.28,77.28,0,0,1-6.9,5.46,1.72,1.72,0,0,1-1,.33ZM1695.68,397a1.78,1.78,0,0,1-1.32-3,77.34,77.34,0,0,0,5.31-6.54,1.79,1.79,0,0,1,2.48-.47,1.77,1.77,0,0,1,.46,2.47l-.06.09a77.45,77.45,0,0,1-5.55,6.84A1.79,1.79,0,0,1,1695.68,397Zm10.09-13.93a1.79,1.79,0,0,1-1.55-2.67,73.47,73.47,0,0,0,3.75-7.54,1.79,1.79,0,0,1,3.28,1.41,78.48,78.48,0,0,1-3.93,7.9,1.79,1.79,0,0,1-1.55.94Zm6.8-15.81a1.57,1.57,0,0,1-.52-.08,1.78,1.78,0,0,1-1.19-2.22h0a74.45,74.45,0,0,0,2-8.18,1.79,1.79,0,0,1,3.51.66,78.57,78.57,0,0,1-2.1,8.56,1.79,1.79,0,0,1-1.7,1.3Zm3.17-16.91h-.14a1.78,1.78,0,0,1-1.64-1.91h0v-.54c.13-1.78.19-3.59.19-5.36V340a1.78,1.78,0,1,1,3.56-.12h0c0,.88,0,1.75,0,2.64,0,1.85-.07,3.74-.2,5.6v.56a1.78,1.78,0,0,1-1.82,1.69Z" style="fill:#2d6375"/><path d="M1593.62,409.27a1.79,1.79,0,0,1-1-.31c-1.27-.86-2.51-1.75-3.7-2.67a1.78,1.78,0,0,1,2.17-2.83q1.71,1.32,3.53,2.55a1.77,1.77,0,0,1,.48,2.47h0A1.77,1.77,0,0,1,1593.62,409.27Z" style="fill:#2d6375"/><path d="M1595.31,385.46a1,1,0,0,0,1.06.29l10.71-3.95a49.79,49.79,0,0,0,14.22,7.66l2.62,11.13a.94.94,0,0,0,.82.72l13.66,1.38a.91.91,0,0,0,.94-.54l4.8-10.38a49.87,49.87,0,0,0,15.47-4.65l9.73,6a.93.93,0,0,0,1.09-.07l10.64-8.68a.93.93,0,0,0,.28-1.05l-4-10.74a49.79,49.79,0,0,0,7.66-14.22l11.13-2.62a1,1,0,0,0,.73-.82l1.38-13.66a1,1,0,0,0-.54-.95l-10.38-4.8a49.89,49.89,0,0,0-4.65-15.46l6-9.73a1,1,0,0,0-.07-1.09l-8.53-10.62a.94.94,0,0,0-1-.29l-10.74,3.95a49.71,49.71,0,0,0-14.23-7.66l-2.62-11.13a.94.94,0,0,0-.82-.72L1637,281.38a.93.93,0,0,0-1,.54l-4.8,10.38A50,50,0,0,0,1615.8,297l-9.73-6a.93.93,0,0,0-1.09.07l-10.63,8.68a.93.93,0,0,0-.29,1.05l4,10.74a50,50,0,0,0-7.66,14.22l-11.27,2.6a.94.94,0,0,0-.72.82L1577,342.79a1,1,0,0,0,.54.95l10.39,4.8a49.81,49.81,0,0,0,4.65,15.46l-6,9.74a.93.93,0,0,0,.07,1.08Z" style="fill:#071841"/><path d="M1637.66,356a14,14,0,1,1,2-.15A14,14,0,0,1,1637.66,356Zm0-24.38a9.84,9.84,0,0,0-1.53.11,10.41,10.41,0,0,0,3,20.59h0a10.41,10.41,0,0,0-1.51-20.7Z" style="fill:#fff"/><path d="M1637.91,376.74a35.16,35.16,0,0,1-3.55-.18h0a35,35,0,0,1-7.28-1.56,1.81,1.81,0,0,1-1.23-1.7,2,2,0,0,1,.08-.55,1.81,1.81,0,0,1,2.25-1.15,31,31,0,0,0,6.53,1.37h0A31.38,31.38,0,0,0,1669,345.73c0-.26.06-.52.08-.78a31.35,31.35,0,1,0-59.56,10.14,1.83,1.83,0,0,1,.17.76,1.79,1.79,0,0,1-3.4.76,34.91,34.91,0,1,1,66.52-14.89c0,1.19-.06,2.39-.18,3.59A35,35,0,0,1,1637.91,376.74Z" style="fill:#fff"/><path d="M1380.8,682.9a1.64,1.64,0,0,1-1.58-1.19c-.4-1.35-.76-2.72-1.08-4.08a1.65,1.65,0,1,1,3.22-.74h0c.3,1.29.64,2.6,1,3.89a1.65,1.65,0,0,1-1.11,2.05h0A2.13,2.13,0,0,1,1380.8,682.9Z" style="fill:#2d6375"/><path d="M1378.36,670.93a1.64,1.64,0,0,1-1.63-1.46,73.86,73.86,0,0,1-.5-8.27,1.66,1.66,0,0,1,1.64-1.66h0a1.65,1.65,0,0,1,1.65,1.65h0a71.88,71.88,0,0,0,.47,7.9,1.65,1.65,0,0,1-1.44,1.83Zm-.06-16.18h-.22a1.64,1.64,0,0,1-1.46-1.8h0a75.15,75.15,0,0,1,1.33-8.17,1.65,1.65,0,0,1,3.25.58l0,.13a73.85,73.85,0,0,0-1.27,7.81A1.65,1.65,0,0,1,1378.3,654.75Zm3.49-15.78a1.6,1.6,0,0,1-.53-.09,1.66,1.66,0,0,1-1-2.09,75.26,75.26,0,0,1,3.12-7.68,1.66,1.66,0,1,1,3,1.41,74.12,74.12,0,0,0-3,7.33,1.64,1.64,0,0,1-1.59,1.15Zm6.93-14.62a1.65,1.65,0,0,1-1.4-2.52,74.22,74.22,0,0,1,4.75-6.78,1.65,1.65,0,0,1,2.85,1.66,1.46,1.46,0,0,1-.26.34,71,71,0,0,0-4.54,6.48A1.65,1.65,0,0,1,1388.72,624.35Zm10-12.71a1.68,1.68,0,0,1-1.16-.47,1.64,1.64,0,0,1,0-2.32h0a75.1,75.1,0,0,1,6.13-5.57,1.65,1.65,0,0,1,2.08,2.56,73.79,73.79,0,0,0-5.86,5.32,1.65,1.65,0,0,1-1.19.49Zm12.56-10.18a1.65,1.65,0,0,1-1.59-1.71,1.67,1.67,0,0,1,.7-1.29,75.23,75.23,0,0,1,7.21-4.07,1.67,1.67,0,0,1,1.46,3,71.66,71.66,0,0,0-6.89,3.89,1.61,1.61,0,0,1-.89.18Zm69.72-4.64a1.65,1.65,0,0,1-.69-.15,68.65,68.65,0,0,0-7.35-2.94,1.65,1.65,0,0,1,1-3.13,73,73,0,0,1,7.69,3.08,1.66,1.66,0,0,1,.78,2.2,1.64,1.64,0,0,1-1.48.94Zm-55.22-2.51a1.65,1.65,0,0,1-.56-3.2,73.63,73.63,0,0,1,7.93-2.37,1.65,1.65,0,1,1,.77,3.21h0a71.67,71.67,0,0,0-7.58,2.26,1.54,1.54,0,0,1-.56.1Zm39.9-2.64h-.35a68.74,68.74,0,0,0-7.82-1.23,1.65,1.65,0,0,1,.18-3.3l.15,0a70.64,70.64,0,0,1,8.18,1.29,1.65,1.65,0,0,1-.34,3.26Zm-24.17-1.11a1.65,1.65,0,0,1-.2-3.28,71.3,71.3,0,0,1,8.26-.54h0a1.65,1.65,0,1,1,0,3.3,69.36,69.36,0,0,0-7.89.51Z" style="fill:#2d6375"/><path d="M1491.66,603a1.69,1.69,0,0,1-.94-.3c-1.1-.76-2.23-1.5-3.37-2.2a1.65,1.65,0,0,1,1.7-2.83l0,0c1.19.73,2.37,1.51,3.52,2.31a1.64,1.64,0,0,1,.4,2.3,1.61,1.61,0,0,1-1.34.7Z" style="fill:#2d6375"/><path d="M1522.08,652.09a1.65,1.65,0,0,1-1.63-1.41c-.19-1.33-.43-2.66-.69-4A1.65,1.65,0,0,1,1523,646c.28,1.37.52,2.77.72,4.16a1.65,1.65,0,0,1-1.39,1.87h0Z" style="fill:#2d6375"/><path d="M1450.41,735c-1.13,0-2.27,0-3.42-.08a1.65,1.65,0,0,1-1.57-1.73h0a1.68,1.68,0,0,1,1.72-1.57,69.79,69.79,0,0,0,7.79-.07,1.65,1.65,0,0,1,.21,3.3C1453.58,734.89,1452,735,1450.41,735Zm-11.27-.87h-.25a75.84,75.84,0,0,1-8-1.69,1.65,1.65,0,0,1,.86-3.19,70.7,70.7,0,0,0,7.62,1.62,1.65,1.65,0,0,1-.25,3.28Zm23.8-.23a1.65,1.65,0,0,1-.28-3.27,70,70,0,0,0,7.58-1.77,1.65,1.65,0,1,1,.92,3.17h0a74.15,74.15,0,0,1-7.93,1.85,1.43,1.43,0,0,1-.29,0ZM1423.78,730a1.77,1.77,0,0,1-.6-.11,75,75,0,0,1-7.41-3.4,1.66,1.66,0,0,1-.69-2.23,1.64,1.64,0,0,1,2.23-.69h0a71.58,71.58,0,0,0,7.07,3.25,1.64,1.64,0,0,1-.6,3.18Zm54.43-.53a1.66,1.66,0,0,1-.64-3.18,66.38,66.38,0,0,0,7-3.39,1.65,1.65,0,1,1,1.6,2.89h0a76.12,76.12,0,0,1-7.33,3.55,1.91,1.91,0,0,1-.63.08Zm13.92-7.71a1.65,1.65,0,0,1-1-3,69.79,69.79,0,0,0,6.11-4.84,1.65,1.65,0,0,1,2.18,2.47,74.16,74.16,0,0,1-6.38,5.06,1.72,1.72,0,0,1-.91.26Zm11.95-10.59a1.63,1.63,0,0,1-1.11-.43,1.64,1.64,0,0,1-.12-2.32h0a70.42,70.42,0,0,0,4.9-6,1.65,1.65,0,0,1,2.67,1.93,75.83,75.83,0,0,1-5.13,6.33A1.64,1.64,0,0,1,1504.08,711.14Zm9.33-12.89a1.7,1.7,0,0,1-.82-.21,1.65,1.65,0,0,1-.61-2.25,71.05,71.05,0,0,0,3.46-7,1.65,1.65,0,1,1,3,1.3,70.83,70.83,0,0,1-3.63,7.3,1.64,1.64,0,0,1-1.44.86Zm6.28-14.62a1.64,1.64,0,0,1-1.64-1.64,1.66,1.66,0,0,1,.07-.49,72.45,72.45,0,0,0,1.85-7.56,1.65,1.65,0,0,1,3.24.61,74.17,74.17,0,0,1-1.94,7.91,1.64,1.64,0,0,1-1.62,1.17Zm2.89-15.63h-.12a1.65,1.65,0,0,1-1.52-1.77v-.49c.12-1.65.18-3.32.18-5v-2.33a1.65,1.65,0,0,1,3.29-.11v2.44c0,1.72-.06,3.46-.17,5.18v.52A1.66,1.66,0,0,1,1522.58,668Z" style="fill:#2d6375"/><path d="M1409.64,722.45a1.66,1.66,0,0,1-.92-.28c-1.17-.8-2.32-1.63-3.42-2.47a1.65,1.65,0,0,1,2-2.62c1,.81,2.15,1.6,3.26,2.36a1.64,1.64,0,0,1,.4,2.3,1.66,1.66,0,0,1-1.33.7Z" style="fill:#2d6375"/><path d="M1411.21,700.43a.91.91,0,0,0,1,.27l9.87-3.7a46.08,46.08,0,0,0,13.15,7.08l2.43,10.3a.87.87,0,0,0,.75.67l12.64,1.28a.88.88,0,0,0,.87-.5l4.44-9.6a46.27,46.27,0,0,0,14.31-4.31l9,5.57a.87.87,0,0,0,1-.06l9.84-8a.86.86,0,0,0,.26-1l-3.65-9.93a46.14,46.14,0,0,0,7.08-13.16l10.3-2.42a.86.86,0,0,0,.67-.76l1.28-12.63a.89.89,0,0,0-.51-.88l-9.6-4.43a46,46,0,0,0-4.26-14.22l5.57-9a.86.86,0,0,0-.06-1l-8-9.83a.87.87,0,0,0-1-.27l-9.94,3.65a46.08,46.08,0,0,0-13.15-7.08l-2.42-10.35a.87.87,0,0,0-.76-.67l-12.63-1.28a.87.87,0,0,0-.88.5l-4.44,9.6a46.19,46.19,0,0,0-14.3,4.3l-9-5.57a.88.88,0,0,0-1,.07l-9.83,8a.87.87,0,0,0-.27,1l3.65,9.93a46.08,46.08,0,0,0-7.08,13.15l-10.29,2.43a.87.87,0,0,0-.67.76L1394.29,661a.85.85,0,0,0,.5.87l9.6,4.44a46.33,46.33,0,0,0,4.3,14.31l-5.57,9a.87.87,0,0,0,.07,1Z" style="fill:#5ecff5"/><path d="M1450.38,673.19a12.93,12.93,0,1,1,1.89-.14A11.94,11.94,0,0,1,1450.38,673.19Zm0-22.55a9.58,9.58,0,1,0,1.4,19.11h0a9.63,9.63,0,0,0-1.4-19.15Z" style="fill:#fff"/><path d="M1450.61,692.37c-1.09,0-2.18-.06-3.28-.17h0a33,33,0,0,1-6.73-1.41,1.64,1.64,0,0,1-1.14-1.57,1.81,1.81,0,0,1,.08-.51,1.66,1.66,0,0,1,2.08-1.06,29.27,29.27,0,0,0,6,1.27h0a29,29,0,0,0,31.68-25.2,2.21,2.21,0,0,1,.08-.72q.15-1.5.15-3a29,29,0,1,0-55.24,12.36,1.56,1.56,0,0,1,.16.7,1.65,1.65,0,0,1-3.14.7,32,32,0,0,1-3-13.68,32.29,32.29,0,0,1,64.57-.08c0,1.1-.06,2.2-.17,3.31A32.34,32.34,0,0,1,1450.61,692.37Z" style="fill:#fff"/><g style="opacity:0.6399999856948853"><path d="M397.5,417.74a1.51,1.51,0,0,1-1.45-1.08c-.37-1.24-.7-2.5-1-3.75a1.51,1.51,0,1,1,2.95-.68c.28,1.19.59,2.39.94,3.57a1.51,1.51,0,0,1-1,1.88A1.61,1.61,0,0,1,397.5,417.74Z" style="fill:#2d6375"/><path d="M395.26,406.76a1.52,1.52,0,0,1-1.5-1.34,68.7,68.7,0,0,1-.45-7.59,1.5,1.5,0,0,1,1.48-1.52h0a1.51,1.51,0,0,1,1.51,1.5,65.19,65.19,0,0,0,.44,7.26,1.52,1.52,0,0,1-1.33,1.68Zm0-14.85h-.18a1.51,1.51,0,0,1-1.34-1.66,70.75,70.75,0,0,1,1.22-7.51,1.54,1.54,0,0,1,3,.66,66.93,66.93,0,0,0-1.17,7.17,1.51,1.51,0,0,1-1.58,1.34Zm3.2-14.49a1.67,1.67,0,0,1-.49-.08,1.51,1.51,0,0,1-.94-1.92h0a71.71,71.71,0,0,1,2.86-7.05,1.51,1.51,0,0,1,2.74,1.29,64.68,64.68,0,0,0-2.74,6.74,1.5,1.5,0,0,1-1.48,1ZM404.77,364a1.52,1.52,0,0,1-1.29-2.31h0a67.47,67.47,0,0,1,4.36-6.23,1.52,1.52,0,0,1,2.39,1.87,68.35,68.35,0,0,0-4.18,5.95A1.48,1.48,0,0,1,404.77,364ZM414,352.33a1.5,1.5,0,0,1-1.06-2.57,71.81,71.81,0,0,1,5.64-5.11,1.51,1.51,0,1,1,1.9,2.35h0a69,69,0,0,0-5.38,4.88A1.52,1.52,0,0,1,414,352.33ZM425.48,343a1.52,1.52,0,0,1-.82-2.79,68.48,68.48,0,0,1,6.62-3.74,1.51,1.51,0,1,1,1.34,2.71h0a64.49,64.49,0,0,0-6.32,3.58A1.57,1.57,0,0,1,425.48,343Zm64-4.26a1.57,1.57,0,0,1-.64-.14,62.47,62.47,0,0,0-6.75-2.7,1.52,1.52,0,0,1,1-2.87,68.31,68.31,0,0,1,7.06,2.82,1.52,1.52,0,0,1-.64,2.89Zm-50.7-2.31a1.52,1.52,0,0,1-.52-2.94,68.53,68.53,0,0,1,7.29-2.17,1.51,1.51,0,0,1,.7,2.94,65.4,65.4,0,0,0-7,2.08,1.44,1.44,0,0,1-.46.08ZM475.42,334a.86.86,0,0,1-.32,0,69.6,69.6,0,0,0-7.18-1.13,1.51,1.51,0,0,1,.13-3l.17,0a67.8,67.8,0,0,1,7.51,1.18,1.52,1.52,0,0,1-.31,3Zm-22.19-1a1.51,1.51,0,0,1-.19-3,68.76,68.76,0,0,1,7.59-.5h0a1.52,1.52,0,0,1,0,3,65.2,65.2,0,0,0-7.25.47Z" style="fill:#2d6375"/><path d="M499.27,344.36a1.59,1.59,0,0,1-.87-.27c-1-.7-2-1.38-3.09-2a1.52,1.52,0,0,1,1.39-2.71,1.37,1.37,0,0,1,.2.13c1.09.67,2.18,1.38,3.23,2.11a1.51,1.51,0,0,1,.39,2.1h0A1.49,1.49,0,0,1,499.27,344.36Z" style="fill:#2d6375"/></g><g style="opacity:0.6399999856948853"><path d="M527.17,389.47a1.52,1.52,0,0,1-1.49-1.3c-.18-1.22-.39-2.45-.64-3.64a1.53,1.53,0,1,1,3-.61c.26,1.26.48,2.54.66,3.82a1.5,1.5,0,0,1-1.26,1.71h0Z" style="fill:#2d6375"/><path d="M461.4,465.52c-1,0-2.08,0-3.14-.07a1.51,1.51,0,0,1-1.44-1.58h0a1.54,1.54,0,0,1,1.58-1.44,65.6,65.6,0,0,0,7.15-.07,1.52,1.52,0,1,1,.64,3,1.68,1.68,0,0,1-.45,0C464.31,465.48,462.85,465.52,461.4,465.52Zm-10.32-.79h-.24a67.86,67.86,0,0,1-7.31-1.55,1.52,1.52,0,0,1,.78-2.93,67,67,0,0,0,7,1.49,1.51,1.51,0,0,1-.23,3Zm21.84-.21a1.51,1.51,0,0,1-.26-3,64.58,64.58,0,0,0,7-1.63,1.52,1.52,0,0,1,1.07,2.85l-.22.06a66.86,66.86,0,0,1-7.28,1.7,1.22,1.22,0,0,1-.33,0ZM437,460.91a1.54,1.54,0,0,1-.56-.1,66.25,66.25,0,0,1-6.8-3.13A1.51,1.51,0,0,1,431,455h0a64.59,64.59,0,0,0,6.49,3,1.51,1.51,0,0,1-.55,2.92Zm50-.49a1.51,1.51,0,0,1-.58-2.91,65.63,65.63,0,0,0,6.43-3.11,1.51,1.51,0,1,1,1.46,2.65,67.19,67.19,0,0,1-6.73,3.25,1.41,1.41,0,0,1-.64.12Zm12.78-7.07a1.51,1.51,0,0,1-.88-2.75,65,65,0,0,0,5.6-4.44,1.52,1.52,0,0,1,2,2.27,67.43,67.43,0,0,1-5.86,4.64,1.52,1.52,0,0,1-.92.28Zm10.93-9.68a1.55,1.55,0,0,1-1-.39,1.53,1.53,0,0,1-.1-2.14,66.49,66.49,0,0,0,4.5-5.55,1.51,1.51,0,0,1,2.45,1.77,67.14,67.14,0,0,1-4.71,5.81,1.5,1.5,0,0,1-1.2.5Zm8.57-11.83a1.52,1.52,0,0,1-1.32-2.26h0a63.5,63.5,0,0,0,3.18-6.4,1.52,1.52,0,0,1,2.79,1.2,69.67,69.67,0,0,1-3.34,6.7,1.52,1.52,0,0,1-1.37.76ZM525,418.42a1.31,1.31,0,0,1-.44-.07,1.5,1.5,0,0,1-1-1.87h0a66.24,66.24,0,0,0,1.7-6.94,1.53,1.53,0,1,1,3,.55,62.65,62.65,0,0,1-1.78,7.27,1.51,1.51,0,0,1-1.54,1.07Zm2.69-14.35h-.12a1.5,1.5,0,0,1-1.39-1.6V402c.1-1.52.16-3.05.16-4.56V395.3a1.52,1.52,0,0,1,3-.1v2.24a47.31,47.31,0,0,1-.16,4.76v.48a1.51,1.51,0,0,1-1.58,1.39Z" style="fill:#2d6375"/><path d="M424,454.05a1.52,1.52,0,0,1-.85-.26c-1.07-.73-2.13-1.49-3.14-2.26a1.52,1.52,0,0,1,1.85-2.41c1,.74,2,1.47,3,2.17a1.51,1.51,0,0,1-.85,2.76Z" style="fill:#2d6375"/></g><path d="M425.42,433.84a.79.79,0,0,0,.89.24l9.12-3.35a42.51,42.51,0,0,0,12.08,6.5l2.22,9.45a.8.8,0,0,0,.7.61L462,448.47a.82.82,0,0,0,.81-.46l4.07-8.81a42.79,42.79,0,0,0,13.13-4l8.26,5.11a.8.8,0,0,0,.93-.06l9-7.37a.79.79,0,0,0,.24-.89l-3.35-9.12a42.08,42.08,0,0,0,6.5-12.07l9.45-2.23a.78.78,0,0,0,.61-.69l1.18-11.6a.78.78,0,0,0-.46-.8l-8.82-4.08a42.23,42.23,0,0,0-3.94-13.13l5.11-8.26a.8.8,0,0,0-.06-.93l-7.37-9a.78.78,0,0,0-.89-.25l-9.12,3.35a42.71,42.71,0,0,0-12.07-6.5l-2.15-9.42a.8.8,0,0,0-.69-.61l-11.6-1.18a.79.79,0,0,0-.8.46l-4.08,8.82a42,42,0,0,0-13.13,3.95l-8.26-5.12a.81.81,0,0,0-.93.06l-9,7.37a.81.81,0,0,0-.24.89L427.7,371a42.59,42.59,0,0,0-6.62,12.08l-9.45,2.22a.81.81,0,0,0-.61.7l-1.18,11.59a.83.83,0,0,0,.46.81l8.82,4.07a42.53,42.53,0,0,0,4,13.13L418,423.88a.81.81,0,0,0,.06.93Z" style="fill:#071841"/><path d="M461.37,408.84a11.89,11.89,0,1,1,1.74-.13A12.62,12.62,0,0,1,461.37,408.84Zm0-20.7a9.47,9.47,0,0,0-1.3.09,8.83,8.83,0,0,0,2.58,17.48h0a8.83,8.83,0,0,0-1.28-17.57Z" style="fill:#bdd0fb"/><path d="M461.58,426.44a27.41,27.41,0,0,1-3-.16h0a29.57,29.57,0,0,1-6.17-1.29,1.52,1.52,0,0,1-1.05-1.44,1.84,1.84,0,0,1,.07-.47,1.53,1.53,0,0,1,1.91-1,27.13,27.13,0,0,0,5.55,1.16h0A26.61,26.61,0,0,0,488,400.11a2.12,2.12,0,0,1,.07-.66c.09-.91.14-1.83.14-2.73a26.61,26.61,0,0,0-53.1-2.6c-.09.9-.14,1.8-.14,2.7a26.6,26.6,0,0,0,2.51,11.27,1.43,1.43,0,0,1,.15.64,1.52,1.52,0,0,1-2.89.65,29.63,29.63,0,0,1-2.8-12.56,20.1,20.1,0,0,1,.15-3,29.64,29.64,0,0,1,59.13,2.93,28.19,28.19,0,0,1-.16,3.05A29.67,29.67,0,0,1,461.58,426.44Z" style="fill:#bdd0fb"/><circle cx="392.01" cy="252.96" r="77.81" style="fill:#73d0d9"/><circle cx="392.74" cy="252.67" r="65.86" transform="translate(-63.64 351.71) rotate(-45)" style="fill:#fff;opacity:0.699999988079071;isolation:isolate"/><path d="M412.87,227.77c0,11.15-9,23.19-20.19,23.19s-20.19-12-20.19-23.19,9-19.06,20.19-19.06S412.87,216.62,412.87,227.77Z" style="fill:#4aa4c2"/><path d="M367.62,293.9h49.29a12,12,0,0,0,11.37-8.3l2.65-8.29a11.93,11.93,0,0,0-7.2-14.83c-20.06-7.33-40.8-6.39-62,.68a11.9,11.9,0,0,0-7.62,14.4l2,7.53A11.93,11.93,0,0,0,367.62,293.9Z" style="fill:#4aa4c2"/><circle cx="301.25" cy="386.52" r="77.81" style="fill:#73d0d9"/><circle cx="300.97" cy="387.19" r="65.86" transform="translate(-185.63 326.22) rotate(-45)" style="fill:#fff;opacity:0.699999988079071;isolation:isolate"/><path d="M321.08,362.33c0,11.15-9,23.19-20.19,23.19s-20.19-12-20.19-23.19,9-19.07,20.19-19.07S321.08,351.17,321.08,362.33Z" style="fill:#506c75"/><path d="M275.86,428.45h49.29a11.93,11.93,0,0,0,11.37-8.29l2.65-8.29A11.92,11.92,0,0,0,332,397c-20.06-7.34-40.81-6.4-62.05.67a11.88,11.88,0,0,0-7.62,14.4l2,7.53A11.93,11.93,0,0,0,275.86,428.45Z" style="fill:#506c75"/><circle cx="371.43" cy="523.43" r="72.32" style="fill:#73d0d9"/><circle cx="371.01" cy="524" r="61.21" transform="translate(-261.86 415.82) rotate(-45)" style="fill:#fff;opacity:0.699999988079071;isolation:isolate"/><path d="M389.75,500.87c0,10.37-8.4,21.56-18.77,21.56s-18.76-11.19-18.76-21.56,8.4-17.71,18.76-17.71S389.75,490.51,389.75,500.87Z" style="fill:#41b3a7"/><path d="M347.69,562.33H393.5a11.1,11.1,0,0,0,10.58-7.71l2.46-7.7a11.08,11.08,0,0,0-6.69-13.79c-18.65-6.81-37.92-5.94-57.67.63a11.07,11.07,0,0,0-7.1,13.39l1.9,7A11.1,11.1,0,0,0,347.69,562.33Z" style="fill:#41b3a7"/><path d="M1927.4,591.29,1599,589.71c-4,0-7.17,4.34-7.14,9.73l.72,129.94c0,5.41,3.33,9.74,7.31,9.57l326.55-7c3.8-.16,6.83-4.36,6.88-9.53l1.15-121.36C1934.5,595.71,1931.34,591.32,1927.4,591.29Z" style="fill:#41b3a7"/><rect x="1612.29" y="658.43" width="15.98" height="61.08" style="fill:#a2dab0"/><rect x="1639" y="679.42" width="15.98" height="40.09" style="fill:#a2dab0"/><rect x="1665.71" y="627.54" width="15.98" height="91.96" style="fill:#a2dab0"/><rect x="1692.41" y="697.41" width="15.98" height="22.09" style="fill:#bdd0fb"/><rect x="1719.12" y="639.84" width="15.98" height="79.67" style="fill:#a2dab0"/><rect x="1745.82" y="653.63" width="15.98" height="65.87" style="fill:#a2dab0"/><rect x="1772.53" y="668.63" width="15.98" height="50.88" style="fill:#a2dab0"/><rect x="1799.23" y="608.95" width="15.98" height="110.56" style="fill:#a2dab0"/><rect x="1825.94" y="620.65" width="15.98" height="98.86" style="fill:#a2dab0"/><rect x="1852.64" y="638.34" width="15.98" height="81.17" style="fill:#a2dab0"/><rect x="1879.35" y="699.47" width="15.98" height="20.04" style="fill:#a2dab0"/><rect x="1906.06" y="660.53" width="15.98" height="58.98" style="fill:#a2dab0"/><circle cx="1718.25" cy="287.94" r="27.18" style="fill:#66c2ab"/><circle cx="1717.84" cy="287.53" r="23.01" style="fill:#fff;opacity:0.6899999976158142;isolation:isolate"/><path d="M1715.58,304.63v-2.5a20.58,20.58,0,0,1-7-1.52,1.45,1.45,0,0,1-.8-1.71l.64-2.34a1.45,1.45,0,0,1,1.79-1l.21.07a17,17,0,0,0,6.48,1.37c2.51,0,4.39-.86,4.39-2.6,0-1.58-1.45-2.52-4.94-3.45-5-1.37-8.56-3.54-8.56-7.93,0-4,2.89-7,7.92-7.79v-2.5a1.46,1.46,0,0,1,1.46-1.46h1.47a1.46,1.46,0,0,1,1.46,1.46V275a18.75,18.75,0,0,1,5.56,1,1.44,1.44,0,0,1,.91,1.75l-.59,2.16a1.44,1.44,0,0,1-1.76,1l-.16,0a15.4,15.4,0,0,0-5.46-1c-3,0-3.83,1.24-3.83,2.34,0,1.37,1.79,2.3,5.67,3.5,5.53,1.66,7.83,4,7.83,8.09,0,3.79-2.81,7.2-8.26,8.05v2.8a1.46,1.46,0,0,1-1.46,1.46h-1.47a1.46,1.46,0,0,1-1.5-1.42Z" style="fill:#2d6375"/><circle cx="1798.38" cy="254.64" r="47.32" transform="translate(1210.97 1973.34) rotate(-79.19)" style="fill:#66c2ab"/><circle cx="1798.31" cy="254.65" r="40.05" transform="translate(-7.66 447.66) rotate(-14.16)" style="fill:#fff;opacity:0.6899999976158142;isolation:isolate"/><path d="M1794.38,284.4V280a35.43,35.43,0,0,1-12.22-2.65,2.54,2.54,0,0,1-1.4-3l1.11-4.06a2.55,2.55,0,0,1,3.15-1.77l.3.11a29.44,29.44,0,0,0,11.29,2.38c4.37,0,7.63-1.48,7.63-4.52,0-2.75-2.52-4.38-8.6-6-8.67-2.37-14.9-6.15-14.9-13.79,0-6.9,5-12.16,13.79-13.57v-4.36a2.54,2.54,0,0,1,2.54-2.54h2.56a2.54,2.54,0,0,1,2.54,2.54h0v3.91a32.61,32.61,0,0,1,9.69,1.74,2.53,2.53,0,0,1,1.58,3l-1,3.76a2.54,2.54,0,0,1-3,1.92l-.32-.1a26.38,26.38,0,0,0-9.51-1.73c-5.19,0-6.67,2.15-6.67,4.08,0,2.37,3.11,4,9.86,6.08,9.64,2.89,13.64,6.9,13.64,14.09,0,6.6-4.89,12.53-14.38,14v4.88a2.54,2.54,0,0,1-2.54,2.54h-2.56A2.54,2.54,0,0,1,1794.38,284.4Z" style="fill:#2d6375"/><circle cx="1832.18" cy="363.98" r="48.69" transform="translate(1054.09 2062.2) rotate(-76.62)" style="fill:#66c2ab"/><circle cx="1832.01" cy="363.93" r="41.21" transform="translate(1053.42 2061.72) rotate(-76.6)" style="fill:#fff;opacity:0.6899999976158142;isolation:isolate"/><path d="M1828.08,394.61v-4.48a36.53,36.53,0,0,1-12.58-2.73,2.6,2.6,0,0,1-1.43-3.06l1.14-4.18a2.62,2.62,0,0,1,3.23-1.82l.32.11a30.13,30.13,0,0,0,11.61,2.45c4.5,0,7.86-1.53,7.86-4.66,0-2.82-2.59-4.5-8.85-6.18-8.93-2.44-15.34-6.33-15.34-14.19,0-7.1,5.19-12.51,14.19-14v-4.49a2.61,2.61,0,0,1,2.61-2.61h2.64a2.61,2.61,0,0,1,2.61,2.61v4a33,33,0,0,1,10,1.79,2.61,2.61,0,0,1,1.63,3.14l-1,3.86a2.59,2.59,0,0,1-3.18,1.84l-.26-.08a27.23,27.23,0,0,0-9.78-1.78c-5.34,0-6.86,2.22-6.86,4.2,0,2.44,3.2,4.12,10.14,6.26,9.92,3,14,7.09,14,14.49,0,6.79-5,12.9-14.8,14.42v5a2.61,2.61,0,0,1-2.61,2.61h-2.64A2.62,2.62,0,0,1,1828.08,394.61Z" style="fill:#2d6375"/><circle cx="1896.51" cy="295.23" r="35.67" transform="translate(346.72 1427.51) rotate(-45)" style="fill:#66c2ab"/><circle cx="1896.42" cy="295.09" r="30.19" style="fill:#fff;opacity:0.6899999976158142;isolation:isolate"/><path d="M1893.46,317.53v-3.28a27,27,0,0,1-9.22-2,1.89,1.89,0,0,1-1-2.24l.89-3a1.91,1.91,0,0,1,2.34-1.35,1.14,1.14,0,0,1,.26.09,22,22,0,0,0,8.51,1.8c3.29,0,5.75-1.12,5.75-3.42,0-2.06-1.9-3.29-6.48-4.52-6.54-1.79-11.24-4.64-11.24-10.4,0-5.2,3.8-9.17,10.4-10.23v-3.29a1.92,1.92,0,0,1,1.92-1.91h1.92a1.91,1.91,0,0,1,1.92,1.91v2.95a24.49,24.49,0,0,1,7.3,1.31,1.89,1.89,0,0,1,1.19,2.3l-.79,2.76a1.91,1.91,0,0,1-2.34,1.35l-.18-.06a20,20,0,0,0-7.17-1.3c-3.91,0-5,1.62-5,3.08,0,1.79,2.35,3,7.44,4.58,7.26,2.18,10.28,5.2,10.28,10.62,0,5-3.69,9.45-10.84,10.57v3.67a1.92,1.92,0,0,1-1.92,1.92h-1.93a1.92,1.92,0,0,1-2-1.88Z" style="fill:#2d6375"/><path d="M1504.77,181.38c-.08-1-1.13-1.9-2.89-2.61,1.92-1.06,3-2.19,2.89-3.3-.27-3.37-10.92-5.25-23.79-4.21s-23.07,4.6-22.8,8c.08,1,1.12,1.91,2.88,2.61-1.91,1.06-3,2.2-2.88,3.31s1.12,1.9,2.88,2.61c-1.91,1.05-3,2.19-2.88,3.3s1.12,1.9,2.88,2.61c-1.91,1.06-3,2.19-2.88,3.3.12,1.49,2.27,2.69,5.74,3.47a31.43,31.43,0,0,0,.09,3.63c.5,6.2,7.47,11.06,16.69,11.06s17.2-6.63,17.29-12.84a30.57,30.57,0,0,0-.18-4.06c4.41-1.47,7.1-3.27,7-5-.08-1-1.13-1.9-2.89-2.61,1.92-1,3-2.19,2.89-3.3s-1.13-1.9-2.89-2.61C1503.8,183.62,1504.86,182.49,1504.77,181.38Z" style="fill:#071841"/><path d="M1475.08,201.77a54.62,54.62,0,0,1-10.21-.84.28.28,0,0,1-.24-.33v0a.32.32,0,0,1,.36-.24,66.75,66.75,0,0,0,17,.53,72.51,72.51,0,0,0,14.26-2.46.31.31,0,1,1,.17.6,73.73,73.73,0,0,1-14.38,2.48C1479.59,201.67,1477.26,201.77,1475.08,201.77Z" style="fill:#7d97f4"/><path d="M1475.08,195.85a48.49,48.49,0,0,1-12.53-1.36.32.32,0,0,1-.21-.38.31.31,0,0,1,.38-.21c4.46,1.27,11.64,1.66,19.21,1s14.47-2.12,18.67-4.06a.3.3,0,0,1,.4.13v0a.29.29,0,0,1-.13.4h0c-4.27,2-11.33,3.51-18.88,4.12C1479.63,195.76,1477.31,195.85,1475.08,195.85Z" style="fill:#7d97f4"/><path d="M1475.08,189.94a45.3,45.3,0,0,1-13.21-1.59.31.31,0,0,1-.2-.39.3.3,0,0,1,.38-.19h0c4.4,1.45,11.85,1.92,19.93,1.27,7.48-.6,14.47-2.12,18.67-4.06a.32.32,0,0,1,.4.19.31.31,0,0,1-.14.37c-4.27,2-11.33,3.51-18.88,4.12C1479.59,189.85,1477.25,189.94,1475.08,189.94Z" style="fill:#7d97f4"/><path d="M1475.08,184a54,54,0,0,1-11.13-1,.31.31,0,0,1,.14-.61,64.54,64.54,0,0,0,17.86.72c7.42-.6,14.36-2.1,18.58-4a.31.31,0,0,1,.34.52l-.09,0c-4.27,2-11.3,3.47-18.78,4.07C1479.62,183.93,1477.29,184,1475.08,184Z" style="fill:#7d97f4"/><path d="M1449.54,151.54a43.4,43.4,0,0,0-7.79-15.22c-7.66-9.65-20.16-29.28-21.69-56.08-2.24-39,32.32-58.48,63.86-55.83s62.67,26.13,59.26,62.39c-2.1,22.31-14.58,39.23-23.88,49a51.76,51.76,0,0,0-12.39,22c-2.79,10.07-9.43,22.62-25.22,23.39C1461.27,182.09,1452.79,163.05,1449.54,151.54Z" style="fill:#ffd131"/><path d="M1486.91,173.33l11-71.78c.23-1.49,1-2.48,1.63-2.23s1,1.67.8,3.15a.29.29,0,0,1,0,.13l-12.57,71.11c-.09.53-.37.87-.61.75S1486.83,173.84,1486.91,173.33Z" style="fill:#fff"/><path d="M1475.46,173.9l-11-71.78c-.23-1.49-1-2.48-1.63-2.23s-1,1.67-.8,3.15v.13l12.57,71.11c.09.53.36.87.6.75S1475.53,174.41,1475.46,173.9Z" style="fill:#fff"/><path d="M1497.87,95.38a1.15,1.15,0,0,0-1.45-.37l-6.15,2.87-2.13-6.08a1.26,1.26,0,0,0-.75-.75,1.51,1.51,0,0,0-1.88.58h0l-5.06,9.22-4.69-13.12h0a1.43,1.43,0,0,0-.71-.8,1.85,1.85,0,0,0-2.32.45l-7.06,9.73a.86.86,0,0,0,.19,1.19l.06,0a1.18,1.18,0,0,0,1.5-.17l6.22-6.94,5.6,12.48h0a1,1,0,0,0,.49.49,1.18,1.18,0,0,0,1.46-.38l5.41-8.68,2,4.39h0v.09a1.17,1.17,0,0,0,1.45.38l7.29-3.41a.87.87,0,0,0,.58-1.09A.61.61,0,0,0,1497.87,95.38Z" style="fill:#fff;opacity:0.5600000023841858;isolation:isolate"/><path d="M1519.54,125.62a.51.51,0,0,1-.31-.11.52.52,0,0,1-.11-.73h0a80,80,0,0,0,5.17-7.86.53.53,0,0,1,.72-.19.5.5,0,0,1,.2.69v0a81.5,81.5,0,0,1-5.24,8A.51.51,0,0,1,1519.54,125.62Z" style="fill:#fff;opacity:0.5600000023841858;isolation:isolate"/><path d="M1528.62,110a.74.74,0,0,1-.21,0,.52.52,0,0,1-.27-.68h0c11.81-27.21,1.6-50.11,1.49-50.33a.53.53,0,0,1,1-.44,55.3,55.3,0,0,1,3.81,15.13,69.34,69.34,0,0,1-5.3,36.06A.52.52,0,0,1,1528.62,110Z" style="fill:#fff;opacity:0.5600000023841858;isolation:isolate"/><path d="M520.69,1374.82V1085.94c0-34.39,29.76-62.27,66.47-62.27H816.47c36.71,0,66.47,27.88,66.47,62.27v288.88Z" style="fill:#071841"/><path d="M266.57,1389.2v-99.59c0-16.1,25.21-29.15,56.32-29.15H517.16c31.1,0,56.31,13,56.31,29.15v99.59Z" style="fill:#4aa4c2"/><path d="M220.6,1389.2v-99.59c0-16.1,25.21-29.15,56.31-29.15H471.19c31.1,0,56.31,13,56.31,29.15v99.59Z" style="fill:#5ecff5"/><path d="M107.08,1387a3.78,3.78,0,0,0-.11-1.11c-5.53-21.92-33-35.57-33-35.57l-7,.55a5.72,5.72,0,0,0-5,4.1c-5.12,17.57-4.17,28.32-3.2,33h0A257.37,257.37,0,0,0,107.08,1387Z" style="fill:#071841"/><path d="M58.76,1388.05a4.74,4.74,0,0,0,3.45,3.49c12.76,2.68,33.05.52,41.56-.59a4,4,0,0,0,3.28-4A257.15,257.15,0,0,1,58.76,1388.05Z" style="fill:#2d6375"/><path d="M69,1331l-5.65,26.2a4.29,4.29,0,0,0,3.66,3.52,36,36,0,0,0,8.43-.13,5.39,5.39,0,0,0,4.26-6.32h0L87,1331Z" style="fill:url(#f2b2a49f-c692-4e7a-88c1-d74371db18f5)"/><path d="M259.84,1270.9c-10.74-.3-16.3-1.56-19.17-2.73v3.28a2.1,2.1,0,0,0,2,2.15l59-.38a2.69,2.69,0,0,0,2.17-3.92C296.14,1269.94,276.44,1271.37,259.84,1270.9Z" style="fill:#2d6375"/><path d="M303.87,1269.3v-.06c-5-7.15-18.28-22-44.95-28.44l-9.8-.31a4.23,4.23,0,0,0-4,2.65c-1.66,4-4.37,12.55-4.44,25,2.87,1.17,8.43,2.43,19.17,2.73C276.45,1271.37,296.14,1269.94,303.87,1269.3Z" style="fill:#071841"/><path d="M251.79,1222.57c-.12.94-2.3,15.12-3.15,20.62a2.75,2.75,0,0,0,1.55,3,28.85,28.85,0,0,0,8.36,2.2,3.72,3.72,0,0,0,3.72-2.83l6-21.53Z" style="fill:url(#aa15e61c-55d7-49a4-9312-36ff5d4fb620)"/><path d="M130.41,1076.32s-14.08,21.12-18.77,51.63c-4.32,28.07-41.11,185.66-47,210.69a3.51,3.51,0,0,0,2.62,4.2h0a59.67,59.67,0,0,0,14.15,1.7,6.57,6.57,0,0,0,5.76-4L175,1137.31s58.37-11.24,79.79,14.08c12.86,15.2,4.4,41.95-7,79.8,0,0,14.08,7,23.47,2.35,0,0,43.76-68.39,25.82-110.31-8.31-19.4-44.15-38.53-79.8-42.24Z" style="fill:#071841"/><path d="M130.41,1076.32l21.12-187.75s91.53,0,150.2,32.85l-76,158.41a24.38,24.38,0,0,1-22.07,13.9C187.61,1093.66,160.79,1090.78,130.41,1076.32Z" style="fill:#66c2ab"/><path d="M378,871s-5.86,59.85-76.27,50.46c0,0-27,29.81-27.59,56,0,0,128.51,33.2,116.77-100.57Z" style="fill:#66c2ab"/><path d="M121,1055.19s9.39-16.42,23.47-14.08,21.12,16.43,21.12,16.43l-23.47,11.73C132.76,1074,116.33,1069.27,121,1055.19Z" style="fill:#fca372"/><path d="M149.19,947.24s-119.7,54-28.17,108l2,11.71s-72.8,10.51-75.94-74c-2.35-63.36,104.43-104.43,104.43-104.43Z" style="fill:#66c2ab"/><path d="M226.13,860.39l-17.24,36.87s19.2,14.07,38.73,8.57l5-52.35Z" style="fill:#fca372"/><path d="M268.61,820.26c.36.66,7.61,49.94,7.61,49.94L248,873.74l-13.82-45.68S262.67,809.13,268.61,820.26Z" style="fill:#fca372"/><path d="M244.58,832.7a4.09,4.09,0,0,0-.85,3.5l5.35,24.26a3.9,3.9,0,0,0,.38,1c1,1.83,4.61,7.39,10.21,3.36,4.78-3.43,9.21-6.52,13.05-7.12a4.09,4.09,0,0,1,4.65,3.45v0A152,152,0,0,1,279,883.63a4.06,4.06,0,0,1-3.83,4c-5.59.34-16.52.67-25.54-1a4.1,4.1,0,0,1-3.14-2.79c-2-6.33-7.67-24-10-28.81-2.2-4.42-8.74-5.23-11.76-5.37a4.1,4.1,0,0,1-3-1.45c-2.23-2.62-5.7-8.46,1.16-14.06a4.09,4.09,0,0,0,.57-5.67c-2.43-3.11-4.52-8.1.81-13.26s11.43-3.82,15.24-2a4.22,4.22,0,0,0,5-.93,2.75,2.75,0,0,1,2.53-.9A4,4,0,0,0,251.6,808h0c.5-3.81,2.59-8.28,9.36-9.5,12.42-2.23,18.43,10.25,18.1,19s-13.93,10.36-21.62,8.81C251.77,825.1,246.81,830,244.58,832.7Z" style="fill:#061e43"/><path d="M238.49,864s-.07-15.2-6.2-16.71-12.82,2.85-7.68,12C231,870.66,238.49,864,238.49,864Z" style="fill:#fca372"/><polygon points="281.78 833.41 476.57 802.9 474.23 863.92 281.78 847.5 281.78 833.41" style="fill:#506c75"/><path d="M469.88,800.76c-1,12.08,0,50.11.55,62.64a4.23,4.23,0,0,0,4.24,4H478a5.28,5.28,0,0,0,5.21-4.4c3.63-22.45,5.48-43.56,4.24-62.33a4,4,0,0,0-4-3.66h-9.5A4.08,4.08,0,0,0,469.88,800.76Z" style="fill:#506c75"/><path d="M285.5,829.89h-5.76a2,2,0,0,0-1.9,1.54c-1.25,5.71-.31,14.31.18,17.91a1.93,1.93,0,0,0,1.91,1.68h3.65a1.91,1.91,0,0,0,1.91-1.72l1.92-17.3a1.91,1.91,0,0,0-1.72-2.1Z" style="fill:#506c75"/><path d="M378,871s1.07-13.59,2.88-15,15.9-15.51,18.25-15.51,4.69,4.7,0,7-5.87,9.51-5.87,9.51L406,858.09s-9.22,17.57-13.92,19.91S378,871,378,871Z" style="fill:#fca372"/><path d="M1169.93,941.46h264.29a40.42,40.42,0,0,1,40.42,40.42h0V1395H1129.5V981.88a40.42,40.42,0,0,1,40.42-40.42Z" style="fill:#071841"/><path d="M1131.08,940.46h264.29a40.42,40.42,0,0,1,40.42,40.42h0v417H1090.68v-417A40.42,40.42,0,0,1,1131.08,940.46Z" style="fill:#ffd131"/><path d="M1396.94,753.39l346.51-1.51a5.94,5.94,0,0,1,6,5.88v.12l-.74,121.29a5.93,5.93,0,0,1-6,5.9h-.13c-30.56-.91-343.73-4.93-349.72-4.68s-2.71-95.53-1.82-121.24A5.93,5.93,0,0,1,1396.94,753.39Z" style="fill:#41b3a7"/><path d="M1411.77,784.72h0c0,3.28,1.09,5.93,2.44,5.93h132.73c1.35,0,2.45-2.65,2.45-5.93h0c0-3.28-1.1-5.94-2.45-5.94H1414.21C1412.86,778.78,1411.77,781.44,1411.77,784.72Z" style="fill:#a2dab0"/><path d="M1411.77,805h0c0,3.28,1.09,5.94,2.44,5.94h132.73c1.35,0,2.45-2.66,2.45-5.94h0c0-3.28-1.1-5.94-2.45-5.94H1414.21C1412.86,799,1411.77,801.68,1411.77,805Z" style="fill:#a2dab0"/><path d="M1411.77,825.21h0c0,3.28,1.09,5.94,2.44,5.94h132.73c1.35,0,2.45-2.66,2.45-5.94h0c0-3.28-1.1-5.94-2.45-5.94H1414.21C1412.86,819.27,1411.77,821.93,1411.77,825.21Z" style="fill:#a2dab0"/><path d="M1411.77,845.45h0c0,3.28,1.09,5.94,2.44,5.94h132.73c1.35,0,2.45-2.66,2.45-5.94h0c0-3.28-1.1-5.94-2.45-5.94H1414.21C1412.86,839.51,1411.77,842.17,1411.77,845.45Z" style="fill:#a2dab0"/><circle cx="1582.96" cy="788.84" r="23.09" transform="translate(451.59 2148.26) rotate(-76.72)" style="fill:#071841"/><circle cx="1640.41" cy="788.9" r="23.09" transform="translate(-77.37 1391.01) rotate(-45)" style="fill:#071841"/><circle cx="1697.78" cy="789.65" r="23.09" style="fill:#071841"/><path d="M1596.74,784a14.83,14.83,0,1,1-13.72-9.2h.74V771H1583a18.57,18.57,0,1,0,17.16,11.45Z" style="fill:#ffd131"/><path d="M1648.08,802.2a14.83,14.83,0,1,1-7.9-27.38h.75v-3.76h-.75a18.59,18.59,0,1,0,9.76,34.4Z" style="fill:#ffd131"/><path d="M1710.16,798a14.83,14.83,0,1,1-12.27-23.17h.75v-3.76h-.75a18.59,18.59,0,1,0,15.31,29.13Z" style="fill:#ffd131"/><g style="opacity:0.6399999856948853"><path d="M1601.83,821.77H1564.2a4.28,4.28,0,0,0,0,8.55h37.63a4.28,4.28,0,0,0,.42-8.55Z" style="fill:#66c2ab"/><path d="M1659.21,821.77h-37.62a4.28,4.28,0,1,0-.41,8.55h38a4.28,4.28,0,0,0,.42-8.55Z" style="fill:#66c2ab"/><path d="M1679,830.32h37.62a4.28,4.28,0,0,0,.42-8.55h-38a4.28,4.28,0,1,0-.41,8.55Z" style="fill:#66c2ab"/><rect x="1559.93" y="835.07" width="46.18" height="33.73" rx="4.28" style="fill:#66c2ab"/><rect x="1617.31" y="835.07" width="46.18" height="33.73" rx="4.28" style="fill:#66c2ab"/><rect x="1674.69" y="835.07" width="46.18" height="33.73" rx="4.28" style="fill:#66c2ab"/></g><path d="M1293.83,1389s-2.14,12.11-3.19,24.09a8.25,8.25,0,0,0,7.46,9l.44,0c16,.67,50.11,2,62.36,1.41a2.69,2.69,0,0,0,2.55-2.83,2.76,2.76,0,0,0-.19-.85h0a6,6,0,0,0-3.08-3.24l-56.39-25.92Z" style="fill:#071841"/><path d="M1292.08,1381.9l1.71,14.48s9.88,4.6,16.63-.58l-4.09-16.14Z" style="fill:url(#bd40f4b8-4053-423b-9b9a-7bb517de59b8)"/><path d="M1293.37,1109.61c-.74,3.78-4,188.74,15.78,271.62a2.8,2.8,0,0,1-1.65,3.28,48.79,48.79,0,0,1-16.1,3.27,4.85,4.85,0,0,1-4.8-3.48c-5.66-19.23-32.74-115.58-36.27-207.62-4-102.85,0-3.51,0-3.51l2.32-63.57Z" style="fill:#071841"/><path d="M1229,1395.33s-3.4,6.11-6.7,22.35a5,5,0,0,0,4,5.93l.46.07c5.27.51,13.38,1.18,19.88,1.14a5,5,0,0,0,5-5,4.63,4.63,0,0,0,0-.65c-.72-5.93-3-15.65-9.89-23.24Z" style="fill:#071841"/><path d="M1226,1376.7l4,21.9s4,3,11.82.81l-1.91-23.56Z" style="fill:url(#b6856e48-92fa-4241-9667-55cae2aee987)"/><path d="M1215.08,1115.28c-16.17,97.59,3.5,241.19,10.14,269.3a4.4,4.4,0,0,0,3.54,3.33,29.35,29.35,0,0,0,12.65-.51,4,4,0,0,0,2.88-3.7c.89-22.72-.71-162.22,14.36-217.35a12.58,12.58,0,0,1,4.83-6.91l29.24-20.79,2.24-33.6Z" style="fill:#071841"/><path d="M1318.15,930.38c-48.46-.8-101.93,12.72-101.93,12.72-14.44,84.28-2.52,181.5-2.52,181.5,37.51,9.83,79.83-6,79.83-6,6.24-35.23,35.33-134.37,35.33-134.37,23.67-2.94,43.18-9.77,59.24-18.8-12.25-14.2-18-32.27-20.54-43C1350.43,927.78,1333.08,930.63,1318.15,930.38Z" style="fill:#4aa4c2"/><path d="M1461.28,859a9.26,9.26,0,0,0-10.78-3c-7.13,30.13-44.52,54.55-82.94,66.49,2.51,10.68,8.29,28.75,20.54,43C1451.85,929.57,1461.28,859,1461.28,859Z" style="fill:#fca372"/><path d="M1460.13,860.47c.5,1.58-5.27,4-8.67-2.49-.12-3.1-2-16.4-.15-18.93,9.88-13.46,29-30.34,29-30.34a4.55,4.55,0,0,1,.57,6.33l-9.29,9.68c1.94,3.51,4.31,6.47,5.42,10.72a13,13,0,0,1-1.29,9.58,107.07,107.07,0,0,1-6,9.75A12.87,12.87,0,0,1,1460.13,860.47Z" style="fill:#fca372"/><path d="M1467.56,831l-8.47,7.18-2.66,7.15,7.55,8.37s2.54-14.18,4.42-17.25S1469.31,831.89,1467.56,831Z" style="fill:#fca372"/><path d="M1234.81,990l-18.59-46.92s-45.26,30.76-52.7,69.75c8.55.63,24.11,2.85,39.35,10.54C1206.21,1005,1234.81,990,1234.81,990Z" style="fill:#4aa4c2"/><path d="M1274.36,1034.17s-50.81,28.72-68,4.2a19.28,19.28,0,0,1-3.53-15c-15.24-7.69-30.8-9.91-39.35-10.54a53.8,53.8,0,0,0,5.85,36.89c30,54.94,111.72-3,111.72-3Z" style="fill:#fca372"/><path d="M1268.26,1070.51,1296,973.65a2.85,2.85,0,0,1,2.39-2c5-.59,19.59-2.23,36.4-3.65,20.25-1.72,43.77-3.11,57.82-1.92a2.82,2.82,0,0,1,2.6,3,2.94,2.94,0,0,1-.29,1c-8,16.17-40.86,81.93-57.32,103.48a2.82,2.82,0,0,1-2.28,1.12l-64.35-.6a2.84,2.84,0,0,1-2.82-2.84A2.72,2.72,0,0,1,1268.26,1070.51Z" style="fill:#071841"/><path d="M1337.66,959.57l20.1-3.35a1.43,1.43,0,0,1,1.66,1.18,1.35,1.35,0,0,1-.05.69l-2,6a1.41,1.41,0,0,1-1.18,1l-19.35,2.59a1.43,1.43,0,0,1-1.61-1.24,1.3,1.3,0,0,1,0-.52l1.23-5.27A1.44,1.44,0,0,1,1337.66,959.57Z" style="fill:#73d0d9"/><path d="M1322.6,976.59l1.66-8.63a2,2,0,0,1,1.75-1.61l40.62-4.12a2,2,0,0,1,2.14,2.45l-2.58,10.76a2,2,0,0,1-1.84,1.52l-39.69,2a2,2,0,0,1-2.09-1.9A1.83,1.83,0,0,1,1322.6,976.59Z" style="fill:#73d0d9"/><path d="M1275,1047.11s-3.86-15.89-2.31-21.52,4.58-12.89,14.65-11.28a147.09,147.09,0,0,1,21.93,5.85s-.6,7.34-8.25,5l4.75,3.67s-.68,5.87-7.14,2.73l4.41,4.87s-2.77,4.83-7.53,1.73S1288.44,1049,1275,1047.11Z" style="fill:#fca372"/><path d="M1269.08,891l-15.42,44.59a1.6,1.6,0,0,0,.73,1.93c4.2,2.33,19.34,9,37.59-2.53a7.55,7.55,0,0,0,3.49-5.4l5-38.59Z" style="fill:#fca372"/><path d="M1302.61,849.75s16.94,31.87,14.76,44.74-23.15,12-41.47,1.5l-12.82-34.42Z" style="fill:#fca372"/><path d="M1276.71,879.09a1.31,1.31,0,0,0,.67-1.74.69.69,0,0,0-.1-.19c-1.36-2.07-3.9-6.3-4.71-10,0,0-3-1.95,7.75-4.53s26.88-6.59,30.26-15.78c3.3-9-5.37-31.47-19.19-13.53a1.31,1.31,0,0,1-1.83.24,1.14,1.14,0,0,1-.25-.24c-2.27-3-8.22-9.07-16.49-5.36-7.75,3.47-8.62,9.14-8.51,12a1.31,1.31,0,0,1-1.25,1.36,1,1,0,0,1-.3,0c-3.91-.75-13.3-1.39-17.69,8.25-3.61,7.93-1.26,12.42.88,14.62a1.31,1.31,0,0,1-.56,2.17c-2.58.79-5.9,3-5.56,9,.46,8.33,9.77,7.59,12.42,7.21a1.31,1.31,0,0,1,1.17.42c2.27,2.51,12.52,13.2,23.6,14.49a1.33,1.33,0,0,0,1.46-1.19,1.23,1.23,0,0,0-.07-.57l-4.8-13.94a1.33,1.33,0,0,1,.72-1.64Z" style="fill:#061e43"/><path d="M1278.64,881.07s-12.06-8.27-12.94-1.31,10.86,10.09,16.67,7.49Z" style="fill:#fca372"/><path d="M847.15,766a1.33,1.33,0,0,0-.51,1.81,1.27,1.27,0,0,0,.27.34L916,829.65a49.73,49.73,0,0,1,16.18,37.06l-1.63,517.17a2.66,2.66,0,0,0,2.59,2.71h132.55a3,3,0,0,0,2.93-3.07.66.66,0,0,0,0-.14l-27.11-498.59A44.64,44.64,0,0,1,1061.22,845l54.85-38.3a1.16,1.16,0,0,0-.75-2.12l-100.24,12a48.65,48.65,0,0,1-37.72-10.16l-93.19-74.2a3,3,0,0,0-4.22.43,3.1,3.1,0,0,0-.37.57C872.08,747.74,861.08,758.36,847.15,766Z" style="fill:#071841"/><path d="M1613.23,1448.28a6.68,6.68,0,0,0,6.5-5.72l102.73-631.65a6.83,6.83,0,0,0-5.38-7.91,6.63,6.63,0,0,0-7.59,5.5s0,.07,0,.11l-102.72,631.65a6.82,6.82,0,0,0,5.41,7.9A6.49,6.49,0,0,0,1613.23,1448.28Z" style="fill:#070b3b"/><path d="M1959.79,1448.28a6.41,6.41,0,0,0,1.31-.14,6.85,6.85,0,0,0,5.17-8.07l-121.1-623.43a6.6,6.6,0,0,0-7.62-5.39l-.16,0a6.85,6.85,0,0,0-5.17,8.07l121.1,623.43A6.69,6.69,0,0,0,1959.79,1448.28Z" style="fill:#070b3b"/><path d="M1691.61,967h175.55a6.85,6.85,0,0,0,0-13.7H1691.61a6.85,6.85,0,0,0,0,13.7Z" style="fill:#071841"/><path d="M1694.79,967H1864a6.87,6.87,0,0,0,0-13.7H1694.79a6.87,6.87,0,0,0,0,13.7Z" style="fill:#070b3b"/><path d="M1691.61,1081.22h175.55a6.85,6.85,0,0,0,0-13.7H1691.61a6.85,6.85,0,0,0,0,13.7Z" style="fill:#7d97f4"/><path d="M1675.67,1081.22H1888.5a6.85,6.85,0,0,0,0-13.7H1675.67a6.85,6.85,0,0,0,0,13.7Z" style="fill:#070b3b"/><path d="M1691.61,1195.43h175.55a6.85,6.85,0,0,0,0-13.7H1691.61a6.85,6.85,0,0,0,0,13.7Z" style="fill:#7d97f4"/><path d="M1655.34,1195.43h254.74a6.85,6.85,0,0,0,0-13.7H1655.34a6.85,6.85,0,0,0,0,13.7Z" style="fill:#070b3b"/><path d="M1691.61,1309.65h239a6.86,6.86,0,0,0,0-13.71h-239a6.86,6.86,0,0,0,0,13.71Z" style="fill:#7d97f4"/><path d="M1638.9,1309.65h291.67a6.86,6.86,0,0,0,0-13.71H1638.9a6.86,6.86,0,0,0,0,13.71Z" style="fill:#070b3b"/><path d="M1718.24,449.54s11.47,5.58,13.58,12c1.69,5.14,14.37,5.81,15.63,15.92a11.61,11.61,0,0,0,9.71,10.2c13,2,32.91,8.71,36.11,31.2,2.43,17.17-6.32,23.68-15.5,25.93a13,13,0,0,0-9.86,15c1.31,6.54-.65,14.09-12,20.06-25.36,13.38-50.69-31.7-50.69-31.7l-5.14-78.7Z" style="fill:#061e43"/><path d="M1598.87,408s32.63,89,88.23,116.75c0,0-18.5,30.2-28.16,32,0,0-59.4-76-65.45-138.3Z" style="fill:#fca372"/><path d="M1822.47,943.1l1.64,13.49a5.6,5.6,0,0,0,4.89,4.88,86.54,86.54,0,0,0,18.06.28,4.75,4.75,0,0,0,4-6.19c-1.65-5.21-4.68-13-9-17.62h-15a4.61,4.61,0,0,0-4.62,4.6A5.25,5.25,0,0,0,1822.47,943.1Z" style="fill:#071841"/><path d="M1705.26,785.08l-2.52,14.85s8.46,85.68,10,120a26.82,26.82,0,0,1-4,15.26L1694,959l37.38-22.06.74-4.56L1726,924l8-96a29.46,29.46,0,0,0-3.35-16.29l-7.73-14.53Z" style="fill:#fca372"/><path d="M1691.56,962.49h11.93a7.19,7.19,0,0,0,5.7-2.8c3.72-4.83,11.42-14.26,15.1-14.5,5-.34,4.33,17.3,4.33,17.3h2.78l3.52-21.91a13,13,0,0,0-6.84-13.58h0s-1.14,8.39-7.29,12.09-25,17-25,17a16.78,16.78,0,0,0-4.85.13,3.16,3.16,0,0,0,.62,6.27Z" style="fill:#071841"/><path d="M1756.46,792.13s49.55,94,57.43,115.46,10.64,39.36,10.74,41.06c.17,2.65,3.46,5.19,12.55,5.19,4.68,0,7-1.88,8.1-3.7a5.27,5.27,0,0,0,.2-5.13c-2.86-5.8-12-24.34-15.33-32.75-4-10-12.67-55.53-17.42-71.35s-10.11-33-30.77-48.78C1782,792.13,1767.77,778.24,1756.46,792.13Z" style="fill:#fca372"/><path d="M1725.16,638.12c-12.78-54.17,19.6-84.8,19.6-84.8-20.43-19.61-57.66-28.54-57.66-28.54s-35.52,26-31.31,46.3c2.47,11.91,25,71.36,25,71.36S1701.57,652.29,1725.16,638.12Z" style="fill:#070b3b"/><path d="M1753.5,664.93c-5.2-15.67-28.34-26.81-28.34-26.81-23.59,14.17-44.4,4.32-44.4,4.32s-4.66,17.84-1.44,34.41,23.42,123.08,23.42,123.08c31.83,6.45,80.79-6.49,80.79-6.49C1763.26,757.44,1758.7,680.6,1753.5,664.93Z" style="fill:#506c75"/><path d="M1710.32,489l10.4,46.68c1,4.11-2.76,3.44-6.92,2.66-6.8-1.29-15.58-3.93-18.51-9.23a5.2,5.2,0,0,1-.53-1.76L1690.29,495a5.82,5.82,0,0,1,3.41-6.11l8.61-3.82A5.8,5.8,0,0,1,1710,488,5,5,0,0,1,1710.32,489Z" style="fill:#fca372"/><path d="M1698.13,444.55s-12.31,5.19-20.68,23-2.12,26,5.73,27.12,19.59,1,32-10.53S1714.13,438.39,1698.13,444.55Z" style="fill:#fca372"/><path d="M1706.84,474.62s9.29-26-13.78-26.32l-5.43,3.79s-8.46-14.43,5.43-21.31,30.15-1.2,36.07,17.52,6.92,31.24-2.92,40.2-13.89-1.2-13.89-1.2,5.36-8.38,3.18-12.86-7.21.93-7.21.93Z" style="fill:#061e43"/><path d="M1709.43,477.52s4.7-13.4,11-8.06-5.09,12.38-9.54,14.66Z" style="fill:#fca372"/><path d="M1595.74,424.22c-.5,1.58,5.27,4,8.66-2.48.12-3.1,2-16.39.15-18.92-9.87-13.46-20.29-14.33-20.29-14.33-2,3.51-4.32,6.47-5.43,10.72a13,13,0,0,0,1.3,9.57q2.76,5,6,9.75A12.86,12.86,0,0,0,1595.74,424.22Z" style="fill:#fca372"/><path d="M1750.5,567.74s-95.06,116.07-166.07-16.09a16.31,16.31,0,0,1-.52-8.26c.43-2.46-1.19-11.2-2.09-15.66a2.46,2.46,0,0,1,1.93-2.89l.26,0h0a3.37,3.37,0,0,1,3,1.27l13,16.52a6.92,6.92,0,0,1-3.67,8.22h0a3.41,3.41,0,0,0-1.65,4.53,4.06,4.06,0,0,0,.38.63c54,70.8,144.35-6.89,146-6C1746.88,553.23,1753.65,556.81,1750.5,567.74Z" style="fill:#fca372"/></g></svg>