<svg id="bb0a27c0-4748-4e76-ae1f-c56a7b307718" data-name="b970bff0-31a7-4301-8e14-418edc429bcb" xmlns="http://www.w3.org/2000/svg" xmlns:xlink="http://www.w3.org/1999/xlink" viewBox="0 0 1016.07 1214.45"><defs><linearGradient id="e659ea67-0cfa-45ab-a30f-b436533cd2a5" x1="1754.81" y1="102.28" x2="1773.15" y2="102.28" gradientTransform="translate(-1553.41 1052.85)" gradientUnits="userSpaceOnUse"><stop offset="0" stop-color="#ff928e"/><stop offset="1" stop-color="#feb3b1"/></linearGradient><linearGradient id="e46c844c-3265-41db-adef-fcf164056426" x1="1688.69" y1="101.35" x2="1704.53" y2="101.35" xlink:href="#e659ea67-0cfa-45ab-a30f-b436533cd2a5"/></defs><g id="a7b2f0b9-791d-4647-bec1-f72e25553d33" data-name="ae6f552e-714f-4c00-9d52-416514531c76"><path d="M932.12,159.05c0-9.07-12.14-12.17-16.41-4.17-41.28,77.4-155.88,277-284.69,367.89C421.28,670.83,242.69,946.89,316.69,1126.48,316.69,1126.48,928,1147.58,932.12,159.05Z" style="fill:#2d6375"/><path d="M889.4,273.05c-.79,2.53-1.69,4.69-2.54,7l-2.66,6.77-5.51,13.51c-3.7,9-7.5,17.88-11.32,26.79q-11.55,26.7-23.69,53.13c-16.21,35.23-33.33,70-51,104.56s-36.16,68.64-55.38,102.33l-7.19,12.65-7.32,12.54c-4.94,8.35-9.72,16.79-14.8,25l-15.06,24.9-15.44,24.66c-41.51,65.56-86.47,129-135.77,189-3,3.79-6.18,7.48-9.35,11.15l-9.48,11-9.48,11c-3.21,3.64-6.51,7.2-9.76,10.8-6.56,7.16-13,14.46-19.65,21.48l-20.22,21a1029,1029,0,0,1-86.54,77.79,1,1,0,0,1-1.35-.42,1,1,0,0,1,.11-1.1h0a1101.79,1101.79,0,0,0,84.87-79.11l19.92-21.15c6.6-7.06,12.9-14.41,19.36-21.6,3.2-3.63,6.46-7.2,9.61-10.87l9.33-11.11,9.34-11.09c3.12-3.69,6.22-7.41,9.2-11.21l18.14-22.65c6-7.59,11.78-15.34,17.69-23,2.92-3.85,5.9-7.67,8.78-11.56l8.57-11.7,8.56-11.71c2.87-3.9,5.71-7.82,8.46-11.79,22.49-31.5,43.72-63.86,64.64-96.43,41.57-65.3,79.79-132.72,115.85-201.23q27-51.48,51.93-103.91,12.51-26.21,24.49-52.67,5.94-13.26,11.73-26.57l5.68-13.37,2.77-6.7c.87-2.23,1.83-4.54,2.54-6.63l.07-.2a1,1,0,0,1,1.36-.38h0a1,1,0,0,1,.49,1Z" style="fill:#fff;opacity:0.4300000071525574;isolation:isolate"/><path d="M617.4,1158.56s-3.48-89.16,79.88-165.17c77.35-70.52,268.19-231.72,308.43-331.7,1.79-4.43,8.84-1.88,9.2,3.34,3.89,56,2.79,194.46-84,318.09C818.92,1142.54,617.4,1158.56,617.4,1158.56Z" style="fill:#73d0d9"/><path d="M979.62,756.43a174.17,174.17,0,0,1-5.29,32.71,284.92,284.92,0,0,1-9.85,31.75,317.26,317.26,0,0,1-30.24,59.27c-23.66,37.75-55.8,69.65-89.57,98-8.41,7.16-16.93,14.19-25.45,21.22S802,1013.24,793.3,1020s-17.46,13.51-26.22,20.22L740.53,1060c-17.71,13.11-35.42,26.19-52.57,39.89-8.63,6.78-16.88,14-24.82,21.5-3.77,3.94-7.76,7.71-11.18,12-3.73,4-6.78,8.53-10,12.94v.06a1,1,0,0,1-1.75-1.16,156.41,156.41,0,0,1,20.35-26.38q11.61-12,24.25-22.76c16.8-14.44,34.38-27.79,51.74-41.36l26.06-20.31c8.66-6.79,17.36-13.53,25.93-20.42q25.8-20.58,51-41.9c8.27-7.21,16.83-14.21,24.72-21.72l12-11.1c3.87-3.84,7.58-7.85,11.39-11.76l5.67-5.91c2-1.91,3.57-4.12,5.39-6.15L909.38,903c3.42-4.25,6.64-8.67,10-13,1.62-2.19,3.35-4.31,4.9-6.55l4.57-6.8a338.51,338.51,0,0,0,31.84-57.32c2-5.1,4.28-10.09,6.13-15.24s3.78-10.3,5.28-15.57c1.69-5.23,3-10.56,4.31-15.89a153.85,153.85,0,0,0,3-16.2.13.13,0,0,1,.13-.13h0A.2.2,0,0,1,979.62,756.43Z" style="fill:#fff;opacity:0.44999998807907104;isolation:isolate"/><path d="M334.11,1004.64H703a40.42,40.42,0,0,1,40.42,40.42h0v115.85H293.69V1045.06a40.42,40.42,0,0,1,40.42-40.42Z" style="fill:#4aa4c2"/><path d="M280.69,1004.64H649.6A40.42,40.42,0,0,1,690,1045.06h0v115.85H240.26V1045.06a40.42,40.42,0,0,1,40.42-40.42h0Z" style="fill:#5ecff5"/><path d="M144.94,482.17a19.85,19.85,0,1,1-8.82,7.78h0A19.81,19.81,0,0,1,144.94,482.17Zm15.19,33.66a17,17,0,1,0-21.59-24.41h0a17.07,17.07,0,0,0,21.59,24.41Z" style="fill:#fff"/><g style="opacity:0.6399999856948853"><path d="M208.74,592.84a3.54,3.54,0,0,1,3.25,6.27c-1.65,1-3.36,1.94-5.08,2.85a3.54,3.54,0,0,1-3.84-6l.24-.14a1.64,1.64,0,0,1,.29-.16c1.62-.85,3.23-1.76,4.78-2.68Z" style="fill:#2d6375"/></g><path d="M502.94,175.44a1.63,1.63,0,0,1-1-.31c-1.27-.86-2.51-1.75-3.7-2.67a1.78,1.78,0,1,1,2.17-2.83q1.71,1.32,3.53,2.55a1.78,1.78,0,0,1,.48,2.47h0A1.77,1.77,0,0,1,502.94,175.44Z" style="fill:#2d6375"/><rect x="601.73" y="463.58" width="15.98" height="22.09" style="fill:#bdd0fb"/><path d="M79.25,707.63H343.54A40.42,40.42,0,0,1,384,748.05h0v413.12H38.82V748.05a40.42,40.42,0,0,1,40.42-40.42h0Z" style="fill:#071841"/><path d="M40.4,706.63H304.69a40.42,40.42,0,0,1,40.42,40.42h0v417H0v-417A40.43,40.43,0,0,1,40.4,706.63Z" style="fill:#ffd131"/><path d="M203.15,1155.17s-2.14,12.11-3.19,24.09a8.25,8.25,0,0,0,7.43,9h.47c16,.67,50.11,2,62.36,1.41a2.7,2.7,0,0,0,2.55-2.82,2.76,2.76,0,0,0-.19-.86h0a6,6,0,0,0-3.08-3.24l-56.39-25.92Z" style="fill:#071841"/><path d="M201.4,1148.07l1.71,14.48s9.88,4.6,16.63-.58l-4.05-16.14Z" style="fill:url(#e659ea67-0cfa-45ab-a30f-b436533cd2a5)"/><path d="M202.69,875.78c-.74,3.78-4,188.74,15.78,271.62a2.8,2.8,0,0,1-1.65,3.28,49,49,0,0,1-16.1,3.27,4.84,4.84,0,0,1-4.8-3.48c-5.66-19.23-32.74-115.58-36.27-207.62-4-102.85,0-3.51,0-3.51L162,875.77Z" style="fill:#071841"/><path d="M138.27,1161.5s-3.4,6.11-6.7,22.35a5,5,0,0,0,4,5.93h0a3.62,3.62,0,0,0,.46.06c5.27.51,13.38,1.18,19.88,1.14a5,5,0,0,0,5-5c0-.22,0-.44,0-.65-.72-5.93-3-15.65-9.89-23.24Z" style="fill:#071841"/><path d="M135.28,1142.87l4,21.9s4,3,11.82.81L149.19,1142Z" style="fill:url(#e46c844c-3265-41db-adef-fcf164056426)"/><path d="M124.4,881.45c-16.17,97.59,3.5,241.19,10.14,269.3a4.37,4.37,0,0,0,3.54,3.33,29.52,29.52,0,0,0,12.65-.51,4,4,0,0,0,2.88-3.7c.89-22.72-.71-162.22,14.36-217.35a12.46,12.46,0,0,1,4.83-6.91L202,904.82l2.24-33.6Z" style="fill:#071841"/><path d="M227.47,696.55c-48.46-.8-101.93,12.72-101.93,12.72C111.1,793.55,123,890.77,123,890.77c37.51,9.83,79.83-6,79.83-6,6.24-35.23,35.33-134.37,35.33-134.37,23.67-2.94,43.18-9.77,59.24-18.8-12.25-14.2-18-32.27-20.54-43C259.75,694,242.4,696.8,227.47,696.55Z" style="fill:#4aa4c2"/><path d="M370.6,625.17a9.27,9.27,0,0,0-10.78-3c-7.13,30.13-44.52,54.55-82.94,66.49,2.51,10.68,8.29,28.75,20.54,43C361.17,695.74,370.6,625.17,370.6,625.17Z" style="fill:#fca372"/><path d="M369.45,626.64c.5,1.58-5.27,4-8.67-2.49-.12-3.1-2-16.4-.15-18.93,9.88-13.46,29-30.34,29-30.34a4.55,4.55,0,0,1,.57,6.33l-9.29,9.68c1.94,3.51,4.31,6.47,5.42,10.72a13,13,0,0,1-1.29,9.58,107.12,107.12,0,0,1-6,9.75A12.87,12.87,0,0,1,369.45,626.64Z" style="fill:#fca372"/><path d="M376.88,597.17l-8.47,7.18-2.66,7.15,7.55,8.37s2.54-14.18,4.42-17.25S378.63,598.06,376.88,597.17Z" style="fill:#fca372"/><path d="M144.13,756.17l-18.59-46.92S80.28,740,72.84,779c8.55.63,24.11,2.85,39.35,10.54C115.53,771.17,144.13,756.17,144.13,756.17Z" style="fill:#4aa4c2"/><path d="M183.69,800.33s-50.81,28.72-68,4.2a19.29,19.29,0,0,1-3.53-15c-15.24-7.69-30.8-9.91-39.35-10.54a53.76,53.76,0,0,0,5.85,36.89c30,54.94,111.72-3,111.72-3Z" style="fill:#fca372"/><path d="M177.58,836.68l27.73-96.86a2.8,2.8,0,0,1,2.39-2c5-.59,19.59-2.23,36.4-3.65,20.25-1.72,43.77-3.11,57.82-1.92a2.82,2.82,0,0,1,2.6,3,3,3,0,0,1-.29,1c-8,16.17-40.86,81.93-57.32,103.48a2.84,2.84,0,0,1-2.28,1.12l-64.35-.6a2.82,2.82,0,0,1-2.82-2.82v0A2.93,2.93,0,0,1,177.58,836.68Z" style="fill:#071841"/><path d="M247,725.74l20.1-3.35a1.45,1.45,0,0,1,1.66,1.18,1.61,1.61,0,0,1,0,.69l-2,6a1.42,1.42,0,0,1-1.18,1l-19.35,2.59a1.45,1.45,0,0,1-1.62-1.23,1.57,1.57,0,0,1,0-.53l1.23-5.27A1.43,1.43,0,0,1,247,725.74Z" style="fill:#73d0d9"/><path d="M231.92,742.76l1.66-8.63a2,2,0,0,1,1.75-1.61L276,728.4a2,2,0,0,1,2.18,1.8,1.78,1.78,0,0,1,0,.65l-2.58,10.76a2,2,0,0,1-1.84,1.52l-39.69,2a2,2,0,0,1-2.09-1.9A1.86,1.86,0,0,1,231.92,742.76Z" style="fill:#73d0d9"/><path d="M184.28,813.33s-3.86-15.89-2.31-21.52,4.58-12.89,14.65-11.28a147.09,147.09,0,0,1,21.93,5.85s-.6,7.34-8.25,5l4.75,3.67s-.68,5.87-7.14,2.73l4.41,4.87s-2.77,4.83-7.53,1.73S197.76,815.17,184.28,813.33Z" style="fill:#fca372"/><path d="M178.4,657.17,163,701.76a1.6,1.6,0,0,0,.73,1.93c4.2,2.33,19.34,9,37.59-2.53a7.55,7.55,0,0,0,3.49-5.4l5-38.59Z" style="fill:#fca372"/><path d="M211.93,615.92s16.94,31.87,14.76,44.74-23.15,12-41.47,1.5L172.4,627.74Z" style="fill:#fca372"/><path d="M186,645.26a1.32,1.32,0,0,0,.68-1.73h0a1.14,1.14,0,0,0-.1-.19c-1.36-2.07-3.9-6.3-4.71-10,0,0-3-2,7.75-4.53s26.88-6.59,30.26-15.78c3.3-9-5.37-31.47-19.19-13.53a1.32,1.32,0,0,1-1.84.25h0a1.42,1.42,0,0,1-.24-.25c-2.27-3-8.22-9.07-16.49-5.36-7.75,3.47-8.62,9.14-8.51,12a1.32,1.32,0,0,1-1.25,1.37h-.3c-3.91-.75-13.3-1.39-17.69,8.25-3.61,7.93-1.26,12.42.88,14.62a1.32,1.32,0,0,1,0,1.86,1.39,1.39,0,0,1-.54.31c-2.58.79-5.9,3-5.56,9,.46,8.33,9.77,7.59,12.42,7.21a1.35,1.35,0,0,1,1.17.42c2.27,2.51,12.52,13.2,23.6,14.49a1.34,1.34,0,0,0,1.46-1.18,1.41,1.41,0,0,0-.07-.58L183,648a1.33,1.33,0,0,1,.74-1.63Z" style="fill:#061e43"/><path d="M188,647.24S175.9,639,175,645.93s10.86,10.09,16.67,7.49Z" style="fill:#fca372"/><path d="M522.55,1214.45a6.68,6.68,0,0,0,6.5-5.72L631.78,577.08a6.83,6.83,0,0,0-5.38-7.91,6.63,6.63,0,0,0-7.59,5.5h0v.1L516.07,1206.43a6.82,6.82,0,0,0,5.41,7.9A6.37,6.37,0,0,0,522.55,1214.45Z" style="fill:#070b3b"/><path d="M869.11,1214.45a6.41,6.41,0,0,0,1.31-.14,6.86,6.86,0,0,0,5.17-8.07L754.49,582.81a6.6,6.6,0,0,0-7.62-5.38h-.16a6.86,6.86,0,0,0-5.17,8.07L862.69,1209A6.68,6.68,0,0,0,869.11,1214.45Z" style="fill:#070b3b"/><path d="M600.93,733.17H776.48a6.85,6.85,0,1,0,0-13.7H600.93a6.85,6.85,0,1,0,0,13.7Z" style="fill:#071841"/><path d="M604.11,733.17H773.29a6.87,6.87,0,0,0,0-13.7H604.11a6.87,6.87,0,0,0,0,13.7Z" style="fill:#070b3b"/><path d="M600.93,847.39H776.48a6.85,6.85,0,0,0,0-13.7H600.93a6.85,6.85,0,0,0,0,13.7Z" style="fill:#7d97f4"/><path d="M585,847.39H797.82a6.85,6.85,0,0,0,0-13.7H585a6.85,6.85,0,0,0,0,13.7Z" style="fill:#070b3b"/><path d="M600.93,961.6H776.48a6.85,6.85,0,0,0,0-13.7H600.93a6.85,6.85,0,0,0,0,13.7Z" style="fill:#7d97f4"/><path d="M564.69,961.6H819.43a6.85,6.85,0,0,0,0-13.7H564.69a6.85,6.85,0,0,0,0,13.7Z" style="fill:#070b3b"/><path d="M600.93,1075.82h239a6.86,6.86,0,0,0,0-13.71h-239a6.86,6.86,0,0,0,0,13.71Z" style="fill:#7d97f4"/><path d="M548.22,1075.82H839.89a6.86,6.86,0,0,0,0-13.71H548.22a6.86,6.86,0,0,0,0,13.71Z" style="fill:#070b3b"/><path d="M627.56,215.71s11.47,5.58,13.58,12c1.69,5.14,14.37,5.81,15.63,15.92a11.59,11.59,0,0,0,9.71,10.2c13,2,32.91,8.71,36.11,31.2,2.43,17.17-6.32,23.68-15.5,25.93a13,13,0,0,0-9.86,15c1.31,6.54-.65,14.09-12,20.06-25.36,13.38-50.69-31.7-50.69-31.7l-5.14-78.7Z" style="fill:#061e43"/><path d="M508.19,174.17s32.63,89,88.23,116.75c0,0-18.5,30.2-28.16,32,0,0-59.4-76-65.45-138.3Z" style="fill:#fca372"/><path d="M731.79,709.27l1.64,13.49a5.6,5.6,0,0,0,4.89,4.88,86.53,86.53,0,0,0,18.06.28,4.8,4.8,0,0,0,4.19-5.33,5.08,5.08,0,0,0-.19-.86c-1.65-5.21-4.68-13-9-17.62h-15a4.6,4.6,0,0,0-4.62,4.6A5.4,5.4,0,0,0,731.79,709.27Z" style="fill:#071841"/><path d="M614.58,551.25l-2.52,14.85s8.46,85.68,10,120a26.82,26.82,0,0,1-4,15.26l-14.72,23.81,37.35-22.06.74-4.56-6.12-8.42,8-96A29.44,29.44,0,0,0,640,577.84l-7.7-14.51Z" style="fill:#fca372"/><path d="M600.88,728.66h11.93a7.19,7.19,0,0,0,5.7-2.8c3.72-4.83,11.42-14.26,15.1-14.5,5-.34,4.33,17.3,4.33,17.3h2.75l3.52-21.91a13,13,0,0,0-6.84-13.58h0s-1.14,8.39-7.29,12.09-25,17-25,17a17.14,17.14,0,0,0-4.85.13,3.16,3.16,0,0,0,.62,6.27Z" style="fill:#071841"/><path d="M665.78,558.33s49.55,94,57.43,115.46,10.64,39.36,10.74,41.06c.17,2.65,3.46,5.19,12.55,5.19,4.68,0,7-1.88,8.1-3.7a5.29,5.29,0,0,0,.2-5.13c-2.86-5.8-12-24.34-15.33-32.75-4-10-12.67-55.53-17.42-71.35s-10.11-33-30.77-48.78C691.28,558.33,677.09,544.41,665.78,558.33Z" style="fill:#fca372"/><path d="M634.48,404.33c-12.78-54.17,19.6-84.8,19.6-84.8C633.65,299.92,596.42,291,596.42,291s-35.52,26-31.31,46.3c2.47,11.91,25,71.36,25,71.36S610.89,418.46,634.48,404.33Z" style="fill:#070b3b"/><path d="M662.82,431.1c-5.2-15.67-28.34-26.81-28.34-26.81-23.59,14.17-44.4,4.32-44.4,4.32s-4.66,17.84-1.44,34.41S612.06,566.1,612.06,566.1c31.83,6.45,80.79-6.49,80.79-6.49C672.58,523.61,668,446.77,662.82,431.1Z" style="fill:#506c75"/><path d="M619.69,255.17l10.4,46.68c1,4.11-2.76,3.44-6.92,2.66-6.8-1.29-15.58-3.93-18.51-9.23a4.79,4.79,0,0,1-.53-1.76l-4.47-32.35a5.83,5.83,0,0,1,3.41-6.11l8.61-3.82a5.82,5.82,0,0,1,7.67,2.95A5.4,5.4,0,0,1,619.69,255.17Z" style="fill:#fca372"/><path d="M607.45,210.72s-12.31,5.19-20.68,23-2.12,26,5.73,27.12,19.59,1,32-10.53S623.45,204.56,607.45,210.72Z" style="fill:#fca372"/><path d="M616.16,240.79s9.29-26-13.78-26.32L597,218.26s-8.46-14.43,5.43-21.31,30.15-1.2,36.07,17.52,6.92,31.24-2.92,40.2-13.89-1.2-13.89-1.2,5.36-8.38,3.18-12.86-7.21.93-7.21.93Z" style="fill:#061e43"/><path d="M618.75,243.69s4.7-13.4,11-8.06-5.09,12.38-9.54,14.66Z" style="fill:#fca372"/><path d="M505.06,190.39c-.5,1.58,5.27,4,8.66-2.48.12-3.1,2-16.39.15-18.92-9.87-13.46-20.29-14.33-20.29-14.33-2,3.51-4.32,6.47-5.43,10.72a13,13,0,0,0,1.3,9.57,110.85,110.85,0,0,0,6,9.75A12.86,12.86,0,0,0,505.06,190.39Z" style="fill:#fca372"/><path d="M659.82,333.91S564.76,450,493.75,317.82a16.32,16.32,0,0,1-.52-8.26c.43-2.46-1.19-11.2-2.09-15.66a2.46,2.46,0,0,1,1.93-2.89h.26a3.38,3.38,0,0,1,3,1.27l13,16.52a6.92,6.92,0,0,1-3.67,8.22h0a3.4,3.4,0,0,0-1.65,4.53h0a3,3,0,0,0,.38.62c54,70.8,144.35-6.89,146-6C656.2,319.4,663,323,659.82,333.91Z" style="fill:#fca372"/></g><path d="M514.18,164.66c-.09-1-1.29-2-3.31-2.74,2.2-1.11,3.44-2.29,3.31-3.45-.31-3.53-12.5-5.5-27.24-4.41s-26.42,4.81-26.11,8.38c.09,1,1.28,2,3.3,2.73-2.19,1.11-3.44,2.3-3.3,3.47s1.28,2,3.3,2.73c-2.19,1.1-3.44,2.29-3.3,3.46s1.28,2,3.3,2.73c-2.19,1.11-3.44,2.29-3.3,3.46.14,1.56,2.6,2.81,6.57,3.63a30.1,30.1,0,0,0,.11,3.8c.57,6.5,8.55,11.59,19.11,11.59s19.69-6.95,19.8-13.45a30.18,30.18,0,0,0-.21-4.25c5.05-1.54,8.13-3.43,8-5.24-.09-1-1.3-2-3.31-2.74,2.2-1,3.43-2.29,3.31-3.45s-1.3-2-3.31-2.74C513.07,167,514.28,165.82,514.18,164.66Z" style="fill:#071841"/><path d="M480.18,186a68.23,68.23,0,0,1-11.69-.88.3.3,0,0,1-.29-.32h0a.37.37,0,0,1,.42-.26,82.82,82.82,0,0,0,19.46.56,88.75,88.75,0,0,0,16.33-2.58.37.37,0,0,1,.44.23h0a.32.32,0,0,1-.23.4h0a92.17,92.17,0,0,1-16.47,2.6C485.35,185.91,482.68,186,480.18,186Z" style="fill:#7d97f4"/><path d="M480.18,179.81a60.11,60.11,0,0,1-14.35-1.42.32.32,0,0,1-.24-.39h0a.37.37,0,0,1,.44-.22c5.11,1.33,13.33,1.74,22,1s16.57-2.22,21.38-4.26a.35.35,0,0,1,.45.15h0a.32.32,0,0,1-.14.43h0c-4.89,2.09-13,3.68-21.62,4.31C485.39,179.72,482.74,179.81,480.18,179.81Z" style="fill:#7d97f4"/><path d="M480.18,173.62A56.49,56.49,0,0,1,465.06,172a.32.32,0,0,1-.23-.41.36.36,0,0,1,.43-.2h0c5,1.52,13.57,2,22.82,1.33,8.57-.63,16.57-2.22,21.38-4.25a.38.38,0,0,1,.46.19.31.31,0,0,1-.16.39c-4.89,2.1-13,3.68-21.62,4.32C485.35,173.53,482.67,173.62,480.18,173.62Z" style="fill:#7d97f4"/><path d="M480.18,167.4a66.27,66.27,0,0,1-12.74-1.05.33.33,0,0,1-.28-.38h0a.39.39,0,0,1,.44-.25,80.93,80.93,0,0,0,20.45.76c8.5-.63,16.44-2.2,21.28-4.19a.39.39,0,0,1,.49.1.32.32,0,0,1-.11.45h-.1c-4.89,2.1-12.94,3.64-21.5,4.27C485.38,167.33,482.71,167.4,480.18,167.4Z" style="fill:#7d97f4"/><path d="M450.94,133.4A44.5,44.5,0,0,0,442,117.46c-8.78-10.11-23.09-30.67-24.84-58.74-2.57-40.84,37-61.25,73.13-58.47s71.76,27.37,67.86,65.35c-2.41,23.36-16.7,41.08-27.35,51.32a53.14,53.14,0,0,0-14.19,23c-3.19,10.55-10.8,23.69-28.88,24.5C464.37,165.4,454.66,145.46,450.94,133.4Z" style="fill:#ffd131"/><path d="M493.73,156.22,506.33,81c.26-1.56,1.14-2.59,1.86-2.33s1.15,1.75.92,3.3v.13l-14.4,74.48c-.1.56-.42.91-.69.79S493.64,156.76,493.73,156.22Z" style="fill:#fff"/><path d="M480.62,156.82,468,81.64c-.26-1.56-1.14-2.6-1.86-2.33s-1.15,1.74-.92,3.29a.33.33,0,0,0,0,.14l14.39,74.48c.11.55.42.91.69.78S480.7,157.36,480.62,156.82Z" style="fill:#fff"/><path d="M506.28,74.58a1.42,1.42,0,0,0-1.66-.39l-7,3-2.44-6.37a1.39,1.39,0,0,0-.86-.78,1.83,1.83,0,0,0-2.15.6h0l-5.8,9.66L481,66.57h0a1.65,1.65,0,0,0-.81-.84,2.26,2.26,0,0,0-2.66.47l-8.08,10.25a.84.84,0,0,0,.21,1.24h.07a1.41,1.41,0,0,0,1.72-.18l7.12-7.26L485,83.32h0a1,1,0,0,0,.56.51,1.41,1.41,0,0,0,1.67-.4l6.19-9.09,2.29,4.6h0V79a1.41,1.41,0,0,0,1.67.4l8.34-3.57a.89.89,0,0,0,.67-1.12h0S506.3,74.62,506.28,74.58Z" style="fill:#fff;opacity:0.5600000023841858;isolation:isolate"/><path d="M531.1,106.25a.57.57,0,0,1-.59-.57.57.57,0,0,1,.1-.3h0a81.51,81.51,0,0,0,5.92-8.23.68.68,0,0,1,.83-.2.51.51,0,0,1,.23.73h0a86.62,86.62,0,0,1-6,8.38A.59.59,0,0,1,531.1,106.25Z" style="fill:#fff;opacity:0.5600000023841858;isolation:isolate"/><path d="M541.49,89.89a.49.49,0,0,1-.24,0,.5.5,0,0,1-.31-.69v0h0c13.53-28.5,1.84-52.48,1.71-52.71a.54.54,0,0,1,.3-.74.64.64,0,0,1,.8.28,54.39,54.39,0,0,1,4.33,15.83A67.1,67.1,0,0,1,542,89.61.58.58,0,0,1,541.49,89.89Z" style="fill:#fff;opacity:0.5600000023841858;isolation:isolate"/></svg>