<svg id="a549614d-a311-47a1-acd1-af99ae8f3fe8" data-name="Layer 1" xmlns="http://www.w3.org/2000/svg" xmlns:xlink="http://www.w3.org/1999/xlink" viewBox="0 0 2469.32 1795.48"><defs><linearGradient id="aa4cbb70-3928-4e8d-86c2-8e7a99488b7c" x1="1030.7" y1="862.04" x2="1127.73" y2="862.04" gradientTransform="matrix(1, 0, 0, -1, 0, 1792.13)" gradientUnits="userSpaceOnUse"><stop offset="0" stop-color="#f9eac2"/><stop offset="1" stop-color="#ffd131"/></linearGradient><linearGradient id="fd82bff1-1b3b-4b4d-aa5f-3db76a988ef9" x1="14932.98" y1="803.49" x2="14942.74" y2="803.49" gradientTransform="translate(16093.2 1792.13) rotate(180)" gradientUnits="userSpaceOnUse"><stop offset="0.02" stop-color="#2d6375"/><stop offset="1" stop-color="#41b3a7"/></linearGradient><linearGradient id="b2834db6-2cec-4047-a4f0-01600ddce11c" x1="14860.44" y1="751.14" x2="14870.2" y2="751.14" gradientTransform="translate(16093.2 1792.13) rotate(180)" gradientUnits="userSpaceOnUse"><stop offset="0" stop-color="#5ecff5"/><stop offset="1" stop-color="#cce8f7"/></linearGradient><linearGradient id="fe965bb0-4d86-4946-9d2a-e19dfb401591" x1="-7763.41" y1="849.81" x2="-7908.83" y2="524.98" gradientTransform="matrix(1, 0, 0, -1, 8512.67, 1792.13)" gradientUnits="userSpaceOnUse"><stop offset="0" stop-color="#40becc"/><stop offset="1" stop-color="#1b7082"/></linearGradient><linearGradient id="e6e72266-d25d-42fb-83be-0cb9460a256d" x1="-7767.9" y1="797.92" x2="-7765.52" y2="769.95" gradientTransform="matrix(1, 0, 0, -1, 8512.67, 1792.13)" gradientUnits="userSpaceOnUse"><stop offset="0" stop-color="#1d90ac"/><stop offset="1" stop-color="#0b9c9c"/></linearGradient></defs><g id="a8b1ef76-a9dd-4086-935e-d859973487d4" data-name="a5b571f3-d2ed-402d-ae3e-4a5f055a8b7f"><path d="M2018.51,708.4c31.13-18,71.92-27,112.72-27h148.41c40.79,0,81.58,9,112.71,27S2439,749.93,2439,773.48s-15.56,47.1-46.68,65.07-71.93,27-112.71,27H2131.19c-40.8,0-81.59-9-112.72-27s-46.68-41.52-46.68-65.07S1987.39,726.37,2018.51,708.4Z" style="fill:#13a8c5;opacity:0.20000000298023224;isolation:isolate"/><path d="M2022.59,628.29c30.24-17.46,69.87-26.19,109.5-26.19s79.26,8.73,109.5,26.19,45.35,40.34,45.36,63.22v73c0,22.88-15.12,45.76-45.36,63.22s-69.87,26.19-109.5,26.19-79.26-8.73-109.5-26.19-45.4-40.32-45.4-63.2v-73C1977.19,668.63,1992.35,645.75,2022.59,628.29Z" style="fill:#ebebeb"/><path d="M2022.59,754.73c30.24,17.46,69.87,26.19,109.5,26.19s79.26-8.73,109.5-26.19,45.35-40.34,45.36-63.22v73c0,22.88-15.12,45.76-45.36,63.22s-69.87,26.19-109.5,26.19-79.26-8.73-109.5-26.19-45.4-40.32-45.4-63.2v-73C1977.19,714.39,1992.35,737.28,2022.59,754.73Z" style="fill:#13a8c5;opacity:0.20000000298023224;isolation:isolate"/><path d="M2022.59,754.73c30.24,17.46,69.87,26.19,109.5,26.19s79.26-8.73,109.5-26.19,45.35-40.34,45.36-63.22v73c0,22.88-15.12,45.76-45.36,63.22s-69.87,26.19-109.5,26.19-79.26-8.73-109.5-26.19-45.4-40.32-45.4-63.2v-73C1977.19,714.39,1992.35,737.28,2022.59,754.73Z" style="fill:#a8e3f7;opacity:0.20000000298023224;isolation:isolate"/><path d="M2022.59,547.83c30.24-17.46,69.87-26.19,109.5-26.19s79.26,8.73,109.5,26.19,45.35,40.34,45.36,63.22v73c0,22.88-15.12,45.76-45.36,63.22s-69.87,26.19-109.5,26.19-79.26-8.73-109.5-26.19-45.4-40.32-45.4-63.2v-73C1977.19,588.17,1992.35,565.29,2022.59,547.83Z" style="fill:#ebebeb"/><path d="M2022.59,674.27c30.24,17.46,69.87,26.19,109.5,26.19s79.26-8.73,109.5-26.19,45.35-40.34,45.36-63.22v73c0,22.88-15.12,45.76-45.36,63.22s-69.87,26.19-109.5,26.19-79.26-8.73-109.5-26.19-45.4-40.32-45.4-63.2v-73C1977.19,633.93,1992.35,656.81,2022.59,674.27Z" style="fill:#13a8c5;opacity:0.20000000298023224;isolation:isolate"/><path d="M2022.59,674.27c30.24,17.46,69.87,26.19,109.5,26.19s79.26-8.73,109.5-26.19,45.35-40.34,45.36-63.22v73c0,22.88-15.12,45.76-45.36,63.22s-69.87,26.19-109.5,26.19-79.26-8.73-109.5-26.19-45.4-40.32-45.4-63.2v-73C1977.19,633.93,1992.35,656.81,2022.59,674.27Z" style="fill:#070b3b"/><path d="M2022.59,467.37c30.24-17.46,69.87-26.19,109.5-26.19s79.26,8.73,109.5,26.19,45.35,40.34,45.36,63.22v73c0,22.89-15.12,45.77-45.36,63.23S2171.72,693,2132.09,693s-79.26-8.72-109.5-26.18-45.4-40.33-45.4-63.21v-73C1977.19,507.71,1992.35,484.83,2022.59,467.37Z" style="fill:#ebebeb"/><path d="M2132.09,443.49c38.37,0,76.75,8.45,106,25.35S2282,507.9,2282,530.06s-14.64,44.31-43.92,61.21-67.65,25.36-106,25.36-76.75-8.46-106-25.36-43.9-39.06-43.9-61.2,14.64-44.31,43.91-61.22S2093.72,443.49,2132.09,443.49Z" style="fill:#d1d1d0;opacity:0.05000000074505806;isolation:isolate"/><path d="M2022.59,593.81c30.24,17.46,69.87,26.19,109.5,26.19s79.26-8.73,109.5-26.19,45.35-40.34,45.36-63.22v73c0,22.89-15.12,45.77-45.36,63.23S2171.72,693,2132.09,693s-79.26-8.72-109.5-26.18-45.4-40.33-45.4-63.21v-73C1977.19,553.47,1992.35,576.36,2022.59,593.81Z" style="fill:#13a8c5;opacity:0.20000000298023224;isolation:isolate"/><path d="M2022.59,593.81c30.24,17.46,69.87,26.19,109.5,26.19s79.26-8.73,109.5-26.19,45.35-40.34,45.36-63.22v73c0,22.89-15.12,45.77-45.36,63.23S2171.72,693,2132.09,693s-79.26-8.72-109.5-26.18-45.4-40.33-45.4-63.21v-73C1977.19,553.47,1992.35,576.36,2022.59,593.81Z" style="fill:#a8e3f7;opacity:0.20000000298023224;isolation:isolate"/><polygon points="1016.76 432.76 2469.32 1271.41 1561.65 1795.48 109.09 956.81 1016.76 432.76" style="fill:#519399;opacity:0.47999998927116394;isolation:isolate"/><polygon points="1016.76 283.51 2469.32 1122.18 2469.32 1164.57 1561.65 1688.63 109.09 849.97 109.09 807.57 1016.76 283.51" style="fill:#fff"/><polygon points="1561.65 1572.47 172.97 770.69 1016.76 283.51 2405.45 1085.3 1561.65 1572.47" style="fill:#41b3a7;opacity:0.4000000059604645;isolation:isolate"/><polygon points="109.09 849.97 1561.65 1688.63 1561.65 1646.23 109.09 807.57 109.09 849.97" style="fill:#a1dbcc;opacity:0.7699999809265137;isolation:isolate"/><polygon points="2469.32 1164.57 1561.65 1688.63 1561.65 1646.23 2469.32 1122.18 2469.32 1164.57" style="fill:#66c2ab"/><polygon points="1016.76 115.59 2469.32 954.25 2469.32 996.64 1561.65 1520.71 109.09 682.04 109.09 639.65 1016.76 115.59" style="fill:#fff"/><polygon points="109.09 682.04 1561.65 1520.71 1561.65 1478.31 109.09 639.65 109.09 682.04" style="fill:#13a8c5;opacity:0.20000000298023224;isolation:isolate"/><polygon points="1323.53 1340.83 1561.65 1478.31 2469.32 954.25 2231.2 816.77 1323.53 1340.83" style="fill:#070b3b"/><polygon points="2179.76 965 2275.02 1019.99 2370.26 965 2275.02 910 2179.76 965" style="fill:#13a8c5;opacity:0.5;isolation:isolate"/><polygon points="2084.74 964.1 2228.28 1046.97 2240.98 1039.63 2097.45 956.75 2084.74 964.1" style="fill:#13a8c5;opacity:0.5;isolation:isolate"/><polygon points="2094 1003.15 2199.08 1063.83 2211.78 1056.5 2106.7 995.83 2094 1003.15" style="fill:#13a8c5;opacity:0.5;isolation:isolate"/><polygon points="2012.21 989.65 2169.88 1080.69 2182.58 1073.36 2024.92 982.33 2012.21 989.65" style="fill:#13a8c5;opacity:0.5;isolation:isolate"/><polygon points="2014.76 1024.85 2140.68 1097.55 2153.38 1090.22 2027.47 1017.5 2014.76 1024.85" style="fill:#13a8c5;opacity:0.5;isolation:isolate"/><polygon points="2469.32 996.64 1561.65 1520.71 1561.65 1478.31 2469.32 954.25 2469.32 996.64" style="fill:#2d6375"/><polygon points="1323.53 1340.83 1561.65 1478.31 1561.65 1520.71 1323.53 1383.22 1323.53 1340.83" style="fill:#4aa4c2"/><path d="M46.68,1300.94c31.13-18,71.92-27,112.72-27H307.81c40.79,0,81.58,9,112.71,27s46.67,41.53,46.67,65.13-15.56,47.1-46.69,65.07-71.92,27-112.7,27H159.4c-40.8,0-81.59-9-112.72-27S0,1389.62,0,1366.07,15.56,1318.91,46.68,1300.94Z" style="fill:#b5e3df;opacity:0.5400000214576721;isolation:isolate"/><path d="M50.76,1220.83c30.24-17.46,69.87-26.19,109.5-26.19s79.26,8.73,109.5,26.19,45.35,40.34,45.36,63.22v73c0,22.88-15.12,45.76-45.36,63.22s-69.87,26.19-109.5,26.19-79.26-8.73-109.5-26.19S5.4,1379.93,5.4,1357.05v-73C5.4,1261.17,20.52,1238.29,50.76,1220.83Z" style="fill:#ebebeb"/><path d="M50.76,1347.27c30.24,17.46,69.87,26.19,109.5,26.19s79.26-8.73,109.5-26.19,45.35-40.34,45.36-63.22v73c0,22.88-15.12,45.76-45.36,63.22s-69.87,26.19-109.5,26.19-79.26-8.73-109.5-26.19S5.4,1379.93,5.4,1357.05v-73C5.4,1306.94,20.52,1329.82,50.76,1347.27Z" style="fill:#13a8c5;opacity:0.20000000298023224;isolation:isolate"/><path d="M50.76,1347.27c30.24,17.46,69.87,26.19,109.5,26.19s79.26-8.73,109.5-26.19,45.35-40.34,45.36-63.22v73c0,22.88-15.12,45.76-45.36,63.22s-69.87,26.19-109.5,26.19-79.26-8.73-109.5-26.19S5.4,1379.93,5.4,1357.05v-73C5.4,1306.94,20.52,1329.82,50.76,1347.27Z" style="fill:#a8e3f7;opacity:0.20000000298023224;isolation:isolate"/><path d="M50.76,1140.37c30.24-17.46,69.87-26.19,109.5-26.19s79.26,8.73,109.5,26.19,45.35,40.34,45.36,63.22v73c0,22.88-15.12,45.76-45.36,63.22s-69.87,26.26-109.5,26.26-79.26-8.73-109.5-26.19S5.4,1299.54,5.4,1276.66v-73C5.4,1180.71,20.52,1157.83,50.76,1140.37Z" style="fill:#ebebeb"/><path d="M50.76,1266.81C81,1284.27,120.63,1293,160.26,1293s79.26-8.73,109.5-26.19,45.35-40.34,45.36-63.22v73c0,22.88-15.12,45.76-45.36,63.22s-69.87,26.26-109.5,26.26-79.26-8.73-109.5-26.19S5.4,1299.54,5.4,1276.66v-73C5.4,1226.48,20.52,1249.36,50.76,1266.81Z" style="fill:#13a8c5;opacity:0.20000000298023224;isolation:isolate"/><path d="M50.76,1266.81C81,1284.27,120.63,1293,160.26,1293s79.26-8.73,109.5-26.19,45.35-40.34,45.36-63.22v73c0,22.88-15.12,45.76-45.36,63.22s-69.87,26.26-109.5,26.26-79.26-8.73-109.5-26.19S5.4,1299.54,5.4,1276.66v-73C5.4,1226.48,20.52,1249.36,50.76,1266.81Z" style="fill:#ffd131"/><path d="M50.76,1059.91c30.24-17.46,69.87-26.19,109.5-26.19s79.26,8.73,109.5,26.19,45.35,40.34,45.36,63.22v73c0,22.88-15.12,45.76-45.36,63.22s-69.87,26.19-109.5,26.19-79.26-8.73-109.5-26.19S5.4,1219,5.4,1196.13v-73C5.4,1100.25,20.52,1077.37,50.76,1059.91Z" style="fill:#ebebeb"/><path d="M161.59,1034.22c38.37,0,76.75,8.45,106,25.35s43.92,39.06,43.92,61.21-14.64,44.32-43.92,61.22-67.65,25.36-106,25.36-76.75-8.46-106-25.36-43.91-39.06-43.91-61.21,14.63-44.31,43.91-61.22S123.19,1034.21,161.59,1034.22Z" style="fill:#d1d1d0;opacity:0.05000000074505806;isolation:isolate"/><path d="M50.76,1186.35c30.24,17.46,69.87,26.19,109.5,26.19s79.26-8.73,109.5-26.19,45.35-40.34,45.36-63.22v73c0,22.88-15.12,45.76-45.36,63.22s-69.87,26.19-109.5,26.19-79.26-8.73-109.5-26.19S5.4,1219,5.4,1196.13v-73C5.4,1146.07,20.52,1168.9,50.76,1186.35Z" style="fill:#13a8c5;opacity:0.20000000298023224;isolation:isolate"/><path d="M50.76,1186.35c30.24,17.46,69.87,26.19,109.5,26.19s79.26-8.73,109.5-26.19,45.35-40.34,45.36-63.22v73c0,22.88-15.12,45.76-45.36,63.22s-69.87,26.19-109.5,26.19-79.26-8.73-109.5-26.19S5.4,1219,5.4,1196.13v-73C5.4,1146.07,20.52,1168.9,50.76,1186.35Z" style="fill:#a8e3f7;opacity:0.20000000298023224;isolation:isolate"/><path d="M516,1587.78c31.13-18,71.92-27,112.72-27H777.19c40.79,0,81.58,9,112.7,27s46.69,41.52,46.69,65.07S921,1700,889.89,1717.93s-71.92,27-112.71,27H628.75c-40.79,0-81.58-9-112.71-27s-46.68-41.52-46.68-65.07S484.92,1605.75,516,1587.78Z" style="fill:#b5e3df;opacity:0.5400000214576721;isolation:isolate"/><path d="M520.12,1507.67c30.24-17.46,69.87-26.19,109.5-26.19s79.26,8.73,109.5,26.19,45.35,40.34,45.35,63.22v73c0,22.88-15.12,45.76-45.35,63.22s-69.87,26.19-109.5,26.19-79.26-8.73-109.5-26.19-45.36-40.34-45.36-63.22v-73C474.76,1548,489.88,1525.13,520.12,1507.67Z" style="fill:#ebebeb"/><path d="M520.12,1634.07c30.24,17.46,69.87,26.19,109.5,26.19s79.26-8.73,109.5-26.19,45.35-40.34,45.35-63.22v73c0,22.88-15.12,45.76-45.35,63.22s-69.87,26.19-109.5,26.19-79.26-8.73-109.5-26.19-45.36-40.34-45.36-63.22v-73C474.76,1593.77,489.88,1616.66,520.12,1634.07Z" style="fill:#13a8c5;opacity:0.20000000298023224;isolation:isolate"/><path d="M520.12,1634.07c30.24,17.46,69.87,26.19,109.5,26.19s79.26-8.73,109.5-26.19,45.35-40.34,45.35-63.22v73c0,22.88-15.12,45.76-45.35,63.22s-69.87,26.19-109.5,26.19-79.26-8.73-109.5-26.19-45.36-40.34-45.36-63.22v-73C474.76,1593.77,489.88,1616.66,520.12,1634.07Z" style="fill:#a8e3f7;opacity:0.20000000298023224;isolation:isolate"/><path d="M520.12,1427.21C550.36,1409.75,590,1401,629.62,1401s79.26,8.73,109.5,26.19,45.35,40.34,45.35,63.22v73c0,22.88-15.12,45.76-45.35,63.22s-69.87,26.18-109.5,26.18-79.26-8.72-109.5-26.18-45.36-40.34-45.36-63.22v-73C474.76,1467.55,489.88,1444.67,520.12,1427.21Z" style="fill:#ebebeb"/><path d="M520.12,1553.65c30.24,17.46,69.87,26.19,109.5,26.19s79.26-8.73,109.5-26.19,45.35-40.34,45.35-63.22v73c0,22.88-15.12,45.76-45.35,63.22s-69.87,26.18-109.5,26.18-79.26-8.72-109.5-26.18-45.36-40.34-45.36-63.22v-73C474.76,1513.31,489.88,1536.19,520.12,1553.65Z" style="fill:#13a8c5;opacity:0.20000000298023224;isolation:isolate"/><path d="M520.12,1553.65c30.24,17.46,69.87,26.19,109.5,26.19s79.26-8.73,109.5-26.19,45.35-40.34,45.35-63.22v73c0,22.88-15.12,45.76-45.35,63.22s-69.87,26.18-109.5,26.18-79.26-8.72-109.5-26.18-45.36-40.34-45.36-63.22v-73C474.76,1513.31,489.88,1536.19,520.12,1553.65Z" style="fill:#2d7770"/><path d="M520.12,1346.75c30.24-17.46,69.87-26.19,109.5-26.19s79.26,8.73,109.5,26.19,45.35,40.34,45.35,63.22v73c0,22.89-15.12,45.77-45.35,63.23s-69.87,26.19-109.5,26.18-79.26-8.72-109.5-26.18-45.36-40.34-45.36-63.22v-73C474.76,1387.07,489.88,1364.21,520.12,1346.75Z" style="fill:#ebebeb"/><path d="M629.62,1322.87c38.37,0,76.75,8.45,106,25.35s43.92,39.06,43.92,61.21-14.64,44.32-43.92,61.22S668,1496,629.62,1496s-76.75-8.46-106-25.36-43.91-39.06-43.91-61.21,14.63-44.31,43.91-61.22S591.24,1322.86,629.62,1322.87Z" style="fill:#d1d1d0;opacity:0.05000000074505806;isolation:isolate"/><path d="M520.12,1473.19c30.24,17.46,69.87,26.19,109.5,26.19s79.26-8.73,109.5-26.19,45.35-40.34,45.35-63.22v73c0,22.89-15.12,45.77-45.35,63.23s-69.87,26.19-109.5,26.18-79.26-8.72-109.5-26.18-45.36-40.34-45.36-63.22v-73C474.76,1432.85,489.88,1455.73,520.12,1473.19Z" style="fill:#13a8c5;opacity:0.20000000298023224;isolation:isolate"/><path d="M520.12,1473.19c30.24,17.46,69.87,26.19,109.5,26.19s79.26-8.73,109.5-26.19,45.35-40.34,45.35-63.22v73c0,22.89-15.12,45.77-45.35,63.23s-69.87,26.19-109.5,26.18-79.26-8.72-109.5-26.18-45.36-40.34-45.36-63.22v-73C474.76,1432.85,489.88,1455.73,520.12,1473.19Z" style="fill:#a8e3f7;opacity:0.20000000298023224;isolation:isolate"/><polygon points="2179.76 944.64 2179.76 956.86 2275.01 1013.18 2370.26 956.86 2370.26 944.64 2275.02 889.66 2179.76 944.64" style="fill:#b5e3df"/><polygon points="2275.02 999.64 2275.01 1013.18 2370.26 956.86 2370.26 944.64 2275.02 999.64" style="fill:#506c75;opacity:0.30000001192092896;isolation:isolate"/><polygon points="2179.76 944.64 2275.02 999.64 2275.01 1013.18 2179.76 956.86 2179.76 944.64" style="fill:#4aa4c2;opacity:0.20000000298023224;isolation:isolate"/><polygon points="2027.47 997.16 2153.38 1069.87 2153.38 1082.08 2140.68 1089.4 2014.76 1016.71 2014.76 1004.5 2027.47 997.16" style="fill:#b5e3df"/><polygon points="2024.92 961.98 2182.58 1053.01 2182.58 1065.22 2169.88 1072.55 2012.21 981.51 2012.21 969.31 2024.92 961.98" style="fill:#b5e3df"/><polygon points="2106.7 975.48 2211.78 1036.14 2211.78 1048.36 2199.08 1055.7 2094 995.01 2094 982.82 2106.7 975.48" style="fill:#b5e3df"/><polygon points="2097.45 936.41 2240.98 1019.28 2240.98 1031.5 2228.28 1038.84 2084.74 955.96 2084.74 943.75 2097.45 936.41" style="fill:#b5e3df"/><polygon points="2228.28 1026.63 2228.28 1038.84 2240.98 1031.5 2240.98 1019.28 2228.28 1026.63" style="fill:#506c75;opacity:0.30000001192092896;isolation:isolate"/><polygon points="2199.08 1043.49 2199.08 1055.7 2211.78 1048.36 2211.78 1036.14 2199.08 1043.49" style="fill:#506c75;opacity:0.30000001192092896;isolation:isolate"/><polygon points="2169.88 1060.35 2169.88 1072.55 2182.58 1065.22 2182.58 1053.01 2169.88 1060.35" style="fill:#506c75;opacity:0.30000001192092896;isolation:isolate"/><polygon points="2140.68 1077.21 2140.68 1089.4 2153.38 1082.08 2153.38 1069.87 2140.68 1077.21" style="fill:#506c75;opacity:0.30000001192092896;isolation:isolate"/><polygon points="2084.74 943.75 2228.28 1026.63 2228.28 1038.84 2084.74 955.96 2084.74 943.75" style="fill:#4aa4c2;opacity:0.20000000298023224;isolation:isolate"/><polygon points="2094 982.82 2199.08 1043.49 2199.08 1055.7 2094 995.01 2094 982.82" style="fill:#4aa4c2;opacity:0.20000000298023224;isolation:isolate"/><polygon points="2012.21 969.31 2169.88 1060.35 2169.88 1072.55 2012.21 981.51 2012.21 969.31" style="fill:#4aa4c2;opacity:0.20000000298023224;isolation:isolate"/><polygon points="2014.76 1004.5 2140.68 1077.21 2140.68 1089.4 2014.76 1016.71 2014.76 1004.5" style="fill:#4aa4c2;opacity:0.20000000298023224;isolation:isolate"/><polygon points="1624.52 612.2 1624.68 670.43 1642.37 736.44 1642.21 678.22 1624.52 612.2" style="fill:#d6a41a"/><polygon points="1468.94 656.6 1469.1 714.82 1550.47 762.1 1550.3 703.89 1468.94 656.6" style="fill:#008e99"/><path d="M1468.94,656.6l81.36,47.29c24.32-13.47,53.94-21.8,84.84-25l-17.68-66C1558.87,618.59,1511.48,632.54,1468.94,656.6Z" style="fill:#a1dbcc"/><path d="M1550.3,703.89l.17,58.21c24.32-13.46,53.93-21.79,84.83-25l-.16-58.22C1604.24,682.07,1574.62,690.42,1550.3,703.89Z" style="fill:#41b3a7"/><polygon points="1778.37 703.89 1778.54 762.1 1860.43 714.82 1860.27 656.6 1778.37 703.89" style="fill:#d6a41a"/><path d="M1642.19,678.22l.16,58.22c48.2-3.8,98.63,4.77,136.17,25.66l-.17-58.21C1740.84,683,1690.41,674.42,1642.19,678.22Z" style="fill:#ffd131"/><path d="M1624.52,612.2l17.69,66c48.2-3.8,98.63,4.77,136.16,25.67l81.9-47.29C1795.64,619.87,1714.28,604.54,1624.52,612.2Z" style="fill:#f9eac2"/><path d="M1499,773.36q.09,29.11.17,58.22c-.07-24,15.34-48,46.18-66.54l-.17-58.22C1514.37,725.4,1499,749.4,1499,773.36Z" style="fill:#2d6375"/><path d="M1829,830.66q-.08-29.13-.16-58.22c-.07-23.66-15.21-47.28-45.45-65.63l.16,58.21C1813.8,783.37,1829,807,1829,830.66Z" style="fill:#519399"/><path d="M1944.58,830.46q-.07-29.12-.16-58.22c.12,42.3-28.4,84-82.84,115.44-20,11.54-42.84,21.25-68,28.9l.16,58.22c25.2-7.65,48.07-17.36,68-28.9C1916.19,914.47,1944.7,872.75,1944.58,830.46Z" style="fill:#4a878c"/><polygon points="1741.51 857.03 1741.68 915.25 1793.7 974.79 1793.54 916.58 1741.51 857.03" style="fill:#62a1a7"/><path d="M1783.4,706.81c61.67,37.43,60.56,96.79-3.2,133.61a191.66,191.66,0,0,1-38.69,16.65l52,59.55c25.2-7.65,48.07-17.36,68-28.9C1947.9,837.85,1969,762.09,1914,699.2c-13.5-15.45-28.2-27.41-48.8-39.63Z" style="fill:#73d0d9"/><path d="M1383.76,773.66q.08,29.1.16,58.22c.12,41.3,27.22,82.56,81.33,114,86.35,50.18,212.41,62.16,322.08,30.78l-.17-58.22c-109.67,31.38-235.72,19.4-322.07-30.78C1411,856.22,1383.88,815,1383.76,773.66Z" style="fill:#061e43"/><path d="M1463.85,659.54c-107.14,63.4-106.85,165.32,1.24,228.13,86.35,50.18,212.4,62.16,322.07,30.78l-52-59.54c-61.5,17.16-137.42,11-188.18-18.5-63.35-36.82-63.81-96.19-1.73-133.59Z" style="fill:#5ecff5"/><path d="M771.72,323.64l-.92-.53L1023,177.52l.3-.17,571.52,330,.92.53L1343.54,653.44l-.31.17Zm251.54-144.88-250,144.31,570,329.1,250-144.36Z" style="fill:#070b3b"/><path d="M829.34,1000.33l-.92-.52,809.37-467.3.31-.18L2141,822.68l.92.53-809.37,467.3-.3.18ZM1638.1,533.74,830.86,999.81l501.33,289.47,807.23-466.07Z" style="fill:#070b3b"/><path d="M999.73,231.72c.15.08.29.11.43.19,10.75-19.64,17.92-63.45,32.11-71.09-.11.06-.23.08-.33.14l3.64-2.12,5.09-3,5.83-3.38c3-1.77,6.43-1.87,10.25.33,28.22,16.3,25.06,41.89,45.66,53.79a17.67,17.67,0,0,0,3.35,1.5c10.61-19.92,12.83-66.53,26.14-74.16h0c2.19-1.26,4.38-2.54,6.55-3.81l7.28-4.23.74-.42c2.68-1.56,5.82-1.53,9.58.64,36.8,21.25,13.4,119.32,75.47,155.16,7.48,4.32,13.52,5.71,18.59,5.19,8.8-10.05,14.3-25.83,24.48-29.95a15,15,0,0,0-1.95,1l14.55-8.43c4.73-2.74,10.46-2.93,18.16,1.51,35.27,20.37,36.75,88,63.21,103.26a14.07,14.07,0,0,0,3.91,1.55c11.08-16.17,18.18-49.5,28.31-54.08a3.93,3.93,0,0,0-.66.3l14.56-8.47a5.71,5.71,0,0,1,6.13.06c22.53,13,28.74,198.23,78.26,226.82l-14.56,8.46L985.19,240.18Z" style="fill:#f9eac2"/><path d="M1042.19,161.3c28.23,16.29,25.07,41.88,45.67,53.78,32.61,18.83,23.9-97.61,53.58-80.47,36.8,21.25,13.4,119.32,75.48,155.16,44.51,25.7,38.59-51.1,73.84-30.76s36.74,88,63.2,103.26,33.74-71.34,52.26-60.64c22.53,13,28.74,198.23,78.26,226.82L985.19,240.18C1009.55,254.26,1014,145,1042.19,161.3Z" style="fill:#ffd131"/><path d="M960.05,254.86c16.56,9.56,29.24,9.35,40,5.12,7.51-5.54,14.35-11.84,21.5-15.89-.15.09-.32.16-.48.25l14.56-8.46c8.43-4.9,17.29-6.71,28.26-.38,37.12,21.43,55.46,98.61,79.75,112.64,5.53,3.19,10.7,3.89,15.57,2.86,17.7-16.58,31.55-51,45.88-57.15a14.19,14.19,0,0,0-1.7.85l14.56-8.47c3.7-2.15,7.42-2.52,11.24-.32,23.43,13.53,18.73,40.3,43.5,54.6a13.72,13.72,0,0,0,2.45,1.08c6.7-10.44,12.12-26.67,20.87-30.16a11.63,11.63,0,0,0-1.47.7l14.57-8.46c3.15-1.83,6.74-2,11,.46,46.88,27.07,59.15,192.74,139.27,239l-14.56,8.47L945.49,263.32Z" style="fill:#a1dbcc"/><path d="M1049.28,244c37.12,21.43,55.45,98.6,79.75,112.63,39,22.52,60.15-76.89,85.55-62.23,23.43,13.53,18.73,40.3,43.51,54.6,21.26,12.27,24.68-49.51,47.43-36.38,46.87,27.07,59.14,192.74,139.26,239L945.49,263.32C999.19,294.34,1012.19,222.53,1049.28,244Z" style="fill:#41b3a7"/><path d="M911.19,282.68a21.51,21.51,0,0,0,8.81,3.08c8.07-11.42,13-30.83,23.71-36.15-.29.15-.59.27-.87.44l14.56-8.47c4.5-2.61,10-2.7,17.35,1.52,25,14.44,25,43.77,62.17,65.23,8.83,5.1,16.27,6.31,22.75,4.92,17.7-17.41,27.54-54.62,45.85-61.95a18.16,18.16,0,0,0-2.67,1.28l14.56-8.46c5.94-3.46,12.76-3.74,21.1,1.07,40.16,23.19,52.53,170.28,89.34,191.53,42.36,24.45,44.92-2.82,86.32,21.08s80.32,103.92,96.31,113.15l-14.56,8.46L896.62,291.14Z" style="fill:#73d0d9"/><path d="M1124,253.66c-44.8-25.86-45.72,95.39-101.6,63.13-37.19-21.46-37.19-50.79-62.19-65.23-35.2-20.32-29.4,59.31-63.57,39.58l499.3,288.27c-16-9.23-54.9-89.23-96.31-113.15s-44,3.38-86.33-21.08C1176.5,423.93,1164.13,276.84,1124,253.66Z" style="fill:#4a878c"/><path d="M867.19,308.21c80.11,46.26,93-2.57,139.9,24.51,22.74,13.13,25.92,37.59,47.15,49.85,24.78,14.3,20.19,1.18,43.62,14.71,25.4,14.66,46.11,66.21,85.13,88.74,24.29,14,42.88,1.13,80,22.56s49.75,56.88,103.49,87.9l-14.56,8.46L852.6,316.67Z" style="fill:#88f5ff"/><path d="M992.51,341.18c22.73,13.13,25.92,37.59,47.16,49.85,24.77,14.3,20.18,1.18,43.61,14.71,25.4,14.66,46.1,66.21,85.12,88.74,24.3,14,42.88,1.13,80,22.56s49.75,56.88,103.49,87.9L852.6,316.67C932.72,362.93,945.6,314.07,992.51,341.18Z" style="fill:#4a878c;opacity:0.30000001192092896;isolation:isolate"/><polygon points="618.28 680.32 618.33 697.2 811.33 809.37 811.28 792.48 618.28 680.32" style="fill:#f9eac2"/><polygon points="811.28 792.48 811.33 809.37 844.97 789.94 844.92 773.06 811.28 792.48" style="fill:#d6a41a"/><polygon points="618.28 680.32 811.28 792.48 844.92 773.06 651.92 660.9 618.28 680.32" style="fill:#ffd131"/><polygon points="578.14 703.49 578.19 720.38 734.46 811.19 734.42 794.31 578.14 703.49" style="fill:#41b3a7"/><polygon points="734.42 794.31 734.46 811.19 768.12 791.76 768.07 774.88 734.42 794.31" style="fill:#2d7770"/><polygon points="578.14 703.49 734.42 794.31 768.07 774.88 611.8 684.06 578.14 703.49" style="fill:#a1dbcc"/><polygon points="538.02 726.66 538.07 743.53 656.24 812.21 656.2 795.33 538.02 726.66" style="fill:#4aa4c2"/><polygon points="656.2 795.33 656.24 812.21 689.88 792.78 689.84 775.91 656.2 795.33" style="fill:#2d6375"/><polygon points="538.02 726.66 656.2 795.33 689.84 775.91 571.66 707.23 538.02 726.66" style="fill:#a8e3f7"/><polygon points="497.89 749.83 497.93 766.71 571.22 809.29 571.17 792.41 497.89 749.83" style="fill:#b5e3df"/><polygon points="571.17 792.41 571.22 809.29 604.86 789.88 604.81 772.99 571.17 792.41" style="fill:#519399"/><polygon points="497.89 749.83 571.17 792.41 604.81 772.99 531.53 730.4 497.89 749.83" style="fill:#d8f0dd"/><path d="M423.61,766.07l-.91-.52L938.19,467.92l.31-.17L1300.91,677l.91.53L786.32,975.15l-.31.18Zm514.9-296.93L425.19,765.56,786.07,973.92l513.37-296.4Z" style="fill:#070b3b"/><polygon points="641.3 417.05 784.83 499.93 797.54 492.59 654 409.71 641.3 417.05" style="fill:#070b3b"/><polygon points="609.77 435.25 753.31 518.13 766.01 510.79 622.47 427.92 609.77 435.25" style="fill:#070b3b"/><polygon points="578.24 453.45 721.78 536.33 734.49 528.99 590.95 446.12 578.24 453.45" style="fill:#070b3b"/><polygon points="546.71 471.66 690.25 554.53 702.96 547.2 559.42 464.32 546.71 471.66" style="fill:#070b3b"/><polygon points="515.19 489.86 658.72 572.73 671.43 565.4 527.89 482.52 515.19 489.86" style="fill:#070b3b"/><polygon points="483.66 508.06 627.2 590.94 639.91 583.6 496.37 500.73 483.66 508.06" style="fill:#070b3b"/><polygon points="452.13 526.27 595.67 609.14 608.38 601.79 464.84 518.93 452.13 526.27" style="fill:#070b3b"/><polygon points="420.61 544.47 564.14 627.34 576.85 620.01 433.32 537.13 420.61 544.47" style="fill:#070b3b"/><polygon points="389.08 562.66 532.62 645.53 545.32 638.21 401.79 555.33 389.08 562.66" style="fill:#070b3b"/><polygon points="357.55 580.87 501.09 663.74 513.8 656.41 370.26 573.53 357.55 580.87" style="fill:#070b3b"/><polygon points="326.03 599.07 469.57 681.95 482.27 674.61 338.73 591.74 326.03 599.07" style="fill:#070b3b"/><polygon points="294.5 617.28 438.04 700.15 450.74 692.82 307.21 609.94 294.5 617.28" style="fill:#070b3b"/><polygon points="262.97 635.48 406.51 718.35 419.22 711.02 275.68 628.14 262.97 635.48" style="fill:#070b3b"/><polygon points="309.62 698.82 374.99 736.56 387.69 729.22 322.33 691.48 309.62 698.82" style="fill:#070b3b"/><polygon points="963.94 991.56 1357.28 1218.65 1366.78 1213.18 973.44 986.07 963.94 991.56" style="fill:#070b3b"/><polygon points="940.36 1005.16 1333.71 1232.28 1343.21 1226.79 949.86 999.68 940.36 1005.16" style="fill:#070b3b"/><polygon points="1091.41 1119.6 1310.13 1245.88 1319.64 1240.39 1100.91 1114.12 1091.41 1119.6" style="fill:#070b3b"/><polygon points="752.64 622.39 1045.63 790.53 1055.13 785.04 762.14 616.91 752.64 622.39" style="fill:#2d7770"/><polygon points="729.06 636 1022.06 804.15 1031.56 798.66 738.56 630.52 729.06 636" style="fill:#2d7770"/><polygon points="779.76 691.47 998.48 817.76 1007.99 812.27 789.26 685.99 779.76 691.47" style="fill:#2d7770"/><polygon points="1214.82 870.7 1574.34 1078.27 1600.55 1063.13 1241.03 855.57 1214.82 870.7" style="fill:#2d7770"/><polygon points="1144.1 882.88 1528.43 1104.78 1541.14 1097.44 1156.8 875.53 1144.1 882.88" style="fill:#2d7770"/><polygon points="1204.4 954.1 1496.91 1122.98 1509.61 1115.64 1217.11 946.75 1204.4 954.1" style="fill:#2d7770"/><g style="opacity:0.20000000298023224"><path d="M1032.68,976.24c-2.62,1.53-2.65,4,0,5.52l41.65,24.2a10.53,10.53,0,0,0,9.53,0l41.92-24.2c2.62-1.52,2.64-4,0-5.52L1084.13,952a10.51,10.51,0,0,0-9.52,0Z" style="fill:#519399"/></g><path d="M1073,1012.07l-50.39-29.28a4.48,4.48,0,0,1-2.59-3.73c0-1.46,1-2.8,2.65-3.79L1073.38,946a13.22,13.22,0,0,1,12,0l50.38,29.28a4.48,4.48,0,0,1,2.6,3.76c0,1.45-.94,2.79-2.64,3.77L1085,1012.07a13.2,13.2,0,0,1-12,0Zm.88-65.22-50.69,29.22A3.62,3.62,0,0,0,1021,979a3.51,3.51,0,0,0,2.1,2.88l50.38,29.28a12.24,12.24,0,0,0,11,0l50.72-29.27a3.64,3.64,0,0,0,2.15-2.93,3.55,3.55,0,0,0-2.12-2.91l-50.38-29.28a12.18,12.18,0,0,0-11,0Z" style="fill:#070b3b"/><path d="M1032.63,872.18l41.65,24.21a10.59,10.59,0,0,0,9.53,0l41.92-24.2a3.4,3.4,0,0,0,2-2.78v93.27a3.38,3.38,0,0,1-2,2.78l-41.91,24.19a10.53,10.53,0,0,1-9.53,0l-41.65-24.2a3.32,3.32,0,0,1-1.94-2.72V869.46A3.33,3.33,0,0,0,1032.63,872.18Z" style="fill:url(#aa4cbb70-3928-4e8d-86c2-8e7a99488b7c)"/><path d="M1032.68,866.67c-2.62,1.52-2.65,4,0,5.51l41.65,24.21a10.59,10.59,0,0,0,9.53,0l41.92-24.2c2.62-1.52,2.64-4,0-5.53l-41.65-24.2a10.57,10.57,0,0,0-9.52,0Z" style="fill:#f0b14b"/><g style="opacity:0.20000000298023224"><path d="M1108.88,1018.07c-2.62,1.52-2.65,4,0,5.51l41.65,24.2a10.53,10.53,0,0,0,9.53,0l41.92-24.2c2.63-1.51,2.64-4,0-5.52l-41.64-24.2a10.51,10.51,0,0,0-9.52,0Z" style="fill:#519399"/></g><path d="M1149.19,1053.89l-50.39-29.28a4.48,4.48,0,0,1-2.59-3.73c0-1.46,1-2.8,2.66-3.79l50.71-29.27a13.16,13.16,0,0,1,12,0l50.38,29.27a4.48,4.48,0,0,1,2.6,3.76c0,1.45-.94,2.79-2.64,3.77l-50.73,29.27A13.22,13.22,0,0,1,1149.19,1053.89Zm.88-65.23-50.71,29.28c-1.39.81-2.16,1.85-2.16,2.94a3.56,3.56,0,0,0,2.1,2.89l50.39,29.3a12.31,12.31,0,0,0,11,0l50.71-29.27c1.39-.81,2.15-1.84,2.15-2.93a3.59,3.59,0,0,0-2.11-2.91l-50.39-29.27a10.9,10.9,0,0,0-5.48-1.31,11.15,11.15,0,0,0-5.49,1.28Z" style="fill:#070b3b"/><path d="M1108.83,947.42l41.65,24.2a10.53,10.53,0,0,0,9.53,0l41.92-24.2a3.35,3.35,0,0,0,2-2.78v59.89a3.38,3.38,0,0,1-2,2.78l-41.92,24.2a10.59,10.59,0,0,1-9.53,0l-41.65-24.21a3.29,3.29,0,0,1-1.93-2.72V944.7A3.33,3.33,0,0,0,1108.83,947.42Z" style="fill:url(#fd82bff1-1b3b-4b4d-aa5f-3db76a988ef9)"/><path d="M1108.88,941.91c-2.62,1.51-2.65,4,0,5.51l41.65,24.2a10.53,10.53,0,0,0,9.53,0l41.92-24.2c2.63-1.51,2.64-4,0-5.52l-41.64-24.2a10.51,10.51,0,0,0-9.52,0Z" style="fill:#a1dbcc"/><g style="opacity:0.20000000298023224"><path d="M1181.42,1060.93c-2.63,1.52-2.66,4,0,5.51l41.64,24.21a10.61,10.61,0,0,0,9.54,0l41.92-24.2c2.62-1.52,2.64-4,0-5.53l-41.64-24.2a10.53,10.53,0,0,0-9.53,0Z" style="fill:#519399"/></g><path d="M1221.74,1096.73l-50.39-29.29a4.47,4.47,0,0,1-2.59-3.73c0-1.45,1-2.79,2.66-3.78l50.7-29.28a12.18,12.18,0,0,1,6-1.45,11.86,11.86,0,0,1,6,1.44l50.39,29.28a4,4,0,0,1,2.4,5.12,4.06,4.06,0,0,1-2.4,2.4l-50.71,29.29a13.35,13.35,0,0,1-12.06,0Zm.88-65.23-50.71,29.28a3,3,0,0,0-.06,5.82l50.38,29.28a12.31,12.31,0,0,0,11,0L1284,1066.6a3.64,3.64,0,0,0,2.15-2.93,3.55,3.55,0,0,0-2.12-2.9l-50.38-29.28a12.24,12.24,0,0,0-11,0Z" style="fill:#070b3b"/><path d="M1181.37,1009.3l41.64,24.2a10.55,10.55,0,0,0,9.54,0l41.92-24.2a3.38,3.38,0,0,0,2-2.78v40.84a3.33,3.33,0,0,1-2,2.78l-41.92,24.2a10.55,10.55,0,0,1-9.54,0l-41.64-24.2a3.34,3.34,0,0,1-1.94-2.73v-40.84A3.34,3.34,0,0,0,1181.37,1009.3Z" style="fill:url(#b2834db6-2cec-4047-a4f0-01600ddce11c)"/><path d="M1181.42,1003.79c-2.63,1.51-2.66,4,0,5.51l41.64,24.2a10.55,10.55,0,0,0,9.54,0l41.92-24.2c2.62-1.52,2.64-4,0-5.52l-41.64-24.2a10.53,10.53,0,0,0-9.53,0Z" style="fill:#a8e3f7"/><path d="M1197.42,695.17a.19.19,0,0,0,.18-.18h0V633a.18.18,0,0,0-.36,0v62A.19.19,0,0,0,1197.42,695.17Z" style="fill:#2d7770"/><path d="M1123.75,652.64a.19.19,0,0,0,.18-.18V564a.19.19,0,0,0-.18-.19.18.18,0,0,0-.18.18h0v88.51A.2.2,0,0,0,1123.75,652.64Z" style="fill:#2d7770"/><path d="M1050.07,610.07a.18.18,0,0,0,.18-.18h0V500.07a.18.18,0,0,0-.36,0V609.92A.18.18,0,0,0,1050.07,610.07Z" style="fill:#2d7770"/><path d="M976.4,567.57a.19.19,0,0,0,.18-.18V473.94a.18.18,0,0,0-.36,0v93.45A.2.2,0,0,0,976.4,567.57Z" style="fill:#2d7770"/><path d="M902.72,525.07a.18.18,0,0,0,.18-.18h0v-61a.19.19,0,0,0-.18-.19.18.18,0,0,0-.18.18h0v61a.18.18,0,0,0,.14.21Z" style="fill:#2d7770"/><path d="M1205.28,699.89a.35.35,0,0,0,.31-.18.36.36,0,0,0-.13-.49l-311.8-180a.36.36,0,0,0-.49.13.35.35,0,0,0,.12.48h0l311.8,180A.61.61,0,0,0,1205.28,699.89Z" style="fill:#2d7770"/><path d="M1146.19,724.61a.19.19,0,0,0,.18-.18h0V651.27a.18.18,0,0,0-.36,0v73.16A.19.19,0,0,0,1146.19,724.61Z" style="fill:#2d7770"/><path d="M1072.55,682.07a.18.18,0,0,0,.18-.18h0V586.43a.18.18,0,1,0-.36,0V681.9A.18.18,0,0,0,1072.55,682.07Z" style="fill:#2d7770"/><path d="M998.88,639.54a.18.18,0,0,0,.18-.16h0V586.43a.18.18,0,0,0-.36,0v52.94a.18.18,0,0,0,.17.17Z" style="fill:#2d7770"/><path d="M925.19,597a.18.18,0,0,0,.18-.18h0V522.72a.18.18,0,0,0-.36,0v74.11A.19.19,0,0,0,925.19,597Z" style="fill:#2d7770"/><path d="M851.53,554.48a.19.19,0,0,0,.18-.18V503.43a.18.18,0,0,0-.36,0V554.3A.2.2,0,0,0,851.53,554.48Z" style="fill:#2d7770"/><path d="M1154.09,729.33a.37.37,0,0,0,.36-.37.35.35,0,0,0-.18-.3l-311.81-180a.36.36,0,0,0-.48.17.37.37,0,0,0,.12.45l311.81,180A.53.53,0,0,0,1154.09,729.33Z" style="fill:#2d7770"/><path d="M1095.51,754.07a.18.18,0,0,0,.18-.18h0V699.57a.18.18,0,1,0-.36,0v54.31a.19.19,0,0,0,.17.19Z" style="fill:#2d7770"/><path d="M1021.83,711.52a.18.18,0,0,0,.18-.18h0V657.9a.18.18,0,1,0-.36,0v53.44A.19.19,0,0,0,1021.83,711.52Z" style="fill:#2d7770"/><path d="M948.19,669a.19.19,0,0,0,.18-.18h0V625.14a.19.19,0,0,0-.18-.19.18.18,0,0,0-.18.18h0v43.67A.19.19,0,0,0,948.19,669Z" style="fill:#2d7770"/><path d="M874.48,626.45a.18.18,0,0,0,.18-.18h0V574.55a.18.18,0,1,0-.36,0v51.72A.19.19,0,0,0,874.48,626.45Z" style="fill:#2d7770"/><path d="M800.81,583.92a.19.19,0,0,0,.18-.18h0V532.88a.19.19,0,0,0-.18-.19.18.18,0,0,0-.18.18h0v50.86A.19.19,0,0,0,800.81,583.92Z" style="fill:#2d7770"/><path d="M893.48,450.25c0,5.71,4,12.72,9,15.59,2.69,1.55,5.09,1.56,6.74.37l-.33.26,4-2.32a5,5,0,0,0,1.84-2.09,20.45,20.45,0,0,0,7.52-2.73h0l4-2.32c4.29-2.49,8.13-6.26,11.77-9.84a75.8,75.8,0,0,1,7.59-6.86c.22-.09.44-.2.66-.27a19.53,19.53,0,0,0,7.5,8.94c2.51,1.45,4.79,1.58,6.44.6h0l.8-.46a130.57,130.57,0,0,1,7.59,14.62c5.5,11.69,11.73,24.95,22.73,31.3,4.85,2.8,8.74,2.45,12.09.42l-.2.14,4-2.32c4.22-2.45,7.57-7.61,10.87-12.67,2.61-4,5.16-7.9,8-10.44a19,19,0,0,0,7,8c2.73,1.58,5.19,1.57,6.86.32l-.44.29.45-.26c4.55,8.07,7.88,20.68,11.12,33,5.1,19.43,9.92,37.79,20.56,43.93,9.93,5.74,15.61,3.18,20.6.91,3.12-1.4,6.13-2.75,10.1-2.25a19.85,19.85,0,0,0,8,10.13c2.56,1.48,4.88,1.56,6.53.52l-.11.1,1.15-.68c5.29,6.44,10.26,15.44,15.1,24.3,7.4,13.5,15,27.48,24.36,32.85,8.89,5.14,14.36,4.15,19.64,3.2,3.45-.63,6.79-1.21,11.13-.18,1.38,4.51,4.57,8.93,8.29,11.08,2.52,1.46,4.8,1.58,6.44.6h0l.2-.12,3.79-2.2c1.62-1,2.63-3,2.64-5.79,0-5.72-4-12.72-9-15.6-2.51-1.45-4.79-1.58-6.43-.62l-.4.23-3.59,2.08a3.39,3.39,0,0,1,.67-.31,4.27,4.27,0,0,0-1.74,1.23,29.5,29.5,0,0,0-10.92.41c-5,.92-9.4,1.7-16.69-2.51-7-4-13.51-16-20.43-28.6-5.49-10-11.11-20.25-17.56-27.68-.07-5.69-4.06-12.57-9-15.42-2.5-1.45-4.78-1.58-6.42-.62l-4,2.32a1.91,1.91,0,0,1,.32-.16,4.63,4.63,0,0,0-2.1,2.14c-3.75,0-6.73,1.33-9.49,2.56-4.9,2.23-9.14,4.15-17-.41-6.88-4-11.29-20.74-15.55-37-3.77-14.34-7.63-29-14-38.7,0-6.37-4-13.36-9-16.23-2.51-1.45-4.79-1.59-6.43-.63l-4,2.29h0c-1.53.87-2.5,2.7-2.63,5.26l-3.14,1.83.18-.09c-4.64,2.6-8.24,8.09-11.77,13.52-2.59,4-5.12,7.85-7.9,10.29a7.82,7.82,0,0,1-6.16-1c-8.31-4.8-13.24-15.27-18.44-26.35-3-6.47-6.16-13.06-10-18.51,0-6-4-13-9-15.84-2.5-1.44-4.77-1.57-6.41-.62l-.4.23-3.58,2.09h.09a5.56,5.56,0,0,0-2.62,4.34l-1,.53-.2.11-3.79,2.2c.26-.15.52-.28.77-.41-3.75,2-7.31,5.44-11,9a77.57,77.57,0,0,1-9.3,8.25,15.43,15.43,0,0,1-5.82,1.43c-1.49-4.22-4.52-8.28-8-10.3-2.51-1.45-4.79-1.58-6.44-.63l-4,2.32h0C894.5,445.39,893.49,447.4,893.48,450.25Zm303.21,170.82a8.14,8.14,0,0,1,3.31,5.71A8.25,8.25,0,0,1,1196.69,621.07Zm-86.09-71.19a8.17,8.17,0,0,1,3.31,5.69,8.24,8.24,0,0,1-3.31-5.66Zm-77.23-86.09a8.29,8.29,0,0,1,3.33,5.71,8.3,8.3,0,0,1-3.33-5.68ZM954.08,434.6a8.22,8.22,0,0,1,3.32,5.7,8.31,8.31,0,0,1-3.32-5.67Zm-51.22,16.82a8.25,8.25,0,0,1,3.31,5.71,8.28,8.28,0,0,1-3.31-5.68Z" style="fill:#d6a41a"/><path d="M893.48,450.25c0,5.71,4,12.72,9,15.59,4.51,2.61,8.27.94,9-3.66,9,.58,16.12-6.34,22.54-12.66,4.2-4.14,8.25-8.1,12.24-9.45a19.53,19.53,0,0,0,7.5,8.94c2.9,1.67,5.49,1.59,7.15.08a132.2,132.2,0,0,1,7.64,14.71c5.5,11.69,11.73,24.95,22.73,31.3,10.82,6.25,16.89-3.09,22.76-12.12,3.76-5.77,7.38-11.32,11.9-12.89a19.07,19.07,0,0,0,7.12,8.13c2.73,1.58,5.19,1.57,6.86.32,4.55,8.08,7.88,20.69,11.13,33,5.1,19.43,9.92,37.79,20.56,43.93,9.93,5.74,15.61,3.18,20.6.91,3.12-1.4,6.13-2.75,10.1-2.25a19.85,19.85,0,0,0,8,10.13c3.08,1.78,5.82,1.56,7.45-.21,5.33,6.44,10.34,15.53,15.22,24.45,7.4,13.5,15,27.48,24.36,32.85,8.89,5.14,14.36,4.15,19.64,3.2,3.45-.63,6.79-1.21,11.13-.18,1.38,4.51,4.57,8.93,8.29,11.08,5,2.88,9,.55,9-5.16s-4-12.72-9-15.6c-4.37-2.52-8-1.06-8.89,3.18-5.63-1.57-9.75-.83-13.53-.16-5,.91-9.39,1.7-16.69-2.52-7-4-13.5-16-20.43-28.59-5.49-10-11.1-20.26-17.56-27.68-.06-5.69-4.06-12.57-9-15.42-4.61-2.66-8.43-.88-9,3.94-5.36-1-9.19.73-12.69,2.3-4.9,2.23-9.14,4.14-17-.41-6.87-4-11.29-20.74-15.55-37-3.76-14.34-7.63-29-14-38.7,0-6.38-4-13.37-9-16.24s-9.06-.57-9.07,5.16c-6.13,1.58-10.47,8.21-14.71,14.73-5.35,8.23-10.41,16-18,11.59-8.32-4.8-13.24-15.26-18.45-26.34-3-6.47-6.16-13.06-10-18.52,0-6-4-13-9-15.83-4.82-2.78-8.78-.69-9,4.63-5.34.94-10.11,5.63-15.07,10.51-5.91,5.84-12,11.78-19.11,12-1.49-4.21-4.52-8.27-8-10.3C897.56,442.21,893.49,444.53,893.48,450.25ZM1192.67,623c0-2.34,1.66-3.29,3.7-2.12a8.15,8.15,0,0,1,3.67,6.38c0,2.32-1.66,3.27-3.7,2.1A8.13,8.13,0,0,1,1192.67,623Zm-86.09-71.2c0-2.34,1.66-3.28,3.7-2.11A8.07,8.07,0,0,1,1114,556c0,2.34-1.66,3.28-3.7,2.1A8.11,8.11,0,0,1,1106.58,551.79Zm-77.23-86.09c0-2.34,1.67-3.27,3.71-2.1a8.09,8.09,0,0,1,3.67,6.36c0,2.34-1.67,3.28-3.7,2.11A8.15,8.15,0,0,1,1029.35,465.7Zm-79.29-29.19c0-2.34,1.67-3.28,3.7-2.11a8.09,8.09,0,0,1,3.67,6.36c0,2.34-1.66,3.28-3.7,2.11A8.13,8.13,0,0,1,950.06,436.51Zm-51.23,16.83c0-2.33,1.67-3.29,3.7-2.12a8.13,8.13,0,0,1,3.67,6.38c0,2.32-1.66,3.28-3.69,2.1A8.14,8.14,0,0,1,898.83,453.34Z" style="fill:#ffd131"/><path d="M842.28,490.16c0,5.73,4,12.72,9,15.59,2.56,1.48,4.86,1.57,6.5.55l-.1.08,1-.61,1.07,1.26c5.81,6.86,13.75,16.23,29.41,25.27,12.64,7.3,19.14,3.5,25.43-.16l-.55.31,1.75-1c5.1-2.93,10.29-5.34,19.12-2.41,1.35,4.55,4.57,9.07,8.33,11.24,2.6,1.5,4.94,1.55,6.6.47-.07,0-.12.11-.18.15.66-.39,1.32-.78,2-1.16l.66-.39c6.85,6.12,11,13.23,15.28,20.67,6,10.43,12.81,22.24,27.33,30.63,4.8,2.77,8.76,2.69,12.14.69l-.08.06,4-2.32c7.64-4.44,12.33-18.74,16.89-32.72,3.5-10.68,7.07-21.57,11.72-27.23a18.92,18.92,0,0,0,6.86,7.66c2.57,1.49,4.89,1.56,6.54.52a.46.46,0,0,1-.12.1l1.22-.71c6.83,11,11.87,30.2,16.77,48.92,7.42,28.3,15.08,57.57,30.84,66.67,11.66,6.73,18.54,5.55,23.56,2.51l-.29.19,4-2.32a35.25,35.25,0,0,0,5.73-4.44c.84-.75,1.65-1.46,2.45-2.11.2-.06.4-.13.61-.18a19.24,19.24,0,0,0,7.4,8.75c2.51,1.45,4.79,1.57,6.44.61h0l4-2.31c1.63-1,2.63-3,2.64-5.79,0-5.72-4-12.72-9-15.6-2.5-1.44-4.78-1.57-6.42-.62-.07,0-.14.08-.2.12l-2,1.15-.4.24-1.39.81h0a5.72,5.72,0,0,0-2.59,4.45c-.27.13-.54.27-.8.42l-4,2.32.36-.19a28.39,28.39,0,0,0-5.32,4,41.27,41.27,0,0,1-3.3,2.79c-4.06,1.61-9.33,1.41-17.49-3.29-12-6.92-19-33.76-25.82-59.7-5.8-22.14-11.34-43.29-20.41-55.62-.34-5.56-4.22-12-9-14.8-2.5-1.44-4.77-1.57-6.41-.62l-4,2.31h0c-1.53.86-2.52,2.67-2.67,5.22l-2.2,1.28c.13-.08.27-.13.4-.2-7.64,4-12.33,18.28-16.88,32.21-3.93,12-8,24.28-13.51,29.45a8.31,8.31,0,0,1-6.33-1.15c-12.3-7.1-17.76-16.58-23.55-26.63-4.76-8.28-10-17.43-19.3-25.09-.87-5.19-4.48-10.78-8.8-13.27-2.5-1.45-4.77-1.58-6.42-.62l-4,2.31a3.51,3.51,0,0,1,.68-.32,4.24,4.24,0,0,0-1.51,1c-9.65-2.65-15.47.35-20.64,3.36l-1.89,1.1c-5.51,3.17-10.7,5.38-20.36-.2-14.34-8.28-21.31-16.52-26.93-23.14l-1.95-2.28c0-5.85-4-12.86-9-15.73-2.51-1.45-4.79-1.58-6.43-.63l-4,2.3h0C843.3,485.3,842.29,487.31,842.28,490.16Zm303.28,150.12a8.27,8.27,0,0,1,3.3,5.72A8.24,8.24,0,0,1,1145.56,640.28Zm-98.71-117.89a8.18,8.18,0,0,1,3.34,5.68A8.32,8.32,0,0,1,1046.85,522.39Zm-103.19,3.48a8.21,8.21,0,0,1,3.31,5.7A8.25,8.25,0,0,1,943.66,525.87Zm-92-34.51a8.21,8.21,0,0,1,3.31,5.71A8.25,8.25,0,0,1,851.66,491.36Z" style="fill:#a1dbcc"/><path d="M842.28,490.16c0,5.73,4,12.72,9,15.59,3,1.75,5.7,1.58,7.34-.11L859.8,507c5.81,6.86,13.75,16.23,29.41,25.27,12.64,7.3,19.14,3.5,25.43-.16,5.5-3.23,10.8-6.27,20.32-3.11,1.35,4.55,4.57,9.07,8.33,11.24s7,1.37,8.36-1.59c7.3,6.26,11.56,13.63,16,21.33,6,10.43,12.81,22.24,27.33,30.63,15.54,9,22.37-11.83,29-32,4.34-13.28,8.8-26.85,15.29-30.36a19.24,19.24,0,0,0,7.27,8.47c3.13,1.81,5.89,1.56,7.52-.28,6.89,11,12,30.29,16.89,49.11,7.42,28.3,15.08,57.57,30.84,66.67,16.44,9.49,23.4,3.27,29-1.74,2.38-2.13,4.5-4,7-4.61a19.24,19.24,0,0,0,7.4,8.75c5,2.88,9,.55,9-5.16s-4-12.72-9-15.6-9-.61-9.06,5c-4,.36-6.84,2.92-9.66,5.43-5.38,4.82-10.94,9.8-24.77,1.81-12-6.92-19-33.76-25.83-59.7-5.79-22.13-11.34-43.28-20.41-55.61-.33-5.56-4.22-12.06-9-14.8s-8.91-.63-9.06,4.9c-8.71,2.6-13.76,18-18.66,33-6,18.35-12.21,37.32-23.83,30.62-12.3-7.1-17.76-16.59-23.54-26.63-4.76-8.28-10.06-17.43-19.31-25.1-.86-5.18-4.47-10.77-8.79-13.26s-8-1.07-8.86,3.11c-11.52-4-17.91-.36-23.64,3-6,3.52-11.22,6.54-21.62.54-14.35-8.28-21.32-16.52-26.93-23.14-.66-.78-1.31-1.53-2-2.28,0-5.86-4-12.86-9-15.74S842.3,484.43,842.28,490.16Zm299.25,152c0-2.34,1.66-3.29,3.7-2.12a8.11,8.11,0,0,1,3.67,6.37c0,2.33-1.66,3.28-3.69,2.11a8.15,8.15,0,0,1-3.68-6.34Zm-98.7-117.9c0-2.34,1.67-3.3,3.7-2.12a8.09,8.09,0,0,1,3.67,6.37c0,2.32-1.66,3.28-3.7,2.11a8.16,8.16,0,0,1-3.67-6.34Zm-103.19,3.47c0-2.34,1.66-3.28,3.7-2.1A8.06,8.06,0,0,1,947,532c0,2.34-1.66,3.28-3.7,2.11a8.09,8.09,0,0,1-3.67-6.34Zm-92-34.5c0-2.34,1.66-3.29,3.69-2.12a8.13,8.13,0,0,1,3.68,6.38c0,2.32-1.67,3.27-3.7,2.1a8.12,8.12,0,0,1-3.67-6.34Z" style="fill:#41b3a7"/><path d="M791.46,522.07c0,5.73,4,12.72,9,15.6,2.76,1.59,5.24,1.59,6.91.3a4,4,0,0,1-.48.32l.4-.23.11-.06a48.83,48.83,0,0,0,11.09,9.32c5.42,3.13,9.76,3.39,13.81,3.62,3.42.18,6.66.37,10.25,2.45,5.54,3.2,8.62,7.38,12.17,12.24,3.87,5.28,8.27,11.26,16,15.71,7.36,4.26,12.41,1.53,17.28-1.12,3.5-1.88,7.09-3.78,11.66-3.36,1.31,4.63,4.58,9.28,8.41,11.5,2.55,1.47,4.85,1.57,6.51.55l-.09.07,1.93-1.12c3.46,4.53,6.41,10,9.44,15.62,5.64,10.52,11.46,21.4,21.18,27,4.59,2.65,8.32,2.29,11.55.32-.08,0-.15.1-.23.15l4-2.32c4-2.36,7.33-7.28,10.56-12.1a58.61,58.61,0,0,1,6.81-9,18.89,18.89,0,0,0,6.67,7.27c2.57,1.48,4.89,1.56,6.54.52l-.12.1,1.23-.72c3.72,5,6.89,11.44,10.14,18.15,5.88,12.1,12,24.6,22.3,30.57,10.85,6.26,19.68,4.05,27.49,2.1,5.52-1.37,10.71-2.68,15-.21,5.45,3.14,12.12,12.71,17.12,21a8.75,8.75,0,0,0-.76,3.71c0,5.72,4,12.71,9,15.59,2.52,1.46,4.8,1.58,6.45.61h0l4-2.32c1.62-.94,2.63-2.94,2.64-5.79,0-5.72-4-12.72-9-15.6a7.52,7.52,0,0,0-4.8-1.17c-5.42-9-13.27-20.32-20.62-24.56-6-3.46-11.88-2-18.12-.42-7.14,1.78-15.23,3.81-24.36-1.45-7.73-4.46-12.75-14.82-18.09-25.78-3.84-7.93-7.8-16-13-22.27-.17-5.65-4.13-12.38-9-15.19-2.51-1.45-4.79-1.58-6.43-.63l-4,2.3h0c-1.6.93-2.6,2.88-2.64,5.65l-1.63.94a14.32,14.32,0,0,1,1.62-.8c-5.29,2.17-9.26,8.12-13.13,14-2.52,3.76-5,7.42-7.62,9.75a7.12,7.12,0,0,1-5.58-.91c-7.33-4.23-11.9-12.77-17.21-22.66-3.64-6.8-7.61-14.21-12.84-20.2-.68-5.35-4.39-11.3-8.88-13.89-2.5-1.44-4.77-1.57-6.41-.62l-4,2.32a4.26,4.26,0,0,1,.82-.36,4.29,4.29,0,0,0-1.59,1c-5.14-.28-9.07,1.81-12.68,3.77-4.48,2.43-8.36,4.53-13.55,1.53-6-3.49-9.25-7.86-13-12.91s-8-10.9-15.17-15c-4.76-2.74-8.67-3-12.47-3.18s-7.23-.41-11.62-3a39.7,39.7,0,0,1-9-7.59v-1c0-5.72-4-12.73-9-15.6-2.51-1.45-4.79-1.58-6.43-.63l-4,2.32h0C792.49,517.24,791.47,519.25,791.46,522.07ZM1094.68,691.3A8.19,8.19,0,0,1,1098,697a8.24,8.24,0,0,1-3.31-5.66ZM986.74,600.47a8.21,8.21,0,0,1,3.31,5.71A8.25,8.25,0,0,1,986.74,600.47ZM908.41,574a8.18,8.18,0,0,1,3.32,5.71,8.26,8.26,0,0,1-3.32-5.71ZM800.84,523.32a8.19,8.19,0,0,1,3.31,5.69,8.21,8.21,0,0,1-3.31-5.69Z" style="fill:#88f5ff"/><path d="M791.46,522.07c0,5.73,4,12.72,9,15.6,2.76,1.59,5.24,1.59,6.91.3a49.12,49.12,0,0,0,11.12,9.35c5.42,3.13,9.76,3.39,13.81,3.62,3.42.18,6.66.37,10.25,2.45,5.54,3.2,8.62,7.38,12.17,12.24,3.87,5.28,8.27,11.26,16,15.71,7.36,4.26,12.41,1.53,17.28-1.12,3.5-1.88,7.09-3.78,11.66-3.36,1.31,4.63,4.58,9.28,8.41,11.5,3.47,2,6.5,1.48,8-1,3.61,4.61,6.64,10.24,9.77,16.08,5.64,10.52,11.46,21.4,21.18,27,10.2,5.89,16.13-3,21.88-11.64,3.28-4.92,6.64-9.93,10.56-11.72a19.11,19.11,0,0,0,6.91,7.71c3.12,1.79,5.88,1.56,7.51-.28,3.79,5,7,11.54,10.28,18.33,5.88,12.1,12,24.6,22.3,30.57,10.85,6.26,19.68,4.05,27.49,2.1,5.52-1.37,10.71-2.68,15-.21,5.45,3.14,12.12,12.71,17.12,21a8.75,8.75,0,0,0-.76,3.71c0,5.72,4,12.71,9,15.59s9,.57,9.06-5.16-4-12.72-9-15.6a7.57,7.57,0,0,0-4.79-1.18c-5.43-9-13.28-20.31-20.62-24.55-6-3.46-11.88-2-18.13-.42-7.14,1.78-15.23,3.81-24.36-1.46-7.72-4.46-12.75-14.81-18.08-25.77-3.85-7.93-7.81-16-13-22.27-.17-5.66-4.13-12.39-9-15.2s-9-.55-9.07,5.16c-5.29,2.17-9.26,8.12-13.13,14C959,620.92,954,628.32,947,624.26c-7.33-4.23-11.9-12.77-17.2-22.67-3.65-6.8-7.62-14.2-12.85-20.2-.68-5.34-4.39-11.29-8.88-13.88-4.15-2.4-7.66-1.17-8.72,2.61-6.39-1.24-11,1.21-15.13,3.47-4.48,2.43-8.36,4.53-13.54,1.53-6.06-3.5-9.25-7.86-13-12.91s-8-10.91-15.18-15c-4.75-2.75-8.67-3-12.47-3.19s-7.23-.41-11.62-2.94a39.92,39.92,0,0,1-9-7.59v-1c0-5.73-4-12.73-9-15.61S791.48,516.38,791.46,522.07Zm299.2,171.11c0-2.34,1.66-3.28,3.69-2.11a8.11,8.11,0,0,1,3.68,6.36c0,2.34-1.67,3.28-3.7,2.11a8.07,8.07,0,0,1-3.67-6.33ZM982.72,602.32c0-2.32,1.66-3.28,3.69-2.1a8.07,8.07,0,0,1,3.68,6.35c0,2.34-1.67,3.3-3.7,2.12a8.09,8.09,0,0,1-3.67-6.34Zm-78.33-26.45c0-2.34,1.67-3.27,3.7-2.1a8.11,8.11,0,0,1,3.68,6.36c0,2.34-1.67,3.27-3.7,2.11A8.15,8.15,0,0,1,904.39,575.87ZM796.82,525.19c0-2.33,1.66-3.28,3.69-2.1a8.05,8.05,0,0,1,3.67,6.36c0,2.34-1.66,3.28-3.69,2.1A8.08,8.08,0,0,1,796.82,525.19Z" style="fill:#4a878c;opacity:0.30000001192092896;isolation:isolate"/><path d="M1103.37,758.78a.42.42,0,0,0,.31-.18.36.36,0,0,0-.13-.49l-311.81-180a.36.36,0,0,0-.36.62l311.81,180A.51.51,0,0,0,1103.37,758.78Z" style="fill:#2d7770"/><path d="M816.48,405.87c9.89,0,19.77,2.18,27.31,6.53s11.31,10.06,11.31,15.77-3.77,11.41-11.31,15.76-17.42,6.53-27.31,6.53-19.76-2.18-27.3-6.53-11.31-10.06-11.31-15.76,3.77-11.41,11.31-15.77S806.6,405.87,816.48,405.87Z" style="fill:#144d4c;opacity:0.20000000298023224;isolation:isolate"/><path d="M784.19,447.07c-8.71-5-13.51-11.76-13.51-18.93s4.8-13.9,13.51-18.93,20.08-7.72,32.26-7.72,23.64,2.74,32.27,7.72,13.51,11.75,13.51,18.93-4.8,13.89-13.51,18.93-20.09,7.72-32.27,7.72S792.85,452.07,784.19,447.07Zm.53-36.95c-8.38,4.84-13,11.24-13,18s4.62,13.18,13,18,19.74,7.58,31.73,7.58,23.27-2.69,31.74-7.58,13-11.24,13-18-4.61-13.18-13-18-19.74-7.58-31.75-7.58-23.25,2.72-31.69,7.61Z" style="fill:#070b3b"/><path d="M789.19,390.07c7.54-4.36,17.42-6.53,27.3-6.53s19.77,2.17,27.31,6.53,11.31,10.06,11.31,15.76v9.51c0,5.7-3.77,11.41-11.31,15.76s-17.42,6.53-27.31,6.53-19.76-2.17-27.3-6.53S777.88,421,777.88,415.34v-9.47C777.87,400.17,781.64,394.46,789.19,390.07Z" style="fill:#061e43"/><path d="M816.48,383.58c9.89,0,19.77,2.17,27.31,6.53s11.31,10.06,11.31,15.76-3.77,11.41-11.31,15.77-17.42,6.53-27.31,6.53-19.76-2.18-27.3-6.53-11.31-10.06-11.31-15.77,3.77-11.41,11.31-15.76S806.6,383.58,816.48,383.58Z" style="fill:#a8e3f7"/><path d="M783.86,870.48c9.89,0,19.77,2.18,27.31,6.53s11.31,10.06,11.31,15.76-3.77,11.42-11.31,15.77-17.42,6.53-27.31,6.53-19.76-2.18-27.3-6.53-11.31-10.06-11.31-15.77S749,881.36,756.56,877,774,870.48,783.86,870.48Z" style="fill:#144d4c;opacity:0.20000000298023224;isolation:isolate"/><path d="M751.6,911.7c-8.72-5-13.52-11.75-13.52-18.93s4.8-13.89,13.52-18.92,20.08-7.73,32.26-7.73,23.64,2.75,32.26,7.73,13.52,11.75,13.52,18.92-4.8,13.9-13.52,18.93-20.08,7.73-32.26,7.73S760.19,916.68,751.6,911.7Zm.53-36.94c-8.38,4.83-13,11.23-13,18s4.62,13.19,13,18,19.74,7.58,31.73,7.58,23.27-2.7,31.74-7.58,13-11.24,13-18-4.61-13.18-13-18-19.74-7.59-31.75-7.59S760.6,869.86,752.13,874.76Z" style="fill:#070b3b"/><path d="M756.56,854.71c7.54-4.35,17.42-6.53,27.3-6.52s19.77,2.17,27.31,6.52,11.31,10.06,11.31,15.77V880c0,5.71-3.77,11.41-11.31,15.77s-17.42,6.53-27.31,6.53-19.76-2.18-27.3-6.53S745.25,885.69,745.25,880v-9.5C745.25,864.77,749,859.07,756.56,854.71Z" style="fill:#061e43"/><path d="M783.86,848.19c9.89,0,19.77,2.17,27.31,6.52s11.31,10.06,11.31,15.77-3.77,11.41-11.31,15.76-17.42,6.53-27.31,6.53-19.76-2.17-27.3-6.53-11.31-10-11.31-15.76,3.77-11.41,11.31-15.77S774,848.18,783.86,848.19Z" style="fill:#a8e3f7"/><path d="M105.73,825.79s-7.5,17.76-2.75,36.76c0,0,3,69.81,0,81.27s-15.66,34.41-18.25,56.76c-3,25.75-5.68,67.12-5.68,67.12s20.39,21.66,44.38-3.45c0,0-2.16-20.16.46-47.92,2.66-28.21,23.73-69.51,26.48-81s10.19-56,10.19-56l-9.23-46.26Z" style="fill:#070b3b"/><path d="M123.43,1064.25s-2.16-20.16.46-47.92c2.66-28.21,23.73-69.51,26.48-81s10.19-56,10.19-56l-7.95-39.82c-12.62,1-21.22,3.51-22.18,8.46-4.13,21.23,4.72,38.86,4.72,38.86s8.25,14,8.06,28.17-9,40.5-23.41,77.85c-10.87,28.25-6.31,62.58-3.45,77.63A50.53,50.53,0,0,0,123.43,1064.25Z" style="fill:#2fa7be"/><path d="M148.35,1105.93s26.62,15.52,50.87,10c0,0-5.28-71.91,1.55-111.47s15.28-78.66,16.82-102-4.73-57.31-4.73-57.31L192,824.31l-61.43,1.38s-9.89,41.68,16.25,63.11c0,0,11.57,70.53,13.19,86s-5.18,36.27-6.59,47.34S150,1076.82,148.35,1105.93Z" style="fill:#2fa7be"/><path d="M104.73,662.75s-10.54-.58-12.83,3.32S72,719.82,67.74,730.69s-11.17,33.67-2,37.15,65.68-15,65.68-15l-9.06-19.63-26.88,3.32,11.78-29.44Z" style="fill:#5ecff5"/><path d="M124.44,737.71l-33.6,8.11a80.45,80.45,0,0,0,4.68-9.21l11.78-29.44-2-34-9,2.78s-3.84-2.41-5.5,10.72-5.59,36.69-12.68,52.7c-6.13,13.81-11.8,20.31-16.34,23.68a6.71,6.71,0,0,0,4,4.86C75,771.38,131.46,753,131.46,753Z" style="fill:#5ecff5"/><path d="M117.27,653.86S104.9,653.2,96,660.78s-6.7,20.37.87,38,32.32,61.14,30.43,72.06-14.4,23-23.49,55c0,0,1.79,23.8,36.59,31.22s64.78-.43,74-10.33c0,0,.35-10.6-6-26.64-2.7-6.87-9.9-14.85-10.19-33.19s8.3-37.42,8.3-37.42,13.69-21.55,12.09-31.3-24-25.18-24-25.18l-2.49-3.34-27.73-26Z" style="fill:#178ab1"/><path d="M214.37,846.68s.35-10.6-6-26.64c-2.7-6.87-9.9-14.85-10.19-33.19s8.3-37.42,8.3-37.42,13.69-21.55,12.09-31.3c-1.37-8.29-17.78-20.69-22.66-24.22-4.73,1.77-10,3.83-10,3.83l-7.23,18.65s-10.77-2.14-9.23,5.57,10.4,28,10.63,57.14c.16,20.19-3.59,54.68-3,80.48C195,858.18,208.68,852.82,214.37,846.68Z" style="fill:#178ab1"/><path d="M357.3,687.69c.63,1.35.15,2.52-2.37,4.08s-8.32,5-8.32,5a16.44,16.44,0,0,1-2.45,5.49c-1.71,2.23-1.41,3.12-1.26,4.09a12.8,12.8,0,0,1-.82,4.45,9.54,9.54,0,0,0-.3,2.82c0,.38-2,6.32-3.19,7.35s-10.1,6.24-13.07,7.8-13.73,11.3-18.33,15.8-32.53,32.5-38.84,37.5-18.72,16.78-23.32,16-.15-31.12,1.11-33.2,23.84-17.52,31.94-23.09,25.32-18.2,27.54-22.58,4.46-12.4,6.68-16.93,5-8.31,6.17-10.91,3-4.53,4.38-3.64,1.93,2.6,1,5.72-4.56,9.63-2.66,9.4,6.91-5,9.36-5.72,6.24-2.75,10.62-4.9S355.89,684.65,357.3,687.69Z" style="fill:#fca372"/><path d="M303.75,720.17s11.22,3.2,14,16.74c0,0-44.11,42.65-51.1,49.35S246,801.4,239.41,799.07s-50.23-48.91-60-59.1-14.48-28.16-9.75-39.31,18.34-21.4,31.15-2.18,45.42,63.76,45.42,63.76S295.24,728.68,303.75,720.17Z" style="fill:#5ecff5"/><path d="M162.46,685.61s-1.14-18.38,1.6-25.18,5.11-7.93,8.2-8.65c2.4-.56,7.31.82,12.86-10.25s3.45-15.78,4.39-20.49,2.35-8,1.55-12.57-2.31-21.55-15.69-27.35-29.7-4.8-38.63.37-16,17.19-15.92,29.71,6.89,20.33,7,28.86-5.14,19-10.25,25.62,5.52,15.9,12.78,19.29C146.58,692.52,162.46,685.61,162.46,685.61Z" style="fill:#fca372"/><path d="M171.69,640.7a157.76,157.76,0,0,1-.4-17.12l-15.47,11.64s1.17,31.56-7.88,45.26a8.36,8.36,0,0,0-1,8,43.47,43.47,0,0,0,15.5-2.89s-1.14-18.38,1.6-25.18,5.11-7.93,8.2-8.65c1.17-.27,2.94-.08,5.08-1.1A14.92,14.92,0,0,1,171.69,640.7Z" style="fill:#fca372"/><path d="M173.3,641.67c-.5.8-6.25,1.28-5.29-8.63s7.61-12.23,7.45-5A55.29,55.29,0,0,1,173.3,641.67Z" style="fill:#fca372"/><path d="M696.75,1405.13,675.09,1401c-7.69-1.47-16-3.33-21.69-9.25L617,1403.63c-.78.25-1,7-1,7.72-.23,4.17-.84,8.36,3.31,10.86a19.15,19.15,0,0,0,6.21,2c18.75,3.7,38,6.58,56.92,4.32a47.82,47.82,0,0,0,14.78-3.77,22.81,22.81,0,0,0,11-10.22,6.19,6.19,0,0,0,.72-4.41c-.78-2.51-3.81-3.39-6.39-3.88Z" style="fill:#185a78"/><path d="M570.48,1371.07s-2.3,14.39,0,17.65,11.7,6.72,17.85,3.07,6.66-6.42,13.17-12.32c6.19-5.6,15.62-10.87,18.15-19.4,2-6.58.35-14.34-2.92-15.88s-16.12,2.31-22.64,8.07S570.48,1371.07,570.48,1371.07Z" style="fill:#185a78"/><path d="M634.5,872.47c7,3.68,12.28,13.86,14.06,22s0,10.2,0,10.2,5.67,4.93,5,6.53-5.64,5.38-5.64,5.38,1,5.24.48,7.68-2.44,7.74-2,10.45-.09,7.46-2.85,8.83-14.83.45-16,4.09S626.4,970,626.4,970s-18.45,12.26-34.86,4.16-10.23-25.4-10.23-25.4,5-9.1,2.78-15.33-11.87-17.45-10-33.21,10.11-24.35,25-29.49S624,867,634.5,872.47Z" style="fill:#fca372"/><path d="M627.61,947.61c.57-1.79,3.8-2.48,7.26-2.88-5.51-1.34-12.34-3.78-12.8-7.68-.75-6.58-2.7-17.61-2.7-17.61l-11.79,5.39s-.83,35.61-6.53,52c13.3,1.23,25.41-6.8,25.41-6.8S626.46,951.25,627.61,947.61Z" style="fill:#fca372"/><path d="M624.77,928.07c-.29-4.21-1.68-6.57-5.65-5.06s-6.06,8.52-2.52,13.15S626,944.8,624.77,928.07Z" style="fill:#fca372"/><path d="M619.86,863.7c-19.41.73-42.68,8.18-46.77,30.55s5.56,28.34,5.56,28.34h0c2.21,4.51,4.56,8.14,5.5,10.84a11.36,11.36,0,0,1,.53,4.45c3.81,1.59,8.69,3.18,12.54,3,7.41-.42,7.66,1.35,11.62-5.9s8-14.74,13.74-14,9.61,2.2,10.36-.5a12,12,0,0,0,.6-6c-.26-2.78,4.13-6.06,5.39-10.45s-4-8.85,0-13c2.65-2.71,5-4.19,6.15-6.36a6.62,6.62,0,0,0,2.58-5.34C647.55,875.88,639.27,863,619.86,863.7Z" style="fill:#070b3b"/><path d="M622.58,921c5.73.76,9.61,2.2,10.36-.5a12,12,0,0,0,.6-6c-.26-2.78,4.13-6.06,5.39-10.45a6.84,6.84,0,0,0-.14-3.7c-5.12,8.33-35.17,22.66-45.2,23.84-5.12.6-10.68-.42-14.94-1.56,2.21,4.51,4.56,8.14,5.5,10.84a11.36,11.36,0,0,1,.53,4.45c3.81,1.59,8.69,3.18,12.54,3,7.41-.42,7.66,1.35,11.62-5.9S616.85,920.2,622.58,921Z" style="fill:#070b3b"/><path d="M571.49,959.51l-6-11.33s-13.78,2.56-17,12.48-12.11,28.41-14.3,38.18-6.14,40.91.38,44.37,12,3.85,18.15,1.44,17.62-11.88,17.62-11.88Z" style="fill:#2d6375"/><path d="M552.34,986a89.86,89.86,0,0,1-4.07,22.69c-3.76,11.26-6.53,17.94-5.55,25.94.54,4.51-2.48,8.4-1.83,10.92a19.24,19.24,0,0,0,11.56-1.07c6.13-2.42,17.62-11.88,17.62-11.88l.55-35.18Z" style="fill:#2d6375"/><path d="M565.74,1373.66s-1.94,10.54,12.62,12.63c8.2,1.17,20.48-10.51,25.91-22.21a35.65,35.65,0,0,0,2.63-18.69s-1.13-49.79,3-67.79,16.51-86.19,16.51-86.19L607,1101.57l-43.27,45.34s6.29,44.21,5.75,72.36-9,57.17-7.2,86.78S565.74,1373.66,565.74,1373.66Z" style="fill:#070b3b"/><path d="M674.24,1159.28s8.34,35.9,3.23,71-13.75,108.22-14.83,125.79,12.12,45,12.12,45-33,16.54-58.84,15.06c0,0-6.26-71.48-3.56-93.09s10.92-48.31,8.14-63.6-10.62-72.07-10.62-72.07-10.24-15.56-12.74-30S674.24,1159.28,674.24,1159.28Z" style="fill:#070b3b"/><path d="M587.19,1162.29q4.5,2,9.94,4.19c23.2,9.48,47.43,7,63.49,3.4a20.49,20.49,0,0,0,15.6-23.53c-1.16-6.67-2.61-14.61-4.25-22.78-4.21-21-9.43-29.78-9.74-41.25s5.6-63.66-12.48-83.33c-13.64-14.82-26.52-20.81-32-22.86a20.85,20.85,0,0,1-5.66-3.16l-25.74-20.34a20.59,20.59,0,0,0-11.53-4.39,58.12,58.12,0,0,0-9.33-.06c-4,.58-10,9.13-12.27,17.6s-4.79,28.85,1,45.08,21.23,51,17.28,70.74c-2.52,12.58-7.46,35.72-10.72,50.88a20.52,20.52,0,0,0,10.93,22.69c3.13,1.55,6.9,3.32,11.39,5.33" style="fill:#2d6375"/><path d="M583.34,942.36s8.63,9.32,18.45,14.15c8.68,4.27,25.86,8.72,25.86,8.72l4,14.1s-31.86-5.06-45.74-12.88-7.22-18.92-7.22-18.92Z" style="fill:#2d6375"/><path d="M588.52,955.35c-8.7-7.19-7.6-10.32-7.6-10.32l-5.77,3.15s-7.31,11.08,5.64,19.15,32.45,12.12,42.61,15.77,20.87,12.62,20.87,12.62L649.7,999C637.46,973.14,597.19,962.55,588.52,955.35Z" style="fill:#2d6375"/><path d="M735,1060.07c1.51-3.53,2.22-8.42,1.78-10.78s-4.6-8-2-9.21,6.33,4.52,6.33,4.52l2.63-5.32A3.58,3.58,0,0,1,744,1036a3.49,3.49,0,0,1,4.27-1.52c.89.51,4.59.67,4.59.67-1.45-1.15-4.61-4.52-3.46-7.27s8,1.71,13.18,5.44,5.11,7.76,6,12.13,4.06,5.42-1.68,15.1-12.71,16.61-19.4,24.32c-1.17,1.36-3.06,3.46-5.36,6l-12.45-15.36c4.35-2.59,7.37-4.36,7.37-4.36S733.48,1063.62,735,1060.07Z" style="fill:#fca372"/><path d="M747.58,1063.74c-1,4-10.36,7.06-10.36,7.06h-.33c-.65-1.49-3.2-7.64-1.86-10.72,1.51-3.52,2.21-8.42,1.77-10.78s-4.58-8-2-9.2,6.33,4.51,6.33,4.51l2.63-5.32A3.62,3.62,0,0,1,744,1036a3.52,3.52,0,0,1,4.29-1.52c.89.51,4.59.66,4.59.66-1.46-1.15-4.6-4.52-3.46-7.27.82-2,4.61-.21,8.61,2.32a71.08,71.08,0,0,0,6.28,8.67l-4,8.14-6.32,4S748.56,1059.73,747.58,1063.74Z" style="fill:#fca372"/><path d="M778.36,998.07a1.89,1.89,0,0,0-.49-2.53l-74-48.47a1.7,1.7,0,0,0-2.34.59.16.16,0,0,0,0,.07l-35,58.85a1.88,1.88,0,0,0,.47,2.53L741,1057.56a1.7,1.7,0,0,0,2.33-.58l.05-.08Z" style="fill:url(#fe965bb0-4d86-4946-9d2a-e19dfb401591)"/><path d="M743.39,1056.92l35-58.85a1.89,1.89,0,0,0-.49-2.53l-74.08-48.47,2.75.9a1.43,1.43,0,0,1,.63.24l74.06,48.44a1.9,1.9,0,0,1,.48,2.54l-35,58.85a1.85,1.85,0,0,1-1.21.88l-3.2-1.19A1.87,1.87,0,0,0,743.39,1056.92Z" style="fill:url(#e6e72266-d25d-42fb-83be-0cb9460a256d)"/><polygon points="671.79 1006.45 741.18 1051.84 773.04 998.22 703.65 952.83 671.79 1006.45" style="fill:#061e43"/><polygon points="696.38 976.13 711.34 985.93 711.69 985.36 696.72 975.57 696.38 976.13" style="fill:#66c2ab"/><polygon points="695.59 977.48 710.55 987.25 710.88 986.69 695.93 976.9 695.59 977.48" style="fill:#66c2ab"/><polygon points="694.8 978.82 709.76 988.6 710.09 988.02 695.14 978.25 694.8 978.82" style="fill:#66c2ab"/><polygon points="694 980.15 708.95 989.95 709.29 989.38 694.35 979.59 694 980.15" style="fill:#66c2ab"/><polygon points="699.93 985.89 708.16 991.27 708.5 990.71 700.26 985.33 699.93 985.89" style="fill:#66c2ab"/><polygon points="706.62 961.03 721.57 970.83 721.91 970.25 706.96 960.48 706.62 961.03" style="fill:#66c2ab"/><polygon points="705.82 962.38 720.78 972.16 721.12 971.6 706.16 961.81 705.82 962.38" style="fill:#66c2ab"/><polygon points="705.03 963.72 719.97 973.5 720.32 972.94 705.37 963.14 705.03 963.72" style="fill:#66c2ab"/><polygon points="704.23 965.06 719.19 974.84 719.52 974.26 704.57 964.49 704.23 965.06" style="fill:#66c2ab"/><polygon points="710.15 970.79 718.39 976.19 718.73 975.62 710.5 970.23 710.15 970.79" style="fill:#66c2ab"/><polygon points="677.96 999.73 692.9 1009.5 693.25 1008.94 678.3 999.15 677.96 999.73" style="fill:#66c2ab"/><polygon points="677.16 1001.07 692.11 1010.86 692.45 1010.27 677.5 1000.5 677.16 1001.07" style="fill:#66c2ab"/><polygon points="676.36 1002.41 691.32 1012.2 691.65 1011.63 676.7 1001.84 676.36 1002.41" style="fill:#66c2ab"/><polygon points="675.57 1003.75 690.51 1013.52 690.85 1012.97 675.9 1003.18 675.57 1003.75" style="fill:#66c2ab"/><polygon points="681.49 1009.49 689.72 1014.87 690.06 1014.31 681.83 1008.91 681.49 1009.49" style="fill:#3bbdcc"/><polygon points="684.58 990.11 699.53 999.88 699.88 999.32 684.92 989.53 684.58 990.11" style="fill:#66c2ab"/><polygon points="683.8 991.45 698.74 1001.23 699.08 1000.65 684.13 990.88 683.8 991.45" style="fill:#66c2ab"/><polygon points="682.99 992.78 697.94 1002.57 698.28 1002 683.33 992.22 682.99 992.78" style="fill:#66c2ab"/><polygon points="682.19 994.13 697.15 1003.9 697.49 1003.34 682.53 993.56 682.19 994.13" style="fill:#66c2ab"/><polygon points="688.13 999.86 696.35 1005.25 696.69 1004.68 688.45 999.29 688.13 999.86" style="fill:#66c2ab"/><polygon points="763.16 997.59 767.18 1000.24 745.11 1037.38 741.08 1034.74 763.16 997.59" style="fill:#ffd131"/><polygon points="750.4 1007 754.43 1009.63 739.95 1034 735.91 1031.37 750.4 1007" style="fill:#ffd131"/><polygon points="741.78 1009.4 745.84 1012.04 734.79 1030.63 730.75 1028 741.78 1009.4" style="fill:#ffd131"/><polygon points="739.72 1000.84 743.75 1003.48 729.64 1027.25 725.59 1024.62 739.72 1000.84" style="fill:#ffd131"/><polygon points="739.07 989.87 743.1 992.5 724.47 1023.88 720.45 1021.24 739.07 989.87" style="fill:#ffd131"/><polygon points="720.54 1009 724.58 1011.63 719.29 1020.5 715.27 1017.86 720.54 1009" style="fill:#ffd131"/><polygon points="720.36 997.23 724.4 999.87 714.16 1017.11 710.1 1014.48 720.36 997.23" style="fill:#ffd131"/><path d="M712.9,978.86a1.52,1.52,0,0,0,.38,2,1.37,1.37,0,0,0,1.87-.47l0-.07a1.48,1.48,0,0,0-.39-2,1.34,1.34,0,0,0-1.86.47A.16.16,0,0,0,712.9,978.86Z" style="fill:#ffd131"/><path d="M709,976.31a1.55,1.55,0,0,0,.38,2,1.39,1.39,0,0,0,1.89-.5l0,0a1.53,1.53,0,0,0-.37-2,1.37,1.37,0,0,0-1.88.46Z" style="fill:#ffd131"/><path d="M705.12,973.77a1.52,1.52,0,0,0,.38,2,1.37,1.37,0,0,0,1.88-.49l0,0a1.5,1.5,0,0,0-.39-2,1.34,1.34,0,0,0-1.85.45A.41.41,0,0,0,705.12,973.77Z" style="fill:#ffd131"/><path d="M724.31,1018.37a6.46,6.46,0,0,1-6.9-.75c-2.55-1.9-6.72-6.77-9.34-6.42s-5.56.89-5.56.89,4.37,4.56,3.24,6.8-2.61,6.41-2.61,6.41,7.61,3.66,6.7,7.49-9,1.61-11.9.07c0,0-3.09,5.57-5.06,5s-.94-8.61-.94-8.61l-1.92.07s-6.91,5.06-10,5.73-3.13-1.18-2.42-2.51,4-5.49,4-5.49l-14.15-3.11-16.8,10.51-10.52-16.38s22.18-9.55,26.72-9.68,21.57-5.51,25.2-5.63a138.13,138.13,0,0,1,17,1.12C712.54,1004.4,727,1016.63,724.31,1018.37Z" style="fill:#fca372"/><path d="M702.51,1012.07s4.37,4.56,3.24,6.8-2.61,6.41-2.61,6.41c-8.62-2.24-13.58-8.63-12.65-10.61S702.51,1012.07,702.51,1012.07Z" style="fill:#fca372"/><path d="M691.44,1028.49c5,1.21,6.5,4.37,6.5,4.37s-3.09,5.57-5.06,5-.94-8.61-.94-8.61l-1.92.07s-6.91,5.06-10,5.73-3.13-1.18-2.42-2.51,4-5.49,4-5.49h-.26C683.09,1026.77,686.44,1027.29,691.44,1028.49Z" style="fill:#fca372"/><path d="M663.37,1007.16s6.17,6.32,4.83,22.79l-21.87,14.76-15.06-26.59Z" style="fill:#2d6375"/><path d="M754,1068.6s-6.66-6-4.26-13.4,4.44-10.67,3.67-13.14S750,1027.73,755,1027s5.27,6.48,5.62,10a25.52,25.52,0,0,0,3.33,10.42c1.77,2.76,3.42,7.45.57,14.3S758,1071.4,754,1068.6Z" style="fill:#fca372"/><path d="M671.92,1123.57c-4.21-21-9.43-29.78-9.74-41.25-.21-7.71,2.39-33.87-1.4-56.15l-34.39-7.47s-7.31,6-5.49,18.68c1.57,11,19.15,95.17,20.81,135.36a131.93,131.93,0,0,0,15.71-2.2,23.24,23.24,0,0,0,18.28-26.85C674.63,1137.62,673.35,1130.68,671.92,1123.57Z" style="fill:#2d6375"/><path d="M681.07,1081.84c12.26-5,52.86-18.88,52.86-18.88,7.42,1.26,13.77,6.82,14.37,12.65.77,7.61-5.34,18-5.34,18s-32.3,10.44-47.12,19.3-21.83,6.06-27.35,2.74C660.46,1110.77,666.37,1087.78,681.07,1081.84Z" style="fill:#2d6375"/><path d="M681.07,1081.84c12.26-5,52.86-18.88,52.86-18.88a20.06,20.06,0,0,1,7.66,3l-.79,2s-51.27,20-72.86,47.21C660.75,1109.67,666.73,1087.63,681.07,1081.84Z" style="fill:#2d6375"/><path d="M633.24,988.28s18.74,6.66,25.41,20,9.38,36.36,11.79,42.18,15.22,31.65,18.92,37,6.29,12.1,2,18.7-10,16-21.62,12.56-30.25-36.22-36.5-50.13-13.43-34.08-13.46-47.15S628.41,991.26,633.24,988.28Z" style="fill:#2d6375"/><path d="M2151.76,515.07a40,40,0,0,1-2.22,16.72c-3.18,8.75-14.23,28.65-14,36.88s3.71,14.39,11.35,15.24c5.9.65,24.05-5,30.16-19.34s.91-18.23,4.1-24.33,6.93-19.07,4.8-28.62S2151.76,515.07,2151.76,515.07Z" style="fill:#2d6375"/><path d="M2177.08,564.57c-6.11,14.33-24.26,20-30.16,19.34-7.38-.82-10.83-6.61-11.3-14.41a9.25,9.25,0,0,0,0,1.29c.27,8.23,3.71,14.4,11.35,15.24,5.9.66,24.05-5,30.16-19.33,3-7,3.25-11.44,3.14-14.92A34.87,34.87,0,0,1,2177.08,564.57Z" style="fill:#2d6375"/><path d="M2181.19,540.24a11.08,11.08,0,0,0-1.11,6.23c0-.46-1.11,2.49-1,2l.93,8.32,4.8-26.23,1.15-5.23A54.43,54.43,0,0,1,2181.19,540.24Z" style="fill:#2d6375"/><path d="M2129.7,491.07l-38.86-1.74H2090s-3.47,9-11.63,12.32-29.5,12-35.57,20.13c-5,6.69,5.9,16,28.63,10.41,16.11-3.93,17.87-12.14,36.79-12.49,12.95-.24,23.42-4.86,25.68-7.29Z" style="fill:#2d6375"/><path d="M2108.19,518.45a57,57,0,0,0-7.57,1.07c-7.61,1.67-14.44,5.58-21.5,8.72-7.66,3.4-15.56,5.28-24,4.51-4.59-.42-10.47-5.22-13.49-8a1.78,1.78,0,0,0,.12-.27,3.22,3.22,0,0,0-.14,1.6,7.17,7.17,0,0,0,.81,3.71,8.16,8.16,0,0,0,2.35,2.37,18.79,18.79,0,0,0,7.42,2.91c9.68,1.86,19.45-.9,28.74-3.44,7-1.91,13.91-4.16,21.1-5.47,7.5-1.37,15.09-2.21,22.59-3.62a15.9,15.9,0,0,0,6.6-2.37c2.31-1.72,3.07-5.08,2.7-7.73-4.29,3.57-11.11,4.64-16.65,5.28C2114.19,518.07,2111.19,518.19,2108.19,518.45Z" style="fill:#2d6375"/><path d="M2082.32,500.8s9.85-41.07,3-87.11c-4.68-31.65-16.79-121.29-3.17-185.71,0,0,8.8,14.34,31.07,23.06S2140,268,2140,268l-3.77,60.43s-9.44,28.28-8.31,45.3,4.15,21.11,4.71,50.62-.42,79.94-.42,79.94S2104,509.73,2082.32,500.8Z" style="fill:#070b3b"/><path d="M2187.61,435.62c-3.52-28.93-7.63-54.53-6.25-74.47s-2.72-95.53-12.69-118.78l-55.41,8.7s9.48,95.2,20.61,141.8,15.67,139,15.67,139,.93,11.13,14.42,11.72,22-23.85,22-23.85S2191.13,464.55,2187.61,435.62Z" style="fill:#070b3b"/><path d="M1969.39,144.51s-14.47.64-17.47.64-12.85-.43-13,3.85c0,0,.44,2.36,5.25,2.69s18.75,1.06,18.75,1.06-5.36,2.57-7.17,4.61-3.33,2.68-3.54,6.33-1.39,5.25-.22,5.67,5.26-.42,5.26-.42l2.14,4.71s-2,2-1.93,3.53,2.78,4,6.1,5,5.57.1,5.36-.64a34.11,34.11,0,0,0-2.46-4.07,38,38,0,0,0,11.46.64,63.59,63.59,0,0,0,13.18-3.22l11.78,1.82,3.75-19.17-10.39-.43a36.39,36.39,0,0,0-10.07-7.29C1980.42,147.18,1978,144.15,1969.39,144.51Z" style="fill:#fca372"/><path d="M1965.74,177c.65-.32-.85-4.18-1-4.82a9.38,9.38,0,0,0-1.39-3.21c-.76-1.07-6.1,0-6.1,0s2.67-5.9,3.74-6.65,4-1.5,6-3,9.32-2,9.32-2l-.75,5.47s.75.75,2.79,2.46,4.6-.11,6.31-1.59a75.69,75.69,0,0,1,8.15-6.23,4.79,4.79,0,0,0,1.68-1.89c1.11,1,1.75,1.68,1.75,1.68h.48c-.91,4.85-2.52,11.44-2.52,11.44l9.61,3.44-.93,4.7-11.69-1.84a63.59,63.59,0,0,1-13.18,3.22,38,38,0,0,1-11.46-.64,34.11,34.11,0,0,1,2.46,4.07c.21.74-2,1.71-5.36.64s-6-3.54-6.1-5,1.93-3.53,1.93-3.53C1961.57,179.65,1965.1,177.29,1965.74,177Z" style="fill:#f99767"/><path d="M1999.05,154.87s30,1.85,37.4,2.38,16.93,2.15,16.93,2.15,16.71-30.32,20.14-37.82,9.32-33.63,18.85-38.35,19.5-9,19.4,13.28-8.36,46.39-11.79,53.25-19.71,39.85-37.39,42.42-68.35-9.49-68.35-9.49Z" style="fill:#2d7770"/><path d="M2070.19,169.07c2-14,9-51.17,16.07-58.37,3.68-3.75,12.21,9.18,19.52,23.25a104.72,104.72,0,0,1-5.75,15.8c-3.43,6.86-19.71,39.85-37.39,42.42a43,43,0,0,1-5.32.36C2062.32,186.62,2068.92,177.5,2070.19,169.07Z" style="fill:#2d7770"/><path d="M2160.65,61.44s-1.54,11.81,1.55,18.19-7.6,25.13-21.25,30.94-27-2.6-27.21-5.86,4.54-27.1,4.54-27.1Z" style="fill:#fca372"/><path d="M2165.08,92.07c-1.45,12.5-29.62,57.87-37.29,69.46s-13.73,59.89-20.47,64.84-14.82-15.75-14.82-15.75v-83.1l17.69-29.85s9.1,11.7,15.65,13.45,35-21.92,35-21.92Z" style="fill:#2d7770"/><path d="M2125.81,111.12l-4.57-11.26-10.34,7.3,1.83,10.23s-18.7,53.6-22.06,112l6.4,15.84,7.87-9.45s6.22-62.8,8.34-76,5.53-41.19,5.53-41.19Z" style="fill:#2d7770"/><path d="M2081.75,223.34c.26-7.39-2.56-57.92-1.48-85.79.88-23,14.92-46.79,19.84-54.47a6.51,6.51,0,0,1,4.61-3h0a6.55,6.55,0,0,1,7.07,8.78c-7.7,20.75-22.11,70.5-10.88,130.13a6.58,6.58,0,0,1,.09,1.54c-1.49,25.43.13,55.76.79,74.07a23.82,23.82,0,0,0,.16,2.45h0c-2.38,12.61-8.62,13-17.54,6.45a50.15,50.15,0,0,1-9.63-9.4,6.61,6.61,0,0,1-1.29-5.11C2075.19,278.86,2081.11,242.07,2081.75,223.34Z" style="fill:#2d7770"/><path d="M2108.54,108.74l12.7-8.88s-2.32-14.35,0-24.27l-5.07-.21S2105.88,92.49,2108.54,108.74Z" style="fill:#2d7770"/><path d="M2088.82,122.12l8.69-5.31-4.64-8.07s10.5-22.45,19.79-32.08l4.32,1s-31.27,63.24-15.81,142.81C2101.19,220.43,2079.79,162.4,2088.82,122.12Z" style="fill:#2d7770"/><path d="M2163,80.54s-.87,15.16-15.59,31.23-40.49,58.17-45.11,94.06c-3.52,27.36-24,69-23.25,91,.13,3.47,4.62,6.25,7.2,7.84a87.43,87.43,0,0,0,11.45,5.94,120.13,120.13,0,0,0,25.77,7.31c1.49.27,3,.52,4.5.75,8.84,1.36,17.87,2.16,26.81,1.23s17-4.06,25-8l.11-.06a14,14,0,0,0,7.18-16.35c-10.7-38.22-9.07-38.8-12.28-46.41-3.69-8.78-7.5-20.6-5.86-26.4S2205.34,119,2205.34,119l-38-29.15Z" style="fill:#2d7770"/><polygon points="2122.38 261.19 2123.22 274.63 2153.56 272.67 2125.95 272.75 2122.38 261.19" style="fill:#2d7770"/><path d="M2159,10.69c-9.58-6.44-24.73-5.73-35.4,1.49s-13.5,15.89-14.42,19.89-2.12,7.3-3.06,10.28,2.15,6.72,2.15,6.72c-3.35,4.21-.75,14.21,0,16.63a5.4,5.4,0,0,0-.57,2.27,2.63,2.63,0,0,0,1.88,2.49,52.29,52.29,0,0,1,1.37,8.71c0,2.41-.32,10.43,9.1,10.58s23-5.41,31.54-12.24,17.51-20.64,20.1-34.45S2168.57,17.12,2159,10.69Z" style="fill:#fca372"/><path d="M2108.19,65.66h0c1.31-3.18,4.54-8.12,5.42-11.33,1.15-4.16-7.15-8.32-7.15-8.32h0a13.16,13.16,0,0,0,1.77,3C2104.91,53.24,2107.51,63.24,2108.19,65.66Z" style="fill:#fca372"/><path d="M2159,10.69c-9.58-6.44-24.73-5.73-35.4,1.49-8.49,5.74-12,12.43-13.57,16.89,1.42,3.26,3.39,5.77,6.15,6.37,9.38,2,18.18-.9,22.91.5,3.59,1.08,5.41,7.86,5.81,14s4.23,8.26,3,15.12c-1,5.94-9.44,14.82-11.78,21.13a62.13,62.13,0,0,0,15.39-8.73c8.56-6.83,17.51-20.64,20.1-34.45S2168.57,17.12,2159,10.69Z" style="fill:#fca372"/><path d="M2160.19,6.28c-14.79-10.32-32.13-6.16-41.13,0-3.17,2.16-6.73,5.46-10.56,12.37-3.15,5.69-3.22,17.29,10.13,18.33,7.22.57,16.78-.83,24-2.23,7.84,5.07,4.72,13.41,5.77,16.19s2.21,6.36,4,7.38c1.08.61,3.13-1.16,3.65-1.76,1.28-1.47,10.17-11.76,10.74.95a58.15,58.15,0,0,0,4.9-14.49,36.67,36.67,0,0,0,.62-6h0C2174.76,32,2174.37,16.23,2160.19,6.28Z" style="fill:#070b3b"/><path d="M2148.39,50.94c1.06,2.8,2.21,6.36,4,7.38,1.08.61,3.13-1.16,3.65-1.76,1.28-1.47,10.17-11.76,10.74.95a58.15,58.15,0,0,0,4.9-14.49,36.67,36.67,0,0,0,.62-6c-8.37,4.31-18.68,5.86-24.26,6.4C2148.41,46.57,2147.84,49.5,2148.39,50.94Z" style="fill:#070b3b"/><path d="M2114.85,88.48c.81-11.67-1.35-17.57-1.35-17.57-.13-.51-2.3.07-4-.49h0a52.29,52.29,0,0,1,1.37,8.71C2110.9,81,2110.72,86.07,2114.85,88.48Z" style="fill:#fca372"/><path d="M2155.41,68.15c1.14.73,3.81,1.79,9-3.77s5.11-10.81,2.54-12.56a4.34,4.34,0,0,0-6.09.86,3.94,3.94,0,0,0-.31.48C2159.19,55.18,2155.41,68.15,2155.41,68.15Z" style="fill:#f19c6f"/><path d="M2155.41,68.15c1.14.73,3.81,1.79,9-3.77s5.11-10.81,2.54-12.56a4.34,4.34,0,0,0-6.09.86,3.94,3.94,0,0,0-.31.48C2159.19,55.18,2155.41,68.15,2155.41,68.15Z" style="fill:#fca372"/><path d="M2165.08,189.73c5.71-14.62,21.42-41.37,21.42-41.37l6.82,4.54c-10.2,28.87-23.36,66.22-24.35,69.74-1.64,5.8,2.17,17.62,5.86,26.4,3,7,1.8,8.06,10,38.32a24,24,0,0,1-14.3,28.65l-.32.12c-6-20.63-15.23-48.78-22.25-54.94-8.31-7.31-34.24-6.62-47.5-5.74-.1-5.78-.13-11.68-.07-17.52L2148,224.45S2159.36,204.35,2165.08,189.73Z" style="fill:#2d7770"/><path d="M2106,219.38a18.51,18.51,0,0,0-4.29-4.58c-2.13-1.33-8-.47-12.31-1.08s-9.2-2-11.74-2.55-3.89,2.82-1.51,5.49,4.71,3.65,10.43,3.92,9.71,0,8.2,5.14S2106,219.38,2106,219.38Z" style="fill:#fca372"/><polygon points="2109.7 278.75 2056.24 256.39 2025.99 160.54 2079.46 182.9 2109.7 278.75" style="fill:#ffd131"/><polygon points="2064.77 179.17 2062.59 172.28 2040.65 163.11 2042.82 170 2064.77 179.17" style="fill:#fff"/><path d="M2120.55,228.31c-4,.62-5.05-3-9.09-6.33s-7.53-6.88-10.39-7.33-5.8,8.68-6.8,10a13.32,13.32,0,0,1-6.33,3.6c-2.38.54-8.94.43-12.28-2s-9.92-10.07-9.92-10.07c-6.81-2.07,1.06,16.68,3.67,19.74s11.72,9.5,13.72,10.53,16.79-2.12,21.42-1.54,14.11,3.35,23.53,2.16l2.8-21C2125.91,227.22,2122,228.07,2120.55,228.31Z" style="fill:#fca372"/><path d="M2129.19,238.53c-5.27-.36-17-1.13-21.65-1.1-6,0-15.06,2.39-20.74,2.63-4.89.21-18.29-11.26-23.68-19.75.74,5.24,4.59,13.68,6.26,15.64,2.61,3.07,11.72,9.5,13.72,10.53s16.79-2.12,21.42-1.54,14.11,3.35,23.53,2.16Z" style="fill:#fca372"/><path d="M2114.64,223.66l-.92,27.13s72.94-.85,84.89-10.42,16.67-55,17-64.52,4-37.43-7.69-54.65c-5.12-7.54-28.38-1.16-30,27.34s-2,66.09-2,66.09Z" style="fill:#2d7770"/><path d="M190.72,1087.56c7.13-.85,14.45-2.17,21.63-1.33a10.37,10.37,0,0,1,5.27,1.77c2.51,2,3.08,5.7,2.09,8.73s-3.24,5.47-5.61,7.61c-10,9-22.61,14.24-35.22,18.36-9.42,3.07-23.85,7.32-32.18-.37-8.55-7.89-2.75-18,4.68-24.17,6.56-5.4,14.35-7.57,22.61-8.54C179.56,1089,185.19,1088.23,190.72,1087.56Z" style="fill:#144d4c"/><path d="M111.19,1042.9c5.81-3.12,11.64-6.76,18-8.29a8.36,8.36,0,0,1,5,0c2.74,1.06,4.36,4.44,4.43,7.65a19.84,19.84,0,0,1-2.46,9.09c-5.73,11.85-14.92,20.94-24.4,29-7.08,6-18.08,14.73-27.5,10.1-9.67-4.76-7.82-16.34-3.35-24.6,3.94-7.29,9.91-11.88,16.64-15.49C102.19,1047.87,106.67,1045.35,111.19,1042.9Z" style="fill:#144d4c"/><path d="M106.5,822.72s-7.5,17.76-2.75,36.76c0,0,3,69.81,0,81.27S88.1,975.15,85.5,997.51c-3,25.75-5.68,67.12-5.68,67.12s20.4,21.66,44.38-3.45c0,0-2.16-20.16.46-47.92,2.66-28.22,23.74-69.51,26.49-81s10.18-56,10.18-56L152.1,830Z" style="fill:#070b3b"/><path d="M148.35,1100.86s26.62,15.52,50.87,10c0,0-5.28-71.91,1.55-111.47s15.28-78.66,16.82-102-4.73-57.32-4.73-57.32L192,819.23l-61.43,1.39s-9.89,41.68,16.25,63.1c0,0,11.57,70.53,13.19,86s-5.18,36.26-6.59,47.33S150,1071.75,148.35,1100.86Z" style="fill:#070b3b"/><path d="M119.06,654.23a16.67,16.67,0,0,0-4.34-.33c-4.09.23-12.3,1.42-18.7,6.88-8.88,7.57-6.7,20.37.87,38s32.32,61.14,30.43,72.06c-1.8,10.37-13.18,21.76-22.1,50.32a16.73,16.73,0,0,0,.55,11.54c3.26,7.62,11.9,19.47,34.65,24.32,25.42,5.43,48.28,2.69,62.33-3a17,17,0,0,0,10.11-19.46,93.7,93.7,0,0,0-4.46-14.49c-2.7-6.87-9.9-14.85-10.19-33.19-.24-15.41,5.78-31.33,7.71-36a17,17,0,0,1,1.2-2.37c2.63-4.33,12.87-21.81,11.48-30.32-1.31-8-16.49-19.7-22-23.75a17.31,17.31,0,0,1-3.59-3.56h0a16.41,16.41,0,0,0-2-2.24l-23.14-21.77a17,17,0,0,0-8.25-4.28Z" style="fill:#5ecff5"/><path d="M183.81,583.27c-5.21-6.34-14.27-13.35-34.83-11.17-9.92,1.06-17.92,8.67-21.9,14.12-4.44,6.11-8.49,14.86-7.46,32.4s.11,32.37-11.25,43.68c-6.33,6.3-9.42,24.13-3.64,34.92a32.3,32.3,0,0,1,.58-22.81l.11-.26a.66.66,0,0,1-.11.26,33.56,33.56,0,0,0,2,26.44,15.22,15.22,0,0,0,4.15,3.2c14.9,7.68,34.07,13.42,38.35,13,3.35-.32,7.89-2.63,12.14-6.29a40.66,40.66,0,0,1-4.91,5.17c8.92-3.89,13.56-14.08,15.47-19.55a54.53,54.53,0,0,1-3.59,12.17s5.86-9.51,6.23-17.12-3.44-20-3.44-20h0c-3.91-18.54-8.37-32.17-1.1-39.51l2.06-3c.19,0,1.15,3.42,3.94,2.66,1.4-.37,3.23-7.9,4.87-12.21.4-1,1-2.37,1.61-3.83C200.55,600.94,183.81,583.27,183.81,583.27Z" style="fill:#070b3b"/><path d="M187.7,606.72c-3.8,6.38-10.49,8-18.3,15.35s-7.65,25.06-2.86,41.16a100.39,100.39,0,0,1,4.29,29.22,70,70,0,0,0-6.56-25.6s6.07,16.92,2.8,28.41-13.55,16.81-13.55,16.81c3.88-4.1,7.3-12.32,7.3-12.32-6.36,10.23-14.14,12.72-14.14,12.72a50.64,50.64,0,0,0,12.82-45.4c1,42-25.43,43.61-25.43,43.61l2.14-4.11c-1.46,1.57-4.94,4.24-7.32,2.64s-4.16-7-4.16-7l-.22,5.81c-2.57-1.44-5.77-7.56-5.77-7.56l-.18,4.89c-8.56-12.5-1.18-38.64-1.18-38.64C108.6,687,113.88,703,113.88,703c-6.75-6.2-6.23-20.15-6.23-20.15a21,21,0,0,0-.38,10.23c-1.39-3.43-3.46-12.46,4.36-26s8.76-22.36,8.76-22.36a53.12,53.12,0,0,1-4.25,9.61,48.4,48.4,0,0,0,3.8-25.93h0c0,13.35-2.37,24.81-11.57,34-6.33,6.3-9.42,24.13-3.64,34.92a32.3,32.3,0,0,1,.58-22.81l.11-.26a.66.66,0,0,1-.11.26,33.56,33.56,0,0,0,2,26.44,15.22,15.22,0,0,0,4.15,3.2c14.9,7.68,34.07,13.42,38.35,13,3.35-.32,7.89-2.63,12.14-6.29A40.66,40.66,0,0,1,157,716c8.92-3.89,13.56-14.08,15.47-19.55a54.53,54.53,0,0,1-3.59,12.17s5.86-9.51,6.23-17.12-3.44-20-3.44-20h0c-3.91-18.54-8.37-32.17-1.1-39.51l2.06-3c.19,0,1.15,3.42,3.94,2.66,1.4-.37,3.23-7.9,4.87-12.21.4-1,1-2.37,1.61-3.83l-5.57,2.68A35.41,35.41,0,0,0,187.7,606.72Z" style="fill:#070b3b"/><path d="M149,572.07c-9.92,1.06-17.92,8.67-21.9,14.12-4.44,6.11-8.49,14.86-7.46,32.4.21,3.44.33,6.77.32,10a78.36,78.36,0,0,1,2.09,7.82c1.15,6.9-1.71,23.11-1.71,23.11,1.94-4.41,3.18-15.25,3.18-15.25,1.42,6.2-2.67,26.94-2.67,26.94,4.22-7.27,8-24.87,7.2-49.21s15.15-39.74,21.29-43.64a31.73,31.73,0,0,1,22.33-4.09C166.19,572.16,159,571.07,149,572.07Z" style="fill:#070b3b"/><g style="opacity:0.5"><path d="M143.46,596.07a20.39,20.39,0,0,0-2.56,3,31.64,31.64,0,0,0-4.63,9.21,34.75,34.75,0,0,0-1.45,6.77,57.39,57.39,0,0,0-.23,7.76c.09,5.42.28,11.24.25,17.1,0,11.7-1,23.34-3.49,31.67a40.88,40.88,0,0,1-4,9.59,25.48,25.48,0,0,1-2.28,3.2,25.15,25.15,0,0,0,2.19-3.33,41.22,41.22,0,0,0,3.75-9.75,88.55,88.55,0,0,0,2.33-14.55c.47-5.37.64-11.11.66-16.84s-.1-11.47-.11-16.89a58.48,58.48,0,0,1,.34-7.83,35.13,35.13,0,0,1,1.59-6.87,31.76,31.76,0,0,1,5-9.27A20.17,20.17,0,0,1,143.46,596.07Z" style="fill:#070b3b"/></g><path d="M137.27,694.46a116.43,116.43,0,0,0,4.58-12.65,89.33,89.33,0,0,0,3-13.49,49.55,49.55,0,0,0,.49-7.79c-.08-2.65-.37-5.4-.57-8.13-.89-11-1.55-21.83-1-29.94a41.47,41.47,0,0,1,1.57-9.65,13,13,0,0,1,1.52-3.35,12.91,12.91,0,0,0-1.41,3.46,43.69,43.69,0,0,0-1.26,9.73c-.32,8.14.57,19,1.44,29.67.2,2.7.46,5.36.54,8.06a49.33,49.33,0,0,1-.57,7.86,84.4,84.4,0,0,1-3.32,13.54A103.1,103.1,0,0,1,137.27,694.46Z" style="fill:#070b3b"/><path d="M169.71,583.17a20.5,20.5,0,0,0-7.46,1.75,28.41,28.41,0,0,0-6.78,4,35.44,35.44,0,0,0-6.28,6.55,56.79,56.79,0,0,0-7.86,15.09c-1.54,4.38-2.24,7.39-2.26,7.38a73.49,73.49,0,0,1,1.88-7.61,49.9,49.9,0,0,1,7.54-15.39,33.18,33.18,0,0,1,6.49-6.53,27.34,27.34,0,0,1,7.07-3.87A19.68,19.68,0,0,1,169.71,583.17Z" style="fill:#070b3b"/><g style="opacity:0.5"><path d="M177.1,592.14a24.07,24.07,0,0,0-3.87,1.76,32.55,32.55,0,0,0-8.71,7,35.41,35.41,0,0,0-7.43,13.93,46.76,46.76,0,0,0-1.54,8.88c-.26,3.09-.43,6.24-.48,9.41-.15,6.33.26,12.62.31,18.53a75.44,75.44,0,0,1-1.44,16,89.56,89.56,0,0,1-3,10.89c-.86,2.58-1.42,4-1.42,4s.52-1.49,1.32-4.13a98.39,98.39,0,0,0,2.68-11.06,78.88,78.88,0,0,0,1.09-15.94c-.14-5.85-.59-12.1-.44-18.34.05-3.12.23-6.25.51-9.32a45.81,45.81,0,0,1,1.61-8.94A35,35,0,0,1,164,600.72a32.25,32.25,0,0,1,9-7A23.55,23.55,0,0,1,177.1,592.14Z" style="fill:#070b3b"/></g></g></svg>