<svg id="be0e5e27-bc4c-4249-8e36-6408ac043aaa" data-name="b970bff0-31a7-4301-8e14-418edc429bcb" xmlns="http://www.w3.org/2000/svg" viewBox="0 0 1324.45 844.93"><g id="af879fd4-6bff-4872-8c98-00a9dfad2a3a" data-name="ae6f552e-714f-4c00-9d52-416514531c76"><path d="M839.48,643.67,833.7,660a76,76,0,0,0-22.64,9.16l-15.51-7.71a1.43,1.43,0,0,0-1.63.26l-14.86,14.58a1.44,1.44,0,0,0-.29,1.63l7.46,15.64a75.47,75.47,0,0,0-9.54,22.53l-16.44,5.51a1.44,1.44,0,0,0-1,1.34l-.17,20.79a1.4,1.4,0,0,0,1,1.36l16.34,5.79a75.36,75.36,0,0,0,9.17,22.68l-7.72,15.51a1.43,1.43,0,0,0,.26,1.64l14.58,14.82a1.4,1.4,0,0,0,1.63.29L810,798.36a75.21,75.21,0,0,0,22.53,9.54L838,824.34a1.42,1.42,0,0,0,1.34,1l20.8.17a1.37,1.37,0,0,0,1.35-.94l5.79-16.35A74.85,74.85,0,0,0,890,799.05l15.52,7.72a1.4,1.4,0,0,0,1.63-.26L922,791.93a1.43,1.43,0,0,0,.28-1.63l-7.45-15.65a75,75,0,0,0,9.55-22.53l16.43-5.51a1.42,1.42,0,0,0,1-1.34l.18-20.8a1.44,1.44,0,0,0-1-1.35l-16.34-5.79a75.36,75.36,0,0,0-9.17-22.68l7.72-15.52a1.43,1.43,0,0,0-.26-1.63l-14.59-14.82a1.42,1.42,0,0,0-1.62-.29l-15.68,7.46a76,76,0,0,0-22.53-9.55l-5.47-16.43a1.42,1.42,0,0,0-1.34-1l-20.79-.18A1.46,1.46,0,0,0,839.48,643.67Z" style="fill:#071841"/><path d="M842.31,716a19.85,19.85,0,1,1-8.82,7.78h0A19.81,19.81,0,0,1,842.31,716Zm15.19,33.66a17,17,0,1,0-21.59-24.41h0a17.07,17.07,0,0,0,21.59,24.41Z" style="fill:#fff"/><g style="opacity:0.6399999856948853"><path d="M870.31,621.43a3.64,3.64,0,0,1,2.11-.25c1.91.37,3.83.79,5.7,1.26a3.53,3.53,0,0,1-1.7,6.86h0c-1.76-.43-3.56-.83-5.34-1.18a3.53,3.53,0,0,1-.77-6.69Z" style="fill:#2d6375"/><path d="M893.7,628.74a3.58,3.58,0,0,1,2.87,0,116.72,116.72,0,0,1,10.72,5.39,3.54,3.54,0,0,1-3.3,6.27.82.82,0,0,1-.2-.12,109.09,109.09,0,0,0-10-5.08,3.53,3.53,0,0,1,0-6.46Zm26,15.89a3.54,3.54,0,0,1,3.69.49,117.18,117.18,0,0,1,8.89,8.07,3.54,3.54,0,0,1-5,5,106.66,106.66,0,0,0-8.33-7.57,3.53,3.53,0,0,1-.55-5l0,0h0a3.68,3.68,0,0,1,1.22-1ZM940.39,667a3.55,3.55,0,0,1,4.34,1.2,114.08,114.08,0,0,1,6.36,10.19,3.54,3.54,0,0,1-6.19,3.42,111,111,0,0,0-6-9.56,3.53,3.53,0,0,1,.86-4.91h0A4.77,4.77,0,0,1,940.39,667Zm13.86,27.16.29-.11a3.53,3.53,0,0,1,4.52,2.11h0a115,115,0,0,1,3.36,11.52,3.53,3.53,0,0,1-6.88,1.62h0q-1.31-5.47-3.15-10.81a3.55,3.55,0,0,1,1.88-4.44Zm6,29.84a3.7,3.7,0,0,1,1.22-.3,3.54,3.54,0,0,1,3.76,3.3,114.38,114.38,0,0,1,.13,12,3.53,3.53,0,1,1-7.06-.29,108.46,108.46,0,0,0-.13-11.26,3.54,3.54,0,0,1,2.13-3.5Zm-2.19,30.31a3.48,3.48,0,0,1,2.18-.23,3.54,3.54,0,0,1,2.72,4.2,115.7,115.7,0,0,1-3.13,11.58,3.54,3.54,0,0,1-6.72-2.2A110.3,110.3,0,0,0,956,756.79a3.56,3.56,0,0,1,2.07-2.53Zm-10.42,28.6a3.54,3.54,0,0,1,4.58,4.88c-1.09,2.06-2.26,4.13-3.48,6.14-.86,1.4-1.75,2.8-2.66,4.16a3.53,3.53,0,1,1-5.88-3.92c.85-1.28,1.69-2.6,2.49-3.91,1.15-1.9,2.26-3.84,3.28-5.77a3.58,3.58,0,0,1,1.72-1.63Zm-17.72,24.76a3.54,3.54,0,0,1,4,5.66,113.22,113.22,0,0,1-8.7,8.27,3.54,3.54,0,1,1-5.09-4.92l.22-.21.27-.24a106.75,106.75,0,0,0,8.16-7.76,3.6,3.6,0,0,1,1.19-.85Z" style="fill:#2d6375"/><path d="M906.11,826.67a3.54,3.54,0,0,1,3.25,6.27c-1.65,1-3.36,1.94-5.08,2.85a3.54,3.54,0,0,1-3.84-5.95l.24-.14a2.69,2.69,0,0,1,.29-.16c1.62-.85,3.23-1.76,4.78-2.68Z" style="fill:#2d6375"/></g><g style="opacity:0.6399999856948853"><path d="M813.19,836.47a3.62,3.62,0,0,1,2.59-.12c1.71.59,3.46,1.14,5.22,1.64a3.53,3.53,0,0,1-1.93,6.8h0c-1.88-.54-3.75-1.12-5.57-1.74a3.54,3.54,0,0,1-.31-6.58Z" style="fill:#2d6375"/><path d="M780.77,642.68a3.54,3.54,0,0,1,4.6,2v0a3.51,3.51,0,0,1-1,4c-2.92,2.27-5.73,4.68-8.4,7.22a3.54,3.54,0,0,1-4.88-5.12,115.66,115.66,0,0,1,9-7.7A5.64,5.64,0,0,1,780.77,642.68Zm-21,21.37a3.53,3.53,0,0,1,4.28,5.34c-2.06,2.76-4,5.67-5.83,8.63l-.35.57a3.53,3.53,0,1,1-6.06-3.63l.37-.61c1.92-3.16,4-6.25,6.21-9.19A3.56,3.56,0,0,1,759.77,664.05Zm-14.59,26.17a3.53,3.53,0,0,1,4.74,4.52,107.55,107.55,0,0,0-3.51,10.49,3.53,3.53,0,1,1-6.81-1.89h0a113,113,0,0,1,3.74-11.19,3.47,3.47,0,0,1,1.87-1.93Zm-7.12,29.09a3.63,3.63,0,0,1,1.81-.29A3.54,3.54,0,0,1,743,722.9a107.51,107.51,0,0,0-.57,11.06,3.54,3.54,0,0,1-7.07,0,113.53,113.53,0,0,1,.68-11.8,3.55,3.55,0,0,1,2.1-2.86Zm.94,29.94a4.29,4.29,0,0,1,.86-.27,3.55,3.55,0,0,1,4.07,2.9h0a107.58,107.58,0,0,0,2.39,10.82,3.54,3.54,0,0,1-6.82,1.87A116,116,0,0,1,737,753.05a3.54,3.54,0,0,1,2.07-3.81Zm8.85,28.62a3.54,3.54,0,0,1,4.65,1.74c1.55,3.33,3.29,6.63,5.17,9.8A3.53,3.53,0,0,1,751.6,793a110.53,110.53,0,0,1-5.51-10.44,3.55,3.55,0,0,1,1.72-4.7Zm16.21,25.23a3.54,3.54,0,0,1,4.14.94,107.38,107.38,0,0,0,7.61,8.06,3.54,3.54,0,0,1-4.89,5.11,113.31,113.31,0,0,1-8.1-8.59,3.54,3.54,0,0,1,.38-5h0a3.35,3.35,0,0,1,.87-.52Zm22.31,20a3.55,3.55,0,0,1,3.44.3c1.49,1,3,2,4.58,2.94s3.24,1.92,4.9,2.81a3.53,3.53,0,1,1-3.36,6.22c-1.76-1-3.52-2-5.22-3s-3.29-2.06-4.87-3.13a3.55,3.55,0,0,1-.91-4.94,3.6,3.6,0,0,1,1.44-1.21Z" style="fill:#2d6375"/><path d="M801.51,630a3.55,3.55,0,0,1,3,6.43h0c-1.64.77-3.29,1.59-4.89,2.45a3.54,3.54,0,0,1-3.61-6.09l.28-.15c1.71-.91,3.47-1.79,5.21-2.61Z" style="fill:#2d6375"/></g><path d="M823.06,690.4a1.43,1.43,0,0,1,1.77.54l.1.17a1.41,1.41,0,0,1-.54,1.78,49.63,49.63,0,0,0-8.13,6.46h0a48.84,48.84,0,0,0-4.44,64.52,48.06,48.06,0,0,0,3.87,4.44,48.76,48.76,0,1,0,47-81.4,1.38,1.38,0,0,1-1-1.68h0a1.41,1.41,0,0,1,1.71-1h0a51.61,51.61,0,1,1-49.17,13.15h0a52.13,52.13,0,0,1,7.86-6.35l.25-.17.49-.31Z" style="fill:#fff"/><path d="M708.39,481.16a3.67,3.67,0,0,1-3.32-2.07c-1.71-3.51-3.36-7.1-4.9-10.68a3.69,3.69,0,0,1,6.71-3.06,1,1,0,0,1,.07.15c1.49,3.47,3.08,7,4.75,10.35a3.69,3.69,0,0,1-1.69,4.93A3.39,3.39,0,0,1,708.39,481.16ZM685,393.65a3.69,3.69,0,0,1-3.68-3.44c-.27-3.89-.44-7.84-.51-11.74a3.69,3.69,0,1,1,7.34-.72,1.64,1.64,0,0,1,0,.23v.35c.07,3.78.24,7.6.5,11.38a3.68,3.68,0,0,1-3.41,3.93H685Zm-.1-30.36h-.23a3.67,3.67,0,0,1-3.45-3.88h0c.24-3.89.58-7.84,1-11.73a3.68,3.68,0,1,1,7.32.82h0c-.42,3.77-.75,7.6-1,11.37a3.69,3.69,0,0,1-3.64,3.44Zm3.85-30.14a2.81,2.81,0,0,1-.71-.07,3.67,3.67,0,0,1-2.92-4.28v0h0c.75-3.84,1.6-7.7,2.54-11.5a3.69,3.69,0,0,1,7.16,1.77c-.91,3.68-1.74,7.42-2.46,11.14a3.69,3.69,0,0,1-3.59,3Zm7.74-29.37a3.34,3.34,0,0,1-1.17-.19,3.68,3.68,0,0,1-2.34-4.65h0c1.23-3.69,2.58-7.42,4-11.06a3.7,3.7,0,1,1,7,2.41.7.7,0,0,1-.11.27c-1.38,3.53-2.68,7.14-3.88,10.72a3.69,3.69,0,0,1-3.49,2.52Zm11.46-28.12a3.67,3.67,0,0,1-3.31-5.3c1.7-3.51,3.51-7,5.39-10.45a3.69,3.69,0,0,1,6.47,3.55c-1.82,3.31-3.58,6.72-5.23,10.12a3.66,3.66,0,0,1-3.32,2.08Zm15-26.4a3.69,3.69,0,0,1-3.08-5.71c2.14-3.26,4.39-6.51,6.69-9.67a3.7,3.7,0,0,1,6,4.34h0c-2.23,3.06-4.41,6.22-6.48,9.37a3.68,3.68,0,0,1-3.14,1.67ZM741.19,225a3.69,3.69,0,0,1-2.8-6.09c2.54-3,5.19-5.89,7.87-8.72a3.69,3.69,0,0,1,5.35,5.07c-2.6,2.75-5.16,5.59-7.62,8.46a3.64,3.64,0,0,1-2.8,1.29Zm21.22-21.7a3.69,3.69,0,0,1-2.47-6.43c2.9-2.6,5.9-5.16,8.93-7.63a3.69,3.69,0,0,1,4.65,5.73c-2.93,2.38-5.84,4.87-8.65,7.39a3.62,3.62,0,0,1-2.46,1Zm23.84-18.77a3.68,3.68,0,0,1-2.09-6.72c3.21-2.21,6.51-4.36,9.83-6.41a3.69,3.69,0,0,1,4.06,6.17l-.19.11c-3.21,2-6.42,4.07-9.52,6.21a3.71,3.71,0,0,1-2.09.65ZM812.31,169a3.69,3.69,0,0,1-1.67-7c3.47-1.77,7-3.48,10.6-5.07a3.69,3.69,0,0,1,3,6.73c-3.45,1.54-6.9,3.2-10.27,4.92a3.68,3.68,0,0,1-1.66.39Zm27.88-12a3.69,3.69,0,0,1-1.23-7.16c3.68-1.31,7.44-2.54,11.17-3.66a3.69,3.69,0,0,1,2.12,7.06c-3.62,1.09-7.26,2.28-10.82,3.55a3.73,3.73,0,0,1-1.24.18Zm131.11-7.74a3.84,3.84,0,0,1-.83-.09c-3.7-.85-7.45-1.61-11.17-2.27a3.69,3.69,0,0,1,1.3-7.26c3.83.68,7.71,1.47,11.52,2.34a3.69,3.69,0,0,1-.82,7.28Zm-101.91-.56a3.69,3.69,0,0,1-.78-7.29l1.45-.27c3.32-.7,6.72-1.33,10.08-1.89a3.68,3.68,0,0,1,1.2,7.27h0c-3.26.54-6.55,1.16-9.78,1.84l-1.41.3a3.46,3.46,0,0,1-.78.09Zm71.93-4.29H941c-3.76-.35-7.59-.62-11.36-.79a3.69,3.69,0,0,1-.23-7.38h.56c3.9.17,7.84.45,11.73.82a3.69,3.69,0,0,1-.35,7.36Zm-41.91-.21a3.69,3.69,0,0,1-.3-7.37c3.88-.32,7.83-.56,11.73-.7a3.69,3.69,0,0,1,.54,7.36,1.31,1.31,0,0,1-.28,0c-3.78.13-7.61.36-11.37.68Z" style="fill:#2d6375"/><path d="M995.16,156.16A3.48,3.48,0,0,1,994,156c-1.83-.62-3.67-1.22-5.51-1.82a3.69,3.69,0,0,1,2.22-7c1.91.61,3.8,1.23,5.69,1.88a3.69,3.69,0,0,1-1.2,7.18Z" style="fill:#2d6375"/><path d="M1130,275.59a3.66,3.66,0,0,1-3.33-2.08q-1.26-2.61-2.59-5.19a3.69,3.69,0,0,1,6.25-3.93l.13.23a3.24,3.24,0,0,1,.17.32q1.38,2.65,2.68,5.36a3.69,3.69,0,0,1-1.67,4.92,3.58,3.58,0,0,1-1.64.37Z" style="fill:#2d6375"/><path d="M919.27,612.43a3.69,3.69,0,0,1,0-7.38c3.92,0,7.91-.12,11.84-.33a3.69,3.69,0,0,1,.4,7.37c-4.06.21-8.17.33-12.23.34Zm-19.54-.78h-.31c-4-.33-8.13-.77-12.15-1.31a3.69,3.69,0,1,1,.62-7.35l.21,0h.17c3.9.52,7.86,1,11.78,1.27a3.69,3.69,0,0,1-.3,7.36Zm51-1.42a3.69,3.69,0,0,1-.5-7.35c3.89-.53,7.83-1.18,11.69-1.91a3.69,3.69,0,0,1,1.38,7.24c-4,.76-8,1.43-12.06,2a1.85,1.85,0,0,1-.47,0ZM868.51,607a3.57,3.57,0,0,1-.8-.09c-4-.87-8-1.86-11.87-2.94a3.69,3.69,0,1,1,2-7.11h0c3.8,1,7.67,2,11.5,2.85a3.69,3.69,0,0,1-.79,7.29Zm113.17-3.11a3.69,3.69,0,0,1-1-7.24c3.8-1,7.61-2.21,11.33-3.45a3.72,3.72,0,0,1,2.51,7h-.18c-3.84,1.28-7.78,2.48-11.69,3.56a3.72,3.72,0,0,1-1,.08Zm29.8-10.43a3.69,3.69,0,0,1-1.45-7.08c3.61-1.55,7.23-3.21,10.76-4.94a3.69,3.69,0,0,1,3.25,6.62c-3.65,1.79-7.38,3.5-11.11,5.1a3.58,3.58,0,0,1-1.45.25Zm28.11-14.36a3.69,3.69,0,0,1-1.9-6.85c3.37-2,6.73-4.16,10-6.34a3.69,3.69,0,1,1,4.79,5.62h0a4.16,4.16,0,0,1-.71.47c-3.35,2.25-6.82,4.46-10.3,6.54a3.57,3.57,0,0,1-1.88.51Zm25.89-18a3.69,3.69,0,0,1-2.3-6.57c3-2.45,6.09-5,9-7.63a3.69,3.69,0,1,1,4.91,5.51c-3,2.7-6.18,5.35-9.33,7.88a3.6,3.6,0,0,1-2.28.71Zm23.29-21.42a3.69,3.69,0,0,1-2.67-6.23c2.7-2.85,5.37-5.8,7.93-8.79a3.69,3.69,0,0,1,5.76,4.61,1.46,1.46,0,0,1-.16.19c-2.64,3.09-5.4,6.14-8.19,9.07a3.65,3.65,0,0,1-2.67,1.15Zm20.17-24.28a3.69,3.69,0,0,1-3-5.85c2.31-3.18,4.56-6.47,6.7-9.77a3.69,3.69,0,0,1,6.4,3.68l-.21.32c-2.21,3.41-4.54,6.8-6.91,10.08a3.65,3.65,0,0,1-3,1.54Zm16.75-26.76a3.52,3.52,0,0,1-1.74-.44,3.66,3.66,0,0,1-1.55-4.94l0-.06h0c1.86-3.47,3.65-7,5.33-10.59a3.69,3.69,0,0,1,6.67,3.15c-1.73,3.67-3.58,7.35-5.5,10.92a3.67,3.67,0,0,1-3.3,2Zm13-28.77a3.67,3.67,0,0,1-3.71-3.63,3.78,3.78,0,0,1,.25-1.37c1.38-3.67,2.68-7.44,3.87-11.2a3.69,3.69,0,0,1,7,2.22c-1.23,3.88-2.57,7.77-4,11.57a3.68,3.68,0,0,1-3.43,2.41Zm9-30.25a3.75,3.75,0,0,1-.82-.09,3.68,3.68,0,0,1-2.81-4.37h0c.87-3.84,1.65-7.75,2.32-11.63a3.69,3.69,0,0,1,7.27,1.26q-1,6-2.4,12a3.69,3.69,0,0,1-3.51,2.88Zm4.87-31.21h-.32a3.69,3.69,0,0,1-3.35-4c.34-3.91.58-7.89.72-11.82a3.69,3.69,0,0,1,7.37.26c-.14,4.06-.39,8.16-.75,12.2a3.67,3.67,0,0,1-3.64,3.36Zm.61-31.56a3.67,3.67,0,0,1-3.68-3.51c-.19-3.92-.49-7.89-.88-11.82a3.69,3.69,0,0,1,7.34-.73c.4,4,.71,8.15.9,12.19a3.68,3.68,0,0,1-3.49,3.86h-.19Zm-3.65-31.37a3.69,3.69,0,0,1-3.62-3c-.35-1.87-.71-3.74-1.11-5.61s-.86-4-1.33-6a3.68,3.68,0,0,1,7.17-1.7q.73,3.06,1.38,6.17.62,2.91,1.14,5.79a3.7,3.7,0,0,1-3,4.29h0a3.05,3.05,0,0,1-.6.06Zm-7.77-30.6a3.67,3.67,0,0,1-3.5-2.55c-1.22-3.74-2.56-7.49-4-11.16a3.69,3.69,0,0,1,6.89-2.64c1.45,3.78,2.83,7.66,4.09,11.52a3.7,3.7,0,0,1-2.36,4.65,3.43,3.43,0,0,1-1.1.18Z" style="fill:#2d6375"/><path d="M838.06,598a3.25,3.25,0,0,1-1.27-.23c-1.88-.69-3.74-1.4-5.6-2.14a3.69,3.69,0,0,1,2.73-6.85c1.79.71,3.6,1.41,5.42,2.07a3.69,3.69,0,0,1-1.28,7.15Z" style="fill:#2d6375"/><path d="M832.06,532a2.76,2.76,0,0,0,3.26,0L863,511.87a148.86,148.86,0,0,0,47.19,10.47l16.58,29.87a2.8,2.8,0,0,0,3,1.4l40.45-7.14a2.79,2.79,0,0,0,2.29-2.33l5.36-33.81a148.91,148.91,0,0,0,40.75-26l32.94,9.42a2.78,2.78,0,0,0,3.07-1.1L1078.22,459a2.79,2.79,0,0,0,0-3.26L1058.06,428a149,149,0,0,0,10.46-47.19l29.89-16.65a2.82,2.82,0,0,0,1.41-3l-7.15-40.45a2.83,2.83,0,0,0-2.33-2.29l-33.81-5.31a148.91,148.91,0,0,0-26-40.75l9.42-32.94a2.79,2.79,0,0,0-1.1-3.07l-33.66-23.56a2.79,2.79,0,0,0-3.26,0L974.21,233a149.53,149.53,0,0,0-47.15-10.49l-16.62-29.92a2.82,2.82,0,0,0-3-1.41L867,198.35a2.79,2.79,0,0,0-2.29,2.33l-5.36,33.81a149.15,149.15,0,0,0-40.75,26l-32.94-9.42a2.81,2.81,0,0,0-3.07,1.1L759,285.83a2.79,2.79,0,0,0,0,3.26l20.13,27.72A149.08,149.08,0,0,0,768.81,364l-30,16.61a2.81,2.81,0,0,0-1.4,2.95L744.55,424a2.78,2.78,0,0,0,2.33,2.29l33.81,5.36a148.76,148.76,0,0,0,26,40.75l-9.42,32.94a2.79,2.79,0,0,0,1.1,3.07Z" style="fill:#ffd131"/><path d="M918.62,411.86a39.48,39.48,0,1,1,16.14-3.49A39.49,39.49,0,0,1,918.62,411.86Zm-.06-73a33.52,33.52,0,1,0,30.63,19.79A33.52,33.52,0,0,0,918.56,338.86Z" style="fill:#fff"/><path d="M918.91,472.28h-3.76a1.48,1.48,0,0,1-1.42-1.48v-.05a1.5,1.5,0,0,1,1.53-1.42A97.4,97.4,0,0,0,936,467.89h0a97.64,97.64,0,1,0-90.8-32.21,1.52,1.52,0,0,1-1.1,2.5,1.49,1.49,0,0,1-1.13-.5h0a100.62,100.62,0,1,1,93.55,33.18h0A100.9,100.9,0,0,1,918.91,472.28Z" style="fill:#fff;stroke:#fff;stroke-miterlimit:10;stroke-width:4px"/><path d="M411.91,608.34a3.35,3.35,0,0,1-3.22-2.41c-.51-1.74-1-3.5-1.46-5.26a3.37,3.37,0,0,1,6.54-1.67h0q.68,2.55,1.41,5.07a3.35,3.35,0,0,1-2.27,4.16h0A3.08,3.08,0,0,1,411.91,608.34Z" style="fill:#2d6375"/><path d="M406.77,585.77a3.36,3.36,0,0,1-3.31-2.82c-.59-3.66-1.08-7.38-1.46-11.06a3.36,3.36,0,1,1,6.65-1v.27c.36,3.55.83,7.14,1.4,10.66a3.34,3.34,0,0,1-2.76,3.85h0A2.28,2.28,0,0,1,406.77,585.77Zm-2.39-28.61a3.35,3.35,0,0,1-3.35-3.33v-1.21c0-3.28.08-6.62.25-9.93a3.35,3.35,0,1,1,6.7.34h0c-.16,3.2-.25,6.42-.25,9.59v1.17a3.35,3.35,0,0,1-3.33,3.37h0Zm2-28.65a2,2,0,0,1-.49,0,3.33,3.33,0,0,1-2.83-3.78h0c.54-3.67,1.19-7.36,1.94-11a3.35,3.35,0,1,1,6.57,1.36c-.72,3.49-1.35,7-1.87,10.59a3.34,3.34,0,0,1-3.3,2.85Zm6.34-28a3.34,3.34,0,0,1-3.36-3.34,3.48,3.48,0,0,1,.15-1c1.09-3.53,2.3-7.08,3.6-10.55A3.36,3.36,0,0,1,419.4,488c-1.26,3.35-2.43,6.78-3.48,10.18a3.34,3.34,0,0,1-3.15,2.36Zm10.57-26.71a3.35,3.35,0,0,1-3.35-3.35,3.61,3.61,0,0,1,.35-1.48c1.63-3.32,3.38-6.65,5.2-9.88a3.35,3.35,0,0,1,5.84,3.3c-1.76,3.12-3.44,6.32-5,9.53a3.35,3.35,0,0,1-3,1.87ZM437.9,449a3.23,3.23,0,0,1-1.92-.61,3.35,3.35,0,0,1-.84-4.66h0c2.12-3,4.36-6.05,6.65-9a3.35,3.35,0,0,1,5.26,4.15c-2.2,2.8-4.36,5.71-6.41,8.64A3.29,3.29,0,0,1,437.9,449Zm18.21-22.23a3.36,3.36,0,0,1-2.43-5.67c2.56-2.68,5.23-5.32,7.94-7.84a3.36,3.36,0,0,1,4.57,4.92c-2.61,2.43-5.19,5-7.66,7.55a3.33,3.33,0,0,1-2.42,1Zm21.38-19.19a3.35,3.35,0,0,1-3.3-3.4,3.32,3.32,0,0,1,1.3-2.6c2.94-2.25,6-4.45,9-6.53a3.35,3.35,0,0,1,3.77,5.55c-3,2-5.88,4.13-8.72,6.3a3.16,3.16,0,0,1-2.05.65Zm24.06-15.69a3.36,3.36,0,0,1-1.61-6.3c3.24-1.77,6.58-3.47,9.92-5.06a3.35,3.35,0,1,1,2.87,6.06h0c-3.22,1.53-6.44,3.17-9.57,4.89a3.11,3.11,0,0,1-1.61.38Zm176.22-1.64a3.16,3.16,0,0,1-1.56-.38c-3.16-1.65-6.41-3.24-9.67-4.71a3.35,3.35,0,0,1,2.76-6.11c3.38,1.52,6.75,3.16,10,4.88a3.35,3.35,0,0,1-1.56,6.32Zm-150-10.18a3.36,3.36,0,0,1-1.15-6.51c3.48-1.25,7-2.42,10.58-3.47a3.35,3.35,0,1,1,1.9,6.43h0c-3.41,1-6.84,2.14-10.19,3.35a3,3,0,0,1-1.14.17ZM651.36,379a3.31,3.31,0,0,1-1.08-.18c-3.38-1.15-6.84-2.21-10.28-3.16a3.36,3.36,0,0,1,1.78-6.47c3.57,1,7.15,2.08,10.66,3.28a3.35,3.35,0,0,1-1.08,6.53Zm-95.93-6.51a3.36,3.36,0,0,1-.64-6.65c3.64-.71,7.34-1.31,11-1.8a3.35,3.35,0,0,1,.89,6.65c-3.53.47-7.1,1-10.61,1.74a2.69,2.69,0,0,1-.69.06Zm68.1-.6a2.88,2.88,0,0,1-.59-.05c-3.51-.62-7.09-1.13-10.64-1.54a3.36,3.36,0,0,1,.76-6.67c3.68.43,7.39,1,11,1.6a3.35,3.35,0,0,1-.57,6.66ZM584,369.16a3.35,3.35,0,1,1-.12-6.7c3.68-.14,7.42-.17,11.15-.09a3.35,3.35,0,0,1-.14,6.7c-3.6-.07-7.2,0-10.76.09Z" style="fill:#2d6375"/><path d="M697.62,402.33a3.35,3.35,0,0,1-1.91-.6q-2.16-1.5-4.36-2.94a3.37,3.37,0,0,1,3.71-5.63h0c1.53,1,3,2,4.53,3a3.36,3.36,0,0,1-1.92,6.11Z" style="fill:#2d6375"/><path d="M775.15,523.77a3.35,3.35,0,0,1-3.31-2.79c-.29-1.73-.62-3.46-1-5.17a3.36,3.36,0,0,1,6.58-1.34q.54,2.67,1,5.37a3.36,3.36,0,0,1-2.74,3.88A3.17,3.17,0,0,1,775.15,523.77Z" style="fill:#2d6375"/><path d="M587.85,742.46h-.08c-3.25-.06-6.53-.21-9.77-.43l-1.19-.09a3.35,3.35,0,1,1,.5-6.69h0l1.15.09c3.13.21,6.3.35,9.43.41a3.36,3.36,0,0,1-.06,6.71Zm17.5-.5a3.35,3.35,0,0,1-.25-6.7h0c3.51-.26,7-.63,10.53-1.09a3.35,3.35,0,0,1,.89,6.65c-3.61.48-7.28.86-10.91,1.13Zm-45.65-2.13a2.72,2.72,0,0,1-.57,0c-3.6-.61-7.22-1.33-10.76-2.15a3.35,3.35,0,1,1,1.5-6.53c3.42.78,6.91,1.48,10.39,2.07a3.35,3.35,0,0,1-.56,6.66Zm73.6-2.12a3.35,3.35,0,0,1-.76-6.62c3.43-.79,6.87-1.7,10.24-2.69a3.36,3.36,0,0,1,1.89,6.44c-3.49,1-7.06,2-10.62,2.78a3.2,3.2,0,0,1-.75.09ZM532.3,733a3.09,3.09,0,0,1-1-.17c-3.46-1.15-6.93-2.41-10.32-3.75a3.36,3.36,0,0,1,2.48-6.24c3.27,1.3,6.61,2.52,10,3.62A3.36,3.36,0,0,1,532.4,733Zm128-3.74a3.35,3.35,0,0,1-1.24-6.47c3.25-1.3,6.52-2.72,9.7-4.2a3.35,3.35,0,0,1,2.84,6.07h0c-3.3,1.54-6.68,3-10,4.36a3.37,3.37,0,0,1-1.33.24Zm-154.1-7.17a3.22,3.22,0,0,1-1.52-.37c-3.25-1.66-6.49-3.44-9.63-5.28a3.36,3.36,0,0,1,3.4-5.79c3,1.78,6.15,3.49,9.28,5.09a3.36,3.36,0,0,1-1.53,6.35Zm179.47-5.27a3.36,3.36,0,0,1-1.7-6.25c3-1.78,6-3.67,9-5.62a3.36,3.36,0,0,1,4,5.4h0a1.27,1.27,0,0,1-.27.18c-3,2-6.15,4-9.29,5.83a3.24,3.24,0,0,1-1.77.46Zm23.22-16.12a3.36,3.36,0,0,1-2.12-6c2.73-2.21,5.43-4.54,8-6.91a3.37,3.37,0,0,1,4.52,5h0c-2.68,2.45-5.48,4.86-8.31,7.16a3.29,3.29,0,0,1-2.12.75Zm20.53-19.43a3.35,3.35,0,0,1-2.48-5.61c2.37-2.6,4.69-5.3,6.9-8a3.35,3.35,0,0,1,5.21,4.22h0c-2.29,2.84-4.69,5.64-7.14,8.33a3.3,3.3,0,0,1-2.52,1.06ZM746.77,659a3.35,3.35,0,0,1-2.79-5.21c1.94-2.92,3.83-6,5.6-9a3.36,3.36,0,0,1,5.8,3.39c-1.85,3.15-3.8,6.28-5.82,9.32a3.34,3.34,0,0,1-2.79,1.5Zm13.82-24.67a3.12,3.12,0,0,1-1.41-.31,3.37,3.37,0,0,1-1.64-4.46c1.48-3.18,2.89-6.46,4.18-9.74a3.36,3.36,0,0,1,6.37,2.15h0a3.05,3.05,0,0,1-.13.32c-1.34,3.39-2.8,6.79-4.33,10.1a3.35,3.35,0,0,1-3,1.91Zm9.9-26.49a3.26,3.26,0,0,1-.93-.13,3.36,3.36,0,0,1-2.29-4.16c1-3.37,1.87-6.82,2.65-10.25a3.35,3.35,0,1,1,6.54,1.49c-.81,3.55-1.73,7.12-2.75,10.62a3.35,3.35,0,0,1-3.21,2.4Zm5.78-27.67h-.44a3.32,3.32,0,0,1-2.89-3.71v0h0c.45-3.48.81-7,1.07-10.53a3.35,3.35,0,0,1,6.69.49h0c-.27,3.63-.64,7.3-1.11,10.91a3.35,3.35,0,0,1-3.31,2.86Zm1.56-28.23a3.35,3.35,0,0,1-3.36-3.29c-.06-3.51-.24-7.07-.51-10.57a3.36,3.36,0,0,1,6.66-.88,2.16,2.16,0,0,1,0,.36c.28,3.63.46,7.32.53,11a3.35,3.35,0,0,1-3.28,3.42h0Z" style="fill:#2d6375"/><path d="M482,707.27a3.27,3.27,0,0,1-2-.64c-1.47-1.06-2.93-2.15-4.38-3.25a3.36,3.36,0,0,1,4-5.41l.12.08c1.36,1.11,2.76,2.11,4.19,3.11a3.36,3.36,0,0,1,.76,4.68,3.31,3.31,0,0,1-2.76,1.39Z" style="fill:#2d6375"/><path d="M490.3,654.43a2.22,2.22,0,0,0,2.51.68l25.6-9.41A118.64,118.64,0,0,0,552.31,664l6.24,26.54a2.21,2.21,0,0,0,2,1.71l32.55,3.3a2.23,2.23,0,0,0,2.26-1.29l11.41-24.74a118.43,118.43,0,0,0,36.86-11.09l23.2,14.36a2.21,2.21,0,0,0,2.59-.17l25.35-20.69a2.24,2.24,0,0,0,.69-2.51l-9.41-25.6a118.72,118.72,0,0,0,18.25-33.89l26.53-6.25a2.23,2.23,0,0,0,1.72-2l3.3-32.55a2.27,2.27,0,0,0-1.29-2.26l-24.79-11.39a118.68,118.68,0,0,0-11-36.87l14.36-23.19a2.26,2.26,0,0,0-.17-2.6l-20.69-25.35a2.26,2.26,0,0,0-2.51-.68l-25.6,9.42a119.21,119.21,0,0,0-33.89-18.25l-6.21-26.55a2.25,2.25,0,0,0-2-1.71l-32.56-3.3a2.25,2.25,0,0,0-2.26,1.29l-11.43,24.74A119,119,0,0,0,539,443.47l-23.23-14.31a2.26,2.26,0,0,0-2.6.17l-25.35,20.72a2.25,2.25,0,0,0-.69,2.51l9.42,25.6a118.4,118.4,0,0,0-18.27,33.89l-26.53,6.24a2.27,2.27,0,0,0-1.72,2l-3.3,32.55A2.27,2.27,0,0,0,448,555.1l24.8,11.37a119,119,0,0,0,11,36.87l-14.35,23.19a2.23,2.23,0,0,0,.17,2.6Z" style="fill:#2d6375"/><path d="M591.19,582.67a31.79,31.79,0,1,1,4.7-.35A30.89,30.89,0,0,1,591.19,582.67Zm.09-58.12a27.74,27.74,0,0,0-3.86.29,26.37,26.37,0,0,0,6.88,52.29l.81-.12a26.37,26.37,0,0,0-3.83-52.46Z" style="fill:#fff"/><path d="M591.82,630.74q-4.08,0-8.15-.41a80,80,0,0,1-12-2.15h-.09l-.52-.14h-.14l-.25-.07h-.09l-.75-.2-.26-.08c-.54-.15-1.08-.32-1.61-.48l-.92-.29a1.35,1.35,0,0,1-.93-1.28,1.14,1.14,0,0,1,.07-.41,1.34,1.34,0,0,1,1.68-.87h0a77.55,77.55,0,1,0-46.3-40.88,1.25,1.25,0,0,1,.13.57,1.36,1.36,0,0,1-1.35,1.34,1.32,1.32,0,0,1-1.2-.77,80.3,80.3,0,1,1,72.77,46.22Z" style="fill:#fff"/><path d="M307.06,410.72l13.13-6.05a62.63,62.63,0,0,0,18.67,8.22l4.42,13.76a1.17,1.17,0,0,0,1.1.82l17.34.38a1.17,1.17,0,0,0,1.14-.78l5-13.55a62.89,62.89,0,0,0,19-7.41l12.86,6.61a1.15,1.15,0,0,0,1.36-.2l12.53-12a1.21,1.21,0,0,0,.25-1.36l-6-13.16a62.63,62.63,0,0,0,8.22-18.67L429.86,363a1.18,1.18,0,0,0,.83-1.1l.37-17.34a1.2,1.2,0,0,0-.77-1.14l-13.56-5a63.13,63.13,0,0,0-7.4-19l6.61-12.85a1.2,1.2,0,0,0-.2-1.37l-12-12.52a1.19,1.19,0,0,0-1.35-.26l-13.13,6a63.14,63.14,0,0,0-18.77-8.26l-4.43-13.72a1.22,1.22,0,0,0-1.11-.83l-17.34-.37a1.23,1.23,0,0,0-1.14.78l-5,13.55a62.89,62.89,0,0,0-19,7.41l-12.86-6.61a1.2,1.2,0,0,0-1.37.19l-12.52,12a1.18,1.18,0,0,0-.26,1.35l6,13.13a63.05,63.05,0,0,0-8.22,18.68l-13.74,4.44a1.19,1.19,0,0,0-.82,1.11l-.38,17.34a1.18,1.18,0,0,0,.78,1.14l13.55,5a63.41,63.41,0,0,0,7.41,19l-6.61,12.85a1.2,1.2,0,0,0,.2,1.37l12,12.52A1.19,1.19,0,0,0,307.06,410.72Z" style="fill:#5ecff5"/><path d="M354.63,368.21a16.69,16.69,0,1,1,3.76-.43A15.83,15.83,0,0,1,354.63,368.21Zm0-30.81a15.31,15.31,0,0,0-3.16.36,14.12,14.12,0,1,0,3.16-.36Z" style="fill:#fff;opacity:0.5600000023841858;isolation:isolate"/><g style="opacity:0.6399999856948853"><path d="M276.88,405.68a3.12,3.12,0,0,1-2.65-1.43c-1-1.46-1.88-3-2.76-4.47A3.17,3.17,0,0,1,277,396.6c.82,1.41,1.68,2.81,2.57,4.17a3.17,3.17,0,0,1-2.65,4.91Z" style="fill:#2d6375"/><path d="M267.53,387.16a3.17,3.17,0,0,1-3-2.07,93.36,93.36,0,0,1-3-9.54,3.17,3.17,0,1,1,6.14-1.58h0a92,92,0,0,0,2.79,8.91A3.17,3.17,0,0,1,268.6,387h0A3,3,0,0,1,267.53,387.16ZM262,362.46a3.18,3.18,0,0,1-3.16-2.91c-.23-2.68-.34-5.4-.34-8.1v-1.89a3.13,3.13,0,0,1,3.15-3.11h.08a3.18,3.18,0,0,1,3.11,3.23h0v1.76c0,2.52.11,5.06.32,7.57a3.17,3.17,0,0,1-2.89,3.43H262Zm1.34-25.3a3.18,3.18,0,0,1-3.13-3.72v0h0a94.9,94.9,0,0,1,2.4-9.71,3.17,3.17,0,0,1,6.07,1.84h0a90.75,90.75,0,0,0-2.24,9.06A3.16,3.16,0,0,1,263.34,337.16Zm8.12-24a3.17,3.17,0,0,1-3.17-3.17v0a3.07,3.07,0,0,1,.33-1.4,96.63,96.63,0,0,1,4.92-8.7,3.17,3.17,0,1,1,5.41,3.31l-.06.09a90.16,90.16,0,0,0-4.59,8.13,3.16,3.16,0,0,1-2.84,1.79Zm14.31-20.87a3.18,3.18,0,0,1-2.35-5.3,98.24,98.24,0,0,1,7.08-7.06,3.17,3.17,0,0,1,4.24,4.72h0a89.34,89.34,0,0,0-6.61,6.59,3.2,3.2,0,0,1-2.36,1.08ZM305.06,276a3.18,3.18,0,0,1-1.7-5.86q4.25-2.65,8.73-4.88a3.18,3.18,0,1,1,3.11,5.55h0a1.77,1.77,0,0,1-.31.15q-4.18,2.07-8.14,4.55A3.17,3.17,0,0,1,305.06,276Zm23-10.43a3.17,3.17,0,0,1-3.15-3.19v0a3.21,3.21,0,0,1,2.25-3c1.94-.57,3.92-1.09,5.91-1.55,1.26-.29,2.53-.55,3.8-.79a3.17,3.17,0,0,1,1.17,6.23c-1.18.23-2.37.47-3.55.75-1.86.42-3.72.91-5.53,1.45a2.72,2.72,0,0,1-.85.16ZM362.74,262h-.28a90.81,90.81,0,0,0-9.33-.33,3.14,3.14,0,0,1-3.23-3v-.07a3.18,3.18,0,0,1,3.11-3.23h0a98.18,98.18,0,0,1,10,.35,3.17,3.17,0,0,1-.27,6.33Z" style="fill:#2d6375"/><path d="M383.2,266.22a2.83,2.83,0,0,1-1-.16c-1.55-.5-3.14-1-4.71-1.38a3.17,3.17,0,0,1,1.63-6.13h0c1.68.44,3.37.94,5,1.47a3.18,3.18,0,0,1-1,6.2Z" style="fill:#2d6375"/></g><g style="opacity:0.6399999856948853"><path d="M438.77,315a3.13,3.13,0,0,1-2.87-1.82c-.7-1.48-1.44-2.95-2.21-4.38a3.17,3.17,0,1,1,5.59-3c.82,1.53,1.62,3.1,2.36,4.68a3.17,3.17,0,0,1-1.5,4.22h0A3,3,0,0,1,438.77,315Z" style="fill:#2d6375"/><path d="M354.61,447.7a94,94,0,0,1-11-.64,3.17,3.17,0,1,1,.73-6.3h0a87.64,87.64,0,0,0,10.24.59h.13a3.18,3.18,0,0,1,.36,6.35ZM372.1,446a3.17,3.17,0,0,1-.6-6.29c1.08-.21,2.17-.44,3.25-.69,2.3-.53,4.6-1.15,6.83-1.85a3.2,3.2,0,1,1,2.22,6,1.7,1.7,0,0,1-.32.1c-2.39.75-4.85,1.41-7.31,2-1.16.26-2.32.51-3.47.73a2.29,2.29,0,0,1-.64,0Zm26.53-9.38a3.18,3.18,0,0,1-1.5-6,87.24,87.24,0,0,0,8.86-5.44,3.17,3.17,0,1,1,3.62,5.21h0a93,93,0,0,1-9.48,5.82,3.19,3.19,0,0,1-1.5.44Zm22.49-16.92a3.17,3.17,0,0,1-3.18-3.16h0a3.22,3.22,0,0,1,.91-2.23,90.49,90.49,0,0,0,6.81-7.83,3.17,3.17,0,0,1,5,3.88,95.57,95.57,0,0,1-7.3,8.39,3.13,3.13,0,0,1-2.24,1Zm16.4-22.86a2.9,2.9,0,0,1-1.44-.35,3.17,3.17,0,0,1-1.39-4.26,91.54,91.54,0,0,0,4.18-9.52,3.2,3.2,0,1,1,6,2.21h0a95.36,95.36,0,0,1-4.53,10.24,3.14,3.14,0,0,1-2.82,1.76Zm8.84-26.68a2.35,2.35,0,0,1-.53,0,3.15,3.15,0,0,1-2.6-3.62h0a87.9,87.9,0,0,0,1.13-10.37,3.17,3.17,0,1,1,6.34.32h0a97.81,97.81,0,0,1-1.21,11.07A3.18,3.18,0,0,1,446.36,370.16Zm.41-28.12a3.16,3.16,0,0,1-3.14-2.74c-.37-2.61-.85-5.24-1.44-7.83-.19-.79-.38-1.58-.58-2.37a3.17,3.17,0,0,1,6.14-1.58h0c.22.84.43,1.68.62,2.53.63,2.77,1.15,5.58,1.54,8.38a3.16,3.16,0,0,1-2.69,3.57h-.45Z" style="fill:#2d6375"/><path d="M326.84,443.43a3.06,3.06,0,0,1-1-.14q-2.49-.8-5-1.71a3.2,3.2,0,0,1,2.23-6h0c1.52.58,3.08,1.11,4.63,1.6a3.17,3.17,0,0,1-.95,6.2Z" style="fill:#2d6375"/></g><path d="M354.68,394.65h-.91a42.42,42.42,0,0,1-9.11-1.17,1.25,1.25,0,0,1-1-1.23,1.5,1.5,0,0,1,0-.3,1.29,1.29,0,0,1,1.53-.94,40.56,40.56,0,0,0,50-38.59v-.88a40.57,40.57,0,1,0-81.14-.87h0v.88a40.59,40.59,0,0,0,5.31,20.07,1.27,1.27,0,0,1-1.1,1.9h0a1.26,1.26,0,0,1-1.09-.64,43,43,0,0,1-5.65-21.33v-.94a43.12,43.12,0,0,1,86.22.93v.94a43.11,43.11,0,0,1-43.08,42.18Z" style="fill:#fff;opacity:0.5600000023841858;isolation:isolate"/><path d="M375,731.35a.67.67,0,0,0,.8.22l8.17-3a37.65,37.65,0,0,0,10.85,5.82l2,8.48a.7.7,0,0,0,.62.54l10.38,1.06a.71.71,0,0,0,.73-.41l3.65-7.91a37.6,37.6,0,0,0,11.77-3.53l7.4,4.58a.71.71,0,0,0,.83,0l8.1-6.61a.73.73,0,0,0,.22-.8l-3-8.17a38,38,0,0,0,5.83-10.83l8.47-2a.68.68,0,0,0,.55-.62l1-10.4a.71.71,0,0,0-.41-.72L445,693.4a38.23,38.23,0,0,0-3.54-11.77l4.59-7.47a.74.74,0,0,0,0-.83l-6.61-8.09a.7.7,0,0,0-.8-.22l-8.17,3a37.63,37.63,0,0,0-10.78-5.86l-2-8.47a.74.74,0,0,0-.64-.53l-10.39-1a.72.72,0,0,0-.73.41l-3.65,7.9A38.12,38.12,0,0,0,390.44,664l-7.4-4.59a.72.72,0,0,0-.83.06l-8.1,6.6a.73.73,0,0,0-.22.8l3,8.18a37.73,37.73,0,0,0-5.83,10.79l-8.47,2a.71.71,0,0,0-.55.63l-1,10.39a.69.69,0,0,0,.41.72l7.9,3.65a37.72,37.72,0,0,0,3.5,11.74l-4.58,7.41a.71.71,0,0,0,0,.83Z" style="fill:#2d6375"/><path d="M407.17,708.57a10,10,0,1,1,1.51-.11h0A9.5,9.5,0,0,1,407.17,708.57Zm0-18.55a8.28,8.28,0,1,0,.27,16.56c.31,0,.62,0,.93-.07h0a8.29,8.29,0,0,0-1.2-16.49Z" style="fill:#fff;opacity:0.5600000023841858;isolation:isolate"/><path d="M407.39,724.35a21.93,21.93,0,0,1-2.69-.14h0a8,8,0,0,1-1.08-.13,24.64,24.64,0,0,1-3.7-.8h-.12l-.31-.09-.25-.08a1,1,0,0,1-.68-.94.76.76,0,0,1,0-.3,1,1,0,0,1,1.24-.64,23.68,23.68,0,0,0,5,1.06,24.21,24.21,0,0,0,26.53-21.64h0a23.07,23.07,0,0,0,.13-2.49,24.22,24.22,0,0,0-48.32-2.39Q383,697,383,698.23a24.09,24.09,0,0,0,2.29,10.26,1,1,0,0,1,.09.42,1,1,0,0,1-.57.89,1,1,0,0,1-1.31-.47,26.32,26.32,0,1,1,50-11.17,17.26,17.26,0,0,1-.14,2.69,26.17,26.17,0,0,1-26,23.56Z" style="fill:#bdd0fb"/><path d="M380,230.73a4.63,4.63,0,0,1-4.45-3.33c-.7-2.42-1.37-4.89-2-7.35a4.64,4.64,0,0,1,9-2.23c.58,2.33,1.21,4.68,1.88,7a4.63,4.63,0,0,1-3.13,5.75,4.53,4.53,0,0,1-1.32.19Z" style="fill:#2d6375"/><path d="M374,200a4.62,4.62,0,0,1-4.61-4.16c-.51-5-.82-10.07-.9-15.1a4.64,4.64,0,1,1,9.24-.81,2.28,2.28,0,0,1,0,.26v.39c.08,4.77.37,9.58.86,14.31a4.63,4.63,0,0,1-4.13,5.08h0Zm.34-38.59h-.55a4.66,4.66,0,0,1-4.06-5.16c.6-5,1.42-10,2.43-14.91a4.64,4.64,0,0,1,9.2,1.24c0,.08,0,.15,0,.23a1.89,1.89,0,0,1-.08.4c-1,4.65-1.73,9.41-2.3,14.15a4.62,4.62,0,0,1-4.6,4.06Zm8.82-37.56a4.19,4.19,0,0,1-1.57-.27,4.62,4.62,0,0,1-2.8-5.9h0c1.69-4.74,3.61-9.45,5.69-14a4.64,4.64,0,0,1,8.44,3.86c-2,4.31-3.79,8.78-5.4,13.27a4.63,4.63,0,0,1-4.36,3.07Zm17-34.65a4.64,4.64,0,0,1-4.63-4.65h0a4.72,4.72,0,0,1,.73-2.48c2.7-4.24,5.62-8.4,8.68-12.39a4.63,4.63,0,0,1,7.35,5.64c-2.89,3.78-5.65,7.73-8.22,11.74a4.61,4.61,0,0,1-3.93,2.15Zm24.28-30a4.64,4.64,0,0,1-3.26-7.94c3.57-3.52,7.34-6.94,11.2-10.16A4.64,4.64,0,1,1,438.52,48a1.71,1.71,0,0,1-.26.21c-3.66,3-7.23,6.29-10.62,9.63a4.55,4.55,0,0,1-3.27,1.35Zm30.29-23.9a4.63,4.63,0,0,1-2.45-8.57c4.26-2.65,8.69-5.16,13.16-7.43A4.64,4.64,0,1,1,470,27.38h0a3,3,0,0,1-.36.18c-4.23,2.16-8.43,4.53-12.47,7a4.43,4.43,0,0,1-2.47.75ZM617,24.61a4.35,4.35,0,0,1-1.94-.45c-4.33-2-8.81-3.76-13.29-5.34a4.63,4.63,0,0,1,3.07-8.74h0c4.74,1.67,9.47,3.56,14,5.63a4.63,4.63,0,0,1-1.91,8.86Zm-127.51-5.9a4.64,4.64,0,0,1-1.51-9c4.75-1.64,9.62-3.09,14.48-4.31a4.64,4.64,0,1,1,2.27,9h0c-4.61,1.16-9.22,2.53-13.73,4.09a4.41,4.41,0,0,1-1.53.23Zm90.79-6a4.7,4.7,0,0,1-.92-.09c-4.67-.94-9.43-1.69-14.17-2.24a4.64,4.64,0,0,1,1.06-9.22c5,.58,10,1.37,14.94,2.36a4.64,4.64,0,0,1-.91,9.18Zm-53.15-2.46A4.64,4.64,0,0,1,526.64,1c5-.53,10-.86,15.08-1h.11a4.64,4.64,0,0,1,.1,9.27c-4.77.1-9.58.41-14.3.92Z" style="fill:#2d6375"/><path d="M644.32,40.16a4.48,4.48,0,0,1-2.65-.83c-2-1.36-4-2.71-6-4a4.65,4.65,0,1,1,4.64-8.06l.36.23c2.14,1.35,4.27,2.77,6.34,4.21a4.63,4.63,0,0,1-2.65,8.45Z" style="fill:#2d6375"/><path d="M716.43,154.91a4.62,4.62,0,0,1-4.57-3.92c-.38-2.38-.81-4.77-1.28-7.09a4.64,4.64,0,0,1,9-2.1v.25c.5,2.46,1,5,1.35,7.5a4.64,4.64,0,0,1-3.86,5.3A3.47,3.47,0,0,1,716.43,154.91Z" style="fill:#2d6375"/><path d="M546.06,354.84c-2,0-4,0-6-.1a4.64,4.64,0,0,1,.15-9.27h.16c1.9.06,3.79.09,5.68.09h0c2.78,0,5.59-.07,8.37-.21a4.64,4.64,0,0,1,.47,9.27C551.93,354.76,549,354.84,546.06,354.84Zm-29.3-2.46a3.43,3.43,0,0,1-.78-.07c-4.88-.83-9.77-1.87-14.56-3.1a4.65,4.65,0,0,1,1.93-9.1l.38.1c4.53,1.17,9.18,2.16,13.8,2.94a4.64,4.64,0,0,1-.77,9.21Zm61.26-.53a4.63,4.63,0,0,1-.85-9.19c4.6-.87,9.22-2,13.72-3.21a4.64,4.64,0,1,1,2.49,8.94c-4.76,1.32-9.64,2.46-14.49,3.38a3.92,3.92,0,0,1-.9.08Zm-97.78-9.91a4.63,4.63,0,0,1-1.76-.34c-4.57-1.88-9.12-4-13.52-6.23a4.64,4.64,0,0,1,4.2-8.21c4.17,2.14,8.48,4.12,12.81,5.9a4.63,4.63,0,0,1-1.76,8.92Zm134.06-1.22a4.64,4.64,0,0,1-1.84-8.89c4.29-1.86,8.56-3.92,12.69-6.14a4.65,4.65,0,1,1,4.76,8l-.38.2c-4.35,2.34-8.86,4.52-13.39,6.48a4.45,4.45,0,0,1-1.87.35Zm33-18.81a4.63,4.63,0,0,1-2.72-8.38c3.79-2.75,7.5-5.7,11-8.76a4.64,4.64,0,0,1,6.06,7C657.89,315,654,318.1,650,321a4.46,4.46,0,0,1-2.7.91Zm28.1-25.53a4.63,4.63,0,0,1-3.47-7.7c3.1-3.52,6.09-7.2,8.89-10.95a4.63,4.63,0,1,1,7.43,5.54c-3,4-6.1,7.84-9.38,11.55a4.62,4.62,0,0,1-3.5,1.56Zm21.87-31a4.63,4.63,0,0,1-4.63-4.63h0a4.68,4.68,0,0,1,.57-2.23c2.26-4.1,4.37-8.35,6.27-12.63a4.64,4.64,0,1,1,8.48,3.77c-2,4.52-4.25,9-6.63,13.33a4.62,4.62,0,0,1-4.09,2.36Zm14.53-35.1a4.67,4.67,0,0,1-1.29-.18,4.62,4.62,0,0,1-3.17-5.71h0c1.29-4.49,2.42-9.1,3.34-13.7a4.64,4.64,0,0,1,9.09,1.82c-1,4.85-2.16,9.71-3.53,14.45a4.63,4.63,0,0,1-4.45,3.31Zm6.48-37.4H718a4.64,4.64,0,0,1-4.34-4.92c.22-3.53.34-7.11.34-10.62v-3.48a4.61,4.61,0,0,1,4.5-4.72h.13a4.65,4.65,0,0,1,4.64,4.54v3.67c0,3.7-.12,7.47-.36,11.2a4.62,4.62,0,0,1-4.65,4.3Z" style="fill:#2d6375"/><path d="M446.77,323.67a4.49,4.49,0,0,1-2.65-.84c-2.08-1.45-4.15-3-6.14-4.5a4.63,4.63,0,0,1,5.64-7.35c1.89,1.45,3.85,2.88,5.81,4.26a4.64,4.64,0,0,1,1.15,6.45A4.59,4.59,0,0,1,446.77,323.67Z" style="fill:#2d6375"/><path d="M452.52,271.83a2.06,2.06,0,0,0,2.32.64l23.68-8.71a110,110,0,0,0,31.36,16.89l5.78,24.51a2,2,0,0,0,1.8,1.59l30.12,3.05a2.07,2.07,0,0,0,2.09-1.19l10.58-22.89a109.32,109.32,0,0,0,34.11-10.26l21.46,13.29a2.06,2.06,0,0,0,2.4-.16l23.45-19.14a2.07,2.07,0,0,0,.64-2.32l-8.71-23.69a109.79,109.79,0,0,0,16.88-31.28L675,206.38a2.08,2.08,0,0,0,1.59-1.81l3-30.11a2.09,2.09,0,0,0-1.19-2.1l-22.89-10.58a110.42,110.42,0,0,0-10.26-34.1l13.33-21.52a2.06,2.06,0,0,0-.15-2.4L639.32,80.3a2.09,2.09,0,0,0-2.32-.63l-23.69,8.71A109.89,109.89,0,0,0,582,71.51L576.18,47a2.08,2.08,0,0,0-1.81-1.58l-30.12-3a2.07,2.07,0,0,0-2.09,1.19L531.58,66.5a109.94,109.94,0,0,0-34.11,10.26L476.06,63.47a2.11,2.11,0,0,0-2.41.16L450.16,82.77a2.07,2.07,0,0,0-.63,2.32l8.71,23.68A110.18,110.18,0,0,0,441.35,140l-24.58,5.82a2.09,2.09,0,0,0-1.59,1.81l-3,30.11a2,2,0,0,0,1.2,2.09l22.89,10.59a109.78,109.78,0,0,0,10.25,34.1L433.27,246a2.08,2.08,0,0,0,.16,2.4Z" style="fill:#071841"/><path d="M545.85,208.53a32.63,32.63,0,1,1,4.8-.36A32.12,32.12,0,0,1,545.85,208.53Zm.11-53.77a23.72,23.72,0,0,0-3.15.23,21.32,21.32,0,1,0,5.65,42.27,1.26,1.26,0,0,0,.57-.09h0A21.32,21.32,0,0,0,546,154.76Z" style="fill:#fff;opacity:0.5600000023841858;isolation:isolate"/><path d="M546.44,250.53c-2.52,0-5-.13-7.61-.38h0a74.3,74.3,0,0,1-15.6-3.28,1.85,1.85,0,0,1,1.12-3.52h0a71.18,71.18,0,1,0-48.79-74.89h0a69.68,69.68,0,0,0-.37,7.22,71.15,71.15,0,0,0,6.72,30.16,1.86,1.86,0,0,1-3.36,1.58,74.56,74.56,0,0,1-7.06-31.74,71.36,71.36,0,0,1,.38-7.6,74.89,74.89,0,1,1,74.57,82.45Z" style="fill:#fff;opacity:0.5600000023841858;isolation:isolate"/><path d="M107.39,615.86a2,2,0,0,0,1.49,1.72l23.25,5.58a103.83,103.83,0,0,0,15.93,29.69l-8.25,22.39a2,2,0,0,0,.59,2.2l22.16,18.18a2,2,0,0,0,2.28.15l20.33-12.52A103.48,103.48,0,0,0,217.41,693l10,21.72a2,2,0,0,0,2,1.13L257.93,713a2,2,0,0,0,1.71-1.5l5.53-23.24a103.58,103.58,0,0,0,29.75-15.9l22.39,8.3a2,2,0,0,0,2.2-.6L337.63,658a2,2,0,0,0,.15-2.27L325.27,635.4A104.68,104.68,0,0,0,335,603.16l21.71-10a2,2,0,0,0,1.13-2l-2.78-28.56a2,2,0,0,0-1.5-1.72l-23.25-5.53a104.5,104.5,0,0,0-15.89-29.74l8.29-22.39a2,2,0,0,0-.59-2.2L300,482.85a2,2,0,0,0-2.28-.16l-20.33,12.52a104.69,104.69,0,0,0-32.29-9.77l-10-21.71a2,2,0,0,0-2-1.14l-28.52,2.82a2,2,0,0,0-1.71,1.5l-5.55,23.25a104.5,104.5,0,0,0-29.74,15.89l-22.4-8.3a2,2,0,0,0-2.2.6l-18.17,22.16a2,2,0,0,0-.15,2.27l12.51,20.38a104,104,0,0,0-9.77,32.27l-21.71,10a2,2,0,0,0-1.13,2Z" style="fill:#ffd131"/><path d="M211.68,618.6a35.36,35.36,0,1,1,4.52,2.54A34,34,0,0,1,211.68,618.6Zm28.2-42.38a18.76,18.76,0,0,0-2-1.14,15.64,15.64,0,1,0,7.49,20.82h0a15.68,15.68,0,0,0-5.47-19.67Z" style="fill:#fff"/><path d="M191.77,649.5a66.51,66.51,0,0,1-5.92-4.38c-1.21-1-2.4-2-3.55-3.11h0a66.37,66.37,0,0,1-5.27-5.47l-.09-.1a1.15,1.15,0,0,1-.14-.17l-1-1.15c-.34-.39-.51-.62-.76-.94a3.27,3.27,0,0,1,5.12-4h0a65.46,65.46,0,0,0,9.9,10h0a65.94,65.94,0,0,0,92-8.4l.67-.81a65.9,65.9,0,0,0-101.92-83.56c-1.42,1.73-2.76,3.53-4,5.38a65.71,65.71,0,0,0-10.26,26.7,3.18,3.18,0,0,1-.51,1.33,3.27,3.27,0,0,1-6-2.29,72.43,72.43,0,1,1,132.09,50.65c-1.37,2.06-2.84,4.06-4.43,6A72.54,72.54,0,0,1,191.77,649.5Z" style="fill:#fff"/><path d="M89.77,546.7a4,4,0,0,1-1.59-4.46c.64-2,1.33-4.12,2-6.15a4,4,0,0,1,7.44,2.66c-.69,1.93-1.34,3.89-1.94,5.83a4,4,0,0,1-5,2.6A3.2,3.2,0,0,1,89.77,546.7Z" style="fill:#2d6375"/><path d="M99.94,522a4,4,0,0,1-1.32-5.13c2-3.78,4.17-7.53,6.48-11.14a4,4,0,0,1,6.67,4.27c-2.19,3.43-4.26,7-6.14,10.57a4,4,0,0,1-5.33,1.66Zm18.42-27.24a2,2,0,0,1-.37-.28,3.94,3.94,0,0,1-.47-5.55h0c2.77-3.27,5.72-6.45,8.75-9.45a3.95,3.95,0,0,1,5.67,5.5l-.11.11c-2.87,2.85-5.66,5.86-8.3,9a4,4,0,0,1-5.19.73Zm24-22.51a3.7,3.7,0,0,1-1-.93,4,4,0,0,1,.8-5.53c3.44-2.56,7-5,10.65-7.26a4,4,0,0,1,5.24,6.05h0a3.82,3.82,0,0,1-1.07.66c-3.44,2.14-6.83,4.45-10.09,6.88a3.92,3.92,0,0,1-4.57.17Zm28.4-16.6a3.95,3.95,0,0,1,.59-6.9c3.91-1.74,8-3.32,12-4.71a4,4,0,1,1,2.78,7.4l-.22.07c-3.83,1.32-7.66,2.82-11.37,4.46a3.9,3.9,0,0,1-3.77-.28Zm31.37-9.87a4,4,0,0,1,1.43-7.16c4.2-.83,8.48-1.48,12.74-1.94a3.95,3.95,0,0,1,.85,7.85c-4,.44-8.09,1.06-12.07,1.84a3.92,3.92,0,0,1-3-.55Zm32.78-2.69a4,4,0,0,1,2.29-7.24c4.28.13,8.61.44,12.86.93a4,4,0,0,1-.91,7.85c-4-.47-8.12-.76-12.18-.88a3.72,3.72,0,0,1-2.1-.62ZM355.2,512a3.91,3.91,0,0,1-1.16-1.2c-2.15-3.43-4.48-6.82-6.92-10a4,4,0,0,1,5.45-5.86l.12.12a4.55,4.55,0,0,1,.74,1c2.57,3.42,5,7,7.31,10.62a4,4,0,0,1-5.54,5.39Zm-87.76-64.29a4,4,0,0,1,3.18-7.12c4.15,1.08,8.29,2.34,12.32,3.77a4,4,0,0,1-1.45,7.87h0a3.63,3.63,0,0,1-1.18-.42c-3.82-1.35-7.74-2.55-11.67-3.57a3.5,3.5,0,0,1-1.24-.49Zm67.27,38.57a3.25,3.25,0,0,1-.61-.5c-2.87-2.87-5.89-5.65-9-8.27a4,4,0,0,1,5.09-6c3.28,2.76,6.47,5.7,9.5,8.72a4,4,0,0,1-5,6.09Zm-36.57-26.8a4,4,0,0,1,4-6.8c3.79,2,7.55,4.13,11.18,6.42l.07.05a4,4,0,0,1-4.3,6.63c-3.43-2.18-7-4.22-10.59-6.09Z" style="fill:#2d6375"/><path d="M367.26,536a3.88,3.88,0,0,1-1.48-1.84c-.75-1.89-1.56-3.8-2.39-5.66a4,4,0,0,1,7-3.7,2.24,2.24,0,0,1,.13.27,2,2,0,0,1,.1.21c.88,2,1.73,4,2.52,6a4,4,0,0,1-2.43,5.11h0a4,4,0,0,1-3.43-.36Z" style="fill:#2d6375"/><path d="M364.38,651.43a4,4,0,0,1-1.4-4.93c.85-1.87,1.67-3.77,2.43-5.65a4,4,0,0,1,7.32,3c-.8,2-1.67,4-2.57,5.95a3.94,3.94,0,0,1-5.2,2h0A2.72,2.72,0,0,1,364.38,651.43Z" style="fill:#2d6375"/><path d="M149.15,713.08c-1.39-.93-2.83-1.92-4.24-2.92a4,4,0,0,1,4.48-6.51l.11.08c1.33.94,2.67,1.86,4,2.74h0c2,1.31,4,2.58,6,3.79a4,4,0,0,1-4,6.8C153.38,715.81,151.23,714.46,149.15,713.08Zm-19.64-15.55a3.06,3.06,0,0,1-.53-.42c-3.07-2.88-6.06-5.93-8.87-9.06a4,4,0,0,1,5.87-5.29c2.67,3,5.5,5.86,8.41,8.59a4,4,0,0,1-4.88,6.18ZM173.26,726a4,4,0,0,1,3.72-6.93c3.68,1.55,7.47,3,11.26,4.2a4,4,0,0,1-2.47,7.53h0c-4-1.3-8-2.79-11.88-4.43a2.48,2.48,0,0,1-.63-.37Zm-64.77-53.11a3.71,3.71,0,0,1-1.08-1.08c-2.37-3.49-4.61-7.12-6.67-10.79a4,4,0,0,1,6.51-4.48,4.62,4.62,0,0,1,.28.48l.1.17c2,3.47,4.08,6.91,6.32,10.22a4,4,0,0,1-5.46,5.51Zm95.77,62.27a4,4,0,0,1,2.89-7.18c3.92.7,7.92,1.25,11.9,1.62a4,4,0,0,1-.74,7.87c-4.2-.39-8.42-1-12.56-1.71a3.83,3.83,0,0,1-1.49-.58Zm32.28,2.19a4,4,0,0,1,2-7.24q6-.25,12-1a4,4,0,0,1,1,7.84c-4.18.53-8.43.88-12.63,1.06a3.83,3.83,0,0,1-2.37-.64Zm32-4.89a4,4,0,0,1,1.17-7.11c3.86-1,7.71-2.24,11.47-3.58a4,4,0,0,1,2.93,7.34,1.14,1.14,0,0,1-.26.09c-4,1.42-8,2.7-12.1,3.78a3.92,3.92,0,0,1-3.23-.5Zm30.16-11.74a3.79,3.79,0,0,1-1.32-1.46,4,4,0,0,1,1.68-5.33c3.53-1.85,7-3.87,10.41-6a4,4,0,0,1,4.23,6.67c-3.56,2.26-7.25,4.39-11,6.34a4,4,0,0,1-4-.2Zm26.86-18.07a3.64,3.64,0,0,1-.83-.74,4,4,0,0,1,.46-5.57c3-2.57,6-5.31,8.83-8.14a4,4,0,0,1,5.85,5.31,3.19,3.19,0,0,1-.26.26c-3,3-6.1,5.88-9.31,8.6a4,4,0,0,1-4.76.3Zm22.21-23.49-.2-.14a4,4,0,0,1-.77-5.54c1.83-2.4,3.59-4.89,5.25-7.38.55-.83,1.08-1.65,1.61-2.48a4,4,0,0,1,5.43-1.24h0l.07,0a3.92,3.92,0,0,1,1.15,5.4c-.55.88-1.12,1.76-1.7,2.63-1.74,2.63-3.61,5.25-5.53,7.79A4,4,0,0,1,347.77,679.16Z" style="fill:#2d6375"/><path d="M93.37,644.16a3.82,3.82,0,0,1-1.49-1.85c-.79-2-1.54-4.06-2.23-6.09a4,4,0,0,1,7.47-2.56c.66,1.92,1.37,3.86,2.12,5.77a4,4,0,0,1-5.87,4.73Z" style="fill:#2d6375"/><path d="M647.43,405.71a.7.7,0,0,0,.8.22l8.08-3A37.08,37.08,0,0,0,667,408.7l2,8.37a.69.69,0,0,0,.62.54l10.27,1a.71.71,0,0,0,.72-.41l3.61-7.81a37.61,37.61,0,0,0,11.63-3.5l7.33,4.53a.68.68,0,0,0,.81,0l8-6.53a.71.71,0,0,0,.21-.8l-3-8.08a37.29,37.29,0,0,0,5.76-10.7l8.38-2a.69.69,0,0,0,.54-.62l1-10.27a.71.71,0,0,0-.4-.71l-7.82-3.62a37.32,37.32,0,0,0-3.49-11.63l4.53-7.32a.69.69,0,0,0-.06-.82l-6.53-8a.72.72,0,0,0-.79-.21l-8.08,3a37.92,37.92,0,0,0-10.7-5.76l-2-8.38a.71.71,0,0,0-.62-.54l-10.27-1a.73.73,0,0,0-.72.41l-3.61,7.81a37.67,37.67,0,0,0-11.64,3.5l-7.32-4.54a.72.72,0,0,0-.82.06l-8,6.53a.7.7,0,0,0-.21.79l3,8.08a37.57,37.57,0,0,0-5.77,10.7l-8.37,2a.71.71,0,0,0-.54.62l-1,10.27a.72.72,0,0,0,.4.72l7.81,3.61a37.67,37.67,0,0,0,3.5,11.64L640.84,397a.72.72,0,0,0,0,.82Z" style="fill:#5ecff5"/><path d="M679.3,383.55a10.49,10.49,0,1,1,1.54-.11A9.88,9.88,0,0,1,679.3,383.55Zm0-18.34a8.89,8.89,0,0,0-1.15.08,7.83,7.83,0,0,0,2.29,15.49h0a7.83,7.83,0,0,0-1.14-15.57Z" style="fill:#7d97f4"/><path d="M679.48,399.16a21.45,21.45,0,0,1-2.66-.14h0a25.68,25.68,0,0,1-5.48-1.14,1.35,1.35,0,0,1-.92-1.28,1.4,1.4,0,0,1,.06-.41,1.36,1.36,0,0,1,1.69-.87,23,23,0,0,0,4.92,1h0a23.6,23.6,0,0,0,25.77-20.5l.06-.58a21.67,21.67,0,0,0,.13-2.42,23.58,23.58,0,0,0-47-2.33c-.08.8-.12,1.6-.12,2.39a23.51,23.51,0,0,0,2.23,10,1.39,1.39,0,0,1,.12.57,1.36,1.36,0,0,1-1.35,1.34,1.32,1.32,0,0,1-1.2-.77,26.18,26.18,0,1,1,50-11.2,17.45,17.45,0,0,1-.14,2.7A26.3,26.3,0,0,1,679.48,399.16Z" style="fill:#7d97f4"/><path d="M1118.16,587.84a.7.7,0,0,0,.82.23l8.39-3.08a38.47,38.47,0,0,0,11.09,6l2,8.69a.72.72,0,0,0,.64.56l10.66,1.08a.75.75,0,0,0,.74-.42l3.74-8.1a38.73,38.73,0,0,0,12.07-3.63l7.59,4.7a.72.72,0,0,0,.85-.06l8.3-6.77a.72.72,0,0,0,.23-.82l-3.08-8.38a38.9,38.9,0,0,0,6-11.1l8.69-2a.69.69,0,0,0,.56-.64l1.08-10.65a.75.75,0,0,0-.42-.74l-8.1-3.75a39,39,0,0,0-3.63-12.07l4.7-7.59a.72.72,0,0,0-.06-.85l-6.77-8.3a.74.74,0,0,0-.82-.23l-8.37,3.09a38.9,38.9,0,0,0-11.1-6l-2-8.69a.76.76,0,0,0-.64-.56l-10.66-1.08a.74.74,0,0,0-.74.42l-3.75,8.1a39.55,39.55,0,0,0-12.07,3.63l-7.59-4.7a.75.75,0,0,0-.85.06l-8.3,6.77a.75.75,0,0,0-.23.82l3.09,8.38a38.9,38.9,0,0,0-6,11.1l-8.69,2a.72.72,0,0,0-.56.64l-1.08,10.65a.74.74,0,0,0,.42.74l8.1,3.75a39.31,39.31,0,0,0,3.65,12.07l-4.7,7.59a.74.74,0,0,0,.06.85Z" style="fill:#2d6375"/><path d="M1151.21,564.86a10.91,10.91,0,1,1,1.6-.12A10.67,10.67,0,0,1,1151.21,564.86Zm0-19a11.91,11.91,0,0,0-1.19.09,8.12,8.12,0,1,0,2.37,16.07h0a8.12,8.12,0,0,0-1.18-16.16Z" style="fill:#fff"/><path d="M1151.4,581a18.23,18.23,0,0,1-2.76-.14h0a27,27,0,0,1-5.68-1.19,1.38,1.38,0,0,1-1-1.33,1.2,1.2,0,0,1,.07-.42,1.4,1.4,0,0,1,1.75-.9h0a24.11,24.11,0,0,0,5.1,1.07h0a24.48,24.48,0,0,0,26.73-21.26l.06-.61a23.31,23.31,0,0,0,.13-2.51,24.46,24.46,0,0,0-48.79-2.42,22.76,22.76,0,0,0-.13,2.48,24.4,24.4,0,0,0,2.31,10.36,1.39,1.39,0,1,1-2.52,1.19,27.07,27.07,0,0,1-2.57-11.54,18.37,18.37,0,0,1,.14-2.77,27.24,27.24,0,0,1,54.34,2.69,26.12,26.12,0,0,1-.14,2.8A27.26,27.26,0,0,1,1151.4,581Z" style="fill:#fff"/><path d="M1169.11,366.5a1.78,1.78,0,0,1-1.71-1.28c-.42-1.46-.81-2.94-1.15-4.41a1.78,1.78,0,0,1,3.47-.8c.32,1.4.7,2.81,1.1,4.2a1.78,1.78,0,0,1-1.17,2.22,1.64,1.64,0,0,1-.54.07Z" style="fill:#2d6375"/><path d="M1166.48,353.56a1.78,1.78,0,0,1-1.77-1.58,80.93,80.93,0,0,1-.53-8.94,1.78,1.78,0,0,1,1.77-1.79h0a1.78,1.78,0,0,1,1.82,1.74h0a78.76,78.76,0,0,0,.52,8.54,1.79,1.79,0,0,1-1.55,2h0Zm-.07-17.49h-.19a1.79,1.79,0,0,1-1.6-1.95v-.05h0a77.88,77.88,0,0,1,1.44-8.84,1.78,1.78,0,1,1,3.48.77h0a80.4,80.4,0,0,0-1.38,8.45,1.77,1.77,0,0,1-1.76,1.62Zm3.78-17.06a1.65,1.65,0,0,1-.58-.1,1.79,1.79,0,0,1-1.11-2.27,79.71,79.71,0,0,1,3.38-8.3,1.78,1.78,0,0,1,3.22,1.53h0a75.63,75.63,0,0,0-3.22,7.93,1.79,1.79,0,0,1-1.69,1.2Zm7.49-15.81a1.79,1.79,0,0,1-1.79-1.79h0a1.83,1.83,0,0,1,.27-.94,84.54,84.54,0,0,1,5.14-7.33,1.78,1.78,0,1,1,2.81,2.2h0a77.23,77.23,0,0,0-4.92,7,1.75,1.75,0,0,1-1.51.82Zm10.82-13.74a1.77,1.77,0,0,1-1.74-1.8v0a1.82,1.82,0,0,1,.47-1.17,81.92,81.92,0,0,1,6.63-6,1.78,1.78,0,1,1,2.24,2.77h0a78.46,78.46,0,0,0-6.34,5.75A1.69,1.69,0,0,1,1188.5,289.46Zm13.58-11a1.79,1.79,0,0,1-1-3.29,83,83,0,0,1,7.8-4.4,1.78,1.78,0,0,1,1.58,3.2h0a78.1,78.1,0,0,0-7.4,4.19,1.62,1.62,0,0,1-.93.28Zm75.39-5a1.57,1.57,0,0,1-.76-.17,78.62,78.62,0,0,0-7.94-3.17,1.79,1.79,0,0,1-1.12-2.26,1.76,1.76,0,0,1,2.22-1.13h0a80.53,80.53,0,0,1,8.32,3.32,1.75,1.75,0,0,1-.75,3.36Zm-59.7-2.75A1.77,1.77,0,0,1,1216,269h0a1.79,1.79,0,0,1,1.19-1.71,82.3,82.3,0,0,1,8.59-2.56,1.78,1.78,0,0,1,.82,3.47h0a75.53,75.53,0,0,0-8.19,2.45,1.57,1.57,0,0,1-.61.1Zm43.14-2.85h-.37a77.91,77.91,0,0,0-8.46-1.33,1.77,1.77,0,0,1-1.6-1.94h0a1.79,1.79,0,0,1,2-1.6h0a85.25,85.25,0,0,1,8.85,1.39,1.79,1.79,0,0,1-.38,3.53Zm-26.13-1.2a1.78,1.78,0,0,1-.22-3.55,83.5,83.5,0,0,1,8.94-.58h0a1.78,1.78,0,0,1,0,3.56h0a81.26,81.26,0,0,0-8.54.56Z" style="fill:#2d6375"/><path d="M1289,280.07a1.7,1.7,0,0,1-1-.32c-1.19-.83-2.41-1.63-3.64-2.38a1.78,1.78,0,1,1,1.36-3.29l.11.05a2,2,0,0,1,.39.24c1.29.79,2.57,1.63,3.82,2.49a1.79,1.79,0,0,1,.44,2.48A1.74,1.74,0,0,1,1289,280.07Z" style="fill:#2d6375"/><path d="M1321.86,333.16a1.79,1.79,0,0,1-1.77-1.53c-.2-1.44-.45-2.88-.74-4.29a1.78,1.78,0,0,1,3.49-.72c.3,1.48.57,3,.78,4.5a1.77,1.77,0,0,1-1.51,2h0Z" style="fill:#2d6375"/><path d="M1244.39,422.78c-1.23,0-2.46,0-3.7-.08a1.78,1.78,0,0,1-1.7-1.86h0a1.82,1.82,0,0,1,1.86-1.7,73.9,73.9,0,0,0,8.42-.08,1.78,1.78,0,1,1,.23,3.56h0C1247.77,422.73,1246.06,422.78,1244.39,422.78Zm-12.19-.94h-.27a74.19,74.19,0,0,1-8.62-1.83,1.76,1.76,0,0,1-1.27-2.14h0a1.8,1.8,0,0,1,2.19-1.26,74.81,74.81,0,0,0,8.23,1.75,1.78,1.78,0,0,1-.27,3.54Zm25.74-.24a1.78,1.78,0,0,1-.31-3.54,72,72,0,0,0,8.19-1.91,1.78,1.78,0,1,1,1,3.42h0a76.26,76.26,0,0,1-8.58,2Zm-42.35-4.25a1.82,1.82,0,0,1-.65-.12,81.39,81.39,0,0,1-8-3.68,1.79,1.79,0,0,1-.62-2.44h0a1.8,1.8,0,0,1,2.28-.71,74.28,74.28,0,0,0,7.64,3.52,1.79,1.79,0,0,1,1,2.31,1.77,1.77,0,0,1-1.67,1.13Zm58.85-.58a1.78,1.78,0,0,1-.68-3.43,75.35,75.35,0,0,0,7.57-3.66,1.78,1.78,0,0,1,1.73,3.12,80.34,80.34,0,0,1-7.93,3.83,1.64,1.64,0,0,1-.69.14Zm15-8.33a1.72,1.72,0,0,1-1.45-.75,1.79,1.79,0,0,1,.42-2.49A73.89,73.89,0,0,0,1295,400a1.79,1.79,0,0,1,2.36,2.68,78.74,78.74,0,0,1-6.9,5.46,1.71,1.71,0,0,1-1,.33ZM1302.37,397a1.78,1.78,0,0,1-1.8-1.76,1.74,1.74,0,0,1,.48-1.24,75.79,75.79,0,0,0,5.31-6.54,1.78,1.78,0,0,1,2.94,2l-.06.08a76,76,0,0,1-5.55,6.84,1.73,1.73,0,0,1-1.32.62Zm10.09-13.93a1.78,1.78,0,0,1-1.78-1.78h0a1.81,1.81,0,0,1,.23-.88,73.47,73.47,0,0,0,3.75-7.54,1.79,1.79,0,0,1,3.28,1.41,76.89,76.89,0,0,1-3.88,7.89,1.79,1.79,0,0,1-1.55.94Zm6.8-15.81a1.32,1.32,0,0,1-.52-.08,1.76,1.76,0,0,1-1.19-2.2h0a74.45,74.45,0,0,0,2-8.18,1.79,1.79,0,0,1,3.51.66A78.57,78.57,0,0,1,1321,366a1.76,1.76,0,0,1-1.7,1.3Zm3.17-16.91h-.14a1.78,1.78,0,0,1-1.64-1.89h0v-.54c.13-1.78.19-3.59.19-5.36V340a1.78,1.78,0,0,1,3.56-.12h0c0,.88,0,1.75,0,2.64,0,1.85-.07,3.74-.2,5.6v.56a1.76,1.76,0,0,1-1.82,1.69Z" style="fill:#2d6375"/><path d="M1200.31,409.27a1.63,1.63,0,0,1-1-.31c-1.27-.86-2.51-1.75-3.7-2.67a1.78,1.78,0,0,1,2.17-2.83q1.71,1.32,3.53,2.55a1.78,1.78,0,0,1,.48,2.47h0A1.74,1.74,0,0,1,1200.31,409.27Z" style="fill:#2d6375"/><path d="M1202,385.46a1,1,0,0,0,1.06.29l10.71-3.95a49.66,49.66,0,0,0,14.22,7.66l2.62,11.13a.92.92,0,0,0,.82.72l13.66,1.38a.9.9,0,0,0,.94-.54l4.8-10.38a49.34,49.34,0,0,0,15.47-4.65l9.73,6a.92.92,0,0,0,1.09-.07l10.64-8.68a.93.93,0,0,0,.28-1l-4-10.74a49.79,49.79,0,0,0,7.66-14.22l11.13-2.62a1,1,0,0,0,.73-.82l1.38-13.66a1,1,0,0,0-.54-1l-10.38-4.8a49.89,49.89,0,0,0-4.65-15.46l6-9.73a1,1,0,0,0-.07-1.09l-8.53-10.62a1,1,0,0,0-1-.29l-10.71,3.95a50.48,50.48,0,0,0-14.23-7.66l-2.62-11.13a1,1,0,0,0-.82-.72l-13.65-1.38a1,1,0,0,0-1,.54l-4.8,10.38a50.5,50.5,0,0,0-15.47,4.65l-9.73-6a1,1,0,0,0-1.09.07l-10.59,8.68a.94.94,0,0,0-.29,1l4,10.74a50.42,50.42,0,0,0-7.66,14.22l-11.27,2.6a1,1,0,0,0-.72.82l-1.39,13.66a1,1,0,0,0,.54.95l10.39,4.8a49.28,49.28,0,0,0,4.65,15.46l-6,9.74a.93.93,0,0,0,.07,1.08Z" style="fill:#071841"/><path d="M1244.35,356a14,14,0,1,1,2-.15A13.36,13.36,0,0,1,1244.35,356Zm0-24.38a11.25,11.25,0,0,0-1.53.11,10.41,10.41,0,0,0,3,20.59h0a10.41,10.41,0,0,0-1.51-20.7Z" style="fill:#fff"/><path d="M1244.6,376.74a35,35,0,0,1-3.55-.18h0a34.73,34.73,0,0,1-7.28-1.56,1.8,1.8,0,0,1-1.23-1.7,1.7,1.7,0,0,1,.08-.55,1.81,1.81,0,0,1,2.25-1.15,29.77,29.77,0,0,0,6.53,1.37h0a31.38,31.38,0,0,0,34.26-27.24c0-.26.06-.52.08-.78a31.35,31.35,0,1,0-59.56,10.14,1.83,1.83,0,0,1,.17.76,1.79,1.79,0,0,1-3.4.76,34.91,34.91,0,1,1,66.52-14.89c0,1.19-.06,2.39-.18,3.59A35,35,0,0,1,1244.6,376.74Z" style="fill:#fff"/><path d="M987.49,682.9a1.64,1.64,0,0,1-1.58-1.19c-.4-1.35-.76-2.72-1.08-4.08a1.65,1.65,0,1,1,3.22-.74h0c.3,1.29.64,2.6,1,3.89a1.64,1.64,0,0,1-1.12,2h0A1.16,1.16,0,0,1,987.49,682.9Z" style="fill:#2d6375"/><path d="M985.06,670.93a1.64,1.64,0,0,1-1.63-1.46,73.86,73.86,0,0,1-.5-8.27,1.67,1.67,0,0,1,1.64-1.66h0a1.65,1.65,0,0,1,1.65,1.65h0a71.88,71.88,0,0,0,.47,7.9,1.65,1.65,0,0,1-1.44,1.83ZM985,654.75h-.22a1.63,1.63,0,0,1-1.46-1.78v0h0a75.15,75.15,0,0,1,1.33-8.17,1.65,1.65,0,0,1,3.25.59h0v.12a71.37,71.37,0,0,0-1.27,7.81,1.65,1.65,0,0,1-1.64,1.45ZM988.49,639a1.6,1.6,0,0,1-.53-.09,1.66,1.66,0,0,1-1-2.09,74.29,74.29,0,0,1,3.1-7.63,1.66,1.66,0,0,1,3,1.41,74.12,74.12,0,0,0-3,7.33,1.61,1.61,0,0,1-1.59,1.15Zm6.93-14.62a1.5,1.5,0,0,1-.87-.25,1.65,1.65,0,0,1-.53-2.27,74.22,74.22,0,0,1,4.75-6.78,1.65,1.65,0,0,1,2.85,1.66,1.46,1.46,0,0,1-.26.34,72.42,72.42,0,0,0-4.54,6.48,1.62,1.62,0,0,1-1.41.82Zm10-12.71a1.62,1.62,0,0,1-1.64-1.61,1.6,1.6,0,0,1,.47-1.17h0a73.48,73.48,0,0,1,6.13-5.57,1.65,1.65,0,0,1,2.08,2.56,77.65,77.65,0,0,0-5.86,5.32,1.61,1.61,0,0,1-1.19.49ZM1018,601.46a1.64,1.64,0,0,1-1.59-1.69h0a1.68,1.68,0,0,1,.7-1.3,79.8,79.8,0,0,1,7.21-4.07,1.67,1.67,0,0,1,1.46,3,71.66,71.66,0,0,0-6.89,3.89,1.53,1.53,0,0,1-.89.18Zm69.72-4.64a1.65,1.65,0,0,1-.69-.15,69.49,69.49,0,0,0-7.35-2.94,1.65,1.65,0,0,1,1-3.13,73,73,0,0,1,7.69,3.08,1.65,1.65,0,0,1-.7,3.14Zm-55.22-2.51a1.65,1.65,0,0,1-1.65-1.65h0a1.68,1.68,0,0,1,1.09-1.55,73,73,0,0,1,7.93-2.37,1.65,1.65,0,1,1,.77,3.21h0a73.37,73.37,0,0,0-7.58,2.26A1.54,1.54,0,0,1,1032.48,594.31Zm39.9-2.64a1,1,0,0,1-.35,0,73.51,73.51,0,0,0-7.82-1.23,1.65,1.65,0,0,1,0-3.3h.33a75.22,75.22,0,0,1,8.18,1.29,1.65,1.65,0,0,1-.34,3.26Zm-24.17-1.11a1.64,1.64,0,0,1-1.6-1.68v0a1.67,1.67,0,0,1,1.4-1.58,71.3,71.3,0,0,1,8.26-.54h0a1.65,1.65,0,0,1,1.64,1.66h0a1.63,1.63,0,0,1-1.62,1.64h0a69.36,69.36,0,0,0-7.89.51Z" style="fill:#2d6375"/><path d="M1098.35,603a1.57,1.57,0,0,1-.94-.3c-1.1-.76-2.23-1.5-3.37-2.2a1.65,1.65,0,0,1,1.7-2.82h0c1.19.73,2.37,1.51,3.52,2.31a1.66,1.66,0,0,1,.4,2.3,1.64,1.64,0,0,1-1.34.7Z" style="fill:#2d6375"/><path d="M1128.77,652.09a1.65,1.65,0,0,1-1.63-1.41c-.19-1.33-.43-2.66-.69-4a1.65,1.65,0,0,1,3.23-.66c.28,1.37.52,2.77.72,4.16a1.65,1.65,0,0,1-1.4,1.87h0Z" style="fill:#2d6375"/><path d="M1057.06,735c-1.13,0-2.27,0-3.42-.08a1.64,1.64,0,0,1-1.57-1.71h0a1.68,1.68,0,0,1,1.72-1.57,67.47,67.47,0,0,0,7.79-.07,1.68,1.68,0,0,1,1.75,1.55,1.64,1.64,0,0,1-1.52,1.75h0C1060.27,734.89,1058.68,735,1057.06,735Zm-11.27-.87h-.25a74.79,74.79,0,0,1-8-1.69,1.65,1.65,0,1,1,.86-3.19,68.37,68.37,0,0,0,7.62,1.62,1.66,1.66,0,0,1,1.37,1.89,1.64,1.64,0,0,1-1.62,1.39Zm23.8-.23a1.65,1.65,0,0,1-.28-3.27,70,70,0,0,0,7.58-1.77,1.65,1.65,0,1,1,.92,3.17h0a71.81,71.81,0,0,1-7.93,1.85h-.29ZM1030.43,730a1.52,1.52,0,0,1-.6-.11,71.83,71.83,0,0,1-7.41-3.4,1.65,1.65,0,1,1,1.54-2.92h0a69.52,69.52,0,0,0,7.07,3.25,1.65,1.65,0,0,1,1,2.11h0a1.63,1.63,0,0,1-1.56,1.07Zm54.43-.53a1.65,1.65,0,0,1-1.63-1.67h0a1.66,1.66,0,0,1,1-1.5,64.48,64.48,0,0,0,7-3.39,1.65,1.65,0,1,1,1.6,2.89h0a73.84,73.84,0,0,1-7.33,3.55,1.5,1.5,0,0,1-.63.08Zm13.92-7.71a1.65,1.65,0,0,1-1.7-1.6,1.63,1.63,0,0,1,.7-1.4,72.9,72.9,0,0,0,6.11-4.84,1.65,1.65,0,0,1,2.18,2.47,72.26,72.26,0,0,1-6.38,5.06,1.56,1.56,0,0,1-.91.26Zm12-10.59a1.58,1.58,0,0,1-1.11-.43,1.63,1.63,0,0,1-.13-2.3h0a70.42,70.42,0,0,0,4.9-6,1.65,1.65,0,0,1,2.67,1.93,74.23,74.23,0,0,1-5.13,6.33,1.64,1.64,0,0,1-1.22.5Zm9.33-12.89a1.67,1.67,0,0,1-.82-.21,1.65,1.65,0,0,1-.61-2.25,71.05,71.05,0,0,0,3.46-7,1.65,1.65,0,1,1,3.18.89,1.5,1.5,0,0,1-.18.41,70.83,70.83,0,0,1-3.63,7.3,1.64,1.64,0,0,1-1.44.86Zm6.28-14.62a1.63,1.63,0,0,1-1.65-1.61v0a1.69,1.69,0,0,1,.08-.5,72.45,72.45,0,0,0,1.85-7.56,1.65,1.65,0,0,1,3.24.61,74.17,74.17,0,0,1-1.94,7.91,1.62,1.62,0,0,1-1.62,1.17Zm2.89-15.63h-.12a1.64,1.64,0,0,1-1.52-1.75v-.51c.12-1.65.18-3.32.18-5v-2.33a1.65,1.65,0,0,1,3.29-.11v2.44c0,1.72-.06,3.46-.17,5.18v.52a1.65,1.65,0,0,1-1.67,1.56Z" style="fill:#2d6375"/><path d="M1016.33,722.45a1.58,1.58,0,0,1-.92-.28c-1.17-.8-2.32-1.63-3.42-2.47a1.64,1.64,0,0,1-.21-2.31h0a1.66,1.66,0,0,1,2.2-.3c1,.81,2.15,1.6,3.26,2.36a1.66,1.66,0,0,1,.4,2.3,1.61,1.61,0,0,1-1.33.7Z" style="fill:#2d6375"/><path d="M1017.9,700.43a.87.87,0,0,0,1,.27l9.87-3.7a45.47,45.47,0,0,0,13.15,7.08l2.43,10.3a.86.86,0,0,0,.75.67l12.64,1.28a.85.85,0,0,0,.87-.5l4.44-9.6a46,46,0,0,0,14.31-4.31l9,5.57a.86.86,0,0,0,1-.06l9.84-8a.86.86,0,0,0,.26-1l-3.65-9.93a46.14,46.14,0,0,0,7.08-13.16l10.3-2.42a.86.86,0,0,0,.67-.76l1.28-12.63a.89.89,0,0,0-.51-.88l-9.6-4.43a46,46,0,0,0-4.26-14.22l5.57-9a.87.87,0,0,0-.06-1l-8-9.83a.87.87,0,0,0-1-.27l-9.94,3.65a46.58,46.58,0,0,0-13.15-7.08l-2.42-10.31a.9.9,0,0,0-.76-.67l-12.63-1.33a.9.9,0,0,0-.88.5l-4.44,9.6a46.19,46.19,0,0,0-14.3,4.3l-9-5.57a.88.88,0,0,0-1,.07l-9.83,8a.87.87,0,0,0-.27,1l3.65,9.93a46.08,46.08,0,0,0-7.08,13.15l-10.29,2.43a.86.86,0,0,0-.67.76L1001,661a.85.85,0,0,0,.5.87l9.6,4.44a46.25,46.25,0,0,0,4.3,14.31l-5.57,9a.86.86,0,0,0,.07,1Z" style="fill:#5ecff5"/><path d="M1057.06,673.16A12.93,12.93,0,1,1,1059,673,10.86,10.86,0,0,1,1057.06,673.16Zm0-22.55a11.16,11.16,0,0,0-1.41.11,9.62,9.62,0,0,0,2.81,19h0a9.63,9.63,0,0,0-1.4-19.15Z" style="fill:#fff"/><path d="M1057.3,692.37c-1.09,0-2.18-.06-3.28-.17h0a32.24,32.24,0,0,1-6.73-1.41,1.64,1.64,0,0,1-1.14-1.57,1.81,1.81,0,0,1,.08-.51,1.66,1.66,0,0,1,2.08-1.06,28.62,28.62,0,0,0,6,1.27h0a29,29,0,0,0,31.68-25.2,2.19,2.19,0,0,1,.08-.72q.15-1.5.15-3A29,29,0,1,0,1031,672.36a1.71,1.71,0,0,1,.16.7,1.65,1.65,0,0,1-3.14.7A32.21,32.21,0,1,1,1089.57,660c0,1.1-.06,2.2-.17,3.31A32.33,32.33,0,0,1,1057.3,692.37Z" style="fill:#fff"/><g style="opacity:0.6399999856948853"><path d="M4.19,417.74a1.48,1.48,0,0,1-1.45-1.08c-.37-1.24-.7-2.5-1-3.75a1.51,1.51,0,1,1,3-.68c.28,1.19.59,2.39.94,3.57a1.51,1.51,0,0,1-1,1.88A1.61,1.61,0,0,1,4.19,417.74Z" style="fill:#2d6375"/><path d="M2,406.76a1.51,1.51,0,0,1-1.5-1.34A68.7,68.7,0,0,1,0,397.83a1.5,1.5,0,0,1,1.48-1.52h0A1.51,1.51,0,0,1,3,397.81a65.19,65.19,0,0,0,.44,7.26,1.51,1.51,0,0,1-1.32,1.68H2Zm0-14.85H1.77a1.5,1.5,0,0,1-1.34-1.64v0a70.75,70.75,0,0,1,1.22-7.51,1.54,1.54,0,0,1,3,.66,66.93,66.93,0,0,0-1.17,7.17,1.49,1.49,0,0,1-1.58,1.34Zm3.2-14.49a1.36,1.36,0,0,1-.49-.08,1.49,1.49,0,0,1-.94-1.9h0a69.33,69.33,0,0,1,2.86-7.05,1.51,1.51,0,0,1,2.74,1.29h0a64.68,64.68,0,0,0-2.74,6.74,1.5,1.5,0,0,1-1.48,1ZM11.46,364a1.36,1.36,0,0,1-.8-.23,1.49,1.49,0,0,1-.49-2.06h0a72.44,72.44,0,0,1,4.36-6.23,1.53,1.53,0,0,1,2.14-.13,1.51,1.51,0,0,1,.25,2,68.35,68.35,0,0,0-4.18,6,1.46,1.46,0,0,1-1.28.71Zm9.18-11.67a1.45,1.45,0,0,1-1.06-.43,1.51,1.51,0,0,1,0-2.14h0a71.81,71.81,0,0,1,5.64-5.11,1.51,1.51,0,1,1,1.9,2.35h0a67.26,67.26,0,0,0-5.38,4.88,1.48,1.48,0,0,1-1.1.45ZM32.17,343a1.52,1.52,0,0,1-1.51-1.53h0a1.55,1.55,0,0,1,.69-1.26A70.66,70.66,0,0,1,38,336.47a1.51,1.51,0,1,1,1.34,2.71h0A66.61,66.61,0,0,0,33,342.76a1.48,1.48,0,0,1-.82.24Zm64-4.26a1.42,1.42,0,0,1-.64-.14,65.48,65.48,0,0,0-6.75-2.7,1.52,1.52,0,1,1,.94-2.89l.06,0a69.22,69.22,0,0,1,7.06,2.82,1.53,1.53,0,0,1,.71,2,1.5,1.5,0,0,1-1.35.86Zm-50.7-2.31a1.52,1.52,0,0,1-1.5-1.54h0a1.54,1.54,0,0,1,1-1.4,70.94,70.94,0,0,1,7.29-2.17,1.51,1.51,0,0,1,.7,2.94,67.78,67.78,0,0,0-7,2.08,1.44,1.44,0,0,1-.46.08ZM82.11,334a.86.86,0,0,1-.32,0,72.42,72.42,0,0,0-7.18-1.13,1.51,1.51,0,1,1-.19-3,1.15,1.15,0,0,1,.32,0h.17a70.63,70.63,0,0,1,7.51,1.18,1.52,1.52,0,0,1,1.13,1.83h0a1.49,1.49,0,0,1-1.44,1.17Zm-22.19-1a1.5,1.5,0,0,1-1.46-1.54h0A1.53,1.53,0,0,1,59.73,330a71.29,71.29,0,0,1,7.59-.5h0a1.52,1.52,0,0,1,0,3,67.69,67.69,0,0,0-7.25.47Z" style="fill:#2d6375"/><path d="M106,344.36a1.52,1.52,0,0,1-.87-.27c-1-.7-2-1.38-3.09-2a1.52,1.52,0,1,1,1.27-2.76l.12.06.2.12c1.09.67,2.18,1.38,3.23,2.11a1.51,1.51,0,0,1,.39,2.1h0A1.48,1.48,0,0,1,106,344.36Z" style="fill:#2d6375"/></g><g style="opacity:0.6399999856948853"><path d="M133.86,389.47a1.5,1.5,0,0,1-1.49-1.3c-.18-1.22-.39-2.45-.64-3.64a1.53,1.53,0,0,1,3-.61c.26,1.26.48,2.54.66,3.82a1.5,1.5,0,0,1-1.26,1.71h0Z" style="fill:#2d6375"/><path d="M68.06,465.52c-1,0-2.08,0-3.14-.07a1.5,1.5,0,0,1-1.44-1.56h0a1.54,1.54,0,0,1,1.58-1.44,63.17,63.17,0,0,0,7.15-.07,1.53,1.53,0,0,1,.64,3h0a1.69,1.69,0,0,1-.45,0C71,465.48,69.54,465.52,68.06,465.52Zm-10.32-.79H57.5a67.86,67.86,0,0,1-7.31-1.55,1.52,1.52,0,0,1-.95-1.91v0a1.53,1.53,0,0,1,1.72-1,61.78,61.78,0,0,0,7,1.49,1.51,1.51,0,0,1,1.24,1.74h0a1.49,1.49,0,0,1-1.47,1.26Zm21.84-.21a1.51,1.51,0,0,1-.26-3,62.31,62.31,0,0,0,7-1.63,1.52,1.52,0,1,1,1.07,2.85.79.79,0,0,1-.22.06,64.61,64.61,0,0,1-7.28,1.7.92.92,0,0,1-.33,0Zm-35.94-3.61a1.35,1.35,0,0,1-.56-.1,64.35,64.35,0,0,1-6.8-3.13A1.51,1.51,0,0,1,37.7,455h0a63.58,63.58,0,0,0,6.49,3,1.51,1.51,0,0,1-.55,2.92Zm50-.49a1.51,1.51,0,0,1-.58-2.91,65.63,65.63,0,0,0,6.43-3.11,1.51,1.51,0,1,1,1.46,2.65h0a65.08,65.08,0,0,1-6.73,3.25,1.41,1.41,0,0,1-.64.12Zm12.78-7.07a1.47,1.47,0,0,1-1.24-.64,1.52,1.52,0,0,1,.36-2.11,61.29,61.29,0,0,0,5.6-4.44,1.52,1.52,0,0,1,2,2.27,63.82,63.82,0,0,1-5.86,4.64,1.45,1.45,0,0,1-.92.28Zm10.93-9.68a1.48,1.48,0,0,1-1-.39,1.52,1.52,0,0,1-.1-2.14,66.49,66.49,0,0,0,4.5-5.55,1.52,1.52,0,0,1,2.11-.34,1.51,1.51,0,0,1,.34,2.11h0a64.23,64.23,0,0,1-4.71,5.81,1.47,1.47,0,0,1-1.2.5Zm8.57-11.83a1.32,1.32,0,0,1-.75-.2,1.5,1.5,0,0,1-.57-2h0a63.5,63.5,0,0,0,3.18-6.4,1.52,1.52,0,0,1,2.79,1.2,69.67,69.67,0,0,1-3.34,6.7,1.52,1.52,0,0,1-1.37.76Zm5.77-13.42a1.1,1.1,0,0,1-.44-.07,1.49,1.49,0,0,1-1-1.85h0a66.24,66.24,0,0,0,1.7-6.94,1.53,1.53,0,0,1,3,.55,64.76,64.76,0,0,1-1.78,7.27,1.49,1.49,0,0,1-1.54,1.07Zm2.69-14.35h-.12a1.49,1.49,0,0,1-1.39-1.58V402c.1-1.52.16-3,.16-4.56V395.3a1.52,1.52,0,0,1,1.47-1.56,1.54,1.54,0,0,1,1.56,1.42v2.24a47.21,47.21,0,0,1-.16,4.76v.48a1.49,1.49,0,0,1-1.58,1.39Z" style="fill:#2d6375"/><path d="M30.67,454.05a1.38,1.38,0,0,1-.85-.26c-1.07-.73-2.13-1.49-3.14-2.26a1.5,1.5,0,0,1-.21-2.12h0a1.53,1.53,0,0,1,2.06-.28c1,.74,2,1.47,3,2.17a1.51,1.51,0,0,1,.4,2.1h0a1.47,1.47,0,0,1-1.25.66Z" style="fill:#2d6375"/></g><path d="M32.11,433.84a.76.76,0,0,0,.89.24l9.12-3.35a42.26,42.26,0,0,0,12.08,6.5l2.22,9.45a.8.8,0,0,0,.7.61l11.59,1.18a.82.82,0,0,0,.81-.46l4.07-8.81a42.25,42.25,0,0,0,13.13-4L95,440.31a.78.78,0,0,0,.93-.06l9-7.37a.79.79,0,0,0,.24-.89l-3.35-9.12a42.32,42.32,0,0,0,6.5-12.07l9.45-2.23a.78.78,0,0,0,.61-.69l1.18-11.6a.79.79,0,0,0-.46-.8l-8.82-4.08a42.23,42.23,0,0,0-3.94-13.13l5.11-8.26a.8.8,0,0,0-.06-.93l-7.37-9a.78.78,0,0,0-.89-.25L94,363.16a43,43,0,0,0-12.07-6.5l-2.15-9.42a.81.81,0,0,0-.69-.61l-11.6-1.18a.79.79,0,0,0-.8.46l-4.08,8.82a42.25,42.25,0,0,0-13.13,4l-8.26-5.12a.83.83,0,0,0-.93.06l-9,7.37a.79.79,0,0,0-.24.89l3.35,9.12a42.35,42.35,0,0,0-6.62,12.08l-9.45,2.22a.81.81,0,0,0-.61.7l-1.18,11.59a.82.82,0,0,0,.46.81l8.82,4.07a42.25,42.25,0,0,0,4,13.13l-5.11,8.26a.8.8,0,0,0,.06.93Z" style="fill:#071841"/><path d="M68.06,408.84a11.89,11.89,0,1,1,1.74-.13A11.32,11.32,0,0,1,68.06,408.84Zm0-20.7a6.27,6.27,0,0,0-1.3.09,8.83,8.83,0,1,0,2.58,17.48h0a8.83,8.83,0,0,0-1.28-17.55Z" style="fill:#bdd0fb"/><path d="M68.27,426.44a25.13,25.13,0,0,1-3-.16h0A28.22,28.22,0,0,1,59.1,425a1.5,1.5,0,0,1-1.05-1.44,1.49,1.49,0,0,1,.07-.47,1.54,1.54,0,0,1,1.91-1,25.61,25.61,0,0,0,5.55,1.16h0a26.6,26.6,0,0,0,29.08-23.08,2.09,2.09,0,0,1,.07-.66c.09-.91.14-1.83.14-2.73a26.61,26.61,0,0,0-53.1-2.6c-.09.9-.14,1.8-.14,2.7a26.45,26.45,0,0,0,2.51,11.27,1.43,1.43,0,0,1,.15.64,1.52,1.52,0,0,1-2.89.65,29.49,29.49,0,0,1-2.8-12.56,21.46,21.46,0,0,1,.15-3,29.64,29.64,0,0,1,59.13,2.93,28.19,28.19,0,0,1-.16,3.05A29.67,29.67,0,0,1,68.27,426.44Z" style="fill:#bdd0fb"/><path d="M1299.75,430.78" style="fill:#061e43"/></g></svg>