<svg xmlns="http://www.w3.org/2000/svg" xmlns:xlink="http://www.w3.org/1999/xlink" viewBox="0 0 2551.4 1852.67"><defs><style>.b980e5ca-67f4-446a-9a91-b84d7db441ce{isolation:isolate;}.b91552a9-f211-4452-bd86-ff574549eda3,.ea4a834d-04cf-440a-9065-47e4b6e943aa,.f96e5bed-8299-486b-9a73-d3e953337730{fill:#13a8c5;}.b58c0fba-1358-482a-a3b6-47b7263f5947,.b91552a9-f211-4452-bd86-ff574549eda3,.bdb2f992-3b2a-4850-91d6-63e66801dbad,.e8f5beed-3605-4031-8e5f-949fa66faefa,.edbfcd9e-abd1-4f1d-80ff-b2611f9e2c9a,.f96e5bed-8299-486b-9a73-d3e953337730{opacity:0.2;}.b6fd2218-5802-49bd-8090-fd420d8f6052{fill:#ebebeb;}.a08bd858-46da-40d5-8819-a1734883cab3,.a399158a-1d4e-4f45-a8e6-47a4d790e5e0,.a971449a-fccb-46a1-9fb0-3e7b21764722,.ae6db547-8254-4ef6-b917-2e099aa08b16,.b58c0fba-1358-482a-a3b6-47b7263f5947,.bcdb1254-662b-4c92-8072-bf42d058a188,.bd7d8f21-e2d1-400b-b2e1-9d4e2feaf849,.bdb2f992-3b2a-4850-91d6-63e66801dbad,.e8f5beed-3605-4031-8e5f-949fa66faefa,.e9fc4818-dd1a-48ae-9566-8a558c1c0e85,.ea4a834d-04cf-440a-9065-47e4b6e943aa,.edbfcd9e-abd1-4f1d-80ff-b2611f9e2c9a,.f7243ffb-0790-434c-8e86-56e5f71aa677,.f96e5bed-8299-486b-9a73-d3e953337730{mix-blend-mode:multiply;}.edbfcd9e-abd1-4f1d-80ff-b2611f9e2c9a,.fe894741-b374-4490-b769-9c56724725af{fill:#a8e3f7;}.a89792e6-cb44-487b-84b0-3f46107364c3{fill:#070b3b;}.f08bd015-996c-472c-aa6f-995c112eef0e{fill:#d1d1d0;opacity:0.05;}.e809e411-8fbc-4794-9c12-00dcd12e1ee2,.f7243ffb-0790-434c-8e86-56e5f71aa677{fill:#519399;}.f7243ffb-0790-434c-8e86-56e5f71aa677{opacity:0.48;}.a10fd469-568f-4634-b2e8-e09284386dec{fill:#fff;}.a0b604ba-19d8-4e2f-9965-aac55fc64561,.bcdb1254-662b-4c92-8072-bf42d058a188{fill:#41b3a7;}.bcdb1254-662b-4c92-8072-bf42d058a188{opacity:0.4;}.bd0e3123-ae55-4952-b6f4-5dbcf17ea148,.e9fc4818-dd1a-48ae-9566-8a558c1c0e85{fill:#a1dbcc;}.e9fc4818-dd1a-48ae-9566-8a558c1c0e85{opacity:0.77;}.a971449a-fccb-46a1-9fb0-3e7b21764722,.aee25a7d-8413-42b4-a784-468c98f73c26{fill:#66c2ab;}.ea4a834d-04cf-440a-9065-47e4b6e943aa,.f2e16148-3a64-4934-ab00-7e500c3037f2{opacity:0.5;}.f9930285-8d27-42af-b0de-85bd836ba3a8{fill:#2d6375;}.bdb2f992-3b2a-4850-91d6-63e66801dbad,.f637a135-36b2-4726-a4f7-4df21e3380e0{fill:#4aa4c2;}.ae6db547-8254-4ef6-b917-2e099aa08b16,.ed94b35a-87c1-43cd-a603-fa5ebe8e9078{fill:#b5e3df;}.ae6db547-8254-4ef6-b917-2e099aa08b16{opacity:0.54;}.fa515920-4560-485f-83cd-34fcc33a468d{fill:#ffd131;}.ba363696-0b21-4a3c-b1a8-86f0596240f2,.bd7d8f21-e2d1-400b-b2e1-9d4e2feaf849{fill:#2d7770;}.a08bd858-46da-40d5-8819-a1734883cab3{fill:#506c75;}.a08bd858-46da-40d5-8819-a1734883cab3,.ed087c18-2b66-4261-920e-726616912f04{opacity:0.3;}.e01e8cb8-0e56-4361-9e9c-ecd8aca9688b{fill:#d6a41a;}.bd27bb64-2af3-45bd-8a2a-a064f2a39abf{fill:#008e99;}.a267a2e2-77a6-4444-b6e9-095331caa84f{fill:#f9eac2;}.bb71fbda-bb4b-4018-9f2e-e4a90d245d12,.ed087c18-2b66-4261-920e-726616912f04{fill:#4a878c;}.f6d20b4d-8255-46d8-8c09-b79028a4ba0b{fill:#62a1a7;}.b9665a4e-30e7-461b-87e9-5892af947774{fill:#73d0d9;}.f238faa8-17f1-4955-b513-c73e27d145c1{fill:#061e43;}.ec535b3a-07d5-4d10-bd44-e1bb241f7227{fill:#5ecff5;}.a3688bc6-dba9-4e8a-9c4e-d5c268a9ca17{fill:#88f5ff;}.b72752ab-4bfa-4856-8561-82c38cbedc8d{fill:#d8f0dd;}.b36a6dd6-e8f3-4bd9-9860-47914a4bae99{fill:url(#e9b3991e-80ed-4478-b8e5-66bbc4e06bcd);}.b2ebd391-b6c4-4cf9-bd4d-1d9d2ad7a7ec{fill:#f0b14b;}.a9564099-f8bf-4e36-aa4c-6bbc0d786296{fill:url(#afec9fff-30a4-49ff-9086-18ecf74b2f3a);}.aacfb3e1-75f8-4d09-9e6e-f8e9a129f2f9{fill:url(#b9229777-fd07-4685-842e-99ad0c7e67bc);}.a27997c6-d0af-4bdf-b719-130a906bbb9c,.e8f5beed-3605-4031-8e5f-949fa66faefa{fill:#144d4c;}.ff61d8ce-b91d-4bd5-bd31-95498caca393{fill:#2fa7be;}.bd491c7b-41b2-4b61-b226-031112613c4f{fill:#178ab1;}.e7f9fa3d-9c0a-43ee-bfc2-27c319c2df17{fill:#fca372;}.aa37784f-b86b-4d5b-aae2-6d34bab803fd{fill:#185a78;}.b8bec790-71ae-469a-8d5d-e48717b911ee{fill:#af6641;}.f4466e56-5aa2-4f07-996f-1474978af83d{fill:url(#fe3d1502-7710-489e-a439-85aff5cba171);}.a795db05-c9d3-4410-b041-1244e0368219{fill:url(#e3b3481a-3a53-4226-aa3f-fc193b2d6990);}.b9b0a0f2-1553-4248-a94d-782a27ecbf45{fill:#3bbdcc;}.b11fa3d9-97f7-4126-b025-f4243e930947{fill:#f99767;}.adb82b4c-120e-4148-86ea-1245137e2567{fill:#f19c6f;}</style><linearGradient id="e9b3991e-80ed-4478-b8e5-66bbc4e06bcd" x1="1063.52" y1="950.63" x2="1160.56" y2="950.63" gradientUnits="userSpaceOnUse"><stop offset="0" stop-color="#f9eac2"/><stop offset="1" stop-color="#ffd131"/></linearGradient><linearGradient id="afec9fff-30a4-49ff-9086-18ecf74b2f3a" x1="12465.8" y1="1009.17" x2="12475.56" y2="1009.17" gradientTransform="matrix(-1, 0, 0, 1, 13658.85, 0)" gradientUnits="userSpaceOnUse"><stop offset="0.02" stop-color="#2d6375"/><stop offset="1" stop-color="#41b3a7"/></linearGradient><linearGradient id="b9229777-fd07-4685-842e-99ad0c7e67bc" x1="12393.26" y1="1061.53" x2="12403.03" y2="1061.53" gradientTransform="matrix(-1, 0, 0, 1, 13658.85, 0)" gradientUnits="userSpaceOnUse"><stop offset="0" stop-color="#5ecff5"/><stop offset="1" stop-color="#cce8f7"/></linearGradient><linearGradient id="fe3d1502-7710-489e-a439-85aff5cba171" x1="-7730.57" y1="962.86" x2="-7875.99" y2="1287.69" gradientTransform="translate(8512.67)" gradientUnits="userSpaceOnUse"><stop offset="0" stop-color="#40becc"/><stop offset="1" stop-color="#1b7082"/></linearGradient><linearGradient id="e3b3481a-3a53-4226-aa3f-fc193b2d6990" x1="-7735.08" y1="1014.75" x2="-7732.69" y2="1042.71" gradientTransform="translate(8512.67)" gradientUnits="userSpaceOnUse"><stop offset="0" stop-color="#1d90ac"/><stop offset="1" stop-color="#0b9c9c"/></linearGradient></defs><g class="b980e5ca-67f4-446a-9a91-b84d7db441ce"><g id="a72ef700-0d09-407f-9074-a297ae3be02b" data-name="Layer 1"><path class="b91552a9-f211-4452-bd86-ff574549eda3" d="M2051.34,728.93c31.12-18,71.92-27,112.71-27h148.41c40.79,0,81.59,9,112.71,27s46.69,41.52,46.69,65.07-15.57,47.11-46.69,65.08-71.92,27-112.71,27H2164.05c-40.79,0-81.59-9-112.71-27s-46.69-41.52-46.69-65.07S2020.21,746.9,2051.34,728.93Z"/><path class="b6fd2218-5802-49bd-8090-fd420d8f6052" d="M2055.41,648.82c30.24-17.46,69.87-26.19,109.51-26.19s79.26,8.73,109.49,26.19,45.36,40.34,45.36,63.22v73c0,22.88-15.12,45.76-45.36,63.22s-69.87,26.19-109.5,26.18-79.26-8.72-109.5-26.18-45.35-40.34-45.35-63.22V712C2010.06,689.16,2025.17,666.28,2055.41,648.82Z"/><path class="f96e5bed-8299-486b-9a73-d3e953337730" d="M2055.41,775.26c30.24,17.46,69.87,26.19,109.5,26.19s79.26-8.73,109.5-26.19,45.36-40.34,45.36-63.22v73c0,22.88-15.12,45.76-45.36,63.22s-69.87,26.19-109.5,26.18-79.26-8.72-109.5-26.18-45.35-40.34-45.35-63.22V712C2010.06,734.92,2025.18,757.8,2055.41,775.26Z"/><path class="edbfcd9e-abd1-4f1d-80ff-b2611f9e2c9a" d="M2055.41,775.26c30.24,17.46,69.87,26.19,109.5,26.19s79.26-8.73,109.5-26.19,45.36-40.34,45.36-63.22v73c0,22.88-15.12,45.76-45.36,63.22s-69.87,26.19-109.5,26.18-79.26-8.72-109.5-26.18-45.35-40.34-45.35-63.22V712C2010.06,734.92,2025.18,757.8,2055.41,775.26Z"/><path class="b6fd2218-5802-49bd-8090-fd420d8f6052" d="M2055.41,568.36c30.24-17.46,69.87-26.19,109.51-26.19s79.26,8.73,109.49,26.19,45.36,40.34,45.36,63.22v73c0,22.88-15.12,45.76-45.36,63.22S2204.54,794,2164.91,794s-79.26-8.73-109.5-26.18-45.35-40.34-45.35-63.22v-73C2010.06,608.7,2025.17,585.82,2055.41,568.36Z"/><path class="f96e5bed-8299-486b-9a73-d3e953337730" d="M2055.41,694.8c30.24,17.46,69.87,26.19,109.5,26.19s79.26-8.73,109.5-26.19,45.36-40.34,45.36-63.22v73c0,22.88-15.12,45.76-45.36,63.22S2204.54,794,2164.91,794s-79.26-8.73-109.5-26.18-45.35-40.34-45.35-63.22v-73C2010.06,654.46,2025.18,677.34,2055.41,694.8Z"/><path class="a89792e6-cb44-487b-84b0-3f46107364c3" d="M2055.41,694.8c30.24,17.46,69.87,26.19,109.5,26.19s79.26-8.73,109.5-26.19,45.36-40.34,45.36-63.22v73c0,22.88-15.12,45.76-45.36,63.22S2204.54,794,2164.91,794s-79.26-8.73-109.5-26.18-45.35-40.34-45.35-63.22v-73C2010.06,654.46,2025.18,677.34,2055.41,694.8Z"/><path class="b6fd2218-5802-49bd-8090-fd420d8f6052" d="M2055.41,487.9c30.24-17.46,69.87-26.19,109.51-26.19s79.26,8.73,109.49,26.19,45.36,40.34,45.36,63.22v73c0,22.89-15.12,45.77-45.36,63.23s-69.87,26.19-109.5,26.18-79.26-8.72-109.5-26.18-45.35-40.34-45.35-63.22v-73C2010.06,528.24,2025.17,505.36,2055.41,487.9Z"/><path class="f08bd015-996c-472c-aa6f-995c112eef0e" d="M2164.92,464c38.37,0,76.74,8.45,106,25.35s43.91,39.06,43.91,61.21-14.64,44.32-43.92,61.22-67.65,25.36-106,25.36-76.74-8.46-106-25.36S2015,572.74,2015,550.59s14.63-44.31,43.91-61.22S2126.54,464,2164.92,464Z"/><path class="f96e5bed-8299-486b-9a73-d3e953337730" d="M2055.41,614.34c30.24,17.46,69.87,26.19,109.5,26.19s79.26-8.73,109.5-26.19,45.36-40.34,45.36-63.22v73c0,22.89-15.12,45.77-45.36,63.23s-69.87,26.19-109.5,26.18-79.26-8.72-109.5-26.18-45.35-40.34-45.35-63.22v-73C2010.06,574,2025.18,596.88,2055.41,614.34Z"/><path class="edbfcd9e-abd1-4f1d-80ff-b2611f9e2c9a" d="M2055.41,614.34c30.24,17.46,69.87,26.19,109.5,26.19s79.26-8.73,109.5-26.19,45.36-40.34,45.36-63.22v73c0,22.89-15.12,45.77-45.36,63.23s-69.87,26.19-109.5,26.18-79.26-8.72-109.5-26.18-45.35-40.34-45.35-63.22v-73C2010.06,574,2025.18,596.88,2055.41,614.34Z"/><polygon class="f7243ffb-0790-434c-8e86-56e5f71aa677" points="1049.59 453.29 2502.15 1291.95 1594.48 1816 141.91 977.34 1049.59 453.29"/><polygon class="a10fd469-568f-4634-b2e8-e09284386dec" points="1049.59 304.04 2502.15 1142.71 2502.15 1185.1 1594.48 1709.16 141.91 870.5 141.91 828.1 1049.59 304.04"/><polygon class="bcdb1254-662b-4c92-8072-bf42d058a188" points="1594.48 1593 205.79 791.22 1049.59 304.04 2438.27 1105.82 1594.48 1593"/><polygon class="e9fc4818-dd1a-48ae-9566-8a558c1c0e85" points="141.91 870.5 1594.48 1709.16 1594.48 1666.76 141.91 828.1 141.91 870.5"/><polygon class="a971449a-fccb-46a1-9fb0-3e7b21764722" points="2502.15 1185.1 1594.48 1709.16 1594.48 1666.76 2502.15 1142.71 2502.15 1185.1"/><polygon class="a10fd469-568f-4634-b2e8-e09284386dec" points="1049.59 136.12 2502.15 974.78 2502.15 1017.18 1594.48 1541.24 141.91 702.57 141.91 660.18 1049.59 136.12"/><polygon class="f96e5bed-8299-486b-9a73-d3e953337730" points="141.91 702.57 1594.48 1541.24 1594.48 1498.84 141.91 660.18 141.91 702.57"/><polygon class="a89792e6-cb44-487b-84b0-3f46107364c3" points="1356.35 1361.36 1594.48 1498.84 2502.15 974.78 2264.03 837.3 1356.35 1361.36"/><polygon class="ea4a834d-04cf-440a-9065-47e4b6e943aa" points="2212.59 985.52 2307.84 1040.52 2403.09 985.52 2307.84 930.53 2212.59 985.52"/><polygon class="ea4a834d-04cf-440a-9065-47e4b6e943aa" points="2117.56 984.63 2261.1 1067.5 2273.81 1060.17 2130.27 977.29 2117.56 984.63"/><polygon class="ea4a834d-04cf-440a-9065-47e4b6e943aa" points="2126.82 1023.69 2231.9 1084.36 2244.61 1077.03 2139.53 1016.36 2126.82 1023.69"/><polygon class="ea4a834d-04cf-440a-9065-47e4b6e943aa" points="2045.04 1010.19 2202.7 1101.22 2215.41 1093.88 2057.74 1002.85 2045.04 1010.19"/><polygon class="ea4a834d-04cf-440a-9065-47e4b6e943aa" points="2047.59 1045.38 2173.5 1118.08 2186.21 1110.74 2060.29 1038.04 2047.59 1045.38"/><polygon class="f9930285-8d27-42af-b0de-85bd836ba3a8" points="2502.15 1017.18 1594.48 1541.24 1594.48 1498.84 2502.15 974.78 2502.15 1017.18"/><polygon class="f637a135-36b2-4726-a4f7-4df21e3380e0" points="1356.35 1361.36 1594.48 1498.84 1594.48 1541.24 1356.35 1403.75 1356.35 1361.36"/><path class="ae6db547-8254-4ef6-b917-2e099aa08b16" d="M79.51,1321.47c31.12-18,71.92-27,112.71-27H340.63c40.79,0,81.59,9,112.71,27S500,1363,500,1386.55s-15.57,47.1-46.69,65.07-71.92,27-112.71,27H192.22c-40.79,0-81.59-9-112.71-27s-46.69-41.52-46.69-65.07S48.38,1339.44,79.51,1321.47Z"/><path class="b6fd2218-5802-49bd-8090-fd420d8f6052" d="M83.58,1241.36c30.24-17.46,69.87-26.19,109.5-26.19s79.27,8.73,109.5,26.19,45.36,40.34,45.36,63.22v73c0,22.88-15.12,45.76-45.36,63.22S232.71,1467,193.08,1467s-79.26-8.73-109.5-26.19-45.35-40.34-45.35-63.22v-73C38.23,1281.7,53.34,1258.82,83.58,1241.36Z"/><path class="f96e5bed-8299-486b-9a73-d3e953337730" d="M83.58,1367.8c30.24,17.46,69.87,26.19,109.5,26.19s79.26-8.73,109.5-26.19,45.36-40.34,45.36-63.22v73c0,22.88-15.12,45.76-45.36,63.22S232.71,1467,193.08,1467s-79.26-8.73-109.5-26.19-45.35-40.34-45.35-63.22v-73C38.23,1327.46,53.35,1350.35,83.58,1367.8Z"/><path class="edbfcd9e-abd1-4f1d-80ff-b2611f9e2c9a" d="M83.58,1367.8c30.24,17.46,69.87,26.19,109.5,26.19s79.26-8.73,109.5-26.19,45.36-40.34,45.36-63.22v73c0,22.88-15.12,45.76-45.36,63.22S232.71,1467,193.08,1467s-79.26-8.73-109.5-26.19-45.35-40.34-45.35-63.22v-73C38.23,1327.46,53.35,1350.35,83.58,1367.8Z"/><path class="b6fd2218-5802-49bd-8090-fd420d8f6052" d="M83.58,1160.9c30.24-17.46,69.87-26.19,109.5-26.19s79.27,8.73,109.5,26.19,45.36,40.34,45.36,63.22v73c0,22.88-15.12,45.76-45.36,63.22s-69.87,26.19-109.5,26.19-79.26-8.73-109.5-26.19S38.23,1320,38.23,1297.14v-73C38.23,1201.24,53.34,1178.36,83.58,1160.9Z"/><path class="f96e5bed-8299-486b-9a73-d3e953337730" d="M83.58,1287.34c30.24,17.46,69.87,26.19,109.5,26.19s79.26-8.73,109.5-26.19,45.36-40.34,45.36-63.22v73c0,22.88-15.12,45.76-45.36,63.22s-69.87,26.19-109.5,26.19-79.26-8.73-109.5-26.19S38.23,1320,38.23,1297.14v-73C38.23,1247,53.35,1269.88,83.58,1287.34Z"/><path class="fa515920-4560-485f-83cd-34fcc33a468d" d="M83.58,1287.34c30.24,17.46,69.87,26.19,109.5,26.19s79.26-8.73,109.5-26.19,45.36-40.34,45.36-63.22v73c0,22.88-15.12,45.76-45.36,63.22s-69.87,26.19-109.5,26.19-79.26-8.73-109.5-26.19S38.23,1320,38.23,1297.14v-73C38.23,1247,53.35,1269.88,83.58,1287.34Z"/><path class="b6fd2218-5802-49bd-8090-fd420d8f6052" d="M83.58,1080.44c30.24-17.46,69.87-26.19,109.5-26.19s79.27,8.73,109.5,26.19,45.36,40.34,45.36,63.22v73c0,22.89-15.12,45.77-45.36,63.23s-69.87,26.19-109.5,26.18-79.26-8.72-109.5-26.18-45.35-40.34-45.35-63.22v-73C38.23,1120.78,53.34,1097.9,83.58,1080.44Z"/><path class="f08bd015-996c-472c-aa6f-995c112eef0e" d="M194.41,1054.74c38.38,0,76.75,8.46,106,25.36s43.92,39.06,43.92,61.21-14.64,44.31-43.92,61.22-67.65,25.36-106,25.36-76.74-8.46-106-25.36-43.92-39.06-43.92-61.21S59.11,1097,88.39,1080.1,156,1054.74,194.41,1054.74Z"/><path class="f96e5bed-8299-486b-9a73-d3e953337730" d="M83.58,1206.88c30.24,17.46,69.87,26.19,109.5,26.19s79.26-8.73,109.5-26.19,45.36-40.34,45.36-63.22v73c0,22.89-15.12,45.77-45.36,63.23s-69.87,26.19-109.5,26.18-79.26-8.72-109.5-26.18-45.35-40.34-45.35-63.22v-73C38.23,1166.54,53.35,1189.43,83.58,1206.88Z"/><path class="edbfcd9e-abd1-4f1d-80ff-b2611f9e2c9a" d="M83.58,1206.88c30.24,17.46,69.87,26.19,109.5,26.19s79.26-8.73,109.5-26.19,45.36-40.34,45.36-63.22v73c0,22.89-15.12,45.77-45.36,63.23s-69.87,26.19-109.5,26.18-79.26-8.72-109.5-26.18-45.35-40.34-45.35-63.22v-73C38.23,1166.54,53.35,1189.43,83.58,1206.88Z"/><path class="ae6db547-8254-4ef6-b917-2e099aa08b16" d="M548.87,1608.31c31.12-18,71.92-27,112.71-27H810c40.79,0,81.59,9,112.71,27s46.68,41.52,46.69,65.07-15.57,47.11-46.69,65.08-71.92,27-112.71,27H661.58c-40.79,0-81.59-9-112.71-27s-46.69-41.52-46.69-65.07S517.74,1626.28,548.87,1608.31Z"/><path class="b6fd2218-5802-49bd-8090-fd420d8f6052" d="M552.94,1528.2c30.24-17.46,69.87-26.19,109.5-26.19s79.27,8.73,109.5,26.19,45.36,40.34,45.36,63.22v73c0,22.89-15.12,45.77-45.36,63.23s-69.87,26.18-109.5,26.18-79.26-8.72-109.5-26.18-45.35-40.34-45.35-63.22v-73C507.59,1568.54,522.7,1545.66,552.94,1528.2Z"/><path class="f96e5bed-8299-486b-9a73-d3e953337730" d="M552.94,1654.64c30.24,17.46,69.87,26.19,109.5,26.19s79.26-8.73,109.5-26.19,45.36-40.34,45.36-63.22v73c0,22.89-15.12,45.77-45.36,63.23s-69.87,26.18-109.5,26.18-79.26-8.72-109.5-26.18-45.35-40.34-45.35-63.22v-73C507.59,1614.3,522.71,1637.18,552.94,1654.64Z"/><path class="edbfcd9e-abd1-4f1d-80ff-b2611f9e2c9a" d="M552.94,1654.64c30.24,17.46,69.87,26.19,109.5,26.19s79.26-8.73,109.5-26.19,45.36-40.34,45.36-63.22v73c0,22.89-15.12,45.77-45.36,63.23s-69.87,26.18-109.5,26.18-79.26-8.72-109.5-26.18-45.35-40.34-45.35-63.22v-73C507.59,1614.3,522.71,1637.18,552.94,1654.64Z"/><path class="b6fd2218-5802-49bd-8090-fd420d8f6052" d="M552.94,1447.74c30.24-17.46,69.87-26.19,109.5-26.19s79.27,8.73,109.5,26.19,45.36,40.34,45.36,63.22v73c0,22.89-15.12,45.77-45.36,63.23s-69.87,26.18-109.5,26.18-79.26-8.73-109.5-26.18-45.35-40.34-45.35-63.22v-73C507.59,1488.08,522.7,1465.19,552.94,1447.74Z"/><path class="f96e5bed-8299-486b-9a73-d3e953337730" d="M552.94,1574.18c30.24,17.46,69.87,26.19,109.5,26.19s79.26-8.73,109.5-26.19,45.36-40.34,45.36-63.22v73c0,22.89-15.12,45.77-45.36,63.23s-69.87,26.18-109.5,26.18-79.26-8.73-109.5-26.18-45.35-40.34-45.35-63.22v-73C507.59,1533.84,522.71,1556.72,552.94,1574.18Z"/><path class="ba363696-0b21-4a3c-b1a8-86f0596240f2" d="M552.94,1574.18c30.24,17.46,69.87,26.19,109.5,26.19s79.26-8.73,109.5-26.19,45.36-40.34,45.36-63.22v73c0,22.89-15.12,45.77-45.36,63.23s-69.87,26.18-109.5,26.18-79.26-8.73-109.5-26.18-45.35-40.34-45.35-63.22v-73C507.59,1533.84,522.71,1556.72,552.94,1574.18Z"/><path class="b6fd2218-5802-49bd-8090-fd420d8f6052" d="M552.94,1367.28c30.24-17.46,69.87-26.19,109.5-26.19s79.27,8.73,109.5,26.19,45.36,40.34,45.36,63.22v73c0,22.89-15.12,45.77-45.36,63.23s-69.87,26.18-109.5,26.18-79.26-8.73-109.5-26.19-45.35-40.33-45.35-63.21v-73C507.59,1407.62,522.7,1384.74,552.94,1367.28Z"/><path class="f08bd015-996c-472c-aa6f-995c112eef0e" d="M662.44,1343.39c38.38,0,76.75,8.46,106,25.36s43.92,39.06,43.92,61.21-14.64,44.31-43.92,61.22-67.65,25.36-106,25.36-76.74-8.46-106-25.36S512.5,1452.12,512.5,1430s14.64-44.32,43.92-61.22S624.07,1343.39,662.44,1343.39Z"/><path class="f96e5bed-8299-486b-9a73-d3e953337730" d="M552.94,1493.72c30.24,17.46,69.87,26.19,109.5,26.19s79.26-8.73,109.5-26.19,45.36-40.34,45.36-63.22v73c0,22.89-15.12,45.77-45.36,63.23s-69.87,26.18-109.5,26.18-79.26-8.73-109.5-26.19-45.35-40.33-45.35-63.21v-73C507.59,1453.38,522.71,1476.26,552.94,1493.72Z"/><path class="edbfcd9e-abd1-4f1d-80ff-b2611f9e2c9a" d="M552.94,1493.72c30.24,17.46,69.87,26.19,109.5,26.19s79.26-8.73,109.5-26.19,45.36-40.34,45.36-63.22v73c0,22.89-15.12,45.77-45.36,63.23s-69.87,26.18-109.5,26.18-79.26-8.73-109.5-26.19-45.35-40.33-45.35-63.21v-73C507.59,1453.38,522.71,1476.26,552.94,1493.72Z"/><polygon class="ed94b35a-87c1-43cd-a603-fa5ebe8e9078" points="2212.59 965.18 2212.59 977.39 2307.84 1033.71 2403.09 977.39 2403.09 965.18 2307.84 910.18 2212.59 965.18"/><polygon class="a08bd858-46da-40d5-8819-a1734883cab3" points="2307.84 1020.17 2307.84 1033.71 2403.09 977.39 2403.09 965.18 2307.84 1020.17"/><polygon class="bdb2f992-3b2a-4850-91d6-63e66801dbad" points="2212.59 965.18 2307.84 1020.17 2307.84 1033.71 2212.59 977.39 2212.59 965.18"/><polygon class="ed94b35a-87c1-43cd-a603-fa5ebe8e9078" points="2060.29 1017.7 2186.21 1090.4 2186.21 1102.61 2173.5 1109.94 2047.59 1037.24 2047.59 1025.04 2060.29 1017.7"/><polygon class="ed94b35a-87c1-43cd-a603-fa5ebe8e9078" points="2057.74 982.51 2215.41 1073.54 2215.41 1085.75 2202.7 1093.08 2045.04 1002.05 2045.04 989.84 2057.74 982.51"/><polygon class="ed94b35a-87c1-43cd-a603-fa5ebe8e9078" points="2139.53 996.01 2244.61 1056.68 2244.61 1068.89 2231.9 1076.22 2126.82 1015.55 2126.82 1003.35 2139.53 996.01"/><polygon class="ed94b35a-87c1-43cd-a603-fa5ebe8e9078" points="2130.27 956.95 2273.81 1039.82 2273.81 1052.03 2261.1 1059.37 2117.56 976.49 2117.56 964.28 2130.27 956.95"/><polygon class="a08bd858-46da-40d5-8819-a1734883cab3" points="2261.1 1047.16 2261.1 1059.37 2273.81 1052.03 2273.81 1039.82 2261.1 1047.16"/><polygon class="a08bd858-46da-40d5-8819-a1734883cab3" points="2231.9 1064.02 2231.9 1076.22 2244.61 1068.89 2244.61 1056.68 2231.9 1064.02"/><polygon class="a08bd858-46da-40d5-8819-a1734883cab3" points="2202.7 1080.88 2202.7 1093.08 2215.41 1085.75 2215.41 1073.54 2202.7 1080.88"/><polygon class="a08bd858-46da-40d5-8819-a1734883cab3" points="2173.5 1097.73 2173.5 1109.94 2186.21 1102.61 2186.21 1090.4 2173.5 1097.73"/><polygon class="bdb2f992-3b2a-4850-91d6-63e66801dbad" points="2117.56 964.28 2261.1 1047.16 2261.1 1059.37 2117.56 976.49 2117.56 964.28"/><polygon class="bdb2f992-3b2a-4850-91d6-63e66801dbad" points="2126.82 1003.35 2231.9 1064.02 2231.9 1076.22 2126.82 1015.55 2126.82 1003.35"/><polygon class="bdb2f992-3b2a-4850-91d6-63e66801dbad" points="2045.04 989.84 2202.7 1080.88 2202.7 1093.08 2045.04 1002.05 2045.04 989.84"/><polygon class="bdb2f992-3b2a-4850-91d6-63e66801dbad" points="2047.59 1025.04 2173.5 1097.73 2173.5 1109.94 2047.59 1037.24 2047.59 1025.04"/><polygon class="e01e8cb8-0e56-4361-9e9c-ecd8aca9688b" points="1657.34 632.73 1657.51 690.95 1675.2 756.97 1675.03 698.75 1657.34 632.73"/><polygon class="bd27bb64-2af3-45bd-8a2a-a064f2a39abf" points="1501.76 677.13 1501.93 735.35 1583.29 782.63 1583.12 724.42 1501.76 677.13"/><path class="bd0e3123-ae55-4952-b6f4-5dbcf17ea148" d="M1501.76,677.13l81.36,47.29c24.33-13.47,53.94-21.8,84.84-25l-17.67-66C1591.7,639.12,1544.3,653.07,1501.76,677.13Z"/><path class="a0b604ba-19d8-4e2f-9965-aac55fc64561" d="M1583.12,724.42l.17,58.21c24.32-13.47,53.93-21.8,84.84-25l-.17-58.22C1637.06,702.62,1607.45,711,1583.12,724.42Z"/><polygon class="e01e8cb8-0e56-4361-9e9c-ecd8aca9688b" points="1811.2 724.42 1811.36 782.63 1893.26 735.35 1893.09 677.13 1811.2 724.42"/><path class="fa515920-4560-485f-83cd-34fcc33a468d" d="M1675,698.75l.17,58.22c48.2-3.8,98.62,4.77,136.16,25.66l-.16-58.21C1773.66,703.52,1723.23,695,1675,698.75Z"/><path class="a267a2e2-77a6-4444-b6e9-095331caa84f" d="M1657.34,632.73l17.69,66c48.2-3.8,98.63,4.77,136.17,25.67l81.89-47.29C1828.46,640.39,1747.1,625.07,1657.34,632.73Z"/><path class="f9930285-8d27-42af-b0de-85bd836ba3a8" d="M1531.86,793.89q.09,29.11.16,58.22c-.06-24,15.34-48,46.19-66.54l-.17-58.22C1547.2,745.92,1531.79,769.92,1531.86,793.89Z"/><path class="e809e411-8fbc-4794-9c12-00dcd12e1ee2" d="M1861.84,851.18q-.08-29.1-.16-58.21c-.07-23.66-15.22-47.28-45.46-65.63l.17,58.21C1846.63,803.9,1861.77,827.53,1861.84,851.18Z"/><path class="bb71fbda-bb4b-4018-9f2e-e4a90d245d12" d="M1977.41,851q-.08-29.12-.17-58.22c.12,42.3-28.39,84-82.84,115.44-20,11.53-42.84,21.25-68,28.9l.17,58.22c25.2-7.65,48.07-17.37,68-28.9C1949,935,1977.53,893.28,1977.41,851Z"/><polygon class="f6d20b4d-8255-46d8-8c09-b79028a4ba0b" points="1774.34 877.56 1774.5 935.78 1826.53 995.33 1826.36 937.11 1774.34 877.56"/><path class="b9665a4e-30e7-461b-87e9-5892af947774" d="M1816.22,727.34c61.68,37.42,60.57,96.79-3.2,133.61a191.1,191.1,0,0,1-38.69,16.61l52,59.55c25.2-7.65,48.07-17.37,68-28.9,86.39-49.87,107.5-125.64,52.52-188.52-13.51-15.46-28.21-27.41-48.8-39.64Z"/><path class="f238faa8-17f1-4955-b513-c73e27d145c1" d="M1416.58,794.19q.09,29.1.17,58.22c.12,41.3,27.21,82.56,81.33,114,86.35,50.18,212.41,62.16,322.07,30.77L1820,939c-109.67,31.38-235.73,19.4-322.07-30.78C1443.79,876.75,1416.7,835.5,1416.58,794.19Z"/><path class="ec535b3a-07d5-4d10-bd44-e1bb241f7227" d="M1496.68,680.07c-107.15,63.4-106.85,165.31,1.24,228.13,86.34,50.18,212.4,62.16,322.07,30.78l-52-59.54c-61.5,17.16-137.41,11-188.17-18.5-63.36-36.82-63.82-96.19-1.73-133.59Z"/><path class="a89792e6-cb44-487b-84b0-3f46107364c3" d="M804.54,344.17l-.92-.53,252.16-145.59.31-.17,571.52,330,.91.53L1376.36,674l-.31.17Zm251.55-144.89-250,144.36,570,329.1,250-144.36Z"/><path class="a89792e6-cb44-487b-84b0-3f46107364c3" d="M862.16,1020.86l-.91-.52L1670.61,553l.31-.18,502.89,290.35.91.53L1365.35,1311l-.3.17Zm808.76-466.59L863.69,1020.34l501.36,289.47,807.23-466.07Z"/><path class="a267a2e2-77a6-4444-b6e9-095331caa84f" d="M1032.56,252.25c.15.08.28.11.43.19,10.74-19.64,17.91-63.45,32.1-71.09-.11.06-.22.08-.33.14l3.64-2.12,5.1-3,5.83-3.38c3.05-1.78,6.43-1.87,10.24.33,28.23,16.3,25.06,41.89,45.67,53.79a17.19,17.19,0,0,0,3.34,1.5c10.62-19.92,12.84-66.53,26.14-74.17l0,0,6.55-3.81,7.28-4.23.73-.42c2.69-1.56,5.82-1.53,9.58.64,36.8,21.25,13.4,119.32,75.47,155.16,7.48,4.31,13.52,5.71,18.59,5.19,8.8-10,14.3-25.83,24.49-29.95a15.43,15.43,0,0,0-2,1l14.56-8.47c4.73-2.74,10.46-2.93,18.16,1.51,35.27,20.37,36.75,88,63.21,103.26a13.71,13.71,0,0,0,3.91,1.55c11.08-16.17,18.19-49.5,28.31-54.08-.22.1-.44.17-.66.29l14.57-8.46a5.73,5.73,0,0,1,6.12.05c22.54,13,28.75,198.24,78.27,226.82L1517.29,549,1018,260.71Z"/><path class="fa515920-4560-485f-83cd-34fcc33a468d" d="M1075,181.82c28.23,16.3,25.06,41.89,45.67,53.79,32.61,18.82,23.9-97.61,53.58-80.47,36.8,21.25,13.4,119.32,75.47,155.16,44.51,25.7,38.6-51.11,73.84-30.76s36.75,88,63.21,103.26,33.73-71.34,52.25-60.64c22.53,13,28.75,198.23,78.26,226.82L1018,260.71C1042.37,274.78,1046.81,165.54,1075,181.82Z"/><path class="bd0e3123-ae55-4952-b6f4-5dbcf17ea148" d="M992.87,275.39c16.56,9.55,29.24,9.35,39.95,5.12,7.52-5.54,14.35-11.84,21.51-15.9-.16.1-.33.17-.48.26l14.56-8.46c8.42-4.9,17.28-6.71,28.26-.38,37.12,21.43,55.45,98.6,79.75,112.63,5.53,3.2,10.69,3.9,15.56,2.87,17.7-16.58,31.55-51,45.88-57.15a14.87,14.87,0,0,0-1.7.84l14.56-8.46c3.7-2.15,7.43-2.53,11.25-.32,23.43,13.52,18.73,40.29,43.5,54.6a12.5,12.5,0,0,0,2.44,1.08c6.7-10.45,12.12-26.67,20.87-30.16a13,13,0,0,0-1.46.7l14.56-8.46c3.16-1.83,6.75-2,11,.46,46.88,27.06,59.14,192.74,139.27,239l-14.56,8.47L978.31,283.85Z"/><path class="a0b604ba-19d8-4e2f-9965-aac55fc64561" d="M1082.11,264.49c37.11,21.43,55.45,98.61,79.75,112.64,39,22.52,60.14-76.9,85.55-62.23,23.42,13.53,18.72,40.3,43.5,54.6,21.26,12.27,24.69-49.51,47.43-36.38,46.88,27.06,59.15,192.74,139.27,239L978.31,283.85C1032.05,314.87,1045,243.06,1082.11,264.49Z"/><path class="b9665a4e-30e7-461b-87e9-5892af947774" d="M944,303.21a21.62,21.62,0,0,0,8.82,3.08c8.06-11.42,13-30.84,23.71-36.15-.3.14-.59.27-.87.43l14.56-8.46c4.5-2.61,10-2.7,17.34,1.52,25,14.43,25,43.77,62.18,65.23,8.83,5.1,16.27,6.31,22.74,4.92,17.7-17.41,27.54-54.62,45.85-61.95a19.18,19.18,0,0,0-2.67,1.28q7.27-4.25,14.56-8.46c5.94-3.46,12.76-3.75,21.11,1.07,40.15,23.18,52.53,170.28,89.33,191.52,42.37,24.46,44.93-2.81,86.32,21.09s80.33,103.92,96.31,113.14l-14.55,8.47L929.47,311.67Z"/><path class="bb71fbda-bb4b-4018-9f2e-e4a90d245d12" d="M1156.8,274.18c-44.79-25.85-45.72,95.4-101.6,63.14C1018,315.86,1018,286.53,993,272.09c-35.2-20.32-29.4,59.3-63.56,39.58l499.3,288.27c-16-9.24-54.9-89.24-96.32-113.15s-44,3.38-86.32-21.09C1209.33,444.46,1197,297.37,1156.8,274.18Z"/><path class="a3688bc6-dba9-4e8a-9c4e-d5c268a9ca17" d="M900,328.74c80.12,46.26,93-2.57,139.9,24.51,22.74,13.13,25.92,37.59,47.16,49.85,24.77,14.3,20.19,1.18,43.61,14.7,25.41,14.67,46.11,66.22,85.13,88.75,24.3,14,42.88,1.13,80,22.56s49.76,56.87,103.5,87.9l-14.57,8.46L885.43,337.2Z"/><path class="ed087c18-2b66-4261-920e-726616912f04" d="M1025.33,361.71c22.74,13.13,25.92,37.59,47.16,49.85,24.77,14.3,20.19,1.18,43.61,14.71,25.41,14.66,46.11,66.21,85.13,88.74,24.29,14,42.88,1.13,80,22.56s49.75,56.88,103.49,87.9L885.43,337.2C965.55,383.46,978.42,334.63,1025.33,361.71Z"/><g class="b980e5ca-67f4-446a-9a91-b84d7db441ce"><polygon class="a267a2e2-77a6-4444-b6e9-095331caa84f" points="651.1 700.85 651.15 717.73 844.15 829.9 844.11 813.01 651.1 700.85"/><polygon class="e01e8cb8-0e56-4361-9e9c-ecd8aca9688b" points="844.11 813.01 844.15 829.9 877.8 810.47 877.75 793.59 844.11 813.01"/><polygon class="fa515920-4560-485f-83cd-34fcc33a468d" points="651.1 700.85 844.11 813.01 877.75 793.59 684.74 681.43 651.1 700.85"/></g><g class="b980e5ca-67f4-446a-9a91-b84d7db441ce"><polygon class="a0b604ba-19d8-4e2f-9965-aac55fc64561" points="610.97 724.02 611.01 740.9 767.29 831.72 767.24 814.84 610.97 724.02"/><polygon class="ba363696-0b21-4a3c-b1a8-86f0596240f2" points="767.24 814.84 767.29 831.72 800.94 812.29 800.89 795.4 767.24 814.84"/><polygon class="bd0e3123-ae55-4952-b6f4-5dbcf17ea148" points="610.97 724.02 767.24 814.84 800.89 795.4 644.62 704.59 610.97 724.02"/></g><g class="b980e5ca-67f4-446a-9a91-b84d7db441ce"><polygon class="f637a135-36b2-4726-a4f7-4df21e3380e0" points="570.85 747.18 570.89 764.07 689.07 832.74 689.02 815.86 570.85 747.18"/><polygon class="f9930285-8d27-42af-b0de-85bd836ba3a8" points="689.02 815.86 689.07 832.74 722.71 813.32 722.66 796.44 689.02 815.86"/><polygon class="fe894741-b374-4490-b769-9c56724725af" points="570.85 747.18 689.02 815.86 722.66 796.44 604.49 727.76 570.85 747.18"/></g><g class="b980e5ca-67f4-446a-9a91-b84d7db441ce"><polygon class="ed94b35a-87c1-43cd-a603-fa5ebe8e9078" points="530.71 770.36 530.76 787.24 604.04 829.83 603.99 812.94 530.71 770.36"/><polygon class="e809e411-8fbc-4794-9c12-00dcd12e1ee2" points="603.99 812.94 604.04 829.83 637.68 810.4 637.63 793.52 603.99 812.94"/><polygon class="b72752ab-4bfa-4856-8561-82c38cbedc8d" points="530.71 770.36 603.99 812.94 637.63 793.52 564.35 750.93 530.71 770.36"/></g><path class="a89792e6-cb44-487b-84b0-3f46107364c3" d="M456.44,786.61l-.92-.53L971,488.45l.3-.18,362.41,209.25.92.53L819.15,995.68l-.3.18ZM971.33,489.68,458,786.08,818.85,994.45l513.37-296.4Z"/><g class="a399158a-1d4e-4f45-a8e6-47a4d790e5e0"><polygon class="a89792e6-cb44-487b-84b0-3f46107364c3" points="674.12 437.58 817.66 520.45 830.36 513.12 686.83 430.24 674.12 437.58"/><polygon class="a89792e6-cb44-487b-84b0-3f46107364c3" points="642.59 455.78 786.13 538.66 798.84 531.32 655.3 448.45 642.59 455.78"/><polygon class="a89792e6-cb44-487b-84b0-3f46107364c3" points="611.07 473.98 754.6 556.86 767.31 549.52 623.77 466.65 611.07 473.98"/><polygon class="a89792e6-cb44-487b-84b0-3f46107364c3" points="579.54 492.19 723.08 575.06 735.78 567.72 592.25 484.85 579.54 492.19"/><polygon class="a89792e6-cb44-487b-84b0-3f46107364c3" points="548.01 510.39 691.55 593.26 704.25 585.93 560.72 503.05 548.01 510.39"/><polygon class="a89792e6-cb44-487b-84b0-3f46107364c3" points="516.49 528.59 660.02 611.47 672.73 604.13 529.19 521.25 516.49 528.59"/><polygon class="a89792e6-cb44-487b-84b0-3f46107364c3" points="484.96 546.79 628.5 629.67 641.2 622.33 497.67 539.46 484.96 546.79"/><polygon class="a89792e6-cb44-487b-84b0-3f46107364c3" points="453.43 565 596.97 647.87 609.68 640.53 466.14 557.66 453.43 565"/><polygon class="a89792e6-cb44-487b-84b0-3f46107364c3" points="421.9 583.2 565.44 666.07 578.15 658.74 434.61 575.86 421.9 583.2"/><polygon class="a89792e6-cb44-487b-84b0-3f46107364c3" points="390.38 601.4 533.92 684.27 546.62 676.94 403.08 594.07 390.38 601.4"/><polygon class="a89792e6-cb44-487b-84b0-3f46107364c3" points="358.85 619.6 502.39 702.48 515.1 695.14 371.56 612.27 358.85 619.6"/><polygon class="a89792e6-cb44-487b-84b0-3f46107364c3" points="327.32 637.81 470.86 720.68 483.57 713.34 340.03 630.47 327.32 637.81"/><polygon class="a89792e6-cb44-487b-84b0-3f46107364c3" points="295.8 656.01 439.34 738.88 452.04 731.55 308.51 648.67 295.8 656.01"/><polygon class="a89792e6-cb44-487b-84b0-3f46107364c3" points="342.45 719.35 407.81 757.08 420.52 749.75 355.15 712.01 342.45 719.35"/></g><polygon class="a89792e6-cb44-487b-84b0-3f46107364c3" points="996.76 1012.09 1390.11 1239.19 1399.61 1233.71 1006.26 1006.6 996.76 1012.09"/><polygon class="a89792e6-cb44-487b-84b0-3f46107364c3" points="973.18 1025.7 1366.53 1252.8 1376.03 1247.32 982.69 1020.21 973.18 1025.7"/><polygon class="a89792e6-cb44-487b-84b0-3f46107364c3" points="1124.23 1140.13 1342.96 1266.41 1352.46 1260.93 1133.74 1134.64 1124.23 1140.13"/><polygon class="bd7d8f21-e2d1-400b-b2e1-9d4e2feaf849" points="785.46 642.92 1078.46 811.07 1087.96 805.58 794.96 637.43 785.46 642.92"/><polygon class="bd7d8f21-e2d1-400b-b2e1-9d4e2feaf849" points="761.89 656.53 1054.88 824.68 1064.38 819.19 771.39 651.05 761.89 656.53"/><polygon class="bd7d8f21-e2d1-400b-b2e1-9d4e2feaf849" points="812.59 712 1031.31 838.29 1040.81 832.8 822.09 706.52 812.59 712"/><polygon class="bd7d8f21-e2d1-400b-b2e1-9d4e2feaf849" points="1247.65 891.23 1607.16 1098.8 1633.37 1083.67 1273.85 876.1 1247.65 891.23"/><polygon class="bd7d8f21-e2d1-400b-b2e1-9d4e2feaf849" points="1176.92 903.41 1561.26 1125.31 1573.96 1117.97 1189.63 896.07 1176.92 903.41"/><polygon class="bd7d8f21-e2d1-400b-b2e1-9d4e2feaf849" points="1237.22 974.63 1529.73 1143.51 1542.43 1136.17 1249.93 967.29 1237.22 974.63"/><g class="b58c0fba-1358-482a-a3b6-47b7263f5947"><path class="e809e411-8fbc-4794-9c12-00dcd12e1ee2" d="M1065.51,996.77c-2.63,1.52-2.66,4,0,5.52l41.64,24.2a10.55,10.55,0,0,0,9.54,0l41.91-24.2c2.63-1.52,2.64-4,0-5.52l-41.65-24.2a10.51,10.51,0,0,0-9.52,0Z"/></g><path class="a89792e6-cb44-487b-84b0-3f46107364c3" d="M1105.82,1032.57l-50.39-29.28a4.47,4.47,0,0,1-2.58-3.73c0-1.46.94-2.8,2.65-3.79l50.71-29.28a13.28,13.28,0,0,1,12,0l50.38,29.28c1.68,1,2.61,2.31,2.6,3.75s-.93,2.8-2.64,3.78l-50.71,29.28a13.2,13.2,0,0,1-12,0Zm.88-65.23L1056,996.62a3.63,3.63,0,0,0-2.16,2.94,3.55,3.55,0,0,0,2.1,2.88l50.39,29.28a11.09,11.09,0,0,0,5.51,1.32,11.22,11.22,0,0,0,5.53-1.32l50.71-29.28a3.06,3.06,0,0,0,0-5.83l-50.39-29.28a11.08,11.08,0,0,0-5.48-1.3A11.37,11.37,0,0,0,1106.7,967.34Z"/><path class="b36a6dd6-e8f3-4bd9-9860-47914a4bae99" d="M1065.46,892.71l41.64,24.21a10.61,10.61,0,0,0,9.54,0l41.91-24.2a3.35,3.35,0,0,0,2-2.78l0,93.26a3.39,3.39,0,0,1-2,2.79l-41.91,24.19a10.55,10.55,0,0,1-9.54,0L1065.48,986a3.31,3.31,0,0,1-1.93-2.72l0-93.27A3.3,3.3,0,0,0,1065.46,892.71Z"/><path class="b2ebd391-b6c4-4cf9-bd4d-1d9d2ad7a7ec" d="M1065.51,887.2c-2.63,1.52-2.66,4,0,5.51l41.64,24.21a10.61,10.61,0,0,0,9.54,0l41.91-24.2c2.63-1.52,2.64-4,0-5.53L1116.94,863a10.54,10.54,0,0,0-9.52,0Z"/><g class="b58c0fba-1358-482a-a3b6-47b7263f5947"><path class="e809e411-8fbc-4794-9c12-00dcd12e1ee2" d="M1141.71,1038.63c-2.63,1.51-2.66,4,0,5.51l41.64,24.2a10.55,10.55,0,0,0,9.54,0l41.92-24.2c2.62-1.51,2.64-4,0-5.52l-41.65-24.2a10.51,10.51,0,0,0-9.52,0Z"/></g><path class="a89792e6-cb44-487b-84b0-3f46107364c3" d="M1182,1074.42l-50.38-29.28a4.48,4.48,0,0,1-2.59-3.73c0-1.46.94-2.8,2.65-3.79l50.71-29.27a13.24,13.24,0,0,1,12,0l50.38,29.28c1.68,1,2.61,2.31,2.61,3.75a4.55,4.55,0,0,1-2.64,3.78l-50.72,29.28a13.2,13.2,0,0,1-12,0Zm.88-65.23-50.71,29.28c-1.39.81-2.16,1.85-2.16,2.94a3.53,3.53,0,0,0,2.1,2.88l50.39,29.28a12.2,12.2,0,0,0,11,0l50.71-29.28a3.64,3.64,0,0,0,2.16-2.93,3.58,3.58,0,0,0-2.12-2.9l-50.38-29.28a11.14,11.14,0,0,0-5.49-1.3A11.37,11.37,0,0,0,1182.9,1009.19Z"/><path class="a9564099-f8bf-4e36-aa4c-6bbc0d786296" d="M1141.66,968l41.64,24.2a10.55,10.55,0,0,0,9.54,0l41.92-24.2a3.34,3.34,0,0,0,2-2.78l0,59.89a3.37,3.37,0,0,1-2,2.78L1192.87,1052a10.55,10.55,0,0,1-9.54,0l-41.64-24.2a3.31,3.31,0,0,1-1.94-2.73l0-59.88A3.32,3.32,0,0,0,1141.66,968Z"/><path class="bd0e3123-ae55-4952-b6f4-5dbcf17ea148" d="M1141.71,962.44c-2.63,1.51-2.66,4,0,5.51l41.64,24.2a10.55,10.55,0,0,0,9.54,0l41.92-24.2c2.62-1.52,2.64-4,0-5.52l-41.65-24.2a10.51,10.51,0,0,0-9.52,0Z"/><g class="b58c0fba-1358-482a-a3b6-47b7263f5947"><path class="e809e411-8fbc-4794-9c12-00dcd12e1ee2" d="M1214.25,1081.46c-2.63,1.52-2.66,4,0,5.51l41.64,24.2a10.53,10.53,0,0,0,9.53,0l41.92-24.19c2.63-1.52,2.64-4,0-5.53l-41.64-24.2a10.51,10.51,0,0,0-9.52,0Z"/></g><path class="a89792e6-cb44-487b-84b0-3f46107364c3" d="M1254.56,1117.26,1204.18,1088a4.45,4.45,0,0,1-2.59-3.73c0-1.45.94-2.8,2.65-3.78l50.71-29.28a12.28,12.28,0,0,1,6-1.45,12.08,12.08,0,0,1,6,1.44l50.38,29.28a4,4,0,0,1,0,7.52l-50.71,29.29a13.28,13.28,0,0,1-12,0Zm.88-65.23-50.71,29.27c-1.39.81-2.16,1.85-2.16,2.94a3.55,3.55,0,0,0,2.1,2.89l50.39,29.28a12.24,12.24,0,0,0,11,0l50.71-29.27a3.06,3.06,0,0,0,0-5.83L1266.46,1052a11.08,11.08,0,0,0-5.48-1.31A11.26,11.26,0,0,0,1255.44,1052Z"/><path class="aacfb3e1-75f8-4d09-9e6e-f8e9a129f2f9" d="M1214.2,1029.83l41.64,24.2a10.53,10.53,0,0,0,9.53,0l41.92-24.2a3.35,3.35,0,0,0,2-2.78l0,40.84a3.37,3.37,0,0,1-2,2.78l-41.92,24.2a10.53,10.53,0,0,1-9.53,0l-41.65-24.2a3.31,3.31,0,0,1-1.93-2.73l0-40.84A3.32,3.32,0,0,0,1214.2,1029.83Z"/><path class="fe894741-b374-4490-b769-9c56724725af" d="M1214.25,1024.32c-2.63,1.51-2.66,4,0,5.51l41.64,24.2a10.53,10.53,0,0,0,9.53,0l41.92-24.2c2.63-1.52,2.64-4,0-5.52l-41.64-24.2a10.51,10.51,0,0,0-9.52,0Z"/><path class="ba363696-0b21-4a3c-b1a8-86f0596240f2" d="M1230.25,715.7a.18.18,0,0,0,.18-.18v-62a.18.18,0,0,0-.36,0v62A.18.18,0,0,0,1230.25,715.7Z"/><path class="ba363696-0b21-4a3c-b1a8-86f0596240f2" d="M1156.57,673.16a.18.18,0,0,0,.18-.18V584.47a.18.18,0,0,0-.36,0V673A.18.18,0,0,0,1156.57,673.16Z"/><path class="ba363696-0b21-4a3c-b1a8-86f0596240f2" d="M1082.9,630.63a.18.18,0,0,0,.18-.18V520.59a.18.18,0,0,0-.36,0V630.45A.18.18,0,0,0,1082.9,630.63Z"/><path class="ba363696-0b21-4a3c-b1a8-86f0596240f2" d="M1009.22,588.09a.18.18,0,0,0,.18-.17V494.47a.18.18,0,1,0-.36,0v93.45A.18.18,0,0,0,1009.22,588.09Z"/><path class="ba363696-0b21-4a3c-b1a8-86f0596240f2" d="M935.55,545.56a.18.18,0,0,0,.18-.18v-61a.18.18,0,0,0-.36,0v61A.18.18,0,0,0,935.55,545.56Z"/><path class="ba363696-0b21-4a3c-b1a8-86f0596240f2" d="M1238.11,720.42a.38.38,0,0,0,.31-.18.36.36,0,0,0-.13-.49l-311.81-180a.36.36,0,0,0-.36.62l311.81,180A.37.37,0,0,0,1238.11,720.42Z"/><path class="ba363696-0b21-4a3c-b1a8-86f0596240f2" d="M1179.05,745.14a.18.18,0,0,0,.18-.18V671.8a.18.18,0,1,0-.36,0V745A.18.18,0,0,0,1179.05,745.14Z"/><path class="ba363696-0b21-4a3c-b1a8-86f0596240f2" d="M1105.38,702.61a.18.18,0,0,0,.18-.18V607a.18.18,0,0,0-.36,0v95.47A.18.18,0,0,0,1105.38,702.61Z"/><path class="ba363696-0b21-4a3c-b1a8-86f0596240f2" d="M1031.7,660.07a.18.18,0,0,0,.18-.18V607a.18.18,0,1,0-.36,0v52.93A.18.18,0,0,0,1031.7,660.07Z"/><path class="ba363696-0b21-4a3c-b1a8-86f0596240f2" d="M958,617.54a.17.17,0,0,0,.18-.18V543.25a.17.17,0,0,0-.18-.18.17.17,0,0,0-.17.18v74.11A.17.17,0,0,0,958,617.54Z"/><path class="ba363696-0b21-4a3c-b1a8-86f0596240f2" d="M884.35,575a.18.18,0,0,0,.18-.18V524a.18.18,0,0,0-.36,0v50.86A.18.18,0,0,0,884.35,575Z"/><path class="ba363696-0b21-4a3c-b1a8-86f0596240f2" d="M1186.91,749.86a.34.34,0,0,0,.31-.18.36.36,0,0,0-.13-.49l-311.8-180a.36.36,0,0,0-.5.13.37.37,0,0,0,.14.49l311.8,180A.31.31,0,0,0,1186.91,749.86Z"/><path class="ba363696-0b21-4a3c-b1a8-86f0596240f2" d="M1128.33,774.59a.18.18,0,0,0,.18-.18V720.1a.18.18,0,0,0-.36,0v54.31A.18.18,0,0,0,1128.33,774.59Z"/><path class="ba363696-0b21-4a3c-b1a8-86f0596240f2" d="M1054.66,732.05a.18.18,0,0,0,.18-.18V678.43a.18.18,0,0,0-.36,0v53.44A.18.18,0,0,0,1054.66,732.05Z"/><path class="ba363696-0b21-4a3c-b1a8-86f0596240f2" d="M981,689.52a.18.18,0,0,0,.18-.18V645.67a.18.18,0,1,0-.36,0v43.67A.18.18,0,0,0,981,689.52Z"/><path class="ba363696-0b21-4a3c-b1a8-86f0596240f2" d="M907.31,647a.18.18,0,0,0,.18-.18V595.08a.18.18,0,0,0-.36,0V646.8A.18.18,0,0,0,907.31,647Z"/><path class="ba363696-0b21-4a3c-b1a8-86f0596240f2" d="M833.63,604.45a.18.18,0,0,0,.18-.18V553.41a.18.18,0,0,0-.36,0v50.86A.18.18,0,0,0,833.63,604.45Z"/><path class="e01e8cb8-0e56-4361-9e9c-ecd8aca9688b" d="M926.3,470.78c0,5.71,4,12.72,9,15.59,2.68,1.55,5.08,1.56,6.74.37a3,3,0,0,1-.34.25l4-2.31a4.73,4.73,0,0,0,1.84-2.09,20.29,20.29,0,0,0,7.53-2.73l-.05,0,4-2.32c4.29-2.49,8.14-6.27,11.77-9.84a74.83,74.83,0,0,1,7.6-6.86c.22-.09.43-.2.65-.27a19.52,19.52,0,0,0,7.5,8.94c2.51,1.45,4.8,1.58,6.44.6l0,0,.79-.47a132.25,132.25,0,0,1,7.59,14.63c5.5,11.69,11.73,24.94,22.73,31.3,4.86,2.8,8.75,2.45,12.1.42l-.21.14,4-2.32c4.22-2.45,7.58-7.61,10.87-12.67,2.61-4,5.16-7.9,8-10.44a19,19,0,0,0,7,8c2.73,1.58,5.19,1.57,6.86.32a4,4,0,0,1-.43.29l.45-.26c4.55,8.07,7.87,20.67,11.11,33,5.11,19.43,9.92,37.79,20.57,43.93,9.93,5.74,15.6,3.18,20.6.91,3.11-1.4,6.12-2.76,10.1-2.25a19.8,19.8,0,0,0,8,10.13c2.57,1.48,4.88,1.56,6.54.52,0,0-.07.07-.12.1l1.16-.68c5.29,6.44,10.25,15.44,15.09,24.3,7.4,13.5,15.06,27.48,24.36,32.85,8.9,5.13,14.36,4.15,19.64,3.19,3.45-.62,6.79-1.2,11.13-.17,1.39,4.5,4.57,8.93,8.29,11.08,2.52,1.45,4.8,1.58,6.44.6l0,0,.2-.11,3.78-2.2c1.63-1,2.63-3,2.64-5.79,0-5.73-4-12.72-9-15.6-2.51-1.45-4.78-1.58-6.43-.63l-.4.24-3.59,2.08a4.49,4.49,0,0,1,.67-.31,4.37,4.37,0,0,0-1.73,1.23,29.77,29.77,0,0,0-10.93.41c-5,.92-9.39,1.7-16.69-2.51-7-4-13.5-16-20.42-28.6-5.5-10-11.11-20.25-17.56-27.68-.07-5.69-4.07-12.57-9-15.42-2.51-1.45-4.78-1.58-6.43-.62l-4,2.31a3.13,3.13,0,0,1,.32-.15,4.66,4.66,0,0,0-2.1,2.13c-3.76,0-6.74,1.33-9.5,2.57-4.9,2.23-9.14,4.14-17-.41-6.87-4-11.29-20.74-15.55-37-3.76-14.34-7.63-29-14-38.7,0-6.38-4-13.37-9-16.24-2.52-1.44-4.8-1.58-6.44-.62l-4,2.29h0l0,0h0c-1.52.87-2.5,2.69-2.62,5.26l-3.15,1.83.18-.09c-4.64,2.6-8.24,8.09-11.76,13.51-2.59,4-5.12,7.86-7.9,10.3a7.76,7.76,0,0,1-6.16-1c-8.32-4.8-13.24-15.27-18.45-26.35-3-6.47-6.16-13.06-10-18.51,0-6-4-13-9-15.84-2.5-1.44-4.77-1.57-6.41-.62l-.4.23-3.59,2.09.1-.05a5.58,5.58,0,0,0-2.63,4.34c-.33.17-.65.34-1,.53l-.2.11-3.79,2.2c.26-.15.52-.28.78-.41-3.75,2-7.31,5.44-11,9a77.67,77.67,0,0,1-9.31,8.25,15,15,0,0,1-5.82,1.42c-1.49-4.21-4.52-8.27-8-10.3-2.51-1.44-4.79-1.57-6.43-.62l-4,2.32h0C927.33,465.92,926.31,467.93,926.3,470.78Zm303.22,170.84a8.31,8.31,0,0,1,3.31,5.72A8.25,8.25,0,0,1,1229.52,641.62Zm-86.09-71.18a8.21,8.21,0,0,1,3.31,5.69A8.21,8.21,0,0,1,1143.43,570.44Zm-77.23-86.09a8.28,8.28,0,0,1,3.32,5.7A8.2,8.2,0,0,1,1066.2,484.35Zm-79.29-29.19a8.21,8.21,0,0,1,3.31,5.7A8.25,8.25,0,0,1,986.91,455.16ZM935.68,472a8.23,8.23,0,0,1,3.31,5.71A8.23,8.23,0,0,1,935.68,472Z"/><path class="fa515920-4560-485f-83cd-34fcc33a468d" d="M926.3,470.78c0,5.71,4,12.72,9,15.59,4.51,2.61,8.26.94,8.94-3.66,9,.58,16.12-6.34,22.54-12.67,4.2-4.13,8.25-8.09,12.24-9.44a19.52,19.52,0,0,0,7.5,8.94c2.9,1.67,5.5,1.59,7.15.08a129.36,129.36,0,0,1,7.64,14.71c5.5,11.69,11.73,24.94,22.73,31.3,10.83,6.24,16.89-3.09,22.77-12.12,3.75-5.77,7.37-11.33,11.9-12.9a19,19,0,0,0,7.11,8.14c2.73,1.58,5.19,1.57,6.86.32,4.56,8.08,7.89,20.69,11.13,33,5.11,19.43,9.92,37.79,20.57,43.93,9.93,5.74,15.6,3.18,20.6.91,3.11-1.4,6.12-2.76,10.1-2.25a19.8,19.8,0,0,0,8,10.13c3.08,1.78,5.82,1.56,7.45-.21,5.34,6.44,10.34,15.52,15.22,24.45,7.4,13.5,15.06,27.48,24.36,32.85,8.9,5.13,14.36,4.15,19.64,3.19,3.45-.62,6.79-1.2,11.13-.17,1.39,4.5,4.57,8.93,8.29,11.08,5,2.88,9,.55,9.06-5.16s-4-12.72-9-15.6c-4.37-2.52-8-1.06-8.89,3.18-5.62-1.57-9.75-.83-13.52-.16-5,.91-9.4,1.7-16.69-2.52-7-4-13.51-16-20.43-28.6-5.49-10-11.11-20.25-17.56-27.67-.07-5.69-4.06-12.57-9-15.42-4.61-2.66-8.43-.88-9,3.94-5.36-1-9.19.73-12.7,2.3-4.89,2.23-9.13,4.14-17-.41-6.87-4-11.28-20.74-15.54-37-3.77-14.34-7.64-29-14-38.7,0-6.38-4-13.37-9-16.24s-9.05-.57-9.07,5.16c-6.13,1.58-10.47,8.21-14.7,14.72-5.36,8.23-10.42,16-18.05,11.6-8.32-4.8-13.24-15.27-18.44-26.34-3-6.47-6.16-13.06-10-18.52,0-5.95-4-13-9-15.83-4.81-2.78-8.77-.69-9,4.63-5.33.94-10.11,5.63-15.06,10.51-5.92,5.84-12,11.78-19.11,12-1.5-4.21-4.53-8.28-8-10.3C930.39,462.73,926.32,465.06,926.3,470.78Zm299.19,172.74c0-2.34,1.67-3.29,3.7-2.12a8.09,8.09,0,0,1,3.67,6.37c0,2.32-1.66,3.28-3.69,2.11A8.14,8.14,0,0,1,1225.49,643.52Zm-86.08-71.21c0-2.33,1.66-3.27,3.69-2.1a8.06,8.06,0,0,1,3.67,6.36c0,2.33-1.66,3.28-3.69,2.1A8.06,8.06,0,0,1,1139.41,572.31Zm-77.24-86.08c0-2.34,1.68-3.27,3.71-2.1a8.13,8.13,0,0,1,3.67,6.36c0,2.34-1.67,3.27-3.69,2.11A8.14,8.14,0,0,1,1062.17,486.23ZM982.89,457c0-2.34,1.66-3.28,3.69-2.11a8.11,8.11,0,0,1,3.68,6.36c0,2.34-1.67,3.28-3.7,2.11A8.1,8.1,0,0,1,982.89,457Zm-51.23,16.83c0-2.33,1.66-3.29,3.7-2.12a8.16,8.16,0,0,1,3.67,6.38c0,2.32-1.67,3.28-3.7,2.1A8.1,8.1,0,0,1,931.66,473.87Z"/><path class="bd0e3123-ae55-4952-b6f4-5dbcf17ea148" d="M875.11,510.69c0,5.72,4,12.71,9,15.59,2.55,1.48,4.85,1.57,6.5.55l-.1.07,1-.6,1.08,1.26c5.8,6.85,13.74,16.23,29.4,25.27,12.64,7.3,19.14,3.5,25.43-.17l-.55.32,1.75-1c5.1-2.94,10.29-5.34,19.13-2.41,1.35,4.55,4.56,9.06,8.32,11.23,2.61,1.51,4.94,1.56,6.6.47a.84.84,0,0,1-.18.15l2-1.15.67-.39c6.85,6.12,11,13.23,15.28,20.67,6,10.43,12.8,22.24,27.33,30.63,4.79,2.77,8.75,2.69,12.14.69l-.09,0,4-2.31c7.63-4.44,12.32-18.74,16.89-32.72,3.49-10.69,7.06-21.57,11.71-27.23a19,19,0,0,0,6.86,7.66c2.58,1.49,4.89,1.56,6.55.52a1.27,1.27,0,0,0-.12.1l1.21-.71c6.83,11,11.87,30.2,16.77,48.91,7.42,28.31,15.09,57.58,30.85,66.67,11.66,6.74,18.54,5.56,23.56,2.52l-.29.19,4-2.32a34.72,34.72,0,0,0,5.73-4.44c.84-.75,1.65-1.46,2.45-2.11.21-.06.4-.13.61-.18a19.33,19.33,0,0,0,7.4,8.75c2.52,1.45,4.8,1.57,6.44.61h0l4-2.31c1.62-.95,2.62-2.95,2.63-5.79,0-5.73-4-12.72-9-15.6-2.51-1.44-4.78-1.58-6.42-.62-.07,0-.14.08-.2.11l-2,1.16-.39.23-1.4.82,0,0a5.69,5.69,0,0,0-2.58,4.44c-.28.14-.55.28-.81.43l-4,2.31.37-.18a29.07,29.07,0,0,0-5.33,4.05c-1.07,1-2.15,1.92-3.29,2.79-4.07,1.61-9.34,1.41-17.49-3.29-12-6.93-19-33.77-25.83-59.7-5.79-22.14-11.34-43.3-20.41-55.62-.33-5.56-4.22-12-9-14.8-2.51-1.45-4.78-1.58-6.42-.62l-4,2.31.06,0c-1.54.86-2.53,2.67-2.67,5.22l-2.2,1.28c.12-.08.26-.13.39-.2-7.64,4-12.32,18.28-16.88,32.21-3.93,12-8,24.28-13.51,29.45a8.29,8.29,0,0,1-6.33-1.15c-12.3-7.1-17.76-16.58-23.54-26.63-4.76-8.28-10.06-17.43-19.31-25.09-.86-5.19-4.47-10.78-8.79-13.27-2.51-1.45-4.78-1.58-6.42-.63l-4,2.32a5.29,5.29,0,0,1,.68-.32,4.5,4.5,0,0,0-1.51,1c-9.64-2.65-15.47.35-20.64,3.36l-1.89,1.1c-5.51,3.16-10.69,5.38-20.35-.2-14.35-8.28-21.32-16.52-26.93-23.14-.66-.78-1.31-1.53-2-2.28,0-5.86-4-12.86-9-15.74-2.51-1.44-4.78-1.58-6.43-.62l-4,2.3h0l0,0h0C876.13,505.83,875.11,507.84,875.11,510.69Zm303.27,150.12a8.31,8.31,0,0,1,3.31,5.71A8.21,8.21,0,0,1,1178.38,660.81Zm-98.7-117.9a8.27,8.27,0,0,1,3.31,5.71A8.23,8.23,0,0,1,1079.68,542.91ZM976.49,546.4a8.26,8.26,0,0,1,3.31,5.7A8.21,8.21,0,0,1,976.49,546.4Zm-92-34.51a8.23,8.23,0,0,1,3.31,5.71A8.29,8.29,0,0,1,884.48,511.89Z"/><path class="a0b604ba-19d8-4e2f-9965-aac55fc64561" d="M875.11,510.69c0,5.72,4,12.71,9,15.59,3,1.75,5.69,1.57,7.34-.11.38.46.77.9,1.18,1.39,5.8,6.85,13.74,16.23,29.4,25.27,12.64,7.3,19.14,3.5,25.43-.17,5.51-3.22,10.8-6.26,20.33-3.1,1.35,4.55,4.56,9.06,8.32,11.23s7,1.38,8.36-1.58c7.3,6.26,11.56,13.63,16,21.33,6,10.43,12.8,22.24,27.33,30.63,15.54,9,22.36-11.83,28.94-32,4.34-13.28,8.81-26.85,15.29-30.36a19.31,19.31,0,0,0,7.27,8.47c3.13,1.8,5.89,1.56,7.53-.29,6.89,11,12,30.29,16.88,49.11,7.42,28.31,15.09,57.58,30.85,66.67,16.44,9.5,23.4,3.28,29-1.73,2.38-2.13,4.49-4,7-4.61a19.33,19.33,0,0,0,7.4,8.75c5,2.88,9,.55,9.06-5.16s-4-12.73-9-15.6-8.94-.61-9.06,5c-4,.36-6.84,2.92-9.66,5.43-5.38,4.82-10.94,9.8-24.77,1.81-12-6.92-19-33.76-25.82-59.7-5.8-22.13-11.34-43.29-20.41-55.62-.34-5.55-4.23-12.05-9-14.79s-8.91-.63-9.06,4.9c-8.71,2.6-13.76,18-18.66,33-6,18.35-12.21,37.32-23.82,30.62-12.31-7.11-17.76-16.59-23.55-26.63-4.76-8.28-10-17.43-19.3-25.1-.87-5.18-4.48-10.77-8.8-13.27s-8-1.06-8.86,3.12c-11.51-4-17.9-.37-23.64,3-6,3.52-11.22,6.54-21.62.54-14.35-8.28-21.32-16.52-26.93-23.14-.66-.78-1.31-1.53-2-2.28,0-5.86-4-12.86-9-15.74S875.12,505,875.11,510.69Zm299.25,152c0-2.34,1.66-3.3,3.69-2.12a8.07,8.07,0,0,1,3.67,6.37c0,2.32-1.66,3.28-3.69,2.11A8.1,8.1,0,0,1,1174.36,662.71Zm-98.7-117.9c0-2.34,1.66-3.3,3.69-2.12a8.07,8.07,0,0,1,3.67,6.37c0,2.32-1.66,3.28-3.69,2.11A8.13,8.13,0,0,1,1075.66,544.81Zm-103.19,3.47c0-2.34,1.66-3.28,3.69-2.11a8.07,8.07,0,0,1,3.67,6.36c0,2.34-1.66,3.28-3.69,2.11A8.07,8.07,0,0,1,972.47,548.28Zm-92-34.5c0-2.34,1.66-3.29,3.7-2.12a8.16,8.16,0,0,1,3.67,6.37c0,2.33-1.66,3.28-3.7,2.11A8.1,8.1,0,0,1,880.46,513.78Z"/><path class="a3688bc6-dba9-4e8a-9c4e-d5c268a9ca17" d="M824.28,542.63c0,5.73,4,12.72,9,15.59,2.75,1.6,5.23,1.6,6.9.31a4,4,0,0,1-.48.32l.4-.23.11-.06a48.79,48.79,0,0,0,11.09,9.32c5.43,3.13,9.76,3.39,13.82,3.62,3.42.18,6.65.37,10.25,2.45,5.54,3.2,8.61,7.38,12.17,12.23,3.86,5.28,8.26,11.27,16,15.72,7.37,4.25,12.42,1.53,17.28-1.12,3.51-1.89,7.09-3.78,11.67-3.36,1.3,4.63,4.57,9.28,8.41,11.5,2.55,1.47,4.85,1.57,6.5.55a.71.71,0,0,1-.09.07l1.94-1.12c3.46,4.53,6.41,10,9.44,15.62,5.63,10.51,11.45,21.4,21.18,27,4.59,2.65,8.31,2.29,11.54.31l-.23.16,4-2.32c4.06-2.36,7.34-7.28,10.56-12.11a59.39,59.39,0,0,1,6.82-9,18.67,18.67,0,0,0,6.67,7.26c2.57,1.49,4.88,1.57,6.53.53a1.27,1.27,0,0,1-.12.1l1.23-.72c3.73,5,6.89,11.44,10.15,18.15,5.87,12.09,12,24.59,22.29,30.56,10.86,6.27,19.69,4.06,27.5,2.11,5.51-1.38,10.71-2.68,15-.22,5.46,3.15,12.12,12.72,17.12,21a8.54,8.54,0,0,0-.75,3.71c0,5.72,4,12.71,9,15.59,2.52,1.45,4.8,1.58,6.44.61l0,0,4-2.32c1.63-.94,2.63-2.94,2.64-5.79,0-5.73-4-12.72-9-15.6a7.63,7.63,0,0,0-4.79-1.18c-5.43-9-13.28-20.31-20.62-24.55-6-3.46-11.89-2-18.13-.42-7.14,1.78-15.23,3.81-24.36-1.45-7.72-4.47-12.75-14.82-18.08-25.78-3.85-7.93-7.8-16-13-22.27-.16-5.65-4.13-12.39-9-15.19-2.51-1.45-4.78-1.58-6.43-.63l-3.95,2.3h0l0,0h0c-1.6.93-2.61,2.88-2.65,5.65l-1.63.94a12.94,12.94,0,0,1,1.63-.8c-5.29,2.17-9.26,8.12-13.14,13.94-2.51,3.77-5,7.43-7.61,9.76a7.15,7.15,0,0,1-5.59-.91c-7.33-4.23-11.9-12.77-17.2-22.66-3.65-6.8-7.62-14.21-12.84-20.21-.69-5.34-4.4-11.29-8.89-13.88-2.5-1.44-4.77-1.57-6.41-.62l-4,2.32a5,5,0,0,1,.82-.36,4.31,4.31,0,0,0-1.58,1c-5.15-.28-9.08,1.81-12.69,3.77-4.48,2.43-8.36,4.53-13.54,1.53-6.06-3.49-9.25-7.86-13-12.91s-8-10.9-15.17-15c-4.75-2.75-8.67-3-12.47-3.18s-7.23-.42-11.62-2.95a39.5,39.5,0,0,1-9-7.59c0-.33.05-.66.05-1,0-5.72-4-12.73-9-15.6-2.51-1.45-4.78-1.58-6.43-.63l-4,2.32h0C825.31,537.77,824.29,539.78,824.28,542.63ZM1127.5,711.86a8.21,8.21,0,0,1,3.31,5.69A8.24,8.24,0,0,1,1127.5,711.86ZM1019.56,621a8.23,8.23,0,0,1,3.31,5.71A8.28,8.28,0,0,1,1019.56,621Zm-78.33-26.48a8.23,8.23,0,0,1,3.33,5.7A8.23,8.23,0,0,1,941.23,594.52ZM833.66,543.84a8.21,8.21,0,0,1,3.31,5.7A8.23,8.23,0,0,1,833.66,543.84Z"/><path class="ed087c18-2b66-4261-920e-726616912f04" d="M824.28,542.63c0,5.73,4,12.72,9,15.59,2.75,1.6,5.23,1.6,6.9.31a48.78,48.78,0,0,0,11.12,9.35c5.43,3.13,9.76,3.39,13.82,3.62,3.42.18,6.65.37,10.25,2.45,5.54,3.2,8.61,7.38,12.17,12.23,3.86,5.28,8.26,11.27,16,15.72,7.37,4.25,12.42,1.53,17.28-1.12,3.51-1.89,7.09-3.78,11.67-3.36,1.3,4.63,4.57,9.28,8.41,11.5,3.47,2,6.49,1.48,8-1,3.6,4.62,6.64,10.25,9.77,16.09,5.63,10.51,11.45,21.4,21.18,27,10.19,5.89,16.13-3,21.88-11.64,3.28-4.92,6.63-9.93,10.56-11.72a18.84,18.84,0,0,0,6.91,7.7c3.11,1.8,5.87,1.57,7.51-.27,3.78,5,7,11.54,10.28,18.33,5.87,12.09,12,24.59,22.29,30.56,10.86,6.27,19.69,4.06,27.5,2.11,5.51-1.38,10.71-2.68,15-.22,5.46,3.15,12.12,12.72,17.12,21a8.54,8.54,0,0,0-.75,3.71c0,5.72,4,12.71,9,15.59s9,.56,9-5.16-4-12.72-9-15.6a7.54,7.54,0,0,0-4.79-1.18c-5.42-9-13.28-20.31-20.62-24.55-6-3.46-11.88-2-18.12-.42-7.14,1.78-15.24,3.81-24.36-1.46-7.73-4.46-12.75-14.81-18.09-25.77-3.84-7.93-7.8-16-13-22.28-.16-5.65-4.12-12.38-9-15.19s-9.06-.55-9.07,5.16c-5.29,2.17-9.26,8.12-13.14,13.94-5.23,7.83-10.16,15.23-17.18,11.16-7.34-4.23-11.91-12.77-17.21-22.66-3.64-6.8-7.61-14.2-12.84-20.2-.68-5.34-4.39-11.29-8.88-13.89-4.16-2.39-7.67-1.16-8.73,2.62-6.38-1.24-11,1.2-15.13,3.47-4.48,2.43-8.35,4.52-13.54,1.53-6.06-3.5-9.25-7.86-13-12.91s-8-10.91-15.17-15.06c-4.76-2.74-8.68-2.95-12.47-3.18s-7.23-.41-11.63-3a39.62,39.62,0,0,1-9-7.58c0-.33.05-.66.05-1,0-5.73-4-12.73-9-15.61S824.3,536.91,824.28,542.63Zm299.2,171.11c0-2.34,1.66-3.28,3.7-2.11a8.13,8.13,0,0,1,3.67,6.36c0,2.34-1.66,3.28-3.7,2.11A8.13,8.13,0,0,1,1123.48,713.74Zm-107.94-90.86c0-2.32,1.66-3.28,3.7-2.11a8.16,8.16,0,0,1,3.67,6.36c0,2.34-1.66,3.3-3.7,2.12A8.13,8.13,0,0,1,1015.54,622.88ZM937.21,596.4c0-2.34,1.68-3.27,3.71-2.1a8.11,8.11,0,0,1,3.67,6.36c0,2.34-1.67,3.27-3.7,2.11A8.15,8.15,0,0,1,937.21,596.4ZM829.64,545.72c0-2.33,1.66-3.28,3.7-2.1A8.08,8.08,0,0,1,837,550c0,2.33-1.66,3.28-3.7,2.1A8.08,8.08,0,0,1,829.64,545.72Z"/><path class="ba363696-0b21-4a3c-b1a8-86f0596240f2" d="M1136.19,779.31a.35.35,0,0,0,.31-.18.36.36,0,0,0-.13-.49l-311.8-180a.36.36,0,0,0-.36.62l311.8,180A.41.41,0,0,0,1136.19,779.31Z"/><path class="e8f5beed-3605-4031-8e5f-949fa66faefa" d="M849.31,426.4c9.88,0,19.76,2.18,27.3,6.53S887.93,443,887.93,448.7s-3.77,11.41-11.32,15.76S859.19,471,849.31,471s-19.77-2.18-27.31-6.53-11.31-10.06-11.31-15.76,3.77-11.42,11.31-15.77S839.43,426.4,849.31,426.4Z"/><path class="a89792e6-cb44-487b-84b0-3f46107364c3" d="M817.05,467.63c-8.72-5-13.52-11.76-13.52-18.93s4.8-13.9,13.52-18.93S837.13,422,849.31,422s23.63,2.75,32.26,7.73,13.52,11.75,13.52,18.93-4.8,13.89-13.52,18.93-20.09,7.72-32.26,7.72S825.68,472.61,817.05,467.63Zm.52-36.95c-8.38,4.83-13,11.23-13,18s4.61,13.18,13,18,19.74,7.58,31.74,7.58,23.26-2.69,31.73-7.58,13-11.24,13-18-4.62-13.19-13-18-19.74-7.58-31.75-7.58S826,425.79,817.57,430.68Z"/><path class="f238faa8-17f1-4955-b513-c73e27d145c1" d="M822,410.64c7.55-4.36,17.43-6.54,27.31-6.53s19.76,2.17,27.3,6.53,11.32,10.06,11.32,15.76v9.5c0,5.71-3.77,11.42-11.32,15.77s-17.42,6.53-27.3,6.53S829.54,456,822,451.67s-11.31-10.06-11.31-15.77v-9.5C810.69,420.7,814.46,415,822,410.64Z"/><path class="fe894741-b374-4490-b769-9c56724725af" d="M849.31,404.11c9.88,0,19.76,2.17,27.3,6.53s11.32,10.06,11.32,15.76-3.77,11.41-11.32,15.77-17.42,6.53-27.3,6.53-19.77-2.18-27.31-6.53-11.31-10.06-11.31-15.77S814.46,415,822,410.64,839.43,404.1,849.31,404.11Z"/><path class="e8f5beed-3605-4031-8e5f-949fa66faefa" d="M816.69,891c9.88,0,19.76,2.18,27.3,6.53S855.3,907.6,855.3,913.3s-3.77,11.42-11.31,15.77-17.42,6.53-27.3,6.53-19.77-2.18-27.31-6.53S778.07,919,778.07,913.3s3.77-11.41,11.31-15.76S806.81,891,816.69,891Z"/><path class="a89792e6-cb44-487b-84b0-3f46107364c3" d="M784.42,932.23c-8.71-5-13.51-11.75-13.51-18.93s4.8-13.89,13.51-18.93,20.09-7.72,32.27-7.72,23.63,2.75,32.26,7.72,13.52,11.76,13.52,18.93-4.8,13.9-13.52,18.93S828.86,940,816.69,940,793.06,937.21,784.42,932.23Zm.53-37c-8.38,4.84-13,11.24-13,18s4.61,13.18,13,18,19.74,7.58,31.74,7.58,23.26-2.7,31.73-7.58,13-11.25,13-18-4.62-13.18-13-18-19.74-7.58-31.75-7.58S793.42,890.39,785,895.28Z"/><path class="f238faa8-17f1-4955-b513-c73e27d145c1" d="M789.38,875.24c7.54-4.35,17.43-6.53,27.31-6.53s19.76,2.18,27.3,6.53S855.3,885.3,855.3,891v9.5c0,5.71-3.77,11.41-11.31,15.77s-17.42,6.53-27.3,6.53-19.77-2.18-27.31-6.53-11.31-10.06-11.31-15.77V891C778.07,885.3,781.84,879.6,789.38,875.24Z"/><path class="fe894741-b374-4490-b769-9c56724725af" d="M816.69,868.71c9.88,0,19.76,2.18,27.3,6.53S855.3,885.3,855.3,891s-3.77,11.41-11.31,15.76-17.42,6.53-27.3,6.53-19.77-2.17-27.31-6.53S778.07,896.71,778.07,891s3.77-11.41,11.31-15.77S806.81,868.71,816.69,868.71Z"/><path class="a89792e6-cb44-487b-84b0-3f46107364c3" d="M138.55,846.32s-7.5,17.76-2.75,36.76c0,0,3,69.81,0,81.27s-15.65,34.4-18.25,56.76c-3,25.75-5.68,67.12-5.68,67.12s20.4,21.66,44.38-3.45c0,0-2.16-20.16.46-47.92,2.66-28.22,23.74-69.51,26.49-81s10.18-56,10.18-56l-9.23-46.26Z"/><path class="ff61d8ce-b91d-4bd5-bd31-95498caca393" d="M156.25,1084.78s-2.16-20.16.46-47.92c2.66-28.22,23.74-69.51,26.49-81s10.18-56,10.18-56L185.44,860c-12.63,1-21.23,3.51-22.19,8.46-4.12,21.23,4.72,38.86,4.72,38.86s8.26,14,8.06,28.17-9,40.49-23.4,77.85c-10.87,28.25-6.31,62.58-3.45,77.63A50.17,50.17,0,0,0,156.25,1084.78Z"/><path class="ff61d8ce-b91d-4bd5-bd31-95498caca393" d="M181.18,1126.45s26.61,15.53,50.87,10c0,0-5.29-71.91,1.54-111.47s15.28-78.66,16.82-102-4.72-57.31-4.72-57.31l-20.84-20.84-61.43,1.38s-9.89,41.68,16.25,63.11c0,0,11.57,70.53,13.18,85.95s-5.18,36.27-6.59,47.34S182.77,1097.35,181.18,1126.45Z"/><path class="ec535b3a-07d5-4d10-bd44-e1bb241f7227" d="M137.56,683.28s-10.57-.58-12.84,3.35-19.93,53.75-24.16,64.62-11.17,33.67-2,37.15,65.68-14.95,65.68-14.95l-9.06-19.63-26.88,3.32,11.78-29.44Z"/><path class="ec535b3a-07d5-4d10-bd44-e1bb241f7227" d="M157.26,758.24l-33.6,8.11a78.79,78.79,0,0,0,4.68-9.21l11.78-29.44-2-34-9,2.78s-3.85-2.42-5.51,10.72-5.58,36.69-12.68,52.7c-6.12,13.81-11.79,20.31-16.34,23.67.66,2.35,1.9,4.09,4,4.87,9.21,3.47,65.68-14.95,65.68-14.95Z"/><path class="bd491c7b-41b2-4b61-b226-031112613c4f" d="M150.09,674.39s-12.37-.66-21.25,6.91-6.7,20.38.87,38,32.32,61.14,30.43,72.06-14.4,22.95-23.48,55c0,0,1.79,23.8,36.58,31.22s64.79-.44,74-10.33c0,0,.35-10.6-6-26.65-2.71-6.86-9.9-14.84-10.19-33.19S239.33,770,239.33,770s13.69-21.55,12.09-31.3-24-25.19-24-25.19l-2.48-3.33-27.73-26Z"/><path class="bd491c7b-41b2-4b61-b226-031112613c4f" d="M247.2,867.21s.35-10.6-6-26.65c-2.71-6.86-9.9-14.84-10.19-33.19S239.33,770,239.33,770s13.69-21.55,12.09-31.3c-1.36-8.29-17.78-20.69-22.66-24.22-4.73,1.77-10,3.83-10,3.83l-7.22,18.65s-10.77-2.14-9.23,5.57,10.4,28,10.63,57.14c.16,20.18-3.59,54.68-3.05,80.48C227.78,878.71,241.5,873.35,247.2,867.21Z"/><path class="e7f9fa3d-9c0a-43ee-bfc2-27c319c2df17" d="M390.13,708.22c.63,1.35.15,2.52-2.38,4.08s-8.32,5-8.32,5a16.46,16.46,0,0,1-2.45,5.49c-1.7,2.23-1.41,3.12-1.26,4.09a12.75,12.75,0,0,1-.82,4.45,9.6,9.6,0,0,0-.29,2.82c0,.37-2,6.32-3.2,7.35s-10.09,6.24-13.06,7.8S344.61,760.57,340,765.1s-32.52,32.45-38.83,37.5-18.71,16.78-23.32,16-.15-31.11,1.12-33.19,23.83-17.52,31.93-23.09,25.32-18.2,27.54-22.58,4.46-12.4,6.69-16.93,5-8.32,6.16-10.91,3-4.53,4.38-3.64,1.93,2.6,1,5.71-4.53,9.66-2.67,9.43,6.9-5,9.35-5.71,6.24-2.75,10.62-4.9S388.72,705.18,390.13,708.22Z"/><path class="ec535b3a-07d5-4d10-bd44-e1bb241f7227" d="M336.58,740.7s11.21,3.2,14,16.74c0,0-44.12,42.65-51.1,49.35s-20.67,15.14-27.22,12.81-50.23-48.91-60-59.1-14.49-28.16-9.76-39.31,18.35-21.4,31.16-2.18,45.42,63.76,45.42,63.76S328.06,749.21,336.58,740.7Z"/><path class="e7f9fa3d-9c0a-43ee-bfc2-27c319c2df17" d="M195.28,706.14s-1.14-18.38,1.61-25.18,5.11-7.93,8.2-8.65c2.39-.56,7.3.82,12.85-10.25s3.45-15.78,4.39-20.49,2.35-8,1.56-12.57-2.32-21.55-15.69-27.35-29.71-4.8-38.64.37-16,17.19-15.91,29.71,6.89,20.33,7,28.86-5.15,19-10.25,25.62,5.51,15.9,12.78,19.29C179.41,713.05,195.28,706.14,195.28,706.14Z"/><path class="e7f9fa3d-9c0a-43ee-bfc2-27c319c2df17" d="M204.52,661.23a160.15,160.15,0,0,1-.41-17.12l-15.47,11.64s1.18,31.56-7.88,45.26a8.39,8.39,0,0,0-1,8,43.22,43.22,0,0,0,15.5-2.89s-1.14-18.38,1.61-25.18,5.11-7.93,8.2-8.65c1.16-.27,2.93-.09,5.08-1.1C207.67,669.09,204.91,665.79,204.52,661.23Z"/><path class="e7f9fa3d-9c0a-43ee-bfc2-27c319c2df17" d="M206.13,662.2c-.5.8-6.26,1.28-5.3-8.63s7.61-12.23,7.45-5A55.32,55.32,0,0,1,206.13,662.2Z"/><path class="aa37784f-b86b-4d5b-aae2-6d34bab803fd" d="M729.57,1425.66l-21.65-4.15c-7.7-1.48-16.06-3.33-21.7-9.25l-36.37,11.9c-.78.25-1,7-1,7.72-.23,4.17-.83,8.36,3.31,10.85a19.18,19.18,0,0,0,6.21,2c18.75,3.7,37.95,6.58,56.93,4.32a47.81,47.81,0,0,0,14.78-3.77,22.81,22.81,0,0,0,11-10.22,6.1,6.1,0,0,0,.71-4.41c-.78-2.51-3.81-3.39-6.39-3.89Z"/><path class="aa37784f-b86b-4d5b-aae2-6d34bab803fd" d="M603.31,1391.58s-2.31,14.39,0,17.65,11.7,6.71,17.84,3.07,6.66-6.42,13.17-12.32c6.19-5.6,15.62-10.87,18.16-19.41,1.95-6.57.34-14.33-2.92-15.87s-16.12,2.31-22.65,8.06S603.31,1391.58,603.31,1391.58Z"/><path class="b8bec790-71ae-469a-8d5d-e48717b911ee" d="M667.32,893c7,3.68,12.28,13.86,14.07,22s0,10.2,0,10.2,5.66,4.93,5,6.53-5.65,5.38-5.65,5.38,1,5.24.49,7.68-2.44,7.74-2,10.44-.09,7.46-2.84,8.84-14.84.45-16,4.09-1.16,22.39-1.16,22.39-18.45,12.26-34.86,4.16-10.22-25.4-10.22-25.4,5-9.1,2.78-15.34-11.88-17.44-10-33.2,10.11-24.35,25-29.5S656.82,887.49,667.32,893Z"/><path class="b8bec790-71ae-469a-8d5d-e48717b911ee" d="M660.44,968.14c.56-1.79,3.8-2.48,7.25-2.88-5.51-1.34-12.34-3.79-12.79-7.68-.76-6.58-2.7-17.62-2.7-17.62l-11.8,5.39s-.82,35.62-6.53,52c13.31,1.23,25.41-6.8,25.41-6.8S659.28,971.78,660.44,968.14Z"/><path class="b8bec790-71ae-469a-8d5d-e48717b911ee" d="M657.59,948.55c-.29-4.2-1.68-6.56-5.65-5s-6.06,8.52-2.52,13.15S658.77,965.33,657.59,948.55Z"/><path class="a89792e6-cb44-487b-84b0-3f46107364c3" d="M652.68,884.23c-19.4.73-42.67,8.18-46.77,30.55s5.57,28.34,5.57,28.34h0c2.2,4.51,4.55,8.14,5.5,10.83a11.43,11.43,0,0,1,.52,4.46c3.81,1.58,8.69,3.18,12.54,3,7.42-.42,7.67,1.35,11.63-5.9s8-14.74,13.74-14,9.6,2.19,10.36-.51a12.06,12.06,0,0,0,.59-6c-.25-2.78,4.13-6.07,5.4-10.45s-4.06-8.85,0-13c2.65-2.7,5-4.19,6.14-6.35a6.57,6.57,0,0,0,2.58-5.34C680.37,896.41,672.09,883.5,652.68,884.23Z"/><path class="a89792e6-cb44-487b-84b0-3f46107364c3" d="M655.41,941.48c5.73.76,9.6,2.19,10.36-.51a12.06,12.06,0,0,0,.59-6c-.25-2.78,4.13-6.07,5.4-10.45a6.89,6.89,0,0,0-.15-3.71c-5.12,8.34-35.17,22.67-45.2,23.85-5.12.6-10.68-.42-14.93-1.56,2.2,4.51,4.55,8.14,5.5,10.83a11.43,11.43,0,0,1,.52,4.46c3.81,1.58,8.69,3.18,12.54,3,7.42-.42,7.67,1.35,11.63-5.9S649.68,940.73,655.41,941.48Z"/><path class="f9930285-8d27-42af-b0de-85bd836ba3a8" d="M604.31,980l-6-11.33s-13.78,2.56-17,12.48-12.13,28.39-14.35,38.18-6.13,40.91.39,44.37,12,3.85,18.15,1.44,17.61-11.88,17.61-11.88Z"/><path class="f9930285-8d27-42af-b0de-85bd836ba3a8" d="M585.16,1006.54a89.21,89.21,0,0,1-4.07,22.68c-3.76,11.27-6.53,18-5.55,26,.55,4.5-2.47,8.39-1.83,10.92a19.15,19.15,0,0,0,11.56-1.07c6.14-2.42,17.62-11.88,17.62-11.88l.56-35.18Z"/><path class="a89792e6-cb44-487b-84b0-3f46107364c3" d="M598.56,1394.19s-1.94,10.54,12.63,12.63c8.2,1.17,20.47-10.51,25.91-22.21a35.72,35.72,0,0,0,2.63-18.7s-1.13-49.78,3-67.78,16.51-86.19,16.51-86.19L639.8,1122.1l-43.28,45.34s6.29,44.21,5.76,72.36-8.95,57.17-7.21,86.78S598.56,1394.19,598.56,1394.19Z"/><path class="a89792e6-cb44-487b-84b0-3f46107364c3" d="M707.07,1179.81s8.33,35.9,3.23,71-13.76,108.2-14.83,125.81,12.12,44.93,12.12,44.93-33,16.54-58.85,15.06c0,0-6.25-71.48-3.56-93.09s10.92-48.31,8.14-63.61-10.62-72.06-10.62-72.06-10.24-15.56-12.73-30S707.07,1179.81,707.07,1179.81Z"/><path class="f9930285-8d27-42af-b0de-85bd836ba3a8" d="M620,1182.82c3,1.31,6.33,2.7,9.95,4.19,23.2,9.48,47.42,7,63.48,3.4A20.51,20.51,0,0,0,709,1166.87c-1.17-6.66-2.62-14.6-4.25-22.77-4.22-21-9.44-29.78-9.74-41.25s5.59-63.66-12.49-83.33c-13.63-14.82-26.51-20.81-32-22.86a20.39,20.39,0,0,1-5.65-3.16L619.1,973.16a20.66,20.66,0,0,0-11.53-4.39,58.53,58.53,0,0,0-9.34-.06c-4,.58-10,9.13-12.27,17.6s-4.79,28.85,1,45.07,21.22,51,17.27,70.75c-2.52,12.58-7.46,35.72-10.71,50.88a20.51,20.51,0,0,0,10.93,22.69c3.13,1.55,6.89,3.32,11.38,5.33"/><path class="f9930285-8d27-42af-b0de-85bd836ba3a8" d="M616.16,962.89s8.63,9.32,18.45,14.14c8.68,4.27,25.86,8.73,25.86,8.73l4,14.1S632.57,994.8,618.69,987s-7.21-18.92-7.21-18.92Z"/><path class="f9930285-8d27-42af-b0de-85bd836ba3a8" d="M621.34,975.88c-8.7-7.19-7.6-10.32-7.6-10.32L608,968.71s-7.31,11.08,5.64,19.15,32.45,12.12,42.62,15.77,20.86,12.62,20.86,12.62l5.43,3.27C670.28,993.66,630.05,983.07,621.34,975.88Z"/><path class="b8bec790-71ae-469a-8d5d-e48717b911ee" d="M767.83,1080.63c1.5-3.53,2.21-8.43,1.77-10.78s-4.59-8-2-9.21,6.32,4.52,6.32,4.52l2.63-5.33a3.61,3.61,0,0,1,.24-3.31,3.52,3.52,0,0,1,4.28-1.52c.89.51,4.58.67,4.58.67-1.45-1.15-4.6-4.52-3.45-7.28s8,1.72,13.18,5.45,5.1,7.76,5.94,12.13,4.06,5.42-1.68,15.09-12.71,16.62-19.39,24.33c-1.18,1.36-3.06,3.46-5.36,6L762.46,1096c4.35-2.59,7.37-4.37,7.37-4.37S766.3,1084.15,767.83,1080.63Z"/><path class="b8bec790-71ae-469a-8d5d-e48717b911ee" d="M780.41,1084.27c-1,4-10.37,7.06-10.37,7.06l-.32,0c-.66-1.5-3.21-7.64-1.87-10.72,1.52-3.53,2.22-8.42,1.77-10.78s-4.58-8-2-9.2,6.33,4.51,6.33,4.51l2.63-5.32a3.65,3.65,0,0,1,.23-3.32,3.53,3.53,0,0,1,4.3-1.51c.88.5,4.58.66,4.58.66-1.46-1.15-4.6-4.52-3.46-7.27.82-2,4.62-.21,8.61,2.32a69.65,69.65,0,0,0,6.28,8.67l-4,8.14-6.32,4S781.39,1080.26,780.41,1084.27Z"/><path class="f4466e56-5aa2-4f07-996f-1474978af83d" d="M811.18,1018.6a1.88,1.88,0,0,0-.48-2.53l-74.06-48.45a1.69,1.69,0,0,0-2.37.66l-35,58.85a1.87,1.87,0,0,0,.47,2.53l74.07,48.45a1.69,1.69,0,0,0,2.37-.67Z"/><path class="a795db05-c9d3-4410-b041-1244e0368219" d="M776.21,1077.44l35-58.84a1.88,1.88,0,0,0-.48-2.53l-74.06-48.45,2.75.9a1.52,1.52,0,0,1,.63.24l74.07,48.44a1.91,1.91,0,0,1,.47,2.54l-35,58.85a1.82,1.82,0,0,1-1.21.88l-3.21-1.19A1.81,1.81,0,0,0,776.21,1077.44Z"/><polygon class="f238faa8-17f1-4955-b513-c73e27d145c1" points="704.61 1026.97 774 1072.37 805.86 1018.75 736.48 973.36 704.61 1026.97"/><polygon class="aee25a7d-8413-42b4-a784-468c98f73c26" points="729.21 996.67 744.16 1006.45 744.51 1005.89 729.55 996.1 729.21 996.67"/><polygon class="aee25a7d-8413-42b4-a784-468c98f73c26" points="728.41 998.01 743.37 1007.79 743.71 1007.22 728.76 997.44 728.41 998.01"/><polygon class="aee25a7d-8413-42b4-a784-468c98f73c26" points="727.62 999.35 742.58 1009.13 742.92 1008.56 727.96 998.78 727.62 999.35"/><polygon class="aee25a7d-8413-42b4-a784-468c98f73c26" points="726.82 1000.69 741.78 1010.48 742.12 1009.9 727.17 1000.12 726.82 1000.69"/><polygon class="aee25a7d-8413-42b4-a784-468c98f73c26" points="732.75 1006.43 740.99 1011.81 741.33 1011.24 733.09 1005.86 732.75 1006.43"/><polygon class="aee25a7d-8413-42b4-a784-468c98f73c26" points="739.45 981.57 754.39 991.36 754.73 990.78 739.78 981 739.45 981.57"/><polygon class="aee25a7d-8413-42b4-a784-468c98f73c26" points="738.64 982.91 753.61 992.69 753.94 992.13 738.98 982.34 738.64 982.91"/><polygon class="aee25a7d-8413-42b4-a784-468c98f73c26" points="737.85 984.25 752.8 994.03 753.15 993.47 738.2 983.68 737.85 984.25"/><polygon class="aee25a7d-8413-42b4-a784-468c98f73c26" points="737.06 985.59 752.01 995.37 752.35 994.8 737.39 985.02 737.06 985.59"/><polygon class="aee25a7d-8413-42b4-a784-468c98f73c26" points="742.98 991.33 751.22 996.72 751.56 996.14 743.33 990.76 742.98 991.33"/><polygon class="aee25a7d-8413-42b4-a784-468c98f73c26" points="710.79 1020.26 725.73 1030.04 726.07 1029.47 711.12 1019.69 710.79 1020.26"/><polygon class="aee25a7d-8413-42b4-a784-468c98f73c26" points="709.98 1021.6 724.94 1031.38 725.27 1030.81 710.32 1021.03 709.98 1021.6"/><polygon class="aee25a7d-8413-42b4-a784-468c98f73c26" points="709.18 1022.94 724.14 1032.72 724.47 1032.15 709.52 1022.37 709.18 1022.94"/><polygon class="aee25a7d-8413-42b4-a784-468c98f73c26" points="708.39 1024.28 723.34 1034.06 723.68 1033.5 708.72 1023.7 708.39 1024.28"/><polygon class="b9b0a0f2-1553-4248-a94d-782a27ecbf45" points="714.32 1030.02 722.54 1035.4 722.88 1034.84 714.65 1029.45 714.32 1030.02"/><polygon class="aee25a7d-8413-42b4-a784-468c98f73c26" points="717.41 1010.64 732.35 1020.42 732.71 1019.85 717.75 1010.07 717.41 1010.64"/><polygon class="aee25a7d-8413-42b4-a784-468c98f73c26" points="716.62 1011.98 731.56 1021.76 731.91 1021.19 716.95 1011.41 716.62 1011.98"/><polygon class="aee25a7d-8413-42b4-a784-468c98f73c26" points="715.81 1013.32 730.76 1023.1 731.11 1022.53 716.15 1012.75 715.81 1013.32"/><polygon class="aee25a7d-8413-42b4-a784-468c98f73c26" points="715.01 1014.66 729.98 1024.44 730.32 1023.87 715.36 1014.09 715.01 1014.66"/><polygon class="aee25a7d-8413-42b4-a784-468c98f73c26" points="720.95 1020.39 729.18 1025.78 729.52 1025.21 721.28 1019.83 720.95 1020.39"/><polygon class="fa515920-4560-485f-83cd-34fcc33a468d" points="795.99 1018.12 800 1020.76 777.94 1057.91 773.91 1055.27 795.99 1018.12"/><polygon class="fa515920-4560-485f-83cd-34fcc33a468d" points="783.22 1027.54 787.25 1030.17 772.77 1054.53 768.73 1051.89 783.22 1027.54"/><polygon class="fa515920-4560-485f-83cd-34fcc33a468d" points="774.61 1029.94 778.66 1032.58 767.61 1051.15 763.58 1048.53 774.61 1029.94"/><polygon class="fa515920-4560-485f-83cd-34fcc33a468d" points="772.54 1021.37 776.57 1024.01 762.46 1047.78 758.41 1045.14 772.54 1021.37"/><polygon class="fa515920-4560-485f-83cd-34fcc33a468d" points="771.89 1010.4 775.92 1013.04 757.3 1044.41 753.28 1041.77 771.89 1010.4"/><polygon class="fa515920-4560-485f-83cd-34fcc33a468d" points="753.37 1029.53 757.4 1032.16 752.12 1041.03 748.1 1038.39 753.37 1029.53"/><polygon class="fa515920-4560-485f-83cd-34fcc33a468d" points="753.18 1017.76 757.23 1020.4 746.98 1037.64 742.92 1035.01 753.18 1017.76"/><path class="fa515920-4560-485f-83cd-34fcc33a468d" d="M745.72,999.38a1.52,1.52,0,0,0,.39,2,1.36,1.36,0,0,0,1.9-.54,1.48,1.48,0,0,0-.38-2A1.38,1.38,0,0,0,745.72,999.38Z"/><path class="fa515920-4560-485f-83cd-34fcc33a468d" d="M741.83,996.84a1.55,1.55,0,0,0,.38,2,1.39,1.39,0,0,0,1.92-.55,1.54,1.54,0,0,0-.38-2A1.37,1.37,0,0,0,741.83,996.84Z"/><path class="fa515920-4560-485f-83cd-34fcc33a468d" d="M738,994.29a1.51,1.51,0,0,0,.37,2,1.36,1.36,0,0,0,1.91-.53,1.51,1.51,0,0,0-.38-2A1.35,1.35,0,0,0,738,994.29Z"/><path class="b8bec790-71ae-469a-8d5d-e48717b911ee" d="M757.13,1038.9a6.43,6.43,0,0,1-6.9-.75c-2.55-1.9-6.72-6.77-9.33-6.43s-5.57.9-5.57.9,4.38,4.56,3.25,6.79-2.62,6.42-2.62,6.42,7.62,3.65,6.7,7.49-9,1.61-11.9.07c0,0-3.09,5.57-5,5s-.94-8.62-.94-8.62l-1.93.08s-6.9,5.06-10,5.73-3.13-1.19-2.42-2.51,4-5.49,4-5.49l-14.15-3.11L683.49,1055,673,1038.57s22.17-9.55,26.71-9.68,21.58-5.51,25.21-5.63a138.67,138.67,0,0,1,17,1.12C745.37,1024.93,759.85,1037.16,757.13,1038.9Z"/><path class="b8bec790-71ae-469a-8d5d-e48717b911ee" d="M735.33,1032.62s4.38,4.56,3.25,6.79-2.62,6.42-2.62,6.42c-8.62-2.24-13.58-8.63-12.65-10.62S735.33,1032.62,735.33,1032.62Z"/><path class="b8bec790-71ae-469a-8d5d-e48717b911ee" d="M724.26,1049c5,1.21,6.5,4.37,6.5,4.37s-3.09,5.57-5,5-.94-8.62-.94-8.62l-1.93.08s-6.9,5.06-10,5.73-3.13-1.19-2.42-2.51,4-5.49,4-5.49l-.26-.06C715.91,1047.3,719.27,1047.82,724.26,1049Z"/><path class="f9930285-8d27-42af-b0de-85bd836ba3a8" d="M696.2,1027.69s6.16,6.32,4.82,22.79l-21.87,14.76-15-26.6Z"/><path class="b8bec790-71ae-469a-8d5d-e48717b911ee" d="M786.82,1089.13s-6.66-6-4.26-13.4,4.43-10.67,3.67-13.14-3.39-14.33,1.6-15.11,5.27,6.48,5.62,10a25.33,25.33,0,0,0,3.34,10.42c1.76,2.76,3.42,7.45.56,14.3S790.77,1091.92,786.82,1089.13Z"/><path class="f9930285-8d27-42af-b0de-85bd836ba3a8" d="M704.75,1144.1c-4.22-21-9.44-29.78-9.74-41.25-.22-7.71,2.38-33.87-1.4-56.15l-34.4-7.47s-7.31,6-5.49,18.68c1.58,11,19.15,95.17,20.82,135.36a131.32,131.32,0,0,0,15.71-2.2,23.25,23.25,0,0,0,18.28-26.85C707.45,1158.15,706.17,1151.21,704.75,1144.1Z"/><path class="f9930285-8d27-42af-b0de-85bd836ba3a8" d="M713.89,1102.36c12.27-4.94,52.86-18.87,52.86-18.87,7.42,1.25,13.78,6.82,14.37,12.64.77,7.62-5.33,18-5.33,18s-32.31,10.44-47.13,19.3-21.82,6-27.34,2.74C693.28,1131.3,699.2,1108.31,713.89,1102.36Z"/><path class="f9930285-8d27-42af-b0de-85bd836ba3a8" d="M713.89,1102.36c12.27-4.94,52.86-18.87,52.86-18.87a20,20,0,0,1,7.66,3l-.79,2s-51.26,20-72.86,47.21C693.57,1130.2,699.56,1108.16,713.89,1102.36Z"/><path class="f9930285-8d27-42af-b0de-85bd836ba3a8" d="M666.07,1008.81s18.74,6.65,25.41,20,9.37,36.36,11.79,42.18,15.22,31.65,18.91,37,6.29,12.11,2,18.71-10,16-21.63,12.56-30.24-36.22-36.49-50.13S652.63,1055.1,652.6,1042,661.23,1011.79,666.07,1008.81Z"/><path class="f9930285-8d27-42af-b0de-85bd836ba3a8" d="M2184.58,535.6a39.93,39.93,0,0,1-2.22,16.71c-3.18,8.76-14.23,28.66-14,36.89s3.71,14.39,11.36,15.24c5.89.65,24-5,30.15-19.34s.91-18.23,4.1-24.33,6.93-19.07,4.81-28.62S2184.58,535.6,2184.58,535.6Z"/><path class="f9930285-8d27-42af-b0de-85bd836ba3a8" d="M2209.9,585.1c-6.11,14.33-24.26,20-30.15,19.34-7.38-.82-10.84-6.62-11.31-14.41,0,.45-.05.89-.05,1.29.27,8.22,3.71,14.39,11.36,15.24,5.89.66,24-5,30.15-19.33,3-7,3.25-11.44,3.15-14.92A35,35,0,0,1,2209.9,585.1Z"/><path class="f9930285-8d27-42af-b0de-85bd836ba3a8" d="M2214,560.77a11.14,11.14,0,0,0-1.11,6.23c0-.46-1.11,2.49-1,2l.94,8.32,4.8-26.23,1.14-5.24A54.48,54.48,0,0,1,2214,560.77Z"/><path class="f9930285-8d27-42af-b0de-85bd836ba3a8" d="M2162.53,511.6l-38.87-1.74h-.87s-3.47,9-11.63,12.32-29.5,12-35.57,20.13c-5,6.69,5.9,16,28.64,10.41,16.11-3.93,17.87-12.15,36.78-12.49,13-.24,23.43-4.86,25.68-7.29Z"/><path class="f9930285-8d27-42af-b0de-85bd836ba3a8" d="M2141,539a58.44,58.44,0,0,0-7.57,1.07c-7.61,1.67-14.44,5.58-21.49,8.72-7.67,3.4-15.57,5.27-24,4.5-4.6-.42-10.47-5.21-13.5-8,0,0,.12-.23.13-.27a3.33,3.33,0,0,0-.15,1.6,7.41,7.41,0,0,0,.81,3.71,8.2,8.2,0,0,0,2.36,2.37,18.59,18.59,0,0,0,7.38,2.93c9.69,1.86,19.45-.9,28.74-3.44,7-1.92,13.92-4.16,21.1-5.47,7.51-1.37,15.1-2.21,22.59-3.62a15.82,15.82,0,0,0,6.6-2.37c2.31-1.73,3.07-5.08,2.7-7.73-4.28,3.57-11.11,4.64-16.65,5.28C2147,538.57,2144,538.72,2141,539Z"/><path class="a89792e6-cb44-487b-84b0-3f46107364c3" d="M2115.14,521.33s9.86-41.07,3-87.11c-4.68-31.66-16.78-121.29-3.16-185.71,0,0,8.79,14.34,31.06,23.06s26.82,16.95,26.82,16.95L2169.13,349s-9.44,28.28-8.32,45.3,4.15,21.11,4.71,50.62-.41,79.94-.41,79.94S2136.83,530.26,2115.14,521.33Z"/><path class="a89792e6-cb44-487b-84b0-3f46107364c3" d="M2220.43,456.14c-3.52-28.92-7.62-54.52-6.25-74.47s-2.72-95.52-12.69-118.77l-55.41,8.67s9.48,95.2,20.61,141.8,15.67,138.94,15.67,138.94.94,11.14,14.42,11.73,22-23.85,22-23.85S2224,485.08,2220.43,456.14Z"/><path class="e7f9fa3d-9c0a-43ee-bfc2-27c319c2df17" d="M2002.21,165s-14.46.64-17.46.64-12.85-.43-13,3.85c0,0,.43,2.36,5.25,2.68s18.75,1.07,18.75,1.07-5.36,2.57-7.18,4.61-3.33,2.68-3.54,6.32-1.39,5.26-.21,5.68,5.25-.42,5.25-.42l2.14,4.71s-2,2-1.93,3.53,2.78,4,6.11,5,5.57.1,5.36-.64a36.59,36.59,0,0,0-2.46-4.08,37.31,37.31,0,0,0,11.45.65,64.31,64.31,0,0,0,13.18-3.22l11.79,1.82,3.74-19.17-10.39-.43a36.42,36.42,0,0,0-10.06-7.29C2013.24,167.71,2010.8,164.67,2002.21,165Z"/><path class="b11fa3d9-97f7-4126-b025-f4243e930947" d="M1998.57,197.5c.64-.32-.86-4.18-1-4.82a9.45,9.45,0,0,0-1.4-3.21c-.75-1.07-6.1,0-6.1,0s2.68-5.9,3.75-6.65,4-1.5,6-3,9.32-2,9.32-2l-.75,5.47s.75.75,2.78,2.46,4.6-.11,6.32-1.6a75.21,75.21,0,0,1,8.15-6.22,4.77,4.77,0,0,0,1.67-1.9c1.11,1,1.75,1.69,1.75,1.69l.48,0c-.91,4.85-2.52,11.44-2.52,11.44l9.61,3.44-.92,4.7L2024,195.46a64.31,64.31,0,0,1-13.18,3.22,37.31,37.31,0,0,1-11.45-.65,36.59,36.59,0,0,1,2.46,4.08c.21.74-2,1.71-5.36.64s-6-3.54-6.11-5,1.93-3.53,1.93-3.53C1994.39,200.17,1997.93,197.82,1998.57,197.5Z"/><path class="ba363696-0b21-4a3c-b1a8-86f0596240f2" d="M2031.87,175.4s30,1.85,37.41,2.38,16.93,2.15,16.93,2.15,16.71-30.32,20.14-37.82,9.32-33.64,18.84-38.35,19.5-9,19.41,13.28-8.36,46.39-11.8,53.25-19.71,39.85-37.38,42.42-68.36-9.49-68.36-9.49Z"/><path class="ba363696-0b21-4a3c-b1a8-86f0596240f2" d="M2103,189.61c2-14,9-51.17,16.06-58.37,3.68-3.75,12.22,9.18,19.53,23.25a105.71,105.71,0,0,1-5.76,15.8c-3.42,6.86-19.71,39.85-37.38,42.42a39.68,39.68,0,0,1-5.33.35C2095.15,207.14,2101.74,198,2103,189.61Z"/><path class="e7f9fa3d-9c0a-43ee-bfc2-27c319c2df17" d="M2193.48,82s-1.54,11.81,1.54,18.19-7.6,25.13-21.25,30.94-27-2.6-27.21-5.87,4.54-27.09,4.54-27.09Z"/><path class="ba363696-0b21-4a3c-b1a8-86f0596240f2" d="M2197.9,112.59c-1.45,12.5-29.61,57.86-37.28,69.46s-13.74,59.88-20.48,64.83-14.81-15.74-14.81-15.74V148.05L2143,118.2s9.1,11.7,15.66,13.45,35-21.92,35-21.92Z"/><path class="ba363696-0b21-4a3c-b1a8-86f0596240f2" d="M2158.64,131.65l-4.58-11.26-10.33,7.3,1.83,10.23s-18.71,53.6-22.07,111.94l6.41,15.85,7.87-9.45s6.22-62.8,8.34-76,5.52-41.19,5.52-41.19Z"/><path class="ba363696-0b21-4a3c-b1a8-86f0596240f2" d="M2114.57,243.87c.26-7.4-2.55-57.93-1.47-85.79.88-23,14.91-46.79,19.83-54.47a6.54,6.54,0,0,1,4.61-3h0a6.56,6.56,0,0,1,7.08,8.78c-7.71,20.75-22.11,70.5-10.89,130.13a6.65,6.65,0,0,1,.1,1.54c-1.49,25.43.13,55.75.79,74.07,0,.86.08,1.66.16,2.45h0c-2.39,12.61-8.63,13-17.55,6.44a49.4,49.4,0,0,1-9.62-9.39,6.57,6.57,0,0,1-1.3-5.11C2108,299.39,2113.93,262.58,2114.57,243.87Z"/><path class="ba363696-0b21-4a3c-b1a8-86f0596240f2" d="M2141.37,129.27l12.69-8.88s-2.32-14.35,0-24.27l-5.07-.21S2138.7,113,2141.37,129.27Z"/><path class="ba363696-0b21-4a3c-b1a8-86f0596240f2" d="M2121.65,142.65l8.69-5.31-4.65-8.07s10.5-22.45,19.79-32.08l4.32,1S2118.53,161.39,2134,241C2134,241,2112.62,182.93,2121.65,142.65Z"/><path class="ba363696-0b21-4a3c-b1a8-86f0596240f2" d="M2195.87,101.07s-.87,15.16-15.6,31.23-40.49,58.17-45.11,94c-3.52,27.37-24,69-23.24,91,.12,3.47,4.62,6.25,7.19,7.84a87.43,87.43,0,0,0,11.45,5.94,119.4,119.4,0,0,0,25.77,7.31c1.5.27,3,.51,4.5.75,8.85,1.36,17.88,2.16,26.81,1.23s17.05-4.06,25-8l.1-.06a14,14,0,0,0,7.18-16.35c-10.69-38.23-9.07-38.8-12.27-46.41-3.69-8.78-7.5-20.6-5.87-26.4s36.38-103.68,36.38-103.68l-38-29.15Z"/><polygon class="ba363696-0b21-4a3c-b1a8-86f0596240f2" points="2155.2 281.72 2156.04 295.16 2186.38 293.2 2158.77 293.28 2155.2 281.72"/><path class="e7f9fa3d-9c0a-43ee-bfc2-27c319c2df17" d="M2191.83,31.21c-9.57-6.43-24.72-5.72-35.4,1.5S2142.94,48.64,2142,52.56s-2.12,7.3-3.06,10.28,2.16,6.72,2.16,6.72c-3.35,4.21-.75,14.21-.05,16.63a5.47,5.47,0,0,0-.57,2.27,2.63,2.63,0,0,0,1.89,2.49,53.63,53.63,0,0,1,1.37,8.71c0,2.4-.32,10.43,9.09,10.58s23-5.41,31.55-12.24,17.5-20.64,20.09-34.45S2201.4,37.65,2191.83,31.21Z"/><path class="e7f9fa3d-9c0a-43ee-bfc2-27c319c2df17" d="M2141,86.19h0c1.32-3.18,4.54-8.12,5.43-11.33,1.15-4.16-7.16-8.32-7.16-8.32h0a13.08,13.08,0,0,0,1.78,3C2137.74,73.77,2140.34,83.77,2141,86.19Z"/><path class="e7f9fa3d-9c0a-43ee-bfc2-27c319c2df17" d="M2191.83,31.21c-9.57-6.43-24.72-5.72-35.4,1.5-8.49,5.74-12,12.43-13.56,16.89,1.41,3.26,3.38,5.77,6.14,6.37,9.38,2,18.19-.91,22.91.5,3.59,1.07,5.41,7.86,5.81,14s4.24,8.26,3,15.11c-1,5.94-9.44,14.83-11.77,21.13A61.91,61.91,0,0,0,2184.37,98c8.55-6.83,17.5-20.64,20.09-34.45S2201.4,37.65,2191.83,31.21Z"/><path class="a89792e6-cb44-487b-84b0-3f46107364c3" d="M2193,26.81c-14.79-10.32-32.12-6.16-41.13,0-3.17,2.16-6.72,5.46-10.56,12.37-3.15,5.69-3.21,17.29,10.13,18.33,7.22.57,16.79-.83,24-2.24,7.83,5.08,4.71,13.41,5.76,16.2s2.21,6.36,4,7.37c1.08.62,3.12-1.15,3.65-1.75,1.28-1.47,10.16-11.77,10.73,1a57.9,57.9,0,0,0,4.9-14.49,36.31,36.31,0,0,0,.62-6h0C2207.58,52.51,2207.2,36.75,2193,26.81Z"/><path class="a89792e6-cb44-487b-84b0-3f46107364c3" d="M2181.21,71.47c1.06,2.79,2.21,6.36,4,7.37,1.08.62,3.12-1.15,3.65-1.75,1.28-1.47,10.16-11.77,10.73,1a57.9,57.9,0,0,0,4.9-14.49,36.31,36.31,0,0,0,.62-6c-8.37,4.31-18.67,5.85-24.26,6.4C2181.24,67.1,2180.67,70,2181.21,71.47Z"/><path class="e7f9fa3d-9c0a-43ee-bfc2-27c319c2df17" d="M2147.68,109c.8-11.66-1.36-17.56-1.36-17.56-.13-.51-2.3.06-4-.49h0a53.63,53.63,0,0,1,1.37,8.71C2143.73,101.5,2143.55,106.63,2147.68,109Z"/><path class="adb82b4c-120e-4148-86ea-1245137e2567" d="M2188.23,88.68c1.15.73,3.81,1.79,9-3.77s5.11-10.81,2.53-12.56a4.34,4.34,0,0,0-6.39,1.34C2192,75.71,2188.23,88.68,2188.23,88.68Z"/><path class="e7f9fa3d-9c0a-43ee-bfc2-27c319c2df17" d="M2188.23,88.68c1.15.73,3.81,1.79,9-3.77s5.11-10.81,2.53-12.56a4.34,4.34,0,0,0-6.39,1.34C2192,75.71,2188.23,88.68,2188.23,88.68Z"/><path class="ba363696-0b21-4a3c-b1a8-86f0596240f2" d="M2197.9,210.26c5.72-14.62,21.43-41.37,21.43-41.37l6.81,4.54c-10.2,28.87-23.36,66.22-24.35,69.74-1.63,5.8,2.18,17.62,5.87,26.4,3,7,1.8,8.06,10,38.32a24,24,0,0,1-14.31,28.65l-.31.12c-6-20.63-15.24-48.78-22.26-54.94-8.3-7.31-34.24-6.62-47.5-5.74-.1-5.78-.13-11.68-.06-17.52L2180.82,245S2192.18,224.87,2197.9,210.26Z"/><path class="e7f9fa3d-9c0a-43ee-bfc2-27c319c2df17" d="M2138.83,239.91a18.71,18.71,0,0,0-4.3-4.58c-2.13-1.33-8-.47-12.31-1.08s-9.19-2-11.74-2.55-3.89,2.81-1.5,5.49,4.7,3.65,10.42,3.92,9.71,0,8.21,5.13S2138.83,239.91,2138.83,239.91Z"/><polygon class="fa515920-4560-485f-83cd-34fcc33a468d" points="2142.52 299.28 2089.06 276.92 2058.82 181.07 2112.28 203.43 2142.52 299.28"/><polygon class="a10fd469-568f-4634-b2e8-e09284386dec" points="2097.59 199.7 2095.41 192.81 2073.47 183.64 2075.64 190.53 2097.59 199.7"/><path class="e7f9fa3d-9c0a-43ee-bfc2-27c319c2df17" d="M2153.38,248.84c-4,.62-5.05-3-9.09-6.33s-7.54-6.88-10.4-7.33-5.79,8.68-6.8,10a13.32,13.32,0,0,1-6.32,3.6c-2.38.54-8.95.43-12.28-1.95s-9.93-10.07-9.93-10.07c-6.8-2.07,1.06,16.68,3.67,19.74S2114,266,2116,267s16.79-2.12,21.41-1.54,14.11,3.35,23.53,2.16l2.81-21C2158.73,247.75,2154.83,248.61,2153.38,248.84Z"/><path class="e7f9fa3d-9c0a-43ee-bfc2-27c319c2df17" d="M2162.05,259.06c-5.27-.36-17-1.13-21.65-1.1-6,0-15.06,2.39-20.74,2.63-4.9.21-18.3-11.26-23.68-19.76.73,5.25,4.58,13.68,6.25,15.65,2.61,3.06,11.72,9.5,13.73,10.53s16.79-2.12,21.41-1.54,14.11,3.35,23.53,2.16Z"/><path class="ba363696-0b21-4a3c-b1a8-86f0596240f2" d="M2147.47,244.18l-.92,27.14s72.93-.85,84.88-10.42,16.68-55,17-64.52,4-37.43-7.69-54.65c-5.12-7.54-28.37-1.16-30,27.34s-2,66.09-2,66.09Z"/><path class="a27997c6-d0af-4bdf-b719-130a906bbb9c" d="M223.54,1108.09c7.13-.85,14.45-2.17,21.64-1.33a10.43,10.43,0,0,1,5.26,1.77c2.51,2,3.09,5.7,2.09,8.73s-3.24,5.47-5.6,7.61c-10,9-22.61,14.24-35.23,18.36-9.41,3.07-23.85,7.32-32.18-.37-8.55-7.89-2.75-18,4.69-24.17,6.56-5.4,14.34-7.57,22.6-8.54C212.39,1109.5,218,1108.76,223.54,1108.09Z"/><path class="a27997c6-d0af-4bdf-b719-130a906bbb9c" d="M144,1063.43c5.81-3.13,11.63-6.76,18-8.29a8.43,8.43,0,0,1,5,0c2.73,1.06,4.35,4.44,4.43,7.65a20.15,20.15,0,0,1-2.46,9.09c-5.74,11.85-14.92,20.94-24.41,29-7.07,6-18.07,14.73-27.5,10.1-9.67-4.76-7.82-16.35-3.35-24.6,3.94-7.29,9.91-11.89,16.64-15.49C135,1068.4,139.49,1065.88,144,1063.43Z"/><path class="a89792e6-cb44-487b-84b0-3f46107364c3" d="M139.33,843.25S131.83,861,136.58,880c0,0,3,69.81,0,81.26s-15.66,34.41-18.26,56.77c-3,25.75-5.68,67.12-5.68,67.12s20.4,21.66,44.39-3.45c0,0-2.17-20.16.45-47.92,2.67-28.22,23.74-69.51,26.49-81s10.18-56,10.18-56l-9.23-46.26Z"/><path class="a89792e6-cb44-487b-84b0-3f46107364c3" d="M181.18,1121.39s26.61,15.52,50.87,10c0,0-5.29-71.91,1.54-111.47s15.28-78.66,16.82-102-4.72-57.31-4.72-57.31l-20.84-20.84-61.43,1.38s-9.89,41.69,16.25,63.11c0,0,11.57,70.53,13.18,86s-5.18,36.26-6.59,47.33S182.77,1092.28,181.18,1121.39Z"/><path class="ec535b3a-07d5-4d10-bd44-e1bb241f7227" d="M151.89,674.76a16.25,16.25,0,0,0-4.34-.33c-4.09.23-12.31,1.42-18.71,6.87-8.88,7.57-6.7,20.38.87,38s32.32,61.14,30.43,72.06c-1.8,10.37-13.18,21.76-22.1,50.32a16.73,16.73,0,0,0,.56,11.54c3.26,7.62,11.9,19.47,34.64,24.32,25.43,5.43,48.29,2.69,62.33-3A17,17,0,0,0,245.68,855a95.44,95.44,0,0,0-4.45-14.48c-2.71-6.86-9.9-14.84-10.19-33.19-.25-15.4,5.77-31.32,7.7-36a17,17,0,0,1,1.2-2.37c2.64-4.33,12.88-21.81,11.48-30.32-1.31-8-16.49-19.7-22-23.75a17.07,17.07,0,0,1-3.59-3.56h0a16.41,16.41,0,0,0-2-2.24L200.69,687.4a17.1,17.1,0,0,0-8.24-4.28Z"/><path class="a89792e6-cb44-487b-84b0-3f46107364c3" d="M216.64,603.8c-5.22-6.34-14.27-13.35-34.84-11.17-9.92,1.06-17.92,8.67-21.89,14.12-4.45,6.11-8.5,14.86-7.46,32.4s.1,32.37-11.26,43.68c-6.32,6.29-9.41,24.13-3.63,34.92a32.27,32.27,0,0,1,.57-22.81l.11-.26-.11.26a33.53,33.53,0,0,0,2,26.43,14.61,14.61,0,0,0,4.15,3.21c14.89,7.68,34.07,13.42,38.34,13,3.36-.32,7.89-2.63,12.15-6.29a40.3,40.3,0,0,1-4.92,5.17c8.93-3.89,13.56-14.08,15.47-19.55a54.4,54.4,0,0,1-3.59,12.17s5.87-9.52,6.24-17.12-3.45-20.05-3.45-20.05h0c-3.91-18.54-8.37-32.17-1.09-39.51l2.05-3c.19,0,1.15,3.42,3.94,2.66,1.4-.38,3.24-7.9,4.88-12.21.39-1,1-2.38,1.6-3.83C233.37,621.47,216.64,603.8,216.64,603.8Z"/><path class="a89792e6-cb44-487b-84b0-3f46107364c3" d="M220.53,627.24c-3.8,6.39-10.5,8-18.31,15.36s-7.65,25.06-2.86,41.16A100.17,100.17,0,0,1,203.65,713a70.05,70.05,0,0,0-6.56-25.6s6.07,16.91,2.8,28.4-13.55,16.83-13.55,16.83c3.88-4.1,7.3-12.32,7.3-12.32C187.29,730.52,179.5,733,179.5,733a50.62,50.62,0,0,0,12.82-45.37c1,42-25.42,43.61-25.42,43.61l2.13-4.11c-1.45,1.57-4.94,4.24-7.32,2.63s-4.16-7-4.16-7l-.21,5.81c-2.57-1.43-5.77-7.55-5.77-7.55l-.19,4.89c-8.56-12.51-1.18-38.64-1.18-38.64-8.77,20.32-3.49,36.25-3.49,36.25-6.76-6.2-6.23-20.15-6.23-20.15a20.81,20.81,0,0,0-.39,10.23c-1.38-3.43-3.46-12.46,4.36-26s8.77-22.36,8.77-22.36a53.12,53.12,0,0,1-4.26,9.61,48.45,48.45,0,0,0,3.81-25.93h0c0,13.34-2.38,24.81-11.58,34-6.32,6.29-9.41,24.13-3.63,34.92a32.27,32.27,0,0,1,.57-22.81l.11-.26-.11.26a33.53,33.53,0,0,0,2,26.43,14.61,14.61,0,0,0,4.15,3.21c14.89,7.68,34.07,13.42,38.34,13,3.36-.32,7.89-2.63,12.15-6.29a40.3,40.3,0,0,1-4.92,5.17c8.93-3.89,13.56-14.08,15.47-19.55a54.4,54.4,0,0,1-3.59,12.17s5.87-9.52,6.24-17.12-3.45-20.05-3.45-20.05h0c-3.91-18.54-8.37-32.17-1.09-39.51l2.05-3c.19,0,1.15,3.42,3.94,2.66,1.4-.38,3.24-7.9,4.88-12.21.39-1,1-2.38,1.6-3.83l-5.57,2.68A35.4,35.4,0,0,0,220.53,627.24Z"/><path class="a89792e6-cb44-487b-84b0-3f46107364c3" d="M181.8,592.63c-9.92,1.06-17.92,8.67-21.89,14.12-4.45,6.11-8.5,14.86-7.46,32.4.2,3.44.32,6.77.32,10a79.47,79.47,0,0,1,2.08,7.81c1.16,6.91-1.7,23.12-1.7,23.12,1.94-4.41,3.17-15.25,3.17-15.25,1.43,6.2-2.67,26.94-2.67,26.94,4.23-7.27,8.06-24.87,7.2-49.21s15.15-39.74,21.29-43.64a31.73,31.73,0,0,1,22.33-4.09C199,592.68,191.78,591.58,181.8,592.63Z"/><g class="f2e16148-3a64-4934-ab00-7e500c3037f2"><path class="a89792e6-cb44-487b-84b0-3f46107364c3" d="M176.29,616.59a19.67,19.67,0,0,0-2.57,3,32.14,32.14,0,0,0-4.63,9.21,35.73,35.73,0,0,0-1.45,6.77,57.73,57.73,0,0,0-.23,7.76c.09,5.42.29,11.24.26,17.1,0,11.7-1,23.34-3.5,31.67a40.17,40.17,0,0,1-4,9.58,26.54,26.54,0,0,1-2.27,3.21,27.1,27.1,0,0,0,2.18-3.33,41.32,41.32,0,0,0,3.75-9.75,89.33,89.33,0,0,0,2.34-14.55c.47-5.37.63-11.12.65-16.84s-.1-11.47-.11-16.89a57.08,57.08,0,0,1,.35-7.83,35,35,0,0,1,1.59-6.87,31.83,31.83,0,0,1,4.95-9.27A20.18,20.18,0,0,1,176.29,616.59Z"/></g><path class="a89792e6-cb44-487b-84b0-3f46107364c3" d="M170.1,715a118.9,118.9,0,0,0,4.57-12.65,89.53,89.53,0,0,0,3-13.49,51.14,51.14,0,0,0,.49-7.8c-.09-2.64-.38-5.39-.57-8.13-.9-10.94-1.56-21.82-1-29.93a42.29,42.29,0,0,1,1.57-9.65,13,13,0,0,1,1.52-3.35,13.2,13.2,0,0,0-1.4,3.45,42.71,42.71,0,0,0-1.26,9.74c-.32,8.14.56,19,1.44,29.67.19,2.7.45,5.36.53,8.06a49.1,49.1,0,0,1-.56,7.85,84.53,84.53,0,0,1-3.32,13.55A107.06,107.06,0,0,1,170.1,715Z"/><path class="a89792e6-cb44-487b-84b0-3f46107364c3" d="M202.54,603.7a20.58,20.58,0,0,0-7.47,1.75,28.36,28.36,0,0,0-6.77,4A36.06,36.06,0,0,0,182,616a56.79,56.79,0,0,0-7.85,15.1c-1.55,4.38-2.25,7.39-2.27,7.38a75.34,75.34,0,0,1,1.88-7.61,50.08,50.08,0,0,1,7.55-15.39,32.88,32.88,0,0,1,6.48-6.53,27.53,27.53,0,0,1,7.07-3.87A19.91,19.91,0,0,1,202.54,603.7Z"/><g class="f2e16148-3a64-4934-ab00-7e500c3037f2"><path class="a89792e6-cb44-487b-84b0-3f46107364c3" d="M209.93,612.67a23.37,23.37,0,0,0-3.88,1.76,33,33,0,0,0-8.71,7,35.23,35.23,0,0,0-7.42,13.93,45.39,45.39,0,0,0-1.54,8.88c-.26,3.09-.43,6.24-.49,9.4-.14,6.34.26,12.63.31,18.54a75.2,75.2,0,0,1-1.43,16,91.14,91.14,0,0,1-3,10.9c-.86,2.58-1.43,4-1.42,4s.52-1.49,1.31-4.13a94.62,94.62,0,0,0,2.68-11.06,78,78,0,0,0,1.09-16c-.14-5.84-.59-12.09-.44-18.33.06-3.12.23-6.25.51-9.32a46.06,46.06,0,0,1,1.62-9,35.37,35.37,0,0,1,7.74-14.08,32.52,32.52,0,0,1,9-7A23.5,23.5,0,0,1,209.93,612.67Z"/></g></g></g></svg>