<svg id="b5ac3ab0-83ee-4a9b-9cad-4bd733210fa0" data-name="b9cfb86f-d01d-4a12-8deb-02ed704072f0" xmlns="http://www.w3.org/2000/svg" xmlns:xlink="http://www.w3.org/1999/xlink" viewBox="0 0 595.56 554.85"><defs><clipPath id="afebfd7e-d2cc-4b96-a8a0-6797fe0cd02b"><path d="M26.54,157.68c0-81.08,120.68-146.82,269.55-146.82S565.67,76.68,565.67,157.68v184.5c0-81.1-120.71-146.81-269.59-146.81S26.54,261.13,26.54,342.21Z" style="fill:none"/></clipPath><clipPath id="e151b64e-0861-43ca-b49e-433a1ef2b2f0"><path d="M565.67,157.68v184.5C565.67,423.28,445,489,296.14,489S26.54,423.28,26.54,342.21V157.68c0,81.08,120.68,146.81,269.55,146.81S565.67,238.79,565.67,157.68Z" style="fill:none"/></clipPath></defs><g id="b51eecb1-6ce7-4fa5-82d1-ef9392790fb6" data-name="bc156647-211e-4b1b-ae62-5dbde0b9f86a"><path d="M297.78,187.5C133.32,187.5,0,258.94,0,347.07v48.14c0,88.13,133.32,159.57,297.78,159.57a533.09,533.09,0,0,0,102.47-9.7h0a41.11,41.11,0,0,0-4.11-18h0l-.08-.14a41.74,41.74,0,0,0-3.45-5.83l-14.37-24.26a41.25,41.25,0,0,0-4.3-7.27h0A41.15,41.15,0,0,0,337.29,473q-19.28,1.68-39.49,1.7c-120.13,0-220.07-46.37-240.91-107.52,20.84-61.12,120.78-107.52,240.89-107.52,120.86,0,221.26,47,241.26,108.6-4.3,13.28-12.32,25.87-23.47,37.45a94.69,94.69,0,0,0-26.44,65.65v1.41l41.33,22c40.74-27.3,65.1-61.92,65.1-99.59V347.08C595.56,258.94,462.24,187.5,297.78,187.5Z" style="fill:#73d0d9"/><path d="M530.46,492.48v2.32c40.73-27.3,65.1-61.92,65.1-99.59V350c0,28.25-13.71,54.79-37.74,77.81A89.55,89.55,0,0,0,530.46,492.48Z" style="fill:#070b3b"/><path d="M0,347.28v48c0,88.13,133.32,159.57,297.78,159.57a533.09,533.09,0,0,0,102.47-9.7h0A41.34,41.34,0,0,0,359,503.75h0c-1.41,0-2.82.07-4.22.21a550.85,550.85,0,0,1-57,2.92C133.32,506.81,0,435.37,0,347.28Z" style="fill:#070b3b"/><path d="M297.78,212.08c-135.25,0-244.89,58.75-244.89,131.22v.15a72.85,72.85,0,0,0,4,23.73c20.84-61.1,120.78-107.5,240.89-107.5,120.86,0,221.26,47,241.26,108.6a72.88,72.88,0,0,0,3.6-22.6v-2.4C542.67,270.85,433,212.08,297.78,212.08Z" style="fill:#071841"/><path d="M297.78,0C148.23,0,27,65,27,145.1V334.87c0-80.14,121.24-145.1,270.79-145.1s270.78,65,270.78,145.1V145.08C568.56,65,447.33,0,297.78,0Z" style="fill:#071841"/><path d="M336.48,288.88q-19,1.46-38.7,1.48c-149.55,0-270.79-65-270.79-145.1V334.87C27,415,148.23,480,297.78,480q19.71,0,38.7-1.48Z" style="fill:#519399"/><g style="clip-path:url(#afebfd7e-d2cc-4b96-a8a0-6797fe0cd02b)"><path d="M175.26,46.28A3.62,3.62,0,0,1,173.17,48c-15.63,5.28-21.31,18.58-23,24.06-4,12.68-1.57,23.59,6.42,29.2a2.17,2.17,0,0,1,.83,2c20.85,10.13,49.74-18.8,42.35-42.39-1.26-4-6.77-17-24.48-14.61m-20.35,60.43c-5.23,1.38-19.73-19.16-4.9-44.8,9.56-16.51,23.35-19.37,23.47-19.38,5.8-.26,23.45-1.06,29.14,17,8.22,26.09-23.83,58-47,46.83a3.41,3.41,0,0,1-.74.37m61-79.08a387.11,387.11,0,0,0-80.24,22.25v76.81A388,388,0,0,1,216,104.43V27.55" style="fill:#0ef;opacity:0.20000000298023224;isolation:isolate"/><path d="M326.24,21.86Q311.39,21,296.09,21h-2.42V37.89h2.38q15.29,0,30.15.91V21.86" style="fill:#0ef;opacity:0.20000000298023224;isolation:isolate"/><path d="M311.67,50.21Q303.91,50,296.05,50q-4.71,0-9.39.09v5.69q4.68-.09,9.39-.09,7.86,0,15.62.24V50.21" style="fill:#fcd02d"/><path d="M411.81,183.88a1.59,1.59,0,0,1-1.09-1.49v-9.71c0-1.11,1.14-1.22,1.78-.46a1.67,1.67,0,0,1,.4,1V183a.84.84,0,0,1-.74.93h0a.92.92,0,0,1-.33,0m17,4.93a1.65,1.65,0,0,1-1-1.52V160c.11-1.2,1.12-1,1.62-.48a1.78,1.78,0,0,1,.46,1.14v27.33c-.09,1-.81.93-1,.87m-34.72-9.2a1.5,1.5,0,0,1-1.15-1.44V144.68c.13-1.34,1.41-1.1,1.94-.43a1.64,1.64,0,0,1,.33.92v33.51a1,1,0,0,1-1,1h-.13m51,14.76a1.78,1.78,0,0,1-1-1.57V156.28c.1-1.17,1.09-1.06,1.63-.33a2,2,0,0,1,.37,1.06v36.52c-.1,1.15-1,.84-1,.83M375.79,176a1.47,1.47,0,0,1-1.17-1.4V136.17c.13-1.35,1.46-1.16,2-.51a1.53,1.53,0,0,1,.34.92v38.5a1,1,0,0,1-1,1h-.18m-38.34-5a1.35,1.35,0,0,1-1.23-1.31V125.19a1.18,1.18,0,0,1,2.1-.66,1.32,1.32,0,0,1,.37.88v44.52a1.1,1.1,0,0,1-1.11,1.09h-.13m19.45,2.14a1.41,1.41,0,0,1-1.22-1.36V122.9c.24-1.56,1.76-1.11,2.2-.39a2.18,2.18,0,0,1,.21.7v48.87c-.15,1-.73,1.09-1.19,1m99.39-28.87c-44.78-18-100.19-28.72-160.17-28.72h-5.34v60.64h5.34c60,0,115.39,10.67,160.17,28.72V144.28" style="fill:#0ef;opacity:0.20000000298023224;isolation:isolate"/><path d="M170.51,187.49h0m5.49-1.55c-1,.38-1.85.65-2.84.93,1-.29,1.83-.56,2.84-.93m-5.88,1.62h0m-.39.07h0m-.37.06h0m-.38,0h0m-2.71-2.91h0m-.24,0h0m-10.35,1c4.06,2,8,2.57,13.29,1.93a22.33,22.33,0,0,1-13.3-1.9m19.69-63a2.89,2.89,0,0,1-.06,3c26.19-2.62,32.88,25.23,17.3,44.71-5.39,6.73-15.07,14-26.08,14.35,3.33-.09,6.27-2.14,9.65-2,1.54.08,1.34,1.71.66,2.49a2.79,2.79,0,0,1-.49.42c31.85-13.13,35.65-52.9,12.5-61.92a25.36,25.36,0,0,0-13.48-1.07" style="fill:#a1dbcc"/><path d="M157.39,182.86a4.1,4.1,0,0,1-1.63,2.9c1,.66,5.06,2.76,12.28,2.1,1.66-.16,9.88-1.07,9.29-4.09,0-.22-.32-1.27-1.72-.75-4.63,1.72-11.55,3.09-18.22-.16" style="fill:#fcd02d"/><path d="M173.17,122.08c-31.69,10.73-37.39,53.75-19.84,64,1.9,1.11,4.62-1.69,4-4.1-.19-.71-.28-.77-1.74-1.79-5.11-3.59-7.56-11.35-7.34-17.16a40.35,40.35,0,0,1,10.8-26.47,30.82,30.82,0,0,1,14.13-9,3.8,3.8,0,0,0,2.58-3.34A2,2,0,0,0,174,122a2,2,0,0,0-.85.07" style="fill:#fff"/><path d="M170.51,107.94h0m5.49-1.55c-1,.37-1.85.64-2.84.92,1-.28,1.83-.55,2.84-.92M170.12,108h0m-.39.06h0m-.37.06h0m-.38.06h0m-2.71-2.91h0m-.24,0h0m-10.39,1c4.06,2,8,2.57,13.29,1.93a22.37,22.37,0,0,1-13.26-1.93m19.69-63a2.89,2.89,0,0,1-.06,3c26.19-2.62,32.88,25.24,17.3,44.71-5.39,6.73-15.07,14-26.08,14.35,3.33-.09,6.26-2.17,9.65-2,1.67.11,1.24,1.93.55,2.62a2.88,2.88,0,0,1-.66.43c32.47-13.65,36.28-52.9,12.78-62a25.46,25.46,0,0,0-13.45-1.11" style="fill:#a1dbcc"/><path d="M157.39,103.28a4.08,4.08,0,0,1-1.63,2.89c1,.66,5.06,2.77,12.28,2.1,1.66-.15,9.88-1.07,9.29-4.09,0-.22-.32-1.26-1.72-.74-4.63,1.71-11.56,3.07-18.22-.16" style="fill:#fff"/><path d="M173.17,42.53c-31.7,10.72-37.4,53.74-19.84,64,1.9,1.11,4.62-1.7,4-4.11-.19-.7-.28-.76-1.74-1.79C150.48,97,148,89.29,148.25,83.48A40.23,40.23,0,0,1,159.05,57a30.91,30.91,0,0,1,14.13-9,3.8,3.8,0,0,0,2.58-3.34A2,2,0,0,0,174,42.44h0a2.12,2.12,0,0,0-.83.08" style="fill:#fcd02d"/><path d="M84.47,96l-.07.18a1.34,1.34,0,0,1,.07-.18m-1.77-.26c-10.09,28.35-2.48,50,14.81,42,4.31-2,10.85-6.51,17.56-16.92-.63.06-1.31,0-1.6-1.34-16,22.58-30.16,20.29-32.86,4.12-1.29-7.77-.06-16.91,3.67-27.17-.58,1.39-1.4,1.59-1.69.83a2.42,2.42,0,0,1,.11-1.57m6.52-8.93a52.7,52.7,0,0,0-4.69,9,52.7,52.7,0,0,1,4.69-9m.16-.24-.16.23.16-.23m.19-.28-.11.16.11-.16m.2-.29-.1.12.07-.09m.2-.3h0m5.27-9.12a37.58,37.58,0,0,0-5.71,6.31,37.58,37.58,0,0,1,5.71-6.31m.1-.08-.09.08.09-.08" style="fill:#a1dbcc"/><path d="M96.22,75.78c-8.64,6.89-15.44,21.61-13.2,22,.07,0,.73.07,1.29-1.34A50.94,50.94,0,0,1,90,85.68a33.8,33.8,0,0,1,6.5-7.06,3.23,3.23,0,0,1-.25-2.87" style="fill:#fff"/><path d="M99.25,72.47c-5.12,3-3,6.36-2.22,6.5a1.64,1.64,0,0,0,1.2-.4c5.06-3.3,9.06-3.19,11.53-2.51,5.32,1.47,7.84,6.18,8.87,8.85,1.91,5,3.85,15.69-4.59,31.88-1.35,2.58-.26,4.23.82,4.11,5.23-.58,15.5-30.18,5.39-44.51-5-7.06-12.84-8.53-21-3.92" style="fill:#fcd02d"/><path d="M93.87,173.08l-.06.07.06-.07m.13-.16h0m3.43-5.56c-14.07,11.44-17.32,41-4.7,42.66,4,.55,11-2.38,17.23-12.44-.61,0-.91-.23-1.06-1-8.26,13.27-19.37,15.18-22,3.79-1.58-6.8.31-18.66,6.91-27.26a33.43,33.43,0,0,0-4.33,7.48c-1,2.49-1.45.84-1.46.82-.08-1,2.39-5.53,2.42-5.58A34,34,0,0,1,94,170.65c1-1.22,2.89-1.61,3.44-3.34" style="fill:#a1dbcc"/><path d="M97.43,167.33c-6.16,5-10.77,14.61-9,14.67.46,0,.72-.61,1-1.39a29.48,29.48,0,0,1,8.12-11.33,2.13,2.13,0,0,1-.16-1.93" style="fill:#fff"/><path d="M99.47,165.08c-3.44,2-2,4.27-1.5,4.36a1.15,1.15,0,0,0,.81-.26c3.41-2.22,6.07-2.15,7.69-1.71,3.5.95,5.15,4.08,5.82,5.86,1.25,3.32,2.52,10.52-3,21.44-.84,1.66-.25,2.86.58,2.76,3.43-.41,10.12-20.35,3.48-29.94-3.23-4.65-8.41-5.59-13.88-2.51" style="fill:#fcd02d"/><path d="M445.12,155.45c-.83-.2-1,.44-1,.84V192.8c.11,1.33,1.17,1.91,1.7,1.48a.91.91,0,0,0,.3-.74V157a1.74,1.74,0,0,0-1-1.57" style="fill:#fcd02d"/><path d="M428.82,159.08c-.63-.12-1,.16-1,.87v27.33c.13,1.52,1.48,1.87,1.91,1.26a1,1,0,0,0,.17-.61V160.61a1.6,1.6,0,0,0-1-1.53" style="fill:#ec91a4"/><path d="M411.81,171.68a.86.86,0,0,0-1.06.57,1,1,0,0,0,0,.34v9.76c0,1.25,1.33,1.92,1.93,1.28a1,1,0,0,0,.25-.69v-9.77a1.58,1.58,0,0,0-1.09-1.49" style="fill:#ec91a4"/><path d="M394.09,143.68c-.68-.07-1,.24-1.12,1V178.2c.14,1.52,1.61,1.75,2.08,1.11a1.25,1.25,0,0,0,.19-.62V145.14a1.5,1.5,0,0,0-1.15-1.45" style="fill:#fcd02d"/><path d="M375.76,135.17a1,1,0,0,0-1.15.82h0v38.62c.15,1.5,1.66,1.69,2.14,1a1.07,1.07,0,0,0,.2-.63v-38.4a1.44,1.44,0,0,0-1.18-1.41" style="fill:#fcd02d"/><path d="M356.85,121.85a1.06,1.06,0,0,0-1.18.92v49a1.32,1.32,0,0,0,2.21,1,1.6,1.6,0,0,0,.2-.64V123.21a1.4,1.4,0,0,0-1.22-1.36" style="fill:#fcd02d"/><path d="M337.42,124.08a1.11,1.11,0,0,0-1.21,1v44.6a1.31,1.31,0,0,0,2.26.88,1.66,1.66,0,0,0,.21-.65v-44.5a1.37,1.37,0,0,0-1.25-1.31" style="fill:#fcd02d"/><path d="M253.57,88.81c-9.29,5.09-15.12,7.1-24.93,8.6V99a67.83,67.83,0,0,0,16.8-4.48c5.72-2.33,5.72-2.33,8.13-5.7M287.8,77.48c-20.32.74-30.67,9.11-32.94,12.28,6.22-2.13,11.44-6.36,17.71-8.39a53.47,53.47,0,0,1,15.23-2.29A48.66,48.66,0,0,1,303.67,81c5.68,1.71,10.39,5.43,15.84,7.6-.37-.47-9.34-11.52-31.63-11.12m147.79-4.14c-.44.21-.71.35-1.15.59,6.67,8.2,12.76,12.88,21.74,16.69V89.08c-8.56-3.63-14.33-8-20.6-15.7m-35.53-40.3c-13.27-2-20.66,7-33.24,26.68-11.63,18.15-22.61,35.29-46,27.71,1.43,4.54,17.24,4.9,27.81-2.34,3.44-2.36,3.44-2.36,26.61-35,11.77-16.55,19.78-17.71,28.89-14.21,3.6,1.38,7.85,4.76,11.09,8.82,6.91,8.66,11.48,18.84,18.08,27.71l1.13-.61C427.36,62.25,422.72,51,414.72,42a27.26,27.26,0,0,0-14.6-9" style="fill:#fcd02d"/><path d="M456.26,72.54a36.59,36.59,0,0,0-11.38-2.74,21.79,21.79,0,0,0-6.23.58c-8.82,2-13.7,10.52-22,13.37-11.53,4-23.22-3.46-34.76.48-7.82,2.66-12.32,10.07-19.47,13.69-4.44,2.23-27.52,11.89-46.82-17.71-6-9.26-14.31-21.94-30.45-19.42-28.32,4.42-28.59,42.36-56.48,47.29v1.6c27.85-5,28.31-42.88,56.66-47.31C300.39,60,307.92,71.54,313.42,80c21.91,33.5,46.7,21.36,51.44,18.58,6.8-4,11.73-10.7,19.48-13.29,11.5-3.85,23.18,4.41,34.66-.53,7.2-3.1,11.62-10.56,19.58-12.46l2.12-.49a21.14,21.14,0,0,1,4.83-.25,35.42,35.42,0,0,1,10.76,2.63V72.55" style="fill:#5ecff5"/><path d="M173.17,141.28c-15.12,5.07-18.42,25.64-8,30.1,11.72,5,26.92-12.28,21.39-24.32-2.31-5.05-7.72-7.37-13.44-5.78" style="fill:#a1dbcc"/><path d="M285,21.08a484.83,484.83,0,0,0-56.32,4.5v6.16a481.44,481.44,0,0,1,56.38-4.46v-6.2" style="fill:#0ef;opacity:0.20000000298023224;isolation:isolate"/><path d="M285,32.22a484.67,484.67,0,0,0-56.32,4.51v6.16A483,483,0,0,1,285,38.38V32.22" style="fill:#0ef;opacity:0.20000000298023224;isolation:isolate"/><path d="M258.45,44.68q-15.19,1.16-29.81,3.21v6.19q14.61-2.05,29.81-3.22V44.68" style="fill:#0ef;opacity:0.20000000298023224;isolation:isolate"/><path d="M27.67,268.2a81.12,81.12,0,0,0-1.13,13.48v6.16a81.12,81.12,0,0,1,1.13-13.48V268.2" style="fill:#070b3b"/><path d="M27.67,279.35a81.69,81.69,0,0,0-1.13,13.52v6.21c.3-4.06.49-9.5,1.13-13.52V279.4" style="fill:#070b3b"/><path d="M492,66.89q-7.21-4.15-15-8v20q7.79,3.84,15,8v-20" style="fill:#0ef;opacity:0.20000000298023224;isolation:isolate"/><path d="M512.05,79.89q-6.3-4.59-13.24-8.9V91q6.93,4.31,13.24,8.9v-20" style="fill:#0ef;opacity:0.20000000298023224;isolation:isolate"/><path d="M529.32,94.08q-5.31-5-11.31-9.7v20q6,4.73,11.31,9.7v-20" style="fill:#0ef;opacity:0.20000000298023224;isolation:isolate"/><path d="M543.52,109.41A138.25,138.25,0,0,0,534.3,99v20a132.39,132.39,0,0,1,9.22,10.43v-20" style="fill:#0ef;opacity:0.20000000298023224;isolation:isolate"/><path d="M554.41,125.68a112.57,112.57,0,0,0-7-11.06v20a112.57,112.57,0,0,1,7,11.06v-20" style="fill:#0ef;opacity:0.20000000298023224;isolation:isolate"/><path d="M492,101.6q-7.21-4.16-15-8v20q7.79,3.84,15,8v-20" style="fill:#0ef;opacity:0.20000000298023224;isolation:isolate"/><path d="M512.05,114.6q-6.3-4.59-13.24-8.9v20q6.93,4.3,13.24,8.9v-20" style="fill:#0ef;opacity:0.20000000298023224;isolation:isolate"/><path d="M529.32,128.81q-5.31-5-11.31-9.7v20q6,4.72,11.31,9.7v-20" style="fill:#a1dbcc"/><path d="M543.52,144.08q-4.24-5.33-9.22-10.43v20a132.39,132.39,0,0,1,9.22,10.43v-20" style="fill:#0ef;opacity:0.20000000298023224;isolation:isolate"/><path d="M554.41,160.39a112.57,112.57,0,0,0-7-11.06v20a112.57,112.57,0,0,1,7,11.06v-20" style="fill:#0ef;opacity:0.20000000298023224;isolation:isolate"/><path d="M492,136.28q-7.21-4.16-15-8v20q7.79,3.84,15,8v-20" style="fill:#0ef;opacity:0.20000000298023224;isolation:isolate"/><path d="M512.05,149.28q-6.3-4.59-13.24-8.9v20q6.93,4.31,13.24,8.9v-20" style="fill:#a1dbcc"/><path d="M529.32,163.52q-5.31-5-11.31-9.7v20q6,4.73,11.31,9.7v-20" style="fill:#0ef;opacity:0.20000000298023224;isolation:isolate"/><path d="M543.52,178.83q-4.24-5.33-9.22-10.43v20a132.39,132.39,0,0,1,9.22,10.43v-20" style="fill:#a1dbcc"/><path d="M554.41,195.08a112.57,112.57,0,0,0-7-11.06v20a112.57,112.57,0,0,1,7,11.06v-20" style="fill:#0ef;opacity:0.20000000298023224;isolation:isolate"/><path d="M492,171q-7.21-4.16-15-8v20q7.79,3.84,15,8V171" style="fill:#a1dbcc"/><path d="M512.05,184q-6.3-4.59-13.24-8.9v20q6.93,4.31,13.24,8.9V184" style="fill:#0ef;opacity:0.20000000298023224;isolation:isolate"/><path d="M529.32,198.28q-5.31-5-11.31-9.7v20q6,4.72,11.31,9.7v-20" style="fill:#0ef;opacity:0.20000000298023224;isolation:isolate"/><path d="M543.52,213.54a138.7,138.7,0,0,0-9.22-10.46v20q4.88,5,9.22,10.42v-20" style="fill:#0ef;opacity:0.20000000298023224;isolation:isolate"/><path d="M554.41,229.81a112.57,112.57,0,0,0-7-11.06v20a112.57,112.57,0,0,1,7,11.06v-20" style="fill:#0ef;opacity:0.20000000298023224;isolation:isolate"/><path d="M492,205.74q-7.21-4.16-15-8v20q7.79,3.84,15,8v-20" style="fill:#0ef;opacity:0.20000000298023224;isolation:isolate"/><path d="M512.05,218.74q-6.3-4.59-13.24-8.9v20q6.93,4.29,13.24,8.89v-20" style="fill:#0ef;opacity:0.20000000298023224;isolation:isolate"/></g><g style="clip-path:url(#e151b64e-0861-43ca-b49e-433a1ef2b2f0)"><path d="M257.32,320.58a33,33,0,0,0-8.47,3.61,33,33,0,0,1,8.47-3.61m.35-.09h0m15.31-.83c35.28,6.18,41.44,42.1,17.5,57.67-7.52,4.89-14,5.32-18.35,5.61a2.54,2.54,0,0,0-.06-3c30.17-3,37.89-33.65,19-49.33-7.16-6-15-7.35-18.34-8,1.88-.06,2.13-1.81,1.12-2.64a1.94,1.94,0,0,0-.88-.39" style="fill:#66c2ab"/><path d="M269.52,319.33c3.55.19,3.92.43,4.21.63a1.46,1.46,0,0,1,.52,2h0a1.48,1.48,0,0,1-.25.31,1.83,1.83,0,0,1-1.59.39,33.4,33.4,0,0,0-21.52,4.11,3.16,3.16,0,0,0-2-2.57,36.22,36.22,0,0,1,20.67-4.86" style="fill:#fcd02d"/><path d="M248,324a3.33,3.33,0,0,1,2.76,2,2.48,2.48,0,0,1-.82,3c-13.64,10.47-10.48,25.76-6.47,33.15,3.63,6.67,11.11,15,26.12,16.49,3.1.32,3.94,3.52,2,5-6.31,4.56-42.17-11-37-40.87,2-11.49,11-18.94,13.4-18.72" style="fill:#fff"/><path d="M257.32,400.13a32.7,32.7,0,0,0-8.47,3.62,32.7,32.7,0,0,1,8.47-3.62m.35-.05h0m15.31-.82c35.28,6.18,41.44,42.09,17.5,57.67-7.52,4.89-14,5.32-18.35,5.6a2.52,2.52,0,0,0-.07-3c30.18-3,37.91-33.64,19-49.33-7.16-6-15-7.35-18.34-8a1.47,1.47,0,0,0,1.12-2.63,1.94,1.94,0,0,0-.88-.39" style="fill:#66c2ab"/><path d="M269.52,398.88c3.55.2,3.93.45,4.21.63a1.46,1.46,0,0,1,.52,2h0a1.48,1.48,0,0,1-.25.31,1.8,1.8,0,0,1-1.59.39,33.32,33.32,0,0,0-21.52,4.07,3.16,3.16,0,0,0-2-2.57,36.23,36.23,0,0,1,20.67-4.87" style="fill:#fff"/><path d="M248,403.53a3.33,3.33,0,0,1,2.76,2,2.49,2.49,0,0,1-.82,3c-13.64,10.47-10.48,25.76-6.47,33.14,3.63,6.68,11.11,15,26.12,16.51,3.1.32,3.93,3.51,2,4.93-6.31,4.57-42.17-11-37-40.86,2-11.49,11-18.94,13.4-18.72" style="fill:#fcd02d"/><path d="M269.55,334.53c16.9,1.64,22,17.79,12,26.42-11.21,9.67-30.16.42-28.56-14,.84-7.57,8-12.93,16.58-12.47" style="fill:#070b3b"/><path d="M26.74,185a86.67,86.67,0,0,0,8.17,30.68v6.16a86.35,86.35,0,0,1-8.17-30.71V185" style="fill:#070b3b"/><path d="M26.74,196.15a86.35,86.35,0,0,0,8.17,30.71V233a86.45,86.45,0,0,1-8.17-30.73v-6.15" style="fill:#070b3b"/><path d="M26.74,207.28A86.35,86.35,0,0,0,34.91,238v6.15a86.35,86.35,0,0,1-8.17-30.71v-6.15" style="fill:#070b3b"/><path d="M26.74,231.08a86.35,86.35,0,0,0,8.17,30.71V268a86.35,86.35,0,0,1-8.17-30.71v-6.16" style="fill:#070b3b"/><path d="M26.74,242.28A86.35,86.35,0,0,0,34.91,273v6.16a86.35,86.35,0,0,1-8.17-30.71v-6.16" style="fill:#070b3b"/><path d="M27.74,261.6a87.82,87.82,0,0,0,7.17,22.53v6.15a87.82,87.82,0,0,1-7.17-22.53v-6.16" style="fill:#070b3b"/><path d="M26.54,281.68a85.29,85.29,0,0,0,8.37,36.4v6.16a85.29,85.29,0,0,1-8.37-36.44v-6.12" style="fill:#070b3b"/><path d="M26.54,292.87a85.16,85.16,0,0,0,8.37,36.41v6.16c-5.32-13.6-8.25-21.09-8.37-36.44v-6.16" style="fill:#070b3b"/><path d="M27.74,317.93a87.82,87.82,0,0,0,7.17,22.53v6.15a87.43,87.43,0,0,1-7.17-22.53v-6.16" style="fill:#070b3b"/><path d="M126.22,382.83l.75.33v1.12c.22,5.55,3.27,10.5,7.76,12.61q6.57,2.67,13.45,5.14a15.18,15.18,0,0,1,9.15,13.36v1.25l-.82-.27v-1.2A13.79,13.79,0,0,0,148.18,403q-6.88-2.46-13.45-5.15c-4.92-2.3-8.26-7.74-8.51-13.83v-1.13m-21.55-10.71.67.37c-.3,5.72-3.22,8-7.45,5.81A216.57,216.57,0,0,1,75.3,363.08c-3.24-2.25-5.35-.39-5.5,4.87v2.55l-.53-.44v-2.55c.17-5.85,2.43-7.85,6-5.34a213.42,213.42,0,0,0,22.56,15.25c3.84,2,6.5-.08,6.78-5.28" style="fill:#fff"/><path d="M157.12,354.68l.83.27v2c-.25,5.27-3.48,7.78-8.24,6.37q-8-2.82-15.59-5.93c-4-1.42-6.67.63-6.87,5.35v2.43l-.75-.32v-2.44c.23-5.23,3.14-7.5,7.62-5.93q7.55,3.19,15.55,6c4.28,1.26,7.19-1,7.41-5.74v-2m-73-69.49.59.41v16.62c.16,4.94,2.33,9.62,5.52,11.92q4,2.55,8.11,5c3.86,2.54,6.49,7.63,6.68,13v22.23l-.67-.37V331.74c-.18-4.82-2.54-9.41-6-11.69q-4.16-2.44-8.11-5c-3.53-2.55-5.93-7.75-6.11-13.24V285.18" style="fill:#fff"/><path d="M47.45,347.54a149.5,149.5,0,0,0,21.81,22.54l.53.44a209,209,0,0,0,28.53,20v18.07c-21.26-12.5-38.58-27-50.87-43v-18" style="fill:#fcd02d"/><path d="M116.57,400.28a322.29,322.29,0,0,0,39.94,16.1l.82.27a392,392,0,0,0,39.12,10.57v18.06c-29.56-6.41-56.54-15.58-79.88-26.93V400.28" style="fill:#66c2ab"/><path d="M78,337.08A226.41,226.41,0,0,0,104.38,354l.67.37q10.2,5.58,21.45,10.55l.75.32q8.69,3.81,17.94,7.22v18.07q-9.41-3.47-18.22-7.34l-.75-.33q-11-4.85-20.92-10.29l-.67-.37a225.87,225.87,0,0,1-26.64-17V337.08" style="fill:#66c2ab"/><path d="M116.57,320.28c23.34,11.36,50.32,20.53,79.88,26.94v18.06A391.07,391.07,0,0,1,158,354.91l-.83-.27a322.9,322.9,0,0,1-40.55-16.3V320.28" style="fill:#fcd02d"/><path d="M58.67,245.89c15,15.13,34.63,28.66,58,40V304a247.39,247.39,0,0,1-31.83-18.39l-.59-.41A181,181,0,0,1,58.67,264V245.89" style="fill:#f4f8ff"/></g><path d="M408.43,302.08s-.13,6,2.3,7c5,2.06,10.93-4.08,14.9-11,4.65-8.12-2.53-8.67-7.85-3.86C409.58,301.62,408.43,302.08,408.43,302.08Z" style="fill:#eef5f7"/><path d="M408.43,300.46s-.61,6,1.82,7c5,2.07,11.41-4.07,15.38-11,4.65-8.12-2.53-8.68-7.85-3.87C409.58,300,408.43,300.46,408.43,300.46Z" style="fill:#070b3b"/><path d="M408.73,242.93c1.43,9.79-2,47.12-.58,58.22.54,4.41,6.16,2.83,7.53-2.13,3.2-11.54,19.66-92,11.87-100.52-8.17-9-9.78-13.05-9.78-13.05s-15.55-8-15.72-2.76C401.53,198.68,406.77,229.55,408.73,242.93Z" style="fill:#070b3b"/><path d="M467.09,124.28c.39,0,1.69-.65,2,.73.17.89-1.53,1.68-1.85,1.82.2-.08.84-.27.93.61.14,1.27-4.61,4-7,5.37-2.3,1.94-2.79,2.24-4.48,2.74.55-3.81-.8-7.8-5.56-6,0,0,4.35-6.75,6.57-8.21,4-2.6,8.46-2.49,8.93-1,.32,1-2.06,1.64-2.06,1.64s4-1,4.36.29C469.12,123.28,467.44,124.08,467.09,124.28Z" style="fill:#fca372"/><path d="M451.27,128.79c-10.72,5.42-27.52,8-32.74-2.37-2.54-5-14.83.2-15.39,10-1,17.55,45.12,6.68,52.68-1.17C459.94,131,455.33,126.73,451.27,128.79Z" style="fill:#fff"/><path d="M494.86,127.19s-15.37,9.82-19.74,21-4.83,18.89-4.83,18.89l-21.2-19s3.6-13.86,8.11-20.25,17.47-13.15,17.47-13.15Z" style="fill:#fff"/><path d="M485.09,141.08c.36-.14,1.31-1.25,2.08-.09.51.75-.75,2.15-1,2.4.15-.15.66-.58,1.1.2.62,1.11-2.67,5.52-4.38,7.69-1.35,2.69-1.69,3.15-3,4.27-1-3.71-3.8-6.86-7.46-3.3,0,0,1.94-5.66,3.41-7.88,2.63-3.94,6.34-7.29,7.35-6.11.69.8-.4,2.09-.4,2.09s2.35-2.78,3.17-1.77C486.56,139.34,485.34,140.76,485.09,141.08Z" style="fill:#fca372"/><path d="M431.55,315.54s-.62,4.77.7,6c4,3.77,10.43-.85,18.42-6.55,7.3-5.21,3.69-7.75-4.89-5.21C435.19,312.94,431.55,315.54,431.55,315.54Z" style="fill:#eef5f7"/><path d="M433,313.28a3,3,0,0,0-1.61,2.55c-.06,1.5,0,3.57.83,4.34,4,3.77,10.43-.85,18.42-6.55,7.3-5.21,3.69-7.75-4.89-5.21A70.71,70.71,0,0,0,433,313.28Z" style="fill:#070b3b"/><path d="M402.1,189c4.48,24.13,22.86,52.82,27.28,64.34,4.33,11.28.47,48.68,2.81,59.51.89,4.13,8.36,2.18,9-1.33,1.19-6.64,9.7-48.31,4.69-69-4.18-17.25-6.84-46.86-11-63.83C433.34,172.41,400.92,182.68,402.1,189Z" style="fill:#070b3b"/><path d="M410,122.08c-5.72,2.55-8.92,6.94-10.31,17.24-2.43,18-2,30,.36,51.49.89,8,28.09,3.56,36.22-6.79,3.49-4.44-1.23-8.11-.26-19.82s5.59-17.58,2.47-27c-1.19-3.6-6.25-9.53-10.34-10.93C423.41,124.68,413.39,120.53,410,122.08Z" style="fill:#fff"/><path d="M436.09,133c-6.69,2.57-11.6,5.65-10.29,16.28.82,6.63-4.33,9.45,1.68,19.85s2.8,12.52,2.8,12.52,5.41-2.26,5.5-13.67c.07-8.43,3.58-21.52,3.58-21.52Z" style="fill:#a1dbcc"/><path d="M428.13,120.61s-3,4.07,0,5.64A18.15,18.15,0,0,1,414.46,122c2.33,0,3.9-4.83,8.31-12.23C424.89,106.19,428.13,120.61,428.13,120.61Z" style="fill:#fca372"/><path d="M422.54,110.91c-.59,4.43,2.89,10.28,6.63,10.77s6.08-4.76,6.93-9-2-8.42-5.73-8.91S423.12,106.48,422.54,110.91Z" style="fill:#fca372"/><path d="M420.44,113.85c2.78,0,5,3.23,5.92,3.25s3.59-1,6.23-2.84,2.07-2.47,5.29-3.63-.45-10.43-9.75-9.41C421.67,101.93,420.44,108.61,420.44,113.85Z" style="fill:#eef5f7"/><path d="M432.35,117.19h0a1.36,1.36,0,0,0,1-1.62l-.41-1.78a1.36,1.36,0,0,0-1.62-1h0a1.36,1.36,0,0,0-1,1.62l.41,1.79A1.35,1.35,0,0,0,432.35,117.19Z" style="fill:#fca372"/><path d="M472.29,151.41c-7.74,9.18-11.08,21.72-19.14,10.31-6.37-9-8.91-22.19-17.76-29.66-4.3-3.63-13.56,6-10.25,15.24,5.93,16.55,21.28,31.11,28,34.92,15,8.48,22.42-16,26.31-26.2C481.57,150.48,475.23,147.93,472.29,151.41Z" style="fill:#fff"/><path d="M477.26,142.38c-3.26,2.37-3.15-2.57-4.86-2.4-3.34.34.39,7.29.6,10.61Z" style="fill:#fca372"/><path d="M461.45,123.43c-1.59,1.91,1.05,2.13,4.08,2.13s3.43,2-1,2.23-6.46,3.16-8.32,1.62.74-4.87,1-4.93Z" style="fill:#fca372"/><path d="M526,225.87V413c27-22.56,42.58-49.37,42.58-78.13V147.75C568.56,176.51,552.93,203.28,526,225.87Z" style="fill:#519399"/><path d="M288.48,496.67h0" style="fill:#fca372"/><path d="M535.67,246.68c15.71-16.54,25.82-34.92,29-54.38v6.15c-3.13,19.47-13.24,37.85-29,54.39v-6.16" style="fill:#fcd02d"/><path d="M535.67,257.79c15.71-16.54,25.82-34.92,29-54.39v6.15c-3.13,19.47-13.24,37.85-29,54.39v-6.15" style="fill:#fcd02d"/><path d="M535.67,268.94c15.71-16.54,25.82-34.92,29-54.39v6.13c-3.13,19.47-13.24,37.85-29,54.39v-6.15" style="fill:#fcd02d"/><path d="M535.67,292.76c15.71-16.54,25.82-34.92,29-54.38v6.15c-3.13,19.47-13.24,37.85-29,54.39v-6.16" style="fill:#fcd02d"/><path d="M535.67,303.91c15.71-16.54,25.82-34.92,29-54.38v6.15c-3.13,19.47-13.24,37.85-29,54.39v-6.16" style="fill:#fcd02d"/><path d="M546.76,301.79c9.4-12.91,15.53-26.71,17.85-41.12v6.16c-2.32,14.4-8.45,28.21-17.85,41.12v-6.16" style="fill:#fcd02d"/><path d="M535.67,349.08c15.71-16.54,25.82-34.92,29-54.38v6.15c-3.13,19.47-13.24,37.85-29,54.39v-6.16" style="fill:#fcd02d"/><path d="M535.67,360.28c15.71-16.54,25.82-34.92,29-54.39v6.19c-3.13,19.47-13.24,37.85-29,54.39v-6.19" style="fill:#fcd02d"/><path d="M546.76,358.08c9.4-12.91,15.53-26.71,17.85-41.12v6.16c-2.32,14.4-8.45,28.21-17.85,41.12v-6.16" style="fill:#fcd02d"/></g></svg>