<svg id="Capa_1" enable-background="new 0 0 501 501"  viewBox="0 0 501 501"  xmlns="http://www.w3.org/2000/svg"><path d="m490 256c0 51.481-15.878 99.253-43.004 138.686-1.17 1.7-2.36 1.385-3.571 3.054-1.44 1.985-2.91 5.948-4.408 7.887-18.304 23.7-40.854 43.953-66.511 59.62-3.237 1.977-6.524 1.881-9.859 3.71-3.334 1.829-6.715 5.582-10.142 7.258-19.815 9.692-41.131 16.787-63.505 20.845-3.154.572-6.328-.917-9.522-.467-3.47.489-6.963 2.905-10.478 3.246-7.896.768-15.902 1.161-24 1.161-2.787 0-5.562-.047-8.326-.139-3.437-.115-6.855-2.3-10.254-2.555-3.267-.245-6.515 1.446-9.745 1.074-13.886-1.599-27.419-4.358-40.499-8.18-3.397-.992-6.763-4.056-10.097-5.19s-6.636-.337-9.903-1.609c-18.916-7.362-36.692-17.006-52.989-28.594-.445-.316-57.674-57.544-57.988-57.986-28.463-40.024-45.199-88.968-45.199-141.821 0-47.665 13.611-92.15 37.159-129.782 1.997-3.191 10.362-15.298 12.536-18.163 9.437-12.438 20.034-23.947 31.631-34.366 3.156-2.835 16.357-13.516 19.796-16.015 11.232-8.162 23.183-15.394 35.742-21.581 4.49-2.212 21.317-9.304 25.197-10.7 25.902-9.316 53.828-14.393 82.939-14.393 135.31 0 245 109.69 245 245z" fill="#012d4e"/><path d="m176.175 35.357v90.475c0 5.523-4.477 10-10 10s-10-4.477-10-10v-80.475h-9.338c-5.275 0-9.595-4.084-9.973-9.262 8.187-4.033 16.631-7.623 25.302-10.738h4.009c5.523 0 10 4.477 10 10zm260.821 260h-19.338c-5.523 0-10 4.477-10 10s4.477 10 10 10h9.338v80.475c0 5.523 4.477 10 10 10 .692 0 1.368-.07 2.021-.204 2.757-3.57 5.419-7.219 7.979-10.941v-89.329c0-5.524-4.477-10.001-10-10.001zm-174.49 0h-19.338c-5.523 0-10 4.477-10 10s4.477 10 10 10h9.338v80.475c0 5.523 4.477 10 10 10s10-4.477 10-10v-90.475c0-5.523-4.477-10-10-10zm-96.331-133.513h-19.338c-5.523 0-10 4.477-10 10s4.477 10 10 10h9.338v80.475c0 5.523 4.477 10 10 10s10-4.477 10-10v-90.475c0-5.523-4.477-10-10-10zm-91.342 133.513h-19.339c-5.523 0-10 4.477-10 10s4.477 10 10 10h9.338v80.475c0 5.523 4.477 10 10 10s10-4.477 10-10v-90.475c.001-5.523-4.477-10-9.999-10zm91.342 132.321h-19.338c-5.523 0-10 4.477-10 10s4.477 10 10 10h9.338v36.723c6.535 2.543 13.207 4.814 20 6.799v-53.522c0-5.523-4.477-10-10-10zm178.494-245.834v80.475c0 5.523 4.477 10 10 10s10-4.477 10-10v-90.475c0-5.523-4.477-10-10-10h-19.338c-5.523 0-10 4.477-10 10s4.477 10 10 10zm17.837 245.834h-19.338c-5.523 0-10 4.477-10 10s4.477 10 10 10h9.338v28.537c6.852-3.352 13.525-7.014 20-10.968v-27.569c0-5.523-4.477-10-10-10zm74.49-265.834h-19.338c-5.523 0-10 4.477-10 10s4.477 10 10 10h9.338v80.475c0 5.523 4.477 10 10 10s10-4.477 10-10v-90.475c0-5.523-4.477-10-10-10z" fill="#008a80"/><path d="m65.163 159.997c-19.94 0-36.163 16.223-36.163 36.164v41.841c0 19.94 16.223 36.163 36.163 36.163s36.163-16.223 36.163-36.163v-41.841c0-19.941-16.222-36.164-36.163-36.164zm16.163 78.005c0 8.912-7.25 16.163-16.163 16.163s-16.163-7.251-16.163-16.163v-41.841c0-8.913 7.25-16.164 16.163-16.164s16.163 7.251 16.163 16.164zm75.18 53.662c-19.94 0-36.163 16.223-36.163 36.164v41.841c0 19.94 16.223 36.163 36.163 36.163s36.163-16.223 36.163-36.163v-41.841c0-19.941-16.223-36.164-36.163-36.164zm16.163 78.005c0 8.912-7.25 16.163-16.163 16.163s-16.163-7.251-16.163-16.163v-41.841c0-8.913 7.25-16.164 16.163-16.164s16.163 7.251 16.163 16.164zm-71.546-311.994c.134 1.264.204 2.547.204 3.845v41.841c0 19.94-16.223 36.163-36.163 36.163-11.278 0-21.367-5.19-28.004-13.307 3.91-6.249 8.094-12.309 12.536-18.163 2.016 6.63 8.187 11.469 15.468 11.469 8.913 0 16.163-7.251 16.163-16.163v-29.67c6.311-5.67 12.918-11.017 19.796-16.015zm287.666-.064c-15.875-11.526-33.188-21.193-51.619-28.682-12.117 5.848-20.497 18.259-20.497 32.591v41.841c0 19.94 16.223 36.164 36.163 36.164s36.164-16.223 36.164-36.164v-41.841c0-1.32-.072-2.624-.211-3.909zm-19.789 45.75c0 8.913-7.25 16.164-16.163 16.164s-16.163-7.251-16.163-16.164v-41.841c0-8.912 7.25-16.163 16.163-16.163s16.163 7.251 16.163 16.163zm-16.163 188.303c-19.94 0-36.163 16.223-36.163 36.164v41.841c0 19.94 16.223 36.163 36.163 36.163s36.163-16.223 36.163-36.163v-41.841c0-19.941-16.223-36.164-36.163-36.164zm16.163 78.005c0 8.912-7.25 16.163-16.163 16.163s-16.163-7.251-16.163-16.163v-41.841c0-8.913 7.25-16.164 16.163-16.164s16.163 7.251 16.163 16.164zm-116.163-209.672c-19.94 0-36.163 16.223-36.163 36.164v41.841c0 19.94 16.223 36.163 36.163 36.163s36.163-16.223 36.163-36.163v-41.841c0-19.941-16.223-36.164-36.163-36.164zm16.163 78.005c0 8.912-7.25 16.163-16.163 16.163s-16.163-7.251-16.163-16.163v-41.841c0-8.913 7.25-16.164 16.163-16.164s16.163 7.251 16.163 16.164zm-16.163-212.645c-19.94 0-36.163 16.223-36.163 36.163v41.841c0 19.94 16.223 36.164 36.163 36.164s36.163-16.223 36.163-36.164v-41.841c0-19.94-16.223-36.163-36.163-36.163zm16.163 78.004c0 8.913-7.25 16.164-16.163 16.164s-16.163-7.251-16.163-16.164v-41.841c0-8.912 7.25-16.163 16.163-16.163s16.163 7.251 16.163 16.163zm20 358.634v35.065c-6.579 1.193-13.249 2.123-20 2.78v-37.844c0-8.912-7.25-16.163-16.163-16.163s-16.163 7.251-16.163 16.163v38.866c-6.739-.225-13.409-.722-20-1.481v-37.385c0-19.94 16.223-36.163 36.163-36.163s36.163 16.222 36.163 36.162z" fill="#0ed1b2"/><path d="m449.597 299.597c-61.181 61.181-156.295 67.747-224.76 19.699l-93.085 93.085-43.134-43.134 93.085-93.085c-48.048-68.465-41.482-163.579 19.699-224.76 68.537-68.537 179.657-68.537 248.194 0 68.538 68.538 68.538 179.658.001 248.195z" fill="#98e5fb"/><path d="m118.848 399.476c-7.127-7.127-7.127-18.682 0-25.809l80.257-80.257c7.127-7.127 18.682-7.127 25.809 0 7.127 7.127 7.127 18.682 0 25.809l-80.257 80.257c-7.127 7.127-18.682 7.127-25.809 0z" fill="#c7eefd"/><path d="m185.139 352.63c5.858 5.858 5.858 15.355 0 21.213l-81.96 81.96c-22.42-15.942-42.041-35.563-57.983-57.983l81.96-81.96c5.858-5.858 15.355-5.858 21.213 0z" fill="#0266eb"/><path d="m113.385 424.385-19.092-19.092c-5.858-5.858-5.858-15.355 0-21.213l54.077-54.077c3.905-3.905 10.237-3.905 14.142 0l22.627 22.627c5.858 5.858 5.858 15.355 0 21.213l-50.541 50.541c-5.858 5.859-15.355 5.859-21.213.001z" fill="#0494fb"/><path d="m422.727 272.727c-53.697 53.697-140.757 53.697-194.454 0s-53.697-140.757 0-194.454 140.757-53.697 194.454 0 53.697 140.757 0 194.454z" fill="#df3d9b"/><path d="m325.389 38c-5.43 6.328-8.715 14.547-8.715 23.52v41.841c0 19.94 16.223 36.164 36.163 36.164s36.163-16.223 36.163-36.164v-41.841c0-2.943-.354-5.805-1.02-8.546-19.6-10-41.097-14.991-62.591-14.974zm43.611 65.361c0 8.913-7.25 16.164-16.163 16.164s-16.163-7.251-16.163-16.164v-41.841c0-8.912 7.25-16.163 16.163-16.163s16.163 7.251 16.163 16.163zm-84.423-59.159c2.819 5.146 4.423 11.048 4.423 17.318v41.841c0 19.94-16.223 36.164-36.163 36.164s-36.163-16.223-36.163-36.164v-11.928c3.539-4.569 7.405-8.966 11.599-13.16 2.718-2.718 5.521-5.298 8.401-7.74v32.829c0 8.913 7.25 16.164 16.163 16.164s16.163-7.252 16.163-16.165v-41.841c0-3.704-1.252-7.12-3.356-9.849 6.154-2.975 12.484-5.465 18.933-7.469zm68.26 247.462c10.038 0 19.133 4.111 25.691 10.738-18.674 7.795-38.718 11.29-58.621 10.485 5.697-12.507 18.314-21.223 32.93-21.223zm-80.839 10.539c-4.749-2.003-9.407-4.285-13.952-6.846h4.46c4.421 0 8.171 2.869 9.492 6.846zm72.671-39.884v-80.475h-9.338c-5.523 0-10-4.477-10-10s4.477-10 10-10h19.338c5.523 0 10 4.477 10 10v90.475c0 5.523-4.477 10-10 10s-10-4.477-10-10zm102.327-90.475v68.115c-5.075 9.557-11.356 18.642-18.845 27.029-.737-1.394-1.155-2.983-1.155-4.669v-80.475h-9.338c-5.523 0-10-4.477-10-10s4.477-10 10-10h19.338c5.523 0 10 4.477 10 10zm-194.159-11.847c-19.94 0-36.163 16.223-36.163 36.164v41.841c0 19.94 16.223 36.163 36.163 36.163s36.163-16.223 36.163-36.163v-41.841c0-19.941-16.223-36.164-36.163-36.164zm16.163 78.005c0 8.912-7.25 16.163-16.163 16.163s-16.163-7.251-16.163-16.163v-41.841c0-8.913 7.25-16.164 16.163-16.164s16.163 7.251 16.163 16.164z" fill="#fc5e93"/><path d="m436.299 94.045c-53.809-39.661-129.972-35.137-178.682 13.572-48.71 48.71-53.233 124.872-13.572 178.682-5.51-4.061-10.785-8.585-15.773-13.572-53.697-53.697-53.697-140.757 0-194.454s140.757-53.697 194.454 0c4.989 4.987 9.512 10.263 13.573 15.772z" fill="#c43286"/><path d="m389 61.52v10.113c-6.586-1.682-13.272-2.869-20-3.562v-6.551c0-8.912-7.25-16.163-16.163-16.163s-16.163 7.251-16.163 16.163v7.024c-6.74.894-13.427 2.287-20 4.179v-11.203c0-8.973 3.285-17.192 8.715-23.52 21.494-.017 42.991 4.974 62.591 14.973.666 2.742 1.02 5.604 1.02 8.547zm-169.968 121.79c-1.524 3.995-2.359 8.327-2.359 12.851v41.841c0 12.479 6.353 23.501 15.995 30.003-13.604-26.301-18.15-56.074-13.636-84.695zm17.642-79.949v-32.829c-2.88 2.443-5.683 5.023-8.401 7.74-4.194 4.194-8.06 8.591-11.599 13.16v11.928c0 13.913 7.898 26.015 19.445 32.061 3.393-5.794 7.246-11.392 11.558-16.742-6.39-2.157-11.003-8.209-11.003-15.318zm28.97-51.69c2.104 2.729 3.356 6.145 3.356 9.849v35.9c6.349-5.087 13.045-9.528 20-13.325v-22.575c0-6.27-1.604-12.172-4.423-17.318-6.449 2.004-12.779 4.494-18.933 7.469z" fill="#e659a9"/><path d="m383.164 212.285c5.766 5.766 5.766 15.113 0 20.878-5.766 5.766-15.113 5.766-20.878 0l-36.786-36.785-36.785 36.785c-5.766 5.766-15.113 5.766-20.878 0-5.766-5.766-5.766-15.113 0-20.878l36.785-36.785-36.785-36.785c-5.766-5.766-5.766-15.113 0-20.878 5.766-5.766 15.113-5.766 20.878 0l36.785 36.785 36.785-36.785c5.766-5.766 15.113-5.766 20.878 0 5.766 5.766 5.766 15.113 0 20.878l-36.785 36.785z" fill="#fff5f5"/><path d="m225.5 185.5h-20c-5.523 0-10-4.477-10-10s4.477-10 10-10h20c5.523 0 10 4.477 10 10s-4.477 10-10 10zm0-59.142c-3.905-3.905-10.237-3.905-14.142 0s-3.905 10.237 0 14.142l14.142 14.142c3.905 3.905 10.237 3.905 14.142 0 3.905-3.905 3.905-10.237 0-14.142zm0 70-14.142 14.142c-3.905 3.905-3.905 10.237 0 14.142 3.905 3.905 10.237 3.905 14.142 0l14.142-14.142c3.905-3.905 3.905-10.237 0-14.142s-10.237-3.905-14.142 0zm220-30.858h-20c-5.523 0-10 4.477-10 10s4.477 10 10 10h20c5.523 0 10-4.477 10-10s-4.477-10-10-10zm-20 30.858c-3.905-3.905-10.237-3.905-14.142 0s-3.905 10.237 0 14.142l14.142 14.142c3.905 3.905 10.237 3.905 14.142 0 3.905-3.905 3.905-10.237 0-14.142zm-14.142-41.716c3.905 3.905 10.237 3.905 14.142 0l14.142-14.142c3.905-3.905 3.905-10.237 0-14.142s-10.237-3.905-14.142 0l-14.142 14.142c-3.905 3.905-3.905 10.237 0 14.142z" fill="#f5a6d1"/></svg>