<?xml version="1.0" encoding="iso-8859-1"?>
<!-- Generator: Adobe Illustrator 19.0.0, SVG Export Plug-In . SVG Version: 6.00 Build 0)  -->
<svg version="1.1" id="Capa_1" xmlns="http://www.w3.org/2000/svg" xmlns:xlink="http://www.w3.org/1999/xlink" x="0px" y="0px"
	 viewBox="0 0 512.002 512.002" style="enable-background:new 0 0 512.002 512.002;" xml:space="preserve">
<g>
	<g>
		<path d="M383.264,501.978l-94.436-264.425c-1.393-3.901-5.687-5.934-9.585-4.541c-3.901,1.393-5.934,5.685-4.541,9.585
			l29.577,82.817L256,373.693l-48.278-48.278L256,190.236l7.242,20.278c1.393,3.901,5.686,5.934,9.585,4.541
			c3.901-1.393,5.934-5.685,4.541-9.585L263.5,166.639v-40.515c9.305-3.139,16.027-11.943,16.027-22.294
			c0-12.973-10.554-23.527-23.527-23.527s-23.527,10.554-23.527,23.527c0,10.351,6.722,19.155,16.027,22.294v40.515L128.736,501.978
			c-1.393,3.901,0.64,8.192,4.541,9.585c0.833,0.298,1.685,0.439,2.522,0.439c1.993,0,3.897-0.81,5.295-2.207l0.008,0.008
			L256,394.905l114.898,114.898l0.008-0.008c1.398,1.396,3.302,2.207,5.295,2.207c0.837,0,1.689-0.141,2.522-0.439
			C382.624,510.17,384.657,505.878,383.264,501.978z M247.474,103.829c0-4.702,3.825-8.527,8.527-8.527
			c4.702,0,8.527,3.825,8.527,8.527s-3.825,8.527-8.527,8.527C251.299,112.356,247.474,108.531,247.474,103.829z M154.08,475.614
			l48.06-134.568l43.254,43.254L154.08,475.614z M266.608,384.3l43.254-43.255l48.06,134.569L266.608,384.3z"/>
	</g>
</g>
<g>
	<g>
		<path d="M207.406,103.83c0-12.98,5.055-25.183,14.233-34.361c2.929-2.929,2.929-7.678,0-10.606c-2.929-2.929-7.678-2.929-10.606,0
			c-24.795,24.794-24.795,65.138,0,89.934c1.464,1.464,3.384,2.197,5.303,2.197s3.839-0.732,5.303-2.197
			c2.929-2.929,2.929-7.678,0-10.606C212.461,129.013,207.406,116.81,207.406,103.83z"/>
	</g>
</g>
<g>
	<g>
		<path d="M300.968,58.861c-2.929-2.929-7.678-2.929-10.606,0c-2.929,2.929-2.929,7.678,0,10.606
			c9.178,9.178,14.233,21.381,14.233,34.361c0,12.98-5.055,25.183-14.233,34.361c-2.929,2.93-2.929,7.679,0,10.608
			c1.464,1.464,3.384,2.197,5.303,2.197s3.839-0.732,5.303-2.197C325.763,124.002,325.763,83.657,300.968,58.861z"/>
	</g>
</g>
<g>
	<g>
		<path d="M167.339,103.829c0-23.682,9.223-45.947,25.969-62.693c2.929-2.929,2.929-7.678,0-10.606
			c-2.929-2.929-7.678-2.929-10.606,0c-19.579,19.579-30.362,45.611-30.362,73.3c0,27.689,10.782,53.719,30.362,73.298
			c1.464,1.464,3.384,2.197,5.303,2.197s3.839-0.732,5.303-2.197c2.929-2.929,2.929-7.678,0-10.606
			C176.562,149.776,167.339,127.511,167.339,103.829z"/>
	</g>
</g>
<g>
	<g>
		<path d="M329.299,30.529c-2.929-2.929-7.678-2.929-10.606,0c-2.929,2.929-2.929,7.678,0,10.606
			c16.747,16.747,25.969,39.012,25.969,62.694s-9.223,45.947-25.969,62.693c-2.929,2.929-2.929,7.678,0,10.606
			c1.464,1.465,3.384,2.197,5.303,2.197s3.839-0.732,5.303-2.197c19.579-19.579,30.362-45.61,30.362-73.299
			C359.661,76.14,348.878,50.108,329.299,30.529z"/>
	</g>
</g>
<g>
	<g>
		<path d="M357.632,2.197c-2.929-2.929-7.678-2.929-10.606,0c-2.929,2.929-2.929,7.678,0,10.606
			c50.191,50.192,50.191,131.859,0,182.051c-2.929,2.929-2.929,7.678,0,10.606c1.464,1.464,3.384,2.197,5.303,2.197
			s3.839-0.732,5.303-2.197C413.672,149.42,413.672,58.237,357.632,2.197z"/>
	</g>
</g>
<g>
	<g>
		<path d="M164.976,12.804c2.929-2.929,2.929-7.678,0-10.606c-2.929-2.929-7.678-2.929-10.606,0
			c-56.04,56.04-56.04,147.223,0,203.263c1.464,1.464,3.383,2.196,5.303,2.196c1.919,0,3.839-0.732,5.303-2.197
			c2.929-2.929,2.929-7.678,0-10.606C114.785,144.663,114.785,62.996,164.976,12.804z"/>
	</g>
</g>
<g>
</g>
<g>
</g>
<g>
</g>
<g>
</g>
<g>
</g>
<g>
</g>
<g>
</g>
<g>
</g>
<g>
</g>
<g>
</g>
<g>
</g>
<g>
</g>
<g>
</g>
<g>
</g>
<g>
</g>
</svg>
