<svg id="aaa2991e-ec66-4def-9e47-cef5f4a71460" data-name="fe68e995-1892-4c13-969e-009d775c2636" xmlns="http://www.w3.org/2000/svg" xmlns:xlink="http://www.w3.org/1999/xlink" viewBox="0 0 1349.75 1440.27"><defs><clipPath id="a6d1d317-218e-4c4d-b7bd-37c60557369f" transform="translate(-95.33 -4.34)"><polygon points="851.5 1137.9 1134.2 973.6 1329.3 1086.3 1046.7 1250.5 851.5 1137.9" style="fill:none"/></clipPath><clipPath id="f131bb79-d302-4dab-97e4-ea7a4eb5e5bd" transform="translate(-95.33 -4.34)"><polygon points="96.2 831.7 94.5 253.4 533.4 0 535 578.4 96.2 831.7" style="fill:none"/></clipPath><clipPath id="ef75d547-74eb-46aa-915f-bbd7e44b64f2" transform="translate(-95.33 -4.34)"><polygon points="747.4 1033.9 480.7 878.9 571.6 697.5 838.3 852.5 747.4 1033.9" style="fill:none"/></clipPath></defs><path d="M1445,987.7l-.2,73.3c-.3,98-64.7,195.9-193.4,270.7-259,150.5-680.3,150.6-941.1,0-131.2-75.7-196.7-175.2-196.4-274.4l.2-73.3c-.3,99.3,65.2,198.7,196.4,274.4,260.8,150.5,682.1,150.5,941.1,0C1380.3,1183.6,1444.7,1085.7,1445,987.7Z" transform="translate(-95.33 -4.34)" style="fill:#071841"/><path d="M1248.6,713.3c260.8,150.5,262.1,394.6,3.1,545.1s-680.3,150.6-941.1,0-262-394.6-3-545.1S987.9,562.7,1248.6,713.3Z" transform="translate(-95.33 -4.34)" style="fill:#b5e3df"/><g style="clip-path:url(#a6d1d317-218e-4c4d-b7bd-37c60557369f)"><path d="M1163.9,1051.4l-26.2,2.5c6.8,23.7-6.4,48-35.6,64.9s-71.1,24.8-112.1,20.9l-4.2,15.2c49.5,4.7,100-4.7,135.2-25.2s51.1-49.7,42.9-78.3Z" transform="translate(-95.33 -4.34)" style="fill:#070b3b"/><path d="M1257.7,1045l-26.2,2.2c10.7,40.9-12,81.1-62.4,110.3S1049.4,1200,978.9,1194l-3.8,15.2c77.8,6.7,157.4-8.6,212.9-40.8S1269.6,1090,1257.7,1045Z" transform="translate(-95.33 -4.34)" style="fill:#070b3b"/><polygon points="959.47 1047.06 897.57 1051.46 890.37 1087.36 916.77 1089.16 921.47 1065.26 962.67 1062.36 959.47 1047.06" style="fill:#070b3b"/></g><ellipse cx="360.75" cy="943.48" rx="31" ry="53.6" transform="translate(-679.06 1297.25) rotate(-89.84)" style="fill:#4d4d4d"/><path d="M346.4,842c-15.2,8.5-22.7,47.1-22.7,79.3-10.8,6.1-16.2,14.1-16.2,22.2a196.88,196.88,0,0,1,3.8-36.8,164.7,164.7,0,0,1,8.5-29.1,96.36,96.36,0,0,1,12-22.1A45.33,45.33,0,0,1,346.4,842Z" transform="translate(-95.33 -4.34)" style="fill:#4d4d4d"/><path d="M414.6,943.8c0-7.8-5-15.7-15.2-21.7-20.6-12.3-54.6-12.7-75.8-.8.1-32.2,7.6-70.8,22.7-79.3a31.52,31.52,0,0,1,12.6-4,27.83,27.83,0,0,1,5,.1,35.52,35.52,0,0,1,7.2,1.6c12.1,4.5,19.2,15.2,22.3,19.7,4.8,7.2,8.4,16.2,9.7,19.6a190.84,190.84,0,0,1,6.3,20.8,188.3,188.3,0,0,1,3.9,22.5C414.1,929.6,414.5,936.7,414.6,943.8Z" transform="translate(-95.33 -4.34)" style="fill:#4d4d4d"/><path d="M307.4,943.5a194.64,194.64,0,0,1,3.7-36.2,175.07,175.07,0,0,1,8.1-28.5,98.56,98.56,0,0,1,12.6-23.5A47.85,47.85,0,0,1,346.4,842c4.3-2.4,9.3-2.4,14.9.9-5.6-3.3-10.6-3.4-14.9-.9a31.52,31.52,0,0,1,12.6-4c.7-.1,2.3-.1,2.5-.1h0a20.9,20.9,0,0,0,2.5.1,14.21,14.21,0,0,1,2.6.4,25.17,25.17,0,0,1,4.5,1.3c6.2,2.3,10,5.7,13.1,8.4,1.8,1.6,5,4.9,9.3,11.4,10.5,15.7,21.2,47.9,21.1,84.3,0,8.1-5.5,16.1-16.2,22.2-21.2,11.9-55.2,11.6-75.8-.8C312.4,959.2,307.4,951.3,307.4,943.5Z" transform="translate(-95.33 -4.34)" style="fill:#506c75"/><path d="M372.8,358.9l9.1,501.7a21,21,0,1,1-42,1.2h0v-1.2L349,358.9a11.9,11.9,0,1,1,23.8-.1Z" transform="translate(-95.33 -4.34)" style="fill:#506c75"/><path d="M360.4,312.3a15.8,15.8,0,0,1,2,.7,7.78,7.78,0,0,1-1.4-.5A1.42,1.42,0,0,0,360.4,312.3Z" transform="translate(-95.33 -4.34)" style="fill:#4d4d4d"/><path d="M339.6,306.6c2.7.6,5.1,1.1,6.9,1.5C343.5,307.4,341.8,307,339.6,306.6Z" transform="translate(-95.33 -4.34)" style="fill:#4d4d4d"/><path d="M331.6,390.2v.6a28,28,0,0,0,.1,2.9,12.28,12.28,0,0,0,.3,2.7v.4c.1.8.3,1.5.4,2.3v.1c.2.8.4,1.6.6,2.3a17.23,17.23,0,0,0,.7,2.1c0,.1.1.2.1.3.3.7.6,1.3.9,2a11.42,11.42,0,0,0,.9,1.6,2,2,0,0,0,.4.6,7.46,7.46,0,0,0,1.1,1.4,16.83,16.83,0,0,0,1.3,1.5,9.13,9.13,0,0,0,1.8,1.6,8.64,8.64,0,0,0,1.2.8.1.1,0,0,1,.1.1h.1a.1.1,0,0,1,.1.1h0a17.45,17.45,0,0,0,3.7,1.7,14.45,14.45,0,0,0,1.7.4,6.78,6.78,0,0,0,2,.3h.2a13.34,13.34,0,0,0,2,.1,31.58,31.58,0,0,0,15.4-4.5c19.7-11,35.9-38.4,36.2-61.2v-.6a28,28,0,0,0-.1-2.9,26.32,26.32,0,0,0-.3-2.8,17.14,17.14,0,0,0-.6-3,16.87,16.87,0,0,0-.5-2.1c-.2-.7-.5-1.4-.7-2.1a.1.1,0,0,0-.1-.1h0l-.9-2.1c-.3-.5-.6-1.1-.9-1.6a2.17,2.17,0,0,0-.4-.6,11.49,11.49,0,0,0-1-1.4,16.73,16.73,0,0,0-4.2-3.8c-.2-.2-.5-.3-.7-.5h-.1c-.3-.2-.7-.4-1-.6a3.77,3.77,0,0,0-1.1-.5,4.83,4.83,0,0,0-1.1-.4,5.74,5.74,0,0,0-1.4-.4,3.09,3.09,0,0,0-.9-.2h0c-.5-.1-1-.2-1.6-.3h-.1a14.81,14.81,0,0,0-2-.1,31,31,0,0,0-15.4,4.6c-1.5.9-3,1.8-4.5,2.8C345.7,344.2,331.9,369.1,331.6,390.2Z" transform="translate(-95.33 -4.34)" style="fill:#4d4d4d"/><path d="M329,305c-2.3-.3-4.5-.4-6.3-.5l4.7.3A12.27,12.27,0,0,1,329,305Z" transform="translate(-95.33 -4.34)" style="fill:#4d4d4d"/><path d="M308.2,305a25.84,25.84,0,0,0-2.9.5Z" transform="translate(-95.33 -4.34)" style="fill:#4d4d4d"/><path d="M299,378.6c-.2-.3-.6-.7-1.2-1.4A8.45,8.45,0,0,0,299,378.6Z" transform="translate(-95.33 -4.34)" style="fill:#4d4d4d"/><path d="M286.3,361.5c-.8-1.4-1.5-2.8-2.2-4a52.1,52.1,0,0,0,3.3,5.7C287,362.6,286.7,362.1,286.3,361.5Z" transform="translate(-95.33 -4.34)" style="fill:#4d4d4d"/><path d="M286.1,314.7a26.39,26.39,0,0,0-3.7,4.4A50.07,50.07,0,0,1,286.1,314.7Z" transform="translate(-95.33 -4.34)" style="fill:#4d4d4d"/><path d="M278.4,328.9c0,.1-.1.3-.1.4.1-.6.3-1.3.4-1.9A7.67,7.67,0,0,1,278.4,328.9Z" transform="translate(-95.33 -4.34)" style="fill:#4d4d4d"/><path d="M392.5,326.9a8.14,8.14,0,0,0-1.3-.7.35.35,0,0,1,.2.1A2.89,2.89,0,0,1,392.5,326.9Z" transform="translate(-95.33 -4.34)" style="fill:#4d4d4d"/><path d="M340.7,413c-3.1-1.8-6.7-4.2-9.5-6.1C335.3,409.8,338.6,411.8,340.7,413Z" transform="translate(-95.33 -4.34)" style="fill:#4d4d4d"/><path d="M336.7,306.1a63.47,63.47,0,0,0-7.4-1.1,28.34,28.34,0,0,1,4.1.6C334.8,305.8,335.8,306,336.7,306.1Z" transform="translate(-95.33 -4.34)" style="fill:#4d4d4d"/><path d="M301.8,381.7c2,2.1,4.3,4.5,7.1,7.2C306.8,386.8,304.1,384.1,301.8,381.7Z" transform="translate(-95.33 -4.34)" style="fill:#4d4d4d"/><path d="M298.6,307.3c-.1,0-.2.1-.3.1.7-.3,1.5-.5,2.3-.8C299.9,306.8,299.2,307.1,298.6,307.3Z" transform="translate(-95.33 -4.34)" style="fill:#4d4d4d"/><path d="M290.7,311a4.81,4.81,0,0,1-.6.4,18.56,18.56,0,0,1,2.3-1.4A19.39,19.39,0,0,1,290.7,311Z" transform="translate(-95.33 -4.34)" style="fill:#4d4d4d"/><path d="M282.8,354.9a39,39,0,0,1-1.8-4.4C281.6,352.1,282.2,353.6,282.8,354.9Z" transform="translate(-95.33 -4.34)" style="fill:#4d4d4d"/><path d="M279.6,346.4a56.13,56.13,0,0,1-1.3-5.6c.3,1.7.6,3.1.8,4.1A8.8,8.8,0,0,1,279.6,346.4Z" transform="translate(-95.33 -4.34)" style="fill:#4d4d4d"/><path d="M277.9,337c.1,1.1.2,2.1.3,3.2a1.23,1.23,0,0,0,.1.6,34.73,34.73,0,0,0,1.3,5.6c.1.5.3.9.4,1.4s.3.8.4,1.2a3.09,3.09,0,0,0,.4,1,.52.52,0,0,0,.2.4c.6,1.6,1.3,3.1,1.8,4.4.4.8.8,1.7,1.3,2.6.7,1.3,1.4,2.7,2.2,4,.3.6.7,1.1,1,1.7a113.16,113.16,0,0,0,8.2,11.5c.7.8,1.2,1.4,1.7,2,.2.2.3.4.5.6.6.7,1,1.1,1.2,1.4l.1.1c.9.9,1.7,1.8,2.7,2.9,2.3,2.4,4.9,5.1,7.1,7.2,2.8,2.7,6.1,5.6,10.1,8.9.9.7,1.9,1.6,3,2.4.6.4,1.1.8,1.6,1.2s1.1.8,1.7,1.3c2.1,1.6,4.1,3,5.9,4.2,2.8,1.8,6.4,4.2,9.5,6.1a3.73,3.73,0,0,1,.7.4,8.64,8.64,0,0,0-1.2-.8c-.6-.5-1.2-1-1.8-1.6s-.89-1-1.3-1.5a7.46,7.46,0,0,1-1.1-1.4c-.1-.2-.3-.4-.4-.6a5.16,5.16,0,0,1-.9-1.6c-.3-.6-.6-1.3-.9-2,0-.1-.1-.2-.1-.3a17.83,17.83,0,0,1-.7-2.1c-.2-.7-.4-1.5-.6-2.3V399c-.1-.7-.3-1.5-.4-2.3v-.4l-.3-2.7a28,28,0,0,1-.1-2.9v-.6c.3-21.1,14.1-46.1,31.7-58.4a33.77,33.77,0,0,1,4.5-2.8c5.5-3.1,10.7-4.6,15.4-4.6a12.13,12.13,0,0,1,2,.1h.1l1.6.3h0a3.09,3.09,0,0,1,.9.2,7.47,7.47,0,0,1,1.4.4c.4.1.8.3,1.1.4a3.53,3.53,0,0,1,1.1.5c-.1-.1-.1-.1-.2-.1-2.1-1.1-3.5-2-4.6-2.6l-1.8-.9c-.7-.4-1.4-.7-2.1-1.1a5.19,5.19,0,0,1-1-.5,9.33,9.33,0,0,1-1-.5c-.4-.2-.9-.4-1.4-.7-.8-.3-1.5-.7-2.2-1s-1.6-.7-2.4-1.1a.37.37,0,0,1-.3-.1l-2.1-.9a3.3,3.3,0,0,0-.9-.4c-1-.4-2.1-.8-3-1.2-.7-.3-1.7-.7-2.8-1.1a13.14,13.14,0,0,1-1.8-.7,12,12,0,0,1-1.3-.5c-.6-.2-1.3-.5-2-.7-1.4-.5-2.8-.9-4.3-1.4l-.9-.3a1.07,1.07,0,0,0-.5-.1c-.3-.1-.5-.2-.8-.3-2.1-.6-4.2-1.2-5.9-1.6-.4-.1-1-.3-1.6-.4-1.8-.4-4.2-1-6.9-1.5h-.3l-2.5-.5a26.56,26.56,0,0,1-3.3-.6l-4.1-.6h-.4a9.49,9.49,0,0,0-1.6-.1l-4.7-.3h-6.5c-1.2,0-2.2.1-3.1.1l-2.4.2-2.5.3-2.9.5-.6.1c-1,.2-1.9.4-2.8.6a6.73,6.73,0,0,0-1.3.4c-.8.3-1.6.5-2.3.8a37.64,37.64,0,0,0-5.8,2.6,17.42,17.42,0,0,0-2.3,1.4c-.1,0-.2.1-.3.2a14.41,14.41,0,0,0-1.5,1.1c-.1.1-.3.2-.4.3-.7.6-1.3,1.1-2,1.8a31.81,31.81,0,0,0-3.7,4.4c0,.1-.1.1-.1.2-.4.7-.8,1.3-1.2,2s-.6,1.2-.9,1.8c0,.1,0,.1-.1.2a18.12,18.12,0,0,0-.8,2c-.2.7-.4,1.4-.6,2v.1c-.1.6-.3,1.3-.4,1.9-.2,1.2-.3,2.4-.4,3.6A26.74,26.74,0,0,1,277.9,337Z" transform="translate(-95.33 -4.34)" style="fill:#506c75"/><path d="M331.6,390.2v.6a28,28,0,0,0,.1,2.9,12.28,12.28,0,0,0,.3,2.7v.4c.1.8.3,1.5.4,2.3v.1c.2.8.4,1.6.6,2.3a17.23,17.23,0,0,0,.7,2.1c0,.1.1.2.1.3.3.7.6,1.3.9,2a11.42,11.42,0,0,0,.9,1.6,2,2,0,0,0,.4.6,7.46,7.46,0,0,0,1.1,1.4,16.83,16.83,0,0,0,1.3,1.5,9.13,9.13,0,0,0,1.8,1.6,8.64,8.64,0,0,0,1.2.8.1.1,0,0,1,.1.1h.1a.1.1,0,0,1,.1.1h0a17.45,17.45,0,0,0,3.7,1.7,14.45,14.45,0,0,0,1.7.4,6.78,6.78,0,0,0,2,.3h.2a13.34,13.34,0,0,0,2,.1,31.58,31.58,0,0,0,15.4-4.5c19.7-11,35.9-38.4,36.2-61.2v-.6a28,28,0,0,0-.1-2.9,26.32,26.32,0,0,0-.3-2.8,17.14,17.14,0,0,0-.6-3,16.87,16.87,0,0,0-.5-2.1c-.2-.7-.5-1.4-.7-2.1a.1.1,0,0,0-.1-.1h0l-.9-2.1c-.3-.5-.6-1.1-.9-1.6a2.17,2.17,0,0,0-.4-.6,11.49,11.49,0,0,0-1-1.4,16.73,16.73,0,0,0-4.2-3.8c-.2-.2-.5-.3-.7-.5h-.1c-.3-.2-.7-.4-1-.6a3.77,3.77,0,0,0-1.1-.5,4.83,4.83,0,0,0-1.1-.4,5.74,5.74,0,0,0-1.4-.4,3.09,3.09,0,0,0-.9-.2h0c-.5-.1-1-.2-1.6-.3h-.1a14.81,14.81,0,0,0-2-.1,31,31,0,0,0-15.4,4.6c-1.5.9-3,1.8-4.5,2.8C345.7,344.2,331.9,369.1,331.6,390.2Z" transform="translate(-95.33 -4.34)" style="fill:#070b3b"/><g style="clip-path:url(#f131bb79-d302-4dab-97e4-ea7a4eb5e5bd)"><path d="M382.9,332.9c-19.4,12.6-34.8,39.8-35.4,62.6l15.6-9c4.1-2.4,6.3,2,3.5,7.2l-12.8,23.7c6.8,7.9,18.5,8.9,31.7,1.3a68.37,68.37,0,0,0,16-13.3L394,394.8l-.1-.1a31.75,31.75,0,0,1-4.2,3c-9.7,5.6-17.6,1.1-17.7-10s7.8-24.8,17.6-30.4,17.6-1.1,17.6,10.1a33.71,33.71,0,0,1-3.9,14.9l15.2-5a68.93,68.93,0,0,0,4.8-24.2c0-15.1-6.7-24.5-16.8-26.5l-8.5,22a10.35,10.35,0,0,1-4.1,5.1c-1.9,1.1-3.9.9-4.6-1.2l-6.4-19.6Z" transform="translate(-95.33 -4.34)" style="fill:#ffd131"/><path d="M524.7,5a9.53,9.53,0,0,0-3.6,4.1L373.9,297.7c-1,2-1.4,4.2-.9,5.7l9.8,29.5,6.5,19.6c.7,2.1,2.6,2.3,4.6,1.2a10.35,10.35,0,0,0,4.1-5.1l8.5-22L528.8,10.9C531,5.4,527.9,3.1,524.7,5Z" transform="translate(-95.33 -4.34)" style="fill:#ffd131"/><path d="M403.5,382.2a40.77,40.77,0,0,1-9.4,12.4l.1.1,7.5,10.6L526.4,580.5c1,1.4,2.5,1.3,4,.5,3-1.7,5.9-6.7,4.6-10.1L454.9,368.1a2.67,2.67,0,0,0-3.4-1.5.09.09,0,0,0-.1.1h0l-32.8,10.7-15.1,4.8Z" transform="translate(-95.33 -4.34)" style="fill:#ffd131"/><path d="M363.1,386.6l-15.6,9L100.1,538.5c-5.8,3.4-6.6,13.6-.8,11.4l227.2-85.8a3,3,0,0,0,.8-.4,11.22,11.22,0,0,0,3.6-3.9l23-42.4,12.8-23.7c2.8-5.1.6-9.5-3.6-7.1Z" transform="translate(-95.33 -4.34)" style="fill:#ffd131"/><path d="M389.7,357.2c-9.7,5.6-17.6,19.2-17.6,30.4s7.9,15.7,17.7,10a31.75,31.75,0,0,0,4.2-3,40.77,40.77,0,0,0,9.4-12.4,35.07,35.07,0,0,0,3.9-14.9C407.3,356.1,399.4,351.6,389.7,357.2Z" transform="translate(-95.33 -4.34)" style="fill:#070b3b"/></g><polygon points="654.07 1199.06 405.47 1054.56 404.97 869.76 653.57 1014.26 654.07 1199.06" style="fill:#fff"/><polygon points="653.57 1014.26 404.97 869.76 485.07 709.86 733.67 854.36 653.57 1014.26" style="fill:#929292"/><polygon points="733.67 854.36 814.37 921.36 814.97 1106.16 654.07 1199.06 653.57 1014.26 733.67 854.36" style="fill:#d1d1d0"/><polygon points="824.67 939.16 557.97 784.16 476.27 716.36 743.07 871.36 824.67 939.16" style="fill:#2d6375"/><polygon points="652.07 1029.56 385.37 874.56 476.27 693.16 742.97 848.16 652.07 1029.56" style="fill:#2d6375"/><polygon points="742.97 848.16 834.57 924.16 824.67 939.16 743.07 871.36 661.97 1033.06 652.07 1029.56 742.97 848.16" style="fill:#070b3b"/><polygon points="432.27 972.96 432.37 965.86 502.27 1006.26 502.17 1013.26 432.27 972.96" style="fill:#070b3b"/><polygon points="496.27 969.56 438.37 936.16 438.27 969.46 496.17 1002.96 496.27 969.56" style="fill:#4aa4c2"/><polygon points="602.57 1097.76 438.17 1002.76 438.07 1036.16 602.47 1131.06 602.57 1097.76" style="fill:#4aa4c2"/><polygon points="539.37 1034.76 539.47 1027.76 609.37 1068.06 609.27 1075.16 539.37 1034.76" style="fill:#070b3b"/><polygon points="603.37 1031.46 545.47 997.96 545.37 1031.36 603.27 1064.76 603.37 1031.46" style="fill:#4aa4c2"/><polygon points="717.07 1071.46 759.47 1046.96 759.77 1137.96 717.37 1162.46 717.07 1071.46" style="fill:#070b3b"/><polygon points="753.57 1057.36 723.07 1074.96 723.37 1159.06 753.77 1141.46 753.57 1057.36" style="fill:#5ecff5"/><polygon points="670.57 1137.56 712.97 1113.06 713.17 1119.86 670.67 1144.36 670.57 1137.56" style="fill:#070b3b"/><polygon points="707.07 1081.46 676.57 1099.06 676.67 1134.06 707.17 1116.46 707.07 1081.46" style="fill:#4aa4c2"/><polygon points="762.77 1084.36 805.17 1059.76 805.37 1066.66 762.87 1091.16 762.77 1084.36" style="fill:#070b3b"/><polygon points="799.27 1028.16 768.77 1045.76 768.87 1080.86 799.37 1063.16 799.27 1028.16" style="fill:#4aa4c2"/><polygon points="670.37 1066.36 728.87 1032.66 728.97 1039.46 670.47 1073.26 670.37 1066.36" style="fill:#070b3b"/><polygon points="722.87 1001.06 676.37 1027.96 676.47 1062.86 722.97 1036.06 722.87 1001.06" style="fill:#4aa4c2"/><polygon points="747.37 1021.96 805.07 988.66 805.17 995.56 747.47 1028.86 747.37 1021.96" style="fill:#070b3b"/><polygon points="799.07 957.06 753.37 983.46 753.47 1018.46 799.17 992.06 799.07 957.06" style="fill:#4aa4c2"/><g style="clip-path:url(#ef75d547-74eb-46aa-915f-bbd7e44b64f2)"><rect x="424.67" y="785.43" width="202.89" height="6" transform="translate(-509.83 901) rotate(-63.37)" style="fill:#a8e3f7"/><rect x="454.35" y="802.71" width="202.89" height="6" transform="translate(-508.9 937.06) rotate(-63.37)" style="fill:#070b3b"/><rect x="483.96" y="819.98" width="202.89" height="6" transform="translate(-507.99 973.06) rotate(-63.37)" style="fill:#070b3b"/><rect x="513.44" y="836.83" width="202.89" height="6" transform="matrix(0.45, -0.89, 0.89, 0.45, -506.82, 1008.53)" style="fill:#070b3b"/><rect x="543.12" y="854.11" width="202.89" height="6" transform="matrix(0.45, -0.89, 0.89, 0.45, -505.9, 1044.6)" style="fill:#070b3b"/><rect x="572.73" y="870.85" width="202.9" height="6" transform="translate(-504.41 1080.87) rotate(-63.39)" style="fill:#070b3b"/><rect x="602.75" y="888.91" width="202.9" height="6" transform="translate(-504.02 1117.48) rotate(-63.38)" style="fill:#070b3b"/><rect x="632.47" y="906.15" width="202.9" height="6" transform="translate(-503.03 1153.56) rotate(-63.38)" style="fill:#070b3b"/><rect x="661.65" y="923.06" width="202.89" height="6" transform="matrix(0.45, -0.89, 0.89, 0.45, -502.14, 1188.57)" style="fill:#070b3b"/><rect x="691.25" y="940.32" width="202.89" height="6" transform="matrix(0.45, -0.89, 0.89, 0.45, -501.24, 1224.55)" style="fill:#070b3b"/></g><polygon points="584.97 709.96 584.77 789.56 549.87 809.86 550.07 730.26 584.97 709.96" style="fill:#edb80f"/><polygon points="550.07 730.26 549.87 809.86 514.77 789.56 514.97 709.96 550.07 730.26" style="fill:#ffd131"/><polygon points="584.97 709.96 550.07 730.26 514.97 709.96 549.87 689.66 584.97 709.96" style="fill:#ffe48f"/><polygon points="526.97 709.96 549.87 696.66 572.97 709.96 550.07 723.36 526.97 709.96" style="fill:#070b3b"/><path d="M1305,950.3l-.1,19.5c0,5.5-3.7,11.1-10.9,15.3-14.6,8.5-38.4,8.5-53.1,0-7.4-4.3-11.1-9.9-11.1-15.5l.1-19.6c0,5.6,3.7,11.2,11.1,15.5,14.7,8.5,38.5,8.5,53.1,0C1301.4,961.3,1305,955.8,1305,950.3Z" transform="translate(-95.33 -4.34)" style="fill:#edb80f"/><path d="M1293.9,934.7c14.7,8.5,14.8,22.3.2,30.8s-38.4,8.5-53.1,0-14.8-22.3-.2-30.8S1279.2,926.3,1293.9,934.7Z" transform="translate(-95.33 -4.34)" style="fill:#ffd131"/><path d="M1266.6,952.8a9,9,0,0,1-9-9h0V855.6a9,9,0,1,1,18,0v88.2A9.09,9.09,0,0,1,1266.6,952.8Z" transform="translate(-95.33 -4.34)" style="fill:#506c75"/><polygon points="1082.47 724.86 1091.97 727.06 1088.57 734.46 1079.07 732.26 1082.47 724.86" style="fill:#8a8a8a"/><polygon points="1084.97 735.66 1094.47 737.86 1067.37 797.96 1057.87 795.86 1084.97 735.66" style="fill:#8a8a8a"/><polygon points="1082.47 724.86 1091.97 727.06 1097.77 730.46 1088.27 728.26 1082.47 724.86" style="fill:#7d7d7d"/><polygon points="1112.87 657.26 1122.37 659.46 1118.97 666.86 1109.57 664.66 1112.87 657.26" style="fill:#8a8a8a"/><polygon points="1115.37 668.06 1124.77 670.26 1097.77 730.46 1088.27 728.26 1115.37 668.06" style="fill:#8a8a8a"/><polygon points="1112.87 657.26 1122.37 659.46 1128.17 662.86 1118.67 660.66 1112.87 657.26" style="fill:#7d7d7d"/><polygon points="1145.77 600.46 1155.27 602.66 1128.17 662.86 1118.67 660.66 1145.77 600.46" style="fill:#8a8a8a"/><polygon points="1105.17 823.16 1114.67 825.26 1111.27 832.66 1101.77 830.56 1105.17 823.16" style="fill:#8a8a8a"/><polygon points="1057.87 795.86 1067.37 797.96 1114.67 825.26 1105.17 823.16 1057.87 795.86" style="fill:#7d7d7d"/><polygon points="1132.27 762.96 1105.17 823.16 1057.87 795.86 1084.97 735.66 1132.27 762.96" style="fill:#061e43"/><polygon points="1132.27 762.96 1141.67 765.16 1114.67 825.26 1105.17 823.16 1132.27 762.96" style="fill:#3b3b3b"/><polygon points="1084.97 735.66 1094.47 737.86 1141.67 765.16 1132.27 762.96 1084.97 735.66" style="fill:#363636"/><polygon points="1088.27 728.26 1097.77 730.46 1145.07 757.76 1135.57 755.56 1088.27 728.26" style="fill:#7d7d7d"/><polygon points="1057.87 795.86 1105.17 823.16 1101.77 830.56 1048.67 799.86 1079.07 732.26 1082.47 724.86 1088.27 728.26 1135.57 755.56 1132.27 762.96 1084.97 735.66 1057.87 795.86" style="fill:#d1d1d0"/><polygon points="1135.57 755.56 1145.07 757.76 1141.67 765.16 1132.27 762.96 1135.57 755.56" style="fill:#8a8a8a"/><polygon points="1138.07 766.36 1147.57 768.46 1120.47 828.66 1110.97 826.46 1138.07 766.36" style="fill:#8a8a8a"/><polygon points="1135.57 755.56 1145.07 757.76 1150.87 761.06 1141.37 758.86 1135.57 755.56" style="fill:#7d7d7d"/><polygon points="1115.37 668.06 1124.77 670.26 1172.07 697.56 1162.67 695.36 1115.37 668.06" style="fill:#363636"/><polygon points="1162.67 695.36 1135.57 755.56 1088.27 728.26 1115.37 668.06 1162.67 695.36" style="fill:#061e43"/><polygon points="1165.97 687.96 1135.57 755.56 1162.67 695.36 1115.37 668.06 1088.27 728.26 1082.47 724.86 1079.07 732.26 1109.57 664.66 1112.87 657.26 1118.67 660.66 1165.97 687.96" style="fill:#d1d1d0"/><polygon points="1165.97 687.96 1175.47 690.16 1145.07 757.76 1135.57 755.56 1165.97 687.96" style="fill:#8a8a8a"/><polygon points="1162.67 695.36 1172.07 697.56 1145.07 757.76 1135.57 755.56 1162.67 695.36" style="fill:#3b3b3b"/><polygon points="1118.67 660.66 1128.17 662.86 1175.47 690.16 1165.97 687.96 1118.67 660.66" style="fill:#7d7d7d"/><polygon points="1168.47 698.76 1177.97 700.96 1150.87 761.06 1141.37 758.86 1168.47 698.76" style="fill:#8a8a8a"/><polygon points="1165.97 687.96 1175.47 690.16 1181.27 693.46 1171.77 691.36 1165.97 687.96" style="fill:#7d7d7d"/><polygon points="1145.77 600.46 1155.27 602.66 1202.47 629.96 1193.07 627.76 1145.77 600.46" style="fill:#363636"/><polygon points="1193.07 627.76 1202.47 629.96 1175.47 690.16 1165.97 687.96 1193.07 627.76" style="fill:#3b3b3b"/><polygon points="1196.37 620.36 1165.97 687.96 1193.07 627.76 1145.77 600.46 1118.67 660.66 1112.87 657.26 1109.57 664.66 1143.27 589.76 1196.37 620.36" style="fill:#d1d1d0"/><polygon points="1196.37 620.36 1205.87 622.56 1175.47 690.16 1165.97 687.96 1196.37 620.36" style="fill:#8a8a8a"/><polygon points="1198.87 631.16 1208.37 633.36 1181.27 693.46 1171.77 691.36 1198.87 631.16" style="fill:#8a8a8a"/><polygon points="1171.77 691.36 1181.27 693.46 1228.57 720.76 1219.07 718.66 1171.77 691.36" style="fill:#7d7d7d"/><polygon points="1198.87 631.16 1208.37 633.36 1255.67 660.66 1246.17 658.46 1198.87 631.16" style="fill:#363636"/><polygon points="1249.47 651.06 1219.07 718.66 1246.17 658.46 1198.87 631.16 1171.77 691.36 1165.97 687.96 1196.37 620.36 1249.47 651.06" style="fill:#d1d1d0"/><polygon points="1145.77 600.46 1118.67 660.66 1165.97 687.96 1193.07 627.76 1145.77 600.46" style="fill:#061e43"/><polygon points="1143.27 589.76 1152.77 591.86 1205.87 622.56 1196.37 620.36 1143.27 589.76" style="fill:#506c75"/><polygon points="1110.97 826.46 1120.47 828.66 1167.77 855.96 1158.27 853.76 1110.97 826.46" style="fill:#7d7d7d"/><polygon points="1158.27 853.76 1167.77 855.96 1164.37 863.36 1154.97 861.16 1158.27 853.76" style="fill:#8a8a8a"/><polygon points="1185.37 793.56 1194.77 795.76 1167.77 855.96 1158.27 853.76 1185.37 793.56" style="fill:#3b3b3b"/><polygon points="1138.07 766.36 1147.57 768.46 1194.77 795.76 1185.37 793.56 1138.07 766.36" style="fill:#363636"/><polygon points="1185.37 793.56 1158.27 853.76 1110.97 826.46 1138.07 766.36 1185.37 793.56" style="fill:#061e43"/><polygon points="1188.67 786.16 1198.17 788.36 1194.77 795.76 1185.37 793.56 1188.67 786.16" style="fill:#8a8a8a"/><polygon points="1141.37 758.86 1150.87 761.06 1198.17 788.36 1188.67 786.16 1141.37 758.86" style="fill:#7d7d7d"/><polygon points="1191.17 796.96 1200.67 799.16 1173.57 859.36 1164.07 857.16 1191.17 796.96" style="fill:#8a8a8a"/><polygon points="1164.07 857.16 1173.57 859.36 1220.87 886.66 1211.37 884.46 1164.07 857.16" style="fill:#7d7d7d"/><polygon points="1238.47 824.26 1247.97 826.46 1220.87 886.66 1211.37 884.46 1238.47 824.26" style="fill:#3b3b3b"/><polygon points="1191.17 796.96 1200.67 799.16 1247.97 826.46 1238.47 824.26 1191.17 796.96" style="fill:#363636"/><path d="M1337.1,821.2l5.8,3.4-33.7,75-53.1-30.7-5.8-3.4,33.7-75,5.8,3.4Zm-30.4,67.6,27.1-60.2-47.3-27.3-27.1,60.2Z" transform="translate(-95.33 -4.34)" style="fill:#d1d1d0"/><polygon points="1110.97 826.46 1158.27 853.76 1154.97 861.16 1107.67 833.86 1101.77 830.56 1135.57 755.56 1141.37 758.86 1188.67 786.16 1185.37 793.56 1138.07 766.36 1110.97 826.46" style="fill:#d1d1d0"/><polygon points="1188.67 786.16 1198.17 788.36 1203.97 791.76 1194.47 789.56 1188.67 786.16" style="fill:#7d7d7d"/><polygon points="1215.77 726.06 1188.67 786.16 1141.37 758.86 1168.47 698.76 1215.77 726.06" style="fill:#061e43"/><polygon points="1168.47 698.76 1177.97 700.96 1225.17 728.16 1215.77 726.06 1168.47 698.76" style="fill:#363636"/><polygon points="1219.07 718.66 1188.67 786.16 1215.77 726.06 1168.47 698.76 1141.37 758.86 1135.57 755.56 1165.97 687.96 1171.77 691.36 1219.07 718.66" style="fill:#d1d1d0"/><polygon points="1215.77 726.06 1225.17 728.16 1198.17 788.36 1188.67 786.16 1215.77 726.06" style="fill:#3b3b3b"/><polygon points="1219.07 718.66 1228.57 720.76 1198.17 788.36 1188.67 786.16 1219.07 718.66" style="fill:#8a8a8a"/><polygon points="1221.57 729.36 1231.07 731.56 1203.97 791.76 1194.47 789.56 1221.57 729.36" style="fill:#8a8a8a"/><polygon points="1219.07 718.66 1228.57 720.76 1234.37 724.16 1224.87 721.96 1219.07 718.66" style="fill:#7d7d7d"/><polygon points="1246.17 658.46 1219.07 718.66 1171.77 691.36 1198.87 631.16 1246.17 658.46" style="fill:#061e43"/><polygon points="1249.47 651.06 1258.97 653.26 1228.57 720.76 1219.07 718.66 1249.47 651.06" style="fill:#8a8a8a"/><polygon points="1246.17 658.46 1255.67 660.66 1228.57 720.76 1219.07 718.66 1246.17 658.46" style="fill:#3b3b3b"/><polygon points="1196.37 620.36 1205.87 622.56 1258.97 653.26 1249.47 651.06 1196.37 620.36" style="fill:#506c75"/><polygon points="1238.47 824.26 1211.37 884.46 1164.07 857.16 1191.17 796.96 1238.47 824.26" style="fill:#061e43"/><polygon points="1194.47 789.56 1203.97 791.76 1251.27 819.06 1241.77 816.86 1194.47 789.56" style="fill:#7d7d7d"/><polygon points="1241.77 816.86 1251.27 819.06 1257.07 822.36 1247.57 820.26 1241.77 816.86" style="fill:#7d7d7d"/><polygon points="1247.57 820.26 1257.07 822.36 1223.37 897.36 1213.87 895.16 1247.57 820.26" style="fill:#506c75"/><polygon points="1221.57 729.36 1231.07 731.56 1278.27 758.86 1268.87 756.66 1221.57 729.36" style="fill:#363636"/><polygon points="1268.87 756.66 1278.27 758.86 1251.27 819.06 1241.77 816.86 1268.87 756.66" style="fill:#3b3b3b"/><polygon points="1268.87 756.66 1241.77 816.86 1194.47 789.56 1221.57 729.36 1268.87 756.66" style="fill:#061e43"/><polygon points="1224.87 721.96 1234.37 724.16 1281.67 751.46 1272.17 749.26 1224.87 721.96" style="fill:#7d7d7d"/><polygon points="1277.97 752.66 1287.47 754.86 1257.07 822.36 1247.57 820.26 1277.97 752.66" style="fill:#506c75"/><polygon points="1272.17 749.26 1281.67 751.46 1287.47 754.86 1277.97 752.66 1272.17 749.26" style="fill:#7d7d7d"/><polygon points="1277.97 752.66 1247.57 820.26 1241.77 816.86 1268.87 756.66 1221.57 729.36 1194.47 789.56 1188.67 786.16 1219.07 718.66 1224.87 721.96 1272.17 749.26 1277.97 752.66" style="fill:#d1d1d0"/><polygon points="1251.97 661.86 1261.47 663.96 1234.37 724.16 1224.87 721.96 1251.97 661.86" style="fill:#8a8a8a"/><polygon points="1251.97 661.86 1261.47 663.96 1308.77 691.26 1299.27 689.16 1251.97 661.86" style="fill:#363636"/><polygon points="1299.27 689.16 1308.77 691.26 1281.67 751.46 1272.17 749.26 1299.27 689.16" style="fill:#3b3b3b"/><polygon points="1299.27 689.16 1272.17 749.26 1224.87 721.96 1251.97 661.86 1299.27 689.16" style="fill:#061e43"/><polygon points="1308.37 685.06 1317.87 687.26 1287.47 754.86 1277.97 752.66 1308.37 685.06" style="fill:#506c75"/><polygon points="1249.47 651.06 1258.97 653.26 1317.87 687.26 1308.37 685.06 1249.47 651.06" style="fill:#506c75"/><polygon points="1308.37 685.06 1277.97 752.66 1272.17 749.26 1299.27 689.16 1251.97 661.86 1224.87 721.96 1219.07 718.66 1249.47 651.06 1308.37 685.06" style="fill:#d1d1d0"/><path d="M1088.5,825.3l-.1,19.6c0,5.5-3.7,11.1-10.9,15.3-14.6,8.5-38.4,8.5-53.1,0-7.4-4.3-11.1-9.9-11.1-15.5l.1-19.6c0,5.6,3.7,11.2,11.1,15.5,14.7,8.5,38.5,8.5,53.1,0C1084.8,836.4,1088.4,830.9,1088.5,825.3Z" transform="translate(-95.33 -4.34)" style="fill:#edb80f"/><path d="M1077.4,809.8c14.7,8.5,14.8,22.3.2,30.8s-38.4,8.5-53.1,0-14.8-22.3-.2-30.7S1062.6,801.4,1077.4,809.8Z" transform="translate(-95.33 -4.34)" style="fill:#ffd131"/><path d="M1050.9,827.9a9,9,0,0,1-9-9h0V730.7a9,9,0,0,1,18,0v88.2A9.09,9.09,0,0,1,1050.9,827.9Z" transform="translate(-95.33 -4.34)" style="fill:#506c75"/><polygon points="866.67 599.96 876.17 602.16 872.77 609.56 863.37 607.36 866.67 599.96" style="fill:#8a8a8a"/><polygon points="869.17 610.76 878.67 612.96 851.57 673.16 842.07 670.96 869.17 610.76" style="fill:#8a8a8a"/><polygon points="866.67 599.96 876.17 602.16 881.97 605.56 872.57 603.36 866.67 599.96" style="fill:#7d7d7d"/><polygon points="897.07 532.46 906.57 534.56 903.17 541.96 893.77 539.86 897.07 532.46" style="fill:#8a8a8a"/><polygon points="899.57 543.16 909.07 545.36 881.97 605.56 872.57 603.36 899.57 543.16" style="fill:#8a8a8a"/><polygon points="897.07 532.46 906.57 534.56 912.37 537.96 902.97 535.76 897.07 532.46" style="fill:#7d7d7d"/><polygon points="929.97 475.66 939.47 477.76 912.37 537.96 902.97 535.76 929.97 475.66" style="fill:#8a8a8a"/><polygon points="889.37 698.26 898.87 700.36 895.47 707.76 886.07 705.66 889.37 698.26" style="fill:#8a8a8a"/><polygon points="842.07 670.96 851.57 673.16 898.87 700.36 889.37 698.26 842.07 670.96" style="fill:#7d7d7d"/><polygon points="869.17 610.76 878.67 612.96 925.87 640.26 916.47 638.06 869.17 610.76" style="fill:#363636"/><polygon points="916.47 638.06 925.87 640.26 898.87 700.36 889.37 698.26 916.47 638.06" style="fill:#3b3b3b"/><polygon points="916.47 638.06 889.37 698.26 842.07 670.96 869.17 610.76 916.47 638.06" style="fill:#061e43"/><polygon points="919.77 630.66 929.27 632.86 925.87 640.26 916.47 638.06 919.77 630.66" style="fill:#8a8a8a"/><polygon points="872.57 603.36 881.97 605.56 929.27 632.86 919.77 630.66 872.57 603.36" style="fill:#7d7d7d"/><polygon points="842.07 670.96 889.37 698.26 886.07 705.66 832.97 674.96 863.37 607.36 866.67 599.96 872.57 603.36 919.77 630.66 916.47 638.06 869.17 610.76 842.07 670.96" style="fill:#d1d1d0"/><polygon points="922.27 641.46 931.77 643.56 904.67 703.76 895.27 701.56 922.27 641.46" style="fill:#8a8a8a"/><polygon points="899.57 543.16 909.07 545.36 956.37 572.66 946.87 570.46 899.57 543.16" style="fill:#363636"/><polygon points="950.17 563.06 919.77 630.66 946.87 570.46 899.57 543.16 872.57 603.36 866.67 599.96 863.37 607.36 893.77 539.86 897.07 532.46 902.97 535.76 950.17 563.06" style="fill:#d1d1d0"/><polygon points="950.17 563.06 959.67 565.26 929.27 632.86 919.77 630.66 950.17 563.06" style="fill:#8a8a8a"/><polygon points="946.87 570.46 956.37 572.66 929.27 632.86 919.77 630.66 946.87 570.46" style="fill:#3b3b3b"/><polygon points="919.77 630.66 929.27 632.86 935.07 636.16 925.67 634.06 919.77 630.66" style="fill:#7d7d7d"/><polygon points="946.87 570.46 919.77 630.66 872.57 603.36 899.57 543.16 946.87 570.46" style="fill:#061e43"/><polygon points="902.97 535.76 912.37 537.96 959.67 565.26 950.17 563.06 902.97 535.76" style="fill:#7d7d7d"/><polygon points="952.67 573.86 962.17 576.06 935.07 636.16 925.67 634.06 952.67 573.86" style="fill:#8a8a8a"/><polygon points="950.17 563.06 959.67 565.26 965.47 568.66 956.07 566.46 950.17 563.06" style="fill:#7d7d7d"/><polygon points="977.27 502.86 986.77 505.06 959.67 565.26 950.17 563.06 977.27 502.86" style="fill:#3b3b3b"/><polygon points="977.27 502.86 950.17 563.06 902.97 535.76 929.97 475.66 977.27 502.86" style="fill:#061e43"/><polygon points="929.97 475.66 939.47 477.76 986.77 505.06 977.27 502.86 929.97 475.66" style="fill:#363636"/><polygon points="980.57 495.46 990.07 497.66 959.67 565.26 950.17 563.06 980.57 495.46" style="fill:#8a8a8a"/><polygon points="927.47 464.86 936.97 467.06 990.07 497.66 980.57 495.46 927.47 464.86" style="fill:#506c75"/><polygon points="980.57 495.46 950.17 563.06 977.27 502.86 929.97 475.66 902.97 535.76 897.07 532.46 893.77 539.86 927.47 464.86 980.57 495.46" style="fill:#d1d1d0"/><polygon points="983.07 506.26 992.57 508.46 965.47 568.66 956.07 566.46 983.07 506.26" style="fill:#8a8a8a"/><polygon points="942.47 728.86 951.97 731.06 948.67 738.46 939.17 736.26 942.47 728.86" style="fill:#8a8a8a"/><polygon points="895.27 701.56 904.67 703.76 951.97 731.06 942.47 728.86 895.27 701.56" style="fill:#7d7d7d"/><polygon points="969.57 668.76 979.07 670.86 951.97 731.06 942.47 728.86 969.57 668.76" style="fill:#3b3b3b"/><polygon points="969.57 668.76 942.47 728.86 895.27 701.56 922.27 641.46 969.57 668.76" style="fill:#061e43"/><polygon points="922.27 641.46 931.77 643.56 979.07 670.86 969.57 668.76 922.27 641.46" style="fill:#363636"/><polygon points="972.87 661.36 982.37 663.46 979.07 670.86 969.57 668.76 972.87 661.36" style="fill:#8a8a8a"/><polygon points="895.27 701.56 942.47 728.86 939.17 736.26 891.87 708.96 886.07 705.66 919.77 630.66 925.67 634.06 972.87 661.36 969.57 668.76 922.27 641.46 895.27 701.56" style="fill:#d1d1d0"/><polygon points="925.67 634.06 935.07 636.16 982.37 663.46 972.87 661.36 925.67 634.06" style="fill:#7d7d7d"/><polygon points="975.37 672.06 984.87 674.26 957.77 734.46 948.37 732.26 975.37 672.06" style="fill:#8a8a8a"/><polygon points="999.97 601.16 1009.47 603.36 982.37 663.46 972.87 661.36 999.97 601.16" style="fill:#3b3b3b"/><polygon points="999.97 601.16 972.87 661.36 925.67 634.06 952.67 573.86 999.97 601.16" style="fill:#061e43"/><polygon points="952.67 573.86 962.17 576.06 1009.47 603.36 999.97 601.16 952.67 573.86" style="fill:#363636"/><polygon points="1003.27 593.76 972.87 661.36 999.97 601.16 952.67 573.86 925.67 634.06 919.77 630.66 950.17 563.06 956.07 566.46 1003.27 593.76" style="fill:#d1d1d0"/><polygon points="1003.27 593.76 1012.77 595.86 982.37 663.46 972.87 661.36 1003.27 593.76" style="fill:#8a8a8a"/><polygon points="972.87 661.36 982.37 663.46 988.17 666.86 978.77 664.66 972.87 661.36" style="fill:#7d7d7d"/><polygon points="956.07 566.46 965.47 568.66 1012.77 595.86 1003.27 593.76 956.07 566.46" style="fill:#7d7d7d"/><polygon points="1005.77 604.56 1015.27 606.66 988.17 666.86 978.77 664.66 1005.77 604.56" style="fill:#8a8a8a"/><polygon points="1003.27 593.76 1012.77 595.86 1018.57 599.26 1009.17 597.16 1003.27 593.76" style="fill:#7d7d7d"/><polygon points="1030.37 533.56 1039.87 535.76 1012.77 595.86 1003.27 593.76 1030.37 533.56" style="fill:#3b3b3b"/><polygon points="983.07 506.26 992.57 508.46 1039.87 535.76 1030.37 533.56 983.07 506.26" style="fill:#363636"/><polygon points="1030.37 533.56 1003.27 593.76 956.07 566.46 983.07 506.26 1030.37 533.56" style="fill:#061e43"/><polygon points="1033.67 526.16 1003.27 593.76 1030.37 533.56 983.07 506.26 956.07 566.46 950.17 563.06 980.57 495.46 1033.67 526.16" style="fill:#d1d1d0"/><polygon points="1033.67 526.16 1043.17 528.36 1012.77 595.86 1003.27 593.76 1033.67 526.16" style="fill:#8a8a8a"/><polygon points="980.57 495.46 990.07 497.66 1043.17 528.36 1033.67 526.16 980.57 495.46" style="fill:#506c75"/><polygon points="1036.17 536.96 1045.67 539.16 1018.57 599.26 1009.17 597.16 1036.17 536.96" style="fill:#8a8a8a"/><polygon points="948.37 732.26 957.77 734.46 1005.07 761.76 995.57 759.56 948.37 732.26" style="fill:#7d7d7d"/><polygon points="1022.67 699.36 995.57 759.56 948.37 732.26 975.37 672.06 1022.67 699.36" style="fill:#061e43"/><polygon points="975.37 672.06 984.87 674.26 1032.17 701.56 1022.67 699.36 975.37 672.06" style="fill:#363636"/><polygon points="1022.67 699.36 1032.17 701.56 1005.07 761.76 995.57 759.56 1022.67 699.36" style="fill:#3b3b3b"/><polygon points="978.77 664.66 988.17 666.86 1035.47 694.16 1025.97 691.96 978.77 664.66" style="fill:#7d7d7d"/><polygon points="1031.77 695.36 1041.27 697.46 1007.57 772.46 998.07 770.36 1031.77 695.36" style="fill:#506c75"/><path d="M1121.3,696.3l5.8,3.4-33.7,75-53-30.6-5.9-3.4,33.7-75,5.9,3.4Zm-30.4,67.6,27.1-60.2-47.2-27.3-27.1,60.2Z" transform="translate(-95.33 -4.34)" style="fill:#d1d1d0"/><polygon points="1053.07 631.76 1062.57 633.96 1035.47 694.16 1025.97 691.96 1053.07 631.76" style="fill:#3b3b3b"/><polygon points="1025.97 691.96 1035.47 694.16 1041.27 697.46 1031.77 695.36 1025.97 691.96" style="fill:#7d7d7d"/><polygon points="1005.77 604.56 1015.27 606.66 1062.57 633.96 1053.07 631.76 1005.77 604.56" style="fill:#363636"/><polygon points="1053.07 631.76 1025.97 691.96 978.77 664.66 1005.77 604.56 1053.07 631.76" style="fill:#061e43"/><polygon points="1009.17 597.16 1018.57 599.26 1065.87 626.56 1056.37 624.36 1009.17 597.16" style="fill:#7d7d7d"/><polygon points="1062.17 627.76 1071.67 629.96 1041.27 697.46 1031.77 695.36 1062.17 627.76" style="fill:#506c75"/><polygon points="1056.37 624.36 1065.87 626.56 1071.67 629.96 1062.17 627.76 1056.37 624.36" style="fill:#7d7d7d"/><polygon points="1062.17 627.76 1031.77 695.36 1025.97 691.96 1053.07 631.76 1005.77 604.56 978.77 664.66 972.87 661.36 1003.27 593.76 1009.17 597.16 1056.37 624.36 1062.17 627.76" style="fill:#d1d1d0"/><polygon points="1083.47 564.26 1056.37 624.36 1009.17 597.16 1036.17 536.96 1083.47 564.26" style="fill:#061e43"/><polygon points="1083.47 564.26 1092.97 566.36 1065.87 626.56 1056.37 624.36 1083.47 564.26" style="fill:#3b3b3b"/><polygon points="1036.17 536.96 1045.67 539.16 1092.97 566.36 1083.47 564.26 1036.17 536.96" style="fill:#363636"/><polygon points="1092.57 560.16 1062.17 627.76 1056.37 624.36 1083.47 564.26 1036.17 536.96 1009.17 597.16 1003.27 593.76 1033.67 526.16 1092.57 560.16" style="fill:#d1d1d0"/><polygon points="1092.57 560.16 1102.07 562.36 1071.67 629.96 1062.17 627.76 1092.57 560.16" style="fill:#506c75"/><polygon points="1033.67 526.16 1043.17 528.36 1102.07 562.36 1092.57 560.16 1033.67 526.16" style="fill:#506c75"/><path d="M872.7,700.5l-.1,19.6c0,5.5-3.7,11.1-10.9,15.3-14.6,8.5-38.4,8.5-53.1,0-7.4-4.3-11.1-9.9-11.1-15.5l.1-19.6c0,5.6,3.7,11.2,11.1,15.5,14.7,8.5,38.5,8.5,53.1,0C869,711.5,872.7,706,872.7,700.5Z" transform="translate(-95.33 -4.34)" style="fill:#edb80f"/><path d="M861.6,685c14.7,8.5,14.8,22.3.2,30.8s-38.4,8.5-53.1,0-14.8-22.3-.2-30.7S846.9,676.5,861.6,685Z" transform="translate(-95.33 -4.34)" style="fill:#ffd131"/><path d="M835.1,703a9,9,0,0,1-9-9h0V605.8a9,9,0,1,1,18-.6V694A9,9,0,0,1,835.1,703Z" transform="translate(-95.33 -4.34)" style="fill:#506c75"/><polygon points="650.97 475.06 660.37 477.26 657.07 484.66 647.57 482.46 650.97 475.06" style="fill:#8a8a8a"/><polygon points="653.37 485.86 662.87 488.06 635.87 548.16 626.37 546.06 653.37 485.86" style="fill:#8a8a8a"/><polygon points="650.97 475.06 660.37 477.26 666.27 480.66 656.77 478.46 650.97 475.06" style="fill:#7d7d7d"/><polygon points="681.37 407.56 690.77 409.66 687.47 417.16 677.97 414.96 681.37 407.56" style="fill:#8a8a8a"/><polygon points="683.77 418.36 693.27 420.46 666.27 480.66 656.77 478.46 683.77 418.36" style="fill:#8a8a8a"/><polygon points="681.37 407.56 690.77 409.66 696.67 413.06 687.17 410.86 681.37 407.56" style="fill:#7d7d7d"/><polygon points="714.17 350.76 723.67 352.96 696.67 413.06 687.17 410.86 714.17 350.76" style="fill:#8a8a8a"/><polygon points="673.67 573.36 683.07 575.46 679.77 582.96 670.27 580.76 673.67 573.36" style="fill:#8a8a8a"/><polygon points="626.37 546.06 635.87 548.16 683.07 575.46 673.67 573.36 626.37 546.06" style="fill:#7d7d7d"/><polygon points="700.67 513.16 673.67 573.36 626.37 546.06 653.37 485.86 700.67 513.16" style="fill:#061e43"/><polygon points="700.67 513.16 710.17 515.36 683.07 575.46 673.67 573.36 700.67 513.16" style="fill:#3b3b3b"/><polygon points="653.37 485.86 662.87 488.06 710.17 515.36 700.67 513.16 653.37 485.86" style="fill:#363636"/><polygon points="656.77 478.46 666.27 480.66 713.47 507.96 704.07 505.76 656.77 478.46" style="fill:#7d7d7d"/><polygon points="626.37 546.06 673.67 573.36 670.27 580.76 617.17 550.06 647.57 482.46 650.97 475.06 656.77 478.46 704.07 505.76 700.67 513.16 653.37 485.86 626.37 546.06" style="fill:#d1d1d0"/><polygon points="704.07 505.76 713.47 507.96 710.17 515.36 700.67 513.16 704.07 505.76" style="fill:#8a8a8a"/><polygon points="706.57 516.56 715.97 518.66 688.97 578.86 679.47 576.66 706.57 516.56" style="fill:#8a8a8a"/><polygon points="731.07 445.66 740.57 447.76 713.47 507.96 704.07 505.76 731.07 445.66" style="fill:#3b3b3b"/><polygon points="683.77 418.36 693.27 420.46 740.57 447.76 731.07 445.66 683.77 418.36" style="fill:#363636"/><polygon points="734.47 438.16 704.07 505.76 731.07 445.66 683.77 418.36 656.77 478.46 650.97 475.06 647.57 482.46 677.97 414.96 681.37 407.56 687.17 410.86 734.47 438.16" style="fill:#d1d1d0"/><polygon points="734.47 438.16 743.97 440.36 713.47 507.96 704.07 505.76 734.47 438.16" style="fill:#8a8a8a"/><polygon points="704.07 505.76 713.47 507.96 719.37 511.26 709.87 509.06 704.07 505.76" style="fill:#7d7d7d"/><polygon points="731.07 445.66 704.07 505.76 656.77 478.46 683.77 418.36 731.07 445.66" style="fill:#061e43"/><polygon points="687.17 410.86 696.67 413.06 743.97 440.36 734.47 438.16 687.17 410.86" style="fill:#7d7d7d"/><polygon points="736.87 448.96 746.37 451.16 719.37 511.26 709.87 509.06 736.87 448.96" style="fill:#8a8a8a"/><polygon points="734.47 438.16 743.97 440.36 749.77 443.66 740.27 441.56 734.47 438.16" style="fill:#7d7d7d"/><polygon points="714.17 350.76 723.67 352.96 770.97 380.26 761.47 378.06 714.17 350.76" style="fill:#363636"/><polygon points="761.47 378.06 770.97 380.26 743.97 440.36 734.47 438.16 761.47 378.06" style="fill:#3b3b3b"/><polygon points="761.47 378.06 734.47 438.16 687.17 410.86 714.17 350.76 761.47 378.06" style="fill:#061e43"/><polygon points="764.87 370.56 774.37 372.76 743.97 440.36 734.47 438.16 764.87 370.56" style="fill:#8a8a8a"/><polygon points="711.77 339.96 721.17 342.16 774.37 372.76 764.87 370.56 711.77 339.96" style="fill:#506c75"/><polygon points="764.87 370.56 734.47 438.16 761.47 378.06 714.17 350.76 687.17 410.86 681.37 407.56 677.97 414.96 711.77 339.96 764.87 370.56" style="fill:#d1d1d0"/><polygon points="767.27 381.46 776.77 383.56 749.77 443.66 740.27 441.56 767.27 381.46" style="fill:#8a8a8a"/><polygon points="679.47 576.66 688.97 578.86 736.17 606.16 726.67 603.96 679.47 576.66" style="fill:#7d7d7d"/><polygon points="726.67 603.96 736.17 606.16 732.87 613.56 723.37 611.36 726.67 603.96" style="fill:#8a8a8a"/><polygon points="753.77 543.76 763.27 545.96 736.17 606.16 726.67 603.96 753.77 543.76" style="fill:#3b3b3b"/><polygon points="706.57 516.56 715.97 518.66 763.27 545.96 753.77 543.76 706.57 516.56" style="fill:#363636"/><polygon points="757.07 536.36 766.57 538.56 763.27 545.96 753.77 543.76 757.07 536.36" style="fill:#8a8a8a"/><polygon points="679.47 576.66 726.67 603.96 723.37 611.36 676.07 584.06 670.27 580.76 704.07 505.76 709.87 509.06 757.07 536.36 753.77 543.76 706.57 516.56 679.47 576.66" style="fill:#d1d1d0"/><polygon points="759.67 547.16 769.07 549.36 742.07 609.56 732.57 607.36 759.67 547.16" style="fill:#8a8a8a"/><polygon points="732.57 607.36 742.07 609.56 789.27 636.76 779.77 634.66 732.57 607.36" style="fill:#7d7d7d"/><polygon points="806.87 574.46 816.37 576.66 789.27 636.76 779.77 634.66 806.87 574.46" style="fill:#3b3b3b"/><polygon points="759.67 547.16 769.07 549.36 816.37 576.66 806.87 574.46 759.67 547.16" style="fill:#363636"/><path d="M905.5,571.4l5.9,3.4-33.7,75-53.1-30.7-5.9-3.4,33.7-75,5.9,3.4ZM875.1,639l27-60.2-47.3-27.3-27.1,60.2Z" transform="translate(-95.33 -4.34)" style="fill:#d1d1d0"/><polygon points="753.77 543.76 726.67 603.96 679.47 576.66 706.57 516.56 753.77 543.76" style="fill:#061e43"/><polygon points="709.87 509.06 719.37 511.26 766.57 538.56 757.07 536.36 709.87 509.06" style="fill:#7d7d7d"/><polygon points="784.17 476.26 793.67 478.46 766.57 538.56 757.07 536.36 784.17 476.26" style="fill:#3b3b3b"/><polygon points="736.87 448.96 746.37 451.16 793.67 478.46 784.17 476.26 736.87 448.96" style="fill:#363636"/><polygon points="787.47 468.86 757.07 536.36 784.17 476.26 736.87 448.96 709.87 509.06 704.07 505.76 734.47 438.16 740.27 441.56 787.47 468.86" style="fill:#d1d1d0"/><polygon points="787.47 468.86 796.97 470.96 766.57 538.56 757.07 536.36 787.47 468.86" style="fill:#8a8a8a"/><polygon points="757.07 536.36 766.57 538.56 772.47 541.96 762.97 539.76 757.07 536.36" style="fill:#7d7d7d"/><polygon points="784.17 476.26 757.07 536.36 709.87 509.06 736.87 448.96 784.17 476.26" style="fill:#061e43"/><polygon points="740.27 441.56 749.77 443.66 796.97 470.96 787.47 468.86 740.27 441.56" style="fill:#7d7d7d"/><polygon points="789.97 479.66 799.47 481.86 772.47 541.96 762.97 539.76 789.97 479.66" style="fill:#8a8a8a"/><polygon points="787.47 468.86 796.97 470.96 802.87 474.36 793.37 472.16 787.47 468.86" style="fill:#7d7d7d"/><polygon points="814.57 408.66 787.47 468.86 740.27 441.56 767.27 381.46 814.57 408.66" style="fill:#061e43"/><polygon points="767.27 381.46 776.77 383.56 824.07 410.86 814.57 408.66 767.27 381.46" style="fill:#363636"/><polygon points="817.87 401.26 827.37 403.46 796.97 470.96 787.47 468.86 817.87 401.26" style="fill:#8a8a8a"/><polygon points="817.87 401.26 787.47 468.86 814.57 408.66 767.27 381.46 740.27 441.56 734.47 438.16 764.87 370.56 817.87 401.26" style="fill:#d1d1d0"/><polygon points="814.57 408.66 824.07 410.86 796.97 470.96 787.47 468.86 814.57 408.66" style="fill:#3b3b3b"/><polygon points="764.87 370.56 774.37 372.76 827.37 403.46 817.87 401.26 764.87 370.56" style="fill:#506c75"/><polygon points="806.87 574.46 779.77 634.66 732.57 607.36 759.67 547.16 806.87 574.46" style="fill:#061e43"/><polygon points="762.97 539.76 772.47 541.96 819.67 569.26 810.17 567.06 762.97 539.76" style="fill:#7d7d7d"/><polygon points="837.27 506.96 846.77 509.06 819.67 569.26 810.17 567.06 837.27 506.96" style="fill:#3b3b3b"/><polygon points="810.17 567.06 819.67 569.26 825.57 572.66 816.07 570.46 810.17 567.06" style="fill:#7d7d7d"/><polygon points="816.07 570.46 825.57 572.66 791.77 647.56 782.37 645.46 816.07 570.46" style="fill:#506c75"/><polygon points="789.97 479.66 799.47 481.86 846.77 509.06 837.27 506.96 789.97 479.66" style="fill:#363636"/><polygon points="837.27 506.96 810.17 567.06 762.97 539.76 789.97 479.66 837.27 506.96" style="fill:#061e43"/><polygon points="793.37 472.16 802.87 474.36 850.07 501.66 840.57 499.46 793.37 472.16" style="fill:#7d7d7d"/><polygon points="846.47 502.86 855.97 505.06 825.57 572.66 816.07 570.46 846.47 502.86" style="fill:#506c75"/><polygon points="840.57 499.46 850.07 501.66 855.97 505.06 846.47 502.86 840.57 499.46" style="fill:#7d7d7d"/><polygon points="846.47 502.86 816.07 570.46 810.17 567.06 837.27 506.96 789.97 479.66 762.97 539.76 757.07 536.36 787.47 468.86 793.37 472.16 840.57 499.46 846.47 502.86" style="fill:#d1d1d0"/><polygon points="820.47 412.06 829.87 414.26 802.87 474.36 793.37 472.16 820.47 412.06" style="fill:#8a8a8a"/><polygon points="820.47 412.06 829.87 414.26 877.17 441.56 867.67 439.36 820.47 412.06" style="fill:#363636"/><polygon points="867.67 439.36 877.17 441.56 850.07 501.66 840.57 499.46 867.67 439.36" style="fill:#3b3b3b"/><polygon points="867.67 439.36 840.57 499.46 793.37 472.16 820.47 412.06 867.67 439.36" style="fill:#061e43"/><polygon points="876.87 435.26 886.37 437.46 855.97 505.06 846.47 502.86 876.87 435.26" style="fill:#506c75"/><polygon points="817.87 401.26 827.37 403.46 886.37 437.46 876.87 435.26 817.87 401.26" style="fill:#506c75"/><polygon points="876.87 435.26 846.47 502.86 840.57 499.46 867.67 439.36 820.47 412.06 793.37 472.16 787.47 468.86 817.87 401.26 876.87 435.26" style="fill:#d1d1d0"/></svg>