<svg id="Layer_1" height="512" viewBox="0 0 91 91" width="512" xmlns="http://www.w3.org/2000/svg" data-name="Layer 1"><g fill="rgb(0,0,0)"><path d="m85.84 7.54h-49.15a5.09 5.09 0 0 0 -5.09 5.09v19.12h-25.31a5.1 5.1 0 0 0 -5.09 5.09v32.29a5.1 5.1 0 0 0 5.09 5.09h9.71l-.24 7.94a1.73 1.73 0 0 0 .84 1.54 2 2 0 0 0 1.76 0l17.14-9.52h20.34a5.09 5.09 0 0 0 5.09-5.09v-15.19h2.94l13.56 9.56a2 2 0 0 0 1.81.12 1.72 1.72 0 0 0 1-1.55v-8.13h5.65a5.09 5.09 0 0 0 5.09-5.09v-36.18a5.09 5.09 0 0 0 -5.14-5.09zm-28.41 61.59a1.59 1.59 0 0 1 -1.59 1.59h-20.84a1.79 1.79 0 0 0 -.85.22l-14.83 8.24.2-6.66a1.72 1.72 0 0 0 -.52-1.27 1.75 1.75 0 0 0 -1.26-.53h-11.45a1.59 1.59 0 0 1 -1.59-1.59v-32.29a1.6 1.6 0 0 1 1.59-1.59h25.31v13.56a5.09 5.09 0 0 0 5.09 5.09h20.74zm30-20.32a1.59 1.59 0 0 1 -1.59 1.59h-7.4a1.75 1.75 0 0 0 -1.75 1.75v6.5l-11.25-7.93a1.75 1.75 0 0 0 -1-.32h-27.75a1.59 1.59 0 0 1 -1.59-1.59v-36.18a1.59 1.59 0 0 1 1.59-1.63h49.15a1.59 1.59 0 0 1 1.59 1.59z"/><path d="m47.77 27.37a3.63 3.63 0 1 0 3.63 3.63 3.63 3.63 0 0 0 -3.63-3.63z"/><path d="m62.26 27.37a3.63 3.63 0 1 0 3.62 3.63 3.62 3.62 0 0 0 -3.62-3.63z"/><path d="m76.75 27.37a3.63 3.63 0 1 0 3.62 3.63 3.62 3.62 0 0 0 -3.62-3.63z"/></g></svg>