<svg xmlns="http://www.w3.org/2000/svg" xmlns:xlink="http://www.w3.org/1999/xlink" viewBox="0 0 4047.45 3084.88"><defs><style>.b1e27c63-d1c1-44d8-a123-e9fdd1068eac,.efdcbed3-be10-48b7-9ccc-ea0bd34b2466{fill:#a8e3f7;}.efdcbed3-be10-48b7-9ccc-ea0bd34b2466{opacity:0.37;}.a3f575d7-9f4a-4171-8c40-9c44c0d8ab39{fill:#41b3a7;}.b8f68cc8-2718-44e6-b57a-f62175436221{fill:#a3daaf;}.a9ac40c8-b852-4341-bdd2-92b70bc7ed4e{fill:#66c2ab;}.f6c656a2-2eee-42fb-aea3-255737acf06b{fill:#2d7770;}.b2f25394-5252-42ba-882b-77a02317b55f{fill:#2d6375;}.bba3574a-c5a0-48be-a89d-a0fde9108700{fill:#f9d8c7;}.e10ebfcb-5578-4cbb-803a-82948ff08457{fill:#5ecff5;}.ad696854-f4fe-4699-b1e1-dbadaaa0be9c{fill:#070b3b;}.ac72b796-20eb-42a5-9d93-ff0aea3dff5f{fill:#76d3f4;}.befeb6cf-e8e7-488a-a63e-c3062cdd5fc5{fill:#fca372;}.a361b4f5-14d6-4efc-897c-bbfc97ce8a4e{fill:#3d6e73;}.b7bad964-2c16-46b7-8ab6-18d898e324cd{fill:#dbc6af;}.b468d30f-64e3-44d7-a188-4874d6e48a9f{fill:#88f5ff;}.a948aee5-d6ea-4c69-9def-6feff39f8c98{fill:#efbc90;}.ba883093-8eb2-4eee-a35a-ad81d60931d7{fill:#4aa4c2;}.adb2e7af-d57a-4455-9c83-462da48bf641{fill:url(#bb3d8116-3650-4ecf-8864-37469dcacdcc);}.b1e83fac-1341-40d3-b1ea-e0e281161f2c{fill:#144d4c;}.a4a7d387-305b-4cb8-87ee-d9c12f652cb0{fill:#af6641;}.ed025b8f-f71d-44c3-bf13-cb72289b7748{fill:url(#bfed143d-b040-4a4d-b628-16306cdb4c0a);}.a935779b-e4f3-48dd-9cf3-8ab85f55c365{fill:#a1dbcc;}.e14642a0-7e6f-45c9-b9ae-1564cdbc5b3f{fill:#ff980d;}.eddcf0a5-54d6-4eba-81fb-45fc0e0b70de{fill:#ffd131;}.b6ce9682-97ee-4cd2-8efc-5a7671402ce4{fill:#071841;}.af1f90a3-56fa-414d-8ade-5fee604c8aa4{fill:#efd0b1;}.a946c783-80db-41ba-9555-83da33c9e06d{fill:#f4caab;}</style><linearGradient id="bb3d8116-3650-4ecf-8864-37469dcacdcc" x1="2003.26" y1="2606.17" x2="2404.5" y2="2606.17" gradientUnits="userSpaceOnUse"><stop offset="0" stop-color="#a4b8ea"/><stop offset="1" stop-color="#7a8fd8"/></linearGradient><linearGradient id="bfed143d-b040-4a4d-b628-16306cdb4c0a" x1="2660.55" y1="-1467.71" x2="2701.49" y2="-1420.78" gradientTransform="translate(923.78 3536.62) rotate(-20.18)" gradientUnits="userSpaceOnUse"><stop offset="0" stop-color="#555ea3"/><stop offset="1" stop-color="#51537a"/></linearGradient></defs><g id="a3b369f9-3aa6-4722-9870-5a1153c6e0b0" data-name="—ÎÓÈ_1"><path class="efdcbed3-be10-48b7-9ccc-ea0bd34b2466" d="M3637.32,1650.33c-63-86.46-96.1-190.85-95.93-297.81v-1.78c0-690.36-636.36-1250-1421.36-1250-480.76,0-905.76,209.93-1163,531.23C869.66,741.11,764.15,834.29,646.3,909.54,327.58,1113,116.79,1470.62,119,1877.3c3.35,628.48,511.5,1133.79,1140,1133.79a1137.47,1137.47,0,0,0,404-73.67c250.87-95.12,527.9-90.16,775.66,12.79,121,50.29,255.35,78.28,396.8,78.28,532.5,0,964.17-396.68,964.17-886C3799.63,1960.37,3739.84,1791.1,3637.32,1650.33Z"/><path class="a3f575d7-9f4a-4171-8c40-9c44c0d8ab39" d="M1685.8,1831.18S1828,1111.76,2058.5,690s505.59-567.53,505.59-567.53-118.34,189.54-181,437.26-59.83,506.32-171.7,750.52C2042.12,1679.7,1685.8,1831.18,1685.8,1831.18Z"/><path class="b8f68cc8-2718-44e6-b57a-f62175436221" d="M2065.13,1305.16c-53.25-18.4-145.91-67-170.52-126.68-22.72-55.09,34.56-108.7,20.52-160.74s-149-112.48-175.92-174.89c-32-74,84.77-108.79,45.48-163.24s-194-136.38-196.86-193.9,63-44.18,25.58-156.65c-31.67-95.24-74.6-220.44-5.26-257.39C1682,32.3,1743,135.55,1770.57,212.73c35.47,99.43,106.56,13.6,158.31,66.15,46.8,47.52,2.31,254.4,35.59,302.91s118,31.47,161.37,113.1-58.7,178.68-39.41,237.62,106.42,53.08,134.17,136.82S2065.13,1305.16,2065.13,1305.16Z"/><path class="b8f68cc8-2718-44e6-b57a-f62175436221" d="M2604.19,405S2384.63,506.69,2241.36,670s-209.92,404.16-326.16,514.92c0,0,182.9-75,264.39-170.32s106.39-233.06,159.81-328C2385.77,604.24,2488.54,496.14,2604.19,405Z"/><path class="b8f68cc8-2718-44e6-b57a-f62175436221" d="M2557.41,2657c56.75,30.85,169.54,71.72,239.08,46.43,64.2-23.35,65.3-113.29,120.22-141.63s210.38,39.16,284.05,13.74c87.37-30.15,26.58-155.87,103.06-164.7s265.39,58.78,316.34,16.78-11.29-87.49,112.84-142.76c105.12-46.81,244.31-107.25,222-194.52-23.8-93-158.35-64.82-245-28.46-111.6,46.83-93.88-79.7-178.39-82.9-76.4-2.88-217.17,194.71-284,204s-117.88-75.61-220.5-49.19-105.9,187.82-170.71,217.06-127.2-49.07-219.56-7.83S2557.41,2657,2557.41,2657Z"/><path class="a9ac40c8-b852-4341-bdd2-92b70bc7ed4e" d="M2393.21,2718.05c114-6.92,321.55-51.33,402.16-154.46,74.42-95.21-8.24-231.16,47.57-325.15s352.3-138.47,439-245.67c102.8-127.12-106.24-258.71.21-343.65s453.21-160.61,490.25-271.37-98.94-120.65,35.46-319.94c113.8-168.75,265.94-389.9,150.65-499.87-122.87-117.19-298.3,51.2-394.18,186.95-123.5,174.87-215.55-31.55-345.3,42.87-117.32,67.29-143.25,495.65-234.71,572.26s-247.69-2.92-376.86,132.91,17.2,381-52.61,485.62-236.81,45.64-336.69,194.07S2393.21,2718.05,2393.21,2718.05Z"/><path class="a9ac40c8-b852-4341-bdd2-92b70bc7ed4e" d="M84.72,1511.45C20.13,1987.28,996,2138.09,1002,2229.73S512.36,2298,630.47,2538.33c109.46,222.72,881.76,254,1420.82-50.86,15.61-8.82,358.93-729.14,36.95-1110.49s-355.41,319.87-491.77,312.37,93.23-883-196.26-1044.14c-300-166.91-340.83,451.76-481.81,368.22C784.85,934.29,651.23,70.22,310.62,209.83A274.84,274.84,0,0,0,272.77,229l-.15.08h0q-10.25,6.18-20.73,13.56C-132.59,513.58,706.63,1369.79,534.32,1418.5S117.46,1270.32,84.72,1511.45Z"/><path class="b8f68cc8-2718-44e6-b57a-f62175436221" d="M1764.25,2655.35S1347.06,1863.43,973,1440.48,297.53,926.2,297.53,926.2,478.64,1112.13,634.37,1381s258.14,568.64,455.74,819.61C1389.05,2580.23,1764.25,2655.35,1764.25,2655.35Z"/><path class="f6c656a2-2eee-42fb-aea3-255737acf06b" d="M1614.9,2666.25s-370.1-505.65-672.5-760.2-520.51-286.91-520.51-286.91,144.48,110.2,279.89,280.41,237.07,367.34,399.64,520.88C1347.36,2652.7,1614.9,2666.25,1614.9,2666.25Z"/><path class="b2f25394-5252-42ba-882b-77a02317b55f" d="M2793.8,619.06q-10.11-3.9-20.41-7.47h0C2460,503.17,2121.73,739.27,1997,1057.9c-124.72-318.63-463-554.73-776.38-446.31h0q-10.31,3.57-20.41,7.47C819.1,766.38,685.34,1269.64,926.56,1616.7,1194.17,2001.75,1997,2693.16,1997,2693.16s802.84-691.41,1070.45-1076.46C3308.69,1269.64,3174.93,766.38,2793.8,619.06Z"/><path class="b1e27c63-d1c1-44d8-a123-e9fdd1068eac" d="M1365.39,1267.63a19,19,0,0,0-20.75,17L1329,1440.77H972.54l15.24-152.39a19,19,0,0,0-37.74-3.77L798.36,2801.26a19,19,0,0,0,17,20.75,17.59,17.59,0,0,0,1.91.1A19,19,0,0,0,836.09,2805l30.85-308.4h356.48L1193,2801.26a19,19,0,0,0,17,20.75,17.46,17.46,0,0,0,1.91.1,19,19,0,0,0,18.84-17.08l151.68-1516.65A19,19,0,0,0,1365.39,1267.63Zm-40.16,211.06-21.66,216.57H947.08l21.66-216.57Zm-403.6,471.05,21.66-216.56h356.49l-21.66,216.56Zm352.7,37.92-21.66,216.56H896.18l21.66-216.56Zm-403.6,471.05,21.66-216.57h356.48l-21.65,216.57Z"/><path class="bba3574a-c5a0-48be-a89d-a0fde9108700" d="M1107.34,1242.44l98,151.14-18.59-5.9,123.35-41.92,11.21-3.8,8,21.48-10.95,4.48-120.57,49.35a15.2,15.2,0,0,1-18.11-5.22l-.48-.69-104.72-146.57L1063,1248.63l33.56-22.85Z"/><path class="bba3574a-c5a0-48be-a89d-a0fde9108700" d="M1390.93,1329.8c2.37,7.78-10.92,22.46-33.2,31.79-20.54,8.59-37.62,5.09-40.65-2.55C1310.3,1342,1387.26,1317.77,1390.93,1329.8Z"/><path class="e10ebfcb-5578-4cbb-803a-82948ff08457" d="M1259.38,1354.14l22.95,68.79s-80,16.14-113.76-8.13c-47.38-34-126.77-145.43-92.37-174.6,38.2-32.4,68.85,73.78,114,113.42C1209.5,1370.62,1259.38,1354.14,1259.38,1354.14Z"/><path class="ad696854-f4fe-4699-b1e1-dbadaaa0be9c" d="M1138.77,1068.72c-35.54-25.48-78.34-8.11-84,28.68-7.38,47.74,2,86.19-9.92,117.86-18.39,49.09-13.29,97.33-13.29,97.33,48.51-66.12,98.63-38.75,126.31-105.17C1166.73,1186.08,1172.83,1093.13,1138.77,1068.72Z"/><polygon class="bba3574a-c5a0-48be-a89d-a0fde9108700" points="1124.63 1229.56 1082.19 1229.56 1082.19 1148.37 1108.12 1148.37 1124.63 1229.56"/><path class="bba3574a-c5a0-48be-a89d-a0fde9108700" d="M1156,1107.27c7.17,33.33,1.87,66.93-18.25,74.22-18.87,6.84-51.62-11.24-66.6-44.19-15.78-34.68-8.07-60.61,19.87-70.26C1120.67,1056.79,1148.11,1070.74,1156,1107.27Z"/><polygon class="bba3574a-c5a0-48be-a89d-a0fde9108700" points="1212.26 1918.86 1183.73 1712.26 1153.64 1505.9 1148.2 1468.56 1069.6 1485.52 1080.03 1521.78 1137.67 1722.05 1194.32 1922.61 1196.82 1931.45 1213.51 1927.96 1212.26 1918.86"/><path class="bba3574a-c5a0-48be-a89d-a0fde9108700" d="M1039.77,1468.55l-1.31,37.71-7.62,219.28-95.79,142.82-5.12,7.63,13.26,10.47,6.24-6.75,122.39-132.5a17.12,17.12,0,0,0,4.33-8.85l.52-3.18,36.72-221.44,6.17-37.22Z"/><polygon class="ad696854-f4fe-4699-b1e1-dbadaaa0be9c" points="1054.21 1461.6 1165.53 1461.6 1213.55 1848.97 1148.78 1858.4 1054.21 1461.6"/><path class="ad696854-f4fe-4699-b1e1-dbadaaa0be9c" d="M1023.65,1461.6h107s-19.6,247.59-35.55,276.7c-19.13,34.89-94.88,115.87-94.88,115.87l-51.45-39.74s54.19-76.71,67.28-112.73S1023.65,1461.6,1023.65,1461.6Z"/><path class="ac72b796-20eb-42a5-9d93-ff0aea3dff5f" d="M1081.17,1222.66s22.88,20.06,45.76,6.69c0,0,7.83,83.59,18.07,117.69s36.81,120.85,36.81,120.85L1019,1470.76C1014.55,1394.44,1043.38,1307.75,1081.17,1222.66Z"/><path class="bba3574a-c5a0-48be-a89d-a0fde9108700" d="M1097.63,1277.69c-10.66,19.92-21,40.68-30.36,61.38-4.68,10.38-9.17,20.82-13.23,31.29a264.6,264.6,0,0,0-10.27,31.19c-.63,2.55-1.13,5-1.58,7.46l-1.26,8.2c-.73,5.56-1.43,11.15-2,16.82-1.16,11.33-2.06,22.78-2.83,34.26-1.47,23-2.47,46.17-3,69.18l-.28,11.13-21.62.18-.36-11.13c-.76-23.49-1.09-46.81-.93-70.32.11-11.75.37-23.52.9-35.39.26-5.93.66-11.91,1.1-17.92l.88-9.1c.4-3.27.91-6.57,1.51-9.71a296.75,296.75,0,0,1,9.66-35.61c3.77-11.42,7.9-22.59,12.22-33.64,8.72-22.13,18-43.59,28.18-65.24l8-16.91,34.16,17.4Z"/><path class="e10ebfcb-5578-4cbb-803a-82948ff08457" d="M1075.43,1212.92s-79.51,118.91-63.32,245.74c0,0-6.83,24.91,83.38,21.52s95.38-15.86,95.38-15.86c-28.56-68.06-50.74-145.1-61.76-237.85C1129.11,1226.47,1095.38,1227.71,1075.43,1212.92Z"/><path class="e10ebfcb-5578-4cbb-803a-82948ff08457" d="M1068.31,1486l-69.51,8.6s2.75-79,13.06-124.28c13-56.89,37.13-141.64,80.73-130.09,57,15.08-25.68,129.25-31.65,160.55C1056.12,1426.05,1068.31,1486,1068.31,1486Z"/><path class="bba3574a-c5a0-48be-a89d-a0fde9108700" d="M1009.57,1611.81c-7.42-1.88-12.78-19.74-9.44-42.22,3.07-20.74,14.21-32.78,21.84-31.51C1039,1540.93,1021.05,1614.71,1009.57,1611.81Z"/><path class="bba3574a-c5a0-48be-a89d-a0fde9108700" d="M1031.67,1583.26c3.33-.49,6.36-9.2,5.76-20.78-.56-10.69-5-17.47-8.39-17.3C1021.45,1545.58,1026.52,1584,1031.67,1583.26Z"/><path class="ad696854-f4fe-4699-b1e1-dbadaaa0be9c" d="M1277.45,1938.83l-13.13-2.34h0l-48-18.59v.39s-.58,8.23-10.55,9.77c-7.34,1.15-12.1-.81-14.11-1.92a2.25,2.25,0,0,0-1.08-.69c-3.21,0-5.81,5.24-5.81,11.71a21.42,21.42,0,0,0,.78,5.83v9h95.62v-9.1A4.06,4.06,0,0,0,1277.45,1938.83Z"/><path class="ad696854-f4fe-4699-b1e1-dbadaaa0be9c" d="M984.06,1937.63l-8.14-10.57h0l-23-46.06-.26.28s-6,5.69-14.38.13c-6.2-4.1-8.41-8.76-9.14-10.93a2.32,2.32,0,0,0-.34-1.24c-2.37-2.15-7.82,0-12.18,4.76a21.27,21.27,0,0,0-3.35,4.83l-6,6.64,70.71,64.38,6.13-6.73A4.08,4.08,0,0,0,984.06,1937.63Z"/><path class="ad696854-f4fe-4699-b1e1-dbadaaa0be9c" d="M1100.64,1058c-9.65,0-16.26.86-24.48,5.12-13.21,6.85-30.64,23.2-34.1,60.27-3.23,34.56,10.61,51.47-18.92,84.07-33.21,25.21-92.4,20.91-85.56,77.49s81.87,49.21,99.71,20.92,15.83-53.51,25.75-71.35,27.14-7.38,35.76-27.06c10.09-18.52-7.44-60.05-10.59-67.2,2.11-7,4.84-14.6,16.12-17.68,24.21-6.6,44.28-29.52,44.28-36.9S1126.47,1058,1100.64,1058Z"/><path class="bba3574a-c5a0-48be-a89d-a0fde9108700" d="M1099.83,1128c2.5,5.58.76,11.79-3.89,13.88s-10.44-.75-12.94-6.33-.76-11.79,3.89-13.88S1097.33,1122.41,1099.83,1128Z"/><path class="bba3574a-c5a0-48be-a89d-a0fde9108700" d="M1352.83,1325.39c-2.28-2.76-11.86-.73-22.07,6.19-9.4,6.38-13.14,14.13-11.11,17.13C1324.18,1355.4,1356.35,1329.65,1352.83,1325.39Z"/><polygon class="befeb6cf-e8e7-488a-a63e-c3062cdd5fc5" points="1499.08 334.46 1457.92 323.14 1479.58 244.38 1504.73 251.3 1499.08 334.46"/><path class="befeb6cf-e8e7-488a-a63e-c3062cdd5fc5" d="M1562.11,224.2c-1.94,34.24-16,65.43-37.5,67.13-20.13,1.59-47.07-24.68-52.82-60.64-6-37.85,8.34-60.94,38-62.85C1541.34,165.81,1564.23,186.67,1562.11,224.2Z"/><path class="ad696854-f4fe-4699-b1e1-dbadaaa0be9c" d="M1506.65,223c6.62-12.49,19.73-15.75,29.67-16.87s26,3.32,28-3.84-2.1-33.71-42.73-40.63c-36.78-6.27-59.78,14.36-69,40.71-8,23.06,5.5,49.56,23.87,46S1498.64,238.08,1506.65,223Z"/><path class="befeb6cf-e8e7-488a-a63e-c3062cdd5fc5" d="M1504.74,234c.88,6.09-2.52,11.62-7.59,12.35s-9.9-3.6-10.78-9.69,2.51-11.61,7.58-12.35S1503.85,227.88,1504.74,234Z"/><path class="ad696854-f4fe-4699-b1e1-dbadaaa0be9c" d="M1520,126.58c6.09,15.68-2.42,40.51-21.89,48.08s-42.51-5-48.61-20.67,8.23-25.56,27.7-33.13S1513.87,110.9,1520,126.58Z"/><path class="befeb6cf-e8e7-488a-a63e-c3062cdd5fc5" d="M1696.4,523.86c-.37,7.49-12,16.09-27.94,17.25-14.69,1.07-24.39-7.27-24.47-14.84C1643.82,509.37,1697,512.29,1696.4,523.86Z"/><path class="befeb6cf-e8e7-488a-a63e-c3062cdd5fc5" d="M1713.54,606.6l-3-.55L1498.4,566.8l-37.33-6.9-9.29,80.37,37.92,1.79,184.06,8.71-74.49,179-3.54,8.53,15.53,7.61,4.56-8,113-198.46a22.86,22.86,0,0,0,2.53-6.94A22.19,22.19,0,0,0,1713.54,606.6Z"/><path class="befeb6cf-e8e7-488a-a63e-c3062cdd5fc5" d="M1734.1,617.69l-2.7-.49L1496,573.86,1458.69,567,1449,646.8l37.88,2.27,219.64,13.15,12,226.72.49,9.22,17.39.06L1737,889l14.86-248.64A21.73,21.73,0,0,0,1734.1,617.69Z"/><path class="ad696854-f4fe-4699-b1e1-dbadaaa0be9c" d="M1526.3,548.06c26.9,43.37,186.82,28.37,209.86,60.21,30.74,42.47-95.57,206.62-95.57,206.62l-42-23.47S1663,675.31,1660.35,667c-3.29-10.58-178.79,14.48-226.28-25.59-36.87-31.12-18.66-93.33-18.66-93.33Z"/><path class="ad696854-f4fe-4699-b1e1-dbadaaa0be9c" d="M1513.78,548.06c23.47,53.28,214.22,33.6,241.27,80,21.82,37.47-.59,227.69-.59,227.69L1704,854.42s.27-161.95-9.61-172.94c-7.27-8.08-209.78,10.58-260.32-25.58-43.26-30.95-18.66-107.84-18.66-107.84Z"/><path class="befeb6cf-e8e7-488a-a63e-c3062cdd5fc5" d="M1504.77,351.72l28.67,163.46-13.64-11.7,119.7,8.88,10.87.81-.92,21.11-10.9-.15-120-1.58a14,14,0,0,1-13.47-10.94l-.17-.76-36-162-4-17.86,36.68-7.29Z"/><path class="a361b4f5-14d6-4efc-897c-bbfc97ce8a4e" d="M1448.27,355.52c-2.83,39.13,22.46,140.77,62.37,175.72,23.7,20.76,102.59,6.82,102.59,6.82l3.84-30.8s-59,8.89-72.5-25.41-22-128-42-142.25C1485,327,1449.54,338,1448.27,355.52Z"/><path class="b7bad964-2c16-46b7-8ab6-18d898e324cd" d="M1467.33,319.33s21.74,20.36,44.56,8c0,0,5,82,13.92,115.72s35.52,122.32,35.52,122.32l-162.74-5.3C1396.67,485.26,1427.64,401.38,1467.33,319.33Z"/><path class="a361b4f5-14d6-4efc-897c-bbfc97ce8a4e" d="M1459.8,312.37S1378.23,426.16,1390,550.76c0,0-7.48,24.16,80.89,23.71S1564.72,562,1564.72,562c-25.77-67.5-45-143.57-52.83-234.67C1511.89,327.33,1478.85,327.47,1459.8,312.37Z"/><path class="befeb6cf-e8e7-488a-a63e-c3062cdd5fc5" d="M1486,377.19c-11.9,18.64-23.52,38.12-34.26,57.61-5.36,9.78-10.53,19.63-15.28,29.54A259.76,259.76,0,0,0,1424.12,494c-.81,2.45-1.48,4.77-2.1,7.16l-1.85,7.91c-1.14,5.37-2.24,10.78-3.22,16.27-2,11-3.74,22.07-5.35,33.22-3.17,22.31-5.9,44.87-8.19,67.28l-1.11,10.85-21.12-1.46.49-10.89c1-23,2.48-45.76,4.41-68.7,1-11.46,2.14-22.93,3.55-34.47.7-5.77,1.54-11.57,2.43-17.4l1.54-8.82c.64-3.16,1.39-6.34,2.21-9.36a289.89,289.89,0,0,1,12.12-34c4.54-10.87,9.42-21.45,14.47-31.91,10.17-20.94,20.85-41.18,32.43-61.54l9-15.91,32,19.57Z"/><path class="a361b4f5-14d6-4efc-897c-bbfc97ce8a4e" d="M1449.32,338.32c-29.25,26.14-48.13,87.59-62.33,138.7s-8,130-8,130l32.09,2.84s5.35-79.72,19.53-113.75,73.2-107.24,68.8-131.38C1495.56,343.41,1462.46,326.58,1449.32,338.32Z"/><path class="befeb6cf-e8e7-488a-a63e-c3062cdd5fc5" d="M1380.63,699.56c-7.27-1.8-12.6-19.25-9.45-41.27,2.9-20.31,13.74-32.16,21.22-30.95C1409.1,630,1391.89,702.35,1380.63,699.56Z"/><path class="befeb6cf-e8e7-488a-a63e-c3062cdd5fc5" d="M1402.12,671.51c3.26-.5,6.19-9,5.53-20.37-.6-10.46-5-17.08-8.3-16.89C1391.92,634.68,1397.08,672.28,1402.12,671.51Z"/><path class="b468d30f-64e3-44d7-a188-4874d6e48a9f" d="M1803.36,907.71l-13.21-2.35h0l-48.29-18.69v.39s-.59,8.27-10.62,9.83c-7.39,1.15-12.18-.82-14.19-1.94a2.31,2.31,0,0,0-1.09-.69c-3.23,0-5.85,5.28-5.85,11.78a21.72,21.72,0,0,0,.78,5.87v9h96.21v-9.15A4.09,4.09,0,0,0,1803.36,907.71Z"/><path class="b468d30f-64e3-44d7-a188-4874d6e48a9f" d="M1654.92,894.85l-9-10h0l-26.56-44.46-.24.3s-5.55,6.17-14.42,1.22c-6.53-3.64-9.09-8.14-10-10.26a2.32,2.32,0,0,0-.44-1.22c-2.54-2-7.85.56-11.85,5.69a21.42,21.42,0,0,0-3,5.1l-5.56,7.12,75.82,59.22,5.64-7.22A4.1,4.1,0,0,0,1654.92,894.85Z"/><path class="a948aee5-d6ea-4c69-9def-6feff39f8c98" d="M1683.06,510.47c-.94-3.16-9.8-4.89-20.94-2.7-10.27,2-16.23,7.26-15.59,10.53C1648,525.6,1684.51,515.36,1683.06,510.47Z"/><polygon class="ba883093-8eb2-4eee-a35a-ad81d60931d7" points="1999.91 2880.95 1592.24 2728.8 1592.24 2331.39 1999.91 2483.55 1999.91 2880.95"/><polygon class="adb2e7af-d57a-4455-9c83-462da48bf641" points="2407.59 2728.8 1999.91 2880.95 1999.91 2483.55 2407.59 2331.39 2407.59 2728.8"/><polygon class="b1e27c63-d1c1-44d8-a123-e9fdd1068eac" points="1878.19 2607.08 1470.52 2454.93 1592.24 2331.39 1999.91 2483.55 1878.19 2607.08"/><polygon class="b2f25394-5252-42ba-882b-77a02317b55f" points="2407.59 2728.8 1999.91 2880.95 1999.91 2483.55 2407.59 2331.39 2407.59 2728.8"/><polygon class="e10ebfcb-5578-4cbb-803a-82948ff08457" points="2121.64 2607.08 2529.31 2454.93 2407.59 2331.39 1999.91 2483.55 2121.64 2607.08"/><rect class="b1e83fac-1341-40d3-b1ea-e0e281161f2c" x="2584.36" y="2350.34" width="736.97" height="489.7"/><rect class="a3f575d7-9f4a-4171-8c40-9c44c0d8ab39" x="2550.71" y="2350.34" width="804.26" height="154.03"/><rect class="a3f575d7-9f4a-4171-8c40-9c44c0d8ab39" x="2707.99" y="2538.91" width="489.7" height="112.56" transform="translate(5548.02 -357.65) rotate(90)"/><rect class="b468d30f-64e3-44d7-a188-4874d6e48a9f" x="2644.39" y="1870.65" width="721.9" height="479.69"/><rect class="ba883093-8eb2-4eee-a35a-ad81d60931d7" x="2611.43" y="1870.65" width="787.82" height="150.88"/><rect class="ba883093-8eb2-4eee-a35a-ad81d60931d7" x="2765.5" y="2055.36" width="479.69" height="110.25" transform="translate(5115.83 -894.85) rotate(90)"/><rect class="b1e83fac-1341-40d3-b1ea-e0e281161f2c" x="2721.02" y="1466.4" width="608.36" height="404.25"/><rect class="a3f575d7-9f4a-4171-8c40-9c44c0d8ab39" x="2693.24" y="1466.4" width="663.92" height="127.15"/><rect class="a3f575d7-9f4a-4171-8c40-9c44c0d8ab39" x="2823.08" y="1622.07" width="404.25" height="92.92" transform="translate(4693.72 -1356.67) rotate(90)"/><polygon class="a4a7d387-305b-4cb8-87ee-d9c12f652cb0" points="2959.5 1122.54 3004.61 1120.12 2999.97 1033.83 2972.4 1035.31 2959.5 1122.54"/><path class="a4a7d387-305b-4cb8-87ee-d9c12f652cb0" d="M2919.2,994.36c-5.72,35.83,1.84,71.25,23.64,77.84,20.45,6.19,54.22-14.9,68.26-50.77,14.79-37.77,5.12-64.88-25.13-73.55C2953.83,938.68,2925.47,955.09,2919.2,994.36Z"/><path class="ad696854-f4fe-4699-b1e1-dbadaaa0be9c" d="M3000.57,1045.06l-4.86-1.69s1-16.86-2.33-21c-4.22-5.31-23.92-3.67-23.92-3.67s-1.76-18.68-9.49-23.3c-6.86-4.1-34.48-5.64-44.85.45,0,0-5.7-17.68,1.5-34.25,7.93-18.27,23.69-24.76,43.68-26.83s41.57.26,47.23,22.44c0,0,17.35,2.81,18.62,26.47S3000.57,1045.06,3000.57,1045.06Z"/><ellipse class="a4a7d387-305b-4cb8-87ee-d9c12f652cb0" cx="2986.76" cy="1019.22" rx="11.78" ry="9.82" transform="translate(962.06 3440) rotate(-68.93)"/><path class="a4a7d387-305b-4cb8-87ee-d9c12f652cb0" d="M2620.86,1679.32l61.75-221.52a21.9,21.9,0,0,1,16-15.4l3-.72,245.24-58.29,39.07-9.28,14.56,83.82-39.91,4.43-237.76,26.39-83.55,197-3.82,9-17.22-6Z"/><path class="a4a7d387-305b-4cb8-87ee-d9c12f652cb0" d="M2705.23,1455.24l3.14-.7,238.26-53.12,39.19-8.74,13.24,84.21-40,3.71-150.7,14,113.74,50.36,8.94,4-6.22,17.09-9.39-2.72L2703.77,1502a24.13,24.13,0,0,1,1.46-46.73Z"/><path class="ad696854-f4fe-4699-b1e1-dbadaaa0be9c" d="M2906.37,1366.29c-42.55,36.34-196,40-227.17,71.67-32.17,32.65-53.47,203.3-53.47,203.3l35.75,12.48s58.54-159.57,68.15-166.08,216.77,13.85,269.47-18.06c43.68-26.44,24.46-97.68,24.46-97.68Z"/><path class="ad696854-f4fe-4699-b1e1-dbadaaa0be9c" d="M2924.94,1367.18c-30.63,44.47-232.37,47.75-245.3,96-14.12,52.66,206.71,98.66,206.71,98.66l11.35-35.58s-82.16-26.19-80.64-30.62c1.41-4.13,148.39,14.8,200.61-25.14,40.55-31,24.46-97.68,24.46-97.68Z"/><path class="a948aee5-d6ea-4c69-9def-6feff39f8c98" d="M2967.08,1160.14l-44.07,167,15.42-11.12-124.89-1.27-11.53-.12-.92,22.32,11.5.83,124.58,9a14.81,14.81,0,0,0,15.18-10.32l.24-.8,51.68-164.78,5.79-18.47-38-11Z"/><path class="ed025b8f-f71d-44c3-bf13-cb72289b7748" d="M3025.63,1169.15c-.51,40.82-38.27,143.66-82.73,176.38-26.4,19.44-104.4-1.65-104.4-1.65l-1.27-32.27s62.56,9.75,79.56-24.63,31.95-126.08,53.89-139.13C2990,1136.35,3025.86,1150.82,3025.63,1169.15Z"/><path class="ac72b796-20eb-42a5-9d93-ff0aea3dff5f" d="M3003.67,1110.68s-24.66,19.62-47.67,4.65c0,0-12.25,86.08-24.53,120.85s-47.88,126-47.88,126l172.08,8.26C3064.05,1291.69,3038.53,1200.59,3003.67,1110.68Z"/><path class="a935779b-e4f3-48dd-9cf3-8ab85f55c365" d="M3010.36,1103.07s76.33,127,53.29,257.35c0,0,5.83,26.11-87.33,18.12s-97.87-21.14-97.87-21.14c32.92-69,59.7-147.58,75.7-243C2954.15,1114.42,2989,1117.38,3010.36,1103.07Z"/><path class="a948aee5-d6ea-4c69-9def-6feff39f8c98" d="M2752.88,1318c-.52,7.91,10.69,18.35,27.29,21.5,15.31,2.9,26.51-4.71,27.51-12.65C2809.89,1309.1,2753.68,1305.76,2752.88,1318Z"/><path class="a948aee5-d6ea-4c69-9def-6feff39f8c98" d="M2766.35,1304c1.52-3.13,11.07-3.42,22.32.79,10.38,3.88,15.7,10.37,14.47,13.67C2800.39,1325.79,2764,1308.8,2766.35,1304Z"/><path class="a935779b-e4f3-48dd-9cf3-8ab85f55c365" d="M2965.09,1112.81s-5.6,75.94-25.58,157.51-47,134.63-47,134.63,161.4,17.67,191.48-21c27.09-34.81-32.3-238.78-67.56-284.63Z"/><path class="b468d30f-64e3-44d7-a188-4874d6e48a9f" d="M2909.83,1653.12l2.09-17.2h0l-4.83-66.72.48.15s10.44,2.41,16.16-9.39c4.21-8.69,3.59-15.35,3-18.26a3,3,0,0,1-.44-1.61c1.22-4,8.72-5.22,16.76-2.76a27.45,27.45,0,0,1,6.94,3.18l11.16,3.41-36.37,118.81-11.3-3.46A5.29,5.29,0,0,1,2909.83,1653.12Z"/><path class="b468d30f-64e3-44d7-a188-4874d6e48a9f" d="M2535.15,1697.32l17.19-2.14h0l63.56-20.85,0,.5s.2,10.71,13,13.4c9.45,2,15.76-.24,18.44-1.54a2.92,2.92,0,0,1,1.45-.82c4.16.22,7.18,7.2,6.74,15.59a27.78,27.78,0,0,1-1.4,7.51l-.61,11.65-124.08-6.49.62-11.81A5.28,5.28,0,0,1,2535.15,1697.32Z"/><rect class="b468d30f-64e3-44d7-a188-4874d6e48a9f" x="2614.24" y="1169.76" width="279.01" height="185.4"/><rect class="ba883093-8eb2-4eee-a35a-ad81d60931d7" x="2601.5" y="1169.76" width="304.49" height="58.32"/><rect class="ba883093-8eb2-4eee-a35a-ad81d60931d7" x="2661.05" y="1241.15" width="185.4" height="42.61" transform="translate(4016.21 -1491.29) rotate(90)"/><path class="a4a7d387-305b-4cb8-87ee-d9c12f652cb0" d="M2973.15,1160.85,2962,1336.09l13-13.89-124.84,23.28-11.34,2.11,3.43,22.09,11.44-1.42,126-15.64a14.8,14.8,0,0,0,12.89-13.07l.09-.82,19-174.56,2.1-19.24-39.43-3.39Z"/><path class="a4a7d387-305b-4cb8-87ee-d9c12f652cb0" d="M2792.2,1362.83c1.21,7.84,14.43,15.59,31.32,15,15.57-.51,24.85-10.37,24.08-18.35C2845.9,1341.72,2790.31,1350.72,2792.2,1362.83Z"/><path class="a4a7d387-305b-4cb8-87ee-d9c12f652cb0" d="M2802.28,1346.19c.8-3.4,10-5.75,22-4.1,11,1.52,17.58,6.7,17.1,10.19C2840.26,1360.08,2801,1351.44,2802.28,1346.19Z"/><path class="a935779b-e4f3-48dd-9cf3-8ab85f55c365" d="M3033,1158.28c10.22,40.22-6.89,150-44.78,191.39-22.5,24.59-107.44,19.77-107.44,19.77l-7.63-31.94s63.11,2.48,73.29-35.17,8.61-143.45,27.93-160.79C2991.39,1126.26,3027.48,1136.55,3033,1158.28Z"/><circle class="e14642a0-7e6f-45c9-b9ae-1564cdbc5b3f" cx="1327.47" cy="2224.31" r="213.42"/><circle class="eddcf0a5-54d6-4eba-81fb-45fc0e0b70de" cx="1327.47" cy="2224.31" r="187.71"/><path class="e14642a0-7e6f-45c9-b9ae-1564cdbc5b3f" d="M1316,2074.14h35v24q42.36,3.33,73.35,26.81l-38.57,40q-21.09-14.71-35.42-18.4v50.65q80.31,20.32,80.31,75.34,0,27.69-20.44,46.62T1349.92,2344v30.48h-34.36v-30.13h-5.69q-19.39,0-45.32-9.12t-40.26-23.3l36.89-38.37a108.75,108.75,0,0,0,54.38,25.23V2239.9q-38.36-8.05-58.49-28t-20.13-46.26q0-27.87,19.5-47.05t59.54-20.77Zm-.42,114.07v-43.1Q1296,2150.71,1296,2166,1296,2182.43,1315.56,2188.21Zm34.78,62v45.56q21.72-4.56,21.72-22.61Q1372.06,2256.73,1350.34,2250.24Z"/><path class="eddcf0a5-54d6-4eba-81fb-45fc0e0b70de" d="M1585,2428.8H1109.81a9.59,9.59,0,0,0-9.38,9.78v73.17a9.59,9.59,0,0,0,9.38,9.78H1585a9.58,9.58,0,0,0,9.37-9.78v-73.17A9.58,9.58,0,0,0,1585,2428.8Z"/><path class="e14642a0-7e6f-45c9-b9ae-1564cdbc5b3f" d="M1100.43,2511.75a9.59,9.59,0,0,0,9.38,9.78H1585a9.58,9.58,0,0,0,9.37-9.78Z"/><path class="e14642a0-7e6f-45c9-b9ae-1564cdbc5b3f" d="M1100.43,2438.58a9.59,9.59,0,0,1,9.38-9.78H1585a9.58,9.58,0,0,1,9.37,9.78Z"/><rect class="e14642a0-7e6f-45c9-b9ae-1564cdbc5b3f" x="1341.16" y="2446.88" width="12.51" height="56.58"/><rect class="e14642a0-7e6f-45c9-b9ae-1564cdbc5b3f" x="1305.13" y="2446.88" width="12.51" height="56.58"/><rect class="e14642a0-7e6f-45c9-b9ae-1564cdbc5b3f" x="1269.1" y="2446.88" width="12.51" height="56.58"/><rect class="e14642a0-7e6f-45c9-b9ae-1564cdbc5b3f" x="1233.07" y="2446.88" width="12.51" height="56.58"/><rect class="e14642a0-7e6f-45c9-b9ae-1564cdbc5b3f" x="1197.04" y="2446.88" width="12.51" height="56.58"/><rect class="e14642a0-7e6f-45c9-b9ae-1564cdbc5b3f" x="1161.02" y="2446.88" width="12.51" height="56.58"/><rect class="e14642a0-7e6f-45c9-b9ae-1564cdbc5b3f" x="1124.99" y="2446.88" width="12.51" height="56.58"/><rect class="e14642a0-7e6f-45c9-b9ae-1564cdbc5b3f" x="1557.33" y="2446.88" width="12.51" height="56.58"/><rect class="e14642a0-7e6f-45c9-b9ae-1564cdbc5b3f" x="1521.3" y="2446.88" width="12.51" height="56.58"/><rect class="e14642a0-7e6f-45c9-b9ae-1564cdbc5b3f" x="1485.27" y="2446.88" width="12.51" height="56.58"/><rect class="e14642a0-7e6f-45c9-b9ae-1564cdbc5b3f" x="1449.24" y="2446.88" width="12.51" height="56.58"/><rect class="e14642a0-7e6f-45c9-b9ae-1564cdbc5b3f" x="1413.21" y="2446.88" width="12.51" height="56.58"/><rect class="e14642a0-7e6f-45c9-b9ae-1564cdbc5b3f" x="1377.19" y="2446.88" width="12.51" height="56.58"/><path class="eddcf0a5-54d6-4eba-81fb-45fc0e0b70de" d="M1536.48,2336.08H1061.27a9.59,9.59,0,0,0-9.38,9.78V2419a9.59,9.59,0,0,0,9.38,9.78h475.21a9.59,9.59,0,0,0,9.37-9.78v-73.16A9.59,9.59,0,0,0,1536.48,2336.08Z"/><path class="e14642a0-7e6f-45c9-b9ae-1564cdbc5b3f" d="M1051.89,2419a9.59,9.59,0,0,0,9.38,9.78h475.21a9.59,9.59,0,0,0,9.37-9.78Z"/><path class="e14642a0-7e6f-45c9-b9ae-1564cdbc5b3f" d="M1051.89,2345.86a9.59,9.59,0,0,1,9.38-9.78h475.21a9.59,9.59,0,0,1,9.37,9.78Z"/><rect class="e14642a0-7e6f-45c9-b9ae-1564cdbc5b3f" x="1292.61" y="2354.15" width="12.51" height="56.58"/><rect class="e14642a0-7e6f-45c9-b9ae-1564cdbc5b3f" x="1256.59" y="2354.15" width="12.51" height="56.58"/><rect class="e14642a0-7e6f-45c9-b9ae-1564cdbc5b3f" x="1220.56" y="2354.15" width="12.51" height="56.58"/><rect class="e14642a0-7e6f-45c9-b9ae-1564cdbc5b3f" x="1184.53" y="2354.15" width="12.51" height="56.58"/><rect class="e14642a0-7e6f-45c9-b9ae-1564cdbc5b3f" x="1148.5" y="2354.15" width="12.51" height="56.58"/><rect class="e14642a0-7e6f-45c9-b9ae-1564cdbc5b3f" x="1112.47" y="2354.15" width="12.51" height="56.58"/><rect class="e14642a0-7e6f-45c9-b9ae-1564cdbc5b3f" x="1076.44" y="2354.15" width="12.51" height="56.58"/><rect class="e14642a0-7e6f-45c9-b9ae-1564cdbc5b3f" x="1508.78" y="2354.15" width="12.51" height="56.58"/><rect class="e14642a0-7e6f-45c9-b9ae-1564cdbc5b3f" x="1472.76" y="2354.15" width="12.51" height="56.58"/><rect class="e14642a0-7e6f-45c9-b9ae-1564cdbc5b3f" x="1436.73" y="2354.15" width="12.51" height="56.58"/><rect class="e14642a0-7e6f-45c9-b9ae-1564cdbc5b3f" x="1400.7" y="2354.15" width="12.51" height="56.58"/><rect class="e14642a0-7e6f-45c9-b9ae-1564cdbc5b3f" x="1364.67" y="2354.15" width="12.51" height="56.58"/><rect class="e14642a0-7e6f-45c9-b9ae-1564cdbc5b3f" x="1328.64" y="2354.15" width="12.51" height="56.58"/><path class="eddcf0a5-54d6-4eba-81fb-45fc0e0b70de" d="M1542.73,2521.53H1067.52a9.59,9.59,0,0,0-9.37,9.78v73.16a9.59,9.59,0,0,0,9.37,9.78h475.21a9.59,9.59,0,0,0,9.38-9.78v-73.16A9.59,9.59,0,0,0,1542.73,2521.53Z"/><path class="e14642a0-7e6f-45c9-b9ae-1564cdbc5b3f" d="M1058.15,2604.47a9.59,9.59,0,0,0,9.37,9.78h475.21a9.59,9.59,0,0,0,9.38-9.78Z"/><path class="e14642a0-7e6f-45c9-b9ae-1564cdbc5b3f" d="M1058.15,2531.31a9.59,9.59,0,0,1,9.37-9.78h475.21a9.59,9.59,0,0,1,9.38,9.78Z"/><rect class="e14642a0-7e6f-45c9-b9ae-1564cdbc5b3f" x="1298.87" y="2539.6" width="12.51" height="56.58"/><rect class="e14642a0-7e6f-45c9-b9ae-1564cdbc5b3f" x="1262.84" y="2539.6" width="12.51" height="56.58"/><rect class="e14642a0-7e6f-45c9-b9ae-1564cdbc5b3f" x="1226.81" y="2539.6" width="12.51" height="56.58"/><rect class="e14642a0-7e6f-45c9-b9ae-1564cdbc5b3f" x="1190.79" y="2539.6" width="12.51" height="56.58"/><rect class="e14642a0-7e6f-45c9-b9ae-1564cdbc5b3f" x="1154.76" y="2539.6" width="12.51" height="56.58"/><rect class="e14642a0-7e6f-45c9-b9ae-1564cdbc5b3f" x="1118.73" y="2539.6" width="12.51" height="56.58"/><rect class="e14642a0-7e6f-45c9-b9ae-1564cdbc5b3f" x="1082.7" y="2539.6" width="12.51" height="56.58"/><rect class="e14642a0-7e6f-45c9-b9ae-1564cdbc5b3f" x="1515.04" y="2539.6" width="12.51" height="56.58"/><rect class="e14642a0-7e6f-45c9-b9ae-1564cdbc5b3f" x="1479.01" y="2539.6" width="12.51" height="56.58"/><rect class="e14642a0-7e6f-45c9-b9ae-1564cdbc5b3f" x="1442.98" y="2539.6" width="12.51" height="56.58"/><rect class="e14642a0-7e6f-45c9-b9ae-1564cdbc5b3f" x="1406.96" y="2539.6" width="12.51" height="56.58"/><rect class="e14642a0-7e6f-45c9-b9ae-1564cdbc5b3f" x="1370.93" y="2539.6" width="12.51" height="56.58"/><rect class="e14642a0-7e6f-45c9-b9ae-1564cdbc5b3f" x="1334.9" y="2539.6" width="12.51" height="56.58"/><path class="eddcf0a5-54d6-4eba-81fb-45fc0e0b70de" d="M1519.22,2614.25H1044a9.59,9.59,0,0,0-9.38,9.78v73.17A9.59,9.59,0,0,0,1044,2707h475.21a9.58,9.58,0,0,0,9.37-9.78V2624A9.58,9.58,0,0,0,1519.22,2614.25Z"/><path class="e14642a0-7e6f-45c9-b9ae-1564cdbc5b3f" d="M1034.63,2697.2A9.59,9.59,0,0,0,1044,2707h475.21a9.58,9.58,0,0,0,9.37-9.78Z"/><path class="e14642a0-7e6f-45c9-b9ae-1564cdbc5b3f" d="M1034.63,2624a9.59,9.59,0,0,1,9.38-9.78h475.21a9.58,9.58,0,0,1,9.37,9.78Z"/><rect class="e14642a0-7e6f-45c9-b9ae-1564cdbc5b3f" x="1275.36" y="2632.33" width="12.51" height="56.58"/><rect class="e14642a0-7e6f-45c9-b9ae-1564cdbc5b3f" x="1239.33" y="2632.33" width="12.51" height="56.58"/><rect class="e14642a0-7e6f-45c9-b9ae-1564cdbc5b3f" x="1203.3" y="2632.33" width="12.51" height="56.58"/><rect class="e14642a0-7e6f-45c9-b9ae-1564cdbc5b3f" x="1167.27" y="2632.33" width="12.51" height="56.58"/><rect class="e14642a0-7e6f-45c9-b9ae-1564cdbc5b3f" x="1131.24" y="2632.33" width="12.51" height="56.58"/><rect class="e14642a0-7e6f-45c9-b9ae-1564cdbc5b3f" x="1095.22" y="2632.33" width="12.51" height="56.58"/><rect class="e14642a0-7e6f-45c9-b9ae-1564cdbc5b3f" x="1059.19" y="2632.33" width="12.51" height="56.58"/><rect class="e14642a0-7e6f-45c9-b9ae-1564cdbc5b3f" x="1491.53" y="2632.33" width="12.51" height="56.58"/><rect class="e14642a0-7e6f-45c9-b9ae-1564cdbc5b3f" x="1455.5" y="2632.33" width="12.51" height="56.58"/><rect class="e14642a0-7e6f-45c9-b9ae-1564cdbc5b3f" x="1419.47" y="2632.33" width="12.51" height="56.58"/><rect class="e14642a0-7e6f-45c9-b9ae-1564cdbc5b3f" x="1383.44" y="2632.33" width="12.51" height="56.58"/><rect class="e14642a0-7e6f-45c9-b9ae-1564cdbc5b3f" x="1347.41" y="2632.33" width="12.51" height="56.58"/><rect class="e14642a0-7e6f-45c9-b9ae-1564cdbc5b3f" x="1311.39" y="2632.33" width="12.51" height="56.58"/><path class="eddcf0a5-54d6-4eba-81fb-45fc0e0b70de" d="M1596.79,2707H1121.58a9.59,9.59,0,0,0-9.37,9.78v73.16a9.59,9.59,0,0,0,9.37,9.78h475.21a9.59,9.59,0,0,0,9.38-9.78v-73.16A9.59,9.59,0,0,0,1596.79,2707Z"/><path class="e14642a0-7e6f-45c9-b9ae-1564cdbc5b3f" d="M1112.21,2789.92a9.59,9.59,0,0,0,9.37,9.78h475.21a9.59,9.59,0,0,0,9.38-9.78Z"/><path class="e14642a0-7e6f-45c9-b9ae-1564cdbc5b3f" d="M1112.21,2716.76a9.59,9.59,0,0,1,9.37-9.78h475.21a9.59,9.59,0,0,1,9.38,9.78Z"/><rect class="e14642a0-7e6f-45c9-b9ae-1564cdbc5b3f" x="1352.93" y="2725.05" width="12.51" height="56.58"/><rect class="e14642a0-7e6f-45c9-b9ae-1564cdbc5b3f" x="1316.9" y="2725.05" width="12.51" height="56.58"/><rect class="e14642a0-7e6f-45c9-b9ae-1564cdbc5b3f" x="1280.87" y="2725.05" width="12.51" height="56.58"/><rect class="e14642a0-7e6f-45c9-b9ae-1564cdbc5b3f" x="1244.85" y="2725.05" width="12.51" height="56.58"/><rect class="e14642a0-7e6f-45c9-b9ae-1564cdbc5b3f" x="1208.82" y="2725.05" width="12.51" height="56.58"/><rect class="e14642a0-7e6f-45c9-b9ae-1564cdbc5b3f" x="1172.79" y="2725.05" width="12.51" height="56.58"/><rect class="e14642a0-7e6f-45c9-b9ae-1564cdbc5b3f" x="1136.76" y="2725.05" width="12.51" height="56.58"/><rect class="e14642a0-7e6f-45c9-b9ae-1564cdbc5b3f" x="1569.1" y="2725.05" width="12.51" height="56.58"/><rect class="e14642a0-7e6f-45c9-b9ae-1564cdbc5b3f" x="1533.07" y="2725.05" width="12.51" height="56.58"/><rect class="e14642a0-7e6f-45c9-b9ae-1564cdbc5b3f" x="1497.04" y="2725.05" width="12.51" height="56.58"/><rect class="e14642a0-7e6f-45c9-b9ae-1564cdbc5b3f" x="1461.02" y="2725.05" width="12.51" height="56.58"/><rect class="e14642a0-7e6f-45c9-b9ae-1564cdbc5b3f" x="1424.99" y="2725.05" width="12.51" height="56.58"/><rect class="e14642a0-7e6f-45c9-b9ae-1564cdbc5b3f" x="1388.96" y="2725.05" width="12.51" height="56.58"/><path class="eddcf0a5-54d6-4eba-81fb-45fc0e0b70de" d="M1513,2799.7H1037.75a9.58,9.58,0,0,0-9.37,9.78v73.17a9.58,9.58,0,0,0,9.37,9.78H1513a9.59,9.59,0,0,0,9.38-9.78v-73.17A9.59,9.59,0,0,0,1513,2799.7Z"/><path class="e14642a0-7e6f-45c9-b9ae-1564cdbc5b3f" d="M1028.38,2882.65a9.58,9.58,0,0,0,9.37,9.78H1513a9.59,9.59,0,0,0,9.38-9.78Z"/><path class="e14642a0-7e6f-45c9-b9ae-1564cdbc5b3f" d="M1028.38,2809.48a9.58,9.58,0,0,1,9.37-9.78H1513a9.59,9.59,0,0,1,9.38,9.78Z"/><rect class="e14642a0-7e6f-45c9-b9ae-1564cdbc5b3f" x="1269.1" y="2817.78" width="12.51" height="56.58"/><rect class="e14642a0-7e6f-45c9-b9ae-1564cdbc5b3f" x="1233.07" y="2817.78" width="12.51" height="56.58"/><rect class="e14642a0-7e6f-45c9-b9ae-1564cdbc5b3f" x="1197.04" y="2817.78" width="12.51" height="56.58"/><rect class="e14642a0-7e6f-45c9-b9ae-1564cdbc5b3f" x="1161.02" y="2817.78" width="12.51" height="56.58"/><rect class="e14642a0-7e6f-45c9-b9ae-1564cdbc5b3f" x="1124.99" y="2817.78" width="12.51" height="56.58"/><rect class="e14642a0-7e6f-45c9-b9ae-1564cdbc5b3f" x="1088.96" y="2817.78" width="12.51" height="56.58"/><rect class="e14642a0-7e6f-45c9-b9ae-1564cdbc5b3f" x="1052.93" y="2817.78" width="12.51" height="56.58"/><rect class="e14642a0-7e6f-45c9-b9ae-1564cdbc5b3f" x="1485.27" y="2817.78" width="12.51" height="56.58"/><rect class="e14642a0-7e6f-45c9-b9ae-1564cdbc5b3f" x="1449.24" y="2817.78" width="12.51" height="56.58"/><rect class="e14642a0-7e6f-45c9-b9ae-1564cdbc5b3f" x="1413.21" y="2817.78" width="12.51" height="56.58"/><rect class="e14642a0-7e6f-45c9-b9ae-1564cdbc5b3f" x="1377.19" y="2817.78" width="12.51" height="56.58"/><rect class="e14642a0-7e6f-45c9-b9ae-1564cdbc5b3f" x="1341.16" y="2817.78" width="12.51" height="56.58"/><rect class="e14642a0-7e6f-45c9-b9ae-1564cdbc5b3f" x="1305.13" y="2817.78" width="12.51" height="56.58"/><path class="b6ce9682-97ee-4cd2-8efc-5a7671402ce4" d="M1897.19,355.41c-75-31.64-150,31.65-225,0V197.18c75,31.65,150-31.65,225,0Z"/><path class="b2f25394-5252-42ba-882b-77a02317b55f" d="M1672.24,550.43c-2.44,0-4.41-1.67-4.41-3.72V196.49c0-2.05,2-3.72,4.41-3.72s4.41,1.67,4.41,3.72V546.71C1676.65,548.76,1674.67,550.43,1672.24,550.43Z"/><path class="e10ebfcb-5578-4cbb-803a-82948ff08457" d="M1821.06,229.77l-.93-.34h0c-14.3-4.94-29.73,5.83-35.41,20.36-5.69-14.53-21.12-25.3-35.42-20.36h0l-.93.34c-17.38,6.72-23.49,29.68-12.48,45.51,12.2,17.56,48.83,49.1,48.83,49.1s36.62-31.54,48.82-49.1C1844.55,259.45,1838.44,236.49,1821.06,229.77Z"/><polygon class="af1f90a3-56fa-414d-8ade-5fee604c8aa4" points="2327.09 2091.23 2372.55 2091.23 2372.55 2004.25 2344.77 2004.25 2327.09 2091.23"/><path class="af1f90a3-56fa-414d-8ade-5fee604c8aa4" d="M2293.51,1960.22c-7.69,35.7-2,71.71,19.55,79.52,20.22,7.32,55.3-12,71.36-47.35,16.9-37.16,8.64-64.94-21.29-75.28C2331.33,1906.12,2301.93,1921.08,2293.51,1960.22Z"/><path class="ad696854-f4fe-4699-b1e1-dbadaaa0be9c" d="M2356.93,1904.49c33.07,2.58,51.35,32.55,49.23,62.2-2,27.67-31.57,42.46-31.57,42.46s-9.76-28.1-25.76-32.58c-22.32-6.24-12.67-26.19-23.09-28.34-10.87-2.25-34.5-10.88-34.11-26.69C2306.93,1922.07,2319.79,1901.58,2356.93,1904.49Z"/><path class="a946c783-80db-41ba-9555-83da33c9e06d" d="M2353.65,1982.41c-2.68,6-.81,12.64,4.17,14.87s11.19-.8,13.87-6.78.81-12.63-4.17-14.87S2356.33,1976.44,2353.65,1982.41Z"/><path class="ad696854-f4fe-4699-b1e1-dbadaaa0be9c" d="M2356.93,1976s-2.49,38.59-9.86,53.25c-6.42,12.77-34.43,26-49.69-4.35,0,0,15.44,3.23,13.69-3.31-2.06-7.7-18-7.79-18-7.79s-3.11-.15-3.67-3c-.82-4.24,1.24-11.13,1.24-11.13s21,7.5,30.1,7.5c10.28,0,19.61-7.25,28.3-31.17Z"/><path class="a948aee5-d6ea-4c69-9def-6feff39f8c98" d="M2224.12,2826.85l41.79-233.78,28.39-115.2,28.59-115.42,9.71-39.25,82,26.15L2399.75,2387l-43.19,109.57c-14.36,36.59-28.95,73.15-43.16,109.87l-70.21,225.1-2.93,9.39-17.87-4.36Z"/><path class="a948aee5-d6ea-4c69-9def-6feff39f8c98" d="M2375.15,2324.16l3.26,40.3,18.5,228.27,172.62,80.9,8.91,4.18-6.52,17-9.42-2.85-197.93-59.82a21.75,21.75,0,0,1-14.94-16.26l-.7-3.29-50.35-236.45-8.41-39.54Z"/><polygon class="ad696854-f4fe-4699-b1e1-dbadaaa0be9c" points="2426.5 2301.46 2273.26 2331.23 2225.36 2789.22 2276.76 2796.27 2426.5 2301.46"/><path class="ad696854-f4fe-4699-b1e1-dbadaaa0be9c" d="M2434.11,2329.8l-154.61-21.6s23.71,286.74,70,323.3c25.72,20.34,168.71,54.59,168.71,54.59l15.39-43.91s-107.64-43.57-116.64-57C2407.12,2570.49,2434.11,2329.8,2434.11,2329.8Z"/><path class="af1f90a3-56fa-414d-8ade-5fee604c8aa4" d="M2323.93,2107.2,2222.59,2252l18.44-5.14-119.51-45.37-10.85-4.12-8.63,20.78,10.59,4.77,116.52,52.56a14.9,14.9,0,0,0,17.93-4.48l.5-.66,107.75-140.1,11.88-15.45-32.11-23.57Z"/><path class="b468d30f-64e3-44d7-a188-4874d6e48a9f" d="M2376.73,2136.33c-14.9,39-85.11,125.71-139.37,141.45-32.22,9.36-102.07-39.65-102.07-39.65l10.17-31.45s52.95,35.18,81.41,8.15,78.9-113.57,104.59-118.36C2354.09,2092.25,2383.42,2118.8,2376.73,2136.33Z"/><path class="b7bad964-2c16-46b7-8ab6-18d898e324cd" d="M2369.45,2072.86s-23.86,20.91-47.71,7c0,0-8.16,87.14-18.83,122.69s-42.06,129-42.06,129h173.41C2438.9,2251.93,2408.84,2161.56,2369.45,2072.86Z"/><path class="b468d30f-64e3-44d7-a188-4874d6e48a9f" d="M2377.7,2065.71s82.88,123.95,66,256.17c0,0,7.13,26-86.92,22.43s-99.42-16.53-99.42-16.53c29.77-71,52.89-151.26,64.38-248C2321.74,2079.83,2356.9,2081.12,2377.7,2065.71Z"/><path class="af1f90a3-56fa-414d-8ade-5fee604c8aa4" d="M2350.71,2127.13c11.8,20.39,23.24,41.66,33.75,62.9,5.25,10.66,10.28,21.38,14.88,32.15a279.5,279.5,0,0,1,11.78,32.14c.74,2.63,1.35,5.14,1.9,7.71l1.6,8.5c1,5.77,1.87,11.58,2.66,17.47,1.6,11.75,2.94,23.65,4.13,35.59,2.33,23.88,4.17,48,5.56,72l.67,11.59,22.54-.56V2395c0-24.5-.49-48.81-1.47-73.3-.53-12.23-1.2-24.5-2.17-36.84-.47-6.17-1.09-12.39-1.76-18.63l-1.23-9.46c-.53-3.39-1.18-6.81-1.91-10.05a308.17,308.17,0,0,0-11.3-36.77c-4.32-11.78-9-23.27-13.89-34.63-9.85-22.76-20.26-44.79-31.62-67l-8.88-17.35-35,19.32Z"/><path class="b468d30f-64e3-44d7-a188-4874d6e48a9f" d="M2391.61,2087.5c29.89,29.18,47.09,95.44,59.81,150.49s2.38,138.64,2.38,138.64l-34.27,1.51s-2-85.07-15.45-121.94-72.85-117.53-67-143C2342.16,2090.75,2378.18,2074.39,2391.61,2087.5Z"/><path class="af1f90a3-56fa-414d-8ade-5fee604c8aa4" d="M2058.66,2189c-2.64,7.54,6.44,21.1,23.16,29.22,15.41,7.48,29.26,3.5,32.41-3.92C2121.26,2197.7,2062.74,2177.33,2058.66,2189Z"/><path class="af1f90a3-56fa-414d-8ade-5fee604c8aa4" d="M2439.22,2474.81c8-.62,16.61-18,17.15-41.71.5-21.85-8.82-36.19-16.88-36.22C2421.47,2396.8,2426.91,2475.76,2439.22,2474.81Z"/><path class="af1f90a3-56fa-414d-8ade-5fee604c8aa4" d="M2421.55,2441.58c-3.34-1.09-4.92-10.57-2.25-22.37,2.46-10.88,8.21-17.06,11.67-16.28C2438.7,2404.67,2426.71,2443.28,2421.55,2441.58Z"/><path class="ad696854-f4fe-4699-b1e1-dbadaaa0be9c" d="M2155.66,2852.5s11.82-3.12,15.09-4.3c13.07-4.7,46.91-18.56,46.91-18.56s4.17,6.72,14.62,8a27.51,27.51,0,0,0,13.59-1.82c3.34-.1,6.21,5.29,6.42,12a22.55,22.55,0,0,1-.63,6.11l.28,9.36-99.74,3-.29-9.49A4.26,4.26,0,0,1,2155.66,2852.5Z"/><path class="ad696854-f4fe-4699-b1e1-dbadaaa0be9c" d="M2565.64,2764.47s.46-12.21.28-15.69c-.68-13.87-4.08-50.28-4.08-50.28s7.65-2,11.94-11.64a27.38,27.38,0,0,0,2.21-13.53c.88-3.23,6.88-4.41,13.39-2.64a21.93,21.93,0,0,1,5.65,2.38l9,2.46-26.21,96.29-9.16-2.5A4.24,4.24,0,0,1,2565.64,2764.47Z"/><circle class="e14642a0-7e6f-45c9-b9ae-1564cdbc5b3f" cx="1950.76" cy="2112.68" r="162.26"/><circle class="eddcf0a5-54d6-4eba-81fb-45fc0e0b70de" cx="1950.76" cy="2112.68" r="142.71" transform="translate(-922.53 1998.19) rotate(-45)"/><path class="e14642a0-7e6f-45c9-b9ae-1564cdbc5b3f" d="M1942,1998.51h26.61v18.25q32.2,2.54,55.76,20.39l-29.32,30.37q-16-11.19-26.92-14V2092q61,15.46,61,57.29,0,21-15.54,35.43t-45.83,18.92v23.18h-26.12v-22.91h-4.33q-14.75,0-34.46-6.93t-30.6-17.72l28-29.17a82.6,82.6,0,0,0,41.35,19.18v-44.76q-29.18-6.12-44.47-21.32t-15.31-35.17q0-21.17,14.82-35.76T1942,2016.5Zm-.31,86.73v-32.77q-14.91,4.26-14.91,15.85Q1926.8,2080.85,1941.71,2085.24Zm26.44,47.16V2167q16.5-3.45,16.5-17.18Q1984.65,2137.32,1968.15,2132.4Z"/><path class="af1f90a3-56fa-414d-8ade-5fee604c8aa4" d="M2080.34,2180c2.33-2.63,11.66-.31,21.42,6.83,9,6.58,12.4,14.32,10.31,17.18C2107.39,2210.46,2076.74,2184.1,2080.34,2180Z"/><rect class="eddcf0a5-54d6-4eba-81fb-45fc0e0b70de" x="1356.22" y="1172.11" width="80.47" height="184.16" rx="28.5"/><rect class="eddcf0a5-54d6-4eba-81fb-45fc0e0b70de" x="1533.81" y="1196.78" width="80.47" height="184.16" rx="33.95"/><rect class="a3f575d7-9f4a-4171-8c40-9c44c0d8ab39" x="1509.81" y="1165.71" width="60.03" height="198.83" rx="23.72"/><rect class="a3f575d7-9f4a-4171-8c40-9c44c0d8ab39" x="1417.53" y="1198.08" width="56.36" height="158.19" rx="21.89"/><rect class="eddcf0a5-54d6-4eba-81fb-45fc0e0b70de" x="1469.22" y="1186" width="44.51" height="158.19" rx="15.96"/><rect class="b6ce9682-97ee-4cd2-8efc-5a7671402ce4" x="1347.65" y="1227.71" width="275.27" height="155.41"/><polygon class="b1e27c63-d1c1-44d8-a123-e9fdd1068eac" points="1645.86 1268.56 1324.71 1268.56 1347.65 1227.71 1622.92 1227.71 1645.86 1268.56"/><path class="e10ebfcb-5578-4cbb-803a-82948ff08457" d="M1518.78,1278.21l-.86-.31h0c-13.17-4.56-27.39,5.37-32.63,18.76-5.25-13.39-19.47-23.32-32.64-18.76h0l-.86.31c-16,6.19-21.64,27.35-11.5,41.94,11.25,16.19,45,45.25,45,45.25s33.75-29.06,45-45.25C1540.43,1305.56,1534.8,1284.4,1518.78,1278.21Z"/></g></svg>