<svg id="Capa_1" enable-background="new 0 0 598.142 598.142" height="512" viewBox="0 0 598.142 598.142" width="512" xmlns="http://www.w3.org/2000/svg"><g><g id="Page-1_36_"><g id="_x30_37---Cyber-Security" transform="translate(-1 -1)"><path id="Shape_179_" d="m559.216 260.215c-18.119.068-33.912 12.349-38.441 29.892h-21.851c-2.689-54.575-27.733-105.635-69.24-141.171v-38.182c0-11.006 8.922-19.928 19.928-19.928h51.235c5.018 19.433 23.702 32.103 43.613 29.575 19.91-2.529 34.834-19.468 34.834-39.539s-14.924-37.01-34.834-39.539-38.595 10.142-43.613 29.575h-51.235c-22.012 0-39.856 17.844-39.856 39.856v23.057c-29.687-19.597-64.108-30.829-99.641-32.513v-21.851c19.433-5.018 32.103-23.702 29.575-43.613s-19.47-34.834-39.54-34.834-37.01 14.924-39.539 34.834 10.142 38.595 29.575 43.613v21.851c-35.532 1.684-69.953 12.916-99.641 32.513v-23.057c0-22.012-17.844-39.856-39.856-39.856h-51.235c-5.018-19.433-23.702-32.103-43.613-29.575-19.91 2.529-34.834 19.468-34.834 39.539s14.924 37.01 34.834 39.539 38.595-10.142 43.613-29.575h51.235c11.006 0 19.928 8.922 19.928 19.928v38.182c-41.508 35.536-66.551 86.596-69.24 141.171h-21.851c-5.018-19.433-23.702-32.103-43.613-29.575-19.91 2.529-34.834 19.468-34.834 39.539 0 20.07 14.924 37.01 34.834 39.539s38.595-10.142 43.613-29.575h21.851c2.689 54.575 27.732 105.635 69.24 141.171v38.182c0 11.006-8.922 19.928-19.928 19.928h-51.235c-5.018-19.433-23.702-32.103-43.613-29.575-19.91 2.529-34.834 19.468-34.834 39.539 0 20.07 14.924 37.01 34.834 39.539s38.595-10.142 43.613-29.575h51.235c22.012 0 39.856-17.844 39.856-39.856v-23.057c29.687 19.597 64.108 30.829 99.641 32.513v21.851c-19.433 5.018-32.103 23.702-29.575 43.613 2.529 19.91 19.468 34.834 39.539 34.834 20.07 0 37.01-14.924 39.539-34.834s-10.142-38.595-29.575-43.613v-21.851c35.532-1.684 69.953-12.916 99.641-32.513v23.057c0 22.012 17.844 39.856 39.856 39.856h51.235c5.018 19.433 23.702 32.103 43.613 29.575 19.91-2.529 34.834-19.468 34.834-39.539 0-20.07-14.924-37.01-34.834-39.539s-38.595 10.142-43.613 29.575h-51.235c-11.006 0-19.928-8.922-19.928-19.928v-38.182c41.508-35.536 66.551-86.596 69.24-141.171h21.851c5.213 20.004 24.877 32.683 45.25 29.176 20.372-3.507 34.665-22.031 32.89-42.626-1.775-20.596-19.026-36.401-39.698-36.37zm-19.928-199.281c11.006 0 19.928 8.922 19.928 19.928s-8.922 19.928-19.928 19.928-19.928-8.922-19.928-19.928 8.922-19.928 19.928-19.928zm-478.275 39.856c-11.006 0-19.928-8.922-19.928-19.928s8.922-19.928 19.928-19.928 19.928 8.922 19.928 19.928c0 5.285-2.1 10.354-5.837 14.091s-8.806 5.837-14.091 5.837zm0 438.419c-11.006 0-19.928-8.922-19.928-19.928s8.922-19.928 19.928-19.928 19.928 8.922 19.928 19.928c0 11.005-8.922 19.928-19.928 19.928zm478.275-39.857c11.006 0 19.928 8.922 19.928 19.928s-8.922 19.928-19.928 19.928-19.928-8.922-19.928-19.928c-.001-11.005 8.922-19.928 19.928-19.928zm-259.066-458.346c0-11.006 8.922-19.928 19.928-19.928s19.928 8.922 19.928 19.928-8.922 19.928-19.928 19.928-19.928-8.922-19.928-19.928zm-239.137 278.993c-11.006 0-19.928-8.922-19.928-19.928s8.922-19.928 19.928-19.928 19.928 8.922 19.928 19.928-8.922 19.928-19.928 19.928zm278.993 239.138c0 11.006-8.922 19.928-19.928 19.928s-19.928-8.922-19.928-19.928 8.922-19.928 19.928-19.928 19.928 8.922 19.928 19.928zm-19.928-79.713c-99.054 0-179.353-80.299-179.353-179.353s80.299-179.353 179.353-179.353 179.353 80.299 179.353 179.353c-.115 99.006-80.347 179.238-179.353 179.353zm259.066-159.425c-11.006 0-19.928-8.922-19.928-19.928s8.922-19.928 19.928-19.928 19.928 8.922 19.928 19.928-8.922 19.928-19.928 19.928z"/><path id="Shape_178_" d="m419.719 290.107c-5.503 0-9.964-4.461-9.964-9.964v-29.892c-.104-58.468-45.981-106.612-104.376-109.532s-108.847 40.406-114.784 98.572c-.55 5.475 3.442 10.36 8.918 10.911 5.475.55 10.36-3.442 10.911-8.918 5.062-45.791 43.657-80.507 89.726-80.709 49.504.055 89.622 40.172 89.677 89.677v29.892c0 16.509 13.383 29.892 29.892 29.892 5.503 0 9.964-4.461 9.964-9.964s-4.461-9.965-9.964-9.965z"/><path id="Shape_177_" d="m419.719 329.963c-27.515 0-49.82-22.305-49.82-49.82v-29.892c0-38.521-31.227-69.748-69.748-69.748s-69.748 31.227-69.748 69.748v1.485c-.011 10.181-8.262 18.432-18.443 18.443h-11.45c-5.503 0-9.964 4.461-9.964 9.964s4.461 9.964 9.964 9.964h11.449c21.181-.027 38.344-17.191 38.372-38.372v-1.485c0-27.515 22.305-49.82 49.82-49.82s49.82 22.305 49.82 49.82v29.892c.038 38.505 31.243 69.71 69.748 69.748 5.503 0 9.964-4.461 9.964-9.964s-4.461-9.963-9.964-9.963z"/><path id="Shape_176_" d="m330.042 250.251c.003-8.801-3.873-17.155-10.593-22.837-6.721-5.682-15.604-8.113-24.281-6.647-14.611 2.841-25.097 15.727-24.91 30.61-.35 32.69-27.093 58.929-59.784 58.658-5.503 0-9.964 4.461-9.964 9.964s4.461 9.964 9.964 9.964c43.692.26 79.351-34.895 79.712-78.587-.205-5.137 3.223-9.713 8.21-10.96 2.908-.52 5.897.277 8.159 2.176 2.263 1.899 3.566 4.704 3.558 7.658 0 54.942-40.225 99.641-89.677 99.641-5.503 0-9.964 4.461-9.964 9.964s4.461 9.964 9.964 9.964c60.434.001 109.606-53.636 109.606-119.568z"/><path id="Shape_175_" d="m389.827 359.855c-20.228.075-39.314-9.37-51.524-25.498-3.076-4.542-9.244-5.743-13.8-2.688s-5.785 9.218-2.75 13.788c15.945 21.612 41.217 34.355 68.074 34.326 5.503 0 9.964-4.461 9.964-9.964s-4.461-9.964-9.964-9.964z"/><path id="Shape_174_" d="m372.31 400.011c-19.279-4.949-36.621-15.587-49.77-30.53-6.005-6.891-15.965-8.74-24.043-4.464-17.941 9.437-37.86 14.497-58.13 14.767-5.503 0-9.964 4.461-9.964 9.964s4.461 9.964 9.964 9.964c23.442-.234 46.485-6.098 67.188-17.098 15.832 17.988 36.719 30.787 59.934 36.728.788.201 1.598.301 2.411.299 5.027-.011 9.259-3.764 9.869-8.754s-2.592-9.653-7.468-10.875h.009z"/><path id="Shape_173_" d="m342.398 429.893c-10.862-2.75-20.838-8.239-28.975-15.942-8.009-7.5-19.707-9.527-29.773-5.161-10.517 4.589-21.846 7.028-33.32 7.174-5.503 0-9.964 4.461-9.964 9.964s4.461 9.964 9.964 9.964c14.176-.137 28.18-3.119 41.181-8.768 2.78-1.205 6.007-.671 8.25 1.365 10.639 10.041 23.676 17.187 37.863 20.755 5.343 1.321 10.746-1.94 12.066-7.284 1.321-5.343-1.94-10.746-7.284-12.066h-.008z"/></g></g></g></svg>