<svg id="a21a09d8-38f5-4c15-962c-1be098029585" data-name="e16b0a28-038e-44da-b197-8dbb4778095f" xmlns="http://www.w3.org/2000/svg" viewBox="0 0 283.41 318.27"><g style="opacity:0.46000000834465027"><path d="M117,318.27a43.39,43.39,0,0,1-21.68-5.51l-80-46.21C5.71,261,0,251.71,0,241.63s5.7-19.4,15.27-24.93l80-46.21a45.57,45.57,0,0,1,43.37,0l80,46.27c9.56,5.53,15.27,14.84,15.27,24.93s-5.71,19.4-15.27,24.92l-80,46.15A43.36,43.36,0,0,1,117,318.27Z" style="fill:#fff;fill-opacity:0"/><path d="M95.53,171a42.75,42.75,0,0,1,21.55-5.41,47.72,47.72,0,0,1,6.43.47,42.4,42.4,0,0,1,15.1,5.09l79.61,46a33.52,33.52,0,0,1,7.62,6,26.86,26.86,0,0,1,7.45,18.72c-.11,9.84-6,19.18-15.35,24.57l-79.42,45.85a40.72,40.72,0,0,1-11,4.32,46.71,46.71,0,0,1-10.47,1.2,42.72,42.72,0,0,1-21.52-5.42L15.72,266.28a33,33,0,0,1-9.21-7.8,26.49,26.49,0,0,1-5.92-17c.12-9.83,6.06-19.21,15.39-24.59Z" style="fill:#f9fbfc;opacity:0.024390000849962234;isolation:isolate"/><path d="M95.79,171.42a42.29,42.29,0,0,1,21.47-5.32,50.63,50.63,0,0,1,6.39.5,43.06,43.06,0,0,1,15,5.16l79.19,45.72a34.6,34.6,0,0,1,7.59,5.93A26,26,0,0,1,232.66,242c-.21,9.59-6.31,19-15.41,24.22l-78.82,45.52A41.37,41.37,0,0,1,127.5,316a46.46,46.46,0,0,1-10.38,1.23,42.29,42.29,0,0,1-21.36-5.34L16.18,266A34.66,34.66,0,0,1,7,258.22a25.62,25.62,0,0,1-5.74-16.86c.24-9.59,6.41-19,15.5-24.27Z" style="fill:#f4f7f9;opacity:0.04878000169992447;isolation:isolate"/><path d="M96.08,171.87a41.91,41.91,0,0,1,21.33-5.18,51.8,51.8,0,0,1,6.35.54,44.61,44.61,0,0,1,14.86,5.15l78.76,45.48a35.63,35.63,0,0,1,7.56,5.88,25.23,25.23,0,0,1,7.11,18.37c-.31,9.34-6.62,18.74-15.49,23.86l-78.19,45.15a42.44,42.44,0,0,1-10.84,4.3,46,46,0,0,1-10.31,1.27,41.79,41.79,0,0,1-21.17-5.27L16.72,265.6a35.33,35.33,0,0,1-9.22-7.69,24.69,24.69,0,0,1-5.62-16.73c.34-9.33,6.75-18.82,15.61-23.94Z" style="fill:#eef2f5;opacity:0.07317099720239639;isolation:isolate"/><path d="M96.32,172.33a41.15,41.15,0,0,1,21.24-5.14,47.73,47.73,0,0,1,6.31.57,45.29,45.29,0,0,1,14.75,5.18L217,218.17a36.41,36.41,0,0,1,7.54,5.82,24.43,24.43,0,0,1,6.89,18.27c-.4,9.09-6.92,18.53-15.55,23.51l-77.55,44.79a42.87,42.87,0,0,1-10.74,4.3,46.1,46.1,0,0,1-10.19,1.29,41.2,41.2,0,0,1-21-5.19L17.18,265.28A37.11,37.11,0,0,1,8,257.65,23.92,23.92,0,0,1,2.49,241c.45-9.09,7.1-18.63,15.73-23.61Z" style="fill:#e8eef2;opacity:0.09756100177764893;isolation:isolate"/><path d="M96.62,172.76a40.66,40.66,0,0,1,21.13-5,47,47,0,0,1,6.27.61,46.33,46.33,0,0,1,14.6,5.23l77.91,45a37.67,37.67,0,0,1,7.52,5.77,23.68,23.68,0,0,1,6.7,18.12c-.5,8.84-7.23,18.31-15.62,23.15l-77,44.44a44.46,44.46,0,0,1-10.64,4.3,45.92,45.92,0,0,1-10.1,1.31,40.8,40.8,0,0,1-20.87-5.11L17.62,265a38.11,38.11,0,0,1-9.22-7.56A23,23,0,0,1,3.08,241c.55-8.84,7.44-18.44,15.84-23.29Z" style="fill:#e3eaef;opacity:0.12195099890232086;isolation:isolate"/><path d="M96.84,173.23a40.17,40.17,0,0,1,21-5,50,50,0,0,1,6.22.64,48.2,48.2,0,0,1,14.56,5.24l77.48,44.74a38.2,38.2,0,0,1,7.49,5.72,22.92,22.92,0,0,1,6.51,18c-.58,8.59-7.52,18.09-15.69,22.81l-76.33,44.08a45.17,45.17,0,0,1-10.54,4.3,44.4,44.4,0,0,1-10,1.33,40.35,40.35,0,0,1-20.71-5L18.15,264.66a39.64,39.64,0,0,1-9.22-7.5A22.28,22.28,0,0,1,3.76,240.7c.65-8.58,7.79-18.24,16-23Z" style="fill:#dde6ec;opacity:0.1463409960269928;isolation:isolate"/><path d="M97.08,173.69A39.65,39.65,0,0,1,118,168.81a51.22,51.22,0,0,1,6.18.68,49.31,49.31,0,0,1,14.44,5.27l77.06,44.49a40.29,40.29,0,0,1,7.46,5.66,22.24,22.24,0,0,1,6.35,17.78c-.67,8.33-7.83,17.87-15.76,22.45L138,308.86a45.8,45.8,0,0,1-10.39,4.29,44.23,44.23,0,0,1-9.92,1.36,39.81,39.81,0,0,1-20.57-4.91L18.62,264.31a41.09,41.09,0,0,1-9.22-7.44,21.51,21.51,0,0,1-5-16.3c.74-8.33,8.13-18,16.06-22.63Z" style="fill:#d7e1e8;opacity:0.17073200643062592;isolation:isolate"/><path d="M97.37,174.14a39.09,39.09,0,0,1,20.8-4.78,48.71,48.71,0,0,1,6.14.71,50.77,50.77,0,0,1,14.36,5.3l76.62,44.24a40.67,40.67,0,0,1,7.44,5.61,21.45,21.45,0,0,1,6.14,17.66c-.74,8.08-8.13,17.65-15.83,22.1l-75.11,43.37a47.16,47.16,0,0,1-10.31,4.28,44.64,44.64,0,0,1-9.83,1.39,39.29,39.29,0,0,1-20.38-4.87L19.18,264A42.43,42.43,0,0,1,10,256.6a20.76,20.76,0,0,1-4.83-16.19c.83-8.07,8.48-17.86,16.18-22.3Z" style="fill:#d2dde5;opacity:0.19512200355529785;isolation:isolate"/><path d="M97.62,174.6a38.46,38.46,0,0,1,20.69-4.7,49.87,49.87,0,0,1,6.09.74A52,52,0,0,1,138.66,176l76.2,44a42.7,42.7,0,0,1,7.41,5.56,20.78,20.78,0,0,1,6,17.5c-.82,7.83-8.43,17.44-15.9,21.75l-74.5,43a48.2,48.2,0,0,1-10.25,4.28,44.48,44.48,0,0,1-9.74,1.42,38.78,38.78,0,0,1-20.22-4.8l-78-45a43.82,43.82,0,0,1-9.23-7.32A20,20,0,0,1,5.7,240.29c.91-7.82,8.82-17.67,16.29-22Z" style="fill:#ccd9e2;opacity:0.2195120006799698;isolation:isolate"/><path d="M97.89,175.05a38.12,38.12,0,0,1,20.58-4.61,51.33,51.33,0,0,1,6,.78,53.5,53.5,0,0,1,14.15,5.36l75.78,43.75a43.57,43.57,0,0,1,7.38,5.5,20.15,20.15,0,0,1,5.79,17.36c-.9,7.57-8.74,17.22-16,21.39l-73.9,42.66a48.76,48.76,0,0,1-10.1,4.27A44.31,44.31,0,0,1,118,313a38.36,38.36,0,0,1-20.06-4.72l-77.78-44.9a45.33,45.33,0,0,1-9.23-7.26,19.36,19.36,0,0,1-4.59-16c1-7.56,9.18-17.48,16.41-21.65Z" style="fill:#c6d5df;opacity:0.24390199780464172;isolation:isolate"/><path d="M98.15,175.5A37.54,37.54,0,0,1,118.62,171a50.59,50.59,0,0,1,6,.82,55.71,55.71,0,0,1,14,5.39L214,220.69a46.18,46.18,0,0,1,7.37,5.45c5,5,6.4,11,5.58,17.2-1,7.32-9,17-16,21l-73.34,42.35a51.24,51.24,0,0,1-10,4.26,43.55,43.55,0,0,1-9.56,1.48,37.94,37.94,0,0,1-19.9-4.64L20.62,263a48.82,48.82,0,0,1-9.24-7.2C7.16,251.05,6.13,245.61,7,240c1-7.3,9.52-17.28,16.51-21.32Z" style="fill:#c1d0db;opacity:0.26829299330711365;isolation:isolate"/><path d="M98.41,176a37,37,0,0,1,20.37-4.43,48.4,48.4,0,0,1,6,.85c3.88.7,10.76,3.58,13.94,5.42l74.9,43.25a47.82,47.82,0,0,1,7.34,5.4c5,5,6.29,10.88,5.4,17.05-1,7.05-9.35,16.78-16.11,20.68l-72.63,41.95a52.12,52.12,0,0,1-10,4.26,42.79,42.79,0,0,1-9.47,1.5,37.33,37.33,0,0,1-19.74-4.56L21,262.69a50.22,50.22,0,0,1-9.23-7.13c-4.19-4.8-5.19-10.14-4.25-15.8,1.12-7,9.87-17.09,16.63-21Z" style="fill:#bbccd8;opacity:0.2926830053329468;isolation:isolate"/><path d="M98.68,176.41a36.5,36.5,0,0,1,20.25-4.34,51.21,51.21,0,0,1,5.92.88c3.74.7,10.76,3.68,13.84,5.46l74.49,43a49.58,49.58,0,0,1,7.31,5.34c5,4.93,6.18,10.79,5.21,16.9-1.08,6.8-9.64,16.57-16.17,20.34l-72.05,41.59a53.35,53.35,0,0,1-9.85,4.25,42.62,42.62,0,0,1-9.38,1.53,36.78,36.78,0,0,1-19.57-4.48L21.62,262.37a52.85,52.85,0,0,1-9.23-7.08c-4.29-4.75-5.12-10-4.15-15.65C9.42,232.86,18.46,222.75,25,219Z" style="fill:#b5c8d5;opacity:0.3170729875564575;isolation:isolate"/><path d="M98.94,176.86a35.91,35.91,0,0,1,20.14-4.25,48.57,48.57,0,0,1,5.88.92c3.61.69,10.76,3.77,13.73,5.48l74.06,42.75a51.9,51.9,0,0,1,7.29,5.29c5,4.9,6.07,10.68,5,16.74-1.13,6.55-9.95,16.35-16.25,20L137.36,305a54.07,54.07,0,0,1-9.75,4.24,41.78,41.78,0,0,1-9.29,1.56,36.36,36.36,0,0,1-19.41-4.4L22.08,262a54.78,54.78,0,0,1-9.24-7c-4.31-4.74-6-10.26-4-15.54,0-6.64,10.56-16.7,16.86-20.34Z" style="fill:#b0c4d2;opacity:0.34146299958229065;isolation:isolate"/><path d="M99.2,177.32a35.49,35.49,0,0,1,20-4.17,50,50,0,0,1,5.83,1c3.47.68,10.77,3.86,13.62,5.51l73.64,42.52a53.17,53.17,0,0,1,7.26,5.22c5.06,4.89,7,10.88,4.84,16.6,0,6.39-10.25,16.13-16.31,19.63l-70.82,40.88a56.36,56.36,0,0,1-9.64,4.25,42.21,42.21,0,0,1-9.2,1.59A35.77,35.77,0,0,1,99.17,306L22.57,261.7a57.44,57.44,0,0,1-9.25-6.94C9,250,7.26,244.54,9.47,239.33c0-6.4,10.91-16.52,17-20Z" style="fill:#aabfce;opacity:0.3658539950847626;isolation:isolate"/><path d="M99.46,177.76a34.89,34.89,0,0,1,19.93-4.08,47.34,47.34,0,0,1,5.79,1c3.33.66,10.77,3.95,13.52,5.54l73.21,42.27a56.58,56.58,0,0,1,7.23,5.17c5.07,4.86,7,10.81,4.66,16.44,0,6.15-10.55,15.91-16.39,19.28l-70.19,40.54a58.27,58.27,0,0,1-9.56,4.23,41.55,41.55,0,0,1-9.12,1.62,35.43,35.43,0,0,1-19.08-4.25L23.08,261.4a59.19,59.19,0,0,1-9.24-6.89c-4.38-4.72-6.06-10.18-3.7-15.33,0-6.15,11.25-16.32,17.08-19.68Z" style="fill:#a4bbcb;opacity:0.3902440071105957;isolation:isolate"/><path d="M99.72,178.23a34.41,34.41,0,0,1,19.82-4,48.52,48.52,0,0,1,5.74,1c3.2.66,10.78,4.05,13.42,5.58l72.79,42a57.73,57.73,0,0,1,7.21,5.12c5.08,4.83,7,10.74,4.46,16.29,0,5.9-10.85,15.69-16.45,18.92l-69.58,40.17a59.36,59.36,0,0,1-9.46,4.23,41.13,41.13,0,0,1-9,1.65A34.93,34.93,0,0,1,99.75,305L23.57,261a63.63,63.63,0,0,1-9.25-6.83c-4.41-4.71-6-10.14-3.55-15.22,0-5.91,11.6-16.13,17.2-19.36Z" style="fill:#9fb7c8;opacity:0.41463398933410645;isolation:isolate"/><path d="M100,178.69a34,34,0,0,1,19.7-3.9,52.45,52.45,0,0,1,5.7,1.06c3.07.64,10.79,4.14,13.32,5.6l72.37,41.77a64.13,64.13,0,0,1,7.19,5.06c5.09,4.82,6.93,10.68,4.28,16.14,0,5.66-11.16,15.48-16.52,18.57l-69,39.82a64,64,0,0,1-9.36,4.23,41.21,41.21,0,0,1-8.94,1.66A34.28,34.28,0,0,1,100,304.61L24,260.76A66.75,66.75,0,0,1,14.73,254c-4.45-4.69-6.06-10.09-3.4-15.11,0-5.65,11.94-15.93,17.31-19Z" style="fill:#99b3c5;opacity:0.4390240013599396;isolation:isolate"/><path d="M100.25,179.13a33.49,33.49,0,0,1,19.59-3.81,51.42,51.42,0,0,1,5.66,1.1c2.93.62,10.79,4.23,13.21,5.63l71.91,41.53a63.28,63.28,0,0,1,7.16,5c5.11,4.79,6.9,10.61,4.09,16,0,5.41-11.46,15.26-16.59,18.22l-68.35,39.47a67.15,67.15,0,0,1-9.26,4.22,40.47,40.47,0,0,1-8.85,1.69,34.06,34.06,0,0,1-18.59-4L24.52,260.45a70.77,70.77,0,0,1-9.25-6.71c-4.48-4.69-6.06-10-3.26-15,0-5.41,12.3-15.74,17.43-18.7Z" style="fill:#93aec1;opacity:0.4634149968624115;isolation:isolate"/><path d="M100.51,179.59A33.06,33.06,0,0,1,120,175.86a51.11,51.11,0,0,1,5.61,1.13c2.79.62,10.8,4.34,13.1,5.67l71.51,41.28a66.57,66.57,0,0,1,7.13,5c5.12,4.76,6.86,10.54,3.91,15.83,0,5.16-11.76,15-16.66,17.86l-67.74,39.06a69,69,0,0,1-9.16,4.22,40.92,40.92,0,0,1-8.76,1.72,33.48,33.48,0,0,1-18.43-3.94L25,260.1a74.79,74.79,0,0,1-9.26-6.65c-4.51-4.68-6-10-3.1-14.9,0-5.16,12.64-15.54,17.54-18.37Z" style="fill:#8eaabe;opacity:0.48780500888824463;isolation:isolate"/><path d="M100.77,180a32.53,32.53,0,0,1,19.38-3.63,50,50,0,0,1,5.57,1.16c2.65.6,10.8,4.43,13,5.69l71.07,41a70.62,70.62,0,0,1,7.11,4.9c5.14,4.75,6.82,10.48,3.73,15.68,0,4.92-12.07,14.82-16.74,17.52l-67.12,38.75a73.71,73.71,0,0,1-9.06,4.21,40.05,40.05,0,0,1-8.67,1.75,33,33,0,0,1-18.27-3.86L25.49,259.76a82.11,82.11,0,0,1-9.25-6.59c-4.55-4.67-6-10-3-14.79,0-4.92,13-15.35,17.65-18Z" style="fill:#88a6bb;opacity:0.5121949911117554;isolation:isolate"/><path d="M101.08,180.5c5.38-3.11,12.54-4.34,19.27-3.55a52.38,52.38,0,0,1,5.53,1.2c2.52.58,10.8,4.52,12.89,5.72l70.6,40.82a74.43,74.43,0,0,1,7.08,4.85c5.15,4.72,6.78,10.41,3.54,15.53,0,4.67-12.37,14.6-16.8,17.16l-66.51,38.4a74.33,74.33,0,0,1-9,4.2,39.23,39.23,0,0,1-8.57,1.78,32.57,32.57,0,0,1-18-3.81l-75-43.34a87.53,87.53,0,0,1-9.25-6.52c-4.58-4.67-6.06-9.93-2.81-14.68,0-4.68,13.33-15.17,17.76-17.72Z" style="fill:#83a2b8;opacity:0.5365849733352661;isolation:isolate"/><path d="M101.3,181c5.34-3.08,12.48-4.28,19.15-3.46a49,49,0,0,1,5.49,1.24c2.38.55,10.81,4.61,12.78,5.75L209,225a80.31,80.31,0,0,1,7.06,4.79c5.16,4.71,6.74,10.35,3.35,15.38,0,4.43-12.67,14.39-16.87,16.81l-65.9,38a76.43,76.43,0,0,1-8.87,4.2,39.68,39.68,0,0,1-8.48,1.81,32,32,0,0,1-17.94-3.71L26.47,259.1a91.25,91.25,0,0,1-9.26-6.46c-4.61-4.66-6-9.89-2.66-14.58,0-4.42,13.68-15,17.88-17.39Z" style="fill:#7d9db4;opacity:0.5609760284423828;isolation:isolate"/><path d="M101.56,181.4c5.3-3.06,12.43-4.23,19-3.37A50.68,50.68,0,0,1,126,179.3c2.24.54,10.81,4.71,12.68,5.79l69.79,40.29a82.65,82.65,0,0,1,7,4.74c5.17,4.68,6.7,10.28,3.16,15.22,0,4.18-13,14.17-16.94,16.46l-65.19,37.69a81.15,81.15,0,0,1-8.78,4.19,38.79,38.79,0,0,1-8.39,1.83,31.57,31.57,0,0,1-17.78-3.62L27,258.82a98.39,98.39,0,0,1-9.26-6.41c-4.65-4.65-6-9.84-2.52-14.46,0-4.18,14-14.78,18-17.07Z" style="fill:#7799b1;opacity:0.5853660106658936;isolation:isolate"/><path d="M101.82,181.86a31,31,0,0,1,18.94-3.28,52.21,52.21,0,0,1,5.39,1.3c2.12.52,10.82,4.8,12.58,5.81l69.35,40.07c1.14.66,6.09,3.86,7,4.69,5.19,4.66,6.66,10.21,3,15.07,0,3.93-13.28,14-17,16.1l-64.66,37.31a84.5,84.5,0,0,1-8.68,4.19,38.06,38.06,0,0,1-8.3,1.86,31.1,31.1,0,0,1-17.62-3.55L27.45,258.5a104.55,104.55,0,0,1-9.26-6.35c-4.69-4.64-6.06-9.8-2.37-14.36,0-3.93,14.37-14.58,18.1-16.73Z" style="fill:#7295ae;opacity:0.6097559928894043;isolation:isolate"/><path d="M102.08,182.31c5.23-3,12.32-4.12,18.83-3.19a51.65,51.65,0,0,1,5.35,1.34c2,.49,10.83,4.89,12.48,5.84l68.94,39.8c1.07.62,6.12,3.86,7,4.63,5.21,4.64,6.63,10.15,2.79,14.92,0,3.69-13.58,13.73-17.08,15.75l-64,37c-1.24.71-7.15,3.73-8.58,4.18a37.34,37.34,0,0,1-8.21,1.89A30.55,30.55,0,0,1,102.08,301L27.94,258.17a111.68,111.68,0,0,1-9.27-6.28c-4.72-4.63-6-9.77-2.22-14.25,0-3.69,14.72-14.39,18.22-16.41Z" style="fill:#6c91ab;opacity:0.634145975112915;isolation:isolate"/><path d="M102.34,182.76c5.19-3,12.27-4.06,18.72-3.1a51.06,51.06,0,0,1,5.31,1.37c1.85.48,10.83,5,12.37,5.88l68.51,39.55c1,.58,6.15,3.87,7,4.58,5.22,4.62,6.59,10.08,2.61,14.77,0,3.44-13.88,13.51-17.15,15.39l-63.43,36.63c-1.15.66-7.14,3.75-8.48,4.17a37.2,37.2,0,0,1-8.12,1.92,30.28,30.28,0,0,1-17.3-3.39L28.47,257.85c-1.26-.72-8.31-5.29-9.27-6.22-4.76-4.63-6-9.73-2.07-14.14,0-3.45,15.06-14.2,18.33-16.09Z" style="fill:#668ca7;opacity:0.658536970615387;isolation:isolate"/><path d="M102.62,183.22c5.14-3,12.21-4,18.6-3,1.87.3,3.58,1,5.27,1.41s10.84,5.08,12.26,5.91l68.09,39.31c.93.53,6.18,3.86,6.93,4.52,5.24,4.59,6.55,10,2.42,14.61,0,3.2-14.18,13.3-17.21,15l-62.82,36.26c-1.07.62-7.14,3.77-8.38,4.17a37.39,37.39,0,0,1-8,1.95c-6.06.55-12.38-.57-17.13-3.32L29,257.5c-1.17-.67-8.38-5.3-9.27-6.16-4.8-4.62-6-9.69-1.93-14,0-3.2,15.42-14,18.45-15.75Z" style="fill:#6188a4;opacity:0.6829270124435425;isolation:isolate"/><path d="M102.87,183.69c5.11-3,12.16-4,18.49-2.92a52.54,52.54,0,0,1,5.23,1.44c1.58.42,10.84,5.17,12.16,5.93l67.66,39.07c.86.49,6.21,3.86,6.91,4.46,5.25,4.58,6.5,10,2.23,14.46,0,3-14.49,13.08-17.29,14.7l-62.18,35.86c-1,.57-7.14,3.79-8.28,4.16a36.82,36.82,0,0,1-7.94,2,29.41,29.41,0,0,1-17-3.24L29.39,257.2c-1.07-.63-8.44-5.31-9.27-6.11-4.83-4.61-6-9.64-1.77-13.92,0-3,15.76-13.82,18.56-15.43Z" style="fill:#5b84a1;opacity:0.7073169946670532;isolation:isolate"/><path d="M103.13,184.13c5.07-2.93,12.1-3.91,18.39-2.84a51.82,51.82,0,0,1,5.18,1.48c1.44.39,10.84,5.26,12,6l67.24,38.82c.78.45,6.24,3.85,6.88,4.41,5.27,4.56,6.47,9.88,2,14.31,0,2.7-14.79,12.86-17.36,14.34l-61.54,35.56c-.9.52-7.14,3.81-8.18,4.16a36,36,0,0,1-7.85,2c-5.93.6-12.16-.47-16.81-3.15L29.84,256.93c-1-.57-8.51-5.31-9.27-6-4.86-4.61-6-9.6-1.63-13.82,0-2.7,16.11-13.62,18.67-15.1Z" style="fill:#55809e;opacity:0.731706976890564;isolation:isolate"/><path d="M103.39,184.58c5-2.91,12-3.85,18.28-2.75,1.83.33,3.49,1,5.14,1.51,1.31.37,10.85,5.36,11.95,6l66.8,38.57c.72.41,6.27,3.85,6.86,4.36,5.28,4.53,6.43,9.81,1.86,14.15,0,2.46-15.09,12.64-17.42,14l-61,35.2c-.82.48-7.13,3.84-8.08,4.16a36.58,36.58,0,0,1-7.76,2,28.46,28.46,0,0,1-16.65-3.08l-73-42.15c-.89-.52-8.58-5.33-9.28-6-4.9-4.6-6-9.56-1.47-13.71,0-2.46,16.45-13.43,18.78-14.77Z" style="fill:#507b9a;opacity:0.7560979723930359;isolation:isolate"/><path d="M103.62,185c5-2.88,12-3.79,18.17-2.66,1.82.34,3.46,1.09,5.1,1.55,1.17.34,10.85,5.45,11.84,6l66.38,38.33c.64.37,6.3,3.85,6.83,4.3,5.3,4.52,6.39,9.75,1.68,14,0,2.21-15.4,12.42-17.5,13.63L135.77,295c-.75.43-7.14,3.85-8,4.15a36.35,36.35,0,0,1-7.67,2.05c-5.79.64-11.94-.38-16.49-3l-72.78-42c-.81-.47-8.65-5.34-9.28-5.92-4.93-4.55-5.93-9.55-1.3-13.55,0-2.22,16.8-13.24,18.9-14.45Z" style="fill:#4a7797;opacity:0.7804880142211914;isolation:isolate"/><path d="M103.92,185.49c5-2.86,11.94-3.73,18-2.57,1.81.35,3.43,1.11,5,1.58,1,.3,10.86,5.54,11.74,6l66,38.08c.57.33,6.33,3.85,6.8,4.25,5.32,4.5,6.36,9.68,1.49,13.85,0,2-15.7,12.21-17.56,13.28L135.7,294.45c-.66.38-7.14,3.88-7.89,4.15a35.47,35.47,0,0,1-7.58,2.08c-5.73.65-11.83-.33-16.32-2.93L31.35,255.86c-.72-.41-8.72-5.33-9.28-5.85-5-4.6-6-9.48-1.19-13.5,0-2,17.15-13,19-14.12Z" style="fill:#447394;opacity:0.8048779964447021;isolation:isolate"/><path d="M104.18,185.94c4.91-2.84,11.88-3.68,17.95-2.48,1.79.36,3.39,1.14,5,1.62.92.27,10.87,5.63,11.64,6.08L204.29,229c.5.29,6.37,3.85,6.78,4.19,5.34,4.48,6.32,9.62,1.31,13.7,0,1.73-16,12-17.64,12.93L135.62,294c-.58.33-7.13,3.91-7.79,4.14a34.77,34.77,0,0,1-7.49,2.11c-5.66.67-11.73-.29-16.16-2.85L31.85,255.59c-.63-.36-8.79-5.34-9.29-5.79-5-4.59-6-9.44-1-13.39,0-1.72,17.49-12.85,19.12-13.8Z" style="fill:#3f6f91;opacity:0.8292679786682129;isolation:isolate"/><path d="M104.44,186.39c4.88-2.81,11.83-3.62,17.84-2.39,1.78.37,3.36,1.17,5,1.65.78.24,10.87,5.74,11.53,6.12l65.1,37.58c.43.25,6.4,3.84,6.76,4.14C216,238,216.94,243,211.78,247c0,1.47-16.3,11.77-17.7,12.58L135.62,293.4c-.49.28-7.13,3.93-7.69,4.13a35.31,35.31,0,0,1-7.41,2.14c-5.58.69-11.61-.24-16-2.77l-72.1-41.63c-.54-.31-8.86-5.35-9.29-5.74-5-4.58-6-9.39-.89-13.28,0-1.47,17.84-12.65,19.24-13.46Z" style="fill:#396a8d;opacity:0.8536589741706848;isolation:isolate"/><path d="M104.7,186.85c4.84-2.8,11.78-3.57,17.73-2.31,1.77.38,3.33,1.2,4.92,1.69.65.2,10.88,5.83,11.43,6.14l64.67,37.32c.35.21,6.43,3.84,6.73,4.09,5.37,4.44,6.23,9.48.93,13.39,0,1.23-16.61,11.55-17.77,12.23l-57.9,33.42c-.41.24-7.12,4-7.59,4.13a34,34,0,0,1-7.32,2.16c-5.52.72-11.5-.19-15.83-2.69L32.83,254.93c-.45-.26-8.94-5.36-9.29-5.68-5.09-4.58-6-9.35-.74-13.17,0-1.23,18.18-12.47,19.35-13.14Z" style="fill:#33668a;opacity:0.8780490159988403;isolation:isolate"/><path d="M105,187.3c4.8-2.77,11.73-3.51,17.62-2.21,1.76.39,3.3,1.22,4.88,1.72.52.16,10.88,5.92,11.32,6.17L203,230.07c.29.17,6.47,3.84,6.71,4,5.39,4.42,6.2,9.41.74,13.25,0,1-16.91,11.33-17.84,11.87l-57.28,33.1c-.33.19-7.12,4-7.49,4.12a33.15,33.15,0,0,1-7.23,2.19c-5.45.74-11.39-.14-15.67-2.61L33.31,254.62c-.35-.2-9-5.36-9.29-5.61-5.12-4.57-6-9.31-.59-13.07,0-1,18.54-12.27,19.47-12.81Z" style="fill:#2e6287;opacity:0.9024389982223511;isolation:isolate"/><path d="M105.23,187.76c4.76-2.75,11.67-3.47,17.5-2.13a19.88,19.88,0,0,1,4.84,1.75c.4.06,10.88,6,11.21,6.21l63.84,36.84c.22.13,6.5,3.83,6.68,4,5.4,4.4,6.16,9.34.56,13.09,0,.74-17.21,11.12-17.91,11.52l-56.67,32.65c-.24.15-7.11,4-7.39,4.12a33,33,0,0,1-7.14,2.22c-5.38.76-11.28-.09-15.5-2.53L33.8,254.26c-.27-.16-9.11-5.33-9.29-5.55-5.89-3.6-6-9.27-.44-13,0-.74,18.88-12.08,19.58-12.48Z" style="fill:#285e84;opacity:0.9268289804458618;isolation:isolate"/><path d="M105.49,188.21c4.72-2.73,11.61-3.41,17.4-2a19.48,19.48,0,0,1,4.79,1.79c.27,0,10.89,6.11,11.11,6.24l63.39,36.52c.14.09,6.53,3.83,6.65,3.93,5.42,4.38,6.12,9.27.37,12.93,0,.5-17.51,10.9-18,11.17l-56,32.36-7.29,4.11a33.47,33.47,0,0,1-7,2.25c-5.31.77-11.17,0-15.34-2.46L34.32,254c-.18-.11-9.17-5.34-9.29-5.49-5.94-3.56-6-9.23-.3-12.85,0-.5,19.23-11.89,19.69-12.16Z" style="fill:#225980;opacity:0.9512199759483337;isolation:isolate"/><path d="M105.75,188.69c4.68-2.7,11.56-3.35,17.29-2a19.15,19.15,0,0,1,4.75,1.83c.13,0,10.89,6.2,11,6.26l63,36.36c.07,0,6.56,3.81,6.62,3.86,5.44,4.37,6.09,9.21.19,12.79,0,.24-17.82,10.68-18,10.81l-55.43,32c-.09,0-7.11,4.07-7.2,4.1a32.56,32.56,0,0,1-7,2.28c-5.25.79-11.06,0-15.18-2.38l-71-41c-.09,0-9.24-5.35-9.3-5.43-6-3.52-6-9.18-.14-12.74,0-.24,19.57-11.69,19.8-11.83Z" style="fill:#1d557d;opacity:0.9756100177764893;isolation:isolate"/><path d="M207.94,248l-80,46.21c-6,3.49-15.84,3.49-21.88,0L26.06,248c-6-3.49-6-9.14,0-12.63l80-46.21c6-3.49,15.84-3.49,21.88,0l80,46.21C214,238.82,214,244.47,207.94,248Z" style="fill:#17517a"/></g><path d="M280.76,90.87c0-5.57-4.52-12.68-10.08-15.9L143.53,1.56C138-1.65,133.45.25,133.45,5.82V21l147.31,85Z" style="fill:#ffd131"/><path d="M133.45,21V96.39c0,5.57,4.51,12.68,10.08,15.9l127.15,73.4c5.56,3.21,10.08,1.31,10.08-4.26V106.07Z" style="fill:#5ecff5"/><path d="M150.29,18.11c0,2.18-1.76,2.92-3.94,1.67a8.2,8.2,0,0,1-3.95-6.23c0-2.18,1.77-2.92,3.95-1.66A8.16,8.16,0,0,1,150.29,18.11Z" style="fill:#fff"/><path d="M161.55,24.61c0,2.18-1.77,2.92-3.94,1.67a8.21,8.21,0,0,1-4-6.23c0-2.18,1.77-2.92,4-1.66A8.18,8.18,0,0,1,161.55,24.61Z" style="fill:#fff"/><path d="M172.81,31.11c0,2.18-1.77,2.92-4,1.67a8.24,8.24,0,0,1-3.94-6.23c0-2.18,1.77-2.92,3.94-1.66A8.16,8.16,0,0,1,172.81,31.11Z" style="fill:#fff"/><path d="M249.51,101.48,229.08,89.69c-6.31-3.64-11.48-1.46-11.48,4.86V115c0,6.32,5.17,14.47,11.48,18.12l5.6,3.23v48.85c0,2.49,2,5.69,4.52,7.12l.17.1h0l8.25,4.76c1.46.84,2.65.34,2.65-1.12v-1.25a5.49,5.49,0,0,0-2.65-4.18c1.46.84,2.65.34,2.65-1.12v-1.3a5.49,5.49,0,0,0-2.65-4.18c1.46.84,2.65.34,2.65-1.12v-1.23a5.49,5.49,0,0,0-2.65-4.18l-3.81-2.2V141.63l5.59,3.23c6.32,3.65,11.49,1.46,11.49-4.86V119.6C261,113.29,255.83,105.13,249.51,101.48Zm-10.2,10.73c-2.41-1.39-4.36-4.48-4.36-6.89s2-3.24,4.36-1.85,4.37,4.48,4.37,6.89S241.73,113.6,239.31,112.21Z" style="fill:#061e43"/><path d="M212.42,240.94l.05-21.13h-9.94L183,231.17l-55.08-31.8c-6-3.49-15.84-3.49-21.88,0L58.46,226.83l1.77-4.92-38.79-2.83v22.5c0,2.28,1.51,4.57,4.53,6.31l80,46.21c6,3.49,15.84,3.49,21.88,0l80-46.21c3.3-1.9,4.78-4.46,4.48-6.95Z" style="fill:#061e43"/><path d="M207.94,225.39l-80,46.21c-6,3.49-15.84,3.49-21.88,0l-80-46.21c-6-3.49-6-9.14,0-12.63l80-46.21c6-3.49,15.84-3.49,21.88,0l80,46.21C214,216.25,214,221.9,207.94,225.39Z" style="fill:#4a878c"/><path d="M245.62,102.76,225.22,91c-6.32-3.64-11.49-1.46-11.49,4.86v20.4c0,6.32,5.17,14.47,11.49,18.12l5.6,3.23v48.85c0,2.49,2,5.69,4.51,7.12l.18.1h0l8.25,4.76c1.45.84,2.64.34,2.64-1.12V196a5.52,5.52,0,0,0-2.64-4.18c1.45.84,2.64.33,2.64-1.12v-1.3a5.52,5.52,0,0,0-2.64-4.18c1.45.84,2.64.34,2.64-1.12v-1.29a5.52,5.52,0,0,0-2.64-4.18l-3.82-2.21V142.9l5.6,3.23c6.32,3.65,11.49,1.46,11.49-4.86v-20.4C257.08,114.55,251.94,106.4,245.62,102.76Zm-10.2,10.73c-2.41-1.4-4.37-4.48-4.37-6.89s2-3.24,4.37-1.85,4.37,4.48,4.37,6.89-2,3.23-4.37,1.84Z" style="fill:#ffd131"/><path d="M143.68,160.76,90.23,129.89c-3-1.71-5.63-1.89-7.39-.78l-13,7.48-.48.48,2.72,2.79,2.14-.82,1-1.15V190.5c0,5.28,4.29,12,9.57,15.09l51.94,30-.45,1.43,1.5,4.65,13.11-7.45h0c1.45-.84,2.33-2.51,2.33-4.9V175.83C153.25,170.55,149,163.76,143.68,160.76Z" style="fill:#061e43"/><path d="M130.62,240.86,77.16,210c-5.28-3.05-9.56-9.81-9.56-15.09V141.45c0-5.28,4.28-7.09,9.56-4l53.46,30.86c5.28,3,9.56,9.81,9.56,15.09v53.45C140.21,242.1,135.93,243.91,130.62,240.86Z" style="fill:#b5e3df"/><path d="M110.5,188.76c0-4.21-3.42-9.6-7.63-12s-7.63-1-7.63,3.23a12.62,12.62,0,0,0,1.84,6q-.67,5.72-1.36,11.45l14.3,8.25q-.67-6.51-1.36-13A4.24,4.24,0,0,0,110.5,188.76Z" style="fill:#061e43"/><polygon points="81.92 167.34 67.63 159.08 67.63 152.45 81.92 160.7 81.92 167.34" style="fill:#3983aa"/><polygon points="81.92 179.75 67.63 171.5 67.63 164.86 81.92 173.12 81.92 179.75" style="fill:#3983aa"/><polygon points="81.92 192.16 67.63 183.91 67.63 177.27 81.92 185.53 81.92 192.16" style="fill:#3983aa"/><polygon points="140.21 200.99 125.92 192.74 125.92 186.11 140.21 194.36 140.21 200.99" style="fill:#3983aa"/><polygon points="140.21 213.4 125.92 205.15 125.92 198.52 140.21 206.77 140.21 213.4" style="fill:#3983aa"/><polygon points="140.21 225.82 125.92 217.56 125.92 210.93 140.21 219.18 140.21 225.82" style="fill:#3983aa"/><path d="M131.08,163.76a3.87,3.87,0,0,1-3.87-3.87V142.08c0-9.48-8.14-22.19-17.78-27.75-4.43-2.56-8.56-3.23-11-1.8s-2.87,4.45-2.87,6.78v17.82a3.87,3.87,0,0,1-7.74,0V119.31c0-6.18,2.4-11,6.74-13.47,5-2.88,11.83-2.22,18.78,1.79,12.14,7,21.65,22.14,21.65,34.45v17.81a3.87,3.87,0,0,1-3.87,3.87h0Z" style="fill:#b5e3df"/><path d="M98,79.23h0c-4.48-2.58-8.11-8.31-8.11-12.78V46.34c0-4.47,3.63-6,8.11-3.42h0c4.47,2.58,8.1,8.3,8.1,12.78V75.81C106.08,80.28,102.42,81.82,98,79.23Z" style="fill:#061e43"/><path d="M98,74.84h0a7.82,7.82,0,0,1-3.79-6V48.91c0-2.09,1.69-2.81,3.79-1.6h0a7.85,7.85,0,0,1,3.79,6v20C101.74,75.33,100.08,76.05,98,74.84Z" style="fill:#4aa4c2"/><path d="M98,44.76h0a2.24,2.24,0,0,1-1.07-1.69V34.69c0-.59.48-.79,1.07-.45h0A2.24,2.24,0,0,1,99,35.93v8.36C99,44.89,98.54,45.09,98,44.76Z" style="fill:#061e43"/><path d="M80.85,51h0c0-.59.48-.8,1.08-.45l8.35,4.82a2.24,2.24,0,0,1,1.07,1.69h0c0,.59-.48.79-1.07.45l-8.35-4.85A2.22,2.22,0,0,1,80.85,51Z" style="fill:#061e43"/><path d="M92.08,47.17h0c-.19.46-.79.41-1.35-.1l-7.94-7.19a1.84,1.84,0,0,1-.68-1.75h0c.18-.45.79-.41,1.35.1l7.94,7.2A1.82,1.82,0,0,1,92.08,47.17Z" style="fill:#061e43"/><path d="M92.17,68.45h0c.13.65-.24,1-.82.8l-8.16-3a2.25,2.25,0,0,1-1.28-1.55h0c-.12-.65.25-1,.82-.8l8.17,3A2.21,2.21,0,0,1,92.17,68.45Z" style="fill:#061e43"/><path d="M114.42,70.6h0a2.22,2.22,0,0,0-1.08-1.69L105,64.08c-.59-.34-1.07-.13-1.07.46h0A2.24,2.24,0,0,0,105,66.23l8.35,4.82C113.94,71.39,114.42,71.19,114.42,70.6Z" style="fill:#061e43"/><path d="M103.24,53.84h0a2.19,2.19,0,0,0,1.35,1.46l7.94,2c.56.14.87-.29.68-1h0a2.17,2.17,0,0,0-1.35-1.46l-7.94-2C103.36,52.76,103.08,53.17,103.24,53.84Z" style="fill:#061e43"/><path d="M103.08,75h0a2,2,0,0,0,.82,1.74l8.16,6.48c.58.46,1.15.42,1.28-.09h0a2,2,0,0,0-.82-1.74l-8.17-6.48C103.79,74.4,103.22,74.44,103.08,75Z" style="fill:#061e43"/><path d="M98,86.76h0a2.24,2.24,0,0,1-1.07-1.69V76.76c0-.6.48-.8,1.07-.46h0A2.24,2.24,0,0,1,99,78v8.36C99,86.92,98.54,87.12,98,86.76Z" style="fill:#061e43"/><path d="M99.35,54.08c0,.78-.63,1.05-1.4.6a2.9,2.9,0,0,1-1.41-2.22c0-.78.63-1,1.41-.6A2.93,2.93,0,0,1,99.35,54.08Z" style="fill:#fff"/><path d="M99.35,59.82c0,.78-.63,1-1.4.59a2.88,2.88,0,0,1-1.41-2.21c0-.78.63-1,1.41-.6A2.93,2.93,0,0,1,99.35,59.82Z" style="fill:#fff"/><path d="M99.35,65.56c0,.77-.63,1-1.4.59a2.9,2.9,0,0,1-1.41-2.22c0-.77.63-1,1.41-.59A2.93,2.93,0,0,1,99.35,65.56Z" style="fill:#fff"/><path d="M99.35,71.29c0,.78-.63,1-1.4.6a2.9,2.9,0,0,1-1.41-2.22c0-.78.63-1,1.41-.59A2.9,2.9,0,0,1,99.35,71.29Z" style="fill:#fff"/><path d="M270.94,232.14h0c-3.39-1.95-6.13-6.29-6.13-9.67V207.24c0-3.39,2.74-4.55,6.13-2.59h0c3.39,2,6.14,6.29,6.14,9.68v15.22C277.08,232.94,274.33,234.1,270.94,232.14Z" style="fill:#061e43"/><path d="M270.94,228.82h0a6,6,0,0,1-2.86-4.53v-15.1c0-1.59,1.29-2.13,2.87-1.22h0a6,6,0,0,1,2.87,4.53v15.11C273.81,229.19,272.53,229.69,270.94,228.82Z" style="fill:#4aa4c2"/><path d="M270.94,206h0a1.67,1.67,0,0,1-.81-1.28v-6.33c0-.44.36-.6.81-.34h0a1.67,1.67,0,0,1,.81,1.28v6.32C271.75,206.14,271.39,206.29,270.94,206Z" style="fill:#061e43"/><path d="M258,210.76h0c0-.45.36-.6.81-.34l6.33,3.65a1.67,1.67,0,0,1,.81,1.28h0c0,.45-.37.6-.81.34L258.81,212A1.67,1.67,0,0,1,258,210.76Z" style="fill:#061e43"/><path d="M266.46,207.87h0c-.14.35-.6.31-1-.07l-6-5.45a1.4,1.4,0,0,1-.52-1.32h0c.14-.35.6-.31,1,.07l6,5.45A1.4,1.4,0,0,1,266.46,207.87Z" style="fill:#061e43"/><path d="M266.62,224h0c.09.49-.18.76-.62.6l-6.18-2.23a1.74,1.74,0,0,1-1-1.18h0c-.09-.49.19-.76.62-.6l6.18,2.19A1.74,1.74,0,0,1,266.62,224Z" style="fill:#061e43"/><path d="M283.41,225.61h0a1.67,1.67,0,0,0-.81-1.28l-6.33-3.64c-.44-.26-.81-.11-.81.34h0a1.67,1.67,0,0,0,.81,1.28l6.35,3.65C283.08,226.21,283.41,226.05,283.41,225.61Z" style="fill:#061e43"/><path d="M275,212.92h0a1.7,1.7,0,0,0,1,1.11l6,1.48c.43.11.66-.22.52-.72h0a1.66,1.66,0,0,0-1-1.11l-6-1.49C275.08,212.09,274.81,212.41,275,212.92Z" style="fill:#061e43"/><path d="M274.84,228.9h0a1.52,1.52,0,0,0,.62,1.32l6.18,4.9c.44.35.87.32,1-.06h0a1.52,1.52,0,0,0-.62-1.32l-6.19-4.91C275.37,228.49,274.93,228.51,274.84,228.9Z" style="fill:#061e43"/><path d="M270.94,237.86h0a1.67,1.67,0,0,1-.81-1.28v-6.33c0-.44.36-.6.81-.34h0a1.67,1.67,0,0,1,.81,1.28v6.32C271.75,238,271.39,238.12,270.94,237.86Z" style="fill:#061e43"/><path d="M272,213.1c0,.59-.48.79-1.07.45a2.21,2.21,0,0,1-1.06-1.68c0-.58.47-.79,1.06-.45A2.22,2.22,0,0,1,272,213.1Z" style="fill:#fff"/><path d="M272,217.45c0,.58-.48.79-1.07.45a2.21,2.21,0,0,1-1.06-1.68c0-.59.47-.79,1.06-.45A2.22,2.22,0,0,1,272,217.45Z" style="fill:#fff"/><path d="M272,221.76c0,.59-.48.79-1.07.45a2.21,2.21,0,0,1-1.06-1.68c0-.59.47-.79,1.06-.45A2.22,2.22,0,0,1,272,221.76Z" style="fill:#fff"/><path d="M272,226.13c0,.59-.48.79-1.07.45a2.21,2.21,0,0,1-1.06-1.68c0-.58.47-.79,1.06-.45A2.22,2.22,0,0,1,272,226.13Z" style="fill:#fff"/><path d="M160.72,73.69l-17.1-9.88a3.86,3.86,0,0,1-1.86-3V43.69c0-1,.83-1.38,1.86-.79l17.1,9.86a3.87,3.87,0,0,1,1.9,3V72.92C162.62,73.92,161.75,74.28,160.72,73.69Z" style="fill:#fff"/><path d="M203.25,82.69l-32.7-18.87a5.52,5.52,0,0,1-2.64-4.18h0c0-1.46,1.18-2,2.64-1.11l32.7,18.87a5.48,5.48,0,0,1,2.64,4.17h0C205.89,83,204.71,83.52,203.25,82.69Z" style="fill:#fff"/><path d="M203.25,90.46l-32.7-18.88a5.48,5.48,0,0,1-2.64-4.17h0c0-1.47,1.18-2,2.64-1.12l32.7,18.87a5.52,5.52,0,0,1,2.64,4.18h0C205.89,90.76,204.71,91.3,203.25,90.46Z" style="fill:#fff"/><path d="M203.25,98.24l-32.7-18.88a5.48,5.48,0,0,1-2.64-4.17h0c0-1.46,1.18-2,2.64-1.12L203.25,93a5.48,5.48,0,0,1,2.64,4.17h0C205.89,98.58,204.71,99.08,203.25,98.24Z" style="fill:#fff"/><path d="M160.72,105l-17.1-9.88a3.86,3.86,0,0,1-1.86-3V75.05c0-1,.83-1.38,1.86-.79l17.13,9.89a3.87,3.87,0,0,1,1.86,2.94v17.12C162.62,105.25,161.75,105.6,160.72,105Z" style="fill:#fff"/><path d="M203.25,114l-32.7-18.87a5.52,5.52,0,0,1-2.64-4.18h0c0-1.46,1.18-2,2.64-1.11l32.7,18.86a5.52,5.52,0,0,1,2.64,4.18h0C205.89,114.34,204.71,114.84,203.25,114Z" style="fill:#fff"/><path d="M203.25,121.76l-32.7-18.88a5.48,5.48,0,0,1-2.64-4.17h0c0-1.46,1.18-2,2.64-1.12l32.7,18.87a5.52,5.52,0,0,1,2.64,4.18h0C205.89,122.12,204.71,122.62,203.25,121.76Z" style="fill:#fff"/><path d="M203.25,129.56l-32.7-18.87a5.48,5.48,0,0,1-2.64-4.17h0c0-1.46,1.18-2,2.64-1.12l32.7,18.88a5.48,5.48,0,0,1,2.64,4.17h0C205.89,129.9,204.71,130.4,203.25,129.56Z" style="fill:#fff"/><path d="M43.3,158.4c0,6.72-5.45,9-12.17,5.14S19,151.06,19,144.34s5.45-9,12.17-5.15S43.3,151.69,43.3,158.4Z" style="fill:#ffd131"/><path d="M36.7,154.58c0,3.08-2.5,4.13-5.57,2.35s-5.57-5.7-5.57-8.78,2.5-4.12,5.57-2.35S36.7,151.51,36.7,154.58Z" style="fill:#061e43"/><ellipse cx="182.56" cy="173.93" rx="6.39" ry="11.3" transform="translate(-67.89 144.67) rotate(-36.95)" style="fill:#ffd131"/><path d="M186.45,176.18c0,2.15-1.74,2.88-3.89,1.64a8.07,8.07,0,0,1-3.88-6.13c0-2.14,1.74-2.88,3.88-1.64A8,8,0,0,1,186.45,176.18Z" style="fill:#061e43"/></svg>