<svg id="e16b0a28-038e-44da-b197-8dbb4778095f" data-name="f7d02210-b4c4-4549-91ab-7ab1e37d1339" xmlns="http://www.w3.org/2000/svg" viewBox="0 0 1054.68 712.93"><g style="opacity:0.6700000166893005"><path d="M489,712.93A47.17,47.17,0,0,1,465.64,707L154.4,527.31c-10.09-5.83-16.11-15.61-16.11-26.17s6-20.35,16.11-26.18L680.64,171.14a49.1,49.1,0,0,1,46.68,0l311.25,179.7c10.08,5.82,16.11,15.6,16.11,26.17s-6,20.35-16.11,26.17L512.33,707A47.16,47.16,0,0,1,489,712.93Z" style="fill:#fff;fill-opacity:0"/><path d="M680.85,171.59a46.34,46.34,0,0,1,23.26-5.8,53.18,53.18,0,0,1,5.64.34,46,46,0,0,1,17.56,5.65l310,179c9.84,5.68,16.29,15.55,16.29,25.86a28.65,28.65,0,0,1-1.78,10.24,31.2,31.2,0,0,1-13.75,15.74L512.55,706a47.8,47.8,0,0,1-21,6c-.78,0-1.53.06-2.24.07A46.09,46.09,0,0,1,466,706.28L155.71,527.11c-9.84-5.68-16.31-15.56-16.31-25.87a28.74,28.74,0,0,1,2.06-11.07,31.37,31.37,0,0,1,13.42-14.93Z" style="fill:#f9fbfc;opacity:0.024390000849962234;isolation:isolate"/><path d="M681.07,172a45.6,45.6,0,0,1,23.16-5.7,55.24,55.24,0,0,1,5.61.38,47.3,47.3,0,0,1,17.46,5.7L1036,350.66c9.59,5.54,16.45,15.51,16.45,25.55A29.55,29.55,0,0,1,1051,386.3,30.18,30.18,0,0,1,1037.55,402L512.78,705a49.33,49.33,0,0,1-21,6.07c-.77,0-1.52.08-2.23.1a45.18,45.18,0,0,1-23.28-5.66L157,526.93c-9.6-5.54-16.51-15.53-16.51-25.58a29.41,29.41,0,0,1,1.82-10.91,30.22,30.22,0,0,1,13.12-14.92Z" style="fill:#f4f7f9;opacity:0.04878000169992447;isolation:isolate"/><path d="M681.28,172.49a44.91,44.91,0,0,1,23.08-5.56,52,52,0,0,1,5.58.42,48.53,48.53,0,0,1,17.36,5.75l307.47,177.52c9.35,5.39,16.63,15.45,16.63,25.24a30.42,30.42,0,0,1-1.3,9.94A29,29,0,0,1,1037,401.46L513,703.93a51.2,51.2,0,0,1-20.87,6.18c-.77,0-1.51.1-2.22.12a44.35,44.35,0,0,1-23.26-5.54l-308.31-178c-9.34-5.4-16.7-15.49-16.7-25.28a30.32,30.32,0,0,1,1.55-10.77,29.11,29.11,0,0,1,12.74-14.88Z" style="fill:#eef2f5;opacity:0.07317099720239639;isolation:isolate"/><path d="M681.46,172.93a44.18,44.18,0,0,1,23-5.5,46.23,46.23,0,0,1,5.54.45,50.29,50.29,0,0,1,17.26,5.81l306.2,176.8c9.11,5.26,16.81,15.4,16.81,24.93,0,3.24,0,6.77-1.06,9.8a28,28,0,0,1-12.73,15.61L513.23,702.93a53.26,53.26,0,0,1-20.8,6.29c-.77,0-1.5.11-2.21.14A43.5,43.5,0,0,1,467,703.93L159.66,526.54c-9.1-5.26-16.91-15.46-16.91-25,0-3.52.09-7.35,1.28-10.61a28,28,0,0,1,12.43-14.85Z" style="fill:#e8eef2;opacity:0.09756100177764893;isolation:isolate"/><path d="M681.71,173.39a43.48,43.48,0,0,1,22.9-5.4c1.67.06,3.53.24,5.52.49a51.69,51.69,0,0,1,17.15,5.86l305,176.06c8.85,5.12,17,15.35,17,24.62,0,3.16.11,6.69-.83,9.66a27,27,0,0,1-12.38,15.56L513.46,701.93a55,55,0,0,1-20.72,6.41c-.76,0-1.5.12-2.2.16a42.72,42.72,0,0,1-23.21-5.3L161,526.34c-8.86-5.11-17.11-15.41-17.11-24.69,0-3.42-.1-7.27,1-10.46a26.93,26.93,0,0,1,12.07-14.83Z" style="fill:#e3eaef;opacity:0.12195099890232086;isolation:isolate"/><path d="M681.93,173.84a42.89,42.89,0,0,1,22.81-5.3c1.67.07,3.51.27,5.48.53a53.24,53.24,0,0,1,17,5.91l303.7,175.34c8.61,5,17.16,15.29,17.16,24.31,0,3.06.27,6.61-.59,9.5a26,26,0,0,1-12,15.52L513.67,700.93A57.15,57.15,0,0,1,493,707.45c-.76,0-1.49.14-2.19.18a41.85,41.85,0,0,1-23.18-5.18L162.29,526.15c-8.61-5-17.31-15.38-17.31-24.39,0-3.33-.27-7.19.75-10.31a25.81,25.81,0,0,1,11.73-14.81Z" style="fill:#dde6ec;opacity:0.1463409960269928;isolation:isolate"/><path d="M682.14,174.29a42.21,42.21,0,0,1,22.73-5.2c1.66.08,3.5.3,5.45.56a55.23,55.23,0,0,1,16.95,6l302.44,174.58c8.36,4.83,17.33,15.24,17.33,24,0,3,.43,6.53-.36,9.36A25,25,0,0,1,1035,399.07L513.9,699.93a59.59,59.59,0,0,1-20.57,6.63c-.75.06-1.48.15-2.18.2A41.19,41.19,0,0,1,468,701.7L163.61,525.93c-8.37-4.83-17.51-15.34-17.51-24.1,0-3.23-.46-7.11.47-10.16A24.82,24.82,0,0,1,158,476.93Z" style="fill:#d7e1e8;opacity:0.17073200643062592;isolation:isolate"/><path d="M682.35,174.74a41.64,41.64,0,0,1,22.64-5.1c1.67.09,3.49.33,5.42.6a56.73,56.73,0,0,1,16.85,6l301.2,173.9c8.12,4.69,17.51,15.19,17.51,23.69,0,2.89.59,6.46-.12,9.22a24,24,0,0,1-11.39,15.43L514.12,698.93c-6,3.46-15.79,6.34-20.49,6.73-.75.07-1.48.17-2.18.23a40.57,40.57,0,0,1-23.12-5L164.92,525.76c-8.11-4.68-17.7-15.3-17.7-23.8,0-3.14-.65-7,.2-10a23.94,23.94,0,0,1,11.06-14.75Z" style="fill:#d2dde5;opacity:0.19512200355529785;isolation:isolate"/><path d="M682.57,175.19a41,41,0,0,1,22.55-5c1.66.1,3.47.36,5.39.64a58.51,58.51,0,0,1,16.74,6.1l299.92,173.16c7.88,4.54,17.69,15.13,17.69,23.37,0,2.81.76,6.39.11,9.08-1.36,5.68-4.34,11.54-11,15.38l-519.62,300c-5.81,3.36-15.87,6.45-20.42,6.85-.75.07-1.47.19-2.17.25a39.75,39.75,0,0,1-23.09-4.81L166.24,525.57c-7.87-4.54-17.91-15.26-17.91-23.51,0-3-.84-7-.07-9.85,1.44-5.4,4.3-11,10.74-14.73Z" style="fill:#ccd9e2;opacity:0.2195120006799698;isolation:isolate"/><path d="M682.78,175.64a40.35,40.35,0,0,1,22.47-4.9c1.66.11,3.45.39,5.35.67,4,.59,12.06,3.48,16.65,6.13l298.66,172.39c7.63,4.4,17.85,15.08,17.85,23.07,0,2.71.93,6.31.36,8.93-1.24,5.63-4,11.49-10.66,15.33L514.57,696.93c-5.62,3.25-15.93,6.54-20.34,7-.74.07-1.46.2-2.16.27A39.18,39.18,0,0,1,469,699.51l-301.44-174c-7.63-4.4-18.11-15.22-18.11-23.21,0-3-1-6.88-.34-9.71,1.31-5.35,4-11,10.4-14.7Z" style="fill:#c6d5df;opacity:0.24390199780464172;isolation:isolate"/><path d="M683,176.09a40,40,0,0,1,22.37-4.81c1.66.13,3.44.43,5.33.72,3.85.59,12.1,3.61,16.54,6.18l297.4,171.75c7.38,4.27,18,15,18,22.76,0,2.63,1.56,6.38.59,8.78-.08,5.7-3.65,11.45-10.31,15.3L514.8,695.87c-5.45,3.14-16,6.64-20.27,7.07-.74.07-1.45.21-2.15.29a38.44,38.44,0,0,1-23-4.57L168.87,525.18c-7.41-4.25-18.31-15.18-18.31-22.91,0-2.85-1.73-7-.6-9.55.14-5.45,3.61-11,10.06-14.68Z" style="fill:#c1d0db;opacity:0.26829299330711365;isolation:isolate"/><path d="M683.21,176.54a39.26,39.26,0,0,1,22.25-4.71c1.65.15,3.43.46,5.29.76,3.72.58,12.15,3.75,16.44,6.23l296.15,171c7.13,4.12,18.2,15,18.2,22.44,0,2.54,1.76,6.32.83,8.64.14,5.64-3.31,11.4-10,15.25L515,694.86c-5.26,3-16.07,6.74-20.19,7.18-.74.08-1.45.23-2.14.31a38,38,0,0,1-23-4.45L170.19,525c-7.14-4.12-18.51-15.14-18.51-22.62,0-2.75-2-6.91-.88-9.4-.08-5.39,3.28-10.93,9.73-14.65Z" style="fill:#bbccd8;opacity:0.2926830053329468;isolation:isolate"/><path d="M683.46,177a38.82,38.82,0,0,1,22.2-4.61c1.65.16,3.41.49,5.26.79,3.59.58,12.19,3.9,16.33,6.29l294.89,170.25c6.89,4,18.38,14.92,18.38,22.13,0,2.46,2,6.25,1.06,8.5.37,5.58-3,11.36-9.62,15.2L515.25,693.85c-5.09,2.93-16.15,6.84-20.12,7.29-.73.08-1.44.24-2.13.33a37.33,37.33,0,0,1-23-4.33L171.46,524.8c-6.89-4-18.7-15.11-18.7-22.32,0-2.66-2.2-6.85-1.15-9.25-.31-5.34,2.93-10.91,9.39-14.64Z" style="fill:#b5c8d5;opacity:0.3170729875564575;isolation:isolate"/><path d="M683.64,177.44a38.22,38.22,0,0,1,22.11-4.51c1.65.17,3.4.53,5.23.83,3.46.58,12.24,4,16.24,6.34l293.63,169.52c6.64,3.84,18.55,14.87,18.55,21.83,0,2.36,2.16,6.18,1.3,8.35.59,5.51-2.63,11.31-9.29,15.15L515.46,692.83c-4.9,2.83-16.21,7-20,7.41-.73.08-1.43.25-2.12.35a36.73,36.73,0,0,1-23-4.21L172.82,524.61c-6.64-3.84-18.91-15.07-18.91-22,0-2.57-2.43-6.78-1.41-9.1-.54-5.28,2.58-10.87,9.05-14.61Z" style="fill:#b0c4d2;opacity:0.34146299958229065;isolation:isolate"/><path d="M683.86,177.93a37.66,37.66,0,0,1,22-4.41c1.65.18,3.38.56,5.2.87,3.33.57,12.28,4.17,16.13,6.39l292.37,168.8c6.4,3.69,18.73,14.81,18.73,21.51,0,2.28,2.37,6.12,1.53,8.2.82,5.46-2.28,11.27-8.94,15.11L515.7,691.82c-4.72,2.73-16.29,7.06-20,7.51-.73.09-1.42.28-2.12.38a36.14,36.14,0,0,1-22.93-4.09L174.13,524.41c-6.39-3.69-19.1-15-19.1-21.73,0-2.47-2.67-6.71-1.69-9-.76-5.23,2.25-10.84,8.72-14.58Z" style="fill:#aabfce;opacity:0.3658539950847626;isolation:isolate"/><path d="M684.07,178.34A37.2,37.2,0,0,1,706,174c1.64.19,3.36.59,5.17.9,3.19.57,12.32,4.31,16,6.45l291.11,168.07c6.15,3.55,18.91,14.76,18.91,21.2,0,2.19,2.57,6.06,1.77,8.06,1,5.39-1.94,11.22-8.6,15.07l-514.47,297c-4.54,2.62-16.35,7.17-19.89,7.62-.72.1-1.42.29-2.11.4a35.73,35.73,0,0,1-22.91-4L175.46,524.22c-6.15-3.55-19.3-15-19.3-21.43,0-2.38-2.9-6.65-2-8.8-1-5.18,1.9-10.82,8.38-14.56Z" style="fill:#a4bbcb;opacity:0.3902440071105957;isolation:isolate"/><path d="M684.29,178.8a36.53,36.53,0,0,1,21.84-4.22c1.64.2,3.35.62,5.14.94,3.07.56,12.37,4.45,15.93,6.5l289.85,167.34c5.9,3.41,19.08,14.71,19.08,20.9,0,2.1,2.77,6,2,7.91,1.27,5.33-1.59,11.17-8.25,15L516.15,689.8c-4.36,2.51-16.42,7.27-19.82,7.73-.72.1-1.41.3-2.1.42a35.2,35.2,0,0,1-22.88-3.84L176.77,524c-5.91-3.41-19.51-15-19.51-21.14,0-2.28-3.13-6.58-2.23-8.65-1.21-5.12,1.56-10.78,8.05-14.53Z" style="fill:#9fb7c8;opacity:0.41463398933410645;isolation:isolate"/><path d="M684.46,179.25a36.09,36.09,0,0,1,21.76-4.12c1.64.21,3.34.65,5.11,1,2.93.54,12.41,4.58,15.82,6.55L1015.74,349.3c5.66,3.26,19.26,14.65,19.26,20.58,0,2,3,5.92,2.24,7.77,1.49,5.27-1.25,11.13-7.91,15l-513,296.18c-4.18,2.41-16.49,7.39-19.74,7.85-.72.1-1.4.32-2.09.44a34.71,34.71,0,0,1-22.85-3.72L178.08,523.83c-5.66-3.26-19.7-14.91-19.7-20.84,0-2.18-3.36-6.52-2.5-8.49-1.44-5.07,1.22-10.76,7.71-14.51Z" style="fill:#99b3c5;opacity:0.4390240013599396;isolation:isolate"/><path d="M684.71,179.7a35.65,35.65,0,0,1,21.68-4c1.63.22,3.32.68,5.07,1,2.81.53,12.46,4.72,15.72,6.6l287.34,165.89c5.41,3.13,19.42,14.6,19.42,20.27,0,1.93,3.19,5.86,2.49,7.63,1.71,5.2-.91,11.08-7.57,14.92L516.59,687.77c-4,2.31-16.55,7.5-19.66,8-.71.1-1.39.33-2.08.46a34.25,34.25,0,0,1-22.83-3.6l-292.62-169c-5.41-3.12-19.91-14.87-19.91-20.54,0-2.09-3.59-6.46-2.76-8.35-1.68-5,.87-10.72,7.37-14.48Z" style="fill:#93aec1;opacity:0.4634149968624115;isolation:isolate"/><path d="M684.93,180.15a35.13,35.13,0,0,1,21.59-3.92c1.63.23,3.3.71,5,1,2.67.53,12.51,4.86,15.61,6.66l286.08,165.16c5.17,3,19.6,14.55,19.6,20,0,1.84,3.39,5.8,2.72,7.48,1.94,5.15-.56,11-7.22,14.89L516.82,686.76c-3.81,2.2-16.63,7.61-19.59,8.07-.71.11-1.39.34-2.07.48a33.78,33.78,0,0,1-22.8-3.48L180.71,523.45c-5.16-3-20.1-14.84-20.1-20.25,0-2-3.83-6.39-3-8.19-1.9-5,.54-10.7,7-14.46Z" style="fill:#8eaabe;opacity:0.48780500888824463;isolation:isolate"/><path d="M685.14,180.6c6.86-4,15.3-4.74,21.5-3.82,1.63.24,3.29.74,5,1.09,2.55.51,12.56,5,15.52,6.71L1012,349c4.92,2.84,19.78,14.49,19.78,19.65,0,1.75,3.6,5.73,3,7.33,2.16,5.08-.22,11-6.88,14.84L517,685.75c-3.63,2.09-16.69,7.73-19.51,8.18-.71.11-1.38.36-2.06.5a33.34,33.34,0,0,1-22.78-3.36L182,523.26c-4.92-2.84-20.3-14.8-20.3-20,0-1.9-4.06-6.32-3.31-8-2.13-4.91.19-10.67,6.71-14.43Z" style="fill:#88a6bb;opacity:0.5121949911117554;isolation:isolate"/><path d="M685.36,181.05c6.78-3.92,15.2-4.69,21.41-3.72,1.63.26,3.27.77,5,1.13,2.41.49,12.6,5.14,15.41,6.76l283.54,163.71c4.67,2.7,20,14.44,20,19.34,0,1.66,3.8,5.67,3.19,7.19,2.39,5,.13,11-6.53,14.79L517.27,684.73c-3.45,2-16.76,7.85-19.44,8.29-.7.12-1.37.38-2.06.53A32.87,32.87,0,0,1,473,690.31L183.35,523.06c-4.68-2.7-20.51-14.76-20.51-19.65,0-1.81-4.29-6.26-3.57-7.9-2.36-4.85-.16-10.63,6.37-14.4Z" style="fill:#83a2b8;opacity:0.5365849733352661;isolation:isolate"/><path d="M685.57,181.5c6.71-3.87,15.1-4.64,21.33-3.62,1.62.27,3.25.8,4.94,1.16,2.29.49,12.65,5.28,15.31,6.82l282.3,163c4.43,2.55,20.13,14.38,20.13,19,0,1.58,4,5.6,3.43,7.05,2.61,5,.47,10.9-6.19,14.74L517.46,683.72c-3.26,1.89-16.83,8-19.36,8.4-.7.12-1.37.39-2,.55a32.45,32.45,0,0,1-22.72-3.12L184.66,522.87c-4.43-2.56-20.7-14.72-20.7-19.36,0-1.71-4.52-6.19-3.85-7.74-2.58-4.81-.49-10.61,6-14.38Z" style="fill:#7d9db4;opacity:0.5609760284423828;isolation:isolate"/><path d="M685.79,181.93c6.63-3.83,15-4.58,21.23-3.52,1.62.28,3.24.84,4.92,1.2,2.15.47,12.69,5.42,15.2,6.87l281.05,162.26c4.18,2.41,20.3,14.33,20.3,18.72,0,1.48,4.21,5.53,3.66,6.89,2.84,4.9.82,10.86-5.84,14.71L517.72,682.71c-3.09,1.78-16.9,8.09-19.29,8.51-.7.13-1.36.41-2,.57a32,32,0,0,1-22.69-3L186,522.68c-4.19-2.42-20.91-14.69-20.91-19.07,0-1.61-4.75-6.13-4.11-7.59-2.81-4.75-.84-10.58,5.7-14.35Z" style="fill:#7799b1;opacity:0.5853660106658936;isolation:isolate"/><path d="M686,182.4c6.56-3.78,14.91-4.53,21.15-3.42,1.62.29,3.22.87,4.88,1.24,2,.45,12.74,5.55,15.11,6.92l279.78,161.53c3.94,2.27,20.48,14.29,20.48,18.41,0,1.4,4.41,5.47,3.9,6.75,3.06,4.84,1.15,10.81-5.51,14.66L517.94,681.7c-2.9,1.67-17,8.21-19.21,8.62-.7.13-1.35.42-2,.59A31.71,31.71,0,0,1,474.07,688L187.29,522.48c-3.93-2.27-21.1-14.64-21.1-18.76,0-1.52-5-6.07-4.39-7.44-3-4.7-1.18-10.55,5.37-14.33Z" style="fill:#7295ae;opacity:0.6097559928894043;isolation:isolate"/><path d="M686.22,182.85c6.47-3.74,14.8-4.48,21.06-3.32,1.61.3,3.2.9,4.85,1.27,1.9.44,12.78,5.7,15,7l278.53,160.79c3.69,2.13,20.65,14.23,20.65,18.09,0,1.31,4.61,5.41,4.13,6.61,3.29,4.77,1.5,10.76-5.16,14.61L518.17,680.68c-2.73,1.58-17,8.34-19.14,8.74-.69.13-1.34.43-2,.61a31.32,31.32,0,0,1-22.64-2.75l-285.76-165c-3.69-2.13-21.3-14.6-21.3-18.47,0-1.43-5.22-6-4.66-7.29-3.26-4.64-1.52-10.52,5-14.3Z" style="fill:#6c91ab;opacity:0.634145975112915;isolation:isolate"/><path d="M686.46,183.3c6.4-3.7,14.71-4.42,21-3.22,1.62.31,3.19.93,4.82,1.31s12.83,5.83,14.9,7l277.27,160.08c3.44,2,20.83,14.18,20.83,17.78,0,1.23,4.82,5.35,4.37,6.47,3.51,4.71,1.84,10.72-4.82,14.56L518.39,679.67c-2.54,1.47-17.1,8.46-19.06,8.85-.69.13-1.34.45-2,.63-6.45,1.89-15.74,1.34-22.61-2.63L189.92,522.1c-3.46-2-21.46-14.57-21.46-18.17,0-1.33-5.45-5.93-4.92-7.14-3.49-4.59-1.87-10.49,4.69-14.27Z" style="fill:#668ca7;opacity:0.658536970615387;isolation:isolate"/><path d="M686.65,183.75c6.32-3.65,14.61-4.37,20.88-3.12,1.61.32,3.17,1,4.79,1.35s12.87,6,14.8,7.08l276,159.35c3.2,1.85,21,14.13,21,17.48,0,1.13,5,5.27,4.61,6.32,3.74,4.65,2.19,10.67-4.47,14.51L518.62,678.66c-2.36,1.36-17.17,8.59-19,9-.69.14-1.33.47-2,.66A30.44,30.44,0,0,1,475,685.76L191.24,521.93c-3.2-1.85-21.7-14.53-21.7-17.88,0-1.24-5.69-5.87-5.2-7-3.71-4.54-2.21-10.46,4.36-14.25Z" style="fill:#6188a4;opacity:0.6829270124435425;isolation:isolate"/><path d="M686.86,184.2c6.25-3.61,14.51-4.32,20.8-3,1.61.33,3.15,1,4.75,1.38s12.92,6.11,14.7,7.14l274.75,158.61c2.95,1.7,21.17,14.07,21.17,17.16,0,1.05,5.23,5.21,4.85,6.17,4,4.59,2.53,10.63-4.13,14.48L518.84,677.65c-2.18,1.25-17.23,8.71-18.91,9.06-.69.15-1.32.48-2,.68-6.47,2-15.79,1.51-22.55-2.39L192.56,521.71c-3-1.7-21.91-14.49-21.91-17.58,0-1.14-5.91-5.8-5.46-6.84-3.94-4.48-2.55-10.43,4-14.22Z" style="fill:#5b84a1;opacity:0.7073169946670532;isolation:isolate"/><path d="M687.08,184.65c6.17-3.56,14.41-4.26,20.7-2.92,1.61.34,3.14,1,4.73,1.42,1.38.35,13,6.25,14.59,7.19l273.49,157.9c2.71,1.56,21.35,14,21.35,16.85,0,1,5.44,5.15,5.08,6,4.19,4.53,2.88,10.58-3.78,14.43L519.07,676.63c-2,1.16-17.31,8.85-18.84,9.18-.68.15-1.31.5-2,.71-6.49,2.1-15.82,1.59-22.53-2.28L193.87,521.52c-2.7-1.56-22.1-14.45-22.1-17.29,0-1-6.15-5.74-5.73-6.68-4.17-4.43-2.9-10.41,3.68-14.21Z" style="fill:#55809e;opacity:0.731706976890564;isolation:isolate"/><path d="M687.29,185.1c6.1-3.52,14.32-4.21,20.62-2.82,1.6.35,3.12,1.05,4.69,1.46,1.26.32,13,6.38,14.49,7.24L999.33,348.15c2.46,1.42,21.52,14,21.52,16.54,0,.88,5.64,5.09,5.32,5.89,4.41,4.46,3.22,10.54-3.44,14.38L519.29,675.62c-1.82,1-17.33,9.23-18.76,9.29-.65.27-1.31.51-2,.73-6.51,2.17-15.86,1.68-22.5-2.16L195.19,521.33c-2.46-1.42-22.3-14.42-22.3-17,0-.95-6.38-5.68-6-6.54-4.39-4.38-3.23-10.37,3.35-14.18Z" style="fill:#507b9a;opacity:0.7560979723930359;isolation:isolate"/><path d="M687.46,185.55c6-3.48,14.23-4.16,20.54-2.72,1.6.36,3.1,1.08,4.66,1.49,1.13.3,13.06,6.53,14.39,7.3l271,156.45c2.21,1.27,21.7,13.91,21.7,16.23,0,.79,5.84,5,5.55,5.74,4.64,4.4,3.57,10.49-3.09,14.33L519.51,674.61c-1.63.94-17.4,9.34-18.68,9.4-.64.28-1.3.52-2,.75-6.53,2.24-15.89,1.77-22.47-2L196.46,521.13c-2.21-1.27-22.5-14.37-22.5-16.69,0-.86-6.61-5.61-6.27-6.38-4.62-4.33-3.58-10.35,3-14.16Z" style="fill:#4a7797;opacity:0.7804880142211914;isolation:isolate"/><path d="M687.72,186c6-3.43,14.12-4.1,20.44-2.62,1.6.37,3.08,1.11,4.64,1.53,1,.27,13.1,6.67,14.28,7.35L996.79,348c2,1.14,21.88,13.86,21.88,15.92,0,.7,6,5,5.79,5.59,4.86,4.34,3.91,10.45-2.75,14.3l-502,289.81c-1.45.84-17.47,9.46-18.61,9.51a21.33,21.33,0,0,1-2,.77c-6.54,2.31-15.92,1.85-22.45-1.91l-278.83-161c-2-1.13-22.7-14.34-22.7-16.4,0-.76-6.85-5.54-6.55-6.23-4.84-4.27-3.92-10.31,2.69-14.13Z" style="fill:#447394;opacity:0.8048779964447021;isolation:isolate"/><path d="M687.93,186.45c5.88-3.39,14-4,20.36-2.52,1.6.38,3.06,1.14,4.6,1.57.88.24,13.15,6.8,14.18,7.4l268.46,155c1.72,1,22,13.81,22,15.61,0,.62,6.25,4.89,6,5.45,5.09,4.28,4.26,10.4-2.4,14.25L520,672.58c-1.27.74-17.53,9.58-18.53,9.63a19.38,19.38,0,0,1-2,.79c-6.56,2.38-15.95,1.94-22.42-1.79L199.14,520.75c-1.73-1-22.91-14.3-22.91-16.1,0-.67-7.07-5.48-6.81-6.09-5.07-4.21-4.26-10.28,2.35-14.1Z" style="fill:#3f6f91;opacity:0.8292679786682129;isolation:isolate"/><path d="M688.15,186.93c5.79-3.34,13.93-4,20.27-2.42,1.59.39,3,1.17,4.57,1.61.75.21,13.19,6.94,14.08,7.45L994.26,347.81c1.48.85,22.23,13.75,22.23,15.3,0,.52,6.45,4.82,6.26,5.3,5.31,4.22,4.6,10.35-2.06,14.2l-500.5,289c-1.09.63-17.61,9.7-18.46,9.73-.63.3-1.28.57-1.94.82-6.58,2.45-16,2-22.4-1.67L200.46,520.56c-1.48-.86-23.1-14.26-23.1-15.81,0-.57-7.31-5.42-7.08-5.93-5.3-4.17-4.61-10.26,2-14.08Z" style="fill:#396a8d;opacity:0.8536589741706848;isolation:isolate"/><path d="M688.36,187.35c5.72-3.3,13.84-4,20.18-2.32a23.43,23.43,0,0,1,4.54,1.64c.65.07,13.24,7.08,14,7.51L993,347.72c1.23.71,22.39,13.7,22.39,15,0,.44,6.66,4.76,6.5,5.16,5.54,4.15,5,10.31-1.71,14.15L520.46,670.56c-.9.52-17.67,9.81-18.38,9.84-.63.31-1.28.59-1.94.84-6.59,2.52-16,2.12-22.36-1.55l-276-159.33c-1.23-.71-23.3-14.22-23.3-15.51,0-.47-7.55-5.35-7.36-5.78-5.52-4.11-5-10.22,1.68-14Z" style="fill:#33668a;opacity:0.8780490159988403;isolation:isolate"/><path d="M688.58,187.8c5.64-3.25,13.73-3.91,20.09-2.22a22.66,22.66,0,0,1,4.51,1.68c.51,0,13.28,7.22,13.87,7.56L991.73,347.63c1,.57,22.57,13.65,22.57,14.68,0,.35,6.87,4.7,6.74,5,5.76,4.09,5.28,10.26-1.38,14.1l-499,288.12c-.73.42-17.74,9.93-18.31,10a19.56,19.56,0,0,1-1.93.86c-6.61,2.59-16,2.2-22.34-1.43l-275-158.76c-1-.57-23.5-14.18-23.5-15.21,0-.38-7.77-5.29-7.62-5.63-5.76-4.06-5.29-10.2,1.34-14Z" style="fill:#2e6287;opacity:0.9024389982223511;isolation:isolate"/><path d="M688.79,188.25c5.57-3.21,13.64-3.85,20-2.13a21.66,21.66,0,0,1,4.47,1.73c.39,0,13.33,7.35,13.77,7.61L990.46,347.55c.73.42,22.74,13.59,22.74,14.36,0,.27,7.07,4.63,7,4.87,6,4,5.63,10.22-1,14.07L520.86,668.54c-.54.31-17.8,10-18.23,10.06a19.54,19.54,0,0,1-1.92.88c-6.63,2.66-16.07,2.29-22.31-1.31L204.4,520c-.74-.43-23.7-14.15-23.7-14.92,0-.29-8-5.22-7.9-5.48-6-4-5.63-10.17,1-14Z" style="fill:#285e84;opacity:0.9268289804458618;isolation:isolate"/><path d="M689,188.71c5.49-3.18,13.54-3.81,19.91-2a21.59,21.59,0,0,1,4.45,1.76c.26,0,13.37,7.5,13.67,7.67L989.2,347.5c.49.28,22.92,13.54,22.92,14.06,0,.17,7.27,4.56,7.21,4.72,6.21,4,6,10.17-.69,14L521.09,667.52c-.37.21-17.88,10.17-18.16,10.18-.62.33-1.26.63-1.91.9-6.64,2.73-16.11,2.38-22.29-1.19l-273-157.63c-.49-.28-23.9-14.1-23.9-14.62,0-.19-8.23-5.15-8.16-5.32-6.21-4-6-10.14.67-14Z" style="fill:#225980;opacity:0.9512199759483337;isolation:isolate"/><path d="M689.22,189.16c5.42-3.13,13.44-3.75,19.83-1.94a20.43,20.43,0,0,1,4.41,1.8c.13,0,13.42,7.63,13.57,7.72l260.9,150.63c.25.14,23.1,13.49,23.1,13.75,0,.09,7.48,4.5,7.45,4.58,6.43,3.91,6.31,10.13-.35,14L521.31,666.51c-.18.11-17.94,10.28-18.08,10.29-.61.33-1.24.64-1.9.92-6.66,2.8-16.14,2.47-22.26-1.07l-272-157.06c-.25-.14-24.1-14.07-24.1-14.32s-8.47-5.09-8.43-5.18c-6.44-3.9-6.32-10.11.33-13.95Z" style="fill:#1d557d;opacity:0.9756100177764893;isolation:isolate"/><path d="M1017.62,379.08,503.53,675.93c-6.66,3.84-17.46,3.84-24.12,0L175.34,500.34c-6.66-3.84-6.66-10.08,0-13.92L689.46,189.61c6.66-3.85,17.46-3.85,24.12,0l304.06,175.55C1024.28,369,1024.28,375.24,1017.62,379.08Z" style="fill:#17517a"/></g><g style="opacity:0.46000000834465027"><path d="M207.33,375.51A43.38,43.38,0,0,1,185.65,370l-80-46.21c-9.56-5.52-15.27-14.84-15.27-24.92s5.7-19.4,15.27-24.93l80-46.21a45.57,45.57,0,0,1,43.37,0L309,274c9.56,5.53,15.27,14.84,15.27,24.93s-5.71,19.4-15.27,24.92L229,370A43.41,43.41,0,0,1,207.33,375.51Z" style="fill:#fff;fill-opacity:0"/><path d="M185.91,228.21a42.75,42.75,0,0,1,21.55-5.41,47.72,47.72,0,0,1,6.43.47,42.4,42.4,0,0,1,15.1,5.09l79.61,46a33.52,33.52,0,0,1,7.62,6,26.86,26.86,0,0,1,7.45,18.72c-.11,9.84-6,19.18-15.35,24.57L228.9,369.5a40.72,40.72,0,0,1-11,4.32,46.71,46.71,0,0,1-10.47,1.2,42.72,42.72,0,0,1-21.52-5.42L106.1,323.52a33,33,0,0,1-9.21-7.8,26.46,26.46,0,0,1-5.92-17c.12-9.83,6.06-19.21,15.39-24.59Z" style="fill:#f9fbfc;opacity:0.024390000849962234;isolation:isolate"/><path d="M186.17,228.66a42.29,42.29,0,0,1,21.47-5.32,50.63,50.63,0,0,1,6.39.5A43.23,43.23,0,0,1,229,229l79.19,45.72a34.6,34.6,0,0,1,7.59,5.93,26,26,0,0,1,7.26,18.57c-.21,9.59-6.31,19-15.41,24.22l-78.82,45.52a41.37,41.37,0,0,1-10.93,4.31,46.46,46.46,0,0,1-10.38,1.23,42.29,42.29,0,0,1-21.36-5.34l-79.58-45.95a34.51,34.51,0,0,1-9.22-7.75A25.62,25.62,0,0,1,91.6,298.6c.24-9.59,6.41-19,15.5-24.27Z" style="fill:#f4f7f9;opacity:0.04878000169992447;isolation:isolate"/><path d="M186.46,229.11a41.91,41.91,0,0,1,21.33-5.18,51.8,51.8,0,0,1,6.35.54A44.55,44.55,0,0,1,229,229.62l78.76,45.48a35.38,35.38,0,0,1,7.56,5.88,25.23,25.23,0,0,1,7.11,18.37c-.31,9.34-6.62,18.74-15.49,23.86l-78.19,45.15a42.44,42.44,0,0,1-10.84,4.3,46,46,0,0,1-10.31,1.27,41.79,41.79,0,0,1-21.17-5.27L107.1,322.84a35.49,35.49,0,0,1-9.22-7.69,24.69,24.69,0,0,1-5.62-16.73c.34-9.33,6.75-18.82,15.61-23.94Z" style="fill:#eef2f5;opacity:0.07317099720239639;isolation:isolate"/><path d="M186.7,229.57a41.15,41.15,0,0,1,21.24-5.14,47.73,47.73,0,0,1,6.31.57A45.46,45.46,0,0,1,229,230.18l78.33,45.23a36.41,36.41,0,0,1,7.54,5.82,24.43,24.43,0,0,1,6.89,18.27c-.4,9.09-6.92,18.53-15.55,23.51L228.66,367.8a42.87,42.87,0,0,1-10.74,4.3,46.1,46.1,0,0,1-10.19,1.29,41.2,41.2,0,0,1-21-5.19l-79.17-45.68a36.93,36.93,0,0,1-9.21-7.63,23.87,23.87,0,0,1-5.48-16.62c.45-9.09,7.1-18.63,15.73-23.61Z" style="fill:#e8eef2;opacity:0.09756100177764893;isolation:isolate"/><path d="M187,230a40.66,40.66,0,0,1,21.13-5,47,47,0,0,1,6.27.61A46.43,46.43,0,0,1,229,230.84l77.91,45a37.67,37.67,0,0,1,7.52,5.77,23.68,23.68,0,0,1,6.7,18.12c-.5,8.84-7.23,18.31-15.62,23.15l-77,44.44a44.46,44.46,0,0,1-10.64,4.3,45.84,45.84,0,0,1-10.1,1.31,40.8,40.8,0,0,1-20.87-5.11L108,322.26a38.11,38.11,0,0,1-9.22-7.56,23,23,0,0,1-5.32-16.51c.55-8.84,7.44-18.44,15.84-23.29Z" style="fill:#e3eaef;opacity:0.12195099890232086;isolation:isolate"/><path d="M187.22,230.47a40.17,40.17,0,0,1,21-5,50,50,0,0,1,6.22.64A48.16,48.16,0,0,1,229,231.35l77.48,44.74a38.2,38.2,0,0,1,7.49,5.72,22.92,22.92,0,0,1,6.51,18c-.58,8.59-7.52,18.09-15.69,22.81L228.46,366.7A45.14,45.14,0,0,1,217.92,371a44.4,44.4,0,0,1-10,1.33,40.35,40.35,0,0,1-20.71-5l-78.68-45.43a39.64,39.64,0,0,1-9.22-7.5,22.28,22.28,0,0,1-5.17-16.46c.65-8.58,7.79-18.24,16-23Z" style="fill:#dde6ec;opacity:0.1463409960269928;isolation:isolate"/><path d="M187.46,230.93a39.65,39.65,0,0,1,20.92-4.88,51.22,51.22,0,0,1,6.18.68A49.33,49.33,0,0,1,229,232l77.06,44.49a40.29,40.29,0,0,1,7.46,5.66,22.24,22.24,0,0,1,6.35,17.78c-.67,8.33-7.83,17.87-15.76,22.45L228.39,366.1A45.91,45.91,0,0,1,218,370.39a44.23,44.23,0,0,1-9.92,1.36,39.81,39.81,0,0,1-20.57-4.91L109,321.55a41.09,41.09,0,0,1-9.22-7.44,21.51,21.51,0,0,1-5-16.3c.74-8.33,8.13-18.05,16.06-22.63Z" style="fill:#d7e1e8;opacity:0.17073200643062592;isolation:isolate"/><path d="M187.75,231.38a39.09,39.09,0,0,1,20.8-4.78,48.71,48.71,0,0,1,6.14.71,50.77,50.77,0,0,1,14.36,5.3l76.62,44.24a40.67,40.67,0,0,1,7.44,5.61,21.48,21.48,0,0,1,6.14,17.66c-.74,8.08-8.13,17.65-15.83,22.1l-75.11,43.37A47.27,47.27,0,0,1,218,369.87a44.64,44.64,0,0,1-9.83,1.39,39.29,39.29,0,0,1-20.38-4.87l-78.23-45.17a42.43,42.43,0,0,1-9.23-7.38,20.76,20.76,0,0,1-4.83-16.19c.83-8.07,8.48-17.86,16.18-22.3Z" style="fill:#d2dde5;opacity:0.19512200355529785;isolation:isolate"/><path d="M188,231.84a38.46,38.46,0,0,1,20.69-4.7,49.87,49.87,0,0,1,6.09.74,52,52,0,0,1,14.26,5.34l76.2,44a42.7,42.7,0,0,1,7.41,5.56,20.78,20.78,0,0,1,6,17.5c-.82,7.83-8.43,17.44-15.9,21.75l-74.5,43A48.2,48.2,0,0,1,218,369.31a44.48,44.48,0,0,1-9.74,1.42,38.78,38.78,0,0,1-20.22-4.8l-78-45a43.82,43.82,0,0,1-9.23-7.32,20,20,0,0,1-4.73-16.08c.91-7.82,8.82-17.67,16.29-22Z" style="fill:#ccd9e2;opacity:0.2195120006799698;isolation:isolate"/><path d="M188.27,232.29a38.12,38.12,0,0,1,20.58-4.61,51.33,51.33,0,0,1,6.05.78,53.5,53.5,0,0,1,14.15,5.36l75.78,43.75a43.57,43.57,0,0,1,7.38,5.5A20.17,20.17,0,0,1,318,300.43c-.9,7.57-8.74,17.22-16,21.39L228.1,364.48A49.17,49.17,0,0,1,218,368.75a44.31,44.31,0,0,1-9.65,1.45,38.36,38.36,0,0,1-20.06-4.72l-77.78-44.9a45.33,45.33,0,0,1-9.23-7.26,19.36,19.36,0,0,1-4.59-16c1-7.56,9.18-17.48,16.41-21.65Z" style="fill:#c6d5df;opacity:0.24390199780464172;isolation:isolate"/><path d="M188.53,232.74A37.55,37.55,0,0,1,209,228.22a50.59,50.59,0,0,1,6,.82,55.71,55.71,0,0,1,14.05,5.39l75.34,43.5a46.18,46.18,0,0,1,7.37,5.45c5,5,6.4,11,5.58,17.2-1,7.32-9,17-16,21L228,363.93a51.67,51.67,0,0,1-10,4.26,43.55,43.55,0,0,1-9.56,1.48,37.94,37.94,0,0,1-19.9-4.64L111,320.26a48.82,48.82,0,0,1-9.24-7.2c-4.22-4.77-5.25-10.21-4.43-15.87,1-7.3,9.52-17.28,16.51-21.32Z" style="fill:#c1d0db;opacity:0.26829299330711365;isolation:isolate"/><path d="M188.79,233.2a37,37,0,0,1,20.37-4.43,48.4,48.4,0,0,1,6,.85c3.88.7,10.76,3.58,13.94,5.42L304,278.29a47.82,47.82,0,0,1,7.34,5.4c5,4.95,6.29,10.88,5.4,17.05-1,7.05-9.35,16.78-16.11,20.68L228,363.37a52,52,0,0,1-10,4.26,42.79,42.79,0,0,1-9.47,1.5,37.33,37.33,0,0,1-19.74-4.56l-77.37-44.64a50.22,50.22,0,0,1-9.23-7.13C98,308,97,302.66,97.94,297c1.12-7.05,9.87-17.09,16.63-21Z" style="fill:#bbccd8;opacity:0.2926830053329468;isolation:isolate"/><path d="M189.06,233.65a36.5,36.5,0,0,1,20.25-4.34,51.21,51.21,0,0,1,5.92.88c3.74.7,10.76,3.68,13.84,5.46l74.49,43a49.58,49.58,0,0,1,7.31,5.34c5,4.93,6.18,10.79,5.21,16.9-1.08,6.8-9.64,16.57-16.17,20.34l-72.05,41.59a53.35,53.35,0,0,1-9.85,4.25,42.62,42.62,0,0,1-9.38,1.53,36.78,36.78,0,0,1-19.57-4.48L112,319.61a52.85,52.85,0,0,1-9.23-7.08c-4.29-4.75-5.12-10-4.15-15.65,1.18-6.78,10.22-16.89,16.75-20.66Z" style="fill:#b5c8d5;opacity:0.3170729875564575;isolation:isolate"/><path d="M189.32,234.1a35.91,35.91,0,0,1,20.14-4.25,48.57,48.57,0,0,1,5.88.92c3.61.69,10.76,3.77,13.73,5.48L303.13,279a51.9,51.9,0,0,1,7.29,5.29c5,4.9,6.07,10.68,5,16.74-1.13,6.55-9.95,16.35-16.25,20l-71.43,41.24a54.38,54.38,0,0,1-9.75,4.24,41.78,41.78,0,0,1-9.29,1.56,36.36,36.36,0,0,1-19.41-4.4l-76.83-44.39a54.78,54.78,0,0,1-9.24-7c-4.31-4.74-6-10.26-4-15.54,0-6.64,10.56-16.7,16.86-20.34Z" style="fill:#b0c4d2;opacity:0.34146299958229065;isolation:isolate"/><path d="M189.58,234.56a35.49,35.49,0,0,1,20-4.17,50,50,0,0,1,5.83,1c3.47.68,10.77,3.86,13.62,5.51l73.64,42.52a53.17,53.17,0,0,1,7.26,5.22c5.06,4.89,7.05,10.88,4.84,16.6,0,6.39-10.25,16.13-16.31,19.63l-70.82,40.88A56.76,56.76,0,0,1,218,366a42.21,42.21,0,0,1-9.2,1.59,35.86,35.86,0,0,1-19.25-4.33l-76.6-44.32A57.42,57.42,0,0,1,103.7,312c-4.35-4.73-6.06-10.22-3.85-15.43,0-6.4,10.91-16.52,17-20Z" style="fill:#aabfce;opacity:0.3658539950847626;isolation:isolate"/><path d="M189.84,235a34.89,34.89,0,0,1,19.93-4.08,47.34,47.34,0,0,1,5.79,1c3.33.66,10.77,3.95,13.52,5.54l73.21,42.27a56.58,56.58,0,0,1,7.23,5.17c5.07,4.86,7,10.81,4.66,16.44,0,6.15-10.55,15.91-16.39,19.28L227.6,361.16a58.27,58.27,0,0,1-9.56,4.23,41.55,41.55,0,0,1-9.12,1.62,35.41,35.41,0,0,1-19.08-4.25l-76.38-44.12a59.66,59.66,0,0,1-9.24-6.89c-4.38-4.72-6.06-10.18-3.7-15.33,0-6.15,11.25-16.32,17.08-19.68Z" style="fill:#a4bbcb;opacity:0.3902440071105957;isolation:isolate"/><path d="M190.1,235.47a34.41,34.41,0,0,1,19.82-4,48.52,48.52,0,0,1,5.74,1c3.2.66,10.78,4.05,13.42,5.58l72.79,42a57.73,57.73,0,0,1,7.21,5.12c5.08,4.83,7,10.74,4.46,16.29,0,5.9-10.85,15.69-16.45,18.92l-69.58,40.17a59.36,59.36,0,0,1-9.46,4.23,41.13,41.13,0,0,1-9,1.65,35,35,0,0,1-18.92-4.18l-76.18-44a63.63,63.63,0,0,1-9.25-6.83c-4.41-4.71-6-10.14-3.55-15.22,0-5.91,11.6-16.13,17.2-19.36Z" style="fill:#9fb7c8;opacity:0.41463398933410645;isolation:isolate"/><path d="M190.37,235.93a34,34,0,0,1,19.7-3.9,52.45,52.45,0,0,1,5.7,1.06c3.07.64,10.79,4.14,13.32,5.6l72.37,41.77a63.23,63.23,0,0,1,7.19,5.06c5.09,4.82,6.93,10.68,4.28,16.14,0,5.66-11.16,15.48-16.52,18.57l-69,39.82a64,64,0,0,1-9.36,4.23,41.21,41.21,0,0,1-8.94,1.66,34.28,34.28,0,0,1-18.75-4.09l-76-43.85a66.75,66.75,0,0,1-9.25-6.78c-4.45-4.69-6.06-10.09-3.4-15.11,0-5.65,11.94-15.93,17.31-19Z" style="fill:#99b3c5;opacity:0.4390240013599396;isolation:isolate"/><path d="M190.63,236.37a33.49,33.49,0,0,1,19.59-3.81,51.42,51.42,0,0,1,5.66,1.1c2.93.62,10.79,4.23,13.21,5.63L301,280.82a63.28,63.28,0,0,1,7.16,5c5.11,4.79,6.9,10.61,4.09,16,0,5.41-11.46,15.26-16.59,18.22l-68.35,39.47a67.15,67.15,0,0,1-9.26,4.22,40.47,40.47,0,0,1-8.85,1.69,34.06,34.06,0,0,1-18.59-4L114.9,317.69a70.77,70.77,0,0,1-9.25-6.71c-4.48-4.69-6.06-10-3.26-15,0-5.41,12.3-15.74,17.43-18.7Z" style="fill:#93aec1;opacity:0.4634149968624115;isolation:isolate"/><path d="M190.89,236.83a33.06,33.06,0,0,1,19.49-3.73,51.11,51.11,0,0,1,5.61,1.13c2.79.62,10.8,4.34,13.1,5.67l71.51,41.28a66.57,66.57,0,0,1,7.13,5c5.12,4.76,6.86,10.54,3.91,15.83,0,5.16-11.76,15-16.66,17.86l-67.74,39.06a69,69,0,0,1-9.16,4.22,40.92,40.92,0,0,1-8.76,1.72,33.48,33.48,0,0,1-18.43-3.94l-75.5-43.59a74.79,74.79,0,0,1-9.26-6.65c-4.51-4.68-6-10-3.1-14.9,0-5.16,12.64-15.54,17.54-18.37Z" style="fill:#8eaabe;opacity:0.48780500888824463;isolation:isolate"/><path d="M191.15,237.28a32.53,32.53,0,0,1,19.38-3.63,50,50,0,0,1,5.57,1.16c2.65.6,10.8,4.43,13,5.69l71.07,41a70.62,70.62,0,0,1,7.11,4.9c5.14,4.75,6.82,10.48,3.73,15.68,0,4.92-12.07,14.82-16.74,17.52l-67.12,38.75a73.71,73.71,0,0,1-9.06,4.21,40.05,40.05,0,0,1-8.67,1.75,33,33,0,0,1-18.27-3.86L115.87,317a81.21,81.21,0,0,1-9.25-6.59c-4.55-4.67-6-10-3-14.79,0-4.92,13-15.35,17.65-18Z" style="fill:#88a6bb;opacity:0.5121949911117554;isolation:isolate"/><path d="M191.46,237.74c5.38-3.11,12.54-4.34,19.27-3.55a52.38,52.38,0,0,1,5.53,1.2c2.52.58,10.8,4.52,12.89,5.72l70.6,40.82a74.43,74.43,0,0,1,7.08,4.85c5.15,4.72,6.78,10.41,3.54,15.53,0,4.67-12.37,14.6-16.8,17.16l-66.51,38.4a75,75,0,0,1-9,4.2,39.23,39.23,0,0,1-8.57,1.78,32.59,32.59,0,0,1-18-3.81l-75-43.34a86.09,86.09,0,0,1-9.25-6.52c-4.58-4.67-6.06-9.93-2.81-14.68,0-4.68,13.33-15.17,17.76-17.72Z" style="fill:#83a2b8;opacity:0.5365849733352661;isolation:isolate"/><path d="M191.68,238.19c5.34-3.08,12.48-4.28,19.15-3.46a49.46,49.46,0,0,1,5.49,1.24c2.38.55,10.81,4.61,12.78,5.75l70.23,40.54a80.31,80.31,0,0,1,7.06,4.79c5.16,4.71,6.74,10.35,3.35,15.38,0,4.43-12.67,14.39-16.87,16.81l-65.9,38a77.22,77.22,0,0,1-8.87,4.2,39.68,39.68,0,0,1-8.48,1.81,32,32,0,0,1-17.94-3.71l-74.83-43.2a91.25,91.25,0,0,1-9.26-6.46c-4.61-4.66-6-9.89-2.66-14.58,0-4.42,13.68-15,17.88-17.39Z" style="fill:#7d9db4;opacity:0.5609760284423828;isolation:isolate"/><path d="M191.94,238.64c5.3-3.06,12.43-4.23,19-3.37a50.68,50.68,0,0,1,5.45,1.27c2.24.54,10.81,4.71,12.68,5.79l69.79,40.29a82.65,82.65,0,0,1,7,4.74c5.17,4.68,6.7,10.28,3.16,15.22,0,4.18-13,14.17-16.94,16.46l-65.19,37.69a81.15,81.15,0,0,1-8.78,4.19,38.79,38.79,0,0,1-8.39,1.83,31.58,31.58,0,0,1-17.78-3.62l-74.6-43.07a98.39,98.39,0,0,1-9.26-6.41c-4.65-4.65-6-9.84-2.52-14.46,0-4.18,14-14.78,18-17.07Z" style="fill:#7799b1;opacity:0.5853660106658936;isolation:isolate"/><path d="M192.2,239.1a31,31,0,0,1,18.94-3.28,52.21,52.21,0,0,1,5.39,1.3c2.12.52,10.82,4.8,12.58,5.81L298.46,283c1.14.66,6.09,3.86,7,4.69,5.19,4.66,6.66,10.21,3,15.07,0,3.93-13.28,13.95-17,16.1L226.8,356.17a84.5,84.5,0,0,1-8.68,4.19,38.06,38.06,0,0,1-8.3,1.86,31.09,31.09,0,0,1-17.62-3.55l-74.37-42.93a104.55,104.55,0,0,1-9.26-6.35c-4.69-4.64-6.06-9.8-2.37-14.36,0-3.93,14.37-14.58,18.1-16.73Z" style="fill:#7295ae;opacity:0.6097559928894043;isolation:isolate"/><path d="M192.46,239.55c5.23-3,12.32-4.12,18.83-3.19a51.65,51.65,0,0,1,5.35,1.34c2,.49,10.83,4.89,12.48,5.84l68.94,39.8c1.07.62,6.12,3.86,7,4.63,5.21,4.64,6.63,10.15,2.79,14.92,0,3.69-13.58,13.73-17.08,15.75l-64,37c-1.24.71-7.15,3.73-8.58,4.18a37.34,37.34,0,0,1-8.21,1.89,30.55,30.55,0,0,1-17.52-3.49l-74.14-42.81a111.68,111.68,0,0,1-9.27-6.28c-4.72-4.63-6-9.77-2.22-14.25,0-3.69,14.72-14.39,18.22-16.41Z" style="fill:#6c91ab;opacity:0.634145975112915;isolation:isolate"/><path d="M192.72,240c5.19-3,12.27-4.06,18.72-3.1a51.72,51.72,0,0,1,5.31,1.37c1.85.48,10.83,5,12.37,5.88l68.51,39.55c1,.58,6.15,3.87,7,4.58,5.22,4.62,6.59,10.08,2.61,14.77,0,3.44-13.88,13.51-17.15,15.39l-63.43,36.63c-1.15.66-7.14,3.75-8.48,4.17a37.2,37.2,0,0,1-8.12,1.92,30.28,30.28,0,0,1-17.3-3.39l-73.91-42.68c-1.26-.72-8.31-5.29-9.27-6.22-4.76-4.63-6-9.73-2.07-14.14,0-3.45,15.06-14.2,18.33-16.09Z" style="fill:#668ca7;opacity:0.658536970615387;isolation:isolate"/><path d="M193,240.46c5.14-3,12.21-4,18.6-3,1.87.3,3.58,1,5.27,1.41s10.84,5.08,12.26,5.91l68.09,39.31c.93.53,6.18,3.86,6.93,4.52,5.24,4.59,6.55,10,2.42,14.61,0,3.2-14.18,13.3-17.21,15l-62.82,36.26c-1.07.62-7.14,3.77-8.38,4.17a37.39,37.39,0,0,1-8,1.95c-6.06.55-12.38-.57-17.13-3.32l-73.69-42.54c-1.17-.67-8.38-5.3-9.27-6.16-4.8-4.62-6-9.69-1.93-14,0-3.2,15.42-14,18.45-15.75Z" style="fill:#6188a4;opacity:0.6829270124435425;isolation:isolate"/><path d="M193.25,240.93c5.11-3,12.16-4,18.49-2.92a52.54,52.54,0,0,1,5.23,1.44c1.58.42,10.84,5.17,12.16,5.93l67.66,39.07c.86.49,6.21,3.86,6.91,4.46,5.25,4.58,6.5,10,2.23,14.46,0,3-14.49,13.08-17.29,14.7l-62.18,35.86c-1,.57-7.14,3.79-8.28,4.16a36.82,36.82,0,0,1-7.94,2,29.48,29.48,0,0,1-17-3.24l-73.47-42.41c-1.07-.63-8.44-5.31-9.27-6.11-4.83-4.61-6-9.64-1.77-13.92,0-3,15.76-13.82,18.56-15.43Z" style="fill:#5b84a1;opacity:0.7073169946670532;isolation:isolate"/><path d="M193.51,241.37c5.07-2.93,12.1-3.91,18.39-2.84a51.82,51.82,0,0,1,5.18,1.48c1.44.39,10.84,5.26,12,6l67.24,38.82c.78.45,6.24,3.85,6.88,4.41,5.27,4.56,6.47,9.88,2,14.31,0,2.7-14.79,12.86-17.36,14.34L226.3,353.45c-.9.52-7.14,3.81-8.18,4.16a36,36,0,0,1-7.85,2c-5.93.6-12.16-.47-16.81-3.15l-73.24-42.29c-1-.57-8.51-5.31-9.27-6-4.86-4.61-6-9.6-1.63-13.82,0-2.7,16.11-13.62,18.67-15.1Z" style="fill:#55809e;opacity:0.731706976890564;isolation:isolate"/><path d="M193.77,241.82c5-2.91,12-3.85,18.28-2.75,1.83.33,3.49,1.05,5.14,1.51,1.31.37,10.85,5.36,11.95,6l66.8,38.57c.72.41,6.27,3.85,6.86,4.36,5.28,4.53,6.43,9.81,1.86,14.15,0,2.46-15.09,12.64-17.42,14l-61,35.2c-.82.48-7.13,3.84-8.08,4.16a36.58,36.58,0,0,1-7.76,2,28.44,28.44,0,0,1-16.65-3.08l-73-42.15c-.89-.52-8.58-5.33-9.28-6-4.9-4.6-6-9.56-1.47-13.71,0-2.46,16.45-13.43,18.78-14.77Z" style="fill:#507b9a;opacity:0.7560979723930359;isolation:isolate"/><path d="M194,242.27c5-2.88,12-3.79,18.17-2.66,1.82.34,3.46,1.09,5.1,1.55,1.17.34,10.85,5.45,11.84,6l66.38,38.33c.64.37,6.3,3.85,6.83,4.3,5.3,4.52,6.39,9.75,1.68,14,0,2.21-15.4,12.42-17.5,13.63l-60.35,34.85c-.75.43-7.14,3.85-8,4.15a36.35,36.35,0,0,1-7.67,2.05c-5.79.64-11.94-.38-16.49-3l-72.78-42c-.81-.47-8.65-5.34-9.28-5.92C107,303,106,298,110.63,294c0-2.22,16.8-13.24,18.9-14.45Z" style="fill:#4a7797;opacity:0.7804880142211914;isolation:isolate"/><path d="M194.3,242.73c5-2.86,11.94-3.73,18-2.57,1.81.35,3.43,1.11,5.05,1.58,1,.3,10.86,5.54,11.74,6l66,38.08c.57.33,6.33,3.85,6.8,4.25,5.32,4.5,6.36,9.68,1.49,13.85,0,2-15.7,12.21-17.56,13.28l-59.74,34.49c-.66.38-7.14,3.88-7.89,4.15a35.47,35.47,0,0,1-7.58,2.08c-5.73.65-11.83-.33-16.32-2.93l-72.56-41.89c-.72-.41-8.72-5.33-9.28-5.85-5-4.6-6-9.48-1.19-13.5,0-2,17.15-13,19-14.12Z" style="fill:#447394;opacity:0.8048779964447021;isolation:isolate"/><path d="M194.56,243.18c4.91-2.84,11.88-3.68,17.95-2.48,1.79.36,3.39,1.14,5,1.62.92.27,10.87,5.63,11.64,6.08l65.52,37.83c.5.29,6.37,3.85,6.78,4.19,5.34,4.48,6.32,9.62,1.31,13.7,0,1.73-16,12-17.64,12.93L226,351.19c-.58.33-7.13,3.91-7.79,4.14a34.77,34.77,0,0,1-7.49,2.11c-5.66.67-11.73-.29-16.16-2.85l-72.33-41.76c-.63-.36-8.79-5.34-9.29-5.79-5-4.59-6-9.44-1-13.39,0-1.72,17.49-12.85,19.12-13.8Z" style="fill:#3f6f91;opacity:0.8292679786682129;isolation:isolate"/><path d="M194.82,243.63c4.88-2.81,11.83-3.62,17.84-2.39,1.78.37,3.36,1.17,5,1.65.78.24,10.87,5.74,11.53,6.12l65.1,37.58c.43.25,6.4,3.84,6.76,4.14,5.35,4.46,6.27,9.55,1.11,13.55,0,1.47-16.3,11.77-17.7,12.58L226,350.64c-.49.28-7.13,3.93-7.69,4.13a35.31,35.31,0,0,1-7.41,2.14c-5.58.69-11.61-.24-16-2.77l-72.1-41.63c-.54-.31-8.86-5.35-9.29-5.74-5-4.58-6-9.39-.89-13.28,0-1.47,17.84-12.65,19.24-13.46Z" style="fill:#396a8d;opacity:0.8536589741706848;isolation:isolate"/><path d="M195.08,244.09c4.84-2.8,11.78-3.57,17.73-2.31,1.77.38,3.33,1.2,4.92,1.69.65.2,10.88,5.83,11.43,6.14l64.67,37.32c.35.21,6.43,3.84,6.73,4.09,5.37,4.44,6.23,9.48.93,13.39,0,1.23-16.61,11.55-17.77,12.23l-57.9,33.42c-.41.24-7.12,4-7.59,4.13a34,34,0,0,1-7.32,2.16c-5.52.72-11.5-.19-15.83-2.69l-71.87-41.49c-.45-.26-8.94-5.36-9.29-5.68-5.09-4.58-6-9.35-.74-13.17,0-1.23,18.18-12.47,19.35-13.14Z" style="fill:#33668a;opacity:0.8780490159988403;isolation:isolate"/><path d="M195.34,244.54c4.8-2.77,11.73-3.51,17.62-2.21,1.76.39,3.3,1.22,4.88,1.72.52.16,10.88,5.92,11.32,6.17l64.24,37.09c.29.17,6.47,3.84,6.71,4,5.39,4.42,6.2,9.41.74,13.25,0,1-16.91,11.33-17.84,11.87l-57.28,33.1c-.33.19-7.12,4-7.49,4.12a33.15,33.15,0,0,1-7.23,2.19c-5.45.74-11.39-.14-15.67-2.61l-71.65-41.37c-.35-.2-9-5.36-9.29-5.61-5.12-4.57-6-9.31-.59-13.07,0-1,18.54-12.27,19.47-12.81Z" style="fill:#2e6287;opacity:0.9024389982223511;isolation:isolate"/><path d="M195.61,245c4.76-2.75,11.67-3.47,17.5-2.13a19.88,19.88,0,0,1,4.84,1.75c.4.06,10.88,6,11.21,6.21L293,287.67c.22.13,6.5,3.83,6.68,4,5.4,4.4,6.16,9.34.56,13.09,0,.74-17.21,11.12-17.91,11.52l-56.67,32.65c-.24.15-7.11,4-7.39,4.12a33,33,0,0,1-7.14,2.22c-5.38.76-11.28-.09-15.5-2.53L124.18,311.5c-.27-.16-9.11-5.33-9.29-5.55-5.89-3.6-6-9.27-.44-13,0-.74,18.88-12.08,19.58-12.48Z" style="fill:#285e84;opacity:0.9268289804458618;isolation:isolate"/><path d="M195.87,245.45c4.72-2.73,11.61-3.41,17.4-2a19.48,19.48,0,0,1,4.79,1.79c.27,0,10.89,6.11,11.11,6.24L292.56,288c.14.09,6.53,3.83,6.65,3.93,5.42,4.38,6.12,9.27.37,12.93,0,.5-17.51,10.9-18,11.17l-56,32.36-7.29,4.11a33.47,33.47,0,0,1-7.05,2.25c-5.31.77-11.17,0-15.34-2.46l-71.2-41.1c-.18-.11-9.17-5.34-9.29-5.49-5.94-3.56-6-9.23-.3-12.85,0-.5,19.23-11.89,19.69-12.16Z" style="fill:#225980;opacity:0.9512199759483337;isolation:isolate"/><path d="M196.13,245.93c4.68-2.7,11.56-3.35,17.29-2a19.15,19.15,0,0,1,4.75,1.83c.13,0,10.89,6.2,11,6.26l63,36.36c.07,0,6.56,3.81,6.62,3.86,5.44,4.37,6.09,9.21.19,12.79,0,.24-17.82,10.68-18.05,10.81l-55.43,32c-.09,0-7.11,4.07-7.2,4.1a32.56,32.56,0,0,1-7,2.28c-5.25.79-11.06,0-15.18-2.38l-71-41c-.09,0-9.24-5.35-9.3-5.43-6-3.52-6-9.18-.14-12.74,0-.24,19.57-11.69,19.8-11.83Z" style="fill:#1d557d;opacity:0.9756100177764893;isolation:isolate"/><path d="M298.32,305.2l-80,46.21c-6,3.49-15.84,3.49-21.88,0l-80-46.21c-6-3.49-6-9.14,0-12.63l80-46.21c6-3.49,15.84-3.49,21.88,0l80,46.21C304.36,296.06,304.36,301.71,298.32,305.2Z" style="fill:#17517a"/></g><path d="M371.14,148.11c0-5.57-4.52-12.68-10.08-15.9L233.91,58.8c-5.57-3.21-10.08-1.31-10.08,4.26V78.27l147.31,85Z" style="fill:#ffd131"/><path d="M223.83,78.27v75.36c0,5.57,4.51,12.68,10.08,15.9l127.15,73.4c5.56,3.21,10.08,1.31,10.08-4.26V163.31Z" style="fill:#5ecff5"/><path d="M240.67,75.35c0,2.18-1.76,2.92-3.94,1.67a8.2,8.2,0,0,1-3.95-6.23c0-2.18,1.77-2.92,3.95-1.66A8.16,8.16,0,0,1,240.67,75.35Z" style="fill:#fff"/><path d="M251.93,81.85c0,2.18-1.77,2.92-3.94,1.67a8.2,8.2,0,0,1-4-6.23c0-2.18,1.77-2.92,4-1.66A8.18,8.18,0,0,1,251.93,81.85Z" style="fill:#fff"/><path d="M263.19,88.35c0,2.18-1.77,2.92-4,1.67a8.22,8.22,0,0,1-3.94-6.23c0-2.18,1.77-2.92,3.94-1.66A8.16,8.16,0,0,1,263.19,88.35Z" style="fill:#fff"/><path d="M339.89,158.72l-20.43-11.79c-6.31-3.64-11.48-1.46-11.48,4.86v20.4c0,6.32,5.17,14.47,11.48,18.12l5.6,3.23v48.85c0,2.49,2,5.69,4.52,7.12l.17.1h0l8.25,4.76c1.46.84,2.65.34,2.65-1.12V252a5.49,5.49,0,0,0-2.65-4.18c1.46.84,2.65.34,2.65-1.12v-1.3a5.49,5.49,0,0,0-2.65-4.18c1.46.84,2.65.34,2.65-1.12v-1.23a5.49,5.49,0,0,0-2.65-4.18l-3.81-2.2V198.87l5.59,3.23c6.32,3.65,11.49,1.46,11.49-4.86v-20.4C351.38,170.53,346.21,162.37,339.89,158.72Zm-10.2,10.73c-2.41-1.39-4.36-4.48-4.36-6.89s1.95-3.24,4.36-1.85,4.37,4.48,4.37,6.89-1.95,3.24-4.37,1.85Z" style="fill:#061e43"/><path d="M968.74,327.63,973,339.85,713.56,190.08c-6.66-3.84-17.46-3.84-24.12,0l-462.38,267-26-28.45-30.6,1.5v62.8h0c-.49,2.83,1.14,5.77,4.9,7.94l304.1,175.5c6.66,3.85,17.46,3.85,24.12,0l514.09-296.81c3.16-1.83,4.81-4.19,5-6.58h0V307.39Z" style="fill:#519399"/><path d="M1017.62,314.35,503.53,611.17c-6.66,3.84-17.46,3.84-24.12,0L175.34,435.62c-6.66-3.85-6.66-10.09,0-13.93L689.46,124.93c6.66-3.85,17.46-3.85,24.12,0l304,175.5C1024.28,304.27,1024.28,310.51,1017.62,314.35Z" style="fill:#e1f9ff"/><path d="M243.09,514.67c1.12-.62,2.42-1.39,3.93-2.38h0c-.6.33-1.22.63-1.85.9A19.09,19.09,0,0,1,243.09,514.67Z" style="fill:#fd4a71"/><path d="M243.09,514.67a32.72,32.72,0,0,1-3.52,1.72A19.78,19.78,0,0,0,243.09,514.67Z" style="fill:#fff"/><path d="M592.23,600.24V586.38c0-6.3,5.11-14.36,11.41-18L638.86,548c6.31-3.64,11.42-1.48,11.42,4.83v13.85c0,6.31-5.11,14.37-11.42,18l-35.22,20.33C597.34,608.7,592.23,606.54,592.23,600.24Z" style="fill:#fff"/><path d="M639.29,580.73l-36.07,20.83c-4,2.31-7.24.94-7.24-3.06V583.79c0-4,3.24-9.11,7.24-11.41l36.07-20.83c4-2.31,7.24-.94,7.24,3.06v14.71C646.53,573.31,643.29,578.42,639.29,580.73Z" style="fill:#061e43"/><path d="M689.06,543.83V530c0-6.31,5.11-14.37,11.42-18l35.22-20.33c6.3-3.64,11.41-1.48,11.41,4.82v13.86c0,6.3-5.11,14.36-11.41,18l-35.24,20.33C694.17,552.3,689.06,550.14,689.06,543.83Z" style="fill:#fff"/><path d="M736.13,524.33l-36.08,20.82c-4,2.31-7.24.94-7.24-3V527.38c0-4,3.24-9.1,7.24-11.41l36.08-20.83c4-2.31,7.23-.94,7.23,3.06v14.73C743.36,516.93,740.12,522,736.13,524.33Z" style="fill:#061e43"/><path d="M882.73,431V417.16c0-6.3,5.11-14.36,11.42-18l35.22-20.34c6.3-3.63,11.41-1.48,11.41,4.83v13.86c0,6.3-5.11,14.36-11.41,18l-35.22,20.34C887.84,439.49,882.73,437.33,882.73,431Z" style="fill:#fff"/><path d="M929.8,411.51l-36.08,20.83c-4,2.31-7.24.94-7.24-3.06V414.57c0-4,3.24-9.11,7.24-11.41l36.08-20.83c4-2.31,7.23-.94,7.23,3.06V400.1C937,404.1,933.79,409.21,929.8,411.51Z" style="fill:#061e43"/><path d="M256.3,524.06V510.2c0-8.37-3.75-13.83-11.42-18l-35.22-20.34c-6.3-3.64-11.41-1.48-11.41,4.83v13.86c0,7.81,4.12,14.09,11.41,18l35.22,20.38C251.19,532.52,256.3,530.36,256.3,524.06Z" style="fill:#fff"/><path d="M209.24,504.55l36.07,20.83c4,2.31,7.24.94,7.24-3.06V507.61c0-4-3.24-9.11-7.24-11.41l-36.07-20.83c-4-2.31-7.24-.94-7.24,3.06v14.71C202,497.13,205.24,502.25,209.24,504.55Z" style="fill:#061e43"/><path d="M350.07,576.82V562.93c0-8.37-3.75-13.83-11.41-18l-35.2-20.31c-6.3-3.64-11.41-1.48-11.41,4.83v13.86c0,7.81,4.12,14.09,11.41,18l35.23,20.34C345,585.29,350.07,583.13,350.07,576.82Z" style="fill:#fff"/><path d="M303,557.31l36.07,20.83c4,2.31,7.24.94,7.24-3.06V560.37c0-4-3.24-9.11-7.24-11.41L303,528.13c-4-2.31-7.24-.94-7.24,3.06v14.74C295.77,549.93,299,555,303,557.31Z" style="fill:#061e43"/><path d="M443.84,629.58V615.72c0-8.36-3.75-13.83-11.41-18l-35.22-20.33c-6.31-3.64-11.42-1.48-11.42,4.82v13.86c0,7.81,4.12,14.09,11.42,18l35.25,20.34C438.73,638.05,443.84,635.93,443.84,629.58Z" style="fill:#fff"/><path d="M396.78,610.07l36.08,20.86c4,2.31,7.23.94,7.23-3.06V613.13c0-4-3.24-9.1-7.23-11.41l-36.08-20.79c-4-2.31-7.24-.94-7.24,3.06V598.7C389.54,602.66,392.78,607.77,396.78,610.07Z" style="fill:#061e43"/><path d="M1003.1,294.93V278.45h-7.76l-15.26,8.86-43-24.81c-4.71-2.72-12.36-2.72-17.07,0l-37,21.43,1.38-3.84-30.27-2.2v17.55c0,1.79,1.18,3.57,3.54,4.93l62.46,36.06c4.71,2.73,12.36,2.73,17.07,0l62.46-36.06c2.58-1.49,3.74-3.48,3.5-5.42Z" style="fill:#061e43"/><path d="M999.6,282.78l-62.46,36.06c-4.71,2.72-12.36,2.72-17.07,0l-62.46-36.06c-4.72-2.73-4.72-7.14,0-9.86l62.46-36.06c4.71-2.73,12.36-2.73,17.07,0l62.46,36.07C1004.32,275.64,1004.32,280.05,999.6,282.78Z" style="fill:#4a878c"/><path d="M984.27,275.25V262.93h-5.81l-11.41,6.62L934.94,251a14.13,14.13,0,0,0-12.76,0l-27.72,16,1-2.87-22.61-1.65v13.12c0,1.34.88,2.67,2.64,3.69l46.66,26.94a14.13,14.13,0,0,0,12.76,0l46.67-26.94c1.93-1.12,2.79-2.6,2.61-4.06Z" style="fill:#061e43"/><path d="M981.65,266.19,935,293.13a14.13,14.13,0,0,1-12.76,0l-46.66-26.94c-3.52-2-3.52-5.33,0-7.37l46.66-26.89a14.07,14.07,0,0,1,12.76,0l46.67,26.94C985.17,260.86,985.17,264.15,981.65,266.19Z" style="fill:#b5e3df"/><path d="M302.8,298.18l.05-21.13h-9.94l-19.56,11.36-55.08-31.8c-6-3.49-15.84-3.49-21.88,0l-47.55,27.46,1.77-4.92-38.79-2.83v22.5c0,2.28,1.51,4.57,4.53,6.31l80,46.21c6,3.49,15.84,3.49,21.88,0l80-46.21c3.3-1.9,4.78-4.46,4.48-6.95Z" style="fill:#061e43"/><path d="M298.32,282.63l-80,46.21c-6,3.49-15.84,3.49-21.88,0l-80-46.21c-6-3.49-6-9.14,0-12.63l80-46.21c6-3.49,15.84-3.49,21.88,0l80,46.21C304.36,273.49,304.36,279.14,298.32,282.63Z" style="fill:#4a878c"/><g style="opacity:0.46000000834465027"><path d="M862,660.68a43,43,0,0,1-21.53-5.46L761,609.33c-9.49-5.48-15.16-14.73-15.16-24.74s5.67-19.26,15.16-24.75l79.48-45.91a45.18,45.18,0,0,1,43.06,0l79.48,45.88c9.5,5.49,15.17,14.74,15.16,24.75s-5.67,19.26-15.16,24.75l-79.48,45.88A43,43,0,0,1,862,660.68Z" style="fill:#fff;fill-opacity:0"/><path d="M840.77,514.41A42.44,42.44,0,0,1,862.19,509a47.27,47.27,0,0,1,6.4.46,42.11,42.11,0,0,1,15,5.06l79.06,45.64a33.76,33.76,0,0,1,7.56,6,26.6,26.6,0,0,1,7.39,18.59c-.1,9.77-6,19.05-15.23,24.4l-78.91,45.48a40.57,40.57,0,0,1-10.93,4.26,46,46,0,0,1-10.39,1.19,42.49,42.49,0,0,1-21.37-5.38l-79-45.61c-9.27-5.34-15.16-14.65-15.28-24.42a26.2,26.2,0,0,1,5.87-16.78,33.06,33.06,0,0,1,9.16-7.78Z" style="fill:#f9fbfc;opacity:0.024390000849962234;isolation:isolate"/><path d="M841,514.86a42,42,0,0,1,21.31-5.28,46.46,46.46,0,0,1,6.35.5,43.27,43.27,0,0,1,14.89,5.08l78.63,45.4a34.15,34.15,0,0,1,7.54,5.89A25.81,25.81,0,0,1,977,584.9c-.2,9.52-6.27,18.83-15.3,24l-78.26,45.18a41.59,41.59,0,0,1-10.85,4.28,46.4,46.4,0,0,1-10.3,1.22,42,42,0,0,1-21.21-5.3L762.52,609c-9-5.21-15.16-14.57-15.39-24.09a25.39,25.39,0,0,1,5.71-16.71,34.25,34.25,0,0,1,9.16-7.71Z" style="fill:#f4f7f9;opacity:0.04878000169992447;isolation:isolate"/><path d="M841.29,515.31a41.32,41.32,0,0,1,21.2-5.19,49.42,49.42,0,0,1,6.31.53,44.11,44.11,0,0,1,14.78,5.11l78.21,45.17a35.15,35.15,0,0,1,7.51,5.84,25,25,0,0,1,7,18.29c-.3,9.27-6.57,18.61-15.37,23.69l-77.64,44.83a42.43,42.43,0,0,1-10.76,4.28,45.63,45.63,0,0,1-10.21,1.24,41.55,41.55,0,0,1-21-5.22l-78-45c-8.8-5.08-15.16-14.5-15.5-23.77a24.54,24.54,0,0,1,5.56-16.6,35.51,35.51,0,0,1,9.17-7.65Z" style="fill:#eef2f5;opacity:0.07317099720239639;isolation:isolate"/><path d="M841.55,515.76a40.89,40.89,0,0,1,21.1-5.11,50.39,50.39,0,0,1,6.26.57,45.4,45.4,0,0,1,14.68,5.15l77.78,44.91a36.27,36.27,0,0,1,7.49,5.78,24.28,24.28,0,0,1,6.83,18.14c-.4,9-6.87,18.4-15.44,23.35l-77,44.47a43.15,43.15,0,0,1-10.66,4.27,45,45,0,0,1-10.13,1.28,41,41,0,0,1-20.89-5.15L764,608.65c-8.57-5-15.16-14.42-15.61-23.45a23.64,23.64,0,0,1,5.42-16.49,36.59,36.59,0,0,1,9.17-7.59Z" style="fill:#e8eef2;opacity:0.09756100177764893;isolation:isolate"/><path d="M841.81,516.21a40.41,40.41,0,0,1,21-5,50,50,0,0,1,6.22.6,46.56,46.56,0,0,1,14.56,5.12L961,561.59a37.15,37.15,0,0,1,7.46,5.74,23.48,23.48,0,0,1,6.65,18c-.49,8.78-7.17,18.19-15.51,23l-76.42,44.12a44.21,44.21,0,0,1-10.56,4.27,45.61,45.61,0,0,1-10,1.3,40.58,40.58,0,0,1-20.76-5.09l-77.06-44.5c-8.34-4.81-15.18-14.34-15.73-23.12a22.89,22.89,0,0,1,5.27-16.38,38,38,0,0,1,9.17-7.53Z" style="fill:#e3eaef;opacity:0.12195099890232086;isolation:isolate"/><path d="M842.07,516.66A39.83,39.83,0,0,1,863,511.73a44.7,44.7,0,0,1,20.64,5.84L960.53,562a38.37,38.37,0,0,1,7.44,5.68,22.77,22.77,0,0,1,6.46,17.84c-.57,8.53-7.47,18-15.58,22.64L883,651.93a42.17,42.17,0,0,1-20.41,5.59,40,40,0,0,1-20.56-5L765.46,608.3c-8.11-4.68-15.2-14.27-15.84-22.79a22.05,22.05,0,0,1,5.13-16.28,39,39,0,0,1,9.17-7.47Z" style="fill:#dde6ec;opacity:0.1463409960269928;isolation:isolate"/><path d="M842.33,517.11a39.39,39.39,0,0,1,20.77-4.84,44.83,44.83,0,0,1,20.5,5.91l76.51,44.17a39.74,39.74,0,0,1,7.41,5.62,22.05,22.05,0,0,1,6.28,17.69c-.66,8.28-7.77,17.75-15.64,22.29L883,651.37a45.86,45.86,0,0,1-10.36,4.26,44.35,44.35,0,0,1-9.86,1.35,39.47,39.47,0,0,1-20.4-4.91l-76.1-43.94c-7.87-4.55-15.21-14.2-16-22.47a21.29,21.29,0,0,1,5-16.17,40.69,40.69,0,0,1,9.17-7.41Z" style="fill:#d7e1e8;opacity:0.17073200643062592;isolation:isolate"/><path d="M842.59,517.56a38.86,38.86,0,0,1,20.66-4.75,44.75,44.75,0,0,1,20.35,6l76.09,43.93a40.84,40.84,0,0,1,7.38,5.57,21.34,21.34,0,0,1,6.1,17.53c-.74,8-8.07,17.54-15.71,22L882.87,650.9a46.55,46.55,0,0,1-10.27,4.25,43.52,43.52,0,0,1-9.77,1.38,39.07,39.07,0,0,1-20.24-4.83L767,607.93c-7.64-4.41-15.24-14.13-16.06-22.15a20.62,20.62,0,0,1,4.83-16.06,42,42,0,0,1,9.18-7.34Z" style="fill:#d2dde5;opacity:0.19512200355529785;isolation:isolate"/><path d="M842.85,518a38.24,38.24,0,0,1,20.55-4.66,48.43,48.43,0,0,1,6,.74,52,52,0,0,1,14.16,5.29l75.66,43.69a41.69,41.69,0,0,1,7.36,5.51A20.69,20.69,0,0,1,972.49,586c-.81,7.77-8.37,17.31-15.78,21.59l-74,42.71a48.27,48.27,0,0,1-10.18,4.25,44.44,44.44,0,0,1-9.67,1.41,38.75,38.75,0,0,1-20.08-4.76l-75.13-43.38c-7.35-4.28-15.19-14.06-16.11-21.86a19.88,19.88,0,0,1,4.69-16,43.54,43.54,0,0,1,9.17-7.28Z" style="fill:#ccd9e2;opacity:0.2195120006799698;isolation:isolate"/><path d="M843.11,518.46a37.71,37.71,0,0,1,20.44-4.53,48.49,48.49,0,0,1,6,.77,53.26,53.26,0,0,1,14,5.33l75.24,43.43a44,44,0,0,1,7.33,5.47,20,20,0,0,1,5.73,17.23c-.89,7.52-8.67,17.1-15.85,21.24l-73.37,42.36a48.53,48.53,0,0,1-10,4.17,43.68,43.68,0,0,1-9.58,1.44,38.14,38.14,0,0,1-19.92-4.68l-74.65-43.08c-7.18-4.14-15.31-14-16.29-21.49a19.22,19.22,0,0,1,4.54-15.85,45.46,45.46,0,0,1,9.18-7.22Z" style="fill:#c6d5df;opacity:0.24390199780464172;isolation:isolate"/><path d="M843.37,518.93a37.37,37.37,0,0,1,20.33-4.49,50.57,50.57,0,0,1,6,.81,55.25,55.25,0,0,1,13.94,5.36l74.82,43.17a46.06,46.06,0,0,1,7.31,5.41c5,4.94,6.36,10.91,5.54,17.08-1,7.27-9,16.88-15.92,20.9l-72.76,42a50.31,50.31,0,0,1-10,4.24,42.91,42.91,0,0,1-9.49,1.46,37.51,37.51,0,0,1-19.76-4.61l-74.17-42.82c-7-4-15.35-13.92-16.4-21.17-.82-5.61.21-11,4.39-15.74a47.83,47.83,0,0,1,9.18-7.16Z" style="fill:#c1d0db;opacity:0.26829299330711365;isolation:isolate"/><path d="M843.63,519.36a36.79,36.79,0,0,1,20.22-4.4,51.14,51.14,0,0,1,5.92.85c3.86.7,10.68,3.56,13.85,5.38l74.39,43a47.07,47.07,0,0,1,7.28,5.36c5,4.91,6.25,10.81,5.36,16.93-1,7-9.27,16.66-16,20.54L882.5,648.67a51.58,51.58,0,0,1-9.88,4.23,42.16,42.16,0,0,1-9.4,1.49,37,37,0,0,1-19.6-4.53l-73.69-42.54c-6.71-3.88-15.4-13.85-16.51-20.84-.89-5.58,0-10.91,4.25-15.64a49.39,49.39,0,0,1,9.18-7.1Z" style="fill:#bbccd8;opacity:0.2926830053329468;isolation:isolate"/><path d="M843.89,519.81A36.18,36.18,0,0,1,864,515.5a48.48,48.48,0,0,1,5.88.88c3.72.7,10.69,3.65,13.74,5.41l74,42.71a48.37,48.37,0,0,1,7.26,5.3c5,4.89,6.14,10.71,5.17,16.78C969,593.33,960.48,603,954,606.77l-71.53,41.3a52,52,0,0,1-9.79,4.22,42,42,0,0,1-9.31,1.53,36.68,36.68,0,0,1-19.44-4.46l-73.2-42.26c-6.49-3.75-15.46-13.78-16.63-20.52-1-5.55-.15-10.82,4.1-15.53a51.29,51.29,0,0,1,9.19-7Z" style="fill:#b5c8d5;opacity:0.3170729875564575;isolation:isolate"/><path d="M844.15,520.26a35.68,35.68,0,0,1,20-4.22A49.76,49.76,0,0,1,870,517c3.58.69,10.69,3.75,13.63,5.45l73.55,42.46a50.24,50.24,0,0,1,7.23,5.24c5,4.87,6,10.61,5,16.63-1.12,6.5-9.87,16.23-16.13,19.84l-70.92,41a54.45,54.45,0,0,1-9.69,4.22,43.13,43.13,0,0,1-9.23,1.55,36.16,36.16,0,0,1-19.27-4.41l-72.69-42c-6.25-3.61-16.74-13.6-16.74-20.2-2.05-5.24-.32-10.72,3.95-15.42a54.8,54.8,0,0,1,9.19-7Z" style="fill:#b0c4d2;opacity:0.34146299958229065;isolation:isolate"/><path d="M844.46,520.71a35.23,35.23,0,0,1,19.9-4.13,49.34,49.34,0,0,1,5.79,1c3.44.67,10.69,3.83,13.53,5.47l73.12,42.22a51.88,51.88,0,0,1,7.21,5.19c5,4.84,7,10.8,4.8,16.47,0,6.35-10.17,16-16.2,19.5l-70.36,40.5a56,56,0,0,1-9.59,4.21,41.08,41.08,0,0,1-9.14,1.58,35.62,35.62,0,0,1-19.11-4.3l-72.24-41.71c-6-3.47-16.85-13.52-16.85-19.87-2.2-5.17-.5-10.62,3.81-15.31a56.85,56.85,0,0,1,9.19-6.92Z" style="fill:#aabfce;opacity:0.3658539950847626;isolation:isolate"/><path d="M844.67,521.17a34.63,34.63,0,0,1,19.79-4,49,49,0,0,1,5.75,1c3.31.66,10.7,3.93,13.42,5.5l72.7,42a55.84,55.84,0,0,1,7.18,5.14c5,4.83,7,10.74,4.62,16.33,0,6.1-10.47,15.8-16.27,19.14l-69.7,40.24a58.7,58.7,0,0,1-9.49,4.21,40.9,40.9,0,0,1-9,1.6,35.12,35.12,0,0,1-19-4.22l-71.76-41.43c-5.79-3.34-17-13.44-17-19.54-2.34-5.11-.68-10.53,3.66-15.21a60.85,60.85,0,0,1,9.19-6.86Z" style="fill:#a4bbcb;opacity:0.3902440071105957;isolation:isolate"/><path d="M844.93,521.62a34.19,34.19,0,0,1,19.68-4,50,50,0,0,1,5.7,1c3.18.65,10.71,4,13.33,5.54l72.27,41.77a57,57,0,0,1,7.16,5.09c5,4.8,6.92,10.67,4.43,16.17,0,5.86-10.78,15.58-16.33,18.79l-69.1,39.89a59.39,59.39,0,0,1-9.39,4.2,40.51,40.51,0,0,1-9,1.63,34.63,34.63,0,0,1-18.79-4.14l-71.23-41.15c-5.56-3.21-17.08-13.36-17.08-19.22-2.49-5-.86-10.43,3.51-15.1a62.46,62.46,0,0,1,9.2-6.8Z" style="fill:#9fb7c8;opacity:0.41463398933410645;isolation:isolate"/><path d="M845.19,522.07a33.69,33.69,0,0,1,19.57-3.88,49.07,49.07,0,0,1,5.66,1.06c3,.63,10.71,4.11,13.22,5.56l71.82,41.48a59.65,59.65,0,0,1,7.13,5c5.06,4.78,6.89,10.6,4.25,16,0,5.62-11.08,15.37-16.4,18.45L882,645.27a63.17,63.17,0,0,1-9.3,4.2,41.19,41.19,0,0,1-8.87,1.66,34.23,34.23,0,0,1-18.63-4.07l-70.79-40.87c-5.33-3.08-17.19-13.28-17.19-18.9-2.64-5-1-10.33,3.37-15a65.92,65.92,0,0,1,9.19-6.74Z" style="fill:#99b3c5;opacity:0.4390240013599396;isolation:isolate"/><path d="M845.46,522.52a33.31,33.31,0,0,1,19.46-3.79,51.14,51.14,0,0,1,5.62,1.09c2.91.62,10.71,4.21,13.11,5.59l71.43,41.24a62.68,62.68,0,0,1,7.11,5c5.07,4.76,6.84,10.54,4.06,15.88,0,5.37-11.38,15.15-16.47,18.09L881.91,644.8a65.74,65.74,0,0,1-9.2,4.19,40.33,40.33,0,0,1-8.78,1.69,33.73,33.73,0,0,1-18.47-4l-70.31-40.59c-5.09-3-17.3-13.2-17.3-18.57-2.78-4.91-1.22-10.24,3.22-14.89a70,70,0,0,1,9.2-6.68Z" style="fill:#93aec1;opacity:0.4634149968624115;isolation:isolate"/><path d="M845.71,522.93a32.84,32.84,0,0,1,19.35-3.7,50.55,50.55,0,0,1,5.58,1.12c2.77.61,10.72,4.3,13,5.63l71,41a65.26,65.26,0,0,1,7.08,4.92c5.09,4.73,6.81,10.47,3.88,15.72,0,5.13-11.68,14.93-16.54,17.74L881.8,644.19a68,68,0,0,1-9.1,4.19,40.16,40.16,0,0,1-8.69,1.71,33.23,33.23,0,0,1-18.31-3.91l-69.82-40.25c-4.86-2.8-17.41-13.11-17.41-18.24-2.93-4.85-1.4-10.14,3.07-14.78a74.78,74.78,0,0,1,9.21-6.62Z" style="fill:#8eaabe;opacity:0.48780500888824463;isolation:isolate"/><path d="M846,523.42a32.39,32.39,0,0,1,19.24-3.61,49.53,49.53,0,0,1,5.54,1.16c2.63.59,10.72,4.39,12.9,5.65l70.58,40.75a71.24,71.24,0,0,1,7.06,4.86c5.09,4.72,6.77,10.41,3.69,15.57,0,4.89-12,14.72-16.61,17.39l-66.65,38.48a71.3,71.3,0,0,1-9,4.18,39.42,39.42,0,0,1-8.6,1.74A32.75,32.75,0,0,1,846,645.76l-69.34-40c-4.64-2.67-17.53-13-17.53-17.92-3.08-4.78-1.58-10,2.93-14.67a77.18,77.18,0,0,1,9.2-6.56Z" style="fill:#88a6bb;opacity:0.5121949911117554;isolation:isolate"/><path d="M846.23,523.87a31.84,31.84,0,0,1,19.13-3.52,49.26,49.26,0,0,1,5.49,1.19c2.51.57,10.73,4.49,12.81,5.68l70.15,40.5a74.27,74.27,0,0,1,7,4.82c5.11,4.69,6.73,10.34,3.51,15.42,0,4.64-12.28,14.5-16.68,17l-66,38.12a72.86,72.86,0,0,1-8.9,4.18,39.34,39.34,0,0,1-8.52,1.76,32.27,32.27,0,0,1-18-3.75l-68.86-39.76c-4.4-2.54-17.64-13-17.64-17.59-3.22-4.72-1.76-9.94,2.78-14.58a85.75,85.75,0,0,1,9.21-6.49Z" style="fill:#83a2b8;opacity:0.5365849733352661;isolation:isolate"/><path d="M846.46,524.32c5.31-3.06,12.4-4.25,19-3.43a48.53,48.53,0,0,1,5.44,1.22c2.37.56,10.74,4.58,12.7,5.71l69.73,40.26a79.06,79.06,0,0,1,7,4.76c5.12,4.67,6.69,10.27,3.32,15.27,0,4.39-12.58,14.28-16.75,16.69l-65.43,37.77a78.63,78.63,0,0,1-8.8,4.17,38.5,38.5,0,0,1-8.43,1.8,31.94,31.94,0,0,1-17.78-3.68l-68.38-39.48c-4.17-2.41-17.75-12.88-17.75-17.27-3.37-4.65-1.94-9.84,2.64-14.47a90.18,90.18,0,0,1,9.2-6.43Z" style="fill:#7d9db4;opacity:0.5609760284423828;isolation:isolate"/><path d="M846.75,524.77a31.29,31.29,0,0,1,18.92-3.34,49.76,49.76,0,0,1,5.4,1.26c2.23.53,10.74,4.67,12.59,5.74l69.31,40a82.32,82.32,0,0,1,7,4.71c5.14,4.64,6.66,10.2,3.14,15.11,0,4.15-12.88,14.07-16.82,16.34L881.46,642a82.79,82.79,0,0,1-8.71,4.17,39.06,39.06,0,0,1-8.34,1.82,31.42,31.42,0,0,1-17.66-3.6l-67.9-39.2c-3.93-2.28-17.86-12.8-17.86-17-3.51-4.58-2.12-9.74,2.49-14.36a96.71,96.71,0,0,1,9.21-6.37Z" style="fill:#7799b1;opacity:0.5853660106658936;isolation:isolate"/><path d="M847,525.22c5.23-3,12.29-4.15,18.81-3.26a51.66,51.66,0,0,1,5.36,1.3c2.1.51,10.74,4.76,12.49,5.77l68.88,39.77c1.13.65,6.05,3.83,7,4.65,5.15,4.63,6.61,10.14,3,15,0,3.91-13.18,13.86-16.89,16l-64.2,37.07a88.57,88.57,0,0,1-8.61,4.16,38.19,38.19,0,0,1-8.25,1.85A31,31,0,0,1,847.1,644l-67.5-39c-3.71-2.14-18-12.71-18-16.62-3.66-4.51-2.3-9.64,2.34-14.25a107.06,107.06,0,0,1,9.21-6.31Z" style="fill:#7295ae;opacity:0.6097559928894043;isolation:isolate"/><path d="M847.27,525.67c5.19-3,12.24-4.09,18.7-3.17a54.41,54.41,0,0,1,5.32,1.33c2,.49,10.74,4.86,12.38,5.8l68.46,39.53c1.06.61,6.07,3.83,6.93,4.59,5.17,4.61,6.58,10.08,2.77,14.82,0,3.66-13.48,13.63-17,15.64l-63.6,36.72a93.11,93.11,0,0,1-8.52,4.16,37.94,37.94,0,0,1-8.15,1.87,30.53,30.53,0,0,1-17.34-3.44l-66.93-38.65c-3.47-2-18.09-12.63-18.09-16.29-3.81-4.45-2.49-9.54,2.2-14.15a110.36,110.36,0,0,1,9.21-6.25Z" style="fill:#6c91ab;opacity:0.634145975112915;isolation:isolate"/><path d="M847.53,526.12c5.15-3,12.19-4,18.59-3.08a50.34,50.34,0,0,1,5.27,1.37c1.84.46,10.76,4.94,12.28,5.83l68,39.27c1,.58,6.1,3.84,6.91,4.55,5.18,4.58,6.54,10,2.58,14.66,0,3.42-13.78,13.42-17,15.29l-63,36.36c-1.14.67-7.09,3.73-8.42,4.15a37.22,37.22,0,0,1-8.06,1.9,30.06,30.06,0,0,1-17.18-3.36l-66.45-38.37c-3.24-1.87-18.2-12.55-18.2-16-4-4.38-2.67-9.44,2-14,1-.93,8-5.47,9.22-6.19Z" style="fill:#668ca7;opacity:0.658536970615387;isolation:isolate"/><path d="M847.79,526.57c5.11-3,12.13-4,18.48-3a52.34,52.34,0,0,1,5.23,1.4c1.7.44,10.76,5,12.18,5.86l67.61,39c.92.54,6.13,3.84,6.88,4.49,5.2,4.57,6.5,9.94,2.4,14.51,0,3.18-14.08,13.2-17.09,14.94l-62.38,36c-1.06.62-7.09,3.75-8.32,4.15a37.34,37.34,0,0,1-8,1.93c-6,.55-12.3-.57-17-3.3l-66-38.08c-3-1.74-18.31-12.47-18.31-15.65-4.1-4.32-2.85-9.34,1.9-13.93.89-.86,8.06-5.46,9.22-6.13Z" style="fill:#6188a4;opacity:0.6829270124435425;isolation:isolate"/><path d="M848.05,527c5.08-2.93,12.08-3.93,18.37-2.9,1.75.39,3.49.87,5.19,1.43s10.76,5.14,12.07,5.89l67.19,38.79c.85.49,6.16,3.83,6.86,4.44,5.21,4.54,6.46,9.87,2.21,14.36,0,2.93-14.38,13-17.16,14.59L881,639.27c-1,.57-7.09,3.77-8.23,4.14a36.3,36.3,0,0,1-7.88,2c-6,.57-12.19-.52-16.86-3.22l-65.48-37.81c-2.78-1.6-18.43-12.38-18.43-15.31-4.25-4.26-3-9.25,1.76-13.83.82-.79,8.15-5.45,9.22-6.07Z" style="fill:#5b84a1;opacity:0.7073169946670532;isolation:isolate"/><path d="M848.31,527.47c5-2.9,12-3.87,18.26-2.81q2.61.6,5.15,1.46c1.43.4,10.77,5.23,12,5.93l66.74,38.54c.78.45,6.19,3.83,6.83,4.38,5.23,4.53,6.42,9.81,2,14.21,0,2.68-14.68,12.77-17.23,14.24l-61.15,35.3c-.9.52-7.09,3.79-8.13,4.14a36.78,36.78,0,0,1-7.8,2c-5.88.59-12.07-.47-16.69-3.14l-65-37.53c-2.55-1.47-18.54-12.31-18.54-15-4.39-4.19-3.21-9.14,1.61-13.72.76-.72,8.24-5.44,9.22-6Z" style="fill:#55809e;opacity:0.731706976890564;isolation:isolate"/><path d="M848.58,527.93c5-2.88,12-3.82,18.14-2.72a50.65,50.65,0,0,1,5.11,1.5c1.3.36,10.77,5.32,11.86,6L950,571c.71.41,6.22,3.83,6.81,4.32,5.24,4.51,6.38,9.75,1.84,14.06,0,2.44-15,12.55-17.3,13.89l-60.54,35c-.82.48-7.09,3.81-8,4.13a35.41,35.41,0,0,1-7.71,2c-5.81.61-12-.42-16.53-3.06L784.08,604.1c-2.31-1.34-18.65-12.23-18.65-14.67-4.54-4.12-3.4-9,1.46-13.61.7-.65,8.34-5.43,9.23-6Z" style="fill:#507b9a;opacity:0.7560979723930359;isolation:isolate"/><path d="M848.84,528.37c5-2.86,11.91-3.76,18-2.64,1.8.34,3.43,1.08,5,1.54,1.17.33,10.78,5.41,11.76,6l65.92,38.06c.63.36,6.26,3.82,6.78,4.27,5.26,4.48,6.35,9.68,1.66,13.9,0,2.2-15.28,12.34-17.37,13.54l-59.93,34.6c-.73.43-7.08,3.83-7.93,4.12a34.65,34.65,0,0,1-7.62,2c-5.75.64-11.85-.37-16.36-3l-64-37c-2.08-1.2-18.76-12.15-18.76-14.35-4.68-4-3.58-8.93,1.32-13.5.62-.58,8.42-5.42,9.22-5.89Z" style="fill:#4a7797;opacity:0.7804880142211914;isolation:isolate"/><path d="M849.1,528.83C854,526,861,525.12,867,526.27c1.79.35,3.4,1.11,5,1.57,1,.31,10.79,5.51,11.66,6l65.49,37.81c.56.33,6.29,3.83,6.75,4.22,5.29,4.47,6.31,9.61,1.48,13.76,0,2-15.58,12.12-17.44,13.19l-59.31,34.25c-.65.38-7.08,3.86-7.83,4.12a35.17,35.17,0,0,1-7.53,2.07c-5.68.65-11.75-.33-16.2-2.91l-63.56-36.69c-1.86-1.07-18.88-12.07-18.88-14-4.83-4-3.76-8.84,1.17-13.4.56-.52,8.52-5.41,9.23-5.82Z" style="fill:#447394;opacity:0.8048779964447021;isolation:isolate"/><path d="M849.36,529.28c4.88-2.82,11.8-3.65,17.82-2.47,1.78.36,3.37,1.13,5,1.61.91.27,10.79,5.6,11.55,6L948.8,572c.49.29,6.32,3.82,6.73,4.17,5.3,4.44,6.27,9.54,1.29,13.6,0,1.71-15.88,11.9-17.51,12.84l-58.7,33.89c-.58.34-7.08,3.88-7.74,4.11a34.31,34.31,0,0,1-7.44,2.1c-5.62.67-11.64-.28-16-2.83l-63.08-36.42c-1.62-.93-19-12-19-13.69-5-3.92-4-8.73,1-13.29.49-.45,8.61-5.4,9.23-5.76Z" style="fill:#3f6f91;opacity:0.8292679786682129;isolation:isolate"/><path d="M849.62,529.73c4.84-2.8,11.74-3.6,17.71-2.38,1.77.37,3.34,1.16,4.93,1.64.77.24,10.79,5.69,11.45,6.07l64.64,37.32c.42.25,6.35,3.82,6.7,4.11,5.32,4.43,6.24,9.48,1.11,13.45,0,1.47-16.19,11.69-17.58,12.49L880.46,636c-.49.28-7.08,3.9-7.64,4.1a34.16,34.16,0,0,1-7.35,2.12c-5.55.69-11.53-.24-15.88-2.75L787,603.31c-1.39-.8-19.1-11.9-19.1-13.37-5.12-3.86-4.13-8.63.88-13.18.42-.38,8.7-5.4,9.23-5.7Z" style="fill:#396a8d;opacity:0.8536589741706848;isolation:isolate"/><path d="M849.88,530.18c4.8-2.78,11.69-3.55,17.6-2.29,1.75.38,3.31,1.19,4.89,1.67.64.2,10.79,5.79,11.34,6.1l64.22,37.08c.35.2,6.38,3.81,6.68,4.06,5.33,4.4,6.19,9.41.92,13.3,0,1.22-16.49,11.47-17.64,12.14L880.4,635.43c-.41.23-7.07,3.92-7.54,4.09a33.47,33.47,0,0,1-7.26,2.15c-5.48.71-11.42-.19-15.72-2.67l-62.12-35.86c-1.15-.67-19.21-11.82-19.21-13-5.27-3.8-4.32-8.53.73-13.08.35-.32,8.79-5.39,9.24-5.64Z" style="fill:#33668a;opacity:0.8780490159988403;isolation:isolate"/><path d="M850.14,530.63c4.76-2.75,11.64-3.49,17.49-2.2,1.74.39,3.28,1.21,4.84,1.71.52.16,10.81,5.87,11.24,6.13l63.8,36.83c.28.16,6.42,3.81,6.65,4,5.35,4.39,6.16,9.35.74,13.15,0,1-16.79,11.25-17.71,11.79l-56.88,32.89c-.33.18-7.07,4-7.44,4.09a33.92,33.92,0,0,1-7.17,2.18c-5.42.72-11.32-.15-15.56-2.6l-61.63-35.67c-.93-.54-19.33-11.74-19.33-12.72-5.42-3.73-4.5-8.43.59-13,.28-.26,8.88-5.38,9.23-5.58Z" style="fill:#2e6287;opacity:0.9024389982223511;isolation:isolate"/><path d="M850.4,531.08c4.72-2.73,11.58-3.44,17.38-2.11a19.57,19.57,0,0,1,4.8,1.74c.4,0,10.81,6,11.14,6.16l63.37,36.59c.21.12,6.45,3.8,6.63,3.94,5.36,4.37,6.11,9.28.55,13,0,.73-17.09,11-17.78,11.44l-56.27,32.49c-.24.14-7.06,4-7.34,4.08a33.13,33.13,0,0,1-7.09,2.21c-5.34.75-11.2-.1-15.39-2.52l-61.15-35.3c-.7-.4-19.44-11.67-19.44-12.4-5.56-3.66-5.41-9.29.44-12.86.18-.23,9-5.37,9.24-5.52Z" style="fill:#285e84;opacity:0.9268289804458618;isolation:isolate"/><path d="M850.66,531.53c4.69-2.71,11.53-3.39,17.27-2a19.24,19.24,0,0,1,4.76,1.78c.27,0,10.81,6.07,11,6.19l63,36.34c.14.09,6.48,3.8,6.6,3.9,5.39,4.35,6.08,9.21.37,12.85,0,.48-17.39,10.82-17.85,11.08l-55.66,32.14c-.16.09-7.06,4-7.24,4.08a33,33,0,0,1-7,2.23c-5.28.77-11.09,0-15.23-2.44l-60.67-35c-.46-.26-19.55-11.58-19.55-12.06-5.71-3.6-5.6-9.23.29-12.76.12-.15,9.06-5.36,9.24-5.46Z" style="fill:#225980;opacity:0.9512199759483337;isolation:isolate"/><path d="M850.92,532c4.65-2.69,11.48-3.33,17.16-1.94a18.54,18.54,0,0,1,4.72,1.82c.13,0,10.82,6.15,10.92,6.22l62.53,36.09c.07,0,6.52,3.79,6.58,3.84,5.4,4.34,6,9.15.18,12.7,0,.24-17.69,10.6-17.92,10.74l-55,31.78c-.09,0-7.06,4-7.15,4.07a32.31,32.31,0,0,1-6.91,2.26c-5.21.79-11,0-15.07-2.36l-60.19-34.75c-.23-.13-19.66-11.5-19.66-11.74-5.85-3.53-5.8-9.15.15-12.65,0-.08,9.15-5.35,9.24-5.4Z" style="fill:#1d557d;opacity:0.9756100177764893;isolation:isolate"/><path d="M952.38,590.86l-79.47,45.89c-6,3.46-15.73,3.46-21.73,0L771.7,590.86c-6-3.46-6-9.08,0-12.54l79.48-45.89c6-3.46,15.73-3.46,21.73,0l79.47,45.89C958.38,581.78,958.38,587.4,952.38,590.86Z" style="fill:#17517a"/></g><path d="M956.84,583.93v-21H947l-19.43,11.28-54.68-31.57c-6-3.46-15.73-3.46-21.73,0L804,569.87l1.76-4.88-38.52-2.81v22.34c0,2.27,1.5,4.54,4.5,6.27l79.48,45.89c6,3.46,15.73,3.46,21.73,0l79.47-45.89c3.28-1.89,4.76-4.43,4.45-6.9Z" style="fill:#061e43"/><path d="M952.38,568.45l-79.47,45.89c-6,3.46-15.73,3.46-21.73,0L771.7,568.45c-6-3.46-6-9.08,0-12.54L851.18,510c6-3.47,15.73-3.47,21.73,0l79.47,45.91C958.38,559.37,958.38,565,952.38,568.45Z" style="fill:#4a878c"/><path d="M336,160l-20.4-11.78c-6.32-3.64-11.49-1.46-11.49,4.86v20.4c0,6.32,5.17,14.47,11.49,18.12l5.6,3.23v48.85c0,2.49,2,5.69,4.51,7.12l.18.1h0l8.25,4.76c1.45.84,2.64.34,2.64-1.12v-1.29a5.52,5.52,0,0,0-2.64-4.18c1.45.84,2.64.33,2.64-1.12v-1.3a5.52,5.52,0,0,0-2.64-4.18c1.45.84,2.64.34,2.64-1.12v-1.29a5.52,5.52,0,0,0-2.64-4.18l-3.82-2.21V200.14l5.6,3.23c6.32,3.65,11.49,1.46,11.49-4.86v-20.4C347.46,171.79,342.32,163.64,336,160Zm-10.2,10.73c-2.41-1.4-4.37-4.48-4.37-6.89s2-3.24,4.37-1.85,4.37,4.48,4.37,6.89S328.21,172.11,325.8,170.72Z" style="fill:#ffd131"/><path d="M234.06,218l-53.45-30.87c-3-1.71-5.63-1.89-7.39-.78l-13,7.48-.48.48,2.72,2.79,2.14-.82,1-1.15v52.61c0,5.28,4.29,12,9.57,15.09l51.94,30-.45,1.43,1.5,4.65,13.11-7.45h0c1.45-.84,2.33-2.51,2.33-4.9V233.07C243.63,227.79,239.34,221,234.06,218Z" style="fill:#061e43"/><path d="M221,298.1l-53.46-30.86c-5.28-3.05-9.56-9.81-9.56-15.09V198.69c0-5.28,4.28-7.09,9.56-4L221,225.55c5.28,3,9.56,9.81,9.56,15.09v53.45C230.59,299.34,226.31,301.15,221,298.1Z" style="fill:#b5e3df"/><path d="M200.88,246c0-4.21-3.42-9.6-7.63-12s-7.63-1-7.63,3.23a12.62,12.62,0,0,0,1.84,6q-.68,5.72-1.36,11.45l14.3,8.25q-.68-6.51-1.36-13A4.24,4.24,0,0,0,200.88,246Z" style="fill:#061e43"/><polygon points="172.3 224.58 158.01 216.32 158.01 209.69 172.3 217.94 172.3 224.58" style="fill:#3983aa"/><polygon points="172.3 236.99 158.01 228.74 158.01 222.1 172.3 230.36 172.3 236.99" style="fill:#3983aa"/><polygon points="172.3 249.4 158.01 241.15 158.01 234.51 172.3 242.77 172.3 249.4" style="fill:#3983aa"/><polygon points="230.59 258.23 216.3 249.98 216.3 243.35 230.59 251.6 230.59 258.23" style="fill:#3983aa"/><polygon points="230.59 270.64 216.3 262.39 216.3 255.76 230.59 264.01 230.59 270.64" style="fill:#3983aa"/><polygon points="230.59 283.06 216.3 274.8 216.3 268.17 230.59 276.42 230.59 283.06" style="fill:#3983aa"/><path d="M221.46,221a3.87,3.87,0,0,1-3.87-3.87V199.32c0-9.48-8.14-22.19-17.78-27.75-4.43-2.56-8.56-3.23-11-1.8s-2.87,4.45-2.87,6.78v17.82a3.87,3.87,0,0,1-7.74,0V176.55c0-6.18,2.4-11,6.74-13.47,5-2.88,11.83-2.22,18.78,1.79,12.14,7,21.65,22.14,21.65,34.45v17.81A3.87,3.87,0,0,1,221.5,221Z" style="fill:#b5e3df"/><polygon points="121.52 480.33 121.52 480.33 121.52 402.08 60.76 406.13 121.52 480.33" style="fill:#b5e3df"/><polygon points="121.52 402.08 60.76 328.71 0 331.92 60.76 406.13 121.52 402.08" style="fill:#519399"/><polygon points="60.76 406.13 0.02 410.18 121.52 480.33 60.76 406.13" style="fill:#061e43"/><polygon points="0 331.92 0 410.17 0.02 410.18 60.76 406.13 0 331.92" style="fill:#b5e3df"/><path d="M12.09,346.7s-6.73-17.23-2.36-25.58,7-23,2.36-33.63a41.75,41.75,0,0,1,7.67,22.66c.3,13.22-3.67,22.61-1,32.6S24,361.16,24,361.16Z" style="fill:#ffd131"/><path d="M87.46,404.36l15-1s15.76-16,4.93-50.09S98,291.62,98,291.62s-9.1,25.09-4.86,62S87.46,404.36,87.46,404.36Z" style="fill:#ffd131"/><path d="M44.46,339.93h0c-4.47-2.58-8.1-8.31-8.1-12.78V307c0-4.48,3.63-6,8.1-3.43h0c4.48,2.59,8.11,8.31,8.11,12.79v20.1C52.54,340.93,48.91,342.49,44.46,339.93Z" style="fill:#061e43"/><path d="M44.46,335.52h0a7.89,7.89,0,0,1-3.79-6V309.59c0-2.1,1.7-2.81,3.79-1.6h0a7.82,7.82,0,0,1,3.79,6v19.94C48.22,336,46.53,336.73,44.46,335.52Z" style="fill:#4aa4c2"/><path d="M44.46,305.43h0a2.24,2.24,0,0,1-1.07-1.69v-8.36c0-.59.48-.79,1.07-.45h0a2.24,2.24,0,0,1,1.07,1.69v8.31C45.46,305.56,45,305.77,44.46,305.43Z" style="fill:#061e43"/><path d="M27.34,311.71h0c0-.6.48-.8,1.07-.46l8.35,4.83a2.18,2.18,0,0,1,1.07,1.69h0c0,.59-.47.79-1.07.45l-8.3-4.82A2.23,2.23,0,0,1,27.34,311.71Z" style="fill:#061e43"/><path d="M38.51,307.85h0c-.18.45-.79.41-1.35-.1l-7.93-7.2a1.83,1.83,0,0,1-.69-1.74h0c.19-.46.79-.41,1.36.1l7.93,7.19A1.84,1.84,0,0,1,38.51,307.85Z" style="fill:#061e43"/><path d="M38.66,329.12h0c.12.65-.25,1-.82.8l-8.17-3a2.23,2.23,0,0,1-1.27-1.55h0c-.13-.65.24-1,.82-.8l8.16,2.95A2.26,2.26,0,0,1,38.66,329.12Z" style="fill:#061e43"/><path d="M60.9,331.27h0a2.22,2.22,0,0,0-1.07-1.68l-8.37-4.83c-.59-.34-1.07-.14-1.07.45h0a2.24,2.24,0,0,0,1.07,1.72l8.36,4.83C60.46,332.07,60.9,331.87,60.9,331.27Z" style="fill:#061e43"/><path d="M49.73,314.52h0A2.19,2.19,0,0,0,51.08,316L59,318c.56.14.87-.29.68-1h0a2.2,2.2,0,0,0-1.35-1.47l-7.93-2C49.85,313.42,49.54,313.85,49.73,314.52Z" style="fill:#061e43"/><path d="M49.58,335.62h0a2,2,0,0,0,.82,1.75l8.17,6.48c.58.46,1.15.42,1.27-.09h0A2,2,0,0,0,59,342l-8.17-6.48C50.28,335.08,49.71,335.12,49.58,335.62Z" style="fill:#061e43"/><path d="M44.46,347.46h0a2.24,2.24,0,0,1-1.07-1.69v-8.36c0-.59.48-.79,1.07-.45h0a2.24,2.24,0,0,1,1.07,1.69V347C45.46,347.6,45,347.8,44.46,347.46Z" style="fill:#061e43"/><path d="M45.84,314.76c0,.78-.63,1-1.41.6a2.93,2.93,0,0,1-1.4-2.22c0-.78.62-1,1.4-.6A2.9,2.9,0,0,1,45.84,314.76Z" style="fill:#fff"/><path d="M45.84,320.5c0,.77-.63,1-1.41.59a2.92,2.92,0,0,1-1.4-2.22c0-.77.62-1,1.4-.59A2.9,2.9,0,0,1,45.84,320.5Z" style="fill:#fff"/><path d="M45.84,326.23c0,.78-.63,1-1.41.6a2.92,2.92,0,0,1-1.4-2.22c0-.78.62-1,1.4-.59A2.88,2.88,0,0,1,45.84,326.23Z" style="fill:#fff"/><path d="M45.84,331.93c0,.78-.63,1-1.41.6a2.93,2.93,0,0,1-1.4-2.22c0-.78.62-1.05,1.4-.6A2.9,2.9,0,0,1,45.84,331.93Z" style="fill:#fff"/><path d="M72.58,389.22h0C69,387.16,66.1,382.58,66.1,379V362.93c0-3.58,2.9-4.81,6.48-2.74h0c3.58,2.06,6.49,6.64,6.49,10.22V386.5C79.07,390.06,76.16,391.29,72.58,389.22Z" style="fill:#061e43"/><path d="M72.58,385.71h0a6.29,6.29,0,0,1-3-4.78v-16c0-1.67,1.36-2.25,3-1.28h0a6.29,6.29,0,0,1,3,4.78v16C75.62,386.1,74.26,386.68,72.58,385.71Z" style="fill:#4aa4c2"/><path d="M72.58,361.63h0a1.8,1.8,0,0,1-.86-1.35V353.6c0-.48.39-.64.86-.37h0a1.8,1.8,0,0,1,.86,1.35v6.69C73.46,361.74,73.06,361.93,72.58,361.63Z" style="fill:#061e43"/><path d="M58.9,366.66h0c0-.48.39-.64.86-.37l6.69,3.86a1.78,1.78,0,0,1,.85,1.36h0c0,.47-.38.63-.85.36L59.76,368A1.8,1.8,0,0,1,58.9,366.66Z" style="fill:#061e43"/><path d="M67.85,363.57h0c-.15.36-.64.33-1.09-.08l-6.3-5.76a1.46,1.46,0,0,1-.54-1.39h0c.15-.37.63-.33,1.08.08l6.35,5.75A1.52,1.52,0,0,1,67.85,363.57Z" style="fill:#061e43"/><path d="M68,380.59h0c.1.52-.19.81-.66.64l-6.53-2.36a1.79,1.79,0,0,1-1-1.24h0c-.1-.52.2-.81.66-.64L67,379.35A1.77,1.77,0,0,1,68,380.59Z" style="fill:#061e43"/><path d="M85.76,382.31h0A1.8,1.8,0,0,0,84.9,381l-6.68-3.86c-.48-.27-.86-.11-.86.37h0a1.8,1.8,0,0,0,.86,1.35l6.68,3.86C85.37,382.93,85.76,382.79,85.76,382.31Z" style="fill:#061e43"/><path d="M76.82,368.93h0a1.73,1.73,0,0,0,1.08,1.17l6.35,1.58c.45.11.69-.23.54-.77h0a1.73,1.73,0,0,0-1.08-1.17l-6.35-1.57C76.91,368,76.67,368.37,76.82,368.93Z" style="fill:#061e43"/><path d="M76.7,385.79h0a1.62,1.62,0,0,0,.66,1.4l6.53,5.18c.46.37.92.34,1-.06h0a1.58,1.58,0,0,0-.66-1.4l-6.53-5.19C77.26,385.36,76.8,385.39,76.7,385.79Z" style="fill:#061e43"/><path d="M72.58,395.26h0a1.8,1.8,0,0,1-.86-1.35v-6.68c0-.48.39-.64.86-.37h0a1.77,1.77,0,0,1,.86,1.36v6.71C73.46,395.37,73.06,395.54,72.58,395.26Z" style="fill:#061e43"/><path d="M73.71,369.1c0,.62-.51.84-1.13.48a2.34,2.34,0,0,1-1.12-1.78c0-.62.5-.83,1.12-.47A2.31,2.31,0,0,1,73.71,369.1Z" style="fill:#fff"/><path d="M73.71,373.69c0,.62-.51.84-1.13.48a2.34,2.34,0,0,1-1.12-1.78c0-.62.5-.83,1.12-.47A2.31,2.31,0,0,1,73.71,373.69Z" style="fill:#fff"/><path d="M73.71,378.28c0,.62-.51.84-1.13.48A2.34,2.34,0,0,1,71.46,377c0-.62.5-.83,1.12-.47A2.31,2.31,0,0,1,73.71,378.28Z" style="fill:#fff"/><path d="M73.71,382.87c0,.62-.51.84-1.13.48a2.34,2.34,0,0,1-1.12-1.78c0-.62.5-.83,1.12-.47A2.33,2.33,0,0,1,73.71,382.87Z" style="fill:#fff"/><path d="M37.81,347.35c0,2.06-1.66,2.76-3.71,1.57a7.7,7.7,0,0,1-3.72-5.86c0-2.05,1.66-2.76,3.72-1.57A7.69,7.69,0,0,1,37.81,347.35Z" style="fill:#ffd131"/><path d="M52.54,377.16c0,2.54-2.06,3.4-4.59,1.94s-4.59-4.7-4.59-7.24,2-3.4,4.59-1.93S52.54,374.63,52.54,377.16Z" style="fill:#ffd131"/><path d="M77.9,331.54c0,2.31-1.87,3.1-4.18,1.77s-4.17-4.28-4.17-6.59,1.87-3.09,4.17-1.76S77.9,329.24,77.9,331.54Z" style="fill:#ffd131"/><path d="M58.9,297.48c0,1.54-1.24,2.07-2.78,1.18a5.79,5.79,0,0,1-2.79-4.39c0-1.54,1.25-2.07,2.79-1.18A5.78,5.78,0,0,1,58.9,297.48Z" style="fill:#ffd131"/><path d="M52.54,360.3c0,1.27-1,1.7-2.3,1A4.79,4.79,0,0,1,48,357.68c0-1.27,1-1.7,2.29-1A4.76,4.76,0,0,1,52.54,360.3Z" style="fill:#ffd131"/><path d="M188.33,136.47h0c-4.48-2.58-8.11-8.31-8.11-12.78V103.58c0-4.47,3.63-6,8.11-3.42h0c4.47,2.58,8.1,8.3,8.1,12.78v20.11C196.46,137.52,192.8,139.06,188.33,136.47Z" style="fill:#061e43"/><path d="M188.33,132.08h0a7.82,7.82,0,0,1-3.79-6V106.15c0-2.09,1.69-2.81,3.79-1.6h0a7.85,7.85,0,0,1,3.79,6v20C192.12,132.57,190.46,133.29,188.33,132.08Z" style="fill:#4aa4c2"/><path d="M188.33,102h0a2.24,2.24,0,0,1-1.07-1.69V91.93c0-.59.48-.79,1.07-.45h0a2.24,2.24,0,0,1,1.07,1.69v8.36C189.4,102.13,188.92,102.33,188.33,102Z" style="fill:#061e43"/><path d="M171.23,108.27h0c0-.59.48-.8,1.08-.45l8.35,4.82a2.24,2.24,0,0,1,1.07,1.69h0c0,.59-.48.79-1.07.45l-8.35-4.85A2.22,2.22,0,0,1,171.23,108.27Z" style="fill:#061e43"/><path d="M182.46,104.41h0c-.19.46-.79.41-1.35-.1l-7.94-7.19a1.84,1.84,0,0,1-.68-1.75h0c.18-.45.79-.41,1.35.1l7.94,7.2A1.82,1.82,0,0,1,182.46,104.41Z" style="fill:#061e43"/><path d="M182.55,125.69h0c.13.65-.24,1-.82.8l-8.16-3a2.25,2.25,0,0,1-1.28-1.55h0c-.12-.65.25-1,.82-.8l8.17,3A2.22,2.22,0,0,1,182.55,125.69Z" style="fill:#061e43"/><path d="M204.8,127.84h0a2.22,2.22,0,0,0-1.08-1.69l-8.35-4.83c-.59-.34-1.07-.13-1.07.46h0a2.24,2.24,0,0,0,1.07,1.69l8.35,4.82C204.32,128.63,204.8,128.43,204.8,127.84Z" style="fill:#061e43"/><path d="M193.62,111.08h0a2.19,2.19,0,0,0,1.35,1.46l7.94,2c.56.14.87-.29.68-1h0a2.17,2.17,0,0,0-1.35-1.46l-7.94-2C193.74,110,193.46,110.41,193.62,111.08Z" style="fill:#061e43"/><path d="M193.46,132.19h0a2,2,0,0,0,.82,1.74l8.16,6.48c.58.46,1.15.42,1.28-.09h0a2,2,0,0,0-.82-1.74l-8.17-6.48C194.17,131.64,193.6,131.68,193.46,132.19Z" style="fill:#061e43"/><path d="M188.33,144h0a2.24,2.24,0,0,1-1.07-1.69V134c0-.6.48-.8,1.07-.46h0a2.24,2.24,0,0,1,1.07,1.69v8.36C189.4,144.16,188.92,144.36,188.33,144Z" style="fill:#061e43"/><path d="M189.73,111.32c0,.78-.63,1.05-1.4.6a2.9,2.9,0,0,1-1.41-2.22c0-.78.63-1,1.41-.6A2.93,2.93,0,0,1,189.73,111.32Z" style="fill:#fff"/><path d="M189.73,117.06c0,.78-.63,1-1.4.59a2.88,2.88,0,0,1-1.41-2.21c0-.78.63-1,1.41-.6A2.93,2.93,0,0,1,189.73,117.06Z" style="fill:#fff"/><path d="M189.73,122.8c0,.77-.63,1-1.4.59a2.9,2.9,0,0,1-1.41-2.22c0-.77.63-1,1.41-.59A2.93,2.93,0,0,1,189.73,122.8Z" style="fill:#fff"/><path d="M189.73,128.53c0,.78-.63,1.05-1.4.6a2.9,2.9,0,0,1-1.41-2.22c0-.78.63-1,1.41-.59A2.9,2.9,0,0,1,189.73,128.53Z" style="fill:#fff"/><path d="M361.32,289.38h0c-3.39-1.95-6.13-6.29-6.13-9.67V264.48c0-3.39,2.74-4.55,6.13-2.59h0c3.39,2,6.14,6.29,6.14,9.68v15.22C367.46,290.18,364.71,291.34,361.32,289.38Z" style="fill:#061e43"/><path d="M361.32,286.06h0a6,6,0,0,1-2.86-4.53v-15.1c0-1.59,1.29-2.13,2.87-1.22h0a6,6,0,0,1,2.87,4.53v15.11C364.19,286.43,362.91,286.93,361.32,286.06Z" style="fill:#4aa4c2"/><path d="M361.32,263.28h0a1.67,1.67,0,0,1-.81-1.28v-6.33c0-.44.36-.6.81-.34h0a1.67,1.67,0,0,1,.81,1.28v6.32C362.13,263.38,361.77,263.53,361.32,263.28Z" style="fill:#061e43"/><path d="M348.38,268h0c0-.45.36-.6.81-.34l6.33,3.65a1.68,1.68,0,0,1,.81,1.28h0c0,.45-.37.6-.81.34l-6.33-3.65A1.67,1.67,0,0,1,348.38,268Z" style="fill:#061e43"/><path d="M356.84,265.11h0c-.14.35-.6.31-1-.07l-6-5.45a1.4,1.4,0,0,1-.52-1.32h0c.14-.35.6-.31,1,.07l6,5.45A1.4,1.4,0,0,1,356.84,265.11Z" style="fill:#061e43"/><path d="M357,281.22h0c.09.49-.18.76-.62.6l-6.18-2.23a1.74,1.74,0,0,1-1-1.18h0c-.09-.49.19-.76.62-.6L356,280A1.73,1.73,0,0,1,357,281.22Z" style="fill:#061e43"/><path d="M373.79,282.85h0a1.67,1.67,0,0,0-.81-1.28l-6.33-3.64c-.44-.26-.81-.11-.81.34h0a1.68,1.68,0,0,0,.81,1.28L373,283.2C373.46,283.45,373.79,283.29,373.79,282.85Z" style="fill:#061e43"/><path d="M365.33,270.16h0a1.7,1.7,0,0,0,1,1.11l6,1.48c.43.11.66-.22.52-.72h0a1.66,1.66,0,0,0-1-1.11l-6-1.49C365.46,269.33,365.19,269.65,365.33,270.16Z" style="fill:#061e43"/><path d="M365.22,286.14h0a1.52,1.52,0,0,0,.62,1.32l6.18,4.9c.44.35.87.32,1-.06h0a1.52,1.52,0,0,0-.62-1.32l-6.19-4.91C365.75,285.73,365.31,285.75,365.22,286.14Z" style="fill:#061e43"/><path d="M361.32,295.1h0a1.67,1.67,0,0,1-.81-1.28v-6.33c0-.44.36-.6.81-.34h0a1.67,1.67,0,0,1,.81,1.28v6.32C362.13,295.2,361.77,295.36,361.32,295.1Z" style="fill:#061e43"/><path d="M362.39,270.34c0,.59-.48.79-1.07.45a2.21,2.21,0,0,1-1.06-1.68c0-.58.47-.79,1.06-.45A2.22,2.22,0,0,1,362.39,270.34Z" style="fill:#fff"/><path d="M362.39,274.69c0,.58-.48.79-1.07.45a2.21,2.21,0,0,1-1.06-1.68c0-.59.47-.79,1.06-.45A2.22,2.22,0,0,1,362.39,274.69Z" style="fill:#fff"/><path d="M362.39,279c0,.59-.48.79-1.07.45a2.21,2.21,0,0,1-1.06-1.68c0-.59.47-.79,1.06-.45A2.22,2.22,0,0,1,362.39,279Z" style="fill:#fff"/><path d="M362.39,283.37c0,.59-.48.79-1.07.45a2.21,2.21,0,0,1-1.06-1.68c0-.58.47-.79,1.06-.45A2.22,2.22,0,0,1,362.39,283.37Z" style="fill:#fff"/><path d="M251.1,130.93,234,121.05a3.86,3.86,0,0,1-1.86-3V100.93c0-1,.83-1.38,1.86-.79L251.1,110A3.87,3.87,0,0,1,253,113v17.16C253,131.16,252.13,131.52,251.1,130.93Z" style="fill:#fff"/><path d="M293.63,139.93l-32.7-18.87a5.52,5.52,0,0,1-2.64-4.18h0c0-1.46,1.18-2,2.64-1.11l32.7,18.87a5.48,5.48,0,0,1,2.64,4.17h0C296.27,140.26,295.09,140.76,293.63,139.93Z" style="fill:#fff"/><path d="M293.63,147.7l-32.7-18.88a5.48,5.48,0,0,1-2.64-4.17h0c0-1.47,1.18-2,2.64-1.12l32.7,18.87a5.52,5.52,0,0,1,2.64,4.18h0C296.27,148,295.09,148.54,293.63,147.7Z" style="fill:#fff"/><path d="M293.63,155.48l-32.7-18.88a5.48,5.48,0,0,1-2.64-4.17h0c0-1.46,1.18-2,2.64-1.12l32.7,18.88a5.48,5.48,0,0,1,2.64,4.17h0C296.27,155.82,295.09,156.32,293.63,155.48Z" style="fill:#fff"/><path d="M251.1,162.24,234,152.36a3.86,3.86,0,0,1-1.86-3V132.29c0-1,.83-1.38,1.86-.79l17.13,9.89a3.87,3.87,0,0,1,1.86,2.94v17.12C253,162.49,252.13,162.84,251.1,162.24Z" style="fill:#fff"/><path d="M293.63,171.23l-32.7-18.87a5.52,5.52,0,0,1-2.64-4.18h0c0-1.46,1.18-2,2.64-1.11l32.7,18.86a5.52,5.52,0,0,1,2.64,4.18h0C296.27,171.58,295.09,172.08,293.63,171.23Z" style="fill:#fff"/><path d="M293.63,179l-32.7-18.88a5.48,5.48,0,0,1-2.64-4.17h0c0-1.46,1.18-2,2.64-1.12l32.7,18.87a5.52,5.52,0,0,1,2.64,4.18h0C296.27,179.36,295.09,179.86,293.63,179Z" style="fill:#fff"/><path d="M293.63,186.8l-32.7-18.87a5.48,5.48,0,0,1-2.64-4.17h0c0-1.46,1.18-2,2.64-1.12l32.7,18.88a5.48,5.48,0,0,1,2.64,4.17h0C296.27,187.14,295.09,187.64,293.63,186.8Z" style="fill:#fff"/><path d="M844,541.69l-32.32,18.66c-6.74,3.89-6.74,10.2,0,14.09L844,593.1c6.74,3.89,17.67,3.89,24.41,0l32.32-18.66c6.35-3.66,6.72-9.47,1.11-13.38l2.75-1.59c9.56-5.52,9.56-14.5,0-20s-25.1-5.52-34.65,0l-2.75,1.59C860.46,537.81,850.35,538,844,541.69Zm-.75,26.64,8.07-2,1.22-.3c-.63-1.55.08-3.24,2.17-4.44a12.82,12.82,0,0,1,11.6,0c3.2,1.85,3.2,4.85,0,6.7a12.52,12.52,0,0,1-7.68,1.25l-.53.7-3.52,4.66c-.82,1.09-3.28,1.36-4.73.52l-3.75-2.16-3.75-2.16C840.9,570.23,841.37,568.8,843.25,568.33Zm32.3-25.63c6.46-3.73,17-3.73,23.43,0s6.45,9.8,0,13.52l-2.7,1.56-23.42-13.52Z" style="fill:#ffd131"/><path d="M921.59,253.52l-14.94,8.63c-3.12,1.8-3.12,4.71,0,6.51l14.94,8.62a12.44,12.44,0,0,0,11.27,0l14.94-8.62c2.93-1.69,3.1-4.38.51-6.19l1.27-.73c4.42-2.55,4.42-6.7,0-9.25s-11.59-2.55-16,0l-1.27.74A12.57,12.57,0,0,0,921.59,253.52Zm-.35,12.32,3.73-.94.56-.14c-.29-.72,0-1.5,1-2.05a5.89,5.89,0,0,1,5.36,0c1.48.85,1.48,2.24,0,3.09a5.75,5.75,0,0,1-3.55.58l-.24.33-1.62,2.15a1.92,1.92,0,0,1-2.19.24l-1.74-1-1.73-1C920.15,266.71,920.37,266.05,921.24,265.84ZM936.17,254A12,12,0,0,1,947,254c3,1.72,3,4.53,0,6.25l-1.25.72-10.82-6.25Z" style="fill:#061e43"/><g style="opacity:0.2800000011920929"><polygon points="377.39 346.67 623.54 488.78 638.04 480.41 391.89 338.3 377.39 346.67" style="fill:#2d7770"/><polygon points="352.65 360.95 598.79 503.06 613.29 494.69 367.15 352.58 352.65 360.95" style="fill:#2d7770"/><polygon points="327.91 375.24 574.05 517.35 588.55 508.98 342.41 366.87 327.91 375.24" style="fill:#2d7770"/><polygon points="303.16 389.53 549.31 531.64 563.81 523.26 317.66 381.15 303.16 389.53" style="fill:#2d7770"/><polygon points="278.42 403.81 524.56 545.92 539.06 537.55 292.92 395.44 278.42 403.81" style="fill:#2d7770"/><polygon points="253.68 418.1 499.82 560.21 514.32 551.83 268.18 409.72 253.68 418.1" style="fill:#2d7770"/></g><g style="opacity:0.2800000011920929"><polygon points="638.44 223.71 884.58 365.82 899.08 357.44 652.94 215.33 638.44 223.71" style="fill:#2d7770"/><polygon points="613.7 237.99 859.84 380.1 874.34 371.73 628.2 229.62 613.7 237.99" style="fill:#2d7770"/><polygon points="588.95 252.28 835.1 394.39 849.6 386.02 603.46 243.91 588.95 252.28" style="fill:#2d7770"/><polygon points="564.21 266.56 810.35 408.67 824.85 400.3 578.71 258.19 564.21 266.56" style="fill:#2d7770"/><polygon points="539.47 280.85 785.61 422.96 800.11 414.59 553.97 272.48 539.47 280.85" style="fill:#caebff"/><polygon points="514.72 295.14 760.87 437.25 775.37 428.87 529.22 286.76 514.72 295.14" style="fill:#2d7770"/></g><path d="M267,334.39l-27.81,16.22L263.35,373l3.66-6.35h0v55.7L470.3,539.71l-.39,3.28s5.69,23.82,5.84,24.28,2.39,9.25,2.39,9.25l.23-.14,27.65-16v-88Z" style="fill:#061e43"/><polygon points="478.14 576.52 239.15 438.54 239.15 350.57 478.14 488.55 478.14 576.52" style="fill:#17517a"/><polygon points="284.46 395.32 255.24 378.45 255.24 359.87 284.46 376.73 284.46 395.32" style="fill:#5ecff5"/><polygon points="251.25 376.15 239.22 369.2 239.22 350.62 251.25 357.56 251.25 376.15" style="fill:#5ecff5"/><polygon points="251.25 422.14 239.22 415.2 239.22 396.61 251.25 403.56 251.25 422.14" style="fill:#5ecff5"/><polygon points="316.74 413.96 287.52 397.09 287.52 378.5 316.74 395.37 316.74 413.96" style="fill:#5ecff5"/><polygon points="349.02 432.59 319.8 415.73 319.8 397.14 349.02 414.01 349.02 432.59" style="fill:#5ecff5"/><polygon points="381.3 451.23 352.08 434.36 352.08 415.78 381.3 432.64 381.3 451.23" style="fill:#5ecff5"/><polygon points="413.58 469.87 384.36 453 384.36 434.41 413.58 451.28 413.58 469.87" style="fill:#5ecff5"/><polygon points="445.86 488.5 416.64 471.64 416.64 453.05 445.86 469.92 445.86 488.5" style="fill:#5ecff5"/><polygon points="478.14 507.14 448.92 490.27 448.92 471.68 478.14 488.55 478.14 507.14" style="fill:#5ecff5"/><polygon points="268.44 409.45 239.22 392.59 239.22 374 268.44 390.87 268.44 409.45" style="fill:#5ecff5"/><polygon points="300.71 428.09 271.5 411.22 271.5 392.64 300.71 409.5 300.71 428.09" style="fill:#5ecff5"/><polygon points="333 446.73 303.78 429.86 303.78 411.27 333 428.14 333 446.73" style="fill:#5ecff5"/><polygon points="365.27 465.36 336.06 448.5 336.06 429.91 365.27 446.78 365.27 465.36" style="fill:#5ecff5"/><polygon points="397.55 484 368.34 467.13 368.34 448.55 397.55 465.41 397.55 484" style="fill:#5ecff5"/><polygon points="429.83 502.64 400.62 485.77 400.62 467.18 429.83 484.05 429.83 502.64" style="fill:#5ecff5"/><polygon points="462.11 521.28 432.9 504.41 432.9 485.82 462.11 502.69 462.11 521.28" style="fill:#5ecff5"/><polygon points="284.46 441.31 255.24 424.45 255.24 405.86 284.46 422.73 284.46 441.31" style="fill:#5ecff5"/><polygon points="316.74 459.95 287.52 443.08 287.52 424.5 316.74 441.36 316.74 459.95" style="fill:#5ecff5"/><polygon points="349.02 478.59 319.8 461.72 319.8 443.13 349.02 460 349.02 478.59" style="fill:#5ecff5"/><polygon points="381.3 497.22 352.08 480.36 352.08 461.77 381.3 478.64 381.3 497.22" style="fill:#5ecff5"/><polygon points="413.58 515.86 384.36 498.99 384.36 480.41 413.58 497.27 413.58 515.86" style="fill:#5ecff5"/><polygon points="445.86 534.5 416.64 517.63 416.64 499.04 445.86 515.91 445.86 534.5" style="fill:#5ecff5"/><polygon points="478.14 553.14 448.92 536.27 448.92 517.68 478.14 534.55 478.14 553.14" style="fill:#5ecff5"/><polygon points="268.44 455.45 239.22 438.58 239.22 419.99 268.44 436.86 268.44 455.45" style="fill:#5ecff5"/><polygon points="300.71 474.09 271.5 457.22 271.5 438.63 300.71 455.5 300.71 474.09" style="fill:#5ecff5"/><polygon points="333 492.72 303.78 475.85 303.78 457.27 333 474.14 333 492.72" style="fill:#5ecff5"/><polygon points="365.27 511.36 336.06 494.49 336.06 475.9 365.27 492.77 365.27 511.36" style="fill:#5ecff5"/><polygon points="397.55 530 368.34 513.13 368.34 494.54 397.55 511.41 397.55 530" style="fill:#5ecff5"/><polygon points="429.83 548.63 400.62 531.76 400.62 513.18 429.83 530.05 429.83 548.63" style="fill:#5ecff5"/><polygon points="462.11 567.27 432.9 550.4 432.9 531.81 462.11 548.68 462.11 567.27" style="fill:#5ecff5"/><polygon points="478.14 530.53 464.83 522.84 464.83 504.25 478.14 511.94 478.14 530.53" style="fill:#5ecff5"/><polygon points="478.14 576.52 464.83 568.83 464.83 550.25 478.14 557.93 478.14 576.52" style="fill:#5ecff5"/><polygon points="786.62 156.03 530.24 8.01 530.24 31.58 786.62 179.6 786.62 156.03" style="fill:#ffd131"/><polygon points="530.24 31.58 530.24 274.41 786.62 422.43 786.62 179.6 530.24 31.58" style="fill:#5ecff5"/><path d="M545.92,28.56c0,1.91-1.53,2.58-3.41,1.49a7.09,7.09,0,0,1-3.41-5.42c0-1.91,1.53-2.58,3.41-1.49A7.15,7.15,0,0,1,545.92,28.56Z" style="fill:#fff"/><path d="M556.46,34.67c0,1.91-1.53,2.57-3.41,1.48a7.09,7.09,0,0,1-3.41-5.42c0-1.91,1.53-2.58,3.41-1.49A7.13,7.13,0,0,1,556.46,34.67Z" style="fill:#fff"/><path d="M567.06,40.77c0,1.91-1.53,2.57-3.41,1.49a7.09,7.09,0,0,1-3.41-5.43c0-1.91,1.52-2.57,3.41-1.49A7.13,7.13,0,0,1,567.06,40.77Z" style="fill:#fff"/><polygon points="800.3 414.38 786.52 422.38 786.62 179.6 800.27 172.5 800.3 414.38" style="fill:#2d6375"/><polygon points="543.99 0 530.21 7.99 786.62 156.03 800.37 148.02 543.99 0" style="fill:#ffebab"/><path d="M785.9,487.43V473.57c0-6.3,5.11-14.36,11.41-18l35.22-20.34c6.31-3.64,11.42-1.48,11.42,4.82v13.88c0,6.31-5.11,14.37-11.42,18l-35.22,20.33C791,495.93,785.9,493.73,785.9,487.43Z" style="fill:#fff"/><path d="M833,467.93l-36.07,20.83c-4,2.31-7.24.94-7.24-3.06V471c0-4,3.24-9.11,7.24-11.42L833,438.73c4-2.3,7.24-.93,7.24,3.06v14.72C840.2,460.5,837,465.61,833,467.93Z" style="fill:#061e43"/><path d="M824.85,299.93l-89.59-51.74c-3.08-1.78-5.6-5.75-5.6-8.83v-50c0-3.08,2.52-4.15,5.6-2.37l89.59,51.73c3.08,1.78,5.6,5.75,5.6,8.83v50C830.46,300.63,827.93,301.69,824.85,299.93Z" style="fill:#061e43"/><path d="M604.11,107.24,479.9,35.53c-1.69-1-3.22-1.14-4.31-.62h0L472,36.5l2,1.74V65.93c0,3.27,2.68,7.49,6,9.38L604.19,147a7.16,7.16,0,0,0,.88.43v1.7s3.06-1.32,3.29-1.44h0a3.16,3.16,0,0,0,1.78-3.2V116.62C610.06,113.35,607.38,109.13,604.11,107.24Z" style="fill:#061e43"/><path d="M600.58,148.57,476.37,76.85c-3.27-1.89-5.95-6.11-5.95-9.38V39.6c0-3.27,2.68-4.41,5.95-2.52L600.58,108.8c3.27,1.89,6,6.11,6,9.38v27.87C606.53,149.32,603.85,150.45,600.58,148.57Z" style="fill:#ffd131"/><path d="M594.28,119.07,529.39,81.61a5.69,5.69,0,0,1-2.72-4.3h0c0-1.49,1.22-2,2.72-1.15l64.89,37.47a5.62,5.62,0,0,1,2.72,4.29h0C597,119.42,595.78,119.93,594.28,119.07Z" style="fill:#fff"/><path d="M594.28,128.24,529.39,90.78a5.62,5.62,0,0,1-2.72-4.29h0c0-1.5,1.22-2,2.72-1.15l64.89,37.46a5.67,5.67,0,0,1,2.72,4.29h0C597,128.59,595.78,129.11,594.28,128.24Z" style="fill:#fff"/><path d="M554.62,114.52,529.39,99.93a5.62,5.62,0,0,1-2.72-4.29h0c0-1.49,1.22-2,2.72-1.15l25.23,14.57a5.66,5.66,0,0,1,2.73,4.29h0C557.35,114.87,556.12,115.39,554.62,114.52Z" style="fill:#fff"/><path d="M574,125.7l-10.69-6.17a5.67,5.67,0,0,1-2.72-4.29h0c0-1.5,1.23-2,2.72-1.15L574,120.26a5.62,5.62,0,0,1,2.72,4.29h0C576.7,126.05,575.46,126.56,574,125.7Z" style="fill:#fff"/><polygon points="521.57 69.77 511.14 69.77 512.43 72.2 504.22 77.05 496.55 63.83 479.69 63.83 479.53 69.14 493.89 69.14 502.75 84.45 514.42 75.93 515.79 78.5 521.57 69.77" style="fill:#fff"/><polygon points="429.17 92.05 429.17 114.18 429.17 342.2 669.92 481.2 669.92 253.18 669.92 231.04 429.17 92.05" style="fill:#a8e3f7;opacity:0.2800000011920929;isolation:isolate"/><rect x="547.59" y="110.88" width="3.9" height="277.99" transform="translate(58.37 600.85) rotate(-60)" style="fill:#3983aa"/><rect x="547.59" y="184.38" width="3.9" height="277.99" transform="translate(-5.28 637.61) rotate(-60)" style="fill:#4aa4c2"/><rect x="509.72" y="139.68" width="3.9" height="249.79" style="fill:#4aa4c2"/><rect x="591.54" y="186.78" width="3.9" height="249.79" style="fill:#4aa4c2"/><polygon points="718.04 303.94 619.56 247.08 619.56 117.76 718.04 174.61 718.04 303.94" style="fill:#061e43"/><path d="M635.91,427.19a28.25,28.25,0,0,1-12.26-3c-28-13.43-31.62-65.3-32.06-74.58-7.23-2.67-41.74-17-35.33-46.09,3.71-16.81,13.58-23.77,21.21-26.65a37.27,37.27,0,0,1,13.63-2.32l.42-45.71-73.73-4.64.25-3.89,77.42,4.87L595,278.83l-2.17-.28c-1.07-.13-26.38-2.92-32.72,25.8s33.6,41.88,34,42l1.32.42v1.38c0,.59,2,59.09,29.9,72.52,6.43,3.09,12.63,3.43,18.42,1,15.14-6.34,23.12-29.21,23.19-29.44l3.69,1.26c-.34,1-8.64,24.77-25.37,31.78A24.28,24.28,0,0,1,635.91,427.19Z" style="fill:#3983aa"/><path d="M523.84,234.81c0,6.72-5.45,9-12.17,5.14s-12.21-12.48-12.21-19.2,5.45-9,12.18-5.15S523.84,228.08,523.84,234.81Z" style="fill:#ffd131"/><path d="M517.23,231c0,3.07-2.49,4.13-5.56,2.35s-5.57-5.7-5.57-8.78,2.49-4.12,5.57-2.35S517.23,227.93,517.23,231Z" style="fill:#fff"/><ellipse cx="593.49" cy="226.99" rx="9.16" ry="16.19" transform="translate(-17.25 402.35) rotate(-36.95)" style="fill:#ffd131"/><path d="M599.06,230.22c0,3.08-2.5,4.13-5.57,2.35s-5.57-5.7-5.57-8.78,2.5-4.12,5.57-2.35S599.06,227.15,599.06,230.22Z" style="fill:#fff"/><path d="M133.68,215.64c0,6.72-5.45,9-12.17,5.14s-12.17-12.48-12.17-19.2,5.45-9,12.17-5.15S133.68,208.93,133.68,215.64Z" style="fill:#ffd131"/><path d="M127.08,211.82c0,3.08-2.5,4.13-5.57,2.35s-5.57-5.7-5.57-8.78,2.5-4.12,5.57-2.35S127.08,208.75,127.08,211.82Z" style="fill:#061e43"/><ellipse cx="272.94" cy="231.17" rx="6.39" ry="11.3" transform="translate(-84.14 210.5) rotate(-36.95)" style="fill:#ffd131"/><path d="M276.83,233.42c0,2.15-1.74,2.88-3.89,1.64a8.07,8.07,0,0,1-3.88-6.13c0-2.14,1.74-2.88,3.88-1.64A8,8,0,0,1,276.83,233.42Z" style="fill:#061e43"/><ellipse cx="159.93" cy="383.24" rx="7.84" ry="13.85" transform="translate(-198.25 173.11) rotate(-36.95)" style="fill:#ffd131"/><path d="M164.69,386c0,2.63-2.13,3.53-4.76,2s-4.77-4.88-4.77-7.51,2.14-3.53,4.77-2S164.69,383.37,164.69,386Z" style="fill:#061e43"/><path d="M511.56,296.5c-2.64-1.53-4.78-.62-4.78,2s2.14,6,4.78,7.54,4.78.62,4.78-2S514.2,298,511.56,296.5Z" style="fill:#fff"/><path d="M630,365.19c-2.64-1.52-4.78-.62-4.78,2s2.14,6,4.78,7.55,4.79.62,4.79-2S632.65,366.72,630,365.19Z" style="fill:#fff"/><path d="M511.67,176.82c-2.64-1.53-4.78-.62-4.78,2s2.14,6,4.78,7.54,4.78.62,4.78-2S514.31,178.34,511.67,176.82Z" style="fill:#fff"/><ellipse cx="511.67" cy="345.04" rx="3.6" ry="6.36" transform="translate(-104.65 376.87) rotate(-36.95)" style="fill:#fff"/><path d="M602.8,280.69c0,5.14-4.17,6.9-9.31,3.94s-9.31-9.54-9.31-14.68,4.17-6.9,9.31-3.94S602.8,275.55,602.8,280.69Z" style="fill:#ffd131"/><path d="M597.74,277.78c0,2.35-1.9,3.15-4.25,1.79s-4.26-4.36-4.26-6.71,1.91-3.15,4.26-1.79S597.74,275.43,597.74,277.78Z" style="fill:#fff"/><ellipse cx="593.48" cy="348.2" rx="10.94" ry="19.34" transform="translate(-90.12 426.69) rotate(-36.95)" style="fill:#ffd131"/><path d="M600.14,352.05c0,3.68-3,4.94-6.65,2.81s-6.65-6.81-6.65-10.49,3-4.93,6.65-2.81S600.14,348.38,600.14,352.05Z" style="fill:#17517a"/><path d="M645.72,220.34l-.18-.25c-6.18-8.88-9.72-18.65-9.72-26.8V148.16l63.47,36.65V230.1c0,8-3.46,13.68-9.49,15.5l-.2.06-22.28.23Z" style="fill:none;stroke:#fff;stroke-miterlimit:10;stroke-width:1.9481500387191772px"/><polygon points="429.17 92.05 429.17 114.18 429.17 342.2 669.92 481.2 669.92 253.18 669.92 231.04 429.17 92.05" style="fill:none;stroke:#4aa4c2;stroke-miterlimit:10;stroke-width:3.8963000774383545px"/><path d="M676.23,235.22c0,3.48-2.83,4.68-6.31,2.67s-6.32-6.47-6.32-10,2.83-4.68,6.32-2.67S676.23,231.73,676.23,235.22Z" style="fill:#ffd131"/><ellipse cx="669.92" cy="392.85" rx="10.94" ry="19.34" transform="translate(-101.6 481.6) rotate(-36.95)" style="fill:#ffd131"/><path d="M676.57,396.71c0,3.68-3,4.94-6.65,2.81s-6.66-6.81-6.66-10.49,3-4.93,6.66-2.81S676.57,393,676.57,396.71Z" style="fill:#fff"/><path d="M581.11,513.76a2,2,0,0,0-.53-1.32,1.94,1.94,0,0,1,.07.33c.22,3.64-8.09,8.19-11.81,9.56-4.4,1.63-8.08,1.92-9.62-.42,1.12,3.36,5.14,3.24,10.08,1.41C573,521.93,581.33,517.4,581.11,513.76Z" style="fill:#fff;opacity:0.3799999952316284;isolation:isolate"/><path d="M568.84,522.33c3.72-1.37,12-5.92,11.81-9.56a1.94,1.94,0,0,0-.07-.33c-2-2.25-8.89-.64-11.62.27l-1.86-1.78-6.64,1.1a17.55,17.55,0,0,0-1.51,8.78,6.06,6.06,0,0,0,.26,1.1C560.76,524.25,564.46,523.93,568.84,522.33Z" style="fill:#ffd131"/><path d="M556.91,426.26l.92,91c4.72.66,10-1.44,12.34-4.86l9.29-79.08Z" style="fill:#9aadf4"/><path d="M556.91,426.26l.92,91c4.72.66,10-1.44,12.34-4.86L576.46,440Z" style="fill:#070b3b"/><path d="M598.37,517.34a2.14,2.14,0,0,0-.52-1.32,1.86,1.86,0,0,1,.06.34c.23,3.64-8.09,8.18-11.81,9.56-4.4,1.63-8.07,1.91-9.62-.42,1.13,3.36,5.14,3.23,10.08,1.4C590.28,525.52,598.59,521,598.37,517.34Z" style="fill:#fff;opacity:0.3799999952316284;isolation:isolate"/><path d="M586.1,525.93c3.72-1.38,12-5.92,11.81-9.56a1.86,1.86,0,0,0-.06-.34c-2-2.24-8.9-.63-11.63.28l-1.85-1.77-6.64,1.08a17.81,17.81,0,0,0-1.51,8.79,7,7,0,0,0,.26,1.1C578,527.83,581.7,527.55,586.1,525.93Z" style="fill:#ffd131"/><path d="M574.17,439.21l.92,81.68c4.72.66,10-1.45,12.34-4.87l9.27-79.09Z" style="fill:#070b3b"/><path d="M654,380.83s-4.75,5.22-5,6.35c-.21.9,3.31-1.67,3.31-1.67s2.11-2.69,2.36-4.4a.37.37,0,0,0-.67-.28Z" style="fill:#fca372"/><path d="M638.24,393.49s9.58-5.06,11.41-6.89c1.53-1.54,11.7-4.42,15-5.33a.51.51,0,0,1,.62.39.49.49,0,0,1-.06.39,3.41,3.41,0,0,1-1.76,1.32c-1.94.65-7.47,2.14-7.47,2.14s4.1-.55,4.92.94c.53,1,0,1.22,0,1.22a1.21,1.21,0,0,1-.32,1.48,1.66,1.66,0,0,1-.69,1.38c-.76.55-3.75,2.81-4.23,2.71-.89-.19.32-2,2.06-3,0,0-6.88,5.33-8.54,5.61a39.37,39.37,0,0,0-8.21,2Z" style="fill:#fca372"/><path d="M657.59,386.93c-.06-.11.75-.55,1.82-.36s1.59,1,1.5,1.09-.65-.49-1.58-.64S657.64,387.06,657.59,386.93Z" style="fill:#f26a65"/><path d="M656.74,388.36a2.49,2.49,0,0,1,2.11-.26c1.21.27,1.84,1,1.74,1s-.77-.37-1.84-.6S656.77,388.49,656.74,388.36Z" style="fill:#f26a65"/><path d="M574.52,356.69l-2.3,16.5s7.35,5.8,12.41,6.95l4.14-1.41-1-17.44Z" style="fill:#fca372"/><path d="M572.22,362.46c.1.59-5.19,3.65-5.19,3.65s9.44,11,22.2,8.43l-.46-6.13Z" style="fill:#3d6e73"/><path d="M574.74,352.93s-4.48,4.55,13,12.07c12.17,5.23,9.36-34.23,6.07-36-13.33-7-25.54-1.48-26.79,9.08A14.61,14.61,0,0,0,574.74,352.93Z" style="fill:#fca372"/><path d="M574.52,356.69s-16-12.88-5.13-26.77c8.39-10.73,17.37-5.74,24.86-4.79,6.86.87,7.91,10.69,1.32,12.79l-.62.17c-2.27.55-4.64,1.18-6.88,1.81a14.64,14.64,0,0,0-10.73,13.68,9.36,9.36,0,0,1-.06,1.32,2.06,2.06,0,0,1-2.22,1.9,1.92,1.92,0,0,1-.54-.11Z" style="fill:#070b3b"/><path d="M585.32,340.38v11.25l-3.05,2.43s-1.2-9.21-6.26-6.84C573.39,348.45,585.32,340.38,585.32,340.38Z" style="fill:#070b3b"/><path d="M552.36,428.05s12,24.25,44.34,17.16c0,0,2.58-61.93,2.51-62-2.18-2.81-3.06-5.09-4.93-6.33-9.72-6.38-19.75-9.79-26.91-10.57a9.51,9.51,0,0,0-10.45,8.46.88.88,0,0,0,0,.16Z" style="fill:#3d6e73"/><path d="M597.2,382.07c-1.32-.48-5.15-1.21-6.22-.29-2.46,2.11-6,7.23.25,16.86,8.65,13.4,24.68,18.4,26.66,18,8.5-1.94,31.53-18.92,31.53-18.92-.51-2.55-5.69-8.67-5.69-8.67l-29,13.05S603.36,384.3,597.2,382.07Z" style="fill:#f93a79"/><path d="M597.2,382.07c-1.32-.48-5.15-1.21-6.22-.29-2.46,2.11-6,7.23.25,16.86,8.65,13.4,24.68,18.4,26.66,18,8.5-1.94,31.53-18.92,31.53-18.92-.51-2.55-5.69-8.67-5.69-8.67l-29,13.05S603.36,384.3,597.2,382.07Z" style="fill:#3d6e73"/><path d="M401.46,248.2l-.24-.35c-8.33-12-13.11-25.14-13.11-36.13V150.87l85.58,49.41v61.08c0,10.83-4.66,18.45-12.8,20.9l-.27.08-30,.31Z" style="fill:none;stroke:#3983aa;stroke-miterlimit:10;stroke-width:2.9222300052642822px"/><path d="M401.46,248.2l-.24-.35c-8.33-12-13.11-25.14-13.11-36.13V150.87l85.58,49.41v61.08c0,10.83-4.66,18.45-12.8,20.9l-2,.08-30,.31Z" style="fill:#fff;stroke:#2d6375;stroke-miterlimit:10;stroke-width:2.9222300052642822px"/><path d="M456.71,275.34l-26.13.27-25.33-30c-7-10.12-11.09-21.28-11.09-30.57V161.41l73.38,42.37v53.88C467.54,266.82,463.59,273.27,456.71,275.34Z" style="fill:#2d6375"/><path d="M764.74,247l-20-11.56a4.55,4.55,0,0,1-2.18-3.45v-20c0-1.21,1-1.62,2.18-.92l20,11.56a4.55,4.55,0,0,1,2.18,3.45v20C766.92,247.27,765.94,247.68,764.74,247Z" style="fill:#fff"/><path d="M814.46,257.5l-38.25-22.08a6.43,6.43,0,0,1-3.09-4.89h0c0-1.7,1.38-2.29,3.09-1.3l38.25,22.08a6.4,6.4,0,0,1,3.1,4.88h0C817.59,257.93,816.2,258.49,814.46,257.5Z" style="fill:#fff"/><path d="M814.46,266.61l-38.25-22.09a6.39,6.39,0,0,1-3.09-4.88h0c0-1.71,1.38-2.3,3.09-1.31l38.25,22.09a6.4,6.4,0,0,1,3.1,4.88h0C817.59,267,816.2,267.59,814.46,266.61Z" style="fill:#fff"/><path d="M814.46,275.71l-38.22-22.08a6.43,6.43,0,0,1-3.09-4.89h0c0-1.71,1.38-2.29,3.09-1.3l38.22,22.08a6.4,6.4,0,0,1,3.1,4.88h0C817.59,276.11,816.2,276.7,814.46,275.71Z" style="fill:#fff"/><path d="M764.74,310.35l-20-11.56a4.55,4.55,0,0,1-2.18-3.45v-20c0-1.21,1-1.62,2.18-.92l20,11.56a4.55,4.55,0,0,1,2.18,3.45v20C766.92,310.64,765.94,311.05,764.74,310.35Z" style="fill:#ffd131"/><path d="M814.46,320.87l-38.25-22.08a6.45,6.45,0,0,1-3.09-4.88h0c0-1.71,1.38-2.3,3.09-1.31l38.25,22.08a6.4,6.4,0,0,1,3.1,4.88h0C817.59,321.27,816.2,321.86,814.46,320.87Z" style="fill:#061e43"/><path d="M814.46,330l-38.22-22.05a6.39,6.39,0,0,1-3.09-4.88h0c0-1.71,1.38-2.3,3.09-1.31l38.22,22.05a6.4,6.4,0,0,1,3.1,4.88h0C817.59,330.38,816.2,330.93,814.46,330Z" style="fill:#061e43"/><path d="M814.46,339.08,776.21,317a6.43,6.43,0,0,1-3.09-4.89h0c0-1.71,1.38-2.29,3.09-1.3l38.25,22.12a6.4,6.4,0,0,1,3.1,4.88h0C817.59,339.48,816.2,340.07,814.46,339.08Z" style="fill:#061e43"/><path d="M436.36,97.54c0,3.49-2.82,4.68-6.31,2.67s-6.31-6.47-6.31-10,2.82-4.68,6.31-2.67S436.36,94.05,436.36,97.54Z" style="fill:#ffd131"/><path d="M435.46,346.25c0,3.49-2.82,4.68-6.31,2.67s-6.31-6.47-6.31-10,2.82-4.68,6.31-2.67S435.46,342.76,435.46,346.25Z" style="fill:#ffd131"/><path d="M676.23,484.84c0,3.49-2.83,4.69-6.31,2.67s-6.32-6.47-6.32-10,2.83-4.68,6.32-2.66S676.23,481.36,676.23,484.84Z" style="fill:#ffd131"/><polygon points="800.27 172.5 786.62 179.6 786.61 156.04 800.37 148.02 800.27 172.5" style="fill:#ffd131"/><path d="M676.46,223.49,658,212.84a6.83,6.83,0,0,1-3.3-5.2V189.19c0-1.82,1.47-2.45,3.3-1.39l18.44,10.65a6.83,6.83,0,0,1,3.3,5.2V222.1C679.71,223.93,678.24,224.55,676.46,223.49Z" style="fill:#b5e3df"/><path d="M669.46,205.51a5.48,5.48,0,0,0-2.63-4.15c-1.46-.84-2.63-.34-2.63,1.11a4.36,4.36,0,0,0,.63,2.08c-.16,1.32-.31,2.64-.47,3.95l4.94,2.85c-.16-1.5-.32-3-.47-4.49A1.47,1.47,0,0,0,669.46,205.51Z" style="fill:#061e43"/><polygon points="659.6 198.12 654.67 195.28 654.67 192.99 659.6 195.84 659.6 198.12" style="fill:#4aa4c2"/><polygon points="659.6 202.41 654.67 199.56 654.67 197.27 659.6 200.12 659.6 202.41" style="fill:#4aa4c2"/><polygon points="659.6 206.69 654.67 203.84 654.67 201.55 659.6 204.4 659.6 206.69" style="fill:#4aa4c2"/><polygon points="679.71 209.74 674.78 206.89 674.78 204.6 679.71 207.45 679.71 209.74" style="fill:#4aa4c2"/><polygon points="679.71 214.02 674.78 211.17 674.78 208.88 679.71 211.73 679.71 214.02" style="fill:#4aa4c2"/><polygon points="679.71 218.3 674.78 215.45 674.78 213.17 679.71 216.01 679.71 218.3" style="fill:#4aa4c2"/><path d="M674,199.27a1.34,1.34,0,0,1-1.33-1.33h0v-6.15c0-3.27-2.81-7.65-6.14-9.58-1.53-.88-2.95-1.11-3.81-.61a2.57,2.57,0,0,0-1,2.33v6.15a1.34,1.34,0,1,1-2.67.23.89.89,0,0,1,0-.23v-6.14a5.07,5.07,0,0,1,2.33-4.65c1.72-1,4.08-.76,6.48.62,4.19,2.42,7.47,7.64,7.47,11.89v6.14a1.34,1.34,0,0,1-1.32,1.34Z" style="fill:#b5e3df"/><path d="M441.78,248.52l-21.87-12.59a8.12,8.12,0,0,1-3.91-6.18v-21.9c0-2.16,1.75-2.9,3.91-1.65l21.87,12.63A8.11,8.11,0,0,1,445.7,225v21.87C445.7,249,444,249.77,441.78,248.52Z" style="fill:#ffd131"/><path d="M433.54,227.21a6.5,6.5,0,0,0-3.12-4.93c-1.72-1-3.12-.4-3.12,1.32a5.17,5.17,0,0,0,.75,2.47c-.18,1.56-.37,3.12-.56,4.68l5.86,3.38c-.19-1.78-.38-3.55-.56-5.33A1.72,1.72,0,0,0,433.54,227.21Z" style="fill:#2d6375"/><polygon points="421.85 218.44 416 215.07 416 212.35 421.85 215.73 421.85 218.44" style="fill:#4aa4c2"/><polygon points="421.85 223.52 416 220.15 416 217.43 421.85 220.81 421.85 223.52" style="fill:#4aa4c2"/><polygon points="421.85 228.6 416 225.22 416 222.51 421.85 225.89 421.85 228.6" style="fill:#4aa4c2"/><polygon points="445.7 232.21 439.85 228.84 439.85 226.12 445.7 229.5 445.7 232.21" style="fill:#4aa4c2"/><polygon points="445.7 237.29 439.85 233.92 439.85 231.2 445.7 234.58 445.7 237.29" style="fill:#4aa4c2"/><polygon points="445.7 242.37 439.85 238.99 439.85 236.28 445.7 239.66 445.7 242.37" style="fill:#4aa4c2"/><path d="M438.92,219.81a1.59,1.59,0,0,1-1.59-1.59h0v-7.29c0-3.87-3.33-9.07-7.27-11.35-1.81-1.05-3.5-1.32-4.52-.73a3.07,3.07,0,0,0-1.18,2.77v7.31a1.58,1.58,0,0,1-3.16,0v-7.29a6,6,0,0,1,2.76-5.51c2-1.18,4.84-.91,7.68.73,5,2.87,8.86,9.06,8.86,14.09v7.29A1.59,1.59,0,0,1,438.92,219.81Z" style="fill:#ffd131"/></svg>