<svg viewBox="0 0 512.001 512" xmlns="http://www.w3.org/2000/svg"><path d="m419.070312 133.21875c3.230469-4.820312 5.117188-10.609375 5.117188-16.835938 0-16.722656-13.609375-30.328124-30.339844-30.328124-6.359375 0-12.265625 1.96875-17.148437 5.328124-35.164063-25.855468-76.757813-39.496093-120.699219-39.496093-101.59375 0-187.304688 74.4375-201.910156 174.152343-14.203125 2.519532-25.027344 14.941407-25.027344 29.851563 0 14.90625 10.820312 27.328125 25.015625 29.851563 2.125 14.457031 5.804687 28.660156 10.964844 42.296874 1.132812 3 3.984375 4.847657 7.011719 4.847657.882812 0 1.78125-.15625 2.652343-.488281 3.875-1.464844 5.824219-5.789063 4.359375-9.664063-2.25-5.949219-4.179687-12.019531-5.816406-18.167969 18.308594 19.511719 47.566406 35.746094 84.347656 46.355469 10.890625 38.46875 27.789063 68.550781 48.085938 87.273437-22.097656-6.058593-42.914063-16.15625-61.734375-30.046874 1.46875-3.558594 2.285156-7.453126 2.285156-11.53125 0-16.722657-13.609375-30.332032-30.339844-30.332032-4.136719 0-8.082031.835938-11.679687 2.339844-4.570313-6.136719-8.789063-12.570312-12.570313-19.191406-2.054687-3.597656-6.632812-4.847656-10.230469-2.792969-3.59375 2.050781-4.84375 6.632813-2.789062 10.226563 4.09375 7.171874 8.664062 14.132812 13.617188 20.78125-4.179688 5.199218-6.6875 11.792968-6.6875 18.96875 0 16.722656 13.609374 30.328124 30.339843 30.328124 7.226563 0 13.871094-2.542968 19.085938-6.777343 35.214843 26.007812 76.90625 39.726562 121.015625 39.726562 40.335937 0 79.046875-11.644531 112.421875-33.730469 5.445312 5.191407 12.8125 8.390626 20.914062 8.390626 16.730469 0 30.339844-13.605469 30.339844-30.328126 0-6.945312-2.351563-13.347656-6.292969-18.464843 5.425782-6.5625 10.457032-13.472657 15.007813-20.628907 2.21875-3.492187 1.1875-8.128906-2.308594-10.347656-3.492187-2.222656-8.128906-1.1875-10.347656 2.304688-4.28125 6.734375-9.027344 13.234375-14.140625 19.402344-3.75-1.664063-7.894532-2.59375-12.257813-2.59375-16.726562 0-30.339843 13.605468-30.339843 30.328124 0 3.21875.511718 6.324219 1.445312 9.238282-16.746094 11.125-34.945312 19.410156-54.0625 24.671875 20.265625-18.726563 37.140625-48.785157 48.023438-87.214844 37.144531-10.710937 66.230468-27.035156 84.402343-46.484375-1.976562 7.441406-4.40625 14.773438-7.304687 21.964844-1.546875 3.84375.3125 8.207031 4.15625 9.753906.917968.371094 1.863281.546875 2.796875.546875 2.96875 0 5.78125-1.777344 6.957031-4.699219 9.742188-24.203125 14.683594-49.808594 14.683594-76.113281.003906-44.171875-14.53125-87.488281-41.019532-122.671875zm-303.175781 278.730469c-8.460937 0-15.34375-6.878907-15.34375-15.335938 0-8.453125 6.882813-15.332031 15.34375-15.332031 8.464844 0 15.347657 6.878906 15.347657 15.332031 0 8.457031-6.882813 15.335938-15.347657 15.335938zm273.441407-23.058594c8.464843 0 15.347656 6.878906 15.347656 15.335937 0 8.457032-6.882813 15.335938-15.347656 15.335938-8.460938 0-15.34375-6.878906-15.34375-15.335938 0-8.457031 6.882812-15.335937 15.34375-15.335937zm-.4375-140.496094c-2.832032-11.101562-11.8125-19.773437-23.082032-22.167969-1.300781-16.695312-3.695312-32.894531-7.148437-48.378906 24.507812 7.941406 45.167969 18.613282 60.242187 31.210938 14.503906 12.117187 23.195313 25.585937 25.527344 39.335937zm-46.773438 90.308594c-17.976562 4.625-37.113281 7.746094-57.046875 9.285156-3.03125-10.167969-11.25-18.117187-21.582031-20.75v-41.960937c10.714844-2.730469 19.164062-11.179688 21.902344-21.890625h44.703124c2.632813 10.316406 10.570313 18.527343 20.726563 21.5625-1.488281 18.710937-4.410156 36.738281-8.703125 53.753906zm-86.105469 33.257813c-.007812 0-.011719 0-.019531 0s-.011719 0-.019531 0c-8.453125-.011719-15.328125-6.882813-15.328125-15.332032 0-8.453125 6.875-15.324218 15.328125-15.335937h.019531.019531c8.453125.011719 15.328125 6.882812 15.328125 15.335937 0 8.449219-6.875 15.324219-15.328125 15.332032zm-86.167969-33.261719c-5.96875-23.667969-9.246093-48.949219-9.769531-75.3125h66.519531c2.738282 10.710937 11.1875 19.160156 21.902344 21.894531v41.957031c-10.332031 2.636719-18.554687 10.582031-21.582031 20.75-19.945313-1.542969-39.085937-4.660156-57.070313-9.289062zm-81.046874-90.304688c-2.023438-7.933593-7.191407-14.621093-14.085938-18.667969 10.972656-18.09375 32.945312-34.238281 63.125-46.300781 2.9375 4.789063 7.167969 8.699219 12.199219 11.25-2.933594 17.355469-4.597657 35.359375-4.953125 53.71875zm216.3125-154.347656c13.171874 15.667969 24.226562 37.089844 32.308593 62.453125-23.230469-5.277344-48.421875-8.273438-73.929687-8.761719v-80.238281c14.597656 2.324219 28.855468 11.367188 41.621094 26.546875zm-56.613282-26.550781v80.246094c-19.898437.375-39.355468 2.242187-58.039062 5.558593-2.519532-4.683593-6.234375-8.625-10.730469-11.425781 16.773437-43.117188 41.835937-70.125 68.769531-74.378906zm-84.773437 84.792968c8.460937 0 15.34375 6.878907 15.34375 15.332032 0 8.457031-6.882813 15.335937-15.34375 15.335937-8.464844 0-15.347657-6.878906-15.347657-15.335937 0-8.453125 6.882813-15.332032 15.347657-15.332032zm.964843 45.636719c16.195313-.507812 29.230469-13.761719 29.367188-30.042969 17.523438-3.058593 35.777344-4.78125 54.441406-5.148437v4.886719c0 4.140625 3.355469 7.496094 7.496094 7.496094s7.496094-3.355469 7.496094-7.496094v-4.886719c27.375.546875 54.320312 4.078125 78.625 10.320313 4.296875 17.023437 7.222656 35.054687 8.707031 53.777343-10.15625 3.03125-18.09375 11.246094-20.726563 21.5625h-44.703124c-2.734376-10.710937-11.1875-19.160156-21.902344-21.894531v-25.585938c0-4.140624-3.355469-7.496093-7.496094-7.496093s-7.496094 3.355469-7.496094 7.496093v25.585938c-10.714844 2.734375-19.164062 11.183594-21.902344 21.894531h-66.515624c.34375-17.25 1.890624-34.167969 4.609374-50.46875zm91.304688 73.296875c-8.460938 0-15.34375-6.878906-15.34375-15.332031s6.882812-15.335937 15.34375-15.335937 15.34375 6.882812 15.34375 15.335937-6.882812 15.332031-15.34375 15.332031zm103.5.003906c-8.464844 0-15.347656-6.878906-15.347656-15.335937s6.882812-15.335937 15.347656-15.335937c8.460938 0 15.34375 6.878906 15.34375 15.335937s-6.882812 15.335937-15.34375 15.335937zm49.695312-154.84375c0 8.457032-6.886718 15.335938-15.347656 15.335938-8.460937 0-15.347656-6.878906-15.347656-15.335938 0-8.453124 6.886719-15.335937 15.347656-15.335937 8.460938 0 15.347656 6.882813 15.347656 15.335937zm-42.414062-13.679687c-2.085938 4.113281-3.273438 8.761719-3.273438 13.679687 0 16.726563 13.609376 30.332032 30.339844 30.332032 5.058594 0 9.828125-1.25 14.027344-3.449219 14.519531 19.5 24.949219 41.152344 31.007812 64.164063-18.164062-19.488282-47.28125-35.839844-84.480468-46.570313-10.894532-38.46875-27.789063-68.546875-48.082032-87.265625 21.59375 5.917969 41.972657 15.703125 60.460938 29.109375zm-161.042969-29.058594c-15.90625 14.675781-29.800781 36.347657-40.332031 63.695313-.554688-.027344-1.113281-.046875-1.675781-.046875-16.730469 0-30.339844 13.605469-30.339844 30.328125 0 .480468.011719.960937.035156 1.433594-25.636719 10.113281-46.175781 23.195312-60.207031 38.167968 17.285156-65.320312 68.324219-115.941406 132.519531-133.578125zm-161.679687 182.246094c0-8.457031 6.882812-15.335937 15.347656-15.335937 8.449219 0 15.324219 6.859374 15.34375 15.296874 0 .011719-.003906.027344-.003906.039063s.003906.027344.003906.039063c-.019531 8.4375-6.894531 15.296874-15.34375 15.296874-8.464844 0-15.347656-6.878906-15.347656-15.335937zm30.679687 26.15625c6.886719-4.050781 12.042969-10.734375 14.066407-18.660156h56.285156c.464844 24.503906 3.226562 48.144531 8.222656 70.535156-37.382812-12.164063-65.703125-30.863281-78.574219-51.875zm99.828125 73.222656c16.503906 3.761719 33.839844 6.347657 51.769532 7.707031 2.40625 11.253907 11.074218 20.210938 22.167968 23.042969v58.261719c-14.597656-2.320312-28.851562-11.367188-41.621094-26.546875-13.175781-15.671875-24.230468-37.097656-32.316406-62.464844zm130.550782 62.464844c-12.765626 15.179687-27.023438 24.222656-41.621094 26.546875v-58.261719c11.09375-2.832031 19.761718-11.789062 22.167968-23.042969 17.929688-1.359374 35.265626-3.945312 51.769532-7.707031-8.085938 25.367188-19.140625 46.792969-32.316406 62.464844zm113.792968-115.011719c-15.074218 12.59375-35.734375 23.269532-60.242187 31.210938 3.453125-15.488282 5.847656-31.683594 7.148437-48.378906 11.269532-2.398438 20.25-11.066407 23.082032-22.167969h55.539062c-2.332031 13.75-11.023438 27.214843-25.527344 39.335937zm0 0"/><path d="m437.019531 74.949219c-48.351562-48.332031-112.636719-74.949219-181.019531-74.949219s-132.667969 26.617188-181.019531 74.949219c-48.351563 48.328125-74.980469 112.589843-74.980469 180.941406s26.628906 132.609375 74.980469 180.941406c48.351562 48.332031 112.636719 74.949219 181.019531 74.949219s132.671875-26.617188 181.023438-74.949219c48.347656-48.332031 74.976562-112.589843 74.976562-180.941406s-26.628906-132.613281-74.980469-180.941406zm-10.597656 351.28125c-45.519531 45.5-106.042969 70.558593-170.421875 70.558593s-124.902344-25.058593-170.421875-70.558593c-45.515625-45.5-70.585937-105.996094-70.585937-170.339844 0-64.347656 25.070312-124.839844 70.585937-170.339844 45.519531-45.5 106.042969-70.558593 170.421875-70.558593s124.902344 25.058593 170.421875 70.558593c45.515625 45.5 70.582031 105.992188 70.582031 170.339844 0 64.34375-25.066406 124.839844-70.582031 170.339844zm0 0"/></svg>