<?xml version="1.0" encoding="utf-8"?>
<!-- Generator: Adobe Illustrator 25.2.0, SVG Export Plug-In . SVG Version: 6.00 Build 0)  -->
<svg version="1.1" id="Layer_1" xmlns="http://www.w3.org/2000/svg" xmlns:xlink="http://www.w3.org/1999/xlink" x="0px" y="0px"
	 viewBox="0 0 480 480" style="enable-background:new 0 0 480 480;" xml:space="preserve">
<g id="_OUTLINE">
	<path d="M443.7,200.8L436,172l25.5-28.1l-27.7-47.9l-37,8.1l-21.1-21.1l8.1-37L336,18.4L308,44l-28.8-7.7L267.6,0h-55.3l-11.6,36.3
		L172,44L144,18.4L96.1,46.1l8.1,37l-21.1,21.1l-37-8.1L18.4,144L44,172l-7.7,28.8L0,212.4v55.3l36.3,11.6L44,308L18.4,336
		l27.7,47.9l37-8.1l7.2,7.2l11.3-11.3l-13.4-13.4l-34.2,7.5l-16-27.6l23.6-25.9l-12.2-45.6L16,256V224l33.5-10.7l12.2-45.6
		l-23.6-25.9l16-27.6l34.2,7.5l33.4-33.4l-7.5-34.2l27.6-16l25.9,23.6l45.6-12.2L224,16H256l10.7,33.5l45.6,12.2l25.9-23.6l27.6,16
		l-7.5,34.2l33.4,33.4l34.2-7.5l16,27.6l-23.6,25.9l12.2,45.6L464,224V256l-33.5,10.7l-12.2,45.6l23.6,25.9l-16,27.6l-34.2-7.5
		l-12,12l11.3,11.3l5.9-5.9l37,8.1l27.7-47.9L436,308l7.7-28.8l36.3-11.6v-55.3L443.7,200.8z"/>
	<path d="M368,348.8c25.8-30.4,40-68.9,40-108.8c0-92.6-75.4-168-168-168S72,147.4,72,240c0,39.9,14.2,78.4,40,108.8V464H0v16h480
		v-16H368V348.8z M176,464h-16v-24h16V464z M208,464h-16v-40h-48v40h-16V248h80V464z M208,232h-24v-19.3l-18.3-18.3
		c5.7-12,0.7-26.3-11.3-32c-12-5.7-26.3-0.7-32,11.3c-5.7,12-0.7,26.3,11.3,32c6.5,3.1,14.2,3.1,20.7,0l13.7,13.7V232h-56v90
		c-15.7-24.5-24-52.9-24-82c0-83.8,68.2-152,152-152s152,68.2,152,152c0,29.1-8.3,57.5-24,82V200h-64v-12.7l5.7-5.7
		c12,5.7,26.3,0.7,32-11.3c5.7-12,0.7-26.3-11.3-32c-12-5.7-26.3-0.7-32,11.3c-3.1,6.5-3.1,14.2,0,20.7L288,180.7V200h-16v-49.4
		c12.5-4.4,19-18.1,14.6-30.6s-18.1-19-30.6-14.6c-12.5,4.4-19,18.1-14.6,30.6c2.4,6.8,7.8,12.2,14.6,14.6V200h-16v-27.3l-24.4-24.4
		c2.4-13.1-6.3-25.6-19.3-28s-25.6,6.3-28,19.3c-2.4,13.1,6.3,25.6,19.3,28c7,1.3,14.1-0.6,19.6-5.1l16.8,16.8V200h-16L208,232z
		 M152,184c0,4.4-3.6,8-8,8s-8-3.6-8-8s3.6-8,8-8C148.4,176,152,179.6,152,184z M312,160c0-4.4,3.6-8,8-8s8,3.6,8,8s-3.6,8-8,8
		C315.6,168,312,164.4,312,160z M264,136c-4.4,0-8-3.6-8-8c0-4.4,3.6-8,8-8s8,3.6,8,8C272,132.4,268.4,136,264,136z M200,144
		c0,4.4-3.6,8-8,8s-8-3.6-8-8s3.6-8,8-8C196.4,136,200,139.6,200,144z M304,464h-32v-24h32V464z M352,464h-32v-40h-64v40h-32V216
		h128V464z"/>
	<path d="M240,232h16v16h-16V232z"/>
	<path d="M280,232h16v16h-16V232z"/>
	<path d="M320,232h16v16h-16V232z"/>
	<path d="M240,264h16v16h-16V264z"/>
	<path d="M280,264h16v16h-16V264z"/>
	<path d="M320,264h16v16h-16V264z"/>
	<path d="M240,296h16v16h-16V296z"/>
	<path d="M280,296h16v16h-16V296z"/>
	<path d="M320,296h16v16h-16V296z"/>
	<path d="M240,328h16v16h-16V328z"/>
	<path d="M280,328h16v16h-16V328z"/>
	<path d="M320,328h16v16h-16V328z"/>
	<path d="M240,360h16v16h-16V360z"/>
	<path d="M280,360h16v16h-16V360z"/>
	<path d="M320,360h16v16h-16V360z"/>
	<path d="M240,392h96v16h-96V392z"/>
	<path d="M144,264h16v16h-16V264z"/>
	<path d="M144,304h16v16h-16V304z"/>
	<path d="M176,304h16v16h-16V304z"/>
	<path d="M144,344h16v16h-16V344z"/>
	<path d="M176,344h16v16h-16V344z"/>
	<path d="M144,384h16v16h-16V384z"/>
	<path d="M176,384h16v16h-16V384z"/>
	<path d="M176,264h16v16h-16V264z"/>
</g>
</svg>
