<svg id="a89ca489-4674-468f-83d4-a27355ce1b29" data-name="ad3a8df1-acf1-4ce1-8c84-2ac05318ce6c" xmlns="http://www.w3.org/2000/svg" xmlns:xlink="http://www.w3.org/1999/xlink" viewBox="0 0 419.83 309.61"><defs><linearGradient id="baf7ccd7-55b2-4ce3-8d75-4518262419a6" x1="6204.14" y1="-774.83" x2="6201.04" y2="-747.72" gradientTransform="translate(-6124.52 1052.85)" gradientUnits="userSpaceOnUse"><stop offset="0" stop-color="#ff928e"/><stop offset="1" stop-color="#feb3b1"/></linearGradient><linearGradient id="f90dabe8-7235-45eb-a4c1-73db1907d74a" x1="6843.68" y1="-586.6" x2="6841.35" y2="-566.3" gradientTransform="matrix(0.96, 0.27, -0.27, 0.96, -6592.09, -1027.74)" xlink:href="#baf7ccd7-55b2-4ce3-8d75-4518262419a6"/></defs><g id="ef10422c-63f9-4099-854e-5de98e4a2b19" data-name="a2a3d824-1dbf-4350-a85a-203b5465a5fd"><path d="M362.94,187.63c-4.18,10.16-4.65,22.42-3.19,33.19,1.42,10.51,4.32,20.74,5.17,31.36a101.13,101.13,0,0,1-1.78,30.36,88.64,88.64,0,0,1-9.83,25.07c-.4.69-.79,1.37-1.2,2H33.66c-2-9.05-4.22-18.08-6.35-27.11-4.37-18.37-8.37-36.83-10.09-55.71-2.21-24.86.21-57.84,28-67.66,14-5,29.52-1,43.59-6,22.35-7.87,30.5-31.76,42.15-50,9-14,20.7-25.78,36-33,13.26-6.27,23.88-7.46,32.92-5.53a40.33,40.33,0,0,1,8.56,2.89c3.83,3.07,7.8,6.1,11.91,8.86,1.82,1.22,3.61,2.49,5.48,3.65a98.39,98.39,0,0,0,20.78,9.66c16.58,5.46,34.29,6.36,51.56,4.46a191.8,191.8,0,0,0,25.05-4.67c7.45-1.85,14.52-5,22.07-6.57,7.2-1.49,14.89-1.17,21.63,1.92,14,6.4,20.76,22.49,21.05,37,.24,12.76-3.24,25.39-8.64,36.9C374.58,168.77,367.2,177.36,362.94,187.63Z" style="fill:#a8e3f7;opacity:0.550000011920929;isolation:isolate"/><g style="opacity:0.5099999904632568"><path d="M81.94,43.44v6a1.25,1.25,0,0,0,1.25,1.25h2.25a.64.64,0,0,1,.63.49,17.71,17.71,0,0,0,2,4.59h0l-1.89,1.89a1.25,1.25,0,0,0,0,1.77h0l4.25,4.24a1.22,1.22,0,0,0,1.74,0h0l2-2h0a18,18,0,0,0,5.13,2h0v2.67a1.25,1.25,0,0,0,1.25,1.25h6a1.25,1.25,0,0,0,1.25-1.25V63.58h0a17.46,17.46,0,0,0,5.08-2.18h0l1.89,1.89a1.26,1.26,0,0,0,1.77,0h0l4.24-4.24a1.24,1.24,0,0,0,0-1.76h0l-1.6-1.6a.66.66,0,0,1-.1-.8,16.84,16.84,0,0,0,1.67-4.18.68.68,0,0,1,.64-.51h2.16A1.24,1.24,0,0,0,124.88,49V43a1.25,1.25,0,0,0-1.25-1.25h-2.26a.65.65,0,0,1-.64-.49A17.4,17.4,0,0,0,119,37.11a.65.65,0,0,1,.1-.81l1.52-1.53a1.24,1.24,0,0,0,0-1.76h0l-4.24-4.24a1.26,1.26,0,0,0-1.77,0h0l-2,2h0a18.28,18.28,0,0,0-4.63-1.87.65.65,0,0,1-.5-.64V26a1.25,1.25,0,0,0-1.25-1.25h-6A1.26,1.26,0,0,0,99,26V28.3a.67.67,0,0,1-.51.69,18,18,0,0,0-4.16,1.77.64.64,0,0,1-.8-.1L92,29.14a1.24,1.24,0,0,0-1.74,0h0l-4.27,4.24a1.25,1.25,0,0,0,0,1.77h0l1.6,1.6a.68.68,0,0,1,.11.8A18.69,18.69,0,0,0,86,41.73a.64.64,0,0,1-.64.51H83.16A1.26,1.26,0,0,0,81.94,43.44ZM94.78,41A8.06,8.06,0,0,1,98,37.72c9.45-5.07,19,4.43,14,13.9a7.87,7.87,0,0,1-3.27,3.27c-9.46,5-19-4.45-14-13.9Z" style="fill:#a8e3f7;opacity:0.550000011920929;isolation:isolate"/><circle cx="103.41" cy="46.24" r="6.31" style="fill:#a8e3f7;opacity:0.550000011920929;isolation:isolate"/></g><g style="opacity:0.5099999904632568"><polygon points="270.74 69.65 270.74 48.59 268.55 48.59 268.55 71.83 308.05 71.83 308.05 69.65 270.74 69.65" style="fill:#a8e3f7;opacity:0.550000011920929;isolation:isolate"/><rect x="272.89" y="63.67" width="3.83" height="4.31" style="fill:#a8e3f7;opacity:0.550000011920929;isolation:isolate"/><rect x="280.19" y="59.2" width="3.83" height="8.78" style="fill:#a8e3f7;opacity:0.550000011920929;isolation:isolate"/><rect x="287.49" y="63.67" width="3.83" height="4.31" style="fill:#a8e3f7;opacity:0.550000011920929;isolation:isolate"/><rect x="294.78" y="54.73" width="3.83" height="13.25" style="fill:#a8e3f7;opacity:0.550000011920929;isolation:isolate"/><rect x="302.08" y="59.2" width="3.83" height="8.78" style="fill:#a8e3f7;opacity:0.550000011920929;isolation:isolate"/><path d="M283.25,52.42l3.87,3.51a.79.79,0,0,0,1,.08l9.8-6.41.61.94.87-1.71.86-1.71-1.91.11-1.91.11.58.88-9.27,6.07-3.86-3.5a.86.86,0,0,0-1-.09l-9.44,6,.88,1.39Z" style="fill:#a8e3f7;opacity:0.550000011920929;isolation:isolate"/></g><g style="opacity:0.550000011920929"><circle cx="184.87" cy="12.82" r="3.42" style="fill:#a8e3f7"/><path d="M189.94,21.48H179.79a4.61,4.61,0,0,1,4.59-4.61h1a4.6,4.6,0,0,1,4.6,4.6h0Z" style="fill:#a8e3f7"/><circle cx="198.4" cy="12.82" r="3.42" style="fill:#a8e3f7"/><path d="M203.44,21.48H193.33a4.61,4.61,0,0,1,4.59-4.61h1a4.6,4.6,0,0,1,4.6,4.6h-.08Z" style="fill:#a8e3f7"/><circle cx="171.33" cy="12.82" r="3.42" style="fill:#a8e3f7"/><path d="M176.44,21.48H166.25a4.61,4.61,0,0,1,4.59-4.61h1a4.6,4.6,0,0,1,4.64,4.56v.05Z" style="fill:#a8e3f7"/><path d="M198.44,6.53a.24.24,0,0,1-.24-.24h0V.55H171.54V6.29a.25.25,0,0,1-.29.2.26.26,0,0,1-.2-.2v-6a.27.27,0,0,1,.24-.25h27.15a.25.25,0,0,1,.25.25v6A.25.25,0,0,1,198.44,6.53Z" style="fill:#a8e3f7"/><path d="M184.87,6.53a.25.25,0,0,1-.25-.24v-6A.24.24,0,0,1,184.8,0h0a.26.26,0,0,1,.29.19.17.17,0,0,1,0,.1v6a.24.24,0,0,1-.24.24Z" style="fill:#a8e3f7"/><circle cx="198.47" cy="6.82" r="0.79" style="fill:#a8e3f7"/><circle cx="184.85" cy="6.82" r="0.79" style="fill:#a8e3f7"/><circle cx="171.26" cy="6.82" r="0.79" style="fill:#a8e3f7"/></g><path d="M415,170.62l-17.17-5.39-7,22.26a6.89,6.89,0,0,0,4.49,8.65h0l17.17,5.42,7-22.25a6.9,6.9,0,0,0-4.46-8.68h0Zm-21.17,18.61-.28-3,1.11-.11.15,1.57,3.18-1.13.38,1.06Zm2.14-6.81-.27-3,1.11-.11.15,1.58,3.18-1.13.37,1Zm2.15-6.81-.27-3,1.11-.1.14,1.57L402.3,173l.37,1ZM412.5,194l-12.56-4,.47-1.5,12.57,4Zm2.15-6.8-12.56-4,.47-1.5,12.57,4Zm2.15-6.81-12.57-4,.48-1.5,12.56,4Z" style="fill:#a8e3f7;opacity:0.550000011920929;isolation:isolate"/><g style="opacity:0.5099999904632568"><path d="M368.74,34.48A12.5,12.5,0,0,1,373.07,32l.3,2.2,7.07-5.5-8.3-3.41.31,2.22a16.31,16.31,0,0,0-6.27,4.59,15.5,15.5,0,0,0-3.53,8.59,15,15,0,0,0,1.94,8.72,14.44,14.44,0,0,0,6.35,5.88A13.84,13.84,0,0,1,365.66,49,13.1,13.1,0,0,1,365,41.1,12.51,12.51,0,0,1,368.74,34.48Z" style="fill:#a8e3f7;opacity:0.550000011920929;isolation:isolate"/><path d="M390.73,36.23a14.58,14.58,0,0,0-6.66-5.88,13.9,13.9,0,0,1,5.61,6.42,13,13,0,0,1,.71,8.13,12.46,12.46,0,0,1-4,6.67,12.08,12.08,0,0,1-4.24,2.34l-.31-2.13-7,5.55,8.32,3.32-.34-2.37a16.11,16.11,0,0,0,6.09-4.22,15.54,15.54,0,0,0,3.87-8.8A14.9,14.9,0,0,0,390.73,36.23Z" style="fill:#a8e3f7;opacity:0.550000011920929;isolation:isolate"/><path d="M383,43a5.34,5.34,0,1,1-5.34-5.34h0A5.35,5.35,0,0,1,383,43Z" style="fill:#a8e3f7;opacity:0.550000011920929;isolation:isolate"/></g><path d="M336.24,267.57" style="fill:#5ecff5"/><path d="M337.61,267a.2.2,0,0,1-.1.28h0" style="fill:#5ecff5"/><path d="M22.33,103.75a20.79,20.79,0,0,0-13.48,5l.27-1.38a.94.94,0,0,0-.25-.84l-3.93-4a.93.93,0,0,0-1.31,0h0a1.13,1.13,0,0,0-.25.47l-.31,1.59a1,1,0,0,1-.73.73l-1.59.31A.92.92,0,0,0,0,106.72H0a.83.83,0,0,0,.25.47l3.91,3.91a.91.91,0,0,0,.84.25l1.38-.27a20.83,20.83,0,1,0,15.91-7.39Zm0,37.42a16.54,16.54,0,0,1-12.26-27.64l2.9,2.89a12.46,12.46,0,1,0,1.16-1.19l-2.89-2.9a16.54,16.54,0,1,1,11.09,28.81Zm-3.39-18.82a4.15,4.15,0,1,0,1.12-1.12l-2.95-3a8.25,8.25,0,1,1-1.17,1.17Z" style="fill:#a8e3f7;opacity:0.550000011920929;isolation:isolate"/></g><g id="b2deacfa-724f-4307-b5d2-ea9e249255f7" data-name="ae6f552e-714f-4c00-9d52-416514531c76"><path d="M181.84,119.88a1.63,1.63,0,0,1,1.88-1.2,1.68,1.68,0,0,1,.79.29c15.43,10.37,102.32,73.82,47.06,154C231.57,272.94,161.74,243.7,181.84,119.88Z" style="fill:#73d0d9"/><path d="M189.28,135.08a.32.32,0,0,1,.39.1c3,4.69,5.93,9.43,8.79,14.19s5.64,9.55,8.37,14.36c5.45,9.63,10.65,19.37,15.49,29.25s9.33,19.88,13.18,30.07q2.92,7.63,5.17,15.46a117.22,117.22,0,0,1,3.49,15.81.62.62,0,0,1-.6.65.66.66,0,0,1-.75-.51h0a116.64,116.64,0,0,0-3.37-15.69q-2.17-7.77-5.05-15.4c-3.77-10.18-8.2-20.18-13-30.05s-9.91-19.64-15.29-29.29q-4-7.23-8.28-14.39t-8.69-14.21h0a.23.23,0,0,1,.09-.34Z" style="fill:#fff;opacity:0.8600000143051147;isolation:isolate"/><path d="M351.6,146.33a1.65,1.65,0,0,0-1.85-1.29,1.88,1.88,0,0,0-.79.25c-16.32,9.44-108.59,67.63-58.72,149.72C290.25,295,362.81,269.75,351.6,146.33Z" style="fill:#4a878c"/><path d="M342.6,161.07c-3.39,4.48-6.67,9-9.9,13.56s-6.39,9.15-9.49,13.77-6.13,9.27-9.1,13.95-5.84,9.4-8.65,14.15c-5.6,9.5-10.86,19.14-15.49,29q-3.5,7.4-6.34,15A115.26,115.26,0,0,0,279,276a.55.55,0,0,0,.5.62h0a.64.64,0,0,0,.74-.42h0a116.17,116.17,0,0,1,4.56-15.34q2.78-7.57,6.23-15c4.55-9.86,9.75-19.51,15.29-29q4.17-7.12,8.56-14.16t9-14q4.62-6.94,9.41-13.79c3.2-4.57,6.45-9.11,9.81-13.6h0a.2.2,0,0,0-.08-.3h0A.3.3,0,0,0,342.6,161.07Z" style="fill:#fff;opacity:0.8600000143051147;isolation:isolate"/><path d="M72.74,110.78a1.83,1.83,0,0,1,2-1.6,2,2,0,0,1,1.68.91c8.57,14.85,32.46,53.19,60.32,71.13,45.34,29.22,82.86,82.38,65.17,115.77C201.89,297,66.44,297.18,72.74,110.78Z" style="fill:#2d6375"/><path d="M81.94,132.45c.14.36.34.82.52,1.24L83,135l1.19,2.54,2.43,5.07q2.48,5.06,5.09,10.06,5.19,10,10.81,19.87c7.55,13.11,15.49,26.06,24.23,38.6,4.41,6.25,8.84,12.5,13.58,18.57s9.64,12.05,14.81,17.85A250.2,250.2,0,0,0,189.5,280a.29.29,0,0,1,0,.46.44.44,0,0,1-.54,0h0a211,211,0,0,1-18.73-15.11c-5.88-5.36-11.39-11-16.72-16.76a349.9,349.9,0,0,1-28.74-36.49c-4.37-6.31-8.5-12.74-12.49-19.21s-7.85-13-11.47-19.68S93.7,159.89,90.4,153.13q-2.46-5.07-4.8-10.19c-.77-1.71-1.54-3.41-2.28-5.13l-1.09-2.59-.52-1.3c-.17-.44-.35-.85-.51-1.36a.33.33,0,0,1,.3-.38.4.4,0,0,1,.43.2Z" style="fill:#fff;opacity:0.4300000071525574;isolation:isolate"/><path d="M217.46,296.94V220.12c0-9.15,9.29-16.56,20.75-16.56H309.8c11.46,0,20.75,7.41,20.75,16.56v76.82Z" style="fill:#071841"/><path d="M138.13,300.76V274.27c0-4.28,7.87-7.75,17.58-7.75h60.65c9.71,0,17.58,3.46,17.58,7.75v26.49Z" style="fill:#4aa4c2"/><path d="M123.78,300.76V274.27c0-4.28,7.87-7.75,17.58-7.75H202c9.71,0,17.58,3.46,17.58,7.75v26.49Z" style="fill:#5ecff5"/><path d="M88.34,300.18a.7.7,0,0,0,0-.29c-1.73-5.83-10.3-9.46-10.3-9.46l-2.19.14a1.75,1.75,0,0,0-1.56,1.09c-1.6,4.68-1.3,7.53-1,8.78h0A93.72,93.72,0,0,0,88.34,300.18Z" style="fill:#071841"/><path d="M73.26,300.46a1.39,1.39,0,0,0,1.08.93c4,.71,10.31.14,13-.16a1.11,1.11,0,0,0,1-1.06A93.62,93.62,0,0,1,73.26,300.46Z" style="fill:#2d6375"/><path d="M76.45,285.29l-1.75,7a1.25,1.25,0,0,0,1.14.93,12.84,12.84,0,0,0,2.63,0,1.46,1.46,0,0,0,1.33-1.68h0l2.29-6.19Z" style="fill:url(#baf7ccd7-55b2-4ce3-8d75-4518262419a6)"/><path d="M136,269.31a21,21,0,0,1-6-.73v.87a.59.59,0,0,0,.62.57l18.42-.1a.76.76,0,0,0,.77-.77.62.62,0,0,0-.09-.27C147.36,269.05,141.21,269.43,136,269.31Z" style="fill:#2d6375"/><path d="M149.78,268.88v0c-1.56-1.9-5.71-5.85-14-7.56l-3.05-.08a1.33,1.33,0,0,0-1.25.7,15.57,15.57,0,0,0-1.39,6.65,21.09,21.09,0,0,0,6,.73C141.22,269.43,147.36,269.05,149.78,268.88Z" style="fill:#071841"/><path d="M133.52,256.45c0,.25-.72,4-1,5.49a.7.7,0,0,0,.48.8,10.41,10.41,0,0,0,2.61.58,1.14,1.14,0,0,0,1.16-.75l1.87-5.73Z" style="fill:url(#f90dabe8-7235-45eb-a4c1-73db1907d74a)"/><path d="M95.61,217.56a34.33,34.33,0,0,0-5.85,13.73c-1.35,7.47-12.84,49.37-14.68,56a1,1,0,0,0,.82,1.12h0a21.81,21.81,0,0,0,4.42.45,2.07,2.07,0,0,0,1.8-1.06l27.39-54s18.22-3,24.91,3.74c4,4,1.37,11.17-2.18,21.23,0,0,4.39,1.86,7.32.62,0,0,13.66-18.19,8.06-29.33-2.59-5.16-13.78-10.25-24.91-11.24Z" style="fill:#071841"/><path d="M95.61,217.56l6.6-49.93s28.57,0,46.89,8.74l-23.73,42.12a7.79,7.79,0,0,1-6.89,3.7A62.25,62.25,0,0,1,95.61,217.56Z" style="fill:#66c2ab"/><path d="M172.92,163s-1.83,15.92-23.81,13.42c0,0-8.43,7.93-8.61,14.89,0,0,40.11,8.83,36.45-26.74Z" style="fill:#66c2ab"/><path d="M92.7,211.93s2.93-4.36,7.32-3.74a9.82,9.82,0,0,1,6.6,4.37l-7.33,3.12C96.36,216.94,91.24,215.69,92.7,211.93Z" style="fill:#fca372"/><path d="M101.49,183.23S64.12,197.59,92.7,212l.62,3.11s-22.73,2.79-23.71-19.67c-.73-16.85,32.6-27.77,32.6-27.77Z" style="fill:#66c2ab"/><path d="M125.51,160.14l-5.38,9.8s6,3.74,12.09,2.28l1.56-13.92Z" style="fill:#fca372"/><path d="M138.77,149.47c.11.17,2.38,13.28,2.38,13.28l-8.81.94L128,151.54S136.92,146.51,138.77,149.47Z" style="fill:#fca372"/><path d="M131.27,152.77a1,1,0,0,0-.27.94l1.67,6.45a1.23,1.23,0,0,0,.12.26,2.23,2.23,0,0,0,3.19.9,11.88,11.88,0,0,1,4.07-1.9,1.25,1.25,0,0,1,1.45.92h0a34.31,34.31,0,0,1,.52,6,1.17,1.17,0,0,1-1.19,1.07,41.86,41.86,0,0,1-8-.27,1.22,1.22,0,0,1-1-.74c-.62-1.68-2.39-6.38-3.12-7.66s-2.73-1.39-3.67-1.43a1.38,1.38,0,0,1-.94-.39c-.69-.69-1.78-2.25.37-3.74a1,1,0,0,0,.17-1.5,2.18,2.18,0,0,1,.26-3.53,4.54,4.54,0,0,1,4.75-.53,1.51,1.51,0,0,0,1.57-.25,1,1,0,0,1,.79-.24,1.23,1.23,0,0,0,1.41-.9h0c.16-1,.81-2.2,2.92-2.52a4.84,4.84,0,0,1,5.65,5c-.1,2.33-4.35,2.75-6.75,2.34C133.51,150.75,132,152.06,131.27,152.77Z" style="fill:#061e43"/><path d="M129.37,161.1s0-4-1.94-4.45-4,.76-2.4,3.2C127,162.87,129.37,161.1,129.37,161.1Z" style="fill:#fca372"/><polygon points="142.88 152.96 203.69 144.85 202.96 161.08 142.88 156.71 142.88 152.96" style="fill:#506c75"/><path d="M201.6,144.28c-.31,3.21,0,13.33.17,16.66A1.25,1.25,0,0,0,203.1,162h1a1.57,1.57,0,0,0,1.62-1.17,64.23,64.23,0,0,0,1.33-16.57,1.19,1.19,0,0,0-1.25-1h-3A1.22,1.22,0,0,0,201.6,144.28Z" style="fill:#506c75"/><path d="M144,152h-1.8a.6.6,0,0,0-.59.41,13.56,13.56,0,0,0,.06,4.76.56.56,0,0,0,.59.45h1.14a.57.57,0,0,0,.6-.46l.6-4.6a.55.55,0,0,0-.54-.56Z" style="fill:#506c75"/><path d="M172.92,163s.33-3.61.9-4,5-4.12,5.69-4.12,1.47,1.25,0,1.86a3.71,3.71,0,0,0-1.83,2.53l4,.29s-2.88,4.67-4.35,5.29S172.92,163,172.92,163Z" style="fill:#fca372"/></g></svg>