<svg id="bcbb5c7d-d9ca-46d9-a5b5-4eeddd590614" data-name="Layer 1" xmlns="http://www.w3.org/2000/svg" xmlns:xlink="http://www.w3.org/1999/xlink" viewBox="0 0 438.4 354.6"><defs><linearGradient id="aef6461b-74d2-4574-8b08-1d5524beb907" x1="395.22" y1="1164.26" x2="395.22" y2="1134.56" gradientTransform="translate(-889.92 1030.65) rotate(-111.7)" gradientUnits="userSpaceOnUse"><stop offset="0.04" stop-color="#214f95"/><stop offset="1" stop-color="#14408f"/></linearGradient><linearGradient id="ed1da4e7-f871-42c3-818e-33524f122353" x1="117.43" y1="2822.98" x2="117.43" y2="2792.72" gradientTransform="matrix(0.18, -0.98, -0.98, -0.18, 3116.75, 865.76)" xlink:href="#aef6461b-74d2-4574-8b08-1d5524beb907"/></defs><g id="ed512c59-210c-4d67-ac1d-e3e38faf609d" data-name="b182b7be-e636-46c0-80aa-6522afe9fa29"><path d="M381.5,187.64c-4.18,10.16-4.65,22.42-3.19,33.19,1.42,10.51,4.32,20.74,5.17,31.36a101.15,101.15,0,0,1-1.78,30.36,88.76,88.76,0,0,1-9.83,25.07c-.4.69-.79,1.37-1.2,2H52.22c-2-9.05-4.22-18.08-6.35-27.11-4.37-18.37-8.37-36.83-10.09-55.71-2.21-24.86.21-57.84,28-67.66,14-5,29.52-1,43.59-6,22.35-7.87,30.5-31.76,42.15-50,9-14,20.7-25.78,36-33,13.26-6.27,23.88-7.46,32.92-5.53A40.16,40.16,0,0,1,227,67.5c3.83,3.07,7.8,6.1,11.91,8.86,1.82,1.22,3.61,2.49,5.48,3.65a98.39,98.39,0,0,0,20.78,9.66c16.58,5.46,34.29,6.36,51.56,4.46a192.11,192.11,0,0,0,25.05-4.67c7.45-1.85,14.52-5,22.07-6.57,7.2-1.49,14.89-1.17,21.63,1.92,14,6.4,20.76,22.49,21.05,37,.24,12.76-3.24,25.39-8.64,36.9C393.14,168.78,385.76,177.37,381.5,187.64Z" style="fill:#a8e3f7;opacity:0.550000011920929;isolation:isolate"/><path d="M66,333.6c0,2.36-14.77,4.28-33,4.28S0,336,0,333.6s14.77-4.29,33-4.29S66,331.24,66,333.6Z" style="fill:#b5e3df;opacity:0.5400000214576721;isolation:isolate"/><ellipse cx="177.32" cy="350.31" rx="33" ry="4.29" style="fill:#b5e3df;opacity:0.5400000214576721;isolation:isolate"/><path d="M401.41,346.36c0,2.37-14.77,4.29-33,4.29s-33-1.92-33-4.29,14.78-4.28,33-4.28S401.41,344,401.41,346.36Z" style="fill:#b5e3df;opacity:0.5400000214576721;isolation:isolate"/><path d="M47.35,245.55a1.59,1.59,0,0,1,.49-1c2.29-2,8.23-7.69,9.86-6.94,1.81.84-7.31,10.43-8.34,10.19S47.12,247.64,47.35,245.55Z" style="fill:#fca372"/><path d="M55.55,238.34s1.82-1.7,3.34-1.28a3.31,3.31,0,0,1,2.41,2c.16.5-.08,1.37-.4,1.07s-2.07-1.64-2.24-.89,1,1.06.31,1.58-2.45-2-2.45-2Z" style="fill:#fca372"/><path d="M39.29,226.24a2.84,2.84,0,0,0-.62,3c1.59,4.62,7.16,20,10.65,19.1,4.11-1.1-1.64-14.48-3.82-18.1C43.72,227.15,41.18,224.41,39.29,226.24Z" style="fill:#e0b59d"/><path d="M37.2,231.24l.65,1.28,5.65,10.8L46,242h0l3.9-2a58.43,58.43,0,0,0-2.39-7.65c-1.09-3.16-1.71-5.44-2.83-6-.06,0-3.53-1.23-3.59-1.24a2.44,2.44,0,0,0-.44-.19l-1.25,2.28Z" style="fill:url(#aef6461b-74d2-4574-8b08-1d5524beb907)"/><path d="M56.23,241.94s-.87,1.11-2.19,2.53a29,29,0,0,1-5.54,4.77c-1.5.91-3,1.39-4.11.92-2.1-.85-3.84-7.37-3.84-7.37L45.22,227s2.06,1.25,5.17,14.48l3.51-2.36Z" style="fill:#4aa4c2"/><path d="M54,244.47a29,29,0,0,1-5.54,4.77l-2.43-.16s-2-5.61-2-5.81,2.71-8.8,2.71-8.8.13,11.62,2,11.71C51.5,246.33,53,245,54,244.47Z" style="fill:#4aa4c2"/><path d="M33.18,213c-.74,2.87,2,8.42,2,8.42l-1,2.94-.68,2.81,4,3.5L40,226.38l1-2.95s2.81.31,3.65-1.81,4.72-10.45-1.3-13.12S33.91,210.11,33.18,213Z" style="fill:#fca372"/><path d="M46.66,214.14s-6.87-2.46-7.69-.61-.49,3.5-1,3.58-1.26-3.24-2.45-2.32.38,3.79-.68,5.51c-.38.63-2.56-6.14-2-9.14s3.19-6,8-5.34c1.82.26,7.31-.53,8.39.7C51,208.53,47.6,213,46.66,214.14Z" style="fill:#070b3b"/><path d="M31.61,266.54a4.16,4.16,0,0,0-5,3.17l0,.14a27.9,27.9,0,0,0-.43,7.63c.55,8.11-.93,17.7,1.88,19.25s6-3.14,7-11.05c.83-7.15,3.41-15.65,1.57-17.18A15.32,15.32,0,0,0,31.61,266.54Z" style="fill:#e0b59d"/><path d="M39.79,265.86a4.17,4.17,0,0,0-4.37,3.94v.11a27.87,27.87,0,0,0,.79,7.61c1.84,7.91,1.91,17.62,4.93,18.7S46.33,292,46,284.06c-.32-7.19,1.15-15.85-.91-17.07A15.46,15.46,0,0,0,39.79,265.86Z" style="fill:#e0b59d"/><path d="M30.56,294.24c-4.3-6.07-13.72,22.55-14.84,30.77s2.77,2.46,8.11-9.44S32.26,296.59,30.56,294.24Z" style="fill:#e0b59d"/><path d="M43.32,293.17c-6.33-3.9-3.83,26.12-1.65,34.13s3.5,1.18,3.78-11.86S45.81,294.71,43.32,293.17Z" style="fill:#e0b59d"/><polygon points="41.17 328.26 40.61 324.39 45.02 324.57 44.92 328.41 41.17 328.26" style="fill:#fca372"/><polygon points="14.53 326.54 15.61 322.78 19.56 324.76 17.9 328.22 14.53 326.54" style="fill:#fca372"/><path d="M15.26,323.24l4.44,2.11s11.2-23.11,12.8-27.11S35.86,281,35.86,281l2.72,15c-1.22,12.1,1.53,30,1.53,30h5.43s.42-19.54.91-31c.46-10.67-.17-25.28-.27-27.3v-.24l-18.13-.2H26.57c-.08.2-.14.39-.21.6-3.51,10.51-.55,26.91-.55,26.91C18.77,305.55,15.26,323.24,15.26,323.24Z" style="fill:#070b3b"/><path d="M18.56,326.92A17.75,17.75,0,0,0,21,331.64c2,2.9,2.78,2.71,2.59,3.47s-11-3.64-11-3.64l2.26-6.08A30.92,30.92,0,0,1,18.56,326.92Z" style="fill:#144d4c"/><path d="M44.92,328.41A24.36,24.36,0,0,0,49,332.1c2.81,2.09,3.53,1.62,3.6,2.41s-11.55.24-11.55.24l.1-6.49A26.14,26.14,0,0,1,44.92,328.41Z" style="fill:#144d4c"/><path d="M26.57,267.24l19.56.05s.13-6,.24-13.29v-4c0-2.07,0-4.15.06-6.16v-3.77c0-4.81,0-8.76-.2-10.25a5.12,5.12,0,0,0-1.57-3.34,1.09,1.09,0,0,0-.17-.13,6.11,6.11,0,0,0-2.22-1.18,6.29,6.29,0,0,0-1.77-.33A2.43,2.43,0,0,1,38.2,227c-2.28,0-3.9-2.35-3.9-2.35a16.28,16.28,0,0,0-2.79.27,7.93,7.93,0,0,0-2.12.67,18.4,18.4,0,0,0-2.34,1.38c-1.16,1.2.11,10.5.23,18V245c0,3.44.15,6.35.19,7.59C27.59,256.51,26.57,267.24,26.57,267.24Z" style="fill:#fff"/><path d="M39.65,271.33c.42.91,7.06,1.3,7.55.81s-.48-27.41-.48-27.41c.6-10-.1-15-1-17a4.45,4.45,0,0,0-2.5-2.48,6.8,6.8,0,0,0-2.72-.41s.51,6.6.43,15.62c0,2-.09,4.45-.2,7.07C40.29,256.74,39.33,270.63,39.65,271.33Z" style="fill:#4aa4c2"/><path d="M36.12,246.45c0,1.19-.06,2.47-.09,3.8,0,1-.06,2.11-.1,3.19-.27,8.75-.69,18.3-.94,18.55-.47.47-9.09,1.34-10.59-.41-.59-.69,2.45-24,2.45-27a40,40,0,0,0-.44-5.24c-.21-1.58-.48-3.21-.72-4.83a10.13,10.13,0,0,1,.61-7c1.2-2.7,7.82-3.06,7.82-3.06h0a27.8,27.8,0,0,1,2.14,11.36C36.29,237.61,36.23,241.72,36.12,246.45Z" style="fill:#4aa4c2"/><path d="M36,250.24c0,1-.06,2.11-.1,3.19a16.32,16.32,0,0,1-4-.46c-2.3-.59-4.46-8.91-5.5-13.65-.21-1.58-.48-3.21-.72-4.83a11.78,11.78,0,0,1,.13-5.75Z" style="fill:#4aa4c2"/><path d="M40.91,240.46c0,2-.09,4.45-.2,7.07l1.86-14.13-.89-1.16.74-.89-1.92-6.51S41,231.44,40.91,240.46Z" style="fill:#4aa4c2"/><path d="M34.17,231.82l1.19.5-.73,1.74s1.61,8.68,1.46,12.56v-.17c.11-4.73.17-8.84.16-10.58a27.8,27.8,0,0,0-2.14-11.36h0Z" style="fill:#4aa4c2"/><path d="M69,238.24l-6.61,11.58a.55.55,0,0,1-.57.26l-5.23-1.16a.53.53,0,0,1-.41-.61.87.87,0,0,1,.07-.17l6.65-11.35a.53.53,0,0,1,.55-.26l5.19.92a.52.52,0,0,1,.42.62A.49.49,0,0,1,69,238.24Z" style="fill:#061e43"/><path d="M69.11,238.46,62.5,250.05a.52.52,0,0,1-.57.25l-5.23-1.15a.53.53,0,0,1-.39-.65.58.58,0,0,1,0-.14L63,237a.53.53,0,0,1,.55-.25l5.19.92a.53.53,0,0,1,.42.62A.44.44,0,0,1,69.11,238.46Z" style="fill:#071841"/><path d="M28.19,242.64s2.15,8.19,4.74,9.17c4.35,1.65,19.94-2.23,19.94-2.23l-.52-3.24s-16.21.08-16.27,0-1.75-5.1-1.75-5.1Z" style="fill:#e0b59d"/><path d="M33.36,248.24a2,2,0,0,1,1.23-.63c3.94-.43,23.81-2.5,25-.49,1.27,2.24-25.29,5.57-26.19,4.54S31.55,250.24,33.36,248.24Z" style="fill:#fca372"/><path d="M25.7,229.06a4.43,4.43,0,0,1,1.93-2.9c.87-.6,2.68-1.28,3.82.14,1.64,2,4.6,19.12,4.87,19.44s14.91.24,14.91.24l.44,4.48s-14.47,2.64-18.74,2.07c-3.22-.42-5-9.75-5-9.75C25.9,234.57,25.35,231.24,25.7,229.06Z" style="fill:#4aa4c2"/><path d="M56,246.69l-.11-.34h0l.73-1.22a2.3,2.3,0,0,1,.76-.76l1.54-.48a1,1,0,0,1-.38.71,2.28,2.28,0,0,0-.46.76l.83-.37,2.1-.76a.89.89,0,0,1,1.14.53.59.59,0,0,1,.05.19l.13,1a.57.57,0,0,1-.21.5l-1.19.93a5.9,5.9,0,0,1-2.1,1l-2.2.27Z" style="fill:#fca372"/><g style="opacity:0.5099999904632568"><path d="M100.5,43.45v6a1.25,1.25,0,0,0,1.25,1.25H104a.64.64,0,0,1,.63.49,17.67,17.67,0,0,0,2,4.59h0l-1.89,1.89a1.25,1.25,0,0,0,0,1.77h0l4.25,4.24a1.23,1.23,0,0,0,1.75,0h0l2-2h0a18,18,0,0,0,5.13,2h0v2.67a1.25,1.25,0,0,0,1.25,1.25h6a1.25,1.25,0,0,0,1.25-1.25V63.59h0a17.74,17.74,0,0,0,5.08-2.18h0l1.89,1.89a1.25,1.25,0,0,0,1.77,0h0l4.24-4.24a1.25,1.25,0,0,0,0-1.77h0l-1.6-1.6a.66.66,0,0,1-.1-.8,17,17,0,0,0,1.67-4.18.66.66,0,0,1,.64-.51h2.16A1.25,1.25,0,0,0,143.44,49V43a1.25,1.25,0,0,0-1.25-1.25h-2.26a.66.66,0,0,1-.64-.49,17.4,17.4,0,0,0-1.77-4.14.65.65,0,0,1,.1-.81l1.52-1.53a1.25,1.25,0,0,0,0-1.77h0l-4.24-4.24a1.25,1.25,0,0,0-1.77,0h0l-2,2h0a17.71,17.71,0,0,0-4.63-1.87.66.66,0,0,1-.5-.64V26.05a1.25,1.25,0,0,0-1.25-1.25h-6a1.25,1.25,0,0,0-1.24,1.25v2.26A.68.68,0,0,1,117,29a17.37,17.37,0,0,0-4.16,1.77.64.64,0,0,1-.8-.1l-1.53-1.52a1.23,1.23,0,0,0-1.75,0h0l-4.27,4.24a1.25,1.25,0,0,0,0,1.77h0l1.6,1.6a.68.68,0,0,1,.11.8,18,18,0,0,0-1.69,4.18.65.65,0,0,1-.64.51h-2.15A1.25,1.25,0,0,0,100.5,43.45ZM113.34,41a8,8,0,0,1,3.25-3.27c9.45-5.07,19,4.43,14,13.9a7.93,7.93,0,0,1-3.27,3.27c-9.46,5-18.95-4.45-14-13.9Z" style="fill:#a8e3f7;opacity:0.550000011920929;isolation:isolate"/><circle cx="121.97" cy="46.25" r="6.31" style="fill:#a8e3f7;opacity:0.550000011920929;isolation:isolate"/></g><g style="opacity:0.5099999904632568"><polygon points="289.3 69.66 289.3 48.6 287.11 48.6 287.11 71.84 326.61 71.84 326.61 69.66 289.3 69.66" style="fill:#a8e3f7;opacity:0.550000011920929;isolation:isolate"/><rect x="291.45" y="63.68" width="3.83" height="4.31" style="fill:#a8e3f7;opacity:0.550000011920929;isolation:isolate"/><rect x="298.75" y="59.21" width="3.83" height="8.78" style="fill:#a8e3f7;opacity:0.550000011920929;isolation:isolate"/><rect x="306.05" y="63.68" width="3.83" height="4.31" style="fill:#a8e3f7;opacity:0.550000011920929;isolation:isolate"/><rect x="313.34" y="54.74" width="3.83" height="13.25" style="fill:#a8e3f7;opacity:0.550000011920929;isolation:isolate"/><rect x="320.64" y="59.21" width="3.83" height="8.78" style="fill:#a8e3f7;opacity:0.550000011920929;isolation:isolate"/><path d="M301.81,52.43l3.87,3.51a.8.8,0,0,0,1,.08l9.8-6.41.61.94.87-1.71.86-1.71-1.91.11-1.91.11.58.88-9.27,6.07-3.86-3.5a.84.84,0,0,0-1-.09l-9.44,6,.88,1.39Z" style="fill:#a8e3f7;opacity:0.550000011920929;isolation:isolate"/></g><g style="opacity:0.550000011920929"><circle cx="203.43" cy="12.83" r="3.42" style="fill:#a8e3f7"/><path d="M208.5,21.49H198.35a4.6,4.6,0,0,1,4.59-4.61h1a4.6,4.6,0,0,1,4.6,4.6Z" style="fill:#a8e3f7"/><circle cx="216.96" cy="12.83" r="3.42" style="fill:#a8e3f7"/><path d="M222,21.49H211.89a4.6,4.6,0,0,1,4.59-4.61h1a4.6,4.6,0,0,1,4.6,4.6Z" style="fill:#a8e3f7"/><circle cx="189.89" cy="12.83" r="3.42" style="fill:#a8e3f7"/><path d="M195,21.49H184.81a4.6,4.6,0,0,1,4.61-4.61h.94A4.6,4.6,0,0,1,195,21.47Z" style="fill:#a8e3f7"/><path d="M217,6.54a.24.24,0,0,1-.24-.24h0V.56H190.1V6.3a.25.25,0,0,1-.49,0V.3a.26.26,0,0,1,.24-.25H217a.25.25,0,0,1,.25.25v6A.26.26,0,0,1,217,6.54Z" style="fill:#a8e3f7"/><path d="M203.43,6.54a.26.26,0,0,1-.25-.24V.3a.24.24,0,0,1,.2-.29.25.25,0,0,1,.29.19.17.17,0,0,1,0,.1v6a.24.24,0,0,1-.24.24Z" style="fill:#a8e3f7"/><circle cx="217.03" cy="6.83" r="0.79" style="fill:#a8e3f7"/><circle cx="203.41" cy="6.83" r="0.79" style="fill:#a8e3f7"/><circle cx="189.82" cy="6.83" r="0.79" style="fill:#a8e3f7"/></g><path d="M433.57,170.63l-17.17-5.39-7,22.26a6.89,6.89,0,0,0,4.49,8.65h0l17.17,5.42,7-22.25a6.9,6.9,0,0,0-4.46-8.68ZM412.4,189.24l-.28-3,1.11-.11.15,1.57,3.18-1.13.38,1.06Zm2.14-6.81-.27-3,1.11-.11.15,1.58,3.18-1.13.37,1Zm2.15-6.81-.27-3,1.11-.1.14,1.57,3.19-1.13.37,1ZM431.06,194l-12.56-4,.47-1.5,12.57,4Zm2.15-6.8-12.56-4,.47-1.5,12.57,4Zm2.15-6.81-12.57-4,.48-1.5,12.56,4Z" style="fill:#a8e3f7;opacity:0.550000011920929;isolation:isolate"/><g style="opacity:0.5099999904632568"><path d="M387.3,34.49A12.22,12.22,0,0,1,391.63,32l.3,2.2,7.07-5.5-8.3-3.41.31,2.22a16.13,16.13,0,0,0-6.27,4.59,15.45,15.45,0,0,0-3.53,8.59,15,15,0,0,0,1.94,8.72,14.5,14.5,0,0,0,6.35,5.88,13.89,13.89,0,0,1-5.28-6.33,13.11,13.11,0,0,1-.67-7.85A12.5,12.5,0,0,1,387.3,34.49Z" style="fill:#a8e3f7;opacity:0.550000011920929;isolation:isolate"/><path d="M409.29,36.24a14.52,14.52,0,0,0-6.66-5.88,13.85,13.85,0,0,1,5.61,6.42,13,13,0,0,1,.71,8.13,12.49,12.49,0,0,1-4,6.67,12.33,12.33,0,0,1-4.24,2.34l-.31-2.13-7,5.55,8.32,3.32-.34-2.37a16.23,16.23,0,0,0,6.09-4.22,15.54,15.54,0,0,0,3.87-8.8A14.9,14.9,0,0,0,409.29,36.24Z" style="fill:#a8e3f7;opacity:0.550000011920929;isolation:isolate"/><path d="M401.59,43a5.34,5.34,0,1,1-5.34-5.34h0A5.34,5.34,0,0,1,401.59,43Z" style="fill:#a8e3f7;opacity:0.550000011920929;isolation:isolate"/></g><rect x="200.06" y="293.98" width="65.63" height="18.43" style="fill:#061e43"/><path d="M392.26,101.64v185.6a8.13,8.13,0,0,1-8.13,8.12H81.61a8.12,8.12,0,0,1-8.11-8.12V101.64a8.11,8.11,0,0,1,8.09-8.13H384.14a8.11,8.11,0,0,1,8.12,8.1Z" style="fill:#506c75"/><path d="M392.26,101.64V277H73.5V101.64a8.11,8.11,0,0,1,8.09-8.13H384.14a8.11,8.11,0,0,1,8.12,8.1Z" style="fill:#070b3b"/><rect x="81.32" y="101.64" width="303.1" height="166.79" style="fill:#fff"/><path d="M183,310.63h99.73a3.64,3.64,0,0,1,3.65,3.65v2.11h-107v-2.15A3.65,3.65,0,0,1,183,310.63Z" style="fill:#070b3b"/><rect x="93.99" y="110.77" width="87.75" height="43.39" rx="0.89" style="fill:none;stroke:#061e43;stroke-miterlimit:10"/><path d="M119.41,124.36h-9.12v6h8.09v3.88h-8.09v6.37h9.12v3.92H105.5V120.44h13.94Z" style="fill:#061e43"/><path d="M136.25,120.47c5.78,0,8.67,3.34,8.67,7.37a6.94,6.94,0,0,1-5.47,6.92l5.75,9.74h-5.58l-5.3-9.36h-2.27v9.36h-4.82v-24Zm-.18,4h-4v7.06h4c2.69,0,3.89-1.41,3.89-3.58s-1.2-3.49-3.89-3.49Z" style="fill:#061e43"/><path d="M161.58,135.24h-4v9.23h-4.82v-24h8.84c5.79,0,8.68,3.27,8.68,7.44C170.26,131.56,167.78,135.24,161.58,135.24Zm-.2-3.89c2.72,0,3.92-1.34,3.92-3.47s-1.2-3.51-3.92-3.51h-3.82v7Z" style="fill:#061e43"/><rect x="93.99" y="164.17" width="87.75" height="91.52" rx="0.82" style="fill:#d8f0dd"/><rect x="190.85" y="173.4" width="180.09" height="82.29" rx="2.13" style="fill:#a1dbcc"/><path d="M203.7,247.36s13.74,5.14,21.7-3.86,10.48-27,18.43-28.93,13,18,29.29,18S292.64,204,303.49,204s14.82,16.72,25.67,16.72,25.34-32.44,25.34-32.44" style="fill:none;stroke:#070b3b;stroke-miterlimit:10"/><path d="M358.08,188a3.1,3.1,0,1,1-3.45-2.71l.38,0A2.91,2.91,0,0,1,358.08,188Z" style="fill:#ffd131"/><path d="M306.38,203.72a3.1,3.1,0,1,1-3.45-2.71l.38,0A2.91,2.91,0,0,1,306.38,203.72Z" style="fill:#ffd131"/><path d="M246.91,214.57a3.1,3.1,0,1,1-3.45-2.71l.37,0A2.92,2.92,0,0,1,246.91,214.57Z" style="fill:#ffd131"/><path d="M332.26,137.94a12,12,0,0,0,3.7,8.7l-8,8a23.46,23.46,0,0,1,16.44-40.19V125.8a12.11,12.11,0,0,0-12.14,12.08Z" style="fill:#061e43"/><path d="M367.83,137.94H356.5a12.12,12.12,0,0,0-12.1-12.11V114.48A23.46,23.46,0,0,1,367.83,137.94Z" style="fill:#2d7770"/><path d="M367.83,137.94a23.46,23.46,0,0,1-39.9,16.73l8-8a12.1,12.1,0,0,0,20.57-8.73Z" style="fill:#ffd131"/><rect x="276.26" y="126.9" width="36.93" height="2.37" style="fill:#41b3a7"/><rect x="276.26" y="136.75" width="36.93" height="2.37" style="fill:#41b3a7"/><rect x="276.26" y="146.6" width="36.93" height="2.37" style="fill:#41b3a7"/><rect x="109.76" y="174.88" width="65.45" height="1.64" style="fill:#ffd131"/><rect x="109.76" y="179.12" width="48.86" height="1.64" style="fill:#ffd131"/><rect x="98.53" y="174.88" width="8.24" height="6.02" style="fill:#ffd131"/><rect x="109.76" y="190.9" width="65.45" height="1.64" style="fill:#061e43"/><rect x="109.76" y="195.14" width="48.86" height="1.64" style="fill:#061e43"/><rect x="98.53" y="190.9" width="8.24" height="6.02" style="fill:#061e43"/><rect x="109.76" y="206.92" width="65.45" height="1.64" style="fill:#ffd131"/><rect x="109.76" y="211.16" width="48.86" height="1.64" style="fill:#ffd131"/><rect x="98.53" y="206.92" width="8.24" height="6.02" style="fill:#ffd131"/><rect x="109.76" y="222.94" width="65.45" height="1.64" style="fill:#061e43"/><rect x="109.76" y="227.19" width="48.86" height="1.64" style="fill:#061e43"/><rect x="98.53" y="222.94" width="8.24" height="6.02" style="fill:#061e43"/><rect x="109.76" y="238.96" width="65.45" height="1.64" style="fill:#ffd131"/><rect x="109.76" y="243.21" width="48.86" height="1.64" style="fill:#ffd131"/><rect x="98.53" y="238.96" width="8.24" height="6.02" style="fill:#ffd131"/><rect x="203.04" y="138.89" width="2.82" height="13.45" style="fill:#ffd131"/><rect x="207.06" y="132.71" width="2.82" height="19.63" style="fill:#2d7770"/><rect x="218.88" y="130.08" width="2.82" height="22.26" style="fill:#ffd131"/><rect x="222.9" y="127.74" width="2.82" height="24.6" style="fill:#2d7770"/><rect x="234.72" y="137.79" width="2.82" height="14.55" style="fill:#ffd131"/><rect x="238.74" y="124.26" width="2.82" height="28.08" style="fill:#2d7770"/><rect x="250.56" y="120" width="2.82" height="32.34" style="fill:#ffd131"/><rect x="254.59" y="127.77" width="2.82" height="24.57" style="fill:#2d7770"/><rect x="203.54" y="154.77" width="53.36" height="1.07" style="fill:#061e43"/><rect x="203.54" y="158.51" width="53.36" height="1.07" style="fill:#061e43"/><path d="M360.42,259.56a1.94,1.94,0,0,0-1.4.14c-3.6,1.8-21.76,11-21.62,13.38.16,2.61,24.66-8.59,24.86-10S363.09,260.24,360.42,259.56Z" style="fill:#fca372"/><path d="M340.68,270.42l-.16-.32h0l-1.4-.37a2,2,0,0,0-1.09,0l-1.5.34s.28.69.82.66a2.38,2.38,0,0,1,.87.22l-.87.32-2.06.94a.91.91,0,0,0-.46,1.2,1,1,0,0,0,.1.17l.64.85a.54.54,0,0,0,.5.22l1.53-.17a6.1,6.1,0,0,0,2.28-.73l1.88-1Z" style="fill:#fca372"/><path d="M366.5,240a2.87,2.87,0,0,1,1.2,2.84c-.67,4.93-3.18,21.42-6.85,21.2-4.32-.26-1.23-14.76.2-18.85C362.25,241.75,364.25,238.51,366.5,240Z" style="fill:#e0b59d"/><path d="M369.58,244.5l-.4,1.41-3.44,12L363,257h0l-4.3-1.27a61.46,61.46,0,0,1,.83-8c.46-3.38.64-5.79,1.64-6.59,0-.05,3.28-1.93,3.33-2a3.51,3.51,0,0,1,.4-.27l1.71,2Z" style="fill:url(#ed1da4e7-f871-42c3-818e-33524f122353)"/><path d="M352.77,262.6l2.28,4.1.31.56s5.09-1.8,6.82-3.32l.15-.15c1.71-1.72,3.76-7.36,3.76-7.36l-4.76-16.09s-1.92,2.26-2.5,8.69-.67,10-.89,10.53S352.77,262.6,352.77,262.6Z" style="fill:#5ecff5"/><path d="M355.05,266.7l.31.56s5.09-1.8,6.82-3.32l.15-.15L359.8,249.6s-.16,6.87-.3,9.67S359.22,265.74,355.05,266.7Z" style="fill:#5ecff5"/><path d="M374.39,227.11c.26,3-2.26,8.24-2.26,8.24l.57,3.34.14,2.72-4.59,2.83-1.75-4.71-.45-3.12s-2.87-.16-3.36-2.44-3.76-10.44,2.74-12.11S374.14,224.1,374.39,227.11Z" style="fill:#fca372"/><path d="M366.21,277.24a4.26,4.26,0,0,1,5.45,2.57l0,.08a28.52,28.52,0,0,1,1.5,7.64c.58,8.26,3.41,17.74.79,19.69s-6.31-2.55-8.35-10.4c-1.84-7.1-5.86-15.1-4.21-16.9A17.67,17.67,0,0,1,366.21,277.24Z" style="fill:#e0b59d"/><path d="M371.27,303.36c4.9-5.78,11.94,24.1,12.35,32.54s-3,2.25-7.4-10.3S369.34,305.63,371.27,303.36Z" style="fill:#e0b59d"/><path d="M377.64,306.59s3.45,5.5,6,28l-4.22,1.57-9.81-27.63Z" style="fill:#e0b59d"/><polygon points="384.31 338.48 383.64 334.55 379.42 336.12 380.72 339.8 384.31 338.48" style="fill:#fca372"/><path d="M380.72,339.8a24.16,24.16,0,0,1-2.81,4.88c-2.06,2.9-2.91,2.68-2.73,3.46s11.32-3.41,11.32-3.41l-2.14-6.25A29.28,29.28,0,0,0,380.72,339.8Z" style="fill:#144d4c"/><path d="M377,280.24a4.23,4.23,0,0,1,2.21,5.57,1,1,0,0,1,0,.1,28.33,28.33,0,0,1-4.15,6.6c-5.25,6.4-9.68,15.24-12.93,14.86s-3.17-6.17.74-13.28c3.53-6.43,6.41-15,8.85-15.2A15.57,15.57,0,0,1,377,280.24Z" style="fill:#e0b59d"/><path d="M360.86,306c6.2-4.36,5.5,26.34,3.77,34.61s-3.49,1.42-4.57-11.83S358.42,307.68,360.86,306Z" style="fill:#e0b59d"/><path d="M366.5,307.8a15.45,15.45,0,0,0-.79,2.67,125.44,125.44,0,0,1-.17,28l-4.47.56s-5.14-32.29-3.5-35.22S366.5,307.8,366.5,307.8Z" style="fill:#e0b59d"/><polygon points="365.24 342.47 365.49 338.49 361.02 339.05 361.44 342.94 365.24 342.47" style="fill:#fca372"/><path d="M361.25,341.46a18,18,0,0,1-3.94,3.71c-2.86,2.12-3.6,1.65-3.67,2.45s11.77.24,11.77.24l-.1-6.61A34.4,34.4,0,0,0,361.25,341.46Z" style="fill:#144d4c"/><path d="M360.5,281.12c1-4.71,8.73-3.78,8.73-3.78s5.89,1.06,7.68,11.76a115.28,115.28,0,0,1,1.46,15.62s4.77,15.76,5.58,30l-5.21,1.69s-7.58-21.3-9.38-26.83C369.4,309.63,359.5,285.82,360.5,281.12Z" style="fill:#070b3b"/><path d="M362.76,285c.88-2.72.89-4.59,1.91-5.24,4.06-2.59,15.71,1.6,15.71,1.6s1.16,7-2.55,12.82a94.52,94.52,0,0,1-11.15,14.59c1.7,8.16-.88,29.95-.88,29.95h-5.24s-4.8-25.33-4-33C357.08,300.24,360.29,292.69,362.76,285Z" style="fill:#070b3b"/><path d="M360.08,253.6v14.19c.11,7.4.24,13.54.24,13.54h19.94s-1.05-11-.91-15c0-1.27.15-4.23.2-7.74v-.09c.12-7.6,1.41-17.08.24-18.3a19.65,19.65,0,0,0-2.39-1.4,7.76,7.76,0,0,0-2.16-.68c-1.47-.28-2.69-.38-2.69-.38s-1.81,2.5-4.13,2.49a2.47,2.47,0,0,1-2.34-2.16,5.55,5.55,0,0,0-1,.09,6.91,6.91,0,0,0-.9.21l-.45.15a6.13,6.13,0,0,0-1.82,1l-.17.13a5.21,5.21,0,0,0-1.6,3.4C360.11,244.67,360.07,248.7,360.08,253.6Z" style="fill:#fff"/><path d="M359.39,286.24c.5.5,5.9.21,6.33-.72.33-.71-.26-14.88-.69-24.26-.08-1.93,1-12.76,1.33-18.85a5,5,0,0,0,0-.55c0-.73-.25-1.5-.35-2.43a1.78,1.78,0,0,1,.21-1.33,2.88,2.88,0,0,0-.83-.06h-.46a3.91,3.91,0,0,0-.76.15,5,5,0,0,0-.75.24,4.54,4.54,0,0,0-2.55,2.52c-.87,2-1.59,7.08-1,17.25v.06c0,.06-.08,2.05-.17,5C359.5,271.24,359,285.88,359.39,286.24Z" style="fill:#5ecff5"/><path d="M382.5,285.24c-1.52,1.78-10.31.89-10.79.41-.26-.26-1.15-9.9-1.63-18.78v-.14c-.07-1.28-.12-2.54-.17-3.75v-.77c0-.76,0-1.5-.06-2.2-.11-4.82-.16-15.88-.16-17.66a1.41,1.41,0,0,1,0-.41c.23-.65,1.17-.49,2.7-3.08a4.21,4.21,0,0,0,.32-1.1h1.36q.93,0,1.86.18c1.88.28,4,.92,4.64,2.36.9,2,1.16,3.53.62,7.11A75.28,75.28,0,0,0,380,257.68C380,260.78,383.06,284.56,382.5,285.24Z" style="fill:#5ecff5"/><path d="M369.82,262.24c.06,1.44.13,3,.21,4.52a5,5,0,0,0,4.24-.08c3.18-1.83,4.83-10.75,4.83-10.75Z" style="fill:#5ecff5"/><path d="M372.8,250.5s-1.13,7-2.1,7.29a2.93,2.93,0,0,1-1.66,0l1.88,1.71s2.4-2.07,2.46-2.23S372.8,250.5,372.8,250.5Z" style="fill:#5ecff5"/><path d="M369.65,242a1.48,1.48,0,0,1,1.32,1.46c.36-.41.66-.8.93-1.17a14.25,14.25,0,0,0,1.94-4.45h-1.17a4.28,4.28,0,0,1-.32,1.11C370.82,241.48,369.88,241.32,369.65,242Z" style="fill:#5ecff5"/><path d="M378.72,256.24s-2.64,8.61-5.28,9.61c-4.43,1.68-15-9.05-15-9.05l2.31-3.47s10.71,6.36,10.77,6.28.91-4.83.91-4.83Z" style="fill:#e0b59d"/><path d="M374.27,262.38a1.93,1.93,0,0,0-.77-1.14c-3.37-2.23-20.4-13.37-22.38-12.07-2.19,1.43,19.74,17.09,21,16.58S375,265.05,374.27,262.38Z" style="fill:#fca372"/><path d="M381.26,242.42a4.51,4.51,0,0,0-2-2.95c-.88-.61-2.72-1.31-3.89.14C373.7,241.7,372,255,372,255a19.08,19.08,0,0,1-.77,3.26c-.28.32-2.59-.65-2.59-.65l-2.94,5.79s3.33,3.42,7.69,2.85c1.92-.26,3.5-3.59,4.48-6.3.69-1.92,1.08-3.53,1.08-3.53.3-1.23.57-2.35.81-3.37C381.2,247.05,381.57,244.24,381.26,242.42Z" style="fill:#5ecff5"/><path d="M354.78,250.66l.18-.32h0L354.5,249a2.26,2.26,0,0,0-.6-.92l-1.4-.81a1,1,0,0,0,.22.79,2.17,2.17,0,0,1,.3.85l-.75-.55-1.92-1.19a.9.9,0,0,0-1.25.29.56.56,0,0,0-.09.17l-.35,1a.51.51,0,0,0,.1.53l1,1.18a6.16,6.16,0,0,0,1.87,1.49l2,.89Z" style="fill:#fca372"/><path d="M365.16,243.44s.66-2.24,1.19-1.58c0-.73-.25-1.5-.35-2.43a1.78,1.78,0,0,1,.21-1.33,2.88,2.88,0,0,0-.83-.06C365,238.41,364.5,241,365.16,243.44Z" style="fill:#5ecff5"/><path d="M369.27,258l-2.89,5.75a.45.45,0,0,1-.61.19h0l-.89-.54a.45.45,0,0,1-.17-.58l2.76-5.75a.43.43,0,0,1,.58-.21h0l1,.54A.45.45,0,0,1,369.27,258Z" style="fill:#5ecff5"/><path d="M353.69,261.93l2.48,5.05a.21.21,0,0,1-.1.28h0l-1,.42a.21.21,0,0,1-.27-.1l-2.42-4.94a.21.21,0,0,1,.08-.27l.94-.53A.24.24,0,0,1,353.69,261.93Z" style="fill:#5ecff5"/><path d="M375.7,230.29c-.13-.88-.8-.87-1.1-1.91s.33-3.37-.88-6.08-5.45-1.8-6.3-2.78a1.75,1.75,0,0,0-2.45-.37l-.15.13c-.41.59-.54,1.51-1.88.68s-2.37.35-2.16,1a1.59,1.59,0,0,1-.52,2.17c-1.07.89-.87,2.9,1.14,2.46s2.64.72,3.15,1.61a2.62,2.62,0,0,0,1.84,1,13.21,13.21,0,0,0,.3,1.76c.17.82.46,2.51.06,3-.53.71-1.56.13-2.44-.65s-2.19.26-2.19.26.89,3.22,1.78,3.46,1.67.3,3.59-.51c1.77-.75.59-5.39.39-6.1a2.26,2.26,0,0,0,0-.52,1.31,1.31,0,0,1,2.43-.53c.89,1.33-.54,3.09-.54,4.34s3,3.51,4.51,2.37.83-2.33.62-3S375.83,231.18,375.7,230.29Z" style="fill:#070b3b"/><path d="M166.06,278l17.32-.72.76-29.63L183,240.24l-8-2.94-4.14,1.46a6.58,6.58,0,0,0-5.17,6.43l1.13,20.22Z" style="fill:#e0b59d"/><path d="M173,233.65v6a8.83,8.83,0,0,0,4.21.75c1.58,0,1.94-.75,1.94-.75v-2.2Z" style="fill:#e0b59d"/><path d="M185,253.05c-.77-1.61-12.82,3.61-16.16,5.21s-6.76,3.54-5.89,5.34,4.51.36,7.85-1.24S185.76,254.66,185,253.05Z" style="fill:#fca372"/><path d="M172.32,229.24v.83c-.15,3.53,2.12,7.32,5.54,7.83h.19c.73.09,3.38.31,4.34-.76a9,9,0,0,0,2.15-5.11,20.16,20.16,0,0,0-.29-2.58c0-.49.27-2,.27-2.71,0-3.15-2.1-6.28-5.87-6.28C173,220.45,172.16,225.41,172.32,229.24Z" style="fill:#fca372"/><path d="M163.5,264.24c1.95.49,5.88-10.56,7.2-15.38s1.5-8.85-.88-9.46-4.15,3-5.3,7.89S161.5,263.71,163.5,264.24Z" style="fill:#fca372"/><path d="M162.42,256.37s1.26-17.88,7.59-17.49S167.84,258,167.84,258Z" style="fill:#4a878c"/><path d="M162.24,257.09l2.77.49.54.1,1.74.31,2,.36s.36-.91.22-1.14a3.6,3.6,0,0,0-1.19-.42l-.82-.2c-.7-.16-1.5-.33-2.25-.47l-.29-.05a8.9,8.9,0,0,0-2.52-.21.09.09,0,0,0-.07,0C162.18,256.1,162.24,257.09,162.24,257.09Z" style="fill:#4a878c"/><path d="M164.94,248.63s0,4.84.05,7.44v1.51l.54.1,1.74.31v-.17c.07-.41.14-.84.2-1.23a10.49,10.49,0,0,0,.15-1.77C167.55,254.42,164.94,248.63,164.94,248.63Z" style="fill:#4a878c"/><path d="M180.06,274.61c-1.78.57-3,3.6-2.63,6.56a49.27,49.27,0,0,0,2,9.05c2.88,9,4.73,20.93,7.27,21.15s3.94-6.88,2.2-16.51c-1.57-8.71-2.74-20-4.57-20.78C183.42,273.7,181.62,274.11,180.06,274.61Z" style="fill:#e0b59d"/><path d="M188.39,310.18c-6.91-2.42-3.78,29.39-1.46,36.19s3.19-4.85,3.61-16.59S191.11,311.13,188.39,310.18Z" style="fill:#e0b59d"/><polygon points="185.54 346.3 185.06 342.54 190.2 342.66 190.15 346.45 185.54 346.3" style="fill:#fca372"/><path d="M166.76,276.76c-1.75.6-2.81,3.65-2.31,6.6a50.19,50.19,0,0,0,2.47,9c3.33,9,5.77,20.78,8.32,20.95s3.61-7,1.39-16.53c-2-8.65-3.74-19.91-5.6-20.62C170.08,275.78,168.3,276.24,166.76,276.76Z" style="fill:#e0b59d"/><path d="M176.86,311.16c-5.64-4.73-13.42,26.33-13.57,33.55s4.48-3.49,8.88-14.37S179.07,313,176.86,311.16Z" style="fill:#e0b59d"/><polygon points="162.57 343.68 163.46 339.54 168.25 341.19 166.97 345.07 162.57 343.68" style="fill:#fca372"/><path d="M190.15,346.24s.46,1.35,3.27,3.1,3.54,1.38,3.6,2-11.66.12-11.66.12l.18-5.4A37.41,37.41,0,0,1,190.15,346.24Z" style="fill:#070b3b"/><path d="M167.12,344.33a12.06,12.06,0,0,0,1.42,3.56c1.11,2,2.62,2.15,2.32,2.66s-9.64-2.83-9.64-2.83l1.5-4.77Z" style="fill:#070b3b"/><path d="M163.08,339.61l5.41,1.89s9.95-21.56,10.42-30.56a67.22,67.22,0,0,0-.31-8.15c-.46-5.32-1.29-11.67-2-16.89-.85-5.91-1.6-10.39-1.6-10.39l-10.61,1.1s-2.33,3.56-.09,13.44a190.76,190.76,0,0,0,6.35,20.78C170.73,311.3,165.9,322.55,163.08,339.61Z" style="fill:#070b3b"/><path d="M172.26,283a67.88,67.88,0,0,0,6.34,19.83c-.46-5.32-1.29-11.67-2-16.89l-.3-1.09Z" style="fill:#dce8ef"/><path d="M185.87,275.62s5.57,19.87,5.8,33.44S190.5,343,190.5,343h-5.81s-2.42-24-.94-32.94c0,0-12.32-18.84-12.2-34.37" style="fill:#070b3b"/><path d="M186,276.24s-3.41-14.61-.77-21.19c0-.11.09-.22.13-.33a12,12,0,0,0,.5-1.75,16.9,16.9,0,0,0,0-5.85c-.22-4-1.16-5.94-2.36-7.06s-8.28-3.12-13.12-1.77c-3.23.91-6.94,4.72-5.08,16.3a64,64,0,0,1,.73,12.9,45,45,0,0,1-1.67,9.13Z" style="fill:#4a878c"/><path d="M197,259.91c1.54-1.27-5-10.89-8.08-14.77s-6.2-6.38-8.08-4.83,0,5.09,3.21,8.85S195.5,261.18,197,259.91Z" style="fill:#e0b59d"/><path d="M188.5,254.81s4.3,5.77,7.71,5.8c2.5,0,7.89-11.74,7.89-11.74l-4-1.26s-4.21,6.86-4.3,6.84-2.79-3.63-2.79-3.63Z" style="fill:#fca372"/><path d="M207.35,238.74c-1.55-.85-8.24,10.33-10,13.55S194,259.05,195.7,260s3.84-2.31,5.61-5.54S208.9,239.59,207.35,238.74Z" style="fill:#fca372"/><path d="M204.5,241.32a2.38,2.38,0,0,0,.29-1.84,14.58,14.58,0,0,1,0-2.09,1,1,0,0,1,.33-.8c.28-.18.64-.05,1,0a1.71,1.71,0,0,0,1.82-.28c.34-.42.43-1.58.9-1.85a.54.54,0,0,1,.64,0c.87.58.75,1.81.54,2.72a5.2,5.2,0,0,1-2.07,3.48,8.49,8.49,0,0,0-2.24,2.11" style="fill:#fca372"/><path d="M185.37,254.71a12,12,0,0,0,.5-1.75c-.61-.81-2.8-3.45-5.31-6.36C180.29,248.08,181.4,251.82,185.37,254.71Z" style="fill:#4a878c"/><path d="M179.44,240.41s3.53-3.26,8.64,3.54c4.14,5.5,5.24,6.77,5.24,6.77l-5,4.71S174.92,245,179.44,240.41Z" style="fill:#4a878c"/><path d="M193.16,250.33c-.39-.06-5.59,4.07-5.56,4.68,0,.3.82.89.82.89l5.47-4.67S193.42,250.37,193.16,250.33Z" style="fill:#4a878c"/><path d="M185,225a3.8,3.8,0,0,1-1.68,3.09c-1.55,1.2-2.21,4.06-2.27,6.17a17.7,17.7,0,0,1,0,2.06,3.7,3.7,0,0,1-.58,1.46c-.22.33-.49.63-.7,1a10.11,10.11,0,0,0-1,3.11,3.39,3.39,0,0,1-1.48,2.36,4.12,4.12,0,0,1-1.8.34c-1.44.06-2.88.12-4.31.06a9.3,9.3,0,0,1-4-.74,2.82,2.82,0,0,1-1.13-2.48,10.24,10.24,0,0,1,.48-3.43,12.27,12.27,0,0,0,.66-2.24,19.22,19.22,0,0,0-.11-2.63,7.15,7.15,0,0,1,1.12-3.44,17.47,17.47,0,0,0,1.3-3.72,8.92,8.92,0,0,1,2.2-3.78,8.23,8.23,0,0,1,4.46-3c3.22-.64,8.22.49,8.68,4.47A12,12,0,0,1,185,225Z" style="fill:#070b3b"/><path d="M40.89,103.76a20.75,20.75,0,0,0-13.48,5l.27-1.38a.93.93,0,0,0-.25-.84l-3.93-4a.93.93,0,0,0-1.32,0,1,1,0,0,0-.25.47l-.31,1.59a1,1,0,0,1-.73.73l-1.59.31a.92.92,0,0,0-.72,1.1.87.87,0,0,0,.25.47l3.91,3.91a.93.93,0,0,0,.84.25l1.38-.27a20.84,20.84,0,1,0,15.91-7.39Zm0,37.42a16.54,16.54,0,0,1-12.26-27.64l2.9,2.89a12.46,12.46,0,1,0,1.16-1.19l-2.89-2.9a16.54,16.54,0,1,1,11.09,28.81ZM37.5,122.36a4.15,4.15,0,1,0,1.12-1.12l-2.95-3a8.25,8.25,0,1,1-1.17,1.17Z" style="fill:#a8e3f7;opacity:0.550000011920929;isolation:isolate"/></g></svg>