<svg xmlns="http://www.w3.org/2000/svg" xmlns:xlink="http://www.w3.org/1999/xlink" viewBox="0 0 456.64 372.56"><defs><style>.b0009ebe-be31-4b3a-8f35-62d84ecceb22{isolation:isolate;}.a603171b-a4ce-4e83-9ee6-6ac053afdf70,.f7cd5108-ac86-42e2-ba1f-a096de9c4920{fill:#a8e3f7;}.a603171b-a4ce-4e83-9ee6-6ac053afdf70,.aa1e4604-1b17-4f6e-a9d5-0e3b3290f281{opacity:0.55;}.ae915fc6-7014-4f75-a3d7-856c6de8d988{fill:#b5e3df;opacity:0.54;}.aa215b86-3ab1-4cdf-814a-1fb9841ef433,.ae915fc6-7014-4f75-a3d7-856c6de8d988{mix-blend-mode:multiply;}.e8dec7c6-6766-475a-97ab-19e8cc1f0506{fill:#fca372;}.ab04c473-9dc0-4d5f-ab5a-80994e14859f{fill:#e0b59d;}.bdcf31bb-f7f7-41d0-bcce-86a60b4e2643{fill:url(#b92e5289-a0dc-45dc-9722-99c450697f50);}.eac6fbf1-3d38-433d-a1c2-61637e5d7203{fill:#4aa4c2;}.ae3c925e-9ff1-409e-8f72-593760d168a0{fill:#070b3b;}.e4335879-4153-45d6-b394-86da5893d1e1{fill:#144d4c;}.a1f8ed83-45f5-411f-bcb6-55e5d3cfc1d4{fill:#fff;}.b9f4b980-eca2-4cf2-8833-8535b9188d5a{fill:#061e43;}.b1f815d8-6202-4c8b-9ca3-d0ba9ae05394{fill:#071841;}.e8f74090-357c-4d3d-8298-3a589d2b620a{opacity:0.51;}.a609f24a-5e6c-4a5b-b53c-4768cb5b55d7{fill:#506c75;}.a07e4090-bc9f-4cb0-997b-dcb07074bd51,.ab2d905f-66c5-4e92-a434-b932eddfec38{fill:none;stroke-miterlimit:10;}.a07e4090-bc9f-4cb0-997b-dcb07074bd51{stroke:#061e43;}.a2142477-58a2-477f-bfbb-5616bcb98cbb{fill:#d8f0dd;}.af2b3d89-0560-4306-9eb7-67eeba6654e9{fill:#a1dbcc;}.ab2d905f-66c5-4e92-a434-b932eddfec38{stroke:#070b3b;}.a4cbad6b-9d5e-4f26-97ba-8bb110987273{fill:#ffd131;}.f2c1957a-f317-49f8-8c18-6523bb1f3870{fill:#2d7770;}.a16e3323-dbda-463c-ae06-f04d267e0c1a{fill:#41b3a7;}.a91d7444-8c49-47dd-a434-87e9734d3c9a{fill:#efd0b1;}.e9484778-bee9-4465-a47f-4b2c1b2d707b{fill:url(#ec28afa6-4c7a-4058-b7a8-424447265c7a);}.af7671dd-f673-479f-82b6-d3948db57db1{fill:#5ecff5;}.e300c14f-0fa3-4682-95e9-be6dd99540b1{fill:#af6641;}.eae27209-0de2-4a93-982d-e9fd31d758ff{fill:#4a878c;}.aa215b86-3ab1-4cdf-814a-1fb9841ef433{fill:#dce8ef;}</style><linearGradient id="b92e5289-a0dc-45dc-9722-99c450697f50" x1="361.67" y1="-827.68" x2="361.67" y2="-797.98" gradientTransform="matrix(-0.37, -0.93, -0.93, 0.37, -580.47, 881.58)" gradientUnits="userSpaceOnUse"><stop offset="0.04" stop-color="#214f95"/><stop offset="1" stop-color="#14408f"/></linearGradient><linearGradient id="ec28afa6-4c7a-4058-b7a8-424447265c7a" x1="77.94" y1="-2495.96" x2="77.94" y2="-2465.7" gradientTransform="translate(2811.88 778.49) rotate(-79.74)" xlink:href="#b92e5289-a0dc-45dc-9722-99c450697f50"/></defs><g class="b0009ebe-be31-4b3a-8f35-62d84ecceb22"><g id="e7646154-9a61-43e8-8da3-c869813531fc" data-name="obj"><path class="a603171b-a4ce-4e83-9ee6-6ac053afdf70" d="M391.44,197.26c-4.18,10.17-4.65,22.43-3.19,33.2,1.43,10.51,4.32,20.74,5.17,31.36a101.55,101.55,0,0,1-1.77,30.36,88.72,88.72,0,0,1-9.84,25.07c-.39.68-.79,1.37-1.2,2H62.13c-2-9.06-4.22-18.08-6.35-27.11-4.35-18.41-8.4-36.87-10.09-55.75-2.21-24.86.21-57.84,28-67.66,14-5,29.51-1,43.58-6,22.35-7.87,30.5-31.76,42.15-50,9-14,20.7-25.78,36-33,13.26-6.27,23.89-7.47,32.92-5.53a39.4,39.4,0,0,1,8.54,2.89c3.83,3.07,7.8,6.09,11.91,8.86,1.82,1.22,3.61,2.49,5.48,3.65a98.23,98.23,0,0,0,20.79,9.66c16.57,5.46,34.28,6.36,51.55,4.46a190.57,190.57,0,0,0,25-4.67c7.45-1.85,14.52-5,22.07-6.57,7.2-1.49,14.89-1.17,21.63,1.92,14,6.4,20.77,22.49,21,37,.24,12.76-3.24,25.39-8.64,36.9C403.05,178.4,395.67,187,391.44,197.26Z"/><path class="ae915fc6-7014-4f75-a3d7-856c6de8d988" d="M75.91,343.23c0,2.36-14.77,4.28-33,4.28s-33-1.92-33-4.28,14.78-4.29,33-4.29S75.91,340.86,75.91,343.23Z"/><ellipse class="ae915fc6-7014-4f75-a3d7-856c6de8d988" cx="187.23" cy="359.94" rx="33" ry="4.29"/><path class="ae915fc6-7014-4f75-a3d7-856c6de8d988" d="M411.33,356c0,2.37-14.78,4.29-33,4.29s-33-1.92-33-4.29,14.77-4.28,33-4.28S411.33,353.63,411.33,356Z"/><path class="e8dec7c6-6766-475a-97ab-19e8cc1f0506" d="M57.27,255.18a1.45,1.45,0,0,1,.49-1c2.29-2,8.23-7.7,9.86-6.94,1.81.84-7.31,10.43-8.35,10.19S57,257.27,57.27,255.18Z"/><path class="e8dec7c6-6766-475a-97ab-19e8cc1f0506" d="M65.46,248s1.82-1.7,3.34-1.28a3.33,3.33,0,0,1,2.42,2c.15.5-.09,1.37-.41,1.06s-2.07-1.63-2.24-.88,1,1.06.31,1.58-2.45-2-2.45-2Z"/><path class="ab04c473-9dc0-4d5f-ab5a-80994e14859f" d="M49.2,235.86a2.84,2.84,0,0,0-.61,3c1.58,4.62,7.15,20,10.64,19.1,4.11-1.08-1.64-14.45-3.8-18.11C53.64,236.77,51.09,234,49.2,235.86Z"/><path class="bdcf31bb-f7f7-41d0-bcce-86a60b4e2643" d="M47.11,240.83l.66,1.28L53.36,253l2.49-1.31,0,0,3.91-2A62.05,62.05,0,0,0,57.45,242c-1.1-3.17-1.72-5.45-2.84-6-.06,0-3.53-1.23-3.58-1.24a3.33,3.33,0,0,0-.44-.19l-1.26,2.28Z"/><path class="eac6fbf1-3d38-433d-a1c2-61637e5d7203" d="M66.14,251.57s-.87,1.11-2.19,2.53a28.6,28.6,0,0,1-5.5,4.79c-1.5.91-3,1.39-4.11.92-2.1-.85-3.84-7.37-3.84-7.37l4.67-15.79s2.06,1.25,5.17,14.48l3.51-2.36Z"/><path class="eac6fbf1-3d38-433d-a1c2-61637e5d7203" d="M64,254.1a28.6,28.6,0,0,1-5.5,4.79L56,258.73s-2-5.61-2-5.81,2.71-8.8,2.71-8.8.13,11.62,2,11.71C61.37,256,63,254.61,64,254.1Z"/><path class="e8dec7c6-6766-475a-97ab-19e8cc1f0506" d="M43.09,222.61c-.74,2.87,2,8.42,2,8.42l-1,2.94-.65,2.81,4,3.5L49.94,236l.94-2.95s2.81.31,3.65-1.82,4.72-10.44-1.3-13.12S43.83,219.74,43.09,222.61Z"/><path class="ae3c925e-9ff1-409e-8f72-593760d168a0" d="M56.57,223.77s-6.87-2.46-7.69-.61-.49,3.5-1,3.57-1.26-3.23-2.44-2.31.37,3.79-.68,5.51c-.39.63-2.57-6.15-2-9.14s3.19-6,8-5.34c1.82.26,7.31-.53,8.39.7C60.87,218.16,57.51,222.59,56.57,223.77Z"/><path class="ab04c473-9dc0-4d5f-ab5a-80994e14859f" d="M41.52,276.17a4.17,4.17,0,0,0-5,3.31,27.93,27.93,0,0,0-.43,7.63c.55,8.11-.93,17.7,1.89,19.25s6-3.14,7-11.05c.84-7.15,3.42-15.65,1.57-17.19A15.52,15.52,0,0,0,41.52,276.17Z"/><path class="ab04c473-9dc0-4d5f-ab5a-80994e14859f" d="M49.71,275.49a4.17,4.17,0,0,0-4.38,4.05,28.07,28.07,0,0,0,.79,7.6c1.84,7.92,1.91,17.63,4.93,18.71s5.19-4.21,4.84-12.16c-.32-7.19,1.15-15.86-.91-17.07A15.23,15.23,0,0,0,49.71,275.49Z"/><path class="ab04c473-9dc0-4d5f-ab5a-80994e14859f" d="M40.48,303.84c-4.31-6.07-13.72,22.55-14.84,30.77s2.76,2.46,8.11-9.45S42.17,306.22,40.48,303.84Z"/><path class="ab04c473-9dc0-4d5f-ab5a-80994e14859f" d="M53.23,302.8c-6.33-3.9-3.83,26.12-1.65,34.12s3.5,1.19,3.78-11.86S55.72,304.34,53.23,302.8Z"/><polygon class="e8dec7c6-6766-475a-97ab-19e8cc1f0506" points="51.08 337.89 50.52 334.02 54.93 334.2 54.84 338.04 51.08 337.89"/><polygon class="e8dec7c6-6766-475a-97ab-19e8cc1f0506" points="24.45 336.17 25.53 332.41 29.47 334.39 27.81 337.85 24.45 336.17"/><path class="ae3c925e-9ff1-409e-8f72-593760d168a0" d="M25.17,332.87,29.62,335s11.19-23.12,12.81-27.13,3.37-17.21,3.37-17.21l2.72,15C47.29,317.72,50,335.57,50,335.57h5.43s.42-19.54.92-31c.45-10.67-.18-25.28-.28-27.3v-.08c0-.11,0-.16,0-.16L38,276.9H36.48c-.07.19-.14.39-.2.6-3.51,10.5-.56,26.91-.56,26.91C28.68,315.18,25.17,332.87,25.17,332.87Z"/><path class="e4335879-4153-45d6-b394-86da5893d1e1" d="M28.47,336.54a17.8,17.8,0,0,0,2.43,4.73c2,2.9,2.79,2.7,2.59,3.47s-11-3.64-11-3.64L24.79,335A31.68,31.68,0,0,1,28.47,336.54Z"/><path class="e4335879-4153-45d6-b394-86da5893d1e1" d="M54.84,338a24.32,24.32,0,0,0,4.09,3.69c2.81,2.09,3.53,1.62,3.61,2.41s-11.56.23-11.56.23l.1-6.48A27.88,27.88,0,0,1,54.84,338Z"/><path class="a1f8ed83-45f5-411f-bcb6-55e5d3cfc1d4" d="M36.48,276.88l19.56,0s.13-6,.24-13.28c0-1,0-2,0-3v-1c0-2.07,0-4.15,0-6.16,0-1.3,0-2.56,0-3.77,0-4.81,0-8.76-.19-10.26a5.14,5.14,0,0,0-1.58-3.33,1.53,1.53,0,0,0-.16-.13,6.2,6.2,0,0,0-2.23-1.18,6.55,6.55,0,0,0-1.85-.3,2.45,2.45,0,0,1-2.3,2.13c-2.28,0-3.9-2.35-3.9-2.35a16.94,16.94,0,0,0-2.78.27,8.14,8.14,0,0,0-2.13.67,19.69,19.69,0,0,0-2.34,1.37c-1.15,1.2.11,10.5.23,18v.08c.06,3.45.15,6.36.2,7.6C37.51,266.14,36.48,276.88,36.48,276.88Z"/><path class="eac6fbf1-3d38-433d-a1c2-61637e5d7203" d="M49.56,281c.42.91,7.06,1.3,7.55.81s-.48-27.41-.48-27.41c.61-10-.1-15-1-17a4.42,4.42,0,0,0-2.5-2.48,6.66,6.66,0,0,0-2.78-.44s.51,6.61.43,15.63c0,2-.09,4.45-.2,7.07C50.2,266.37,49.24,280.26,49.56,281Z"/><path class="eac6fbf1-3d38-433d-a1c2-61637e5d7203" d="M46,256.08c0,1.19-.06,2.47-.09,3.8,0,1-.06,2.11-.1,3.19-.27,8.75-.69,18.3-.94,18.55-.47.47-9.09,1.34-10.59-.41-.59-.69,2.45-24,2.45-27a40.23,40.23,0,0,0-.44-5.24c-.21-1.58-.48-3.21-.72-4.83a10.14,10.14,0,0,1,.61-7c1.2-2.7,7.82-3.06,7.82-3.06l0,0a27.75,27.75,0,0,1,2.14,11.36C46.2,247.24,46.14,251.35,46,256.08Z"/><path class="eac6fbf1-3d38-433d-a1c2-61637e5d7203" d="M45.94,259.88c0,1-.06,2.11-.1,3.19a16.27,16.27,0,0,1-4-.46c-2.3-.59-4.46-8.91-5.5-13.65-.21-1.58-.48-3.21-.72-4.83a11.74,11.74,0,0,1,.13-5.75Z"/><path class="eac6fbf1-3d38-433d-a1c2-61637e5d7203" d="M50.82,250.09c0,2-.09,4.45-.2,7.07L52.49,243l-.89-1.16.74-.89-2-6.52S50.9,241.07,50.82,250.09Z"/><path class="eac6fbf1-3d38-433d-a1c2-61637e5d7203" d="M44.08,241.45l1.19.5-.73,1.74s1.61,8.68,1.46,12.56l0-.17c.11-4.73.17-8.84.16-10.59,0-6.84-1.9-10.87-2.14-11.35l0,0Z"/><path class="b9f4b980-eca2-4cf2-8833-8535b9188d5a" d="M79,247.87l-6.62,11.59a.52.52,0,0,1-.57.26l-5.23-1.16a.53.53,0,0,1-.34-.78l6.65-11.36a.53.53,0,0,1,.55-.25l5.19.92A.53.53,0,0,1,79,247.87Z"/><path class="b1f815d8-6202-4c8b-9ca3-d0ba9ae05394" d="M79,248.09l-6.61,11.59a.54.54,0,0,1-.58.25l-5.23-1.15a.54.54,0,0,1-.34-.79l6.66-11.35a.52.52,0,0,1,.54-.25l5.19.92A.53.53,0,0,1,79,248.09Z"/><path class="ab04c473-9dc0-4d5f-ab5a-80994e14859f" d="M38.1,252.27s2.15,8.19,4.74,9.17c4.35,1.65,19.95-2.24,19.95-2.24L62.27,256S46.05,256,46,256s-1.75-5.13-1.75-5.13Z"/><path class="e8dec7c6-6766-475a-97ab-19e8cc1f0506" d="M43.28,257.86a1.91,1.91,0,0,1,1.23-.63c3.93-.43,23.8-2.5,24.95-.49,1.26,2.24-25.3,5.56-26.2,4.54S41.46,259.88,43.28,257.86Z"/><path class="eac6fbf1-3d38-433d-a1c2-61637e5d7203" d="M35.61,238.68a4.46,4.46,0,0,1,1.94-2.89c.86-.6,2.67-1.28,3.81.14,1.64,2,4.6,19.12,4.88,19.44s14.91.24,14.91.24l.44,4.47s-14.48,2.64-18.75,2.08c-3.22-.42-5-9.75-5-9.75C35.82,244.2,35.26,240.82,35.61,238.68Z"/><path class="e8dec7c6-6766-475a-97ab-19e8cc1f0506" d="M65.88,256.32l-.11-.34h0l.72-1.22a2.21,2.21,0,0,1,.76-.76l1.54-.48a1,1,0,0,1-.38.71A2.39,2.39,0,0,0,68,255l.82-.37,2.1-.76a.89.89,0,0,1,1.19.72l.13,1a.54.54,0,0,1-.2.5l-1.19.93a6.19,6.19,0,0,1-2.1,1.05l-2.21.27Z"/><g class="e8f74090-357c-4d3d-8298-3a589d2b620a"><path class="a603171b-a4ce-4e83-9ee6-6ac053afdf70" d="M110.43,53.08v6a1.25,1.25,0,0,0,1.25,1.25h2.26a.65.65,0,0,1,.63.49,17.92,17.92,0,0,0,2.06,4.59h0l-1.89,1.89a1.25,1.25,0,0,0,0,1.77L119,73.31a1.25,1.25,0,0,0,1.77,0l2-2h0a17.52,17.52,0,0,0,5.12,2.06h0v2.67a1.25,1.25,0,0,0,1.25,1.25h6a1.25,1.25,0,0,0,1.25-1.25V73.32h0a18,18,0,0,0,5.07-2.18h0L143.3,73a1.25,1.25,0,0,0,1.77,0l4.24-4.24a1.25,1.25,0,0,0,0-1.77l-1.6-1.6a.66.66,0,0,1-.1-.8,17.34,17.34,0,0,0,1.68-4.18.65.65,0,0,1,.64-.51h2.16a1.25,1.25,0,0,0,1.25-1.25v-6a1.25,1.25,0,0,0-1.25-1.25h-2.27a.65.65,0,0,1-.63-.49,17.55,17.55,0,0,0-1.78-4.14.66.66,0,0,1,.1-.81L149,44.46a1.25,1.25,0,0,0,0-1.77l-4.24-4.24a1.25,1.25,0,0,0-1.77,0l-2,2h0a17.51,17.51,0,0,0-4.63-1.93.67.67,0,0,1-.5-.64V35.68a1.25,1.25,0,0,0-1.25-1.25h-6a1.25,1.25,0,0,0-1.25,1.25v2.26a.65.65,0,0,1-.49.63,17.62,17.62,0,0,0-4.15,1.78.65.65,0,0,1-.81-.1l-1.52-1.52a1.25,1.25,0,0,0-1.77,0L114.46,43a1.25,1.25,0,0,0,0,1.77l1.6,1.6a.66.66,0,0,1,.1.8,17.34,17.34,0,0,0-1.68,4.18.67.67,0,0,1-.64.51h-2.16A1.25,1.25,0,0,0,110.43,53.08Zm12.84-2.5a8,8,0,0,1,3.25-3.27c9.45-5.07,19,4.43,14,13.9a8,8,0,0,1-3.27,3.27C127.77,69.48,118.29,60,123.27,50.58Z"/><circle class="a603171b-a4ce-4e83-9ee6-6ac053afdf70" cx="131.88" cy="55.88" r="6.31"/></g><g class="e8f74090-357c-4d3d-8298-3a589d2b620a"><polygon class="a603171b-a4ce-4e83-9ee6-6ac053afdf70" points="299.21 79.28 299.21 58.23 297.02 58.23 297.02 81.47 336.52 81.47 336.52 79.28 299.21 79.28"/><rect class="a603171b-a4ce-4e83-9ee6-6ac053afdf70" x="301.36" y="73.31" width="3.83" height="4.31"/><rect class="a603171b-a4ce-4e83-9ee6-6ac053afdf70" x="308.66" y="68.84" width="3.83" height="8.78"/><rect class="a603171b-a4ce-4e83-9ee6-6ac053afdf70" x="315.96" y="73.31" width="3.83" height="4.31"/><rect class="a603171b-a4ce-4e83-9ee6-6ac053afdf70" x="323.26" y="64.37" width="3.83" height="13.25"/><rect class="a603171b-a4ce-4e83-9ee6-6ac053afdf70" x="330.55" y="68.84" width="3.83" height="8.78"/><path class="a603171b-a4ce-4e83-9ee6-6ac053afdf70" d="M311.72,62.06l3.88,3.51a.81.81,0,0,0,1,.08l9.79-6.41.62.94.86-1.71.86-1.71-1.91.11-1.91.11.58.88-9.26,6.07-3.87-3.5a.82.82,0,0,0-1-.09l-9.44,6,.87,1.39Z"/></g><g class="aa1e4604-1b17-4f6e-a9d5-0e3b3290f281"><circle class="f7cd5108-ac86-42e2-ba1f-a096de9c4920" cx="213.34" cy="22.46" r="3.42"/><path class="f7cd5108-ac86-42e2-ba1f-a096de9c4920" d="M218.42,31.12H208.26a4.6,4.6,0,0,1,4.61-4.61h.94a4.61,4.61,0,0,1,4.61,4.61Z"/><circle class="f7cd5108-ac86-42e2-ba1f-a096de9c4920" cx="226.88" cy="22.46" r="3.42"/><path class="f7cd5108-ac86-42e2-ba1f-a096de9c4920" d="M232,31.12H221.8a4.6,4.6,0,0,1,4.6-4.61h.95a4.6,4.6,0,0,1,4.6,4.61Z"/><circle class="f7cd5108-ac86-42e2-ba1f-a096de9c4920" cx="199.8" cy="22.46" r="3.42"/><path class="f7cd5108-ac86-42e2-ba1f-a096de9c4920" d="M204.88,31.12H194.73a4.6,4.6,0,0,1,4.6-4.61h.95a4.6,4.6,0,0,1,4.6,4.61Z"/><path class="f7cd5108-ac86-42e2-ba1f-a096de9c4920" d="M226.92,16.17a.25.25,0,0,1-.25-.24V10.19H200v5.74a.25.25,0,0,1-.49,0v-6a.24.24,0,0,1,.24-.24h27.16a.24.24,0,0,1,.24.24v6A.24.24,0,0,1,226.92,16.17Z"/><path class="f7cd5108-ac86-42e2-ba1f-a096de9c4920" d="M213.34,16.17a.25.25,0,0,1-.25-.24v-6a.25.25,0,0,1,.25-.24.24.24,0,0,1,.24.24v6A.24.24,0,0,1,213.34,16.17Z"/><circle class="f7cd5108-ac86-42e2-ba1f-a096de9c4920" cx="226.94" cy="16.46" r="0.79"/><circle class="f7cd5108-ac86-42e2-ba1f-a096de9c4920" cx="213.33" cy="16.46" r="0.79"/><circle class="f7cd5108-ac86-42e2-ba1f-a096de9c4920" cx="199.74" cy="16.46" r="0.79"/></g><path class="a603171b-a4ce-4e83-9ee6-6ac053afdf70" d="M443.48,180.26l-17.17-5.42-7,22.25a6.9,6.9,0,0,0,4.51,8.66L441,211.17l7-22.25A6.9,6.9,0,0,0,443.48,180.26ZM422.31,198.9l-.28-3,1.12-.1.14,1.57,3.19-1.13.37,1.06Zm2.15-6.8-.28-3,1.11-.11.15,1.57,3.18-1.13.38,1.06Zm2.14-6.81-.27-3,1.11-.1.15,1.57,3.18-1.13.37,1.05ZM441,203.62l-12.57-4,.47-1.51,12.57,4Zm2.14-6.81-12.56-4,.47-1.5,12.57,4Zm2.15-6.8-12.56-4,.47-1.5,12.57,4Z"/><g class="e8f74090-357c-4d3d-8298-3a589d2b620a"><path class="a603171b-a4ce-4e83-9ee6-6ac053afdf70" d="M397.21,44.12a12.21,12.21,0,0,1,4.33-2.54l.3,2.2,7.07-5.5-8.3-3.38.31,2.22a16.19,16.19,0,0,0-6.27,4.59,15.33,15.33,0,0,0-3.52,8.59A14.78,14.78,0,0,0,393.07,59a14.39,14.39,0,0,0,6.32,5.81,14,14,0,0,1-5.28-6.33,13,13,0,0,1-.66-7.85A12.38,12.38,0,0,1,397.21,44.12Z"/><path class="a603171b-a4ce-4e83-9ee6-6ac053afdf70" d="M419.2,45.88A14.47,14.47,0,0,0,412.54,40a13.92,13.92,0,0,1,5.62,6.42,13,13,0,0,1,.7,8.13,12.5,12.5,0,0,1-4,6.67,12.2,12.2,0,0,1-4.24,2.34l-.31-2.13-7,5.55,8.32,3.32-.35-2.37a16.21,16.21,0,0,0,6.09-4.22,15.46,15.46,0,0,0,3.87-8.8A14.83,14.83,0,0,0,419.2,45.88Z"/><path class="a603171b-a4ce-4e83-9ee6-6ac053afdf70" d="M411.5,52.6a5.34,5.34,0,1,1-5.34-5.34A5.34,5.34,0,0,1,411.5,52.6Z"/></g><rect class="b9f4b980-eca2-4cf2-8833-8535b9188d5a" x="209.97" y="303.6" width="65.63" height="18.43"/><path class="a609f24a-5e6c-4a5b-b53c-4768cb5b55d7" d="M402.17,111.26V296.85a8.13,8.13,0,0,1-8.12,8.12H91.52a8.13,8.13,0,0,1-8.12-8.12V111.26a8.11,8.11,0,0,1,8.11-8.12H394.06A8.1,8.1,0,0,1,402.17,111.26Z"/><path class="ae3c925e-9ff1-409e-8f72-593760d168a0" d="M402.17,111.26V286.63H83.39V111.26a8.12,8.12,0,0,1,8.11-8.12H394.06A8.1,8.1,0,0,1,402.17,111.26Z"/><rect class="a1f8ed83-45f5-411f-bcb6-55e5d3cfc1d4" x="91.23" y="111.27" width="303.1" height="166.79"/><path class="ae3c925e-9ff1-409e-8f72-593760d168a0" d="M192.92,320.26h99.73a3.65,3.65,0,0,1,3.65,3.65V326a0,0,0,0,1,0,0h-107a0,0,0,0,1,0,0v-2.11A3.65,3.65,0,0,1,192.92,320.26Z"/><rect class="a07e4090-bc9f-4cb0-997b-dcb07074bd51" x="103.9" y="120.4" width="87.75" height="43.39" rx="0.89"/><path class="b9f4b980-eca2-4cf2-8833-8535b9188d5a" d="M129.32,134H120.2v6h8.09v3.83H120.2v6.36h9.12v3.93H115.38V130.07h13.94Z"/><path class="b9f4b980-eca2-4cf2-8833-8535b9188d5a" d="M146.16,130.1c5.78,0,8.67,3.34,8.67,7.37a6.94,6.94,0,0,1-5.47,6.92l5.75,9.74h-5.58l-5.3-9.36H142v9.36h-4.82v-24Zm-.17,4h-4v7.06h4c2.68,0,3.89-1.41,3.89-3.58S148.67,134.09,146,134.09Z"/><path class="b9f4b980-eca2-4cf2-8833-8535b9188d5a" d="M171.5,144.9h-4v9.23h-4.82v-24h8.85c5.78,0,8.67,3.27,8.67,7.44C180.17,141.18,177.69,144.9,171.5,144.9Zm-.21-3.89c2.72,0,3.92-1.34,3.92-3.47S174,134,171.29,134h-3.82v7Z"/><rect class="a2142477-58a2-477f-bfbb-5616bcb98cbb" x="103.9" y="173.79" width="87.75" height="91.52" rx="0.82"/><rect class="af2b3d89-0560-4306-9eb7-67eeba6654e9" x="200.76" y="183.03" width="180.09" height="82.29" rx="2.13"/><path class="ab2d905f-66c5-4e92-a434-b932eddfec38" d="M213.62,257s13.73,5.14,21.69-3.86,10.48-27,18.44-28.93,13,18,29.28,18,19.52-28.61,30.37-28.61,14.82,16.72,25.67,16.72,25.31-32.47,25.31-32.47"/><path class="a4cbad6b-9d5e-4f26-97ba-8bb110987273" d="M368,197.6a3.09,3.09,0,1,1-3.07-2.73A2.91,2.91,0,0,1,368,197.6Z"/><path class="a4cbad6b-9d5e-4f26-97ba-8bb110987273" d="M316.29,213.35a3.09,3.09,0,1,1-3.07-2.73A2.91,2.91,0,0,1,316.29,213.35Z"/><path class="a4cbad6b-9d5e-4f26-97ba-8bb110987273" d="M256.82,224.2a3.1,3.1,0,1,1-3.07-2.73A2.92,2.92,0,0,1,256.82,224.2Z"/><path class="b9f4b980-eca2-4cf2-8833-8535b9188d5a" d="M342.17,147.57a12.06,12.06,0,0,0,3.7,8.7l-8,8a23.46,23.46,0,0,1,16.44-40.19v11.35A12.11,12.11,0,0,0,342.17,147.57Z"/><path class="f2c1957a-f317-49f8-8c18-6523bb1f3870" d="M377.74,147.57H366.38a12.11,12.11,0,0,0-12.1-12.11V124.11A23.46,23.46,0,0,1,377.74,147.57Z"/><path class="a4cbad6b-9d5e-4f26-97ba-8bb110987273" d="M377.74,147.57a23.46,23.46,0,0,1-39.9,16.73l8-8a12.1,12.1,0,0,0,20.51-8.7Z"/><rect class="a16e3323-dbda-463c-ae06-f04d267e0c1a" x="286.17" y="136.53" width="36.93" height="2.37"/><rect class="a16e3323-dbda-463c-ae06-f04d267e0c1a" x="286.17" y="146.38" width="36.93" height="2.37"/><rect class="a16e3323-dbda-463c-ae06-f04d267e0c1a" x="286.17" y="156.23" width="36.93" height="2.37"/><rect class="a4cbad6b-9d5e-4f26-97ba-8bb110987273" x="119.67" y="184.51" width="65.45" height="1.64"/><rect class="a4cbad6b-9d5e-4f26-97ba-8bb110987273" x="119.67" y="188.75" width="48.86" height="1.64"/><rect class="a4cbad6b-9d5e-4f26-97ba-8bb110987273" x="108.45" y="184.51" width="8.24" height="6.02"/><rect class="b9f4b980-eca2-4cf2-8833-8535b9188d5a" x="119.67" y="200.53" width="65.45" height="1.64"/><rect class="b9f4b980-eca2-4cf2-8833-8535b9188d5a" x="119.67" y="204.77" width="48.86" height="1.64"/><rect class="b9f4b980-eca2-4cf2-8833-8535b9188d5a" x="108.45" y="200.53" width="8.24" height="6.02"/><rect class="a4cbad6b-9d5e-4f26-97ba-8bb110987273" x="119.67" y="216.55" width="65.45" height="1.64"/><rect class="a4cbad6b-9d5e-4f26-97ba-8bb110987273" x="119.67" y="220.79" width="48.86" height="1.64"/><rect class="a4cbad6b-9d5e-4f26-97ba-8bb110987273" x="108.45" y="216.55" width="8.24" height="6.02"/><rect class="b9f4b980-eca2-4cf2-8833-8535b9188d5a" x="119.67" y="232.57" width="65.45" height="1.64"/><rect class="b9f4b980-eca2-4cf2-8833-8535b9188d5a" x="119.67" y="236.81" width="48.86" height="1.64"/><rect class="b9f4b980-eca2-4cf2-8833-8535b9188d5a" x="108.45" y="232.57" width="8.24" height="6.02"/><rect class="a4cbad6b-9d5e-4f26-97ba-8bb110987273" x="119.67" y="248.59" width="65.45" height="1.64"/><rect class="a4cbad6b-9d5e-4f26-97ba-8bb110987273" x="119.67" y="252.83" width="48.86" height="1.64"/><rect class="a4cbad6b-9d5e-4f26-97ba-8bb110987273" x="108.45" y="248.59" width="8.24" height="6.02"/><rect class="a4cbad6b-9d5e-4f26-97ba-8bb110987273" x="212.95" y="148.52" width="2.82" height="13.45"/><rect class="f2c1957a-f317-49f8-8c18-6523bb1f3870" x="216.97" y="142.34" width="2.82" height="19.63"/><rect class="a4cbad6b-9d5e-4f26-97ba-8bb110987273" x="228.79" y="139.71" width="2.82" height="22.26"/><rect class="f2c1957a-f317-49f8-8c18-6523bb1f3870" x="232.81" y="137.37" width="2.82" height="24.6"/><rect class="a4cbad6b-9d5e-4f26-97ba-8bb110987273" x="244.63" y="147.42" width="2.82" height="14.55"/><rect class="f2c1957a-f317-49f8-8c18-6523bb1f3870" x="248.66" y="133.89" width="2.82" height="28.08"/><rect class="a4cbad6b-9d5e-4f26-97ba-8bb110987273" x="260.48" y="129.63" width="2.82" height="32.34"/><rect class="f2c1957a-f317-49f8-8c18-6523bb1f3870" x="264.5" y="137.4" width="2.82" height="24.57"/><rect class="b9f4b980-eca2-4cf2-8833-8535b9188d5a" x="213.45" y="164.4" width="53.36" height="1.07"/><rect class="b9f4b980-eca2-4cf2-8833-8535b9188d5a" x="213.45" y="168.14" width="53.36" height="1.07"/><path class="a91d7444-8c49-47dd-a434-87e9734d3c9a" d="M370.34,269.19a2,2,0,0,0-1.41.14c-3.6,1.8-21.75,11-21.61,13.38.15,2.61,24.65-8.59,24.86-10S373,269.91,370.34,269.19Z"/><path class="a91d7444-8c49-47dd-a434-87e9734d3c9a" d="M350.59,280.05l-.16-.33h0l-1.4-.38a2.23,2.23,0,0,0-1.09,0l-1.49.34s.28.69.81.66a2.37,2.37,0,0,1,.87.22l-.87.32-2.06.94a.91.91,0,0,0-.36,1.37l.64.85a.56.56,0,0,0,.51.22l1.52-.18a5.91,5.91,0,0,0,2.28-.72l1.88-1Z"/><path class="ab04c473-9dc0-4d5f-ab5a-80994e14859f" d="M376.42,249.58a2.9,2.9,0,0,1,1.2,2.85c-.67,4.93-3.18,21.42-6.85,21.2-4.32-.26-1.22-14.76.2-18.85C372.16,251.38,374.17,248.14,376.42,249.58Z"/><path class="e9484778-bee9-4465-a47f-4b2c1b2d707b" d="M379.49,254.13l-.4,1.41-3.44,12-2.75-.82h0l-4.31-1.27a61.65,61.65,0,0,1,.83-8c.47-3.38.64-5.79,1.64-6.6.05,0,3.28-1.92,3.34-1.95a2.6,2.6,0,0,1,.4-.27l1.7,2Z"/><path class="af7671dd-f673-479f-82b6-d3948db57db1" d="M362.68,272.23l2.28,4.1.31.56s5.09-1.8,6.82-3.33l.16-.14c1.7-1.72,3.75-7.36,3.75-7.36L371.24,250s-1.92,2.26-2.5,8.69-.67,10-.88,10.52S362.68,272.23,362.68,272.23Z"/><path class="af7671dd-f673-479f-82b6-d3948db57db1" d="M365,276.33l.31.56s5.09-1.8,6.82-3.33l.16-.14-2.53-14.19s-.17,6.87-.31,9.67S369.13,275.37,365,276.33Z"/><path class="a91d7444-8c49-47dd-a434-87e9734d3c9a" d="M384.3,236.73c.26,3-2.26,8.25-2.26,8.25l.57,3.34.14,2.72-4.59,2.84-1.79-4.72-.45-3.13s-2.87-.16-3.36-2.44-3.76-10.43,2.74-12.1S384.06,233.72,384.3,236.73Z"/><path class="ab04c473-9dc0-4d5f-ab5a-80994e14859f" d="M376.13,286.91a4.24,4.24,0,0,1,5.47,2.64,28.22,28.22,0,0,1,1.5,7.64c.58,8.27,3.42,17.74.79,19.7s-6.31-2.55-8.35-10.4c-1.84-7.1-5.86-15.1-4.21-16.9C372.16,288.67,374.26,287.67,376.13,286.91Z"/><path class="ab04c473-9dc0-4d5f-ab5a-80994e14859f" d="M381.18,313c4.91-5.77,11.94,24.11,12.35,32.55s-3,2.25-7.4-10.3S379.25,315.26,381.18,313Z"/><path class="ab04c473-9dc0-4d5f-ab5a-80994e14859f" d="M387.55,316.22s3.45,5.5,6,28l-4.22,1.57-9.81-27.63Z"/><polygon class="a91d7444-8c49-47dd-a434-87e9734d3c9a" points="394.22 348.11 393.55 344.18 389.33 345.75 390.63 349.43 394.22 348.11"/><path class="e4335879-4153-45d6-b394-86da5893d1e1" d="M390.63,349.43a24.1,24.1,0,0,1-2.8,4.87c-2.07,2.91-2.91,2.69-2.74,3.47s11.28-3.41,11.28-3.41l-2.15-6.25A29.16,29.16,0,0,0,390.63,349.43Z"/><path class="ab04c473-9dc0-4d5f-ab5a-80994e14859f" d="M386.9,289.83a4.25,4.25,0,0,1,2.17,5.68,28,28,0,0,1-4.14,6.59c-5.25,6.41-9.69,15.25-12.94,14.87s-3.16-6.18.74-13.28c3.53-6.43,6.41-15,8.85-15.2A15.92,15.92,0,0,1,386.9,289.83Z"/><path class="ab04c473-9dc0-4d5f-ab5a-80994e14859f" d="M370.77,315.59c6.2-4.36,5.5,26.33,3.77,34.61s-3.49,1.42-4.57-11.83S368.34,317.31,370.77,315.59Z"/><path class="ab04c473-9dc0-4d5f-ab5a-80994e14859f" d="M376.37,317.43a14.79,14.79,0,0,0-.79,2.67,126.66,126.66,0,0,1-.18,28l-4.46.56s-5.15-32.29-3.51-35.23S376.37,317.43,376.37,317.43Z"/><polygon class="a91d7444-8c49-47dd-a434-87e9734d3c9a" points="375.16 352.1 375.4 348.12 370.94 348.68 371.36 352.56 375.16 352.1"/><path class="e4335879-4153-45d6-b394-86da5893d1e1" d="M371.17,351.09a18.46,18.46,0,0,1-3.95,3.71c-2.86,2.12-3.6,1.65-3.67,2.45s11.78.24,11.78.24l-.11-6.61A32.32,32.32,0,0,0,371.17,351.09Z"/><path class="ae3c925e-9ff1-409e-8f72-593760d168a0" d="M370.45,290.75c1-4.71,8.73-3.78,8.73-3.78s5.89,1.06,7.68,11.76a116.38,116.38,0,0,1,1.47,15.62s4.76,15.76,5.57,30l-5.21,1.69s-7.58-21.3-9.38-26.83C379.31,319.26,369.43,295.45,370.45,290.75Z"/><path class="ae3c925e-9ff1-409e-8f72-593760d168a0" d="M372.68,294.61c.87-2.72.88-4.59,1.91-5.24,4.05-2.59,15.7,1.6,15.7,1.6s1.16,6.95-2.55,12.82a94.94,94.94,0,0,1-11.14,14.59c1.69,8.16-.88,29.95-.88,29.95l-5.24,0s-4.81-25.34-4-33C367,309.87,370.2,302.32,372.68,294.61Z"/><path class="a1f8ed83-45f5-411f-bcb6-55e5d3cfc1d4" d="M370,263.23c0,1.23,0,2.52,0,3.84,0,.74,0,1.5,0,2.26s0,1.51,0,2.26c0,.58,0,1.17,0,1.75v1.05c0,1,0,2.08,0,3.08.11,7.4.24,13.54.24,13.54l19.94,0s-1.05-11-.9-15c0-1.27.14-4.23.19-7.74v-.09c.13-7.61,1.41-17.08.24-18.3a18.59,18.59,0,0,0-2.38-1.4,8.46,8.46,0,0,0-2.17-.69c-1.46-.27-2.69-.37-2.69-.37s-1.8,2.5-4.12,2.49a2.47,2.47,0,0,1-2.34-2.16,4.73,4.73,0,0,0-1,.09,6.67,6.67,0,0,0-.9.21c-.15,0-.29.09-.45.15a6.16,6.16,0,0,0-1.82,1.05,1.83,1.83,0,0,0-.16.13,5.19,5.19,0,0,0-1.61,3.4C370,254.3,370,258.33,370,263.23Z"/><path class="af7671dd-f673-479f-82b6-d3948db57db1" d="M369.3,295.87c.5.49,5.9.21,6.33-.72.33-.71-.26-14.88-.69-24.26-.08-1.94.95-12.76,1.33-18.85a3.37,3.37,0,0,0,0-.55c0-.73-.25-1.5-.35-2.43a1.75,1.75,0,0,1,.21-1.33,2.65,2.65,0,0,0-.83-.06,4.3,4.3,0,0,0-.46,0h0a6.75,6.75,0,0,0-.76.15c-.24.07-.49.14-.75.24a4.48,4.48,0,0,0-2.55,2.52c-.87,2-1.59,7.08-1,17.25v.06s-.07,2.05-.17,5C369.36,280.91,368.94,295.51,369.3,295.87Z"/><path class="af7671dd-f673-479f-82b6-d3948db57db1" d="M392.37,294.9c-1.52,1.78-10.31.89-10.79.41-.26-.26-1.15-9.9-1.63-18.78,0,0,0-.09,0-.14-.07-1.28-.12-2.54-.17-3.75,0-.26,0-.52,0-.77,0-.76,0-1.5-.06-2.2-.11-4.82-.16-15.88-.16-17.66a1.53,1.53,0,0,1,.05-.41c.23-.65,1.17-.49,2.7-3.08a4.25,4.25,0,0,0,.32-1.1h1.36a17.8,17.8,0,0,1,1.86.18c1.88.28,4,.92,4.64,2.36.9,2,1.16,3.53.62,7.11a76.2,76.2,0,0,0-1.18,10.27C389.88,270.41,393,294.19,392.37,294.9Z"/><path class="af7671dd-f673-479f-82b6-d3948db57db1" d="M379.74,271.86c.05,1.45.12,3,.2,4.53a5.06,5.06,0,0,0,4.24-.08c3.18-1.83,4.84-10.75,4.84-10.75Z"/><path class="af7671dd-f673-479f-82b6-d3948db57db1" d="M382.71,260.13s-1.13,7-2.1,7.28a2.88,2.88,0,0,1-1.65,0l1.87,1.72s2.4-2.07,2.47-2.23S382.71,260.13,382.71,260.13Z"/><path class="af7671dd-f673-479f-82b6-d3948db57db1" d="M379.56,251.6a1.48,1.48,0,0,1,1.32,1.46,14,14,0,0,0,.93-1.18,14.14,14.14,0,0,0,1.94-4.44h-1.17a4.25,4.25,0,0,1-.32,1.1C380.73,251.11,379.79,251,379.56,251.6Z"/><path class="ab04c473-9dc0-4d5f-ab5a-80994e14859f" d="M388.63,265.89s-2.64,8.61-5.28,9.61c-4.43,1.68-15-9.05-15-9.05l2.31-3.47s10.72,6.35,10.77,6.28.92-4.83.92-4.83Z"/><path class="a91d7444-8c49-47dd-a434-87e9734d3c9a" d="M384.18,272a2,2,0,0,0-.82-1.15C380,268.64,363,257.5,361,258.79c-2.19,1.44,19.74,17.1,21,16.59S384.89,274.68,384.18,272Z"/><path class="af7671dd-f673-479f-82b6-d3948db57db1" d="M391.18,252.05a4.55,4.55,0,0,0-2-3c-.88-.61-2.72-1.31-3.88.14-1.67,2.09-3.35,15.36-3.35,15.36a19,19,0,0,1-.77,3.27c-.28.32-2.59-.65-2.59-.65L375.68,273s3.33,3.43,7.68,2.85c1.92-.25,3.5-3.58,4.48-6.29.69-1.92,1.09-3.53,1.09-3.53.3-1.23.56-2.35.8-3.38C391.11,256.68,391.48,253.9,391.18,252.05Z"/><path class="a91d7444-8c49-47dd-a434-87e9734d3c9a" d="M364.69,260.29l.18-.32h0l-.47-1.38a2.21,2.21,0,0,0-.59-.91l-1.44-.8a1,1,0,0,0,.23.78,2.43,2.43,0,0,1,.29.85l-.74-.54-1.93-1.2a.92.92,0,0,0-1.34.47l-.35,1a.55.55,0,0,0,.1.54l1,1.18a6.28,6.28,0,0,0,1.87,1.49l2,.89Z"/><path class="af7671dd-f673-479f-82b6-d3948db57db1" d="M375.07,253.07s.66-2.24,1.19-1.58c0-.73-.25-1.5-.35-2.43a1.75,1.75,0,0,1,.21-1.33,2.65,2.65,0,0,0-.83-.06C374.94,248,374.43,250.67,375.07,253.07Z"/><path class="af7671dd-f673-479f-82b6-d3948db57db1" d="M379.18,267.58l-2.89,5.75a.45.45,0,0,1-.63.18l-.89-.54a.45.45,0,0,1-.17-.58l2.76-5.75a.45.45,0,0,1,.62-.2l1,.54A.45.45,0,0,1,379.18,267.58Z"/><path class="af7671dd-f673-479f-82b6-d3948db57db1" d="M363.6,271.56l2.48,5.05a.21.21,0,0,1-.1.28l-1,.42a.21.21,0,0,1-.27-.1l-2.42-4.94a.2.2,0,0,1,.09-.27l.93-.53A.2.2,0,0,1,363.6,271.56Z"/><path class="ae3c925e-9ff1-409e-8f72-593760d168a0" d="M385.61,239.92c-.13-.88-.8-.87-1.1-1.91s.33-3.37-.88-6.08-5.45-1.8-6.3-2.79a1.76,1.76,0,0,0-2.6-.23c-.41.58-.53,1.51-1.88.68s-2.37.35-2.15,1a1.6,1.6,0,0,1-.53,2.17c-1.07.89-.86,2.9,1.14,2.46s2.64.72,3.15,1.61a2.63,2.63,0,0,0,1.84,1,10.79,10.79,0,0,0,.31,1.75c.17.83.45,2.52.05,3-.53.71-1.56.13-2.44-.65s-2.18.25-2.18.25.88,3.23,1.77,3.47,1.67.3,3.59-.52.59-5.38.39-6.09a3,3,0,0,0,0-.52,1.31,1.31,0,0,1,2.43-.53c.89,1.33-.54,3.08-.53,4.34s3,3.51,4.5,2.36c1.65-1.26.84-2.32.62-3S385.74,240.81,385.61,239.92Z"/><path class="ab04c473-9dc0-4d5f-ab5a-80994e14859f" d="M176,287.67,193.3,287l.75-29.63-1.19-7.45-8-2.94-4.14,1.46a6.58,6.58,0,0,0-5.18,6.43L176.67,275Z"/><path class="ab04c473-9dc0-4d5f-ab5a-80994e14859f" d="M182.93,243.28v6a8.82,8.82,0,0,0,4.2.75c1.59,0,1.94-.75,1.94-.75V247Z"/><path class="e300c14f-0fa3-4682-95e9-be6dd99540b1" d="M194.91,262.68c-.77-1.61-12.83,3.61-16.17,5.21s-6.75,3.54-5.89,5.34,4.51.36,7.85-1.24S195.68,264.29,194.91,262.68Z"/><path class="e300c14f-0fa3-4682-95e9-be6dd99540b1" d="M182.23,238.84c0,.21,0,.41,0,.61s0,.14,0,.21c-.15,3.54,2.12,7.32,5.54,7.84H188c.73.09,3.38.31,4.35-.76a9,9,0,0,0,2.14-5.12,19.62,19.62,0,0,0-.29-2.57c0-.49.27-2,.27-2.71,0-3.15-2.1-6.28-5.87-6.28C182.94,230.08,182.07,235,182.23,238.84Z"/><path class="e300c14f-0fa3-4682-95e9-be6dd99540b1" d="M173.38,273.84c2,.49,5.88-10.57,7.2-15.38s1.5-8.85-.88-9.46-4.15,3-5.29,7.89S171.43,273.34,173.38,273.84Z"/><path class="eae27209-0de2-4a93-982d-e9fd31d758ff" d="M172.33,266s1.26-17.88,7.59-17.49-2.17,19.09-2.17,19.09Z"/><path class="eae27209-0de2-4a93-982d-e9fd31d758ff" d="M172.15,266.72l2.77.49.54.1,1.74.31,2,.36s.36-.91.22-1.14a3.82,3.82,0,0,0-1.19-.42l-.82-.2c-.7-.16-1.5-.33-2.25-.47l-.29-.05a8.79,8.79,0,0,0-2.52-.21.15.15,0,0,0-.07,0C172.09,265.73,172.15,266.72,172.15,266.72Z"/><path class="eae27209-0de2-4a93-982d-e9fd31d758ff" d="M174.85,258.26s0,4.84.05,7.44c0,.73,0,1.29,0,1.51l.54.1,1.74.31a1,1,0,0,1,0-.17c.07-.41.14-.84.2-1.23a10.07,10.07,0,0,0,.15-1.77C177.46,264.05,174.85,258.26,174.85,258.26Z"/><path class="ab04c473-9dc0-4d5f-ab5a-80994e14859f" d="M190,284.24c-1.78.57-3,3.59-2.63,6.56a49.1,49.1,0,0,0,2,9c2.89,9.05,4.73,20.94,7.27,21.16s3.95-6.89,2.21-16.52c-1.58-8.7-2.75-20-4.57-20.77C193.33,283.33,191.53,283.74,190,284.24Z"/><path class="ab04c473-9dc0-4d5f-ab5a-80994e14859f" d="M198.3,319.81c-6.91-2.43-3.78,29.39-1.46,36.19s3.19-4.85,3.61-16.59S201,320.76,198.3,319.81Z"/><polygon class="e300c14f-0fa3-4682-95e9-be6dd99540b1" points="195.45 355.93 194.97 352.17 200.12 352.29 200.06 356.08 195.45 355.93"/><path class="ab04c473-9dc0-4d5f-ab5a-80994e14859f" d="M176.68,286.39c-1.76.6-2.81,3.65-2.32,6.6a49.5,49.5,0,0,0,2.47,9c3.34,9,5.77,20.78,8.33,20.94s3.61-7,1.39-16.52c-2-8.65-3.75-19.92-5.61-20.62C180,285.41,178.21,285.86,176.68,286.39Z"/><path class="ab04c473-9dc0-4d5f-ab5a-80994e14859f" d="M186.77,320.79c-5.64-4.73-13.42,26.33-13.57,33.54s4.48-3.48,8.88-14.36S189,322.65,186.77,320.79Z"/><polygon class="e300c14f-0fa3-4682-95e9-be6dd99540b1" points="172.48 353.31 173.37 349.17 178.17 350.82 176.89 354.69 172.48 353.31"/><path class="ae3c925e-9ff1-409e-8f72-593760d168a0" d="M200.06,355.82s.46,1.35,3.27,3.1,3.54,1.37,3.61,2-11.67.12-11.67.12l.18-5.4S200.06,355.68,200.06,355.82Z"/><path class="ae3c925e-9ff1-409e-8f72-593760d168a0" d="M177,354a12,12,0,0,0,1.42,3.55c1.11,2.05,2.62,2.16,2.32,2.67s-9.64-2.83-9.64-2.83l1.5-4.78Z"/><path class="ae3c925e-9ff1-409e-8f72-593760d168a0" d="M173,349.24l5.41,1.89s9.95-21.56,10.42-30.56a64,64,0,0,0-.31-8.15c-.46-5.32-1.29-11.67-2-16.89-.86-5.91-1.6-10.39-1.6-10.39l-10.62,1.1s-2.33,3.56-.09,13.44a193.14,193.14,0,0,0,6.35,20.78C180.64,320.93,175.82,332.18,173,349.24Z"/><path class="aa215b86-3ab1-4cdf-814a-1fb9841ef433" d="M182.17,292.59a68,68,0,0,0,6.34,19.83c-.46-5.32-1.29-11.67-2-16.89-.2-.69-.3-1.09-.3-1.09Z"/><path class="ae3c925e-9ff1-409e-8f72-593760d168a0" d="M195.79,285.25s5.56,19.86,5.8,33.44-1.18,33.89-1.18,33.89H194.6s-2.41-24-.94-32.95c0,0-12.32-18.83-12.2-34.37"/><path class="eae27209-0de2-4a93-982d-e9fd31d758ff" d="M195.92,285.86s-3.41-14.61-.76-21.2l.12-.32a13.51,13.51,0,0,0,.51-1.75,17,17,0,0,0,0-5.85c-.22-4-1.16-6-2.36-7.07s-8.28-3.11-13.12-1.76c-3.22.91-6.94,4.72-5.08,16.3a64.1,64.1,0,0,1,.73,12.89,45.21,45.21,0,0,1-1.67,9.14Z"/><path class="ab04c473-9dc0-4d5f-ab5a-80994e14859f" d="M207,269.54c1.53-1.27-5-10.89-8.09-14.77s-6.2-6.38-8.08-4.84,0,5.09,3.21,8.86S205.41,270.81,207,269.54Z"/><path class="e300c14f-0fa3-4682-95e9-be6dd99540b1" d="M198.39,264.44s4.29,5.77,7.7,5.8c2.5,0,7.9-11.74,7.9-11.74l-4-1.26s-4.2,6.86-4.3,6.83-2.79-3.62-2.79-3.62Z"/><path class="e300c14f-0fa3-4682-95e9-be6dd99540b1" d="M217.26,248.37c-1.55-.85-8.24,10.33-10,13.55s-3.4,6.76-1.66,7.71,3.84-2.32,5.61-5.54S218.81,249.22,217.26,248.37Z"/><path class="e300c14f-0fa3-4682-95e9-be6dd99540b1" d="M214.42,251a2.28,2.28,0,0,0,.29-1.84,13.26,13.26,0,0,1,0-2.09,1,1,0,0,1,.33-.8c.28-.18.64-.05,1,.05a1.7,1.7,0,0,0,1.82-.28c.34-.42.43-1.59.91-1.85a.52.52,0,0,1,.63,0c.88.57.75,1.8.54,2.72a5.15,5.15,0,0,1-2.07,3.47,8.68,8.68,0,0,0-2.24,2.12"/><path class="eae27209-0de2-4a93-982d-e9fd31d758ff" d="M195.28,264.34a13.51,13.51,0,0,0,.51-1.75c-.62-.81-2.8-3.46-5.32-6.36C190.21,257.71,191.31,261.45,195.28,264.34Z"/><path class="eae27209-0de2-4a93-982d-e9fd31d758ff" d="M189.35,250s3.53-3.25,8.65,3.55c4.14,5.5,5.24,6.77,5.24,6.77l-5,4.71S184.84,254.66,189.35,250Z"/><path class="eae27209-0de2-4a93-982d-e9fd31d758ff" d="M203.07,260c-.39-.06-5.58,4.07-5.56,4.67,0,.31.82.89.82.89l5.48-4.66S203.34,260,203.07,260Z"/><path class="ae3c925e-9ff1-409e-8f72-593760d168a0" d="M194.91,234.6a3.79,3.79,0,0,1-1.68,3.09c-1.54,1.2-2.21,4.06-2.27,6.17a15.74,15.74,0,0,1,0,2.06,3.56,3.56,0,0,1-.58,1.46c-.22.33-.49.62-.7,1a10.22,10.22,0,0,0-1,3.11,3.39,3.39,0,0,1-1.48,2.36,4.4,4.4,0,0,1-1.8.34c-1.44.06-2.87.11-4.31.06a9.4,9.4,0,0,1-4-.74A2.82,2.82,0,0,1,176,251a10,10,0,0,1,.48-3.43,11.84,11.84,0,0,0,.66-2.25,21,21,0,0,0-.12-2.62,7.23,7.23,0,0,1,1.12-3.44,16.76,16.76,0,0,0,1.35-3.68,9,9,0,0,1,2.2-3.79,8.32,8.32,0,0,1,4.46-2.95c3.23-.65,8.22.49,8.68,4.47A11.42,11.42,0,0,1,194.91,234.6Z"/><path class="a603171b-a4ce-4e83-9ee6-6ac053afdf70" d="M50.8,113.39a20.78,20.78,0,0,0-13.48,5L37.6,117a.93.93,0,0,0-.26-.84l-3.91-3.91a.93.93,0,0,0-1.57.47l-.31,1.59a.93.93,0,0,1-.73.72l-1.58.32a.93.93,0,0,0-.48,1.57l3.91,3.91a.93.93,0,0,0,.84.25l1.39-.28a20.85,20.85,0,1,0,15.9-7.38Zm0,37.41a16.53,16.53,0,0,1-12.26-27.63l2.9,2.89a12.6,12.6,0,1,0,1.17-1.16l-2.9-2.9A16.54,16.54,0,1,1,50.8,150.8ZM47.36,132a4.15,4.15,0,1,0,1.17-1.17l-3-2.95A8.25,8.25,0,1,1,44.41,129Z"/></g></g></svg>