<svg id="Layer_1" enable-background="new 0 0 511.732 511.732" height="512" viewBox="0 0 511.732 511.732" width="512" xmlns="http://www.w3.org/2000/svg"><path d="m321.004 215.902c-1.303-9.942-4.83-19.189-10.073-27.227l45.404-64.795c17.166-24.498 19.171-54.966 5.363-81.502s-39.911-42.378-69.825-42.378h-71.637c-.078 0-.155.012-.233.015-.061-.002-.12-.015-.182-.015-29.914 0-56.017 15.842-69.824 42.378s-11.803 57.004 5.363 81.501l45.404 64.796c-5.255 8.055-8.786 17.324-10.082 27.291-47.021 21.875-82.083 66.796-88.79 121.958-11.059 90.956 62.301 173.808 153.956 173.808 44.122 0 86.547-18.859 116.221-52.38 6.414-7.245-4.797-17.213-11.23-9.942-30.587 34.551-76.148 51.862-121.899 46.298-76.681-9.323-131.479-79.292-122.156-155.973 9.323-76.68 79.285-131.479 155.973-122.156 76.681 9.323 131.479 79.292 122.156 155.973-2.134 17.552-8.199 36.109-17.077 52.253-4.671 8.494 8.478 15.708 13.143 7.229 9.78-17.782 16.466-38.263 18.825-57.671 8.311-68.38-29.438-131.928-88.8-159.461zm-157.701-166.6c10.321-19.836 29.132-32.291 51.021-34.079l33.687 111.226-10.584 34.945c-10.122 2.961-19.236 8.292-26.704 15.356l-43.078-61.478c-13.896-19.829-15.519-44.491-4.342-65.97zm92.544 51.274-25.919-85.576h51.837zm45.124 76.174c-11.783-11.145-27.663-18.001-45.124-18.001-.658 0-1.308.031-1.961.05l43.484-143.576c21.889 1.789 40.699 14.243 51.021 34.079 11.177 21.479 9.554 46.141-4.342 65.97zm-45.124-3.001c22.686 0 41.936 14.968 48.408 35.545-9.487-3.113-19.408-5.356-29.689-6.606-23.356-2.839-46.147-.294-67.136 6.641 6.46-20.595 25.719-35.58 48.417-35.58z"/><path d="m255.847 250.346c-58.612 0-106.297 47.685-106.297 106.297s47.685 106.297 106.297 106.297 106.297-47.685 106.297-106.297-47.685-106.297-106.297-106.297zm0 197.593c-50.341 0-91.297-40.956-91.297-91.297s40.956-91.297 91.297-91.297 91.297 40.956 91.297 91.297-40.956 91.297-91.297 91.297z"/><path d="m307.193 341.646-22.961-12.558c-.352-.192-.639-.479-.831-.831l-12.558-22.961c-2.999-5.483-8.746-8.89-14.996-8.89s-11.997 3.407-14.996 8.891l-12.559 22.962c-.191.351-.479.638-.831.831l-22.96 12.558c-5.484 2.999-8.892 8.746-8.892 14.996s3.407 11.997 8.892 14.996l22.963 12.559c.35.191.637.478.829.83l12.558 22.961c2.999 5.484 8.745 8.891 14.996 8.891s11.997-3.407 14.996-8.891l12.559-22.961c.191-.351.479-.638.831-.831l22.96-12.558c5.484-2.999 8.892-8.746 8.892-14.996s-3.408-11.998-8.892-14.998zm-7.198 16.833-22.957 12.556c-2.876 1.571-5.227 3.921-6.798 6.796l-12.558 22.96c-.492.9-1.27 1.089-1.836 1.089s-1.344-.189-1.836-1.088l-12.557-22.959c-1.572-2.875-3.923-5.226-6.796-6.795l-22.96-12.558c-.899-.492-1.089-1.27-1.089-1.836s.189-1.344 1.089-1.836l22.959-12.557c2.875-1.571 5.226-3.921 6.796-6.795l12.558-22.96c.492-.899 1.27-1.088 1.836-1.088s1.344.189 1.836 1.088l12.557 22.96c1.571 2.875 3.922 5.225 6.796 6.795l22.96 12.558c.899.492 1.089 1.27 1.089 1.836s-.189 1.341-1.089 1.834z"/></svg>