<svg id="Layer_1" enable-background="new 0 0 512 512" height="512" viewBox="0 0 512 512" width="512" xmlns="http://www.w3.org/2000/svg"><path d="m510.713 249.921c-90.724-200.592-418.738-200.544-509.426 0-1.716 3.871-1.716 8.287 0 12.157 90.723 200.592 418.739 200.544 509.426 0 1.715-3.87 1.715-8.286 0-12.157zm-254.713 8.079c8.284 0 15-6.716 15-15v-15.463l31.752 41.725-18.624 26.86h-56.255l-18.624-26.86 31.751-41.725v15.463c0 8.284 6.716 15 15 15zm-23 68.122h46v48.675c-14.812 2.923-31.188 2.923-46 0zm76 38.634v-51.855l24.616-35.503c3.703-5.341 3.545-12.459-.391-17.63l-65.289-85.796c-5.75-7.829-18.124-7.828-23.873 0l-65.289 85.796c-3.936 5.171-4.094 12.29-.391 17.63l24.617 35.503v51.855c-113.672-56.696-75.784-227.982 53.001-229.756 128.799 1.782 166.658 173.083 52.999 229.756zm-277.459-108.756c22.681-46.533 64.767-83.578 116.424-105.38-56.869 56.013-56.852 154.765.001 210.761-51.658-21.803-93.745-58.848-116.425-105.381zm332.492 105.38c56.87-56.013 56.854-154.765.001-210.761 51.657 21.802 93.744 58.847 116.424 105.38-22.68 46.534-64.767 83.579-116.425 105.381z"/></svg>