<svg xmlns="http://www.w3.org/2000/svg" viewBox="0 0 135.63 130.38"><g style="opacity:0.6000000238418579"><path d="M49.89,8.7c-.8,0-1.7-.1-2.6-.1-1.4,0-2.9,0-4.4.1-9.6.5-21,7.3-26.6,16.6,1.4-1.3,2.8-2.6,4.3-3.8C28.09,15.6,38.59,11.1,49.89,8.7Z" style="fill:#b40813"/><path d="M133.29,55.4h0A63.45,63.45,0,0,0,129,44.7c-1.4-2.8-2.5-.4-4,2.8,0,5.3-1,10.4-2.7,13.1a45,45,0,0,1-9.5,11A51.1,51.1,0,0,1,115,83.8h0a45.63,45.63,0,0,1-.8,11.6c-2.8,14.1-14.1,20.9-28.4,20.9a59.83,59.83,0,0,1-23-5.1A90.79,90.79,0,0,1,39.29,96h0c-7.8-6.9-15.1-15.5-19.5-25.5h0a47,47,0,0,1-3.1-30.1c2.1-9,13-18.5,19.2-20a43.67,43.67,0,0,1,10.3-1.2c27.6,0,58.2,24.4,66.7,52.3a45,45,0,0,0,9.5-11c1.7-2.8,2.7-7.8,2.7-13.1-1.5,3.1-3.4,6.9-6.4,7.2-14.9-15.8-28.2-38.4-56.1-44.5-2.4.3-4.7.6-6.9,1,2.2-.4,4.5-.7,6.9-1a69.07,69.07,0,0,0-12.5-1.5c-11.3,2.4-21.8,6.9-29.2,12.9a53.33,53.33,0,0,0-4.3,3.8,24.21,24.21,0,0,0-2.8,6.6c-.5,2-.9,4-1.3,6h0A80.73,80.73,0,0,0,12,59.8h0c2.5,21.8,13.4,42.7,28.1,55.6h0c7.7,6.7,16.4,11.2,25.4,12.5H89C123.39,119.9,142.59,87,133.29,55.4Z" style="fill:#b40813"/></g><g style="opacity:0.30000001192092896"><path d="M65.89,87.2c-17.4,0-34.6-5.4-46.1-16.6h0a40.76,40.76,0,0,1-5.9-7c-.8-1.3-1.5-2.5-2.2-3.8,2.5,21.8,13.4,42.7,28.1,55.6-3.7-4.6-4-14.3-.6-19.3h0c.2-.3.4-.5.6-.8,10.1.2,21,1.8,32.2,1.8,14.2,0,28.9-2.5,43-13.2a51.1,51.1,0,0,0-2.2-12.2C100.89,81.8,83.29,87.2,65.89,87.2Z" style="fill:#b40813"/><path d="M130,36.7c-10.3-17.3-31.2-27.1-47.7-29.1a119,119,0,0,0-25.1-.2,60.67,60.67,0,0,0-7.3,1.3,67.33,67.33,0,0,1,12.5,1.5c3.3-.3,6.7-.6,10.1-.6,18.2,0,37.9,5.5,49,23.3,2.4,3.9,3.4,9.4,3.4,14.6,1.1-2.4,2-4.3,3-4-1-.3-1.9,1.6-3,4,0,5.3-1,10.4-2.7,13.1a45,45,0,0,1-9.5,11,51.1,51.1,0,0,1,2.2,12.2,74.9,74.9,0,0,0,10.7-9.9c4.1-4.5,6.8-11.4,7.6-18.5h0C134.09,48.8,133.09,42,130,36.7Z" style="fill:#b40813"/><path d="M11.79,59.8c-3.5-7.4-3-14.9.5-21.9.3-2,.8-4,1.3-6a27.47,27.47,0,0,1,2.8-6.6c-30.4,29.1-16.2,75.9,23.5,90h0C25.19,102.5,14.29,81.6,11.79,59.8Z" style="fill:#b40813"/><path d="M12.29,37.9c4.5-8.9,14-16.8,26.6-22.1a91,91,0,0,1,23.6-5.7A69.07,69.07,0,0,0,50,8.6c-11.3,2.4-21.8,6.9-29.2,12.9a53.33,53.33,0,0,0-4.3,3.8,24.21,24.21,0,0,0-2.8,6.6A33.3,33.3,0,0,0,12.29,37.9Z" style="fill:#b40813"/></g><path d="M106.39,119a74.44,74.44,0,0,1-19.3,2.6c-18.7-.3-13.7-10.9-10.2-14.5,18.3-18.8,45.5-37,40.3-78.8-.9-7.1-5.6-14.7-12.7-20.8,0,0-20.7-17-51.5.2C28.19,21.6,9.69,49.9,8.69,73.1c-1,22.8,9.1,37,24.1,47,18.7,12.5,47.4,10.1,47.4,10.1C106.79,127.7,113.19,117.2,106.39,119ZM36,105.7c-21.4-2.7-27.9-25.4-19.6-50.1,4.3-12.9,19.3-35.8,39-46.6,2.8-1.4,23-11,39.2.6,5.1,3.8,9.3,8.9,10.4,12.5,11.8,36.5-28.7,88.7-69,83.6Z" style="fill:#b40813"/></svg>