<svg id="bcec23ed-7dee-45e2-a22b-17e19f5a3c2e" data-name="Layer 1" xmlns="http://www.w3.org/2000/svg" xmlns:xlink="http://www.w3.org/1999/xlink" viewBox="0 0 1471.36 998.87"><defs><style>.bf493d95-8791-4113-9f5c-897b6661b7a0,.e5a5128f-fdcc-42a0-a34d-fd5d17e61a0c{fill:none;}.bf493d95-8791-4113-9f5c-897b6661b7a0{clip-path:url(#a79e4ed4-2b91-4c33-8652-f37378e5df47);}.bebb95b7-3384-4ff5-9385-bb670480347d{fill:#061e43;}.ea2258d7-c119-40a0-a45d-db5031383611{fill:#66c2ab;}.fa56d4bd-a474-43d5-8025-58b6444964f9{fill:#f4f8ff;}.f69bfa98-0e6e-4596-9b8a-c03eb34d6171{fill:#edf8f1;}.a3367d90-28af-4468-8c85-1500bb7e4cfa{fill:#2d7770;}.f269d570-3593-49c8-bbd9-b0db9c0a3436{fill:#fca372;}.bba1541c-c6c9-40b8-997c-365bd1d92020{fill:#070b3b;}.b4199585-7079-487c-a840-2b9e04ff69e6{clip-path:url(#bbf254c8-4fcd-4678-b477-fc269a14fa0b);}.f0226ace-0fd3-4e55-b714-ad96324f0aa2{fill:url(#fbaf9300-6370-4565-9fbe-07c5e04f4929);}.b56920f9-4e49-4750-8458-4f15fd18487b{fill:url(#ae68067c-85b3-444f-a1c5-bbca5bb8bd17);}.a3c24535-dcfb-43f2-90c4-cdb1190ab057{fill:url(#bafdc8a3-6a72-476e-b371-7ef34f77ef16);}.a813f3bc-2ce5-45c2-8f29-193e27542152,.aea60552-e7ab-4653-8832-db5786230c54,.e4defbb4-7541-42fa-881e-64b11a541f7c{fill:#a1dbcc;}.e4defbb4-7541-42fa-881e-64b11a541f7c{opacity:0.6;}.a1369f6f-ec9e-48ca-b2e6-d762ad9cef7a,.a2559e40-67c8-489c-b2e9-dc8d34738618,.aea60552-e7ab-4653-8832-db5786230c54,.e4defbb4-7541-42fa-881e-64b11a541f7c{isolation:isolate;}.a1e2b95d-85cc-45b1-8cbe-9dc69a2867f3{fill:#d2e4fa;}.e7021233-fd5c-40a4-8668-7ff30e3dee7c{fill:#144d4c;}.aea60552-e7ab-4653-8832-db5786230c54{opacity:0.3;}.b29caed9-9b4a-4767-987c-245371b7af79{fill:#e7f0ff;}.aa11033a-3d13-456f-832f-4b5888fe8dee{fill:#a3bfeb;}.b9027213-c86e-4c55-aa0c-4aee846e9702{fill:#fff;}.eedc3ccf-ef78-49e3-900d-0adff0e56be5{fill:#a8d0f5;}.bb2db54c-5915-46b4-8e3a-eac7b3689782{fill:#002d87;}.b939b8e3-0ee3-44bd-8b33-e8fd5f664ab9{fill:url(#ae5b6105-9528-482f-ad49-4fd2bd15fcf5);}.a14241bf-f3c8-496a-b2eb-33a3d44b270f{fill:#f9d8c7;}.afe03b9f-ced5-4b34-a555-1bedf35a62bd{fill:#4aa4c2;}.fb21964b-fb13-4d67-b5c5-57b9ce0def1a{fill:#fcd02d;}.fa82a235-1fec-482c-9aee-afb8b0a44330{fill:url(#a3e3f014-58fa-448c-90ef-43ab9f4b3c1d);}.a6f594ac-6e22-4b44-a336-fbf3df9ab554{fill:url(#b0033bd3-2314-4c74-af6b-ff340cec8980);}.b2d7691a-7939-44bc-b0d8-f032512139ed{fill:#0072a8;}.ff311478-af78-449f-ba88-3449c7fe7abd{fill:#192c78;}.ad278e17-dd23-4ba1-931e-8cc4a2340a2e{fill:#00b7d8;}.ae15dcab-5865-4554-adea-85767be81a5d{fill:#eef5f7;}.a69b7ec1-02d0-4cd8-928d-c5717264181b{fill:#ffd131;}.f86726a0-4ffe-404a-8c79-624c98178367{fill:url(#eb189cf0-4678-454a-b9e7-a053c2ea7efd);}.e4cc70d3-2a3e-46dd-a1ed-aff319223ffd{fill:#af6641;}.adfb29de-28f7-4c7b-b22b-8a7de9a5a4a9{fill:#f8bfb4;}.eaef53bd-1ae4-4e29-823a-548e0b75cf2e{fill:url(#bc68aaef-20bc-4ca2-bd45-be7ac13b1aa0);}.a03aa64d-7534-4101-a860-61ec74505e54{fill:url(#fda6b966-82e7-49a0-ad6a-ebe6e577e876);}.eb6a621b-3888-48b7-a071-16b2f4b6275f{fill:url(#b85a497f-6fdb-4d33-a8f4-b1e460b199c8);}.f0f647eb-39f9-49d5-9b77-0746a38c9070{fill:url(#b254c7a6-b3c9-443f-b299-5acccada23a6);}.a8c8bff3-64ee-4773-8fb3-60ab3700ee52{fill:#73d0d9;}.e092719e-da39-40bd-b2c8-54e0a77d5e73{fill:#071841;}.a9007b10-6ec1-4a64-a60b-aadc9b1ccf68{fill:#519399;}.bbff51a3-025f-42cc-b19a-f2b8ef9ec59e{clip-path:url(#aa7a8bc5-f0f9-4dde-9f69-3089dc8c32af);}.a2559e40-67c8-489c-b2e9-dc8d34738618{fill:#0ef;opacity:0.2;}.a168ab00-044b-4514-93ab-79021fd500a2{fill:#ec91a4;}.e2bc98c3-aac2-4754-ab83-9261d60f92b1{fill:#5ecff5;}.b56391bb-0f6a-41f9-9a81-a225cf536fe8{clip-path:url(#a2cea765-8711-435b-9d50-97a3c191a1c8);}.a76ff074-7ecc-4473-99bf-9da77d5e8555{fill:#2d6375;}.a325d0d2-0400-4bf7-88d0-56f922c856de{clip-path:url(#f87b010e-d11f-41e7-a6e4-de1a54c491e0);}.f0cfb613-3400-42fc-8a8c-7fca947b4df3{fill:url(#aaca9ad6-ee41-489b-b4e3-187ac69e9711);}.e3853634-14b2-4466-96e1-044d5752f712{fill:url(#a6f9bb80-42e2-44b4-b89b-8e317219d4e0);}.bc6aed67-520f-4656-a1bb-664302646b1c{fill:#506c75;}.a61dbfb5-e455-4ce3-8a33-e86aa9cd9aab{fill:url(#bc8f54a6-5ae4-47dd-9eff-710e86d672d8);}.ac1d78aa-db58-43f9-b4da-e7666ffeaa8d{fill:url(#bf5e7e66-07e3-4124-979e-16183ad465fb);}.ad3fc5aa-119d-48df-b501-be0a3afdb2ef{fill:url(#be445620-01bf-4b3a-9bea-39ce54d78933);}.bf7972f6-79e7-4613-a495-bb47ca35f498{fill:url(#b77c6715-feea-4375-811a-9942cbad653b);}.f5d31769-a6c0-40d3-965e-3a0fe90c2fed{fill:url(#e6bd1bf4-41be-4bcb-b86e-633000f727b5);}.a23de303-c7c4-44f0-9629-4c2b2ecc073b{fill:#efd0b1;}</style><clipPath id="a79e4ed4-2b91-4c33-8652-f37378e5df47"><polygon class="e5a5128f-fdcc-42a0-a34d-fd5d17e61a0c" points="-85.85 -137.99 -84.85 -137.99 -85.85 -136.99 -85.85 -137.99"/></clipPath><clipPath id="bbf254c8-4fcd-4678-b477-fc269a14fa0b"><polygon class="bf493d95-8791-4113-9f5c-897b6661b7a0" points="-87.85 -139.99 -88.85 -139.99 -87.85 -140.99 -87.85 -139.99"/></clipPath><linearGradient id="fbaf9300-6370-4565-9fbe-07c5e04f4929" x1="265.34" y1="701.88" x2="543.32" y2="881.66" gradientTransform="matrix(1, 0, 0, -1, 0, 922.01)" gradientUnits="userSpaceOnUse"><stop offset="0" stop-color="#fff"/><stop offset="0.8" stop-color="#343434"/><stop offset="1"/></linearGradient><linearGradient id="ae68067c-85b3-444f-a1c5-bbca5bb8bd17" x1="265.34" y1="701.88" x2="543.32" y2="881.66" gradientTransform="matrix(1, 0, 0, -1, 0, 922.01)" gradientUnits="userSpaceOnUse"><stop offset="0" stop-color="#d2e4fa"/><stop offset="1" stop-color="#e7f0ff"/></linearGradient><linearGradient id="bafdc8a3-6a72-476e-b371-7ef34f77ef16" x1="1312.22" y1="388.74" x2="-31.87" y2="392.26" xlink:href="#fbaf9300-6370-4565-9fbe-07c5e04f4929"/><linearGradient id="ae5b6105-9528-482f-ad49-4fd2bd15fcf5" x1="173.56" y1="766.89" x2="196.02" y2="766.89" gradientTransform="matrix(1, 0, 0, -1, 0, 922.01)" gradientUnits="userSpaceOnUse"><stop offset="0" stop-color="#95b4e4"/><stop offset="1" stop-color="#c0d9fd"/></linearGradient><linearGradient id="a3e3f014-58fa-448c-90ef-43ab9f4b3c1d" x1="187.26" y1="627.13" x2="186.41" y2="827.61" gradientTransform="matrix(1, 0, 0, -1, 0, 922.01)" gradientUnits="userSpaceOnUse"><stop offset="0" stop-color="#00d5d1"/><stop offset="1" stop-color="#00c9f1"/></linearGradient><linearGradient id="b0033bd3-2314-4c74-af6b-ff340cec8980" x1="782.18" y1="540.48" x2="780.63" y2="908.05" gradientTransform="translate(1101.45 922.01) rotate(180)" gradientUnits="userSpaceOnUse"><stop offset="0" stop-color="#009ce4"/><stop offset="1" stop-color="#00c9f1"/></linearGradient><linearGradient id="eb189cf0-4678-454a-b9e7-a053c2ea7efd" x1="1063.65" y1="516.51" x2="1211.45" y2="516.51" xlink:href="#fbaf9300-6370-4565-9fbe-07c5e04f4929"/><linearGradient id="bc68aaef-20bc-4ca2-bd45-be7ac13b1aa0" x1="1102.35" y1="24.18" x2="1414.17" y2="334.58" xlink:href="#fbaf9300-6370-4565-9fbe-07c5e04f4929"/><linearGradient id="fda6b966-82e7-49a0-ad6a-ebe6e577e876" x1="1102.35" y1="24.18" x2="1414.17" y2="334.58" xlink:href="#ae68067c-85b3-444f-a1c5-bbca5bb8bd17"/><linearGradient id="b85a497f-6fdb-4d33-a8f4-b1e460b199c8" x1="410.51" y1="-4.16" x2="577.54" y2="162.11" xlink:href="#fbaf9300-6370-4565-9fbe-07c5e04f4929"/><linearGradient id="b254c7a6-b3c9-443f-b299-5acccada23a6" x1="410.51" y1="-4.16" x2="577.54" y2="162.11" xlink:href="#ae68067c-85b3-444f-a1c5-bbca5bb8bd17"/><clipPath id="aa7a8bc5-f0f9-4dde-9f69-3089dc8c32af"><path class="e5a5128f-fdcc-42a0-a34d-fd5d17e61a0c" d="M467.05,372c0-81.1,120.7-146.8,269.5-146.8s269.6,65.7,269.6,146.8v184.5c0-81.1-120.7-146.8-269.6-146.8s-269.5,65.7-269.5,146.8Z"/></clipPath><clipPath id="a2cea765-8711-435b-9d50-97a3c191a1c8"><path class="e5a5128f-fdcc-42a0-a34d-fd5d17e61a0c" d="M1006.15,372v184.5c0,81.1-120.7,146.8-269.6,146.8s-269.5-65.7-269.5-146.8V372c0,81.1,120.7,146.8,269.5,146.8S1006.15,453.11,1006.15,372Z"/></clipPath><clipPath id="f87b010e-d11f-41e7-a6e4-de1a54c491e0"><path class="e5a5128f-fdcc-42a0-a34d-fd5d17e61a0c" d="M327.15,642.81c-6.1,2.7-7.9,3.9-11.5,22.3-1.9,9.6-3.6,48,3.9,102.1.8,5.8,59.1,8.3,57.1-.7-5.6-25-23.2-66.4-22.1-78.9s6-18.6,2.8-28.6c-1.3-3.8-6.6-10.2-10.9-11.7C341.35,645.61,330.75,641.21,327.15,642.81Z"/></clipPath><linearGradient id="aaca9ad6-ee41-489b-b4e3-187ac69e9711" x1="467.05" y1="95.44" x2="541.5" y2="144.54" xlink:href="#fbaf9300-6370-4565-9fbe-07c5e04f4929"/><linearGradient id="a6f9bb80-42e2-44b4-b89b-8e317219d4e0" x1="467.05" y1="95.44" x2="541.5" y2="144.54" xlink:href="#ae68067c-85b3-444f-a1c5-bbca5bb8bd17"/><linearGradient id="bc8f54a6-5ae4-47dd-9eff-710e86d672d8" x1="1315.74" y1="233.34" x2="1385.54" y2="286.29" xlink:href="#fbaf9300-6370-4565-9fbe-07c5e04f4929"/><linearGradient id="bf5e7e66-07e3-4124-979e-16183ad465fb" x1="1315.74" y1="233.34" x2="1385.54" y2="286.29" xlink:href="#ae68067c-85b3-444f-a1c5-bbca5bb8bd17"/><linearGradient id="be445620-01bf-4b3a-9bea-39ce54d78933" x1="1343.65" y1="337.9" x2="1305.38" y2="359.8" gradientTransform="matrix(1, 0, 0, -1, 0, 922.01)" gradientUnits="userSpaceOnUse"><stop offset="0" stop-color="#ec91a4"/><stop offset="1" stop-color="#ffa883"/></linearGradient><linearGradient id="b77c6715-feea-4375-811a-9942cbad653b" x1="1197.32" y1="164.63" x2="1281.4" y2="214.37" xlink:href="#fbaf9300-6370-4565-9fbe-07c5e04f4929"/><linearGradient id="e6bd1bf4-41be-4bcb-b86e-633000f727b5" x1="1197.32" y1="164.63" x2="1281.4" y2="214.37" xlink:href="#ae68067c-85b3-444f-a1c5-bbca5bb8bd17"/></defs><rect class="e5a5128f-fdcc-42a0-a34d-fd5d17e61a0c" x="-86.85" y="-138.99" width="1600" height="1200"/><polygon class="bebb95b7-3384-4ff5-9385-bb670480347d" points="18.45 209.71 18.45 233.51 271.65 379.71 271.65 356.51 18.45 209.71"/><polygon class="ea2258d7-c119-40a0-a45d-db5031383611" points="527.05 209.71 527.05 233.51 271.65 379.71 271.65 356.51 527.05 209.71"/><polygon class="fa56d4bd-a474-43d5-8025-58b6444964f9" points="18.45 204.31 271.65 351.11 527.05 204.31 119.25 146.71 18.45 204.31"/><polygon class="f69bfa98-0e6e-4596-9b8a-c03eb34d6171" points="18.45 204.31 271.65 351.11 527.05 204.31 273.75 57.51 18.45 204.31"/><polygon class="a3367d90-28af-4468-8c85-1500bb7e4cfa" points="271.65 351.11 271.65 356.51 527.05 209.71 527.05 204.31 271.65 351.11"/><polygon class="a3367d90-28af-4468-8c85-1500bb7e4cfa" points="271.65 351.11 271.65 356.51 18.45 209.71 18.45 204.31 271.65 351.11"/><path class="f269d570-3593-49c8-bbd9-b0db9c0a3436" d="M452.75,344.71c-2,1.7-3.7,6-3.7,6-5.3,4.2-7.3,7.2-11.4,9.1-6.8,3.2-13.8-16.1-21-22.4-5.2-4.6-9.1,9.1-7.5,11,3.6,4.4,15,27,27.5,24,6.1-1.5,16.6-15.6,18.3-16.2s3.8-3.1,5.9-5.2c2.2-1.5,6.5-4.7,6.2-6-.2-.9-.8-.6-1-.5.3-.2,1.8-1.1,1.6-2-.4-1.3-1.6-.6-2-.6.3-.2,1.8-1.2,1.5-2.1-.5-1.2-3.4.7-3.4.7s1.4-.9.9-1.9C464.05,337.21,456.35,341.81,452.75,344.71Z"/><path class="bebb95b7-3384-4ff5-9385-bb670480347d" d="M408.65,495.31c2.7,1.9,12.6,10.7,8.7,12.2-3.2,1.2-9.7-3.5-13.1-6.3-2.8-2.3-3.8-4.5-1.9-7.6C403.65,491.51,406.65,493.81,408.65,495.31Z"/><path class="f269d570-3593-49c8-bbd9-b0db9c0a3436" d="M416.85,392.91c1.9,9.8,5.6,46.9,4.9,51.2-2.5,14.4-10.1,41.1-11,52.6-.3,3.5-9-.5-8.2-3.3.9-3.4-.5-31.7,2.6-46.6,2.1-10.5-10.1-58.6-5.6-64.6C401.65,379.21,415.75,387.41,416.85,392.91Z"/><path class="bebb95b7-3384-4ff5-9385-bb670480347d" d="M386.35,500.31c2.7,1.9,12.6,10.7,8.7,12.2-3.2,1.2-9.7-3.5-13.1-6.3-2.8-2.3-3.8-4.5-1.9-7.6C381.35,496.51,384.35,498.91,386.35,500.31Z"/><path class="f269d570-3593-49c8-bbd9-b0db9c0a3436" d="M394.55,397.91c1.9,9.8,5.6,46.9,4.9,51.2-2.5,14.4-10.1,41.1-11,52.6-.3,3.5-9-.5-8.2-3.3.9-3.4-.5-31.7,2.6-46.6,2.1-10.5-4.9-58.4-.5-64.3C384.55,384.51,393.45,392.41,394.55,397.91Z"/><path class="a3367d90-28af-4468-8c85-1500bb7e4cfa" d="M380.85,383.61c-3.2,6.2-3,44.8,1,64.6.9,4.3,15.2,1.5,23.2-1.8,1.9-.8.9-22.6,2.7-23.6s6.4,19,7.9,18c4-2.7,6.7-5.6,6.3-8.1-.7-4.1-5.6-51.7-5.6-51.7Z"/><path class="bba1541c-c6c9-40b8-997c-365bd1d92020" d="M389.35,341.81c2.1-2.8,7.9-6.7,11.3-8.9,3.1-2,5.2-3.9,9.1-3.7a6.68,6.68,0,0,1,3.1.6c2.3.9,5.2,2.9,7.9,14.6,2.2,9.4-.8,15.5-1.7,16.9-2.1,3.2-3,14.5-2.2,24.5.6,7.4-36.4,23.6-37.4,11.8C377.75,375.21,382.85,350.41,389.35,341.81Z"/><path class="f269d570-3593-49c8-bbd9-b0db9c0a3436" d="M376.85,413.51c.5-2.6.1-8.6.1-8.6,1.5-6.8.1-10,3.8-21.3,3.4-10.5,11.6-18,14.7-29.1,1.5-5.4-6.6-11.7-8.2-9.6-10.4,14.1-15.5,27.5-16.9,32.6-.8,2.9-.7,25.5-1.6,27.2s-1,2.1-1.2,5.2c-.7,2.7-2.1,8-1.1,8.8.7.6,1,0,1.1-.2-.1.3-.8,2.1,0,2.6,1.2.8,1.6-.6,1.9-.9-.1.4-.7,2.2.2,2.6,1.2.6,2.2-2.9,2.2-2.9s-.5,1.6.4,2.1C373.85,422.71,376,418.21,376.85,413.51Z"/><path class="bebb95b7-3384-4ff5-9385-bb670480347d" d="M419.45,315.61c.8,5.2.6,10.8-1.2,13.3s-1.3,4,1,7.1,1.1,5.1-.3,6.3-5.5-2.5-4.6-5.8-3-3.1-2.9-6,.6-2.2,2.1-6.1a36,36,0,0,0,1.9-8Z"/><path class="f269d570-3593-49c8-bbd9-b0db9c0a3436" d="M413.45,327c-2.5,2.1-2,3.6,1.2,7.4,1.6,1.9-15.9,7.1-14.2,2.3,2.4-6.9-8.4,3.1-7.2,2.2,2.2-1.7,8.5-6.8,8.8-8.4s2.5-13.6,2.5-13.6S417.05,324.11,413.45,327Z"/><path class="f269d570-3593-49c8-bbd9-b0db9c0a3436" d="M404.55,317c0,5.2,4.9,11.4,9.3,11.4s6.3-6.4,6.6-11.4c.4-5.2-3.6-9.4-7.9-9.4S404.55,311.81,404.55,317Z"/><path class="bebb95b7-3384-4ff5-9385-bb670480347d" d="M402.05,313.41c-2.6,5.6,1.3,10.3-8.9,20.5-3.3,3.3-.7,15.6,5.4,17s11.4-1.8,11.1-7.2c-.1-1.7-13.6-1.2-3.3-15.3,2.1-2.9,2-8.2,3.1-10.2s2.3,3,7.7,3,4.8-3.3,4.3-6a10.79,10.79,0,0,0-7.7-8C411,306.41,404.55,308,402.05,313.41Z"/><g id="a07f8a1d-7c86-4f38-9edd-8429558efd78" data-name="SVGID"><g class="b4199585-7079-487c-a840-2b9e04ff69e6"><polygon class="f0226ace-0fd3-4e55-b714-ad96324f0aa2" points="150.85 236.41 218.75 197.21 292.05 234.31 222.55 277.81 232.85 283.71 282.25 255.21 293.35 261.31 461.35 164.91 343.25 98.21 140.55 230.41 150.85 236.41"/></g></g><polygon class="b56920f9-4e49-4750-8458-4f15fd18487b" points="150.85 236.41 218.75 197.21 292.05 234.31 222.55 277.81 232.85 283.71 282.25 255.21 293.35 261.31 461.35 164.91 343.25 98.21 140.55 230.41 150.85 236.41"/><g id="bad0f0b3-8d8d-4d09-abfd-9cec518b0dbb" data-name="SVGID"><g class="b4199585-7079-487c-a840-2b9e04ff69e6"><path class="a3c24535-dcfb-43f2-90c4-cdb1190ab057" d="M996.35,316.21c-160.7-40.2-144.9,25.2-374.2,107.1l79.4,6.8c-135.1,5.1-222.6,33.2-222.6,112v48.3c0,88.3,132.5,159.9,295.9,159.9,28.1,0,40.1,13.1,65.9,9.1,0,0,35.5-8.8,31-32.1-.3-1.7-16.9-35.1-16.9-35.1a41.14,41.14,0,0,0-4.3-7.3h0a40.67,40.67,0,0,0-36.4-16.6c-12.8,1.1-25.9,1.7-39.2,1.7h-.4l139.1-93.6c-115.5-9.3-269.6-50.5-236.8-114.1,42.8-20.2,36.9-7.8,98.1-7.8,80.1,0,151.2,20.9,195.6,53.2l42.2,50c.8,1.9,1.4,3.7,2,5.6-4.3,13.3-12.2,25.9-23.3,37.5a95.3,95.3,0,0,0-26.3,65.8l5.9,42.4,35.1-18.9c40.5-27.4,64.7-62,64.7-99.8v-46.7c18.2-13.3,38.9-27.6,55.5-36.4C1189,474,1157.15,356.41,996.35,316.21Z"/></g></g><path class="e4defbb4-7541-42fa-881e-64b11a541f7c" d="M996.35,316.21c-160.7-40.2-144.9,25.2-374.2,107.1l79.4,6.8c-135.1,5.1-222.6,33.2-222.6,112v48.3c0,88.3,132.5,159.9,295.9,159.9,28.1,0,40.1,13.1,65.9,9.1,0,0,35.5-8.8,31-32.1-.3-1.7-16.9-35.1-16.9-35.1a41.14,41.14,0,0,0-4.3-7.3h0a40.67,40.67,0,0,0-36.4-16.6c-12.8,1.1-25.9,1.7-39.2,1.7h-.4l-42.4-60c-115.5-9.3-88.1-84.1-55.4-147.7,42.8-20.2,36.9-7.8,98.1-7.8,80.1,0,151.2,20.9,195.6,53.2l42.2,50c.8,1.9,1.4,3.7,2,5.6-4.3,13.3-12.2,25.9-23.3,37.5a95.3,95.3,0,0,0-26.3,65.8L971,709l35.1-18.9c40.5-27.4,64.7-62,64.7-99.8v-46.7c18.2-13.3,38.9-27.6,55.5-36.4C1189,474,1157.15,356.41,996.35,316.21Z"/><polygon class="a1e2b95d-85cc-45b1-8cbe-9dc69a2867f3" points="153.95 234.61 150.85 236.41 150.85 143.61 153.95 141.81 153.95 234.61"/><path class="e7021233-fd5c-40a4-8668-7ff30e3dee7c" d="M188.05,197a.6.6,0,0,1-.4-.1l-47.3-16.1a16.35,16.35,0,0,1-11-15.4v-43.2a1.2,1.2,0,0,1,2.4,0v43.2a13.87,13.87,0,0,0,9.5,13.2l46.8,16,20.7-11.9L187.25,155a17.93,17.93,0,0,1-3.7-10.9v-16.6a1.22,1.22,0,0,1,1.2-1.2h0a1.22,1.22,0,0,1,1.2,1.2v16.6a15.68,15.68,0,0,0,3.2,9.4l22.2,28.7a1,1,0,0,1,.2.9,1.56,1.56,0,0,1-.6.8l-22.3,12.9A1.42,1.42,0,0,1,188.05,197Z"/><polygon class="aea60552-e7ab-4653-8832-db5786230c54" points="175.75 147.31 224.15 119.41 175.75 91.41 127.35 119.41 175.75 147.31"/><polygon class="b29caed9-9b4a-4767-987c-245371b7af79" points="175.75 152.51 224.15 124.51 224.15 119.41 175.75 147.31 175.75 152.51"/><polygon class="e7021233-fd5c-40a4-8668-7ff30e3dee7c" points="175.75 152.51 127.35 124.51 127.35 119.41 175.75 147.31 175.75 152.51"/><path class="e7021233-fd5c-40a4-8668-7ff30e3dee7c" d="M130.55,120.21a1.22,1.22,0,0,1-1.2-1.2v-17.1a21,21,0,0,0-.7-5.6l-5.8-21.6a1.14,1.14,0,1,1,2.2-.6l5.8,21.6a25.7,25.7,0,0,1,.8,6.2V119A1.13,1.13,0,0,1,130.55,120.21Z"/><path class="aa11033a-3d13-456f-832f-4b5888fe8dee" d="M174.35,95.71a1.22,1.22,0,0,1-1.2-1.2V77.41a21,21,0,0,0-.7-5.6l-5.8-21.6a1.14,1.14,0,0,1,2.2-.6l5.8,21.6a25.7,25.7,0,0,1,.8,6.2v17.1A1,1,0,0,1,174.35,95.71Z"/><polygon class="aea60552-e7ab-4653-8832-db5786230c54" points="166.65 29.51 163.45 27.61 113.75 56.41 116.95 58.21 166.65 29.51"/><polygon class="e7021233-fd5c-40a4-8668-7ff30e3dee7c" points="124.65 89.11 121.45 87.31 113.75 56.41 116.95 58.21 124.65 89.11"/><polygon class="ea2258d7-c119-40a0-a45d-db5031383611" points="174.35 60.41 124.65 89.11 116.95 58.21 166.65 29.51 174.35 60.41"/><path class="bebb95b7-3384-4ff5-9385-bb670480347d" d="M186.15,89.61c14.1-4.1,50.3-1.8,58.8,0,3,.6,9.5,6.8,5.9,14.6-7.2,15.8-46.2,40.1-61.1,47.5-3,1.5-12.4-7.9-9.8-10.1,8.1-6.9,12.4-14.4,22.6-21.4,10.8-7.5,15.4-9.6,15.4-9.6s-26.6,7.8-38.8,5.1c-3.8-.8-14-13.6-14-13.6S180.25,91.31,186.15,89.61Z"/><path class="b9027213-c86e-4c55-aa0c-4aee846e9702" d="M196.05,197.41c7.5,7,21.4,15.3,25.3,11.2,3-3.2-13.7-16.7-13.7-16.7s-2,2.8-4.4,1.6a40.57,40.57,0,0,1-6.3-4.8S192.55,194,196.05,197.41Z"/><path class="eedc3ccf-ef78-49e3-900d-0adff0e56be5" d="M181.75,140c-2.4,2.7-3.9,3.3-7.3,5.6-1.8,1.2,17.4,16.2,17.4,16.2s-3-7-4-8.5,2.6-5.5,2.6-5.6S183.65,137.91,181.75,140Z"/><path class="bebb95b7-3384-4ff5-9385-bb670480347d" d="M152.65,106.71c9.4,27.8,49.4,29.1,49.4,39,0,11-2.9,16-7,41.8-.6,3.6,11.4,8,12.6,5.8.8-1.6,21.2-48.8,13.8-60.6-2.8-4.5-30-29.3-47.4-36.2C167.65,94,150.45,100.21,152.65,106.71Z"/><path class="eedc3ccf-ef78-49e3-900d-0adff0e56be5" d="M166.65,124.91c12.2,4.8,26.6,8.1,37,8.2s16.6-2.6,16.6-2.6a11.34,11.34,0,0,1,2.1,4s-11.5,7-14.1,8.8a16.55,16.55,0,0,0-6.6,9.6s.1-9.8-2.2-11.3-17.3-7.6-21.3-9.6S166.65,124.91,166.65,124.91Z"/><path class="b9027213-c86e-4c55-aa0c-4aee846e9702" d="M179.35,141.61s-4.5,1.2-5.1,4c-.6,10.3,15.7,18.3,18.5,19.2,6.7,2.2,4.9-2.9,4.5-4-2.8-7.2-3.9-9-9.7-15.6C185.25,142.51,179.35,141.61,179.35,141.61Z"/><path class="bb2db54c-5915-46b4-8e3a-eac7b3689782" d="M192.75,164.81a8.68,8.68,0,0,0,2.8.5.89.89,0,0,0,.8-.5,4,4,0,0,0-.2-2.8c-1-2.9-5.3-4.3-12.3-12s-8.4-6.4-9.6-4.5C173.75,155.91,190.05,163.91,192.75,164.81Z"/><path class="b939b8e3-0ee3-44bd-8b33-e8fd5f664ab9" d="M192.25,165.31a9.91,9.91,0,0,0,2.5.5,1.2,1.2,0,0,0,1.2-.9,4.6,4.6,0,0,0-.4-2.4c-1.1-2.8-5.5-4.2-12.3-12s-8.9-6.6-9.6-4.5C171.35,154.41,189.55,164.51,192.25,165.31Z"/><path class="a14241bf-f3c8-496a-b2eb-33a3d44b270f" d="M171.75,33c8.5,6.5,13.8,10.6,22.4,29.3s31.7,28.4,38.1,33.9,1.6,11.2-3.5,10.5-4.2-8.1-7.9-10.1-18-5.4-25.8-14.8-29-33.5-29-33.5Z"/><path class="a3367d90-28af-4468-8c85-1500bb7e4cfa" d="M171.75,33c.8.6,1.5,1.2,2.2,1.7,10.9,9,12.2,16.3,9.8,29.7-2,10.8,6.2,24.6,6.2,24.6l-37.3,17.7s-16.6-41.3-8.3-57.6S167.45,29.71,171.75,33Z"/><path class="a3367d90-28af-4468-8c85-1500bb7e4cfa" d="M146.45,56.71c-.5,6.2-.6,18.1,9.9,25.8,5.3,4,10,12.4,14.4,15.6,0,0,15.9-4.1,13-6.2C159.75,74.51,146.45,56.71,146.45,56.71Z"/><path class="a14241bf-f3c8-496a-b2eb-33a3d44b270f" d="M168.55,32.21c-3.1,1.7.5,5.7.7,8.3s-1,9.9-4.8,8.1-11.4-11.2-10-11.9c2.6-1.4,9.9-15,9.9-15S173,29.81,168.55,32.21Z"/><path class="a14241bf-f3c8-496a-b2eb-33a3d44b270f" d="M177.55,19.21c3.6,4.8.1,13.4-6.2,15.4s-6.7-5.4-7.3-8C162.75,20.11,169.75,8.81,177.55,19.21Z"/><path class="bebb95b7-3384-4ff5-9385-bb670480347d" d="M161.85,26.21c.4-2.7.8-6.1,1.7-7.9,2.5-4.5,10.5-8.6,14.6-1.4,1.7,3,4,7.5.9,6.9a17.81,17.81,0,0,0-6.3.5,12.25,12.25,0,0,0-5.7,2.8C165.45,28.21,161.85,26.21,161.85,26.21Z"/><path class="a14241bf-f3c8-496a-b2eb-33a3d44b270f" d="M167.15,29h0a1.69,1.69,0,0,1-1.6-1.8l.1-2.3a1.69,1.69,0,0,1,1.8-1.6h0a1.69,1.69,0,0,1,1.6,1.8l-.1,2.3A1.76,1.76,0,0,1,167.15,29Z"/><path class="bebb95b7-3384-4ff5-9385-bb670480347d" d="M220.35,209.31c-2.6.7-11.2-3.6-14.5-5.7s-10.5-7.2-11.1-9.8a4.4,4.4,0,0,0,1.3,3.6C203,203.91,215.45,211.51,220.35,209.31Z"/><path class="bebb95b7-3384-4ff5-9385-bb670480347d" d="M204.25,198.51a.37.37,0,0,1-.3-.1.37.37,0,0,1,0-.6c1.5-1.7,4.6-4.1,7-3.5.2.1.4.3.3.5s-.3.4-.5.3c-2-.5-4.9,1.7-6.2,3.2C204.55,198.41,204.45,198.51,204.25,198.51Z"/><path class="bebb95b7-3384-4ff5-9385-bb670480347d" d="M206.15,199.91a.37.37,0,0,1-.3-.1.37.37,0,0,1,0-.6c1.5-1.7,4.6-4.1,7-3.5.2.1.4.3.3.5s-.3.4-.5.3c-2-.5-4.9,1.7-6.2,3.2C206.35,199.81,206.25,199.91,206.15,199.91Z"/><path class="bebb95b7-3384-4ff5-9385-bb670480347d" d="M208.05,201.21a.37.37,0,0,1-.3-.1.38.38,0,0,1,0-.6c1.6-1.9,4.4-3.9,6.7-3.3.2.1.4.3.3.5s-.3.4-.5.3c-1.8-.4-4.3,1.2-5.8,3C208.25,201.21,208.15,201.21,208.05,201.21Z"/><path class="bebb95b7-3384-4ff5-9385-bb670480347d" d="M209.85,202.61a.37.37,0,0,1-.3-.1.38.38,0,0,1,0-.6c1.6-1.9,4.2-3.6,6.5-3.1.2.1.4.3.3.5s-.3.4-.5.3c-2-.5-4.2,1.2-5.6,2.8A.4.4,0,0,1,209.85,202.61Z"/><path class="bb2db54c-5915-46b4-8e3a-eac7b3689782" d="M196.35,157.91c-.2,0-.3-.1-.4-.3-.5-1-.8-1.9-1.2-2,0,0-.2-.1-.7.1a.45.45,0,1,1-.4-.8,1.81,1.81,0,0,1,1.4-.2c.8.3,1.2,1.2,1.8,2.5a.48.48,0,0,1-.2.6A.77.77,0,0,1,196.35,157.91Z"/><path class="bb2db54c-5915-46b4-8e3a-eac7b3689782" d="M195.05,155.61c-.2,0-.3-.1-.4-.3-.5-1-.8-1.9-1.2-2a1,1,0,0,0-.7.1.45.45,0,0,1-.4-.8,1.81,1.81,0,0,1,1.4-.2c.8.3,1.2,1.2,1.8,2.5a.48.48,0,0,1-.2.6C195.15,155.61,195.15,155.61,195.05,155.61Z"/><path class="bb2db54c-5915-46b4-8e3a-eac7b3689782" d="M193.85,153.31c-.2,0-.3-.1-.4-.3-.5-1-.8-1.9-1.3-2a1,1,0,0,0-.7.1.45.45,0,0,1-.4-.8,1.81,1.81,0,0,1,1.4-.2c.8.3,1.2,1.2,1.8,2.5a.48.48,0,0,1-.2.6A.31.31,0,0,1,193.85,153.31Z"/><path class="bb2db54c-5915-46b4-8e3a-eac7b3689782" d="M192.55,151.11a.76.76,0,0,1-.4-.2c-.6-.9-1.1-1.7-1.5-1.8a1,1,0,0,0-.6.2c-.2.1-.5.1-.6-.1s-.1-.5.1-.6a2.42,2.42,0,0,1,1.3-.4c.8.2,1.3,1,2.1,2.2.1.2.1.5-.1.6A.37.37,0,0,1,192.55,151.11Z"/><polygon class="bebb95b7-3384-4ff5-9385-bb670480347d" points="404.65 184.51 394.45 178.61 394.45 85.81 404.65 91.71 404.65 184.51"/><polygon class="bebb95b7-3384-4ff5-9385-bb670480347d" points="150.85 236.41 140.55 230.41 140.55 137.61 150.85 143.61 150.85 236.41"/><polygon class="ea2258d7-c119-40a0-a45d-db5031383611" points="153.95 234.61 150.85 236.41 150.85 143.61 153.95 141.81 153.95 234.61"/><polygon class="a1e2b95d-85cc-45b1-8cbe-9dc69a2867f3" points="407.75 182.71 404.65 184.51 404.65 91.71 407.75 89.91 407.75 182.71"/><polygon class="ea2258d7-c119-40a0-a45d-db5031383611" points="407.75 182.71 404.65 184.51 404.65 91.71 407.75 89.91 407.75 182.71"/><polygon class="afe03b9f-ced5-4b34-a555-1bedf35a62bd" points="232.85 187.01 140.55 133.71 315.45 32.71 407.75 86.01 232.85 187.01"/><polygon class="fb21964b-fb13-4d67-b5c5-57b9ce0def1a" points="260.65 158.91 214.45 132.21 302.05 81.61 348.35 108.31 260.65 158.91"/><polygon class="fa82a235-1fec-482c-9aee-afb8b0a44330" points="232.85 190.91 140.55 137.61 140.55 133.71 232.85 187.01 232.85 190.91"/><polygon class="a3367d90-28af-4468-8c85-1500bb7e4cfa" points="232.85 190.91 140.55 137.61 140.55 133.71 232.85 187.01 232.85 190.91"/><polygon class="a6f594ac-6e22-4b44-a336-fbf3df9ab554" points="232.85 190.91 407.75 89.91 407.75 86.01 232.85 187.01 232.85 190.91"/><polygon class="a3367d90-28af-4468-8c85-1500bb7e4cfa" points="232.85 190.91 407.75 89.91 407.75 86.01 232.85 187.01 232.85 190.91"/><polygon class="bebb95b7-3384-4ff5-9385-bb670480347d" points="232.85 283.71 222.55 277.81 222.55 185.01 232.85 190.91 232.85 283.71"/><path class="b2d7691a-7939-44bc-b0d8-f032512139ed" d="M294.15,64.21l10.2,28.9a2.23,2.23,0,0,1-1,2.6l-34.9,20a2.32,2.32,0,0,1-1.6-1.6L257.45,87a2.23,2.23,0,0,1,1-2.6L292,65.11A4.32,4.32,0,0,1,294.15,64.21Z"/><path class="ff311478-af78-449f-ba88-3449c7fe7abd" d="M295.25,64.81l9.8,28.2a2.23,2.23,0,0,1-1,2.6l-34.7,20a1,1,0,0,1-1.4-.5l-9.8-28.2a2.23,2.23,0,0,1,1-2.6l34.7-20A1,1,0,0,1,295.25,64.81Z"/><path class="b9027213-c86e-4c55-aa0c-4aee846e9702" d="M293.85,67.31l8.8,25.4a1.91,1.91,0,0,1-.9,2.3l-31.2,18a.92.92,0,0,1-1.3-.5l-8.8-25.4a1.91,1.91,0,0,1,.9-2.3l31.2-18C293.05,66.61,293.75,66.81,293.85,67.31Z"/><path class="b2d7691a-7939-44bc-b0d8-f032512139ed" d="M307,96.91l25.3,13.9s.5,1.5-1.8,2.8l-33.2,19.1a2.62,2.62,0,0,1-2.7,0L270.85,119c-2-1.2-1.5-2.7-1.5-2.7l34.9-19.4A2.62,2.62,0,0,1,307,96.91Z"/><path class="ff311478-af78-449f-ba88-3449c7fe7abd" d="M307,95.51l24.8,14.3a1,1,0,0,1,0,1.7l-34.4,19.8a2.62,2.62,0,0,1-2.7,0L269.85,117a1,1,0,0,1,0-1.7l34.4-19.8A2.62,2.62,0,0,1,307,95.51Z"/><path class="ad278e17-dd23-4ba1-931e-8cc4a2340a2e" d="M310,111.21l8.8,5.1c.2.1.2.4,0,.6l-11.7,6.7a.75.75,0,0,1-.9,0l-8.8-5.1c-.2-.1-.2-.4,0-.6l11.7-6.7A1.39,1.39,0,0,1,310,111.21Z"/><path class="ad278e17-dd23-4ba1-931e-8cc4a2340a2e" d="M274.55,117l8.6,5a2.62,2.62,0,0,0,2.7,0l29.9-17.2a.67.67,0,0,0,0-1.2l-8.6-5a2.62,2.62,0,0,0-2.7,0l-29.9,17.2A.75.75,0,0,0,274.55,117Z"/><polygon class="a1e2b95d-85cc-45b1-8cbe-9dc69a2867f3" points="235.95 281.91 232.85 283.71 232.85 190.91 235.95 189.11 235.95 281.91"/><polygon class="ea2258d7-c119-40a0-a45d-db5031383611" points="235.95 281.91 232.85 283.71 232.85 190.91 235.95 189.11 235.95 281.91"/><path class="ae15dcab-5865-4554-adea-85767be81a5d" d="M315.35,229.91s.1,6-2.3,7c-5,2.1-10.9-4.1-14.9-11-4.7-8.1,2.5-8.7,7.8-3.9C314.15,229.41,315.35,229.91,315.35,229.91Z"/><path class="bba1541c-c6c9-40b8-997c-365bd1d92020" d="M315.35,228.31s.6,6-1.8,7c-5,2.1-11.4-4.1-15.4-11-4.7-8.1,2.5-8.7,7.8-3.9C314.15,227.81,315.35,228.31,315.35,228.31Z"/><path class="bba1541c-c6c9-40b8-997c-365bd1d92020" d="M317,189.51c-1.4,9.8.1,28.3-1.3,39.4-.5,4.4-9.6,1.2-11-3.7-3.2-11.5-9.6-44.2-1.9-52.8,8.2-9,36.4,3.6,36.4,3.6a48.32,48.32,0,0,0-1.3,11.3C338.35,203.41,318.85,176.11,317,189.51Z"/><path class="e7021233-fd5c-40a4-8668-7ff30e3dee7c" d="M337.05,277.91a3.14,3.14,0,0,1-2.6-1.4L308,243.41a1.14,1.14,0,0,1,1.8-1.4l26.6,33.1.1.1a.6.6,0,0,0,.8.3c.2,0,.5-.2.5-.7v-48a1.2,1.2,0,0,1,2.4,0v48a2.92,2.92,0,0,1-2.2,2.9A1.83,1.83,0,0,1,337.05,277.91Z"/><path class="e7021233-fd5c-40a4-8668-7ff30e3dee7c" d="M376.05,253.81a10.47,10.47,0,0,1-3-.5l-49.3-16.4-14.4,6.8a1.21,1.21,0,1,1-1-2.2l14.8-7a2.77,2.77,0,0,1,.9-.1l49.8,16.6a6.6,6.6,0,0,0,6.2-1,7,7,0,0,0,2.9-5.6V207a1.2,1.2,0,0,1,2.4,0v37.4a9.28,9.28,0,0,1-3.8,7.5A9,9,0,0,1,376.05,253.81Z"/><polygon class="b9027213-c86e-4c55-aa0c-4aee846e9702" points="338.95 231.21 290.55 203.31 338.95 175.31 387.35 203.31 338.95 231.21"/><polygon class="e7021233-fd5c-40a4-8668-7ff30e3dee7c" points="338.95 236.41 290.55 208.41 290.55 203.31 338.95 231.21 338.95 236.41"/><polygon class="ea2258d7-c119-40a0-a45d-db5031383611" points="338.95 236.41 387.35 208.41 387.35 203.31 338.95 231.21 338.95 236.41"/><path class="e7021233-fd5c-40a4-8668-7ff30e3dee7c" d="M384.05,204.11h0a1.22,1.22,0,0,1-1.2-1.2v-17.1a25.7,25.7,0,0,1,.8-6.2l5.8-21.6a1.14,1.14,0,0,1,2.2.6l-5.8,21.6a21,21,0,0,0-.7,5.6v17.1A1,1,0,0,1,384.05,204.11Z"/><path class="b9027213-c86e-4c55-aa0c-4aee846e9702" d="M321.45,120.91c8.2,4.2,10.4,5,18.8,10.6,9.2,6.1,4.1,25.1,14.2,30.7,4.9,2.7,12.6-2.6,13-5.1,2-11.4-14.7-30.7-19.3-33.3-2.7-1.5-23-9.9-24.7-10.7C318.15,110.61,317.35,118.81,321.45,120.91Z"/><path class="f269d570-3593-49c8-bbd9-b0db9c0a3436" d="M308.65,109.91c-.2-.3-1.8-.7-.8-1.7.7-.6,2.2.4,2.5.6a.6.6,0,0,1,0-1.1c1-.8,6.5-.2,8.9,1.1,2.9.9,2.8,3.1,4.1,4.2-3.5,1.6-6.1,4.9-2,7.9a73,73,0,0,0-7.3-4.1c-4.3-1.9-9.2-3-8.3-4.2.7-.8,2.6-.5,2.6-.5s-3.6-1.3-2.7-2.3C306.35,109.11,308.35,109.71,308.65,109.91Z"/><path class="ae15dcab-5865-4554-adea-85767be81a5d" d="M298.75,255.31s.6,4.8-.7,6c-4,3.8-10.4-.9-18.4-6.5-7.3-5.2-3.7-7.7,4.9-5.2C295.15,252.71,298.75,255.31,298.75,255.31Z"/><path class="bebb95b7-3384-4ff5-9385-bb670480347d" d="M298.75,253.91s.6,4.8-.7,6c-4,3.8-10.4-.9-18.4-6.5-7.3-5.2-3.7-7.7,4.9-5.2C295.15,251.31,298.75,253.91,298.75,253.91Z"/><path class="bebb95b7-3384-4ff5-9385-bb670480347d" d="M359.55,198.41c-4.5,24.1-54.5-.5-59,11-4.3,11.3.7,34.6-1.7,45.4-.9,4.1-11.2-.7-11.8-4.2-1.2-6.6-6.4-51.3-2.1-58.6,9.1-15.2,41.5-2.3,50.5-15.9C339.05,170.61,360.75,192,359.55,198.41Z"/><path class="bebb95b7-3384-4ff5-9385-bb670480347d" d="M362.75,193.81c-1.5,15.5-12.9,18-27.8,16.5s-27.8-4.4-32-3.4-22.3-8-18-15,11.1-8,21.5-8.4,22.6-2.4,29-7.5S362.75,193.81,362.75,193.81Z"/><path class="b9027213-c86e-4c55-aa0c-4aee846e9702" d="M352.85,125.11c5.7,2.5,7.4,3.8,10.7,21.1,1.7,9.1,7.8,18,2.1,47.5-1.5,7.9-44.1,10.7-41.9-2.6,1.8-10.8,4.1-12.1,3.1-23.8s-5.6-17.6-2.5-27c1.2-3.6,6.3-9.5,10.3-10.9C339.35,127.71,349.45,123.61,352.85,125.11Z"/><path class="f269d570-3593-49c8-bbd9-b0db9c0a3436" d="M334.65,123.71s3,4.1,0,5.6a18.12,18.12,0,0,0,13.7-4.3c-2.3.1-3.9-4.8-8.3-12.2C338,109.21,334.65,123.71,334.65,123.71Z"/><path class="f269d570-3593-49c8-bbd9-b0db9c0a3436" d="M340.25,114c.6,4.4-2.9,10.3-6.6,10.8s-6.1-4.8-6.9-9c-.9-4.4,2-8.4,5.7-8.9S339.65,109.51,340.25,114Z"/><path class="bebb95b7-3384-4ff5-9385-bb670480347d" d="M342.35,116.91c-2.8,0-5,3.2-5.9,3.3s-3.6-1-6.2-2.8-2.1-2.5-5.3-3.6-3.1-2.5-3.1-2.5,2.3-1.6,3.6-2.7c3.1-2.7,5-3.1,8.5-3.5C340.35,104.21,342.35,111.71,342.35,116.91Z"/><path class="f269d570-3593-49c8-bbd9-b0db9c0a3436" d="M330.45,120.21h0a1.35,1.35,0,0,1-1-1.6l.4-1.8a1.35,1.35,0,0,1,1.6-1h0a1.35,1.35,0,0,1,1,1.6l-.4,1.8A1.24,1.24,0,0,1,330.45,120.21Z"/><path class="b9027213-c86e-4c55-aa0c-4aee846e9702" d="M275.75,133.21c9.5,2.5,9.2,3.8,21.1,4.9,11,1,28.4-2.1,32.6-5,4.6-3.2,6.5,16.3,4,16.8-17.1,4-29.8.7-35,0-3-.4-23.8-8.8-25.6-9.2C267,139.61,271.35,132.11,275.75,133.21Z"/><path class="f269d570-3593-49c8-bbd9-b0db9c0a3436" d="M258.85,134.11c-.4.2-1.8,0-1.6,1.4.2.9,2,1,2.4,1-.2,0-.9,0-.6.9.3,1.2,5.8,2.1,8.5,2.5,2.8,1,3.4,1.1,5.2.9-1.9-3.3-2.1-7.6,3-7.6a51.68,51.68,0,0,0-7.9-3.3c-4.6-1-9.6-.8-9.5.7.1,1.1,1.7,1.2,1.7,1.2s-3.6-.4-3.5.9S258.45,134.11,258.85,134.11Z"/><path class="e7021233-fd5c-40a4-8668-7ff30e3dee7c" d="M339,229.51h0a1.22,1.22,0,0,1-1.2-1.2v-17.1a25.7,25.7,0,0,1,.8-6.2l5.8-21.6a1.14,1.14,0,1,1,2.2.6l-5.8,21.6a21,21,0,0,0-.7,5.6v17.1A1.13,1.13,0,0,1,339,229.51Z"/><polygon class="b9027213-c86e-4c55-aa0c-4aee846e9702" points="351.95 164.81 347.35 162.21 395.75 134.21 400.35 136.81 351.95 164.81"/><polygon class="e7021233-fd5c-40a4-8668-7ff30e3dee7c" points="343.55 196.91 338.95 194.41 347.35 162.21 351.95 164.81 343.55 196.91"/><polygon class="ea2258d7-c119-40a0-a45d-db5031383611" points="343.55 196.91 391.95 169.01 400.35 136.81 351.95 164.81 343.55 196.91"/><path class="f269d570-3593-49c8-bbd9-b0db9c0a3436" d="M313.75,116.31c-3.7.7-5.6,2.5-2.7,2.8s5.3-1.4,8.3-.5Z"/><path class="a14241bf-f3c8-496a-b2eb-33a3d44b270f" d="M151,53.51c9.5,3.8,7.1,30.3,15,37.2s25.3,16.4,30.5,17.3,12.9-3.9,13.6,4.2-12.5,7.6-18.4,4.7-28.9-9.6-36.7-19.7-12.4-27.4-11-35.1S147.55,52.11,151,53.51Z"/><path class="a14241bf-f3c8-496a-b2eb-33a3d44b270f" d="M204.45,107.41c.4-.1,11.9-4.2,12.1-2,.1,1.3-1.9,1.8-1.9,1.8s4.3-1,4.4.6c.1,1.2-2.2,1.7-2.7,1.8.5.1,2.2-.3,2.1,1.4-.1,1.2-2.8,1.6-2.8,1.6s1.2-.3,1,1c-.3,2.1-11.7,4.8-11.7,4.8l-1.9-9.1C203.15,109.31,203.25,107.61,204.45,107.41Z"/><path class="a14241bf-f3c8-496a-b2eb-33a3d44b270f" d="M198.05,108.11c2.6-1.1,6.6-5.4,8.3-6.1s2-.3,2-.3l-4.9,6.3Z"/><path class="b2d7691a-7939-44bc-b0d8-f032512139ed" d="M451.05,702.61l10.2,28.9a2.23,2.23,0,0,1-1,2.6l-34.9,20a2.32,2.32,0,0,1-1.6-1.6l-9.4-27.1a2.23,2.23,0,0,1,1-2.6l33.5-19.3A4.32,4.32,0,0,1,451.05,702.61Z"/><path class="ff311478-af78-449f-ba88-3449c7fe7abd" d="M452.15,703.21l9.8,28.2a2.23,2.23,0,0,1-1,2.6l-34.7,20a1,1,0,0,1-1.4-.5l-9.8-28.2a2.23,2.23,0,0,1,1-2.6l34.7-20A1,1,0,0,1,452.15,703.21Z"/><path class="b9027213-c86e-4c55-aa0c-4aee846e9702" d="M450.85,705.71l8.8,25.4a1.91,1.91,0,0,1-.9,2.3l-31.2,18a.92.92,0,0,1-1.3-.5l-8.8-25.4a1.91,1.91,0,0,1,.9-2.3l31.2-18A1,1,0,0,1,450.85,705.71Z"/><path class="b2d7691a-7939-44bc-b0d8-f032512139ed" d="M464,735.31l25.3,13.9s.5,1.5-1.8,2.8l-33.2,19.1a2.62,2.62,0,0,1-2.7,0l-23.8-13.7c-2-1.2-1.5-2.7-1.5-2.7l34.9-19.4A2.8,2.8,0,0,1,464,735.31Z"/><path class="ff311478-af78-449f-ba88-3449c7fe7abd" d="M464,733.91l24.8,14.3a1,1,0,0,1,0,1.7l-34.4,19.8a2.62,2.62,0,0,1-2.7,0l-24.8-14.3a1,1,0,0,1,0-1.7l34.4-19.8A2.62,2.62,0,0,1,464,733.91Z"/><path class="ad278e17-dd23-4ba1-931e-8cc4a2340a2e" d="M466.85,749.61l8.8,5.1c.2.1.2.4,0,.6L464,762a.75.75,0,0,1-.9,0l-8.8-5.1c-.2-.1-.2-.4,0-.6l11.7-6.7A1.39,1.39,0,0,1,466.85,749.61Z"/><path class="ad278e17-dd23-4ba1-931e-8cc4a2340a2e" d="M431.45,755.41l8.6,5a2.62,2.62,0,0,0,2.7,0l29.9-17.2a.67.67,0,0,0,0-1.2l-8.6-5a2.62,2.62,0,0,0-2.7,0l-29.9,17.2A.75.75,0,0,0,431.45,755.41Z"/><polygon class="a69b7ec1-02d0-4cd8-928d-c5717264181b" points="1121.35 247.21 1211.75 195.51 1212.15 108.01 1121.75 159.61 1121.35 247.21"/><polygon class="b9027213-c86e-4c55-aa0c-4aee846e9702" points="1203.05 133.11 1203.05 137.41 1139.25 174.11 1139.25 169.81 1203.05 133.11"/><polygon class="b9027213-c86e-4c55-aa0c-4aee846e9702" points="1135.35 172.01 1135.35 176.31 1130.45 179.11 1130.45 174.81 1135.35 172.01"/><polygon class="b9027213-c86e-4c55-aa0c-4aee846e9702" points="1203.05 156.71 1203.05 160.91 1181.35 173.31 1181.45 169.01 1203.05 156.71"/><polygon class="b9027213-c86e-4c55-aa0c-4aee846e9702" points="1178.15 170.91 1178.15 175.21 1130.45 202.51 1130.45 198.21 1178.15 170.91"/><polygon class="b9027213-c86e-4c55-aa0c-4aee846e9702" points="1152.05 208.51 1152.05 212.81 1130.45 225.21 1130.45 220.91 1152.05 208.51"/><polygon class="fb21964b-fb13-4d67-b5c5-57b9ce0def1a" points="1137.95 237.71 1121.25 267.41 1121.35 247.21 1137.95 237.71"/><path class="e7021233-fd5c-40a4-8668-7ff30e3dee7c" d="M1128.35,464.71a.9.9,0,0,1-.5-.1l-18.3-10.6a1.47,1.47,0,0,1-.5-.6.78.78,0,0,1,.2-.8l18.3-23.6a12.94,12.94,0,0,0,2.7-7.8v-13.7a1,1,0,0,1,1-1h0a1,1,0,0,1,1,1v13.7a14.37,14.37,0,0,1-3.1,8.9l-17.6,22.7,17,9.8,38.4-13.1a11.64,11.64,0,0,0,7.8-10.9v-35.5a1,1,0,0,1,2,0v35.5a13.43,13.43,0,0,1-9.1,12.7l-38.8,13.3A1.34,1.34,0,0,1,1128.35,464.71Z"/><polygon class="a813f3bc-2ce5-45c2-8f29-193e27542152" points="1138.45 423.91 1098.65 401.01 1138.45 378.01 1178.25 401.01 1138.45 423.91"/><polygon class="e7021233-fd5c-40a4-8668-7ff30e3dee7c" points="1138.45 428.21 1098.65 405.21 1098.65 401.01 1138.45 423.91 1138.45 428.21"/><polygon class="e7021233-fd5c-40a4-8668-7ff30e3dee7c" points="1138.45 428.21 1178.25 405.21 1178.25 401.01 1138.45 423.91 1138.45 428.21"/><path class="e7021233-fd5c-40a4-8668-7ff30e3dee7c" d="M1175.55,401.61a1,1,0,0,1-1-1v-14.1a17.92,17.92,0,0,1,.7-5.1l4.7-17.7a1,1,0,1,1,1.9.5l-4.7,17.8a17.59,17.59,0,0,0-.6,4.6v14.1A1,1,0,0,1,1175.55,401.61Z"/><path class="aa11033a-3d13-456f-832f-4b5888fe8dee" d="M1139.55,381.51h0a1,1,0,0,1-1-1v-14.1a17.92,17.92,0,0,1,.7-5.1l4.7-17.7a1,1,0,0,1,1.9.5l-4.7,17.7a17.59,17.59,0,0,0-.6,4.6v14.1A1,1,0,0,1,1139.55,381.51Z"/><polygon class="a3367d90-28af-4468-8c85-1500bb7e4cfa" points="1145.85 327.11 1148.55 325.61 1189.35 349.21 1186.75 350.71 1145.85 327.11"/><polygon class="a3367d90-28af-4468-8c85-1500bb7e4cfa" points="1180.45 376.11 1183.05 374.61 1189.35 349.21 1186.75 350.71 1180.45 376.11"/><polygon class="a813f3bc-2ce5-45c2-8f29-193e27542152" points="1139.55 352.51 1180.45 376.11 1186.75 350.71 1145.85 327.11 1139.55 352.51"/><g id="a36b8a67-9a5c-496e-9fab-59d78fa4eef1" data-name="SVGID"><g class="b4199585-7079-487c-a840-2b9e04ff69e6"><polygon class="f86726a0-4ffe-404a-8c79-624c98178367" points="1063.65 430.21 1159.15 367.01 1171.45 373.81 1211.45 396.41 1126.85 444.01 1118.45 438.41 1150.15 416.21 1134.95 405.51 1075.55 436.91 1063.65 430.21"/></g></g><polygon class="a813f3bc-2ce5-45c2-8f29-193e27542152" points="1063.65 430.21 1159.15 367.01 1171.45 373.81 1211.45 396.41 1126.85 444.01 1118.45 438.41 1150.15 416.21 1134.95 405.51 1075.55 436.91 1063.65 430.21"/><path class="b9027213-c86e-4c55-aa0c-4aee846e9702" d="M1075.55,436.91c-10,2.3-26.2,2.3-27.4-3.2-1-4.3,20.3-7.4,20.3-7.4s.3,3.4,2.9,3.6c2.8.2,7.8-1,7.8-1S1080.35,435.91,1075.55,436.91Z"/><path class="bba1541c-c6c9-40b8-997c-365bd1d92020" d="M1048.65,434.91c1.9,1.9,11.5,2.6,15.4,2.5s12.7-.9,14.5-2.8a4.16,4.16,0,0,1-3,2.4C1066.35,439.11,1051.75,439.31,1048.65,434.91Z"/><path class="bba1541c-c6c9-40b8-997c-365bd1d92020" d="M1068,433.71a.37.37,0,0,0,.3.1c.2,0,.4-.3.4-.5-.4-2.2-1.9-5.9-4.3-6.6-.2-.1-.5.1-.6.3s.1.5.3.6c2,.6,3.3,4,3.7,5.9A.22.22,0,0,0,1068,433.71Z"/><path class="bba1541c-c6c9-40b8-997c-365bd1d92020" d="M1065.65,434a.37.37,0,0,0,.3.1c.2,0,.4-.3.4-.5-.4-2.2-1.9-5.9-4.3-6.6-.2-.1-.5.1-.6.3s.1.5.3.6c2,.6,3.3,4,3.7,5.9Z"/><path class="bba1541c-c6c9-40b8-997c-365bd1d92020" d="M1063.35,434.21a.37.37,0,0,0,.3.1c.2,0,.4-.3.4-.5-.4-2.4-1.8-5.5-4.1-6.3-.2-.1-.5.1-.6.3s.1.5.3.6c1.8.6,3,3.2,3.5,5.6Z"/><path class="bba1541c-c6c9-40b8-997c-365bd1d92020" d="M1061.05,434.41a.37.37,0,0,0,.3.1c.2,0,.4-.3.4-.5-.4-2.4-1.8-5.3-4-6-.2-.1-.5.1-.6.3s.1.5.3.6c2,.6,3,3.1,3.4,5.3A.22.22,0,0,0,1061.05,434.41Z"/><path class="bba1541c-c6c9-40b8-997c-365bd1d92020" d="M1170.15,346.21c-22.2,19.2-66.5,25.5-71.5,34-5.6,9.5-7.6,24.4-17.2,48.8-1.3,3.4-13.9,1.2-13.8-1.4.1-1.8,8.5-62,20.8-68.5,4.7-2.5,49.9-35.5,68.4-32.6C1163.65,327.61,1175.45,341.61,1170.15,346.21Z"/><path class="b9027213-c86e-4c55-aa0c-4aee846e9702" d="M1136.55,437.81c-7.5,7-21.4,15.3-25.3,11.2-3-3.2,13.7-16.7,13.7-16.7s2,2.8,4.4,1.6a40.57,40.57,0,0,0,6.3-4.8S1140.15,434.41,1136.55,437.81Z"/><path class="bba1541c-c6c9-40b8-997c-365bd1d92020" d="M1180.05,347.11c-9.4,27.8-49.4,29.1-49.4,39,0,11,2.9,16,7,41.8.6,3.6-11.4,8-12.6,5.8-.8-1.6-21.2-48.8-13.8-60.6,2.8-4.5,30-29.3,47.4-36.2C1165.05,334.41,1182.25,340.61,1180.05,347.11Z"/><path class="e4cc70d3-2a3e-46dd-a1ed-aff319223ffd" d="M1161,273.41c-8.5,6.5-13.8,10.6-22.4,29.3s-31.7,28.4-38.1,33.9-1.6,11.2,3.5,10.5,4.2-8.1,7.9-10.1,18-5.4,25.8-14.8,29-33.5,29-33.5Z"/><path class="ea2258d7-c119-40a0-a45d-db5031383611" d="M1161,273.41c-.8.6-1.5,1.2-2.2,1.7-10.9,9-12.2,16.3-9.8,29.7,2,10.8-6.2,24.6-6.2,24.6l37.3,17.7s16.6-41.3,8.3-57.6S1165.25,270.11,1161,273.41Z"/><path class="e4cc70d3-2a3e-46dd-a1ed-aff319223ffd" d="M1164.15,272.61c3.1,1.7-.5,5.7-.7,8.3s1,9.9,4.8,8.1,11.4-11.2,10-11.9c-2.6-1.4-9.9-15-9.9-15S1159.75,270.21,1164.15,272.61Z"/><path class="e4cc70d3-2a3e-46dd-a1ed-aff319223ffd" d="M1155.15,259.61c-3.6,4.8-.1,13.4,6.2,15.4s6.7-5.4,7.3-8C1170,260.51,1163,249.21,1155.15,259.61Z"/><path class="bba1541c-c6c9-40b8-997c-365bd1d92020" d="M1112.35,449.71c2.6.7,11.2-3.6,14.5-5.7s10.5-7.2,11.1-9.8a4.4,4.4,0,0,1-1.3,3.6C1129.65,444.31,1117.15,451.91,1112.35,449.71Z"/><path class="bba1541c-c6c9-40b8-997c-365bd1d92020" d="M1128.35,438.91a.37.37,0,0,0,.3-.1.38.38,0,0,0,0-.6c-1.5-1.7-4.6-4.1-7-3.5-.2.1-.4.3-.3.5s.3.4.5.3c2-.5,4.9,1.7,6.2,3.2C1128.15,438.81,1128.25,438.91,1128.35,438.91Z"/><path class="bba1541c-c6c9-40b8-997c-365bd1d92020" d="M1126.45,440.31a.37.37,0,0,0,.3-.1.37.37,0,0,0,0-.6c-1.5-1.7-4.6-4.1-7-3.5-.2.1-.4.3-.3.5s.3.4.5.3c2-.5,4.9,1.7,6.2,3.2C1126.25,440.21,1126.35,440.31,1126.45,440.31Z"/><path class="bba1541c-c6c9-40b8-997c-365bd1d92020" d="M1124.65,441.61a.37.37,0,0,0,.3-.1.37.37,0,0,0,0-.6c-1.6-1.9-4.4-3.9-6.7-3.3-.2.1-.4.3-.3.5s.3.4.5.3c1.8-.4,4.3,1.2,5.8,3A.4.4,0,0,0,1124.65,441.61Z"/><path class="bba1541c-c6c9-40b8-997c-365bd1d92020" d="M1122.75,443a.37.37,0,0,0,.3-.1.37.37,0,0,0,0-.6c-1.6-1.9-4.2-3.6-6.5-3.1-.2.1-.4.3-.3.5s.3.4.5.3c2-.5,4.2,1.2,5.6,2.8C1122.55,443,1122.65,443,1122.75,443Z"/><path class="adfb29de-28f7-4c7b-b22b-8a7de9a5a4a9" d="M1098.15,339.31c-.1.4-6.3,11-4.1,11.5,1.3.3,2.1-1.6,2.1-1.6s-1.8,4.1-.2,4.4c1.2.3,2.1-1.8,2.3-2.3,0,.5-.7,2.1,1,2.3,1.2.2,2.1-2.5,2.1-2.5s-.5,1.1.8,1.2c2.1.1,6.8-10.7,6.8-10.7l-8.6-3.5C1100.25,338.31,1098.55,338.11,1098.15,339.31Z"/><path class="adfb29de-28f7-4c7b-b22b-8a7de9a5a4a9" d="M1110.25,338.51c0,5.8,1.8,5.8.6,7.4s-3.8-3.7-3.8-3.7Z"/><path class="bebb95b7-3384-4ff5-9385-bb670480347d" d="M1154.05,266.91c5.9-2.1,7.5-1.5,8.9-1.5s2.2,3.3,3.8,3.3,3.9-.9,3.9-2.4-3.1-8.5-3.9-10.9-6-3.3-8.5-2.4-7.1,10.1-10.8,10.6C1147.45,263.61,1151.85,267.71,1154.05,266.91Z"/><path class="e4cc70d3-2a3e-46dd-a1ed-aff319223ffd" d="M1163.85,268.21a1.69,1.69,0,0,0,1.6-1.8l-.1-2.3a1.7,1.7,0,1,0-3.4.2l.1,2.3A1.83,1.83,0,0,0,1163.85,268.21Z"/><path class="a3367d90-28af-4468-8c85-1500bb7e4cfa" d="M1106.85,330.81l-25.3,13.9s-.5,1.5,1.8,2.8l33.2,19.1a2.62,2.62,0,0,0,2.7,0l23.8-13.7c2-1.2,1.5-2.7,1.5-2.7l-34.9-19.4A2.79,2.79,0,0,0,1106.85,330.81Z"/><path class="bebb95b7-3384-4ff5-9385-bb670480347d" d="M1106.85,329.41l-24.8,14.3a1,1,0,0,0,0,1.7l34.4,19.8a2.62,2.62,0,0,0,2.7,0l24.8-14.3a1,1,0,0,0,0-1.7l-34.4-19.8A2.62,2.62,0,0,0,1106.85,329.41Z"/><path class="ad278e17-dd23-4ba1-931e-8cc4a2340a2e" d="M1103.85,345.11l-8.8,5.1c-.2.1-.2.4,0,.6l11.7,6.7a.75.75,0,0,0,.9,0l8.8-5.1c.2-.1.2-.4,0-.6l-11.7-6.7A1.39,1.39,0,0,0,1103.85,345.11Z"/><path class="ad278e17-dd23-4ba1-931e-8cc4a2340a2e" d="M1139.25,350.91l-8.6,5a2.62,2.62,0,0,1-2.7,0l-29.9-17.2a.67.67,0,0,1,0-1.2l8.6-5a2.62,2.62,0,0,1,2.7,0l29.9,17.2A.75.75,0,0,1,1139.25,350.91Z"/><path class="e4cc70d3-2a3e-46dd-a1ed-aff319223ffd" d="M1139.85,351c-.4,0-12.6-1.6-12.2.6.2,1.3,2.2,1.3,2.2,1.3s-4.4-.1-4.2,1.5c.2,1.2,2.5,1.2,3,1.2-.4.2-2.2.2-1.7,1.8.3,1.2,3.1,1,3.1,1a.82.82,0,0,0-.8,1.2c.7,2,12.5,2.2,12.5,2.2l-.1-9.3C1141.65,352.61,1141.15,350.91,1139.85,351Z"/><path class="e4cc70d3-2a3e-46dd-a1ed-aff319223ffd" d="M1146.35,350.31c-2.8-.5-7.6-3.9-9.4-4.2s-2,.1-2,.1l6.1,5.2Z"/><path class="e4cc70d3-2a3e-46dd-a1ed-aff319223ffd" d="M1180.85,286.91c-8.5,5.8-.6,31.1-6.8,39.5s-21.3,21.4-26.2,23.4-13.4-1.1-12.4,7,13.8,4.8,19,.7,26.2-15.5,31.8-27,6.3-29.3,3.3-36.7S1184,284.91,1180.85,286.91Z"/><path class="e4cc70d3-2a3e-46dd-a1ed-aff319223ffd" d="M1108,328.31c-.2.3-6.7,9.3-4.6,10.3,1.2.5,2.3-1.2,2.3-1.2s-2.5,3.7-1,4.3c1.1.5,2.4-1.4,2.6-1.8,0,.5-1,2,.6,2.5,1.2.4,2.5-2,2.5-2s-.7,1,.6,1.3c2,.5,8.6-9.3,8.6-9.3l-5.4-4.6C1114.15,327.71,1108.55,327.21,1108,328.31Z"/><path class="b2d7691a-7939-44bc-b0d8-f032512139ed" d="M1068.85,316.11l11.4,27.9a8.61,8.61,0,0,0,2.6,3.6l33.8,19.5c.8.5,1.9.1,1.5-.9l-11.8-27.7a8.61,8.61,0,0,0-2.6-3.6l-34.1-19.7C1069.15,314.91,1068.45,315.21,1068.85,316.11Z"/><path class="a3367d90-28af-4468-8c85-1500bb7e4cfa" d="M1068.35,316.41l11.4,27.9a8.61,8.61,0,0,0,2.6,3.6l33.8,19.5c.8.5,1.9.1,1.5-.9l-11.8-27.7a8.61,8.61,0,0,0-2.6-3.6l-34.1-19.7C1068.65,315.21,1068,315.41,1068.35,316.41Z"/><g id="a0c05007-e8ee-4c9d-8d6a-b194105df165" data-name="SVGID"><g class="b4199585-7079-487c-a840-2b9e04ff69e6"><polygon class="eaef53bd-1ae4-4e29-823a-548e0b75cf2e" points="1171.05 841.91 1198.05 841.91 1455.05 693.51 1317.55 614.01 1133.05 720.51 1171.05 841.91"/></g></g><polyline class="a03aa64d-7534-4101-a860-61ec74505e54" points="1455.05 693.51 1317.55 614.01 1133.05 720.51 1171.05 841.91 1198.05 841.91"/><polygon class="bebb95b7-3384-4ff5-9385-bb670480347d" points="1036.05 739.91 1036.05 763.71 1171.05 841.91 1171.05 818.61 1036.05 739.91"/><polygon class="ea2258d7-c119-40a0-a45d-db5031383611" points="1426.35 671.81 1426.45 695.61 1171.05 841.91 1171.05 818.61 1426.35 671.81"/><polygon class="fa56d4bd-a474-43d5-8025-58b6444964f9" points="1036.05 734.51 1171.05 813.21 1426.35 666.41 1136.85 676.91 1036.05 734.51"/><polygon class="f69bfa98-0e6e-4596-9b8a-c03eb34d6171" points="1036.05 734.51 1171.05 813.21 1426.35 666.41 1291.45 587.71 1036.05 734.51"/><polygon class="a3367d90-28af-4468-8c85-1500bb7e4cfa" points="1171.05 813.21 1171.05 818.61 1426.35 671.81 1426.35 666.41 1171.05 813.21"/><polygon class="a3367d90-28af-4468-8c85-1500bb7e4cfa" points="1171.05 813.21 1171.05 818.61 1036.05 739.91 1036.05 734.51 1171.05 813.21"/><g id="b3a06976-82ac-4123-bc4d-8bd5f3afd213" data-name="SVGID"><g class="b4199585-7079-487c-a840-2b9e04ff69e6"><polygon class="eb6a621b-3888-48b7-a071-16b2f4b6275f" points="503.55 965.51 530.55 965.51 660.25 890.71 404.45 743.01 347.25 776.01 503.55 965.51"/></g></g><polyline class="f0f647eb-39f9-49d5-9b77-0746a38c9070" points="530.55 965.51 660.25 890.71 404.45 743.01 347.25 776.01 503.55 965.51"/><polygon class="bebb95b7-3384-4ff5-9385-bb670480347d" points="250.25 795.51 250.25 819.31 503.55 965.51 503.45 942.31 250.25 795.51"/><polygon class="ea2258d7-c119-40a0-a45d-db5031383611" points="631.15 868.91 631.15 892.71 503.55 965.51 503.45 942.31 631.15 868.91"/><polygon class="fa56d4bd-a474-43d5-8025-58b6444964f9" points="250.25 790.11 503.55 936.91 631.15 863.51 277.15 774.21 250.25 790.11"/><polygon class="f69bfa98-0e6e-4596-9b8a-c03eb34d6171" points="250.25 790.11 503.55 936.91 631.15 863.51 377.85 716.71 250.25 790.11"/><polygon class="a3367d90-28af-4468-8c85-1500bb7e4cfa" points="503.55 936.91 503.45 942.31 631.15 868.91 631.15 863.51 503.55 936.91"/><polygon class="a3367d90-28af-4468-8c85-1500bb7e4cfa" points="503.55 936.91 503.45 942.31 250.25 795.51 250.25 790.11 503.55 936.91"/><polygon class="fb21964b-fb13-4d67-b5c5-57b9ce0def1a" points="315.25 600.91 225.35 548.51 225.75 460.91 315.65 513.31 315.25 600.91"/><polygon class="b9027213-c86e-4c55-aa0c-4aee846e9702" points="235.15 489.21 235.15 493.51 298.45 530.21 298.45 525.91 235.15 489.21"/><polygon class="b9027213-c86e-4c55-aa0c-4aee846e9702" points="302.35 528.21 302.35 532.51 307.25 535.31 307.25 531.11 302.35 528.21"/><polygon class="b9027213-c86e-4c55-aa0c-4aee846e9702" points="235.05 510.11 235.05 514.41 256.55 527.01 256.55 522.71 235.05 510.11"/><polygon class="b9027213-c86e-4c55-aa0c-4aee846e9702" points="259.75 524.71 259.75 528.91 307.25 556.61 307.25 552.31 259.75 524.71"/><polygon class="b9027213-c86e-4c55-aa0c-4aee846e9702" points="235.05 532.21 235.05 536.51 256.55 549.11 256.55 544.81 235.05 532.21"/><polygon class="fb21964b-fb13-4d67-b5c5-57b9ce0def1a" points="298.75 591.31 315.15 621.21 315.25 600.91 298.75 591.31"/><path class="a8c8bff3-64ee-4773-8fb3-60ab3700ee52" d="M738.25,401.81c-164.5,0-297.8,71.4-297.8,159.6v48.2c0,88.1,133.3,159.6,297.8,159.6a532.36,532.36,0,0,0,102.5-9.7h0a41.38,41.38,0,0,0-4.1-18h0l-.1-.1a34.4,34.4,0,0,0-3.5-5.8l-14.4-24.3a41.14,41.14,0,0,0-4.3-7.3h0a41,41,0,0,0-36.6-16.6c-12.9,1.1-26,1.7-39.5,1.7-120.1,0-220-46.3-240.9-107.5,20.9-61.2,120.8-107.6,240.9-107.6,120.9,0,221.3,46.9,241.3,108.6-4.3,13.3-12.3,25.9-23.5,37.4a94.53,94.53,0,0,0-26.4,65.7v1.4l41.3,22c40.7-27.3,65.1-61.9,65.1-99.6v-48.1C1036.05,473.31,902.75,401.81,738.25,401.81Z"/><path class="bba1541c-c6c9-40b8-997c-365bd1d92020" d="M971,706.81v2.3c40.7-27.3,65.1-61.9,65.1-99.6v-45.2c0,28.3-13.7,54.8-37.7,77.8A89.21,89.21,0,0,0,971,706.81Z"/><path class="bba1541c-c6c9-40b8-997c-365bd1d92020" d="M440.45,561.61v48c0,88.1,133.3,159.6,297.8,159.6a532.36,532.36,0,0,0,102.5-9.7h0a41.33,41.33,0,0,0-45.5-41.2,556.11,556.11,0,0,1-57,2.9C573.75,721.11,440.45,649.71,440.45,561.61Z"/><path class="e092719e-da39-40bd-b2c8-54e0a77d5e73" d="M738.25,426.41c-135.2,0-244.9,58.8-244.9,131.2v.1a73.7,73.7,0,0,0,4,23.7c20.9-61,120.8-107.4,240.9-107.4,120.9,0,221.3,46.9,241.3,108.6a72.21,72.21,0,0,0,3.6-22.6v-2.4C983.15,485.21,873.55,426.41,738.25,426.41Z"/><path class="e092719e-da39-40bd-b2c8-54e0a77d5e73" d="M738.25,214.31c-149.6,0-270.8,65-270.8,145.1v189.8c0-80.1,121.2-145.1,270.8-145.1s270.8,65,270.8,145.1V359.41C1009.05,279.31,887.85,214.31,738.25,214.31Z"/><path class="a9007b10-6ec1-4a64-a60b-aadc9b1ccf68" d="M777,503.21c-12.6,1-25.6,1.5-38.7,1.5-149.5,0-270.8-65-270.8-145.1v189.6c0,80.1,121.2,145.1,270.8,145.1,13.1,0,26.1-.5,38.7-1.5Z"/><g class="a1369f6f-ec9e-48ca-b2e6-d762ad9cef7a"><g class="a1369f6f-ec9e-48ca-b2e6-d762ad9cef7a"><g class="bbff51a3-025f-42cc-b19a-f2b8ef9ec59e"><path class="a2559e40-67c8-489c-b2e9-dc8d34738618" d="M615.75,260.61a3.83,3.83,0,0,1-2.1,1.7c-15.6,5.3-21.3,18.6-23,24.1-4,12.7-1.6,23.6,6.4,29.2a1.92,1.92,0,0,1,.8,2c20.8,10.1,49.7-18.8,42.4-42.4-1.3-4-6.8-17-24.5-14.6M595.45,321c-5.2,1.4-19.7-19.2-4.9-44.8,9.6-16.5,23.3-19.4,23.5-19.4,5.8-.3,23.4-1.1,29.1,17,8.2,26.1-23.8,58-47,46.8-.4.2-.5.3-.7.4m61-79.1c-29.2,5-56.3,12.5-80.3,22.2V341a385.53,385.53,0,0,1,80.3-22.2v-76.9"/><path class="a2559e40-67c8-489c-b2e9-dc8d34738618" d="M766.75,236.21c-9.9-.6-20-.9-30.2-.9h-2.4v16.9h2.4c10.2,0,20.3.3,30.2.9v-16.9"/><path class="fb21964b-fb13-4d67-b5c5-57b9ce0def1a" d="M752.15,264.51c-5.2-.2-10.4-.2-15.6-.2-3.1,0-6.3,0-9.4.1v5.7c3.1-.1,6.2-.1,9.4-.1,5.2,0,10.4.1,15.6.2v-5.7"/><path class="a2559e40-67c8-489c-b2e9-dc8d34738618" d="M852.25,398.21a1.63,1.63,0,0,1-1.1-1.5v-9.8c.1-1.1,1.1-1.2,1.8-.5a1.41,1.41,0,0,1,.4,1v9.8c0,1-.6,1.1-1.1,1m17.1,4.9a1.92,1.92,0,0,1-1.1-1.5v-27.3c.1-1.2,1.1-1,1.6-.5a2.5,2.5,0,0,1,.5,1.1v27.3c-.1,1.1-.8,1-1,.9m-34.8-9.2a1.39,1.39,0,0,1-1.1-1.4V359c.1-1.3,1.4-1.1,1.9-.4a1.21,1.21,0,0,1,.3.9V393a.82.82,0,0,1-1.1.9m51,14.8a1.85,1.85,0,0,1-1-1.6v-36.5c.1-1.2,1.1-1.1,1.6-.3a2.43,2.43,0,0,1,.4,1.1v36.5c-.1,1.1-.9.8-1,.8m-69.3-18.4a1.6,1.6,0,0,1-1.2-1.4v-38.5a1.08,1.08,0,0,1,2-.5,1.1,1.1,0,0,1,.3.9v38.5c0,1.2-.9,1.1-1.1,1m-38.3-5a1.23,1.23,0,0,1-1.2-1.3v-44.5a1.2,1.2,0,0,1,2.1-.7,1.8,1.8,0,0,1,.4.9v44.5a1.18,1.18,0,0,1-1.3,1.1m19.4,2.2a1.41,1.41,0,0,1-1.2-1.4v-48.9c.2-1.6,1.8-1.1,2.2-.4a1.85,1.85,0,0,1,.2.7v48.9c-.1,1-.7,1.1-1.2,1.1m99.4-28.9c-44.8-18-100.2-28.7-160.2-28.7h-5.3v60.6h5.3c60,0,115.4,10.7,160.2,28.7v-60.6"/><path class="a813f3bc-2ce5-45c2-8f29-193e27542152" d="M611,401.81h0m5.5-1.5c-1,.4-1.8.6-2.8.9,1-.3,1.8-.6,2.8-.9m-5.8,1.6h0m-.4,0h0m-.4.1h0m-.4.1h.2c0-.1-.1,0-.2,0m-2.7-2.9h0m-.2,0h0m-10.4.9c4.1,2,8,2.6,13.3,1.9a21.77,21.77,0,0,1-13.3-1.9m19.7-63a2.67,2.67,0,0,1-.1,3c26.2-2.6,32.9,25.2,17.3,44.7-5.4,6.7-15.1,14-26.1,14.4,3.3-.1,6.3-2.1,9.7-2,1.5.1,1.3,1.7.7,2.5a2.18,2.18,0,0,1-.5.4c31.8-13.1,35.6-52.9,12.5-61.9a25.58,25.58,0,0,0-13.5-1.1"/><path class="fb21964b-fb13-4d67-b5c5-57b9ce0def1a" d="M597.85,397.21a4.49,4.49,0,0,1-1.6,2.9c1.1.7,5.1,2.8,12.3,2.1,1.7-.2,9.9-1.1,9.3-4.1,0-.2-.3-1.3-1.7-.7-4.7,1.7-11.6,3-18.3-.2"/><path class="b9027213-c86e-4c55-aa0c-4aee846e9702" d="M613.65,336.41c-31.7,10.7-37.4,53.7-19.8,64,1.9,1.1,4.6-1.7,4-4.1-.2-.7-.3-.8-1.7-1.8-5.1-3.6-7.6-11.3-7.3-17.2a40.18,40.18,0,0,1,10.8-26.5,32,32,0,0,1,14.1-9,3.81,3.81,0,0,0,2.6-3.3,2.1,2.1,0,0,0-2.7-2.1"/><path class="a813f3bc-2ce5-45c2-8f29-193e27542152" d="M611,322.31h0m5.5-1.6c-1,.4-1.8.6-2.8.9,1-.3,1.8-.5,2.8-.9m-5.8,1.6h0m-.4.1h0m-.4.1h.1c0-.1-.1-.1-.1,0m-.4,0h0m-2.7-2.9h0m-.2,0h0m-10.4,1c4.1,2,8,2.6,13.3,1.9-5.2.6-9.2.1-13.3-1.9m19.7-63.1a2.69,2.69,0,0,1-.1,3c26.2-2.6,32.9,25.2,17.3,44.7-5.4,6.7-15.1,14-26.1,14.4,3.3-.1,6.3-2.2,9.7-2,1.7.1,1.2,1.9.5,2.6a2.51,2.51,0,0,1-.7.4c32.5-13.6,36.3-52.9,12.8-62.1a26,26,0,0,0-13.4-1"/><path class="b9027213-c86e-4c55-aa0c-4aee846e9702" d="M597.85,317.61a4.49,4.49,0,0,1-1.6,2.9c1.1.7,5.1,2.8,12.3,2.1,1.7-.2,9.9-1.1,9.3-4.1,0-.2-.3-1.3-1.7-.7-4.7,1.7-11.6,3.1-18.3-.2"/><path class="fb21964b-fb13-4d67-b5c5-57b9ce0def1a" d="M613.65,256.81c-31.7,10.7-37.4,53.7-19.8,64,1.9,1.1,4.6-1.7,4-4.1-.2-.7-.3-.8-1.7-1.8-5.1-3.6-7.6-11.3-7.3-17.2a40.18,40.18,0,0,1,10.8-26.5,32,32,0,0,1,14.1-9,3.81,3.81,0,0,0,2.6-3.3,2.15,2.15,0,0,0-2.7-2.1"/><path class="a813f3bc-2ce5-45c2-8f29-193e27542152" d="M525,310.31c0,.1,0,.1-.1.2.1,0,.1-.1.1-.2m-1.8-.2c-10.1,28.3-2.5,50,14.8,42,4.3-2,10.9-6.5,17.6-16.9-.6.1-1.3-.1-1.6-1.3-16,22.6-30.2,20.3-32.9,4.1-1.3-7.8-.1-16.9,3.7-27.2-.6,1.4-1.4,1.6-1.7.8a2.62,2.62,0,0,1,.1-1.5m6.5-9a54.43,54.43,0,0,0-4.7,9,61.87,61.87,0,0,1,4.7-9m.2-.2c-.1.1-.1.2-.2.2a.22.22,0,0,0,.2-.2m.2-.3c0,.1-.1.1-.1.2,0-.1.1-.1.1-.2m.2-.3h0m.2-.3h0m5.3-9.1a39,39,0,0,0-5.7,6.3,34.87,34.87,0,0,1,5.7-6.3m.1-.1h0"/><path class="b9027213-c86e-4c55-aa0c-4aee846e9702" d="M536.65,290.11c-8.6,6.9-15.4,21.6-13.2,22,.1,0,.7.1,1.3-1.3a51.55,51.55,0,0,1,5.7-10.7A34.35,34.35,0,0,1,537,293a3.3,3.3,0,0,1-.3-2.9"/><path class="fb21964b-fb13-4d67-b5c5-57b9ce0def1a" d="M539.75,286.81c-5.1,3-3,6.4-2.2,6.5.5.1.8-.2,1.2-.4,5.1-3.3,9.1-3.2,11.5-2.5,5.3,1.5,7.8,6.2,8.9,8.8,1.9,5,3.8,15.7-4.6,31.9-1.3,2.6-.3,4.2.8,4.1,5.2-.6,15.5-30.2,5.4-44.5-5-7.1-12.9-8.5-21-3.9"/><path class="a813f3bc-2ce5-45c2-8f29-193e27542152" d="M534.35,387.41h0m.1-.2h0m3.5-5.6c-14.1,11.4-17.3,41-4.7,42.7,4,.5,11-2.4,17.2-12.4-.6.1-.9-.2-1.1-1-8.3,13.3-19.4,15.2-22,3.8-1.6-6.8.3-18.7,6.9-27.3a31.05,31.05,0,0,0-4.3,7.5c-1,2.5-1.5.8-1.5.8-.1-1,2.4-5.5,2.4-5.6a31.75,31.75,0,0,1,3.6-5.2c1.1-1.1,2.9-1.5,3.5-3.3"/><path class="b9027213-c86e-4c55-aa0c-4aee846e9702" d="M538,381.71c-6.2,5-10.8,14.6-9,14.7.5,0,.7-.6,1.1-1.4a29,29,0,0,1,8.1-11.3,2.08,2.08,0,0,1-.2-2"/><path class="fb21964b-fb13-4d67-b5c5-57b9ce0def1a" d="M540,379.41c-3.4,2-2,4.3-1.5,4.4a.83.83,0,0,0,.8-.3c3.4-2.2,6.1-2.2,7.7-1.7,3.5,1,5.1,4.1,5.8,5.9,1.2,3.3,2.5,10.5-3,21.4-.8,1.7-.2,2.9.6,2.8,3.4-.4,10.1-20.4,3.5-29.9-3.2-4.7-8.4-5.6-13.9-2.6"/><path class="fb21964b-fb13-4d67-b5c5-57b9ce0def1a" d="M885.55,369.81c-.8-.2-1,.4-1,.8v36.5c.1,1.3,1.2,1.9,1.7,1.5a.91.91,0,0,0,.3-.7v-36.5c-.1-1.3-.9-1.6-1-1.6"/><path class="a168ab00-044b-4514-93ab-79021fd500a2" d="M869.25,373.41c-.6-.1-1,.2-1,.9v27.3c.1,1.5,1.5,1.9,1.9,1.3a1.42,1.42,0,0,0,.2-.6V375a1.6,1.6,0,0,0-1.1-1.6"/><path class="a168ab00-044b-4514-93ab-79021fd500a2" d="M852.25,386a.86.86,0,0,0-1.1.9v9.8c.1,1.2,1.3,1.9,1.9,1.3a1,1,0,0,0,.2-.7v-9.8a1.31,1.31,0,0,0-1-1.5"/><path class="fb21964b-fb13-4d67-b5c5-57b9ce0def1a" d="M834.55,358c-.7-.1-1.1.2-1.1,1v33.5c.1,1.5,1.6,1.8,2.1,1.1a1.42,1.42,0,0,0,.2-.6v-33.5a1.48,1.48,0,0,0-1.2-1.5"/><path class="fb21964b-fb13-4d67-b5c5-57b9ce0def1a" d="M816.25,349.51a1.06,1.06,0,0,0-1.2,1V389c.1,1.5,1.7,1.7,2.1,1a.73.73,0,0,0,.2-.6v-38.5a1.31,1.31,0,0,0-1.1-1.4"/><path class="fb21964b-fb13-4d67-b5c5-57b9ce0def1a" d="M797.35,336.21a1,1,0,0,0-1.2,1v48.9a1.31,1.31,0,0,0,2.2,1,1.42,1.42,0,0,0,.2-.6v-48.9c-.2-1.2-.9-1.4-1.2-1.4"/><path class="fb21964b-fb13-4d67-b5c5-57b9ce0def1a" d="M777.85,338.41c-1.1,0-1.2.7-1.2,1.1V384a1.33,1.33,0,0,0,2.3.9,1.42,1.42,0,0,0,.2-.6v-44.5a1.4,1.4,0,0,0-1.3-1.4"/><path class="fb21964b-fb13-4d67-b5c5-57b9ce0def1a" d="M694.05,303.11c-9.3,5.1-15.1,7.1-24.9,8.6v1.6a63.85,63.85,0,0,0,16.8-4.5c5.7-2.3,5.7-2.3,8.1-5.7m34.2-11.3c-20.3.7-30.7,9.1-32.9,12.3,6.2-2.1,11.4-6.4,17.7-8.4a52.61,52.61,0,0,1,15.2-2.3,50.28,50.28,0,0,1,15.8,1.9c5.7,1.7,10.4,5.4,15.8,7.6-.3-.5-9.3-11.5-31.6-11.1m147.9-4.1a6,6,0,0,0-1.1.6c6.7,8.2,12.8,12.9,21.7,16.7v-1.6c-8.6-3.7-14.3-8.1-20.6-15.7m-35.5-40.3c-13.3-2-20.7,7-33.2,26.7-11.6,18.1-22.6,35.3-46,27.7,1.4,4.5,17.2,4.9,27.8-2.3,3.4-2.4,3.4-2.4,26.6-34.9,11.8-16.6,19.8-17.7,28.9-14.2,3.6,1.4,7.9,4.8,11.1,8.8,6.9,8.7,11.5,18.8,18.1,27.7.3-.2.8-.4,1.1-.6-7.1-9.6-11.8-20.8-19.8-29.9-5.6-6.3-11.5-8.4-14.6-9"/><path class="e2bc98c3-aac2-4754-ab83-9261d60f92b1" d="M896.75,286.91a34.71,34.71,0,0,0-11.4-2.7,19.26,19.26,0,0,0-6.2.6c-8.8,2-13.7,10.5-22,13.4-11.5,3.9-23.2-3.5-34.8.5-7.8,2.7-12.3,10.1-19.5,13.7-4.4,2.2-27.5,11.9-46.8-17.7-6-9.3-14.3-21.9-30.4-19.4-28.3,4.4-28.6,42.4-56.5,47.3v1.6c27.9-5,28.3-42.9,56.7-47.3,15.1-2.4,22.6,9.2,28.1,17.6,21.9,33.5,46.7,21.4,51.4,18.6,6.8-4,11.7-10.7,19.5-13.3,11.5-3.9,23.2,4.4,34.7-.5,7.2-3.1,11.6-10.6,19.6-12.5.6-.2,1.5-.3,2.1-.5a24.24,24.24,0,0,1,4.8-.3,37.85,37.85,0,0,1,10.8,2.6v-1.7"/><path class="a813f3bc-2ce5-45c2-8f29-193e27542152" d="M613.65,355.61c-15.1,5.1-18.4,25.6-8,30.1,11.7,5,26.9-12.3,21.4-24.3-2.3-5.1-7.7-7.4-13.4-5.8"/><path class="a2559e40-67c8-489c-b2e9-dc8d34738618" d="M725.45,235.41a484.31,484.31,0,0,0-56.3,4.5v6.2a486.09,486.09,0,0,1,56.3-4.5v-6.2"/><path class="a2559e40-67c8-489c-b2e9-dc8d34738618" d="M725.45,246.51a484.31,484.31,0,0,0-56.3,4.5v6.2a486.09,486.09,0,0,1,56.3-4.5v-6.2"/><path class="a2559e40-67c8-489c-b2e9-dc8d34738618" d="M699,259c-10.1.8-20.1,1.8-29.8,3.2v6.2c9.7-1.4,19.7-2.4,29.8-3.2V259"/><path class="bba1541c-c6c9-40b8-997c-365bd1d92020" d="M468.15,482.51a87.78,87.78,0,0,0-1.1,13.5v6.2a85.79,85.79,0,0,1,1.1-13.5v-6.2"/><path class="bba1541c-c6c9-40b8-997c-365bd1d92020" d="M468.15,493.71a87.78,87.78,0,0,0-1.1,13.5v6.2c.3-4.1.5-9.5,1.1-13.5v-6.2"/><path class="a2559e40-67c8-489c-b2e9-dc8d34738618" d="M932.45,281.21c-4.8-2.8-9.8-5.4-15-8v20c5.2,2.6,10.2,5.2,15,8v-20"/><path class="a2559e40-67c8-489c-b2e9-dc8d34738618" d="M952.55,294.21c-4.2-3.1-8.6-6-13.2-8.9v20c4.6,2.9,9,5.8,13.2,8.9v-20"/><path class="a2559e40-67c8-489c-b2e9-dc8d34738618" d="M969.75,308.41c-3.5-3.3-7.3-6.6-11.3-9.7v20c4,3.1,7.8,6.4,11.3,9.7v-20"/><path class="a2559e40-67c8-489c-b2e9-dc8d34738618" d="M984,323.71a126.84,126.84,0,0,0-9.2-10.4v20c3.3,3.4,6.4,6.9,9.2,10.4v-20"/><path class="a2559e40-67c8-489c-b2e9-dc8d34738618" d="M994.85,340a120.6,120.6,0,0,0-7-11.1v20a108.48,108.48,0,0,1,7,11.1V340"/><path class="a2559e40-67c8-489c-b2e9-dc8d34738618" d="M932.45,315.91c-4.8-2.8-9.8-5.4-15-8v20c5.2,2.6,10.2,5.2,15,8v-20"/><path class="a2559e40-67c8-489c-b2e9-dc8d34738618" d="M952.55,328.91c-4.2-3.1-8.6-6-13.2-8.9v20c4.6,2.9,9,5.8,13.2,8.9v-20"/><path class="a813f3bc-2ce5-45c2-8f29-193e27542152" d="M969.75,343.11c-3.5-3.3-7.3-6.6-11.3-9.7v20c4,3.1,7.8,6.4,11.3,9.7v-20"/><path class="a2559e40-67c8-489c-b2e9-dc8d34738618" d="M984,358.41a126.84,126.84,0,0,0-9.2-10.4v20c3.3,3.4,6.4,6.9,9.2,10.4v-20"/><path class="a2559e40-67c8-489c-b2e9-dc8d34738618" d="M994.85,374.71a120.6,120.6,0,0,0-7-11.1v20a108.48,108.48,0,0,1,7,11.1v-20"/><path class="a2559e40-67c8-489c-b2e9-dc8d34738618" d="M932.45,350.61c-4.8-2.8-9.8-5.4-15-8v20c5.2,2.6,10.2,5.2,15,8v-20"/><path class="a813f3bc-2ce5-45c2-8f29-193e27542152" d="M952.55,363.61c-4.2-3.1-8.6-6-13.2-8.9v20c4.6,2.9,9,5.8,13.2,8.9v-20"/><path class="a2559e40-67c8-489c-b2e9-dc8d34738618" d="M969.75,377.81c-3.5-3.3-7.3-6.6-11.3-9.7v20c4,3.1,7.8,6.4,11.3,9.7v-20"/><path class="a813f3bc-2ce5-45c2-8f29-193e27542152" d="M984,393.11a126.84,126.84,0,0,0-9.2-10.4v20c3.3,3.4,6.4,6.9,9.2,10.4v-20"/><path class="a2559e40-67c8-489c-b2e9-dc8d34738618" d="M994.85,409.41a120.6,120.6,0,0,0-7-11.1v20a108.48,108.48,0,0,1,7,11.1v-20"/><path class="a813f3bc-2ce5-45c2-8f29-193e27542152" d="M932.45,385.31c-4.8-2.8-9.8-5.4-15-8v20c5.2,2.6,10.2,5.2,15,8v-20"/><path class="a2559e40-67c8-489c-b2e9-dc8d34738618" d="M952.55,398.31c-4.2-3.1-8.6-6-13.2-8.9v20c4.6,2.9,9,5.8,13.2,8.9v-20"/><path class="a2559e40-67c8-489c-b2e9-dc8d34738618" d="M969.75,412.61c-3.5-3.3-7.3-6.6-11.3-9.7v20c4,3.1,7.8,6.4,11.3,9.7v-20"/><path class="a2559e40-67c8-489c-b2e9-dc8d34738618" d="M984,427.91a126.84,126.84,0,0,0-9.2-10.4v20c3.3,3.4,6.4,6.9,9.2,10.4v-20"/><path class="a2559e40-67c8-489c-b2e9-dc8d34738618" d="M994.85,444.11a120.6,120.6,0,0,0-7-11.1v20a108.48,108.48,0,0,1,7,11.1v-20"/><path class="a2559e40-67c8-489c-b2e9-dc8d34738618" d="M932.45,420.11c-4.8-2.8-9.8-5.4-15-8v20c5.2,2.6,10.2,5.2,15,8v-20"/><path class="a2559e40-67c8-489c-b2e9-dc8d34738618" d="M952.55,433.11c-4.2-3.1-8.6-6-13.2-8.9v20c4.6,2.9,9,5.8,13.2,8.9v-20"/></g></g><g class="a1369f6f-ec9e-48ca-b2e6-d762ad9cef7a"><g class="b56391bb-0f6a-41f9-9a81-a225cf536fe8"><path class="ea2258d7-c119-40a0-a45d-db5031383611" d="M697.85,534.91a35.63,35.63,0,0,0-8.5,3.6,32.48,32.48,0,0,1,8.5-3.6m.3-.1c-.1,0-.1,0-.2.1.1-.1.1-.1.2-.1m15.3-.8c35.3,6.2,41.4,42.1,17.5,57.7-7.5,4.9-14,5.3-18.4,5.6a2.53,2.53,0,0,0-.1-3c30.2-3,37.9-33.6,19-49.3a36.74,36.74,0,0,0-18.3-7.9c1.9-.1,2.1-1.8,1.1-2.6a1,1,0,0,0-.8-.5"/><path class="fb21964b-fb13-4d67-b5c5-57b9ce0def1a" d="M710.05,533.61c3.5.2,3.9.4,4.2.6a1.47,1.47,0,0,1,.3,2.3,2.12,2.12,0,0,1-1.6.4,33.76,33.76,0,0,0-21.5,4.1,3.31,3.31,0,0,0-2-2.6,37,37,0,0,1,20.6-4.8"/><path class="b9027213-c86e-4c55-aa0c-4aee846e9702" d="M688.45,538.31a3.45,3.45,0,0,1,2.8,2.1,2.67,2.67,0,0,1-.8,3c-13.6,10.5-10.5,25.8-6.5,33.1,3.6,6.7,11.1,15,26.1,16.5,3.1.3,3.9,3.5,2,4.9-6.3,4.6-42.2-10.9-37-40.9,2-11.5,11-18.9,13.4-18.7"/><path class="ea2258d7-c119-40a0-a45d-db5031383611" d="M697.85,614.51a34,34,0,0,0-8.5,3.6,29.43,29.43,0,0,1,8.5-3.6m.3-.1c-.1,0-.1,0-.2.1.1-.1.1-.1.2-.1m15.3-.9c35.3,6.2,41.4,42.1,17.5,57.7-7.5,4.9-14,5.3-18.4,5.6a2.54,2.54,0,0,0-.1-3c30.2-3,37.9-33.6,19-49.3a36.74,36.74,0,0,0-18.3-7.9c1.9-.1,2.1-1.8,1.1-2.6a1.46,1.46,0,0,0-.8-.5"/><path class="b9027213-c86e-4c55-aa0c-4aee846e9702" d="M710.05,613.21c3.5.2,3.9.4,4.2.6a1.47,1.47,0,0,1,.3,2.3,2.12,2.12,0,0,1-1.6.4,33.76,33.76,0,0,0-21.5,4.1,3.31,3.31,0,0,0-2-2.6,36.21,36.21,0,0,1,20.6-4.8"/><path class="fb21964b-fb13-4d67-b5c5-57b9ce0def1a" d="M688.45,617.91a3.58,3.58,0,0,1,2.8,2,2.67,2.67,0,0,1-.8,3c-13.6,10.5-10.5,25.8-6.5,33.1,3.6,6.7,11.1,15,26.1,16.5,3.1.3,3.9,3.5,2,4.9-6.3,4.6-42.2-10.9-37-40.9,2-11.4,11-18.9,13.4-18.6"/><path class="bba1541c-c6c9-40b8-997c-365bd1d92020" d="M710.05,548.81c16.9,1.6,22,17.8,12,26.4-11.2,9.7-30.2.4-28.6-14,.8-7.4,8-12.8,16.6-12.4"/><path class="bba1541c-c6c9-40b8-997c-365bd1d92020" d="M467.25,399.31a84,84,0,0,0,8.2,30.7v6.2a88.68,88.68,0,0,1-8.2-30.7v-6.2"/><path class="bba1541c-c6c9-40b8-997c-365bd1d92020" d="M467.25,410.51a84,84,0,0,0,8.2,30.7v6.1a88.68,88.68,0,0,1-8.2-30.7v-6.1"/><path class="bba1541c-c6c9-40b8-997c-365bd1d92020" d="M467.25,421.61a84,84,0,0,0,8.2,30.7v6.1a88.1,88.1,0,0,1-8.2-30.7v-6.1"/><path class="bba1541c-c6c9-40b8-997c-365bd1d92020" d="M467.25,445.41a84,84,0,0,0,8.2,30.7v6.2a88.68,88.68,0,0,1-8.2-30.7v-6.2"/><path class="bba1541c-c6c9-40b8-997c-365bd1d92020" d="M467.25,456.61a84,84,0,0,0,8.2,30.7v6.2a88.1,88.1,0,0,1-8.2-30.7v-6.2"/><path class="bba1541c-c6c9-40b8-997c-365bd1d92020" d="M468.25,475.91a84.31,84.31,0,0,0,7.2,22.5v6.2a92.16,92.16,0,0,1-7.2-22.5v-6.2"/><path class="bba1541c-c6c9-40b8-997c-365bd1d92020" d="M467.05,496a84.35,84.35,0,0,0,8.4,36.4v6.2a85,85,0,0,1-8.4-36.4V496"/><path class="bba1541c-c6c9-40b8-997c-365bd1d92020" d="M467.05,507.21a84.35,84.35,0,0,0,8.4,36.4v6.2c-5.3-13.6-8.3-21.1-8.4-36.4v-6.2"/><path class="bba1541c-c6c9-40b8-997c-365bd1d92020" d="M468.25,532.21a84.31,84.31,0,0,0,7.2,22.5v6.2a92.16,92.16,0,0,1-7.2-22.5v-6.2"/><path class="b9027213-c86e-4c55-aa0c-4aee846e9702" d="M566.75,597.11c.2.1.5.2.7.3v1.2c.2,5.6,3.3,10.5,7.8,12.6,4.4,1.8,8.9,3.5,13.4,5.1a15.21,15.21,0,0,1,9.2,13.4v1.2c-.3-.1-.5-.2-.8-.3v-1.2a13.77,13.77,0,0,0-8.3-12.2c-4.6-1.6-9.1-3.4-13.4-5.1-4.9-2.3-8.3-7.7-8.5-13.8v-1.2m-21.7-10.6a5.74,5.74,0,0,1,.7.4c-.3,5.7-3.2,8-7.4,5.8a228.1,228.1,0,0,1-22.6-15.2c-3.2-2.3-5.3-.4-5.5,4.9v2.5a2.18,2.18,0,0,1-.5-.4V582c.2-5.9,2.4-7.8,6-5.3a202.26,202.26,0,0,0,22.6,15.2c3.7,1.9,6.4-.2,6.7-5.4"/><path class="b9027213-c86e-4c55-aa0c-4aee846e9702" d="M597.65,569c.3.1.5.2.8.3v2c-.2,5.3-3.5,7.8-8.2,6.4-5.3-1.9-10.5-3.9-15.6-5.9-4-1.4-6.7.6-6.9,5.4v2.4c-.2-.1-.5-.2-.7-.3v-2.4c.2-5.2,3.1-7.5,7.6-5.9,5.1,2.1,10.3,4.1,15.6,5.9,4.3,1.3,7.2-1,7.4-5.7V569m-73-69.5c.2.1.4.3.6.4v16.6c.2,4.9,2.3,9.6,5.5,11.9,2.6,1.7,5.3,3.4,8.1,5,3.9,2.5,6.5,7.6,6.7,13v22.2a5.74,5.74,0,0,1-.7-.4V546c-.2-4.8-2.5-9.4-6-11.7-2.8-1.6-5.5-3.3-8.1-5-3.5-2.5-5.9-7.7-6.1-13.2v-16.6"/><path class="fb21964b-fb13-4d67-b5c5-57b9ce0def1a" d="M488,561.91a153.78,153.78,0,0,0,21.8,22.6c.2.1.3.3.5.4a214.53,214.53,0,0,0,28.5,20V623c-21.3-12.5-38.6-27-50.9-43v-18.1"/><path class="ea2258d7-c119-40a0-a45d-db5031383611" d="M557.05,614.61a322.18,322.18,0,0,0,39.9,16.1c.3.1.5.2.8.3a397.82,397.82,0,0,0,39.1,10.6v18.1c-29.6-6.4-56.5-15.6-79.9-26.9v-18.2"/><path class="ea2258d7-c119-40a0-a45d-db5031383611" d="M518.45,551.41a213.36,213.36,0,0,0,26.4,16.9,5.74,5.74,0,0,1,.7.4c6.8,3.7,14,7.2,21.5,10.5.2.1.5.2.7.3,5.8,2.5,11.8,4.9,17.9,7.2v18.1c-6.3-2.3-12.3-4.8-18.2-7.3-.2-.1-.5-.2-.7-.3-7.3-3.2-14.3-6.7-20.9-10.3a5.74,5.74,0,0,1-.7-.4,229,229,0,0,1-26.6-17v-18.1"/><path class="fb21964b-fb13-4d67-b5c5-57b9ce0def1a" d="M557.05,534.61c23.3,11.4,50.3,20.5,79.9,26.9v18.1a385.74,385.74,0,0,1-38.5-10.4c-.3-.1-.5-.2-.8-.3a310.81,310.81,0,0,1-40.5-16.3v-18"/><path class="fa56d4bd-a474-43d5-8025-58b6444964f9" d="M499.05,460.21c15,15.1,34.6,28.7,58,40v18.1a247.82,247.82,0,0,1-31.8-18.4c-.2-.1-.4-.3-.6-.4a175,175,0,0,1-25.5-21.2v-18.1"/></g></g></g><path class="ae15dcab-5865-4554-adea-85767be81a5d" d="M849,516.41s-.1,6,2.3,7c5,2.1,10.9-4.1,14.9-11,4.7-8.1-2.5-8.7-7.8-3.9C850.05,515.91,849,516.41,849,516.41Z"/><path class="bba1541c-c6c9-40b8-997c-365bd1d92020" d="M849,514.81s-.6,6,1.8,7c5,2.1,11.4-4.1,15.4-11,4.7-8.1-2.5-8.7-7.8-3.9C850.05,514.31,849,514.81,849,514.81Z"/><path class="bba1541c-c6c9-40b8-997c-365bd1d92020" d="M849.25,457.31c1.4,9.8-2,47.1-.6,58.2.5,4.4,6.2,2.8,7.5-2.1,3.2-11.5,19.7-92,11.9-100.5-8.2-9-9.8-13.1-9.8-13.1s-15.5-8-15.7-2.8C842.05,413,847.25,443.91,849.25,457.31Z"/><path class="f269d570-3593-49c8-bbd9-b0db9c0a3436" d="M907.55,338.61c.4,0,1.7-.6,2,.7.2.9-1.5,1.7-1.9,1.8.2-.1.8-.3.9.6.1,1.3-4.6,4-7,5.4-2.3,1.9-2.8,2.2-4.5,2.7.5-3.8-.8-7.8-5.6-5.9,0,0,4.4-6.7,6.6-8.2,4-2.6,8.5-2.5,8.9-1,.3,1-2.1,1.6-2.1,1.6s4-1,4.4.3C909.65,337.61,908,338.41,907.55,338.61Z"/><path class="b9027213-c86e-4c55-aa0c-4aee846e9702" d="M891.75,343.11c-10.7,5.4-27.5,8-32.7-2.4-2.5-5-14.8.2-15.4,10-1,17.5,45.1,6.7,52.7-1.2C900.45,345.31,895.85,341.11,891.75,343.11Z"/><path class="b9027213-c86e-4c55-aa0c-4aee846e9702" d="M935.35,341.51s-15.4,9.8-19.7,21-4.8,18.8-4.8,18.8l-21.2-19s3.6-13.9,8.1-20.3,17.5-13.2,17.5-13.2Z"/><path class="f269d570-3593-49c8-bbd9-b0db9c0a3436" d="M925.55,355.41c.4-.1,1.3-1.3,2.1-.1.5.8-.8,2.1-1,2.4.2-.2.7-.6,1.1.2.6,1.1-2.7,5.5-4.4,7.7-1.4,2.7-1.7,3.2-3,4.3-1-3.7-3.8-6.9-7.5-3.3,0,0,1.9-5.7,3.4-7.9,2.6-3.9,6.3-7.3,7.3-6.1.7.8-.4,2.1-.4,2.1s2.3-2.8,3.2-1.8C927.05,353.71,925.85,355.11,925.55,355.41Z"/><path class="ae15dcab-5865-4554-adea-85767be81a5d" d="M872.05,529.91s-.6,4.8.7,6c4,3.8,10.4-.9,18.4-6.5,7.3-5.2,3.7-7.7-4.9-5.2C875.65,527.31,872.05,529.91,872.05,529.91Z"/><path class="bba1541c-c6c9-40b8-997c-365bd1d92020" d="M873.55,527.61a2.88,2.88,0,0,0-1.6,2.6c-.1,1.5,0,3.6.8,4.3,4,3.8,10.4-.9,18.4-6.5,7.3-5.2,3.7-7.7-4.9-5.2A61.51,61.51,0,0,0,873.55,527.61Z"/><path class="bba1541c-c6c9-40b8-997c-365bd1d92020" d="M842.55,403.31c4.5,24.1,22.9,52.8,27.3,64.3,4.3,11.3.5,48.7,2.8,59.5.9,4.1,8.4,2.2,9-1.3,1.2-6.6,9.7-48.3,4.7-69-4.2-17.3-6.8-46.9-11-63.8C873.85,386.71,841.45,397,842.55,403.31Z"/><path class="b9027213-c86e-4c55-aa0c-4aee846e9702" d="M850.45,336.41c-5.7,2.5-8.9,6.9-10.3,17.2-2.4,18-2,30,.4,51.5.9,8,28.1,3.6,36.2-6.8,3.5-4.4-1.2-8.1-.3-19.8s5.6-17.6,2.5-27c-1.2-3.6-6.3-9.5-10.3-10.9C863.85,339,853.85,334.91,850.45,336.41Z"/><path class="a813f3bc-2ce5-45c2-8f29-193e27542152" d="M876.55,347.31c-6.7,2.6-11.6,5.6-10.3,16.3.8,6.6-4.3,9.4,1.7,19.9s2.8,12.5,2.8,12.5,5.4-2.3,5.5-13.7c.1-8.4,3.6-21.5,3.6-21.5Z"/><path class="f269d570-3593-49c8-bbd9-b0db9c0a3436" d="M868.65,334.91s-3,4.1,0,5.6a18.12,18.12,0,0,1-13.7-4.3c2.3.1,3.9-4.8,8.3-12.2C865.35,320.51,868.65,334.91,868.65,334.91Z"/><path class="f269d570-3593-49c8-bbd9-b0db9c0a3436" d="M863.05,325.21c-.6,4.4,2.9,10.3,6.6,10.8s6.1-4.8,6.9-9c.9-4.4-2-8.4-5.7-8.9S863.55,320.81,863.05,325.21Z"/><path class="ae15dcab-5865-4554-adea-85767be81a5d" d="M861,328.21c2.8,0,5,3.2,5.9,3.3s3.6-1,6.2-2.8,2.1-2.5,5.3-3.6-.5-10.4-9.8-9.4C862.15,316.31,861,322.91,861,328.21Z"/><path class="f269d570-3593-49c8-bbd9-b0db9c0a3436" d="M872.85,331.51h0a1.35,1.35,0,0,0,1-1.6l-.4-1.8a1.35,1.35,0,0,0-1.6-1h0a1.35,1.35,0,0,0-1,1.6l.4,1.8A1.3,1.3,0,0,0,872.85,331.51Z"/><path class="b9027213-c86e-4c55-aa0c-4aee846e9702" d="M912.75,365.71c-7.7,9.2-11.1,21.7-19.1,10.3-6.4-9-8.9-22.2-17.8-29.7-4.3-3.6-13.6,6-10.2,15.2,5.9,16.5,21.3,31.1,28,34.9,15,8.5,22.4-16,26.3-26.2C922.05,364.81,915.75,362.21,912.75,365.71Z"/><path class="f269d570-3593-49c8-bbd9-b0db9c0a3436" d="M917.75,356.71c-3.3,2.4-3.1-2.6-4.9-2.4-3.3.3.4,7.3.6,10.6Z"/><path class="f269d570-3593-49c8-bbd9-b0db9c0a3436" d="M902,337.81c-1.6,1.9,1.1,2.1,4.1,2.1s3.4,2-1,2.2-6.5,3.2-8.3,1.6.7-4.9,1-4.9C897.85,338.71,902,337.81,902,337.81Z"/><path class="a9007b10-6ec1-4a64-a60b-aadc9b1ccf68" d="M966.45,440.21v187.1c26.9-22.6,42.6-49.4,42.6-78.1V362.11C1009.05,390.81,993.45,417.61,966.45,440.21Z"/><path class="a14241bf-f3c8-496a-b2eb-33a3d44b270f" d="M388.25,653.61c1-3.5,5-7.4,7-9.4s4.2-7.9,5-8.4,2.3-1.3,1.4,3.4-.3,3.7.8,8.2-1.1,4.7-3.8,6.3a36.62,36.62,0,0,1-4.6,2.2Z"/><path class="ae15dcab-5865-4554-adea-85767be81a5d" d="M324.65,810.11s-.2,6.4,2.4,7.5c5.3,2.2,11.6-4.3,15.9-11.6,5-8.6-2.6-9.2-8.3-4.1C325.85,809.61,324.65,810.11,324.65,810.11Z"/><path class="bebb95b7-3384-4ff5-9385-bb670480347d" d="M324.65,808.31s-.7,6.4,1.9,7.5c5.3,2.2,12.1-4.3,16.4-11.6,5-8.6-2.6-9.2-8.3-4.1C325.85,807.91,324.65,808.31,324.65,808.31Z"/><path class="bebb95b7-3384-4ff5-9385-bb670480347d" d="M323.15,767.21c1.5,10.4-.2,30.1,1.2,41.9.6,4.7,10.2,1.4,11.7-3.9,3.4-12.2,1.5-39.9,1.7-60.4.1-14.9-.9-29.1-.9-29.1s-21.2-10.9-21.4-5.4C314.85,727.31,321.15,753,323.15,767.21Z"/><path class="ae15dcab-5865-4554-adea-85767be81a5d" d="M356.25,813.31s-.7,5.1.7,6.4c4.2,4,11.1-.9,19.6-6.9,7.8-5.5,4-8.2-5.2-5.6C360.15,810.51,356.25,813.31,356.25,813.31Z"/><path class="bebb95b7-3384-4ff5-9385-bb670480347d" d="M356.25,811.81s-.7,5.1.7,6.4c4.2,4,11.1-.9,19.6-6.9,7.8-5.5,4-8.2-5.2-5.6C360.15,809,356.25,811.81,356.25,811.81Z"/><path class="bebb95b7-3384-4ff5-9385-bb670480347d" d="M330.85,699.11c4.6,25.6,22.1,50.5,23.5,62.8,1.5,12.8-.7,39.4,1.8,50.9.9,4.4,11.9-.7,12.5-4.4,1.3-7.1,3.3-44.5,2-57-1.3-12.1-13.6-32.1-16.6-50.3C353,694.31,329.65,692.41,330.85,699.11Z"/><path id="f716579f-5c97-42c3-ad2e-b988d0d6506f" data-name="SVGID" class="a76ff074-7ecc-4473-99bf-9da77d5e8555" d="M327.15,642.81c-6.1,2.7-7.9,3.9-11.5,22.3-1.9,9.6-3.6,48,3.9,102.1.8,5.8,59.1,8.3,57.1-.7-5.6-25-23.2-66.4-22.1-78.9s6-18.6,2.8-28.6c-1.3-3.8-6.6-10.2-10.9-11.7C341.35,645.61,330.75,641.21,327.15,642.81Z"/><g class="a325d0d2-0400-4bf7-88d0-56f922c856de"><path class="a1e2b95d-85cc-45b1-8cbe-9dc69a2867f3" d="M352.45,653.71c-7.1,2.7-10,6.7-8.7,18,.8,7-4.6,10,1.7,21.1s12.3,20.1,12.3,20.1-.5-19,0-22.3,3.9-12.4,3.9-12.4Z"/></g><path class="a76ff074-7ecc-4473-99bf-9da77d5e8555" d="M347.35,658.61c-1.3,2.8-1.7,5.4,2.2,12.7,5,9.4,12.7,17.6,24.2,17.6,3.1,0,9.8-1.2,14.1-9.9,2-4.1,5.4-15.3,7.7-23.2.5-1.6-5.8-5-7.3-2.9-2.6,3.7-4.8,19.6-13.1,21.8-7.2,1.9-17.9-17.8-20.1-20C351.45,651.41,348.15,656.71,347.35,658.61Z"/><path class="a14241bf-f3c8-496a-b2eb-33a3d44b270f" d="M346.45,641.31s-3.2,4.3,0,6c-9.3.7-14.5-4.6-14.5-4.6,2.5.1,4.2-5.1,8.9-12.9C343.05,626,346.45,641.31,346.45,641.31Z"/><path class="a14241bf-f3c8-496a-b2eb-33a3d44b270f" d="M340.55,631c-.6,4.7,3,10.9,7,11.5s6.5-5,7.4-9.5-2.1-9-6-9.5C344.85,622.91,341.15,626.31,340.55,631Z"/><path class="a14241bf-f3c8-496a-b2eb-33a3d44b270f" d="M388.25,653.41a30.75,30.75,0,0,1,1.1-6.7c.7-4.4.4-6.8,1.5-6.7,1.6.2.2,7.7,4.5,4.2C397.45,642.31,388.25,653.41,388.25,653.41Z"/><path class="bebb95b7-3384-4ff5-9385-bb670480347d" d="M357.85,627.31a3.82,3.82,0,0,0,1.9-3.3,3.69,3.69,0,0,0-3.7-3.7h-.2a3.55,3.55,0,0,0,.2-1h0a3.69,3.69,0,0,0-3.7-3.7,3.86,3.86,0,0,0-2.9,1.4,3.56,3.56,0,0,0-2.9-1.4,3.76,3.76,0,0,0-3.7,3.2,5,5,0,0,0-1.2-.2h0a3.69,3.69,0,0,0-3.7,3.7,3.08,3.08,0,0,0,.6,1.9,3.76,3.76,0,0,0-3,3.7,3.86,3.86,0,0,1,0,3.8,3.69,3.69,0,0,0,3.7,3.7h.1a3.73,3.73,0,0,0,3.6,2.9h.1a3.88,3.88,0,0,0,2.3.9,3.76,3.76,0,0,0,3.7-3.2,23.92,23.92,0,0,0,2.1-1.3c2-1.3,2.6-.5,3.7-.6.2,0,.5.1.7.1h0a3.69,3.69,0,0,0,3.7-3.7A3.61,3.61,0,0,0,357.85,627.31Z"/><path class="a14241bf-f3c8-496a-b2eb-33a3d44b270f" d="M350.85,637.71h0A1.39,1.39,0,0,0,352,636l-.4-1.9a1.39,1.39,0,0,0-1.7-1.1h0a1.39,1.39,0,0,0-1.1,1.7l.4,1.9A1.44,1.44,0,0,0,350.85,637.71Z"/><g id="ed71609a-31d3-42fd-9823-5c9a630bf937" data-name="SVGID"><g class="b4199585-7079-487c-a840-2b9e04ff69e6"><polygon class="f0cfb613-3400-42fc-8a8c-7fca947b4df3" points="528.15 749.51 451.15 800.61 457.75 808.81 434.65 826.91 453.35 837.71 483.55 820.51 505.85 835.31 583.25 786.71 528.15 749.51"/></g></g><polygon class="e3853634-14b2-4466-96e1-044d5752f712" points="528.15 749.51 451.15 800.61 457.75 808.81 434.65 826.91 453.35 837.71 483.55 820.51 505.85 835.31 583.25 786.71 528.15 749.51"/><path class="bebb95b7-3384-4ff5-9385-bb670480347d" d="M469.05,809.61s.1,5.4-2.1,6.3c-4.5,1.8-9.8-3.7-13.3-9.9-4.1-7.3,2.3-7.8,7.1-3.4C468,809.21,469.05,809.61,469.05,809.61Z"/><path class="b9027213-c86e-4c55-aa0c-4aee846e9702" d="M469.05,808.11s.5,5.4-1.7,6.3c-4.5,1.8-10.2-3.7-13.8-9.9-4.1-7.3,2.3-7.8,7.1-3.4C468,807.71,469.05,808.11,469.05,808.11Z"/><path class="f269d570-3593-49c8-bbd9-b0db9c0a3436" d="M470.55,773.41c-1.3,8.8,0,25.4-1.3,35.4-.5,4-6.2,2.5-7.4-1.9-2.8-10.4-10.9-41.2-3.9-48.8,7.4-8,32.6,3.4,32.6,3.4a43.81,43.81,0,0,0-1.3,10.1C489.75,785.91,472.45,761.41,470.55,773.41Z"/><path class="e7021233-fd5c-40a4-8668-7ff30e3dee7c" d="M488.25,852.81a2.77,2.77,0,0,1-2.3-1.3l-23.7-29.8a1.07,1.07,0,1,1,1.7-1.3l23.7,29.8.1.1a.62.62,0,0,0,.7.3.65.65,0,0,0,.5-.6l.2-43.1a1.05,1.05,0,1,1,2.1.1l-.2,43.1a2.67,2.67,0,0,1-2,2.6C488.75,852.71,488.55,852.81,488.25,852.81Z"/><path class="e7021233-fd5c-40a4-8668-7ff30e3dee7c" d="M523.35,831.31a10.87,10.87,0,0,1-2.6-.4L476.55,816l-13,6.1a1.05,1.05,0,1,1-.9-1.9L476,814a1.1,1.1,0,0,1,.8,0l44.6,15.1a6.51,6.51,0,0,0,5.6-.8,6.25,6.25,0,0,0,2.6-5l.2-33.5a1.05,1.05,0,1,1,2.1.1l-.2,33.5a8.07,8.07,0,0,1-3.5,6.7A10.65,10.65,0,0,1,523.35,831.31Z"/><polygon class="fa56d4bd-a474-43d5-8025-58b6444964f9" points="490.15 810.91 446.85 785.61 490.45 760.71 533.75 786.01 490.15 810.91"/><polygon class="a3367d90-28af-4468-8c85-1500bb7e4cfa" points="490.15 815.51 446.85 790.21 446.85 785.61 490.15 810.91 490.15 815.51"/><polygon class="ea2258d7-c119-40a0-a45d-db5031383611" points="490.15 815.51 533.75 790.61 533.75 786.01 490.15 810.91 490.15 815.51"/><path class="e7021233-fd5c-40a4-8668-7ff30e3dee7c" d="M530.85,786.71h0a1,1,0,0,1-1-1.1l.1-15.4a21.64,21.64,0,0,1,.8-5.6l5.3-19.4a1,1,0,0,1,2,.6l-5.3,19.4a20.8,20.8,0,0,0-.7,5l-.1,15.4A1.18,1.18,0,0,1,530.85,786.71Z"/><path class="f269d570-3593-49c8-bbd9-b0db9c0a3436" d="M452,717.11c-.3,0-1.5-.6-1.7.6-.1.7,1.4,1.4,1.7,1.6-.2-.1-.7-.3-.8.5-.1,1.1,4.2,3.5,6.4,4.7,2.1,1.7,2.5,2,4,2.4-.6-3.2.6-6.5,4.8-4.8,0,0-4-5.8-6-7.1-3.6-2.3-7.6-2.3-7.9-1.1-.3.8,1.9,1.4,1.9,1.4s-3.6-.9-3.9.1C450.15,716.11,451.65,716.91,452,717.11Z"/><path class="f269d570-3593-49c8-bbd9-b0db9c0a3436" d="M466.05,721.61c9.6,4.9,24.7,7.3,29.4-2,2.3-4.5,13.3.2,13.8,9.1.8,15.8-40.5,5.8-47.3-1.3C458.25,723.51,462.35,719.71,466.05,721.61Z"/><path class="bebb95b7-3384-4ff5-9385-bb670480347d" d="M454.05,832.31s.5,4.3-.7,5.4c-3.6,3.4-9.4-.8-16.5-6-6.5-4.7-3.3-7,4.4-4.7C450.75,829.91,454.05,832.31,454.05,832.31Z"/><path class="b9027213-c86e-4c55-aa0c-4aee846e9702" d="M454.05,831s.5,4.3-.7,5.4c-3.6,3.4-9.4-.8-16.5-6-6.5-4.7-3.3-7,4.4-4.7C450.85,828.71,454.05,831,454.05,831Z"/><path class="f269d570-3593-49c8-bbd9-b0db9c0a3436" d="M508.85,781.51c-4.1,21.6-48.9-.7-53,9.6-3.9,10.1.5,31.1-1.7,40.8-.8,3.7-7,1.2-7.5-2-1-6-8.6-48-4.6-54.5,8.2-13.6,37.3-1.9,45.4-14.1C490.55,756.51,509.85,775.81,508.85,781.51Z"/><path class="fb21964b-fb13-4d67-b5c5-57b9ce0def1a" d="M511.75,777.41c-1.4,13.9-11.7,16.1-25,14.7s-24.9-4-28.7-3.2-20-7.3-16.1-13.6,18-19.1,27.3-19.4,17.7,3.8,23.4-.7C498.55,750.81,511.75,777.41,511.75,777.41Z"/><path class="b2d7691a-7939-44bc-b0d8-f032512139ed" d="M451.05,702.61l10.2,28.9a2.23,2.23,0,0,1-1,2.6l-34.9,20a2.32,2.32,0,0,1-1.6-1.6l-9.4-27.1a2.23,2.23,0,0,1,1-2.6l33.5-19.3A4.32,4.32,0,0,1,451.05,702.61Z"/><path class="bba1541c-c6c9-40b8-997c-365bd1d92020" d="M452.15,703.21l9.8,28.2a2.23,2.23,0,0,1-1,2.6l-34.7,20a1,1,0,0,1-1.4-.5l-9.8-28.2a2.23,2.23,0,0,1,1-2.6l34.7-20A1,1,0,0,1,452.15,703.21Z"/><path class="b9027213-c86e-4c55-aa0c-4aee846e9702" d="M450.85,705.71l8.8,25.4a1.91,1.91,0,0,1-.9,2.3l-31.2,18a.92.92,0,0,1-1.3-.5l-8.8-25.4a1.91,1.91,0,0,1,.9-2.3l31.2-18A1,1,0,0,1,450.85,705.71Z"/><path class="b2d7691a-7939-44bc-b0d8-f032512139ed" d="M464,735.31l25.3,13.9s.5,1.5-1.8,2.8l-33.2,19.1a2.62,2.62,0,0,1-2.7,0l-23.8-13.7c-2-1.2-1.5-2.7-1.5-2.7l34.9-19.4A2.8,2.8,0,0,1,464,735.31Z"/><path class="bba1541c-c6c9-40b8-997c-365bd1d92020" d="M464,733.91l24.8,14.3a1,1,0,0,1,0,1.7l-34.4,19.8a2.62,2.62,0,0,1-2.7,0l-24.8-14.3a1,1,0,0,1,0-1.7l34.4-19.8A2.62,2.62,0,0,1,464,733.91Z"/><path class="ad278e17-dd23-4ba1-931e-8cc4a2340a2e" d="M466.85,749.61l8.8,5.1c.2.1.2.4,0,.6L464,762a.75.75,0,0,1-.9,0l-8.8-5.1c-.2-.1-.2-.4,0-.6l11.7-6.7A1.39,1.39,0,0,1,466.85,749.61Z"/><path class="a3367d90-28af-4468-8c85-1500bb7e4cfa" d="M431.45,755.41l8.6,5a2.62,2.62,0,0,0,2.7,0l29.9-17.2a.67.67,0,0,0,0-1.2l-8.6-5a2.62,2.62,0,0,0-2.7,0l-29.9,17.2A.75.75,0,0,0,431.45,755.41Z"/><path class="f269d570-3593-49c8-bbd9-b0db9c0a3436" d="M435.65,732.51c-.3-.1-1.2-1.1-1.9-.1-.5.7.7,1.9.9,2.2-.1-.1-.6-.5-1,.2-.6,1,2.4,5,3.9,6.9,1.2,2.4,1.5,2.8,2.7,3.8.9-3.3,3.4-6.1,6.7-2.9a44.88,44.88,0,0,0-3-7.1c-2.3-3.5-5.7-6.6-6.6-5.5-.6.7.3,1.9.3,1.9s-2.1-2.5-2.8-1.6C434.35,730.91,435.35,732.21,435.65,732.51Z"/><path class="ea2258d7-c119-40a0-a45d-db5031383611" d="M503.05,715.71c5.1,2.3,6.6,3.4,9.5,18.9,1.5,8.1,6.9,16.1,1.7,42.6-1.4,7.1-39.7,9.4-37.6-2.5,1.7-9.7,3.7-10.8,2.9-21.3s-4.9-15.8-2.1-24.2c1.1-3.2,5.7-8.5,9.3-9.8C491.05,718,500.05,714.31,503.05,715.71Z"/><path class="a1e2b95d-85cc-45b1-8cbe-9dc69a2867f3" d="M479.65,725.41c6,2.3,10.4,5.1,9.2,14.6-.8,6,3.8,8.5-1.6,17.8s-10.5,16.9-10.5,16.9a53,53,0,0,0,3.1-18c0-7.6-3.1-19.3-3.1-19.3Z"/><path class="f269d570-3593-49c8-bbd9-b0db9c0a3436" d="M486.85,714.31s2.7,3.7,0,5.1a16.53,16.53,0,0,0,12.3-3.8c-2.1,0-3.5-4.4-7.4-11C489.75,701.41,486.85,714.31,486.85,714.31Z"/><path class="f269d570-3593-49c8-bbd9-b0db9c0a3436" d="M491.85,705.61c.5,4-2.6,9.2-6,9.6s-5.4-4.3-6.2-8.1,1.8-7.6,5.2-8S491.35,701.71,491.85,705.61Z"/><path class="bebb95b7-3384-4ff5-9385-bb670480347d" d="M493.75,708.31c-2.5,0-4.5,2.9-5.3,2.9s-3.2-1-5.6-2.6-1.8-2.2-4.7-3.3.5-9.4,8.8-8.4C492.75,697.61,493.75,703.61,493.75,708.31Z"/><path class="f269d570-3593-49c8-bbd9-b0db9c0a3436" d="M483.05,711.21h0a1.26,1.26,0,0,1-.9-1.5l.4-1.6a1.26,1.26,0,0,1,1.5-.9h0a1.26,1.26,0,0,1,.9,1.5l-.4,1.6A1.22,1.22,0,0,1,483.05,711.21Z"/><path class="ea2258d7-c119-40a0-a45d-db5031383611" d="M447.05,741.81c6.9,8.3,9.9,19.5,17.1,9.3,5.8-8.1,8.1-19.9,16.1-26.5,3.9-3.2,12.1,5.4,9.1,13.7-5.4,14.8-19.2,27.8-25.3,31.2-13.5,7.5-20-14.5-23.5-23.6C438.75,740.91,444.45,738.71,447.05,741.81Z"/><path class="f269d570-3593-49c8-bbd9-b0db9c0a3436" d="M442.65,733.71c2.9,2.1,2.8-2.3,4.4-2.1,3,.3-.4,6.5-.6,9.5Z"/><path class="f269d570-3593-49c8-bbd9-b0db9c0a3436" d="M457,716.71c1.4,1.7-1,1.9-3.7,1.9s-3.1,1.8.9,2,5.8,2.9,7.5,1.5-.6-4.4-.8-4.4S457,716.71,457,716.71Z"/><path class="e7021233-fd5c-40a4-8668-7ff30e3dee7c" d="M490.15,809.41a1,1,0,0,1-1-1.1l.1-15.4a21.64,21.64,0,0,1,.8-5.6l5.3-19.4a1,1,0,1,1,2,.6l-5.3,19.4a20.8,20.8,0,0,0-.7,5l-.1,15.4A1.11,1.11,0,0,1,490.15,809.41Z"/><polygon class="b9027213-c86e-4c55-aa0c-4aee846e9702" points="502.15 751.31 498.05 749.01 541.55 724.11 545.75 726.41 502.15 751.31"/><polygon class="e7021233-fd5c-40a4-8668-7ff30e3dee7c" points="494.45 780.11 490.35 777.81 498.05 749.01 502.15 751.31 494.45 780.11"/><polygon class="ea2258d7-c119-40a0-a45d-db5031383611" points="494.45 780.11 538.05 755.21 545.75 726.41 502.15 751.31 494.45 780.11"/><path class="bebb95b7-3384-4ff5-9385-bb670480347d" d="M494.75,695.91a6,6,0,1,0-6,5.9A5.87,5.87,0,0,0,494.75,695.91Z"/><polygon class="afe03b9f-ced5-4b34-a555-1bedf35a62bd" points="1339.15 643.21 1129.15 763.11 1129.15 666.71 1339.15 546.71 1339.15 643.21"/><polygon class="aea60552-e7ab-4653-8832-db5786230c54" points="1288.95 517.71 1078.85 637.61 1129.15 666.71 1339.15 546.71 1288.95 517.71"/><polygon class="bc6aed67-520f-4656-a1bb-664302646b1c" points="1129.15 763.11 1078.85 734.11 1078.85 637.61 1129.15 666.71 1129.15 763.11"/><polygon class="ea2258d7-c119-40a0-a45d-db5031383611" points="1136.65 629.81 1132.95 627.61 1111.25 640.01 1114.95 642.11 1136.65 629.81"/><polygon class="ea2258d7-c119-40a0-a45d-db5031383611" points="1111.15 644.41 1107.35 642.21 1102.45 645.01 1106.15 647.21 1111.15 644.41"/><polygon class="ea2258d7-c119-40a0-a45d-db5031383611" points="1122.05 650.71 1118.35 648.51 1113.45 651.31 1117.15 653.51 1122.05 650.71"/><polygon class="ea2258d7-c119-40a0-a45d-db5031383611" points="1132.95 657.01 1129.25 654.81 1124.35 657.61 1128.05 659.81 1132.95 657.01"/><polygon class="ea2258d7-c119-40a0-a45d-db5031383611" points="1130.65 645.71 1126.95 643.51 1122.05 646.31 1125.75 648.51 1130.65 645.71"/><polygon class="ea2258d7-c119-40a0-a45d-db5031383611" points="1141.65 652.01 1137.95 649.91 1132.95 652.71 1136.65 654.81 1141.65 652.01"/><polygon class="ea2258d7-c119-40a0-a45d-db5031383611" points="1139.25 640.71 1135.55 638.61 1130.65 641.41 1134.35 643.51 1139.25 640.71"/><polygon class="ea2258d7-c119-40a0-a45d-db5031383611" points="1150.25 647.01 1146.55 644.91 1141.55 647.71 1145.35 649.91 1150.25 647.01"/><polygon class="ea2258d7-c119-40a0-a45d-db5031383611" points="1147.95 635.71 1144.25 633.61 1139.25 636.41 1142.95 638.61 1147.95 635.71"/><polygon class="ea2258d7-c119-40a0-a45d-db5031383611" points="1158.85 642.11 1155.15 639.91 1150.25 642.71 1153.95 644.91 1158.85 642.11"/><polygon class="ea2258d7-c119-40a0-a45d-db5031383611" points="1156.55 630.81 1152.85 628.61 1147.85 631.41 1151.55 633.61 1156.55 630.81"/><polygon class="ea2258d7-c119-40a0-a45d-db5031383611" points="1167.45 637.11 1163.75 634.91 1158.85 637.71 1162.55 639.91 1167.45 637.11"/><polygon class="ea2258d7-c119-40a0-a45d-db5031383611" points="1116.75 628.21 1113.05 626.01 1091.45 638.41 1095.15 640.51 1116.75 628.21"/><path class="ea2258d7-c119-40a0-a45d-db5031383611" d="M1131.35,624l-9.7-5.6-1.7,6.3C1120.15,624.51,1131.35,624,1131.35,624Z"/><path class="ea2258d7-c119-40a0-a45d-db5031383611" d="M1137.65,620.41l-9.7-5.6,10.1-.5C1138.25,614.21,1137.65,620.41,1137.65,620.41Z"/><path class="ea2258d7-c119-40a0-a45d-db5031383611" d="M1173.05,615.21l-23.4-13.7-4.1,15.2C1146,616.51,1173.05,615.21,1173.05,615.21Z"/><path class="aa11033a-3d13-456f-832f-4b5888fe8dee" d="M1188.25,606.61l-23.4-13.7,24.5-1.2C1189.75,591.51,1188.25,606.61,1188.25,606.61Z"/><polygon class="ea2258d7-c119-40a0-a45d-db5031383611" points="1289.05 541.81 1285.35 539.61 1263.75 551.91 1267.45 554.11 1289.05 541.81"/><polygon class="ea2258d7-c119-40a0-a45d-db5031383611" points="1263.55 556.31 1259.85 554.21 1254.95 557.01 1258.65 559.11 1263.55 556.31"/><polygon class="ea2258d7-c119-40a0-a45d-db5031383611" points="1274.55 562.61 1270.85 560.51 1265.85 563.31 1269.55 565.51 1274.55 562.61"/><polygon class="ea2258d7-c119-40a0-a45d-db5031383611" points="1285.45 569.01 1281.75 566.81 1276.85 569.61 1280.55 571.81 1285.45 569.01"/><polygon class="ea2258d7-c119-40a0-a45d-db5031383611" points="1283.15 557.71 1279.45 555.51 1274.55 558.31 1278.25 560.51 1283.15 557.71"/><polygon class="ea2258d7-c119-40a0-a45d-db5031383611" points="1294.05 564.01 1290.35 561.81 1285.45 564.61 1289.15 566.81 1294.05 564.01"/><polygon class="ea2258d7-c119-40a0-a45d-db5031383611" points="1291.75 552.71 1288.05 550.51 1283.15 553.31 1286.85 555.51 1291.75 552.71"/><polygon class="ea2258d7-c119-40a0-a45d-db5031383611" points="1302.75 559.01 1298.95 556.81 1294.05 559.71 1297.75 561.81 1302.75 559.01"/><polygon class="ea2258d7-c119-40a0-a45d-db5031383611" points="1300.35 547.71 1296.65 545.51 1291.75 548.41 1295.45 550.51 1300.35 547.71"/><polygon class="aa11033a-3d13-456f-832f-4b5888fe8dee" points="1311.35 554.01 1307.65 551.91 1302.65 554.71 1306.35 556.81 1311.35 554.01"/><polygon class="ea2258d7-c119-40a0-a45d-db5031383611" points="1309.05 542.71 1305.25 540.61 1300.35 543.41 1304.05 545.51 1309.05 542.71"/><polygon class="ea2258d7-c119-40a0-a45d-db5031383611" points="1319.95 549.11 1316.25 546.91 1311.35 549.71 1315.05 551.91 1319.95 549.11"/><polygon class="ea2258d7-c119-40a0-a45d-db5031383611" points="1269.25 540.21 1265.55 538.01 1243.95 550.41 1247.65 552.51 1269.25 540.21"/><path class="ea2258d7-c119-40a0-a45d-db5031383611" d="M1283.85,535.91l-9.7-5.6-1.7,6.3C1272.65,536.51,1283.85,535.91,1283.85,535.91Z"/><path class="ea2258d7-c119-40a0-a45d-db5031383611" d="M1290.05,532.41l-9.7-5.6,10.1-.5C1290.75,526.21,1290.05,532.41,1290.05,532.41Z"/><g id="ae5dae82-edae-40d8-be4a-68eb12efb983" data-name="SVGID"><g class="b4199585-7079-487c-a840-2b9e04ff69e6"><polygon class="a61dbfb5-e455-4ce3-8a33-e86aa9cd9aab" points="1295.05 666.71 1370.65 619.31 1420.05 647.21 1359.15 685.61 1346.75 695.11 1322.05 682.41 1286.65 701.31 1269.95 690.11 1295.05 666.71"/></g></g><polygon class="ac1d78aa-db58-43f9-b4da-e7666ffeaa8d" points="1295.05 666.71 1370.65 619.31 1420.05 647.21 1359.15 685.61 1346.75 695.11 1322.05 682.41 1286.65 701.31 1269.95 690.11 1295.05 666.71"/><path class="ae15dcab-5865-4554-adea-85767be81a5d" d="M1308.05,671.21s.1,6-2.3,7c-5,2.1-10.9-4.1-14.9-11-4.7-8.1,2.5-8.7,7.8-3.9C1306.85,670.81,1308.05,671.21,1308.05,671.21Z"/><path class="bba1541c-c6c9-40b8-997c-365bd1d92020" d="M1308.05,669.61s.6,6-1.8,7c-5,2.1-11.4-4.1-15.4-11-4.7-8.1,2.5-8.7,7.8-3.9C1306.85,669.21,1308.05,669.61,1308.05,669.61Z"/><path class="bba1541c-c6c9-40b8-997c-365bd1d92020" d="M1309.55,630.91c-1.4,9.8.1,28.3-1.3,39.4-.5,4.4-9.6,1.2-11-3.7-3.2-11.5-9.6-44.2-1.9-52.8,8.2-9,36.4,3.6,36.4,3.6a48.32,48.32,0,0,0-1.3,11.3C1331.05,644.71,1311.55,617.51,1309.55,630.91Z"/><path class="e7021233-fd5c-40a4-8668-7ff30e3dee7c" d="M1330.45,713.21a2.77,2.77,0,0,1-2.3-1.3l-24.3-30.3a1.07,1.07,0,0,1,1.7-1.3l24.3,30.3.1.1a.62.62,0,0,0,.7.3.65.65,0,0,0,.5-.6v-44a1.1,1.1,0,1,1,2.2,0v44a2.69,2.69,0,0,1-2.1,2.7A2.49,2.49,0,0,1,1330.45,713.21Z"/><path class="e7021233-fd5c-40a4-8668-7ff30e3dee7c" d="M1366.15,691.11a8.42,8.42,0,0,1-2.7-.4l-45.2-15-13.2,6.3a1.05,1.05,0,0,1-.9-1.9l13.6-6.4a1.1,1.1,0,0,1,.8,0l45.6,15.2a6.33,6.33,0,0,0,8.3-6v-34.2a1.1,1.1,0,0,1,2.2,0v34.2a8.44,8.44,0,0,1-3.5,6.9A10.94,10.94,0,0,1,1366.15,691.11Z"/><polygon class="fa56d4bd-a474-43d5-8025-58b6444964f9" points="1332.15 670.51 1287.85 644.91 1332.15 619.31 1376.45 644.91 1332.15 670.51"/><polygon class="a3367d90-28af-4468-8c85-1500bb7e4cfa" points="1332.15 675.21 1287.85 649.61 1287.85 644.91 1332.15 670.51 1332.15 675.21"/><polygon class="ea2258d7-c119-40a0-a45d-db5031383611" points="1332.15 675.21 1376.45 649.61 1376.45 644.91 1332.15 670.51 1332.15 675.21"/><path class="e7021233-fd5c-40a4-8668-7ff30e3dee7c" d="M1373.55,645.61h0a1.11,1.11,0,0,1-1.1-1.1v-15.7a22.24,22.24,0,0,1,.7-5.7l5.3-19.8a1.08,1.08,0,0,1,2.1.5l-5.3,19.8a22.36,22.36,0,0,0-.7,5.1v15.7C1374.55,645.11,1374.15,645.61,1373.55,645.61Z"/><path class="ad3fc5aa-119d-48df-b501-be0a3afdb2ef" d="M1314.15,562.21c8.2,4.2,10.4,5,18.8,10.6,9.2,6.1,4.1,25.1,14.2,30.7,4.9,2.7,12.6-2.6,13-5.1,2-11.4-14.7-30.7-19.3-33.3-2.7-1.5-23-9.9-24.7-10.7C1310.85,552,1310.05,560.21,1314.15,562.21Z"/><path class="f269d570-3593-49c8-bbd9-b0db9c0a3436" d="M1301.35,551.21c-.2-.3-1.8-.7-.8-1.7.7-.6,2.2.4,2.5.6a.6.6,0,0,1,0-1.1c1-.8,6.5-.2,8.9,1.1,2.9.9,2.8,3.1,4.1,4.2-3.5,1.6-6.1,4.9-2,7.9a73,73,0,0,0-7.3-4.1c-4.3-1.9-9.2-3-8.3-4.2.7-.8,2.6-.5,2.6-.5s-3.6-1.3-2.7-2.3C1299.05,550.41,1301,551,1301.35,551.21Z"/><path class="ae15dcab-5865-4554-adea-85767be81a5d" d="M1291.45,696.61s.6,4.8-.7,6c-4,3.8-10.4-.9-18.4-6.5-7.3-5.2-3.7-7.7,4.9-5.2C1287.85,694,1291.45,696.61,1291.45,696.61Z"/><path class="bebb95b7-3384-4ff5-9385-bb670480347d" d="M1291.45,695.21s.6,4.8-.7,6c-4,3.8-10.4-.9-18.4-6.5-7.3-5.2-3.7-7.7,4.9-5.2C1287.85,692.61,1291.45,695.21,1291.45,695.21Z"/><path class="bebb95b7-3384-4ff5-9385-bb670480347d" d="M1352.25,639.71c-4.5,24.1-54.5-.5-59,11-4.3,11.3.7,34.6-1.7,45.4-.9,4.1-11.2-.7-11.8-4.2-1.2-6.6-6.4-51.3-2.1-58.6,9.1-15.2,41.5-2.3,50.5-15.9C1331.75,612,1353.35,633.41,1352.25,639.71Z"/><path class="bebb95b7-3384-4ff5-9385-bb670480347d" d="M1355.45,635.21c-1.5,15.5-12.9,18-27.8,16.5s-27.8-4.4-32-3.4-22.3-8-18-15,11.1-8,21.5-8.4,22.6-2.4,29-7.5S1355.45,635.21,1355.45,635.21Z"/><path class="fb21964b-fb13-4d67-b5c5-57b9ce0def1a" d="M1356.25,582.21c5.2,13.5,18.3,27.6-.1,54.4-2.4,3.5-6.7-.6-8.3-2.6-3.7-4.6,5.2-5.3,2.1-12.5-5.4-12.3-4.5-23.6-5.3-25.3-1.2-2.7-8.6-21.4-8.6-21.4s3.1-.2,9.8-5.2C1350.25,566.11,1354.75,578.31,1356.25,582.21Z"/><path class="fb21964b-fb13-4d67-b5c5-57b9ce0def1a" d="M1345.45,566.41c5.7,2.5,7.4,3.8,10.7,21.1,1.7,9.1,7.8,18,2.1,47.5-1.5,7.9-44.1,10.7-41.9-2.6,1.8-10.8,4.1-12.1,3.1-23.8s-5.6-17.6-2.5-27c1.2-3.6,6.3-9.5,10.3-10.9C1332.05,569,1342.05,564.91,1345.45,566.41Z"/><path class="a1e2b95d-85cc-45b1-8cbe-9dc69a2867f3" d="M1319.35,577.31c6.7,2.6,11.6,5.6,10.3,16.3-.8,6.6,4.3,9.4-1.7,19.9s-11.6,18.9-11.6,18.9a58.49,58.49,0,0,0,3.3-20c-.1-8.4-3.6-21.5-3.6-21.5Z"/><path class="a168ab00-044b-4514-93ab-79021fd500a2" d="M1327.35,565s3,4.1,0,5.6a18.12,18.12,0,0,0,13.7-4.3c-2.3.1-3.9-4.8-8.3-12.2C1330.55,550.61,1327.35,565,1327.35,565Z"/><path class="f269d570-3593-49c8-bbd9-b0db9c0a3436" d="M1333,555.31c.6,4.4-2.9,10.3-6.6,10.8s-6.1-4.8-6.9-9c-.9-4.4,2-8.4,5.7-8.9S1332.35,550.91,1333,555.31Z"/><path class="bebb95b7-3384-4ff5-9385-bb670480347d" d="M1345.75,569.41c-11.6,11-19.7,3.2-19.7-4.9,0-3-.6-4-3.2-5.8s-2.1.9-5.3-.3-1.4-6.5-1.4-6.5a43.76,43.76,0,0,1,3.8-5c3.1-2.7,10.2-2.1,13.1,0C1341.85,553.21,1349.55,565.81,1345.75,569.41Z"/><path class="f269d570-3593-49c8-bbd9-b0db9c0a3436" d="M1323.15,561.61h0a1.35,1.35,0,0,1-1-1.6l.4-1.8a1.35,1.35,0,0,1,1.6-1h0a1.35,1.35,0,0,1,1,1.6l-.4,1.8A1.43,1.43,0,0,1,1323.15,561.61Z"/><path class="fb21964b-fb13-4d67-b5c5-57b9ce0def1a" d="M1268.45,574.61c9.5,2.5,9.2,3.8,21.1,4.9,11,1,22.6-.3,32.6-2.1,5.5-1,6.5,13.3,4,13.9-17.1,4-29.8.7-35,0-3-.4-23.8-8.8-25.6-9.2C1259.65,580.91,1264.05,573.41,1268.45,574.61Z"/><path class="f269d570-3593-49c8-bbd9-b0db9c0a3436" d="M1251.55,575.41c-.4.2-1.8,0-1.6,1.4.2.9,2,1,2.4,1-.2,0-.9,0-.6.9.3,1.2,5.8,2.1,8.5,2.5,2.8,1,3.4,1.1,5.2.9-1.9-3.3-2.1-7.6,3-7.6a51.68,51.68,0,0,0-7.9-3.3c-4.6-1-9.6-.8-9.5.7.1,1.1,1.7,1.2,1.7,1.2s-3.6-.4-3.5.9S1251.15,575.41,1251.55,575.41Z"/><path class="e7021233-fd5c-40a4-8668-7ff30e3dee7c" d="M1332.15,668.91h0a1.11,1.11,0,0,1-1.1-1.1v-15.7a22.24,22.24,0,0,1,.7-5.7l5.3-19.8a1.08,1.08,0,1,1,2.1.5l-5.3,19.8a22.36,22.36,0,0,0-.7,5.1v15.7A1,1,0,0,1,1332.15,668.91Z"/><polygon class="fa56d4bd-a474-43d5-8025-58b6444964f9" points="1344.15 609.61 1339.85 607.21 1384.25 581.61 1388.45 584.01 1344.15 609.61"/><polygon class="e7021233-fd5c-40a4-8668-7ff30e3dee7c" points="1336.35 639.01 1332.15 636.71 1339.85 607.21 1344.15 609.61 1336.35 639.01"/><polygon class="ea2258d7-c119-40a0-a45d-db5031383611" points="1336.35 639.01 1380.75 613.41 1388.45 584.01 1344.15 609.61 1336.35 639.01"/><path class="f269d570-3593-49c8-bbd9-b0db9c0a3436" d="M1306.45,557.61c-3.7.7-5.6,2.5-2.7,2.8s5.3-1.4,8.3-.5Z"/><g id="b1e3f1e5-e26f-4d9c-99c8-acff490b2748" data-name="SVGID"><g class="b4199585-7079-487c-a840-2b9e04ff69e6"><polygon class="bf7972f6-79e7-4613-a495-bb47ca35f498" points="1267.85 698.11 1193.15 745.01 1171.05 761.91 1191.45 778.41 1291.45 714.41 1267.85 698.11"/></g></g><polygon class="f5d31769-a6c0-40d3-965e-3a0fe90c2fed" points="1267.85 698.11 1193.15 745.01 1171.05 761.91 1191.45 778.41 1291.45 714.41 1267.85 698.11"/><path class="ae15dcab-5865-4554-adea-85767be81a5d" d="M1213.65,757.51s.2,7.1-2.7,8.3c-5.9,2.5-13-4.7-17.7-12.9-5.6-9.6,2.9-10.3,9.2-4.7C1212.25,757,1213.65,757.51,1213.65,757.51Z"/><path class="bebb95b7-3384-4ff5-9385-bb670480347d" d="M1213.55,755.61s.8,7.1-2.1,8.3c-5.9,2.5-13.5-4.7-18.3-12.9-5.6-9.6,2.9-10.3,9.2-4.6C1212.25,755.11,1213.55,755.61,1213.55,755.61Z"/><path class="bebb95b7-3384-4ff5-9385-bb670480347d" d="M1215.05,709.71c-1.6,11.6.4,33.5-1.1,46.7-.6,5.2-11.4,1.6-13-4.3-3.9-13.6-1.9-44.4-2.2-67.3-.2-16.6.8-32.5.8-32.5s23.6-12.2,23.9-6.1C1224.15,665.21,1217.25,693.91,1215.05,709.71Z"/><path class="ae15dcab-5865-4554-adea-85767be81a5d" d="M1193,769.61s.8,5.6-.8,7.1c-4.7,4.5-12.3-.9-21.9-7.6-8.7-6.1-4.5-9.1,5.7-6.2C1188.65,766.61,1193,769.61,1193,769.61Z"/><path class="bebb95b7-3384-4ff5-9385-bb670480347d" d="M1193,768s.8,5.6-.8,7.1c-4.7,4.5-12.3-.9-21.9-7.6-8.7-6.1-4.5-9.1,5.7-6.2C1188.65,764.91,1193,768,1193,768Z"/><path class="bebb95b7-3384-4ff5-9385-bb670480347d" d="M1220.85,642.21c-5.1,28.6-24.4,56.4-25.9,70-1.6,14.2.9,43.9-1.8,56.8-1,4.9-13.2-.7-14-4.9-1.5-7.9-3.9-49.5-2.4-63.5,1.4-13.5,15-35.8,18.2-56.1C1196.15,637,1222.15,634.81,1220.85,642.21Z"/><path class="a76ff074-7ecc-4473-99bf-9da77d5e8555" d="M1210.15,571.11c6.8,3,8.8,4.4,12.9,24.8,2.1,10.7,5.4,50.5-3.1,101.4-2.3,13.8-48.9,15.8-48.9,5.5,0-25.5,10-67.8,8.8-81.7s-6.8-20.8-3.2-31.9c1.4-4.3,7.3-11.3,12.1-13C1194.25,574.31,1206.15,569.41,1210.15,571.11Z"/><path class="a23de303-c7c4-44f0-9629-4c2b2ecc073b" d="M1188.65,569.61s3.6,4.8.1,6.7c10.3.7,16.1-5.2,16.1-5.2-2.8.1-4.7-5.7-10-14.4C1192.35,552.51,1188.65,569.61,1188.65,569.61Z"/><path class="a23de303-c7c4-44f0-9629-4c2b2ecc073b" d="M1198.25,560.51c-1.2,5.1-7.6,10.1-11.9,9.1s-4.7-7.8-3.8-12.9,5.8-8.5,10.1-7.4S1199.55,555.31,1198.25,560.51Z"/><path class="bebb95b7-3384-4ff5-9385-bb670480347d" d="M1199.35,564.61c-3.1-1.1-6.9,1.4-7.9,1.1s-3.5-2.7-5.7-5.8-1.2-3.6-4.3-6.3-1.5-6.7-1.5-6.7,2.4,1.8,4.2,1.2c4.6-1.7,6.8-1.3,10.9-.3C1202.55,549.71,1201.55,558.81,1199.35,564.61Z"/><path class="a23de303-c7c4-44f0-9629-4c2b2ecc073b" d="M1120.15,543.61a104.26,104.26,0,0,0-16.1-14.3c-2.8-1.8-2.6.8-1.3,2s4.5,3.9,3.9,4.6-4.8,6.8-.6,9,7.2,3.4,7.2,3.4Z"/><path class="a23de303-c7c4-44f0-9629-4c2b2ecc073b" d="M1184.75,563.21h0a1.6,1.6,0,0,1-.4-2.2l1.2-1.8a1.6,1.6,0,0,1,2.2-.4h0a1.6,1.6,0,0,1,.4,2.2l-1.2,1.8A1.58,1.58,0,0,1,1184.75,563.21Z"/><path class="a76ff074-7ecc-4473-99bf-9da77d5e8555" d="M1181.35,581.81c9.5-4.1-.4,26-4.6,24.1s-37.9-23.8-43-29.6-18.2-22.9-21.5-26.7,2.2-10.3,6.8-7,25.1,24.4,28.9,26.6C1156,573.71,1172.45,585.71,1181.35,581.81Z"/><polygon class="b9027213-c86e-4c55-aa0c-4aee846e9702" points="754.15 750.71 775.35 762.61 799.65 731.01 778.35 719.11 754.15 750.71"/><polygon class="bebb95b7-3384-4ff5-9385-bb670480347d" points="710.45 781.91 688.75 794.51 688.75 817.51 710.45 804.91 710.45 781.91"/><path class="e4cc70d3-2a3e-46dd-a1ed-aff319223ffd" d="M692.55,764.61c3.1,15.2,2.2,19.5.5,22.3s-1,5.3-1.2,5.9l4.2-2.5s.1,4,.7,4.5,2.1.2,2.2-3.4a24,24,0,0,1,1.1-6.4l.9-22.3Z"/><path class="e7021233-fd5c-40a4-8668-7ff30e3dee7c" d="M704.25,721.61c-7.5,10.6-14.2,28.4-13.4,33.4s2.5,23.3,2.9,25.3,8.4.2,7.6-3.9C700.35,772.31,704.25,721.61,704.25,721.61Z"/><path class="bebb95b7-3384-4ff5-9385-bb670480347d" d="M707.75,878.11s-.6,6.2,1.9,7.2c5.1,2.1,9.4-2.4,13.4-9.5,4.7-8.3-.7-9.6-6.2-4.7C708.45,878.71,707.75,878.11,707.75,878.11Z"/><path class="e4cc70d3-2a3e-46dd-a1ed-aff319223ffd" d="M706.05,838.21c1.5,10.1.2,28.4,1.6,39.8.6,4.5,7.4,3,7.9-2.3,1.1-11.9,4.3-39.5,4.4-59.3.1-14.4-1-28.2-1-28.2s-17.9-12-18-6.6C700.45,798.11,704.05,824.51,706.05,838.21Z"/><path class="bebb95b7-3384-4ff5-9385-bb670480347d" d="M737.75,880.61c-.6,1.9-1,5.8.4,7.1,4.1,3.9,10.7-.9,18.8-6.7,7.5-5.4,3.8-8-5-5.4C741.15,878.81,739.05,876.81,737.75,880.61Z"/><path class="e4cc70d3-2a3e-46dd-a1ed-aff319223ffd" d="M713.15,772.21c4.6,24.8,22.8,48,24.2,59.9,1.5,12.3-.9,40.4.6,49.7.7,4.3,8.1,1.3,8.7-2.3,1.2-6.8,6.4-44.7,5-56.8-1.3-11.7-13.2-31-16.2-48.6C734.35,767.51,712,765.71,713.15,772.21Z"/><path class="a3367d90-28af-4468-8c85-1500bb7e4cfa" d="M709.25,717.71c-5.8,2.6-5.6,3.2-9.5,20.8-5.8,26.1-2.7,53.2,2.2,83.8,1.3,8.2,52.4,17,49.7.3-3.6-22.1-16.8-49.6-15.8-61.6,1-12.2,3.6-19.3.4-29-1.2-3.7-4.3-8.6-8.5-10C723,720.41,712.75,716.21,709.25,717.71Z"/><path class="e4cc70d3-2a3e-46dd-a1ed-aff319223ffd" d="M782.65,759.81c.4-.8-.2-1-.4-1.1.3.1,2.2.4,2.6-.4.6-1.3-.8-1.5-1.1-1.8.4.1,2.3.4,2.6-.6.4-1.2-3.2-1.8-3.2-1.8s1.7.3,2-.7c.5-1.5-1-2.6-5.8-2.9a29.44,29.44,0,0,0-6.8,1,14.77,14.77,0,0,0-2.1-.1c3.9,2.6,3.8,7.9,1.1,9.1h0a5.79,5.79,0,0,1,1.6.1c1.7.6,1.8.7,4.9.5C780.75,761.61,782.05,760.91,782.65,759.81Z"/><path class="a3367d90-28af-4468-8c85-1500bb7e4cfa" d="M772.15,751.71c-6.6-2.3-14.3-1-24.3-3.4-6.6-1.5-8.2-4.8-14.1-19.2-3.3-8-14.8.3-12.7,5.6,8,19.7,14.8,22.3,22.2,24.3,6.5,1.7,23.1,1,27,1.7C774.35,761.51,777,752.91,772.15,751.71Z"/><path class="e4cc70d3-2a3e-46dd-a1ed-aff319223ffd" d="M726.05,714.71c0,1.7-2.1,5.7,1.5,7.1a19.84,19.84,0,0,1-15.6-3c2.6-.2,6.4-1,7.5-12.3C720,701.81,726.05,711.91,726.05,714.71Z"/><path class="e4cc70d3-2a3e-46dd-a1ed-aff319223ffd" d="M719.35,705.31c-.1,5,4.5,11.1,8.7,11.2s6-6.1,6.4-11-3.3-9.2-7.5-9.2S719.45,700.31,719.35,705.31Z"/><path class="b9027213-c86e-4c55-aa0c-4aee846e9702" d="M719.25,708.21c3.5,6.5,7.1,1.3,7.7.2s0-1.7,3.5-1,4.9-3.8,3.4-7-3.7-8.4-13-1.7c0,0-2.3-5.9-7.1-4.5-8.7,2.6-8.3,14.6-.5,15.4A8.49,8.49,0,0,0,719.25,708.21Z"/><path class="e4cc70d3-2a3e-46dd-a1ed-aff319223ffd" d="M729,710.91h0a1.54,1.54,0,0,0,1.5-1.5v-2.1a1.54,1.54,0,0,0-1.5-1.5h0a1.54,1.54,0,0,0-1.5,1.5v2.1A1.42,1.42,0,0,0,729,710.91Z"/><path class="fb21964b-fb13-4d67-b5c5-57b9ce0def1a" d="M976.15,461c15.7-16.5,25.8-34.9,29-54.4v6.2c-3.1,19.5-13.2,37.8-29,54.4V461"/><path class="fb21964b-fb13-4d67-b5c5-57b9ce0def1a" d="M976.15,472.11c15.7-16.5,25.8-34.9,29-54.4v6.1c-3.1,19.5-13.2,37.8-29,54.4v-6.1"/><path class="fb21964b-fb13-4d67-b5c5-57b9ce0def1a" d="M976.15,483.31c15.7-16.5,25.8-34.9,29-54.4V435c-3.1,19.5-13.2,37.8-29,54.4v-6.1"/><path class="fb21964b-fb13-4d67-b5c5-57b9ce0def1a" d="M976.15,507.11c15.7-16.5,25.8-34.9,29-54.4v6.2c-3.1,19.5-13.2,37.8-29,54.4v-6.2"/><path class="fb21964b-fb13-4d67-b5c5-57b9ce0def1a" d="M976.15,518.21c15.7-16.5,25.8-34.9,29-54.4V470c-3.1,19.5-13.2,37.8-29,54.4v-6.2"/><path class="fb21964b-fb13-4d67-b5c5-57b9ce0def1a" d="M987.25,516.11c9.4-12.9,15.5-26.7,17.9-41.1v6.2c-2.3,14.4-8.5,28.2-17.9,41.1v-6.2"/><path class="fb21964b-fb13-4d67-b5c5-57b9ce0def1a" d="M976.15,563.41c15.7-16.5,25.8-34.9,29-54.4v6.2c-3.1,19.5-13.2,37.8-29,54.4v-6.2"/><path class="fb21964b-fb13-4d67-b5c5-57b9ce0def1a" d="M976.15,574.61c15.7-16.5,25.8-34.9,29-54.4v6.2c-3.1,19.5-13.2,37.8-29,54.4v-6.2"/><path class="fb21964b-fb13-4d67-b5c5-57b9ce0def1a" d="M987.25,572.41c9.4-12.9,15.5-26.7,17.9-41.1v6.2c-2.3,14.4-8.5,28.2-17.9,41.1v-6.2"/></svg>