<?xml version="1.0"?>
<svg xmlns="http://www.w3.org/2000/svg" viewBox="0 0 64 64" width="512" height="512"><g id="Idea"><path d="M43.335,16.33a16.8647,16.8647,0,0,0-13.2745-4.2227A16.99,16.99,0,0,0,24,43.9824V54a2.002,2.002,0,0,0,2,2h2v2a2.002,2.002,0,0,0,2,2h4a2.002,2.002,0,0,0,2-2V56h2a2.002,2.002,0,0,0,2-2V43.9829A16.984,16.984,0,0,0,43.335,16.33ZM38,48v2H26V48ZM34.0015,58H30V56h4.0005ZM35,54H26V52H38v2Zm3.5615-11.5278A.999.999,0,0,0,38,43.3706V46H33V41.4141l2.707-2.7071a1,1,0,0,0-1.414-1.414L32,39.5859,29.707,37.293a1,1,0,0,0-1.414,1.414L31,41.4141V46H26V43.3706a.999.999,0,0,0-.5615-.8984,14.99,14.99,0,0,1,4.8428-28.3765,15.7245,15.7245,0,0,1,1.7392-.0972A14.8281,14.8281,0,0,1,42.001,17.82a14.9848,14.9848,0,0,1-3.4395,24.6519Z"/><path d="M32,10a1,1,0,0,0,1-1V5a1,1,0,0,0-2,0V9A1,1,0,0,0,32,10Z"/><path d="M17.1509,15.5649a1,1,0,1,0,1.414-1.414l-2.8286-2.8286a1,1,0,1,0-1.414,1.414Z"/><path d="M12,28H8a1,1,0,0,0,0,2h4a1,1,0,0,0,0-2Z"/><path d="M17.1509,42.4351l-2.8286,2.8286a1,1,0,1,0,1.414,1.414l2.8286-2.8286a1,1,0,0,0-1.414-1.414Z"/><path d="M48.2637,11.3223l-2.8286,2.8286a1,1,0,1,0,1.414,1.414l2.8286-2.8286a1,1,0,1,0-1.414-1.414Z"/><path d="M46.8491,42.4351a1,1,0,0,0-1.414,1.414l2.8286,2.8286a1,1,0,0,0,1.414-1.414Z"/><path d="M56,28H52a1,1,0,0,0,0,2h4a1,1,0,0,0,0-2Z"/></g></svg>
