<svg id="b061baa6-a800-4ce0-9eef-6099593887e7" data-name="Layer 1" xmlns="http://www.w3.org/2000/svg" xmlns:xlink="http://www.w3.org/1999/xlink" viewBox="0 0 728.8 537.55"><defs><linearGradient id="eff11d2f-9054-4909-a604-85aa3637502d" x1="118.7" y1="496.44" x2="118.7" y2="471.01" gradientTransform="translate(0 -37.18)" gradientUnits="userSpaceOnUse"><stop offset="0" stop-color="#98d0e1"/><stop offset="1"/></linearGradient><linearGradient id="af0cf62b-c4a3-43f7-a14f-63dda9b6c66d" x1="112.74" y1="504.98" x2="119.39" y2="504.98" xlink:href="#eff11d2f-9054-4909-a604-85aa3637502d"/><linearGradient id="bdb83edb-027e-4971-9449-329415e3a15b" x1="112.74" y1="506.18" x2="119.39" y2="506.18" xlink:href="#eff11d2f-9054-4909-a604-85aa3637502d"/><linearGradient id="f83ee23e-efd3-42c4-8dfc-644cf4eeb08e" x1="112.74" y1="508.88" x2="119.39" y2="508.88" xlink:href="#eff11d2f-9054-4909-a604-85aa3637502d"/><linearGradient id="fc67880e-b4ca-4dea-b2cc-e72330c9ae76" x1="112.74" y1="510.03" x2="119.39" y2="510.03" xlink:href="#eff11d2f-9054-4909-a604-85aa3637502d"/><linearGradient id="ad8d7f84-41b5-44a1-a6c5-e4da8b5a4bae" x1="112.74" y1="512.73" x2="119.39" y2="512.73" xlink:href="#eff11d2f-9054-4909-a604-85aa3637502d"/><linearGradient id="b9b232e4-e8e7-4017-9b77-24815217e1a8" x1="112.74" y1="513.88" x2="119.39" y2="513.88" xlink:href="#eff11d2f-9054-4909-a604-85aa3637502d"/><linearGradient id="fd2d546a-dec1-42ee-93b8-a0d6e49a6f02" x1="112.74" y1="516.58" x2="119.39" y2="516.58" xlink:href="#eff11d2f-9054-4909-a604-85aa3637502d"/><linearGradient id="abd1be3a-c334-40fe-b17f-21a8ccdcfdb1" x1="112.74" y1="517.73" x2="119.39" y2="517.73" xlink:href="#eff11d2f-9054-4909-a604-85aa3637502d"/><linearGradient id="f7595ad9-9371-452f-bfda-2db66649a73b" x1="117.9" y1="504.72" x2="117.9" y2="478.38" gradientTransform="translate(0 -37.18)" gradientUnits="userSpaceOnUse"><stop offset="0.29" stop-color="#98d0e1"/><stop offset="1"/></linearGradient><linearGradient id="eacd37ff-6b5d-4fc5-832b-e69139457b8d" x1="105.1" y1="497.34" x2="105.1" y2="471.01" xlink:href="#eff11d2f-9054-4909-a604-85aa3637502d"/><linearGradient id="a1e77024-4c34-43bc-bcc3-83b0aaf6d44c" x1="104.3" y1="504.72" x2="104.3" y2="479.29" xlink:href="#eff11d2f-9054-4909-a604-85aa3637502d"/><linearGradient id="a5e98399-c31e-4995-9cfc-162febad1de5" x1="245.75" y1="502.38" x2="245.75" y2="476.95" xlink:href="#eff11d2f-9054-4909-a604-85aa3637502d"/><linearGradient id="e8e75351-6093-459a-a756-37b0980eb799" x1="239.8" y1="510.98" x2="246.45" y2="510.98" xlink:href="#eff11d2f-9054-4909-a604-85aa3637502d"/><linearGradient id="acf530ea-8b68-4510-8526-65030e8f7efc" x1="239.8" y1="512.13" x2="246.45" y2="512.13" xlink:href="#eff11d2f-9054-4909-a604-85aa3637502d"/><linearGradient id="a78c76cf-14fc-433f-a77a-7ac00cb296e8" x1="239.8" y1="514.83" x2="246.45" y2="514.83" xlink:href="#eff11d2f-9054-4909-a604-85aa3637502d"/><linearGradient id="f76c54ae-4443-42f8-843d-a5fa86d4b888" x1="239.8" y1="515.98" x2="246.45" y2="515.98" xlink:href="#eff11d2f-9054-4909-a604-85aa3637502d"/><linearGradient id="b4a21ab9-2505-440a-8919-698ac0720e94" x1="239.8" y1="518.73" x2="246.45" y2="518.73" xlink:href="#eff11d2f-9054-4909-a604-85aa3637502d"/><linearGradient id="be49e355-bdec-4671-8fad-b4bebd08b025" x1="239.8" y1="519.88" x2="246.45" y2="519.88" xlink:href="#eff11d2f-9054-4909-a604-85aa3637502d"/><linearGradient id="b7d26b24-9958-4666-9c6f-b86b0c1f81ea" x1="239.8" y1="522.53" x2="246.45" y2="522.53" xlink:href="#eff11d2f-9054-4909-a604-85aa3637502d"/><linearGradient id="b921deae-ab39-4f7c-87d8-3c9c87cb06d6" x1="239.8" y1="523.73" x2="246.45" y2="523.73" xlink:href="#eff11d2f-9054-4909-a604-85aa3637502d"/><linearGradient id="ba46ba73-54ba-43a6-9296-5eee32bf675b" x1="244.95" y1="510.65" x2="244.95" y2="484.32" xlink:href="#f7595ad9-9371-452f-bfda-2db66649a73b"/><linearGradient id="b84c5af8-1315-4d21-8257-1a3eec0ee575" x1="232.2" y1="503.28" x2="232.2" y2="476.94" xlink:href="#eff11d2f-9054-4909-a604-85aa3637502d"/><linearGradient id="f266a8bb-ee8a-40f8-bee9-162c650bb2e4" x1="231.4" y1="510.65" x2="231.4" y2="485.22" xlink:href="#eff11d2f-9054-4909-a604-85aa3637502d"/></defs><g id="f042a8cd-9918-4008-bb9e-d0ec615b6796" data-name="be970980-f405-4368-9da9-f621ebab2db1"><polygon points="185.9 348 182.2 347 182.2 350.6 185.9 348" style="fill:#22b573;opacity:0.10000000149011612;isolation:isolate"/><path d="M257.7,242.7l-53.6-30.4a11.72,11.72,0,0,1-5.9-10.1V111h.2v91.2a11.43,11.43,0,0,0,5.8,9.9l53.6,30.4Z" transform="translate(0 167.6)" style="fill:#070b3b"/><path d="M176.3,325l-.1-.2,34.2-19.7a11.36,11.36,0,0,0,0-19.7L147.3,249a11.59,11.59,0,0,1-4.2-15.8,11.29,11.29,0,0,1,4.2-4.2L179,210.6a11.29,11.29,0,0,0,5.6-9.8V110.5h.2v90.3a11.59,11.59,0,0,1-5.8,10l-31.7,18.4a11.29,11.29,0,0,0-4.1,15.5,11.51,11.51,0,0,0,4.1,4.1l63.1,36.4a11.59,11.59,0,0,1,4.2,15.8,11.29,11.29,0,0,1-4.2,4.2Z" transform="translate(0 167.6)" style="fill:#070b3b"/><path d="M81,257.4l-.1-.2,80.7-47a11.29,11.29,0,0,0,5.6-9.8V107.8h.2v92.6a11.59,11.59,0,0,1-5.8,10Z" transform="translate(0 167.6)" style="fill:#070b3b"/><path d="M246.3,63.4a52.93,52.93,0,0,0-101.6-6.9,19.65,19.65,0,0,0-25,12.5,19.32,19.32,0,0,0-1,6.3,18.41,18.41,0,0,0,.3,3.3,24.69,24.69,0,0,0-5.4-.5,26.3,26.3,0,0,0,0,52.6h132a33.65,33.65,0,0,0,.7-67.3Z" transform="translate(0 167.6)" style="fill:#a8e3f7;opacity:0.8600000143051147;isolation:isolate"/><path d="M106,106.6c0-12,7.4-21,18.9-21h.8a21.44,21.44,0,1,0-7.6,42.2c.2,0,.3.1.5.1C110.2,125.1,106,116.3,106,106.6Z" transform="translate(0 167.6)" style="fill:#4aa4c2;opacity:0.5;isolation:isolate"/><path d="M263,94.3c0-15-6.3-27.3-30.4-27.1-2.4-22.6-19.1-39.6-39.9-39.6-14.2,0-27.1,10.7-35,21.3a43,43,0,0,1,73.8,20,27.4,27.4,0,0,1,20.4,45C257.8,109,263,102.6,263,94.3Z" transform="translate(0 167.6)" style="fill:#4aa4c2;opacity:0.5;isolation:isolate"/><g style="opacity:0.5"><path d="M145.4,59.8a19.42,19.42,0,0,0-2.4-.2c-5,0-10.6,2.4-13.4,7a20.05,20.05,0,0,0-2.2,15.5c.1,0,.5.7.6.8a29.84,29.84,0,0,1-.4-4.2A18.54,18.54,0,0,1,145.4,59.8Z" transform="translate(0 167.6)" style="fill:#fff;opacity:0.5;isolation:isolate"/></g><path d="M176.1,114.3s-12.3-15.4-4-31.9,26.5-22.2,46.1-9.8c0,0-29.1-11.2-39.9,9.4S176.1,114.3,176.1,114.3Z" transform="translate(0 167.6)" style="fill:#4aa4c2;opacity:0.5;isolation:isolate"/><polygon points="181.4 516 181.3 516 65.5 449.2 65.6 449 181.4 515.7 291.5 452.3 291.6 452.5 181.4 516" style="fill:#070b3b"/><polygon points="126.8 305 126.4 304.4 126.6 304.3 126.8 304.6 127 304.3 127.2 304.5 126.8 305" style="fill:#070b3b"/><path d="M127.8,136.1l-.2-.1.6-.8.2.1Zm1.2-1.6-.2-.1.6-.8.2.1Zm1.2-1.6-.2-.1.6-.8.2.1Zm1.2-1.6-.2-.1.6-.8.2.1Zm1.1-1.6-.2-.1.6-.8.2.1Zm1.2-1.6-.2-.1.6-.8.2.1Zm1.2-1.6-.2-.1.6-.8.2.1Zm1.2-1.6-.2-.1.6-.8.2.1Zm1.2-1.6-.2-.1.6-.8.2.1Zm1.2-1.6-.2-.1.6-.8.2.1Zm1.2-1.6-.2-.1.6-.8.2.1Zm1.2-1.6-.2-.1.6-.8.2.1Zm1.2-1.6-.2-.1.6-.8.2.1Zm1.2-1.6-.2-.1.6-.8.2.1Zm1.2-1.6-.2-.1.6-.8.2.1Zm1.2-1.6-.2-.1.6-.8.2.1Zm1.2-1.6-.2-.1.6-.8.2.1Zm1.2-1.6-.2-.1.6-.8.2.1Zm1.2-1.6-.2-.1.6-.8.2.1Zm1.2-1.6-.2-.1.6-.8.2.1Zm1.1-1.6-.2-.1.6-.8.2.1Zm1.2-1.6-.2-.1.6-.8.2.1Zm1.2-1.6-.2-.1.6-.8.2.1Zm1.2-1.6-.2-.1.6-.8.2.1Zm1.2-1.6-.2-.1.6-.8.2.1Zm1.2-1.6-.2-.1.6-.8.2.1Zm1.2-1.6-.2-.1.6-.8.2.1Zm1.2-1.6-.2-.1.6-.8.2.1Zm1.2-1.5-.2-.2.7-.7.2.2Zm1.4-1.5-.2-.2.7-.7.2.2Zm1.3-1.4-.2-.2.7-.7.2.2Zm1.4-1.5-.2-.2.7-.7.2.2Zm1.4-1.5-.2-.2.7-.7.2.2Zm1.3-1.4-.2-.2.7-.7.2.2Zm1.4-1.5-.2-.2.7-.7.2.2Zm1.4-1.4-.2-.2.7-.7.2.2Zm1.3-1.5-.2-.2.7-.7.2.2Zm1.4-1.4-.2-.2.7-.7.2.2Zm1.4-1.5-.2-.2.7-.7.2.2Zm1.3-1.4-.2-.2.7-.7.2.2Zm1.4-1.5-.2-.2.7-.7.2.2Zm1.4-1.4-.2-.2.7-.7.2.2Zm1.3-1.5-.2-.2.7-.7.2.2Zm1.4-1.4-.2-.2.7-.7.2.2Zm1.4-1.5-.2-.2.7-.7.2.2Zm1.3-1.4-.2-.2.7-.7.2.2Zm1.4-1.5-.2-.2.7-.7.2.2Zm1.4-1.4-.2-.2.7-.7.2.2Zm1.3-1.5-.2-.2.7-.7.2.2Zm1.4-1.5-.2-.2.7-.7.2.2Zm1.4-1.4-.2-.2.7-.7.2.2Zm1.3-1.5-.2-.2.7-.7.2.2Zm1.4-1.4-.2-.2.7-.7.2.2Zm1.4-1.5-.2-.2.7-.7.2.2Zm1.3-1.4-.2-.2.7-.7.2.2Z" transform="translate(0 167.6)" style="fill:#4aa4c2"/><polygon points="198.1 219.7 197.9 219.6 198.1 219.3 197.8 219.2 197.9 219 198.6 219.2 198.1 219.7" style="fill:#070b3b"/><path d="M196.9,51.3,196,51l.1-.2.9.3Zm-1.9-.7-.9-.3.1-.2.9.3Zm-1.9-.6-.9-.3.1-.2.9.3Zm-1.9-.7-.9-.3.1-.2.9.3Zm-1.9-.7-.9-.3.1-.2.9.3Zm-1.8-.6-.9-.3.1-.2,1,.3Zm-1.9-.7-.9-.3.1-.2.9.3Zm-1.9-.7-.9-.3.1-.2.9.3Zm-1.9-.6-.9-.3.1-.3.9.3Zm-1.9-.7L179,45l.1-.2.9.3Zm-1.8-.7-.9-.3.1-.2.9.4v.1Zm-1.9-.6-.9-.3.1-.2,1,.3Zm-1.9-.7-.9-.3.1-.2.9.3Zm-1.8-.7-.9-.3.1-.2.9.3Zm-1.9-.6-.9-.3.1-.2,1,.3Zm-1.9-.7-.9-.3.1-.2.9.3Zm-1.9-.7-1-.3.1-.2.9.3Zm-1.9-.6-.9-.3.1-.2,1,.3Zm-1.9-.7-.9-.3.1-.2.9.3Zm-1.9-.7-1-.3.1-.2.9.3Zm-1.9-.6-.9-.3.1-.2,1,.3Zm-1.9-.7-.9-.3.1-.2.9.3Zm-1.8-.7-1-.3.1-.2.9.3Zm-1.9-.6-.9-.3.1-.2.9.3Zm-1.9-.7-.9-.3.1-.2.9.3Zm-1.9-.7-1-.3.1-.2.9.3Zm-1.9-.6-.9-.3.1-.2.9.3Zm-1.9-.7-.9-.3.1-.2.9.3Zm-1.8-.7-.9-.3.1-.2.9.3Zm-1.9-.6-.9-.3.1-.2.9.3Z" transform="translate(0 167.6)" style="fill:#070b3b"/><polygon points="139.7 199.1 139.5 198.9 139.9 198.5 140.5 198.7 140.4 198.9 140 198.8 139.7 199.1" style="fill:#070b3b"/><path d="M91,80.3l-.2-.2.7-.7.2.2Zm1.4-1.4-.2-.2.7-.7.2.2Zm1.3-1.4-.1-.1.7-.7.2.2Zm1.4-1.4L95,76l.7-.7.2.2Zm1.4-1.4-.2-.2.7-.7.2.2Zm1.4-1.4-.2-.2.7-.7.2.2ZM99.3,72l-.2-.2.7-.7.2.2Zm1.4-1.4-.2-.2.7-.7.2.2Zm1.4-1.4-.2-.2.7-.7.2.2Zm1.4-1.4-.2-.2.7-.7.2.2Zm1.4-1.4-.2-.2.7-.7.2.2Zm1.4-1.4-.2-.2.7-.7.2.2Zm1.4-1.4-.2-.2.7-.7.2.2Zm1.4-1.4-.2-.2.7-.7.2.2Zm1.4-1.4-.2-.2.7-.7.2.2Zm1.3-1.4-.2-.2.7-.7.2.2Zm1.4-1.4-.2-.2.7-.7.2.2Zm1.4-1.4-.2-.2.7-.7.2.2Zm1.4-1.4-.2-.2.7-.7.2.2Zm1.4-1.4-.2-.2.7-.7.2.2Zm1.4-1.4-.2-.2.7-.7.2.2Zm1.4-1.4-.2-.2.7-.7.2.2Zm1.4-1.4-.2-.2.7-.7.2.2Zm1.4-1.4-.2-.2.7-.7.2.2Zm1.4-1.4-.2-.2.7-.7.2.2Zm1.4-1.4-.2-.2.7-.7.2.2Zm1.4-1.4-.2-.2.7-.7.2.2Zm1.4-1.4-.2-.2.7-.7.2.2Zm1.4-1.4-.2-.2.7-.7.2.2Zm1.3-1.4-.2-.2.7-.7.2.2Zm1.4-1.4-.2-.2.7-.7.2.2Zm1.4-1.3-.2-.2.7-.7.2.2Zm1.4-1.4-.2-.2.7-.7.2.2Zm1.4-1.4-.2-.2.7-.7.2.2Zm1.4-1.4-.2-.2.7-.7.2.2Z" transform="translate(0 167.6)" style="fill:#070b3b"/><polygon points="90 249.4 89.7 248.9 90.1 248.5 90.3 248.6 90 248.9 90.2 249.2 90 249.4" style="fill:#070b3b"/><path d="M125.8,136l-.5-.8.2-.1.5.8Zm-1-1.6-.6-.8.2-.1.6.8Zm-1.1-1.6-.5-.8.2-.1.5.8Zm-1.1-1.7-.5-.8.2-.1.5.8Zm-1.1-1.7-.6-.8.2-.1.6.8Zm-1.1-1.6-.5-.8.2-.1.5.8Zm-1.1-1.7-.5-.8.2-.1.5.8Zm-1.1-1.6-.6-.8.2-.1.6.8Zm-1-1.7-.5-.8.2-.1.5.8Zm-1.1-1.6-.5-.8.2-.1.5.8Zm-1.1-1.6-.6-.8.2-.1.6.8Zm-1.1-1.7-.5-.8.2-.1.5.8Zm-1.1-1.6-.5-.8.2-.1.5.8Zm-1-1.7-.5-.8.2-.1.6.8Zm-1.1-1.6-.5-.8.2-.1.5.8Zm-1.1-1.6-.6-.8.2-.1.5.8Zm-1.1-1.7-.5-.8.2-.1.6.8Zm-1.1-1.6-.5-.8.2-.1.5.8Zm-1.1-1.7-.6-.8.2-.1.5.8Zm-1.1-1.6-.5-.8.2-.1.6.8Zm-1.1-1.7-.5-.8.2-.1.5.8Zm-1.1-1.6-.6-.8.2-.1.5.8Zm-1.1-1.6-.5-.8.2-.1.6.8Zm-1.1-1.7-.5-.8.2-.1.5.8Zm-1-1.6-.6-.8.2-.1.5.8Zm-1.1-1.7-.5-.8.2-.1.6.8Zm-1.1-1.6-.5-.9.2-.1.5.8Zm-1.1-1.7-.5-.8.2-.1.6.8ZM95.4,90l-.5-.8.2-.1.5.8Zm-1.1-1.6-.5-.8.2-.2.5.8Zm-1.1-1.7-.6-.8.2-.1.6.8Zm-1-1.6-.5-.8.2-.1.5.8Zm-1.1-1.7-.5-.8.2-.1.5.8Z" transform="translate(0 167.6)" style="fill:#070b3b"/><polygon points="160.7 259.5 160.5 259.4 160.9 258.9 161.4 259.2 161.3 259.4 161 259.2 160.7 259.5" style="fill:#070b3b"/><path d="M229.5,130.6l-.9-.5.1-.2.9.5Zm-1.7-1-.9-.5.1-.2.9.5Zm-1.8-1-.9-.5.1-.2.9.5Zm-1.7-1-.9-.5.1-.2.9.5Zm-1.8-1-.9-.5.1-.2.9.5Zm-1.7-1-.9-.5.1-.2.9.5Zm-1.7-1-.9-.5.1-.2.9.5Zm-1.8-1-.9-.5.1-.2.9.5Zm-1.7-1-.9-.5.1-.2.9.5Zm-1.8-1-.9-.5.1-.2.9.5Zm-1.7-1-.9-.5.1-.2.9.5Zm-1.8-1-.9-.5.1-.2.9.5Zm-1.7-1-.9-.5.1-.2.9.5Zm-1.8-1-.9-.5.1-.2.9.5Zm-1.7-1-.9-.5.1-.2.9.5Zm-1.8-1-.9-.5.1-.2.9.5Zm-1.7-1-.9-.5.1-.2.9.5Zm-1.8-1-.9-.5.1-.2.9.5Zm-1.7-1-.9-.5.1-.2.9.5Zm-1.8-1-.9-.5.1-.2.9.5Zm-1.7-1-.9-.5.1-.2.9.5Zm-1.8-1-.9-.5.1-.2.9.5Zm-1.7-1-.9-.5.1-.2.9.5Zm-1.8-1-.9-.5.1-.2.9.5Zm-1.7-1-.9-.5.1-.2.9.5Zm-1.8-1-.9-.5.1-.2.9.5Zm-1.7-1-.9-.5.1-.2.9.5Zm-1.8-1-.9-.5.1-.2.9.5Zm-1.7-1-.9-.5.1-.2.9.5Zm-1.8-1-.9-.5.1-.2.9.5Zm-1.7-1-.9-.5.1-.2.9.5Zm-1.8-1-.9-.5.1-.2.9.5Zm-1.7-1-.9-.5.1-.2.9.5Zm-1.8-1-.9-.5.1-.2.9.5Zm-1.7-1-.9-.5.1-.2.9.5Zm-1.8-1-.9-.5.1-.2.9.5Zm-1.7-1-.9-.5.1-.2.9.5Zm-1.8-1-.9-.5.1-.2.9.5Zm-1.7-1-.9-.5.1-.2.9.5Z" transform="translate(0 167.6)" style="fill:#070b3b"/><polygon points="230.4 299 230.4 298.8 230.5 298.8 230.4 298.7 230.5 298.5 231.3 299 230.4 299" style="fill:#070b3b"/><path d="M128.3,137.2V137l1-.1v.2Zm2-.1v-.2l1-.1v.2Zm2-.1v-.2l1-.1v.2Zm2-.1v-.2l1-.1v.2Zm2-.1v-.2l1-.1v.2Zm2-.1v-.3l1-.1v.2Zm2-.2v-.2l1-.1v.2Zm2-.1v-.2l1-.1v.2Zm2-.1v-.2l1-.1v.2Zm2-.1V136l1-.1v.2Zm2-.1v-.2l1-.1v.2Zm2-.1v-.2l1-.1v.2Zm2-.1v-.2l1-.1v.2Zm2-.2v-.2l1-.1v.2Zm2-.1v-.2h1v.2Zm2-.1v-.2l1-.1v.2Zm2-.1v-.2l1-.1v.2Zm2-.1v-.2l1-.1v.2Zm2-.1V135l1-.1v.2Zm2-.1v-.2h1v.2Zm2-.2v-.2l1-.1v.2Zm2-.1v-.2l1-.1v.2Zm2-.1v-.2h1v.2Zm2-.1v-.2l1-.1v.2Zm2-.1v-.2l1-.1v.2Zm2-.1v-.2l1-.1v.2Zm2-.1v-.2l1-.1v.2Zm2-.2v-.2l1-.1v.2Zm2-.1v-.2l1-.1v.2Zm2-.1v-.2l1-.1v.2Zm2-.1v-.2l1-.1v.2Zm2-.1v-.3l1-.1v.2Zm2-.1v-.2l1-.1v.2Zm2-.1v-.2l1-.1v.3Zm2-.2v-.2h1v.2Zm2-.1V133l1-.1v.2Zm2-.1v-.2l1-.1v.2Zm2-.1v-.2l1-.1v.2Zm2-.1v-.2l1-.1v.2Zm2-.1v-.2h1v.2Zm2-.1v-.3l1-.1v.2Zm2-.1v-.2l1-.1v.2Zm2-.2v-.2h1v.2Zm2-.1v-.2l1-.1v.2Zm2-.1V132l1-.1v.2Zm2-.1v-.2l1-.1v.2Zm2-.1v-.2l1-.1v.2Zm2-.1v-.2l1-.1v.2Zm2-.1v-.2l1-.1v.2Zm2-.2v-.2l1-.1v.2Zm2-.1v-.2l1-.1v.2Z" transform="translate(0 167.6)" style="fill:#070b3b"/><polygon points="126.5 304.9 127 304.3 127.2 304.5 127 304.6 127.3 304.6 127.3 304.9 126.5 304.9" style="fill:#070b3b"/><path d="M127.8,136.1l-.2-.1.6-.8.2.1Zm1.1-1.6-.2-.1.6-.8.2.1Zm1.2-1.6-.2-.1.6-.8.2.1Zm1.2-1.6-.2-.1.6-.8.2.1Zm1.2-1.5-.2-.1.6-.8.2.1Zm1.2-1.6-.2-.1.6-.8.2.1Zm1.1-1.6-.2-.1.6-.8.2.1ZM136,125l-.2-.1.6-.8.2.1Zm1.2-1.5-.2-.1.6-.8.2.1Zm1.2-1.6-.2-.1.6-.8.2.1Zm1.1-1.6-.2-.1.6-.8.2.1Zm1.2-1.6-.2-.1.6-.8.2.1Zm1.2-1.5-.2-.1.6-.8.2.1Zm1.2-1.6-.2-.1.6-.8.2.1Zm1.2-1.6-.2-.1.6-.8.2.1Zm1.1-1.6-.2-.1.6-.8.2.1Zm1.2-1.5-.2-.1.6-.8.2.1Zm1.2-1.6-.2-.1.6-.8.2.1Zm1.2-1.6-.2-.1.6-.8.2.1Zm1.1-1.6-.2-.1.6-.8.2.1Zm1.2-1.5-.2-.1.6-.8.2.1Zm1.2-1.6-.2-.1.6-.8.2.1Zm1.1-1.6-.2-.1.7-.8.2.1Zm1.2-1.6-.2-.1.6-.8.2.1Zm1.2-1.6-.2-.1.6-.8.2.1Zm1.2-1.5-.2-.1.6-.8.2.1Zm1.1-1.6-.2-.1.6-.8.2.1Zm1.2-1.6-.2-.1.6-.8.2.1Z" transform="translate(0 167.6)" style="fill:#070b3b"/><polygon points="230.8 299.1 230.8 298.4 231 298.3 231 298.6 231.2 298.4 231.4 298.6 230.8 299.1" style="fill:#070b3b"/><path d="M232.1,130.3l-.2-.2.7-.7.2.2Zm1.5-1.4-.2-.2.7-.7.2.2Zm1.5-1.4-.2-.2.7-.7.2.2Zm1.4-1.4-.2-.2.7-.7.2.2Zm1.5-1.4-.2-.2.7-.7.2.2Zm1.5-1.4-.2-.2.7-.7.2.2Zm1.5-1.4-.2-.2.7-.7.2.2Zm1.4-1.4-.2-.2.7-.7.2.2Zm1.5-1.4-.2-.2.7-.7.2.2Zm1.5-1.4-.2-.2.7-.7.2.2Zm1.5-1.3-.2-.2.7-.7.2.2Zm1.4-1.4-.2-.2.7-.7.2.2Zm1.5-1.4-.2-.2.7-.7.2.2Zm1.5-1.4-.2-.2.7-.7.2.2Zm1.5-1.4-.2-.2.7-.7.2.2Zm1.4-1.4-.2-.2.7-.7.2.2Zm1.5-1.4-.2-.2.7-.7.2.2Zm1.5-1.4-.2-.2.7-.7.2.2Zm1.5-1.4-.2-.2.7-.7.2.2Zm1.4-1.4-.2-.2.7-.7.2.2Zm1.5-1.4-.2-.2.7-.7.2.2Zm1.5-1.4-.2-.2.7-.7.2.2Zm1.4-1.4-.2-.2.7-.7.2.2Zm1.5-1.4-.2-.2.7-.7.2.2Zm1.5-1.4-.2-.2.7-.7.2.2Zm1.5-1.4-.2-.2.7-.7.2.2Z" transform="translate(0 167.6)" style="fill:#070b3b"/><polygon points="270.4 261.6 270.3 261.4 270.6 261.2 270.5 260.7 270.7 260.7 270.9 261.2 270.4 261.6" style="fill:#070b3b"/><path d="M270.2,92.2l-.3-.9.2-.1.3.9Zm-.5-1.9-.3-.9.2-.1.3.9Zm-.6-1.9-.3-.9.2-.1.3,1Zm-.5-1.9-.3-1,.2-.1.3,1Zm-.6-1.9-.3-1,.2-.1.3,1Zm-.5-2-.3-1,.2-.1.3,1Zm-.6-1.9-.3-1,.2-.1.3,1Zm-.5-1.9-.3-1,.2-.1.3,1Zm-.6-1.9-.3-.9.2-.1.3,1Zm-.5-1.9-.3-1,.2-.1.3,1Zm-.6-1.9-.3-1,.2-.1.3.9Zm-.5-1.9-.3-1,.2-.1.3,1Zm-.5-1.9-.3-.9.2-.1.3,1Zm-.6-1.9-.3-1,.2-.1.3,1Zm-.5-1.9-.3-1,.2-.1.3,1Zm-.6-1.9-.3-1,.2-.1.3,1Zm-.5-1.9-.3-1,.2-.1.3,1Zm-.6-1.9-.3-1,.2-.1.3.9Zm-.5-1.9-.3-1,.2-.1.3,1Zm-.6-1.9-.3-.9.2-.1.3,1Zm-.5-1.9-.3-1,.2-.1.3,1Zm-.6-2-.3-1,.2-.1.3,1Z" transform="translate(0 167.6)" style="fill:#070b3b"/><polygon points="258.2 217.8 258.1 217.4 257.7 217.4 257.7 217.2 258.3 217.1 258.5 217.7 258.2 217.8" style="fill:#070b3b"/><path d="M199.9,51.8v-.2h1v.2Zm2-.1v-.3h1v.2Zm2-.1v-.2h1v.2Zm2,0v-.2h1v.2Zm2-.1v-.2h1v.1Zm2-.1v-.2h1v.2Zm2,0v-.2h1v.2Zm2-.1v-.2h1v.2Zm2-.1V51h1v.2Zm2,0V51h1v.2Zm2-.1v-.2h1v.2Zm2-.1v-.2h1V51Zm2,0v-.2h1V51Zm2-.1v-.2h1v.2Zm2-.1v-.2h1v.2Zm2,0v-.2h1v.2Zm2-.1v-.3h1v.2Zm2-.1v-.2h1v.2Zm2,0v-.2h1v.2Zm2-.1v-.2h1v.1Zm2-.1v-.2h1v.2Zm2,0v-.2h1v.2Zm2-.1v-.2h1v.2Zm2-.1V50h1v.2Zm2,0V50h1v.2Zm2-.1v-.2h1v.2Zm2-.1v-.2h1V50Zm2,0v-.2h1V50Zm2-.1v-.2h1v.2Z" transform="translate(0 167.6)" style="fill:#070b3b"/><polygon points="198.6 219.7 198.1 219.2 198.8 219.1 198.9 219.4 198.6 219.4 198.8 219.6 198.6 219.7" style="fill:#070b3b"/><path d="M230.7,129.8l-.1-1h.2l.1,1Zm-.2-2-.1-1h.2l.1,1Zm-.2-2-.1-1h.2l.1,1Zm-.1-2-.1-1h.2l.1,1Zm-.2-2-.1-1h.2l.1,1Zm-.2-2-.1-1h.2l.1,1Zm-.1-2-.1-1h.2l.1,1Zm-.2-2-.1-1h.2l.1,1Zm-.2-2-.1-1h.2l.1,1Zm-.2-2-.1-1h.2l.1,1Zm-.1-2-.1-1h.2l.1,1Zm-.2-2-.1-1h.2l.1,1Zm-.2-2-.1-1h.2l.1,1Zm-.1-2-.1-1h.2l.1,1Zm-.2-2-.1-1h.2l.1,1Zm-.2-2-.1-1h.2l.1,1Zm-.1-2-.1-1h.2l.1,1Zm-.2-2-.1-1h.2l.1,1Zm-.2-2-.1-1h.2l.1,1Zm-.1-2-.1-1h.2l.1,1Zm-.2-2-.1-1h.2l.1,1Zm-.2-2-.1-1h.2l.1,1Zm-.2-2-.1-1h.2l.1,1Zm-.6-1.8-.7-.8.2-.2.7.8ZM225,82.4l-.7-.8.2-.2.7.8Zm-1.3-1.5-.7-.8.2-.2.7.8Zm-1.3-1.5-.7-.8.2-.2.7.8Zm-1.3-1.5-.7-.8.2-.2.7.8Zm-1.4-1.5-.7-.8.2-.2.7.8Zm-1.3-1.5-.7-.8.2-.2.7.8Zm-1.3-1.5-.7-.8.2-.2.7.8Zm-1.3-1.6-.7-.8.2-.2.7.8Zm-1.3-1.5-.7-.8.2-.1.7.8Zm-1.4-1.5-.7-.8.2-.2.7.8Zm-1.3-1.5-.7-.8.2-.2.7.8Zm-1.3-1.5-.7-.8.2-.2.7.8Zm-1.4-1.5-.7-.8.2-.2.7.8Zm-1.3-1.6-.7-.8.2-.2.7.8Zm-1.3-1.5-.7-.8.2-.2.7.8Zm-1.3-1.5-.7-.8.2-.2.7.8Zm-1.3-1.5-.7-.8.2-.2.7.8Zm-1.4-1.5-.7-.8.2-.2.7.8Zm-1.3-1.5-.7-.8.2-.2.7.8Zm-1.3-1.5-.7-.8.2-.2.7.8Z" transform="translate(0 167.6)" style="fill:#070b3b"/><rect x="270.41" y="93.27" width="0.2" height="0.5" transform="translate(124.02 507.02) rotate(-78.29)" style="fill:#070b3b"/><path d="M269.2,93.4l-1-.2V93l1,.2Zm-2-.4-1-.2v-.2l1,.2Zm-2-.4-1-.2v-.2l1,.2Zm-2-.4-1-.2v-.2l1,.2Zm-2-.4-1-.2v-.2l1,.2Zm-100.4-.2v-.2l1-.1v.2Zm-1-.1-1-.1v-.2l1,.1Zm3-.1v-.2l1-.1v.2Zm96.5,0-1-.2V91l1,.2Zm-94.5-.2V91l1-.1v.2Zm-7,0-1-.1v-.2l1,.1Zm9-.2v-.2l1-.1v.2Zm90.5,0-1-.2v-.2l1,.2Zm-101.5-.1-1-.1v-.2l1,.1Zm13-.1v-.2l1-.1v.2Zm-15-.2-1-.1v-.2l1,.1Zm101.5,0-1-.2v-.2l1,.2Zm-84.5,0v-.2l1-.1v.2Zm2-.2v-.2l1-.1v.2Zm-21,0-1-.1v-.2l1,.1Zm101.5-.1-1-.2v-.2l1,.2Zm-78.5,0v-.2l1-.1v.2Zm-25-.1-1-.1v-.2l1,.1Zm27-.2v-.2l1-.1v.2Zm-29-.1-1-.1v-.2l1,.1Zm103.5,0-1-.2v-.2l1,.2Zm-72.5,0v-.2l1-.1v.2Zm2-.2v-.3l1-.1v.2Zm-35,0-1-.1v-.2l1,.1Zm103.5-.2-1-.2v-.2l1,.2Zm-66.6,0v-.2l1-.1v.2Zm-38.9-.1-1-.1v-.2l1,.1Zm40.9-.1v-.2l1-.1v.2Zm62.6-.1-1-.2v-.2l1,.2Zm-105.5,0-1-.1v-.2l1,.1Zm44.9-.1v-.2l1-.1V89Zm2-.2v-.2l1-.1v.2Zm-48.9,0-1-.1v-.2l1,.1Zm105.6-.1-1-.2v-.2l1,.2ZM191,88.4v-.2l1-.1v.2Zm-52.9-.1-1-.1V88l1,.1Zm54.9-.1V88l1-.1v.2Zm50.7-.1-1-.2v-.2l1,.2Zm-107.6,0-1-.1v-.2l1,.1Zm58.9,0v-.2l1-.1V88Zm2-.2v-.2l1-.1v.2Zm-62.9,0-1-.1v-.2l1,.1Zm107.6-.1-1-.2v-.2l1,.2ZM199,87.7v-.3l1-.1v.2Zm-66.9-.3-1-.1v-.2l1,.1Zm68.9-.1v-.2l1-.1v.2Zm38.7-.1-1-.2v-.2l1,.2Zm-109.6,0-1-.1v-.2l1,.1Zm72.9,0V87l1-.1v.2Zm2-.2v-.2l1-.1v.2Zm-76.9-.1-1-.1v-.2l1,.1Zm109.6,0-1-.2v-.2l1,.2ZM207,86.8v-.2l1-.1v.2Zm-80.9-.2-1-.1v-.2l1,.1Zm82.8-.1v-.2l1-.1v.2Zm26.9-.1-1-.2V86l1,.2Zm-111.7-.1-1-.1V86l1,.1Zm86.8,0v-.2l1-.1v.2Zm2-.2v-.2l1-.1V86Zm-90.8,0-1-.1v-.2l1,.1Zm111.7,0-1-.2v-.2l1,.2ZM214.9,86v-.2l1-.1v.2Zm-94.8-.2-1-.1v-.3l1,.1Zm96.8-.1v-.3l1-.1v.2Zm14.9,0-1-.2v-.2l1,.2Zm-113.7-.2-1-.1v-.2l1,.1Zm100.8,0v-.2l1-.1v.2Zm2-.2v-.2l1-.1v.2Zm8.9,0-1-.2v-.2l1,.2Zm-113.7,0-1-.1V85l1,.1Zm106.8-.1V85l1-.1v.2ZM114.1,85l-1-.1v-.2l1,.1Zm110.8,0v-.2l1-.1v.2Zm3,0-.9-.2h0v-.2h0l1,.2Zm-115.7-.2-1-.1v-.3l1,.1Zm-2-.3-1-.1v-.2l1,.1Zm-2-.3-1-.1v-.2l1,.1Zm-2-.3-1-.1v-.2l1,.1Zm-2-.3-1-.1v-.2l1,.1Zm-2-.3-1-.1V83l1,.1Zm-2-.2-1-.1v-.2l1,.1Zm-2-.3-1-.1v-.3l1,.1Zm-2-.3-1-.1v-.2l1,.1Zm-2-.3-1-.1v-.2l1,.1Zm-2-.3-1-.1v-.2l1,.1Z" transform="translate(0 167.6)" style="fill:#070b3b"/><rect x="89.98" y="81.15" width="0.2" height="0.5" transform="translate(-3.25 326.65) rotate(-81.86)" style="fill:#070b3b"/><rect x="160.71" y="91.01" width="0.2" height="0.5" transform="translate(-21 225.22) rotate(-19.09)" style="fill:#070b3b"/><path d="M160.3,90.1l-.3-.9.2-.1.3,1Zm-.6-1.9-.3-.9.2-.1.3.9Zm-.7-1.9-.3-.9.2-.1.3.9Zm-.6-1.9-.3-.9.2-.1.3.9Zm-.7-1.9-.3-.9.2-.1.3.9Zm-.6-1.9-.3-.9.2-.1.3.9Zm-.7-1.8-.3-.9.2-.1.3.9Zm-.7-1.9-.3-1,.2-.1.3.9Zm-.6-1.9-.3-1,.2-.1.3,1Zm-.7-1.9-.3-1,.2-.1.3,1Zm-.6-1.9-.3-.9.2-.1.3,1Zm-.7-1.9-.3-.9.2-.1.3,1Zm-.6-1.9-.3-.9.2-.1.3.9Zm-.7-1.9-.3-.9.2-.1.3.9Zm-.6-1.9-.3-.9.2-.1.3.9Zm-.7-1.8-.3-1,.2-.1.3.9Zm-.7-1.9-.3-1,.2-.1.3.9Zm-.6-1.9-.3-1,.2-.1.3,1Zm-.7-1.9-.3-1,.2-.1.3,1Zm-.6-1.9-.3-.9.2-.1.3,1Zm-.7-1.9-.3-.9.2-.1.3,1Zm-.6-1.9-.3-.9.2-.1.3.9Zm-.7-1.9-.3-.9.2-.1.3.9Zm-.6-1.9-.3-.9.2-.1.3.9Zm-.7-1.8-.3-1,.2-.1.3.9Zm-.7-1.9-.3-1,.2-.1.3,1Zm-.6-1.9-.3-1,.2-.1.3,1Zm-.7-1.9-.3-.9.2-.1.3,1Zm-.6-1.9-.3-.9.2-.1.3,1Zm-.7-1.9-.3-.9.2-.1.3.9Zm-.6-1.9-.3-.9.2-.1.3.9Z" transform="translate(0 167.6)" style="fill:#070b3b"/><polygon points="140 199.1 139.8 198.5 140.4 198.3 140.5 198.6 140.1 198.7 140.2 199.1 140 199.1" style="fill:#070b3b"/><path d="M141.4,30.6l-.1-.2.9-.3.1.2Zm1.9-.6-.1-.2,1-.3.1.2Zm2-.7-.1-.2,1-.3.1.2Zm1.9-.6-.1-.2.9-.3.1.2Zm1.9-.7-.1-.2,1-.3.1.2Zm1.9-.7-.1-.2,1-.3.1.2Zm1.9-.6-.1-.2,1-.3.1.2Zm1.9-.7-.1-.2,1-.3.1.2Zm1.9-.7-.1-.2,1-.3.1.2Zm2-.6-.1-.2,1-.3.1.2Zm1.9-.7-.1-.2,1-.3.1.2Zm1.9-.6-.1-.2,1-.3.1.2Zm1.9-.7-.1-.3,1-.3.1.2Zm1.9-.7-.1-.2,1-.3.1.2Zm1.9-.6-.1-.2,1-.3.1.2Zm1.9-.7-.1-.2,1-.3.1.3ZM172,20l-.1-.2,1-.3.1.2Zm2-.6-.1-.2,1-.3.1.2Zm1.9-.7-.1-.2,1-.3.1.2Zm1.9-.6-.1-.2,1-.3.1.2Zm1.9-.7-.1-.2,1-.3.1.2Zm1.9-.7-.1-.2,1-.3.1.2Zm1.9-.6-.1-.2,1-.3.1.2Zm1.9-.7-.1-.2,1-.3.1.2Zm1.9-.7-.1-.2,1-.3.1.2Zm2-.6-.1-.2,1-.3.1.2Zm1.9-.7-.1-.2,1-.3.1.2Zm1.9-.6-.1-.2,1-.3.1.2Zm1.9-.7-.1-.2,1-.3.1.2Zm1.9-.7-.1-.2,1-.3.1.2Zm1.9-.6-.1-.2,1-.3.1.2Zm1.9-.7-.1-.2,1-.3.1.2Zm1.9-.7-.1-.2,1-.3.1.2Zm2-.6-.1-.2,1-.3.1.2Zm1.9-.7-.1-.2,1-.3.1.2Z" transform="translate(0 167.6)" style="fill:#070b3b"/><polygon points="209.1 175.2 208.8 174.9 208.4 175.1 208.3 174.8 208.8 174.6 209.3 175 209.1 175.2" style="fill:#070b3b"/><path d="M257,48.8l-.8-.6.2-.2.8.7Zm-1.5-1.3-.7-.7.2-.2.8.7ZM254,46.2l-.8-.6.2-.2.8.6Zm-1.5-1.3-.8-.6.2-.2.7.6ZM251,43.6l-.8-.6.2-.2.8.7Zm-1.5-1.2-.8-.7.2-.2.8.7ZM248,41.1l-.7-.6.2-.2.8.6Zm-1.5-1.3-.8-.6.2-.2.8.6ZM245,38.5l-.8-.6.2-.2.8.7Zm-1.5-1.3-.8-.7.2-.2.8.7ZM242,35.9l-.8-.6.2-.2.7.6Zm-1.5-1.3-.7-.6.2-.2.8.6ZM239,33.3l-.8-.6.2-.2.8.7Zm-1.5-1.2-.8-.7.2-.2.8.7ZM236,30.8l-.8-.6.2-.2.8.6Zm-1.5-1.3-.8-.6.2-.2.7.6Zm-1.4-1.3-.8-.7.2-.2.8.7Zm-1.5-1.3-.8-.7.2-.2.8.7Zm-1.5-1.3-.7-.6.2-.2.8.6Zm-1.5-1.3-.8-.6.2-.2.8.6Zm-1.5-1.2-.8-.7.2-.2.7.7Zm-1.5-1.3-.8-.7.2-.2.8.7Zm-1.5-1.3-.8-.6.2-.2.7.6Zm-1.5-1.3-.7-.6.1-.2.8.6Zm-1.5-1.3-.8-.7.2-.2.8.7Zm-1.5-1.3-.8-.7.2-.2.8.7Zm-1.5-1.3-.8-.6.2-.2.8.6ZM216.6,14l-.8-.6.2-.2.7.6Zm-1.5-1.2-.7-.7.2-.2.8.7Zm-1.5-1.4-.8-.7.2-.2.8.7Zm-1.5-1.2-.7-.6.2-.2.8.6Zm-1.5-1.3-.8-.6.2-.2.8.6Z" transform="translate(0 167.6)" style="fill:#070b3b"/><rect x="257.93" y="49.3" width="0.2" height="0.5" transform="translate(52.14 380.38) rotate(-49.28)" style="fill:#070b3b"/><rect x="208.49" y="7.31" width="0.5" height="0.2" transform="translate(153.82 376.53) rotate(-76.79)" style="fill:#070b3b"/><path d="M198.8,50.3l-.2-.1.2-1,.2.1Zm.5-2H199l.2-1,.2.1Zm.4-1.9-.2-.1.2-1,.3.1Zm.5-1.9-.2-.1.2-1,.2.1Zm.4-2-.2-.1.2-1,.2.1Zm.5-1.9-.2-.1.2-1,.2.1Zm.4-2-.2-.1.2-1h.2Zm.5-1.9-.2-.1.2-1,.2.1Zm.5-1.9h-.2l.2-1,.2.1Zm.4-2-.2-.1.2-1,.2.1Zm.5-1.9h-.2l.2-1,.2.1Zm.4-1.9-.2-.1.2-1h.2Zm.5-2-.2-.1.2-1,.2.1Zm.4-1.9-.2-.1.2-1h.2Zm.5-1.9-.2-.1.2-1,.2.1Zm.4-2-.2-.1.2-1h.2Zm.5-1.9-.2-.1.2-1,.2.1Zm.5-1.9h-.2l.2-1,.2.1Zm.4-2-.2-.1.2-1,.2.1Zm.5-1.9h-.2l.2-1,.2.1Zm.4-1.9-.2-.1.2-1,.2.1Zm.5-2-.2-.1.2-1,.2.1Z" transform="translate(0 167.6)" style="fill:#070b3b"/><rect x="198.12" y="51.36" width="0.5" height="0.2" transform="translate(102.59 400.23) rotate(-76.68)" style="fill:#070b3b"/><circle cx="160.9" cy="259.1" r="1.3" style="fill:#005486"/><path d="M272,93.6a1.3,1.3,0,1,1-1.3-1.3A1.32,1.32,0,0,1,272,93.6Z" transform="translate(0 167.6)" style="fill:#005486"/><circle cx="230.7" cy="298.9" r="1.3" style="fill:#005486"/><circle cx="227" cy="252.1" r="1.3" style="fill:#005486"/><circle cx="257.8" cy="217.3" r="1.3" style="fill:#005486"/><circle cx="198.4" cy="219.4" r="1.3" style="fill:#005486"/><circle cx="208.8" cy="174.8" r="1.3" style="fill:#005486"/><path d="M141.3,31a1.3,1.3,0,1,1-1.3-1.3,1.32,1.32,0,0,1,1.3,1.3Z" transform="translate(0 167.6)" style="fill:#005486"/><circle cx="89.8" cy="249.2" r="1.3" style="fill:#005486"/><circle cx="126.8" cy="304.8" r="1.3" style="fill:#061e43"/><rect x="146.4" y="248.6" width="29" height="19.8" style="fill:#ffd131"/><path d="M146.4,81l14.5,9.9L175.4,81Z" transform="translate(0 167.6)" style="fill:#061e43"/><path d="M152.8,28.5H137.4a2,2,0,0,0-2,2v9.4a2,2,0,0,0,2,2h9l5.9,5.7-.9-5.7h1.4a2,2,0,0,0,2-2V30.5A2.07,2.07,0,0,0,152.8,28.5Z" transform="translate(0 167.6)" style="fill:#061e43"/><path d="M144.3,34.7V28.6h-7a2,2,0,0,0-2,2v6.1h7A2,2,0,0,0,144.3,34.7Z" transform="translate(0 167.6)" style="fill:#032837;opacity:0.20000000298023224;isolation:isolate"/><path d="M125.8,22.1h15.4a2,2,0,0,1,2,2v9.4a2,2,0,0,1-2,2h-9l-5.9,5.7.9-5.7h-1.4a2,2,0,0,1-2-2V24.1A2,2,0,0,1,125.8,22.1Z" transform="translate(0 167.6)" style="fill:#ffd131"/><rect x="73.7" y="237.9" width="27.4" height="15.4" style="fill:#ffd131"/><rect x="73.7" y="253.1" width="27.4" height="4" style="fill:#506c75"/><rect x="78.6" y="254.7" width="21.1" height="0.7" style="fill:#eeefef"/><rect x="78.6" y="254.7" width="8.8" height="0.7" style="fill:#061e43"/><rect x="73.7" y="253.1" width="4" height="4" style="fill:#d1d1d0;opacity:0.699999988079071;isolation:isolate"/><rect x="75" y="254.3" width="0.5" height="1.4" style="fill:#061e43"/><rect x="75.7" y="254.3" width="0.5" height="1.4" style="fill:#061e43"/><polygon points="89.8 245.4 85 241.9 85 248.9 89.8 245.4" style="fill:#061e43"/><polygon points="248.7 213.7 269.1 213.7 268.9 225.8 248.9 225.8 248.7 213.7" style="fill:#be8f21"/><polygon points="251.6 200 251.6 219.5 266.6 219.5 266.6 204.5 266.6 204.5 266.6 203.9 262.7 200 251.6 200" style="fill:#ffd131"/><polygon points="262.7 200 262.7 203.9 266.6 203.9 266.6 203.9 262.7 200" style="fill:#061e43"/><rect x="256.9" y="205.9" width="6.9" height="0.3" style="fill:#edf9fe"/><rect x="254.5" y="207.8" width="9.3" height="0.3" style="fill:#edf9fe"/><rect x="254.5" y="209.7" width="9.3" height="0.3" style="fill:#edf9fe"/><rect x="254.5" y="211.5" width="9.3" height="0.3" style="fill:#edf9fe"/><rect x="254.5" y="213.4" width="9.3" height="0.3" style="fill:#edf9fe"/><polygon points="256.4 214.4 256.4 213.2 250.3 213.2 250.3 214.4 248.4 214.4 248.9 225.8 268.9 225.8 269.4 214.4 256.4 214.4" style="fill:#061e43"/><path d="M196.6,35.4a11.22,11.22,0,0,0-7.8,3.2l7.8,7.8Z" transform="translate(0 167.6)" style="fill:#061e43"/><path d="M197.7,38.6h0V49.7l-10.4-3.8a9.86,9.86,0,0,0-.7,3.8,11.1,11.1,0,1,0,11.1-11.1Z" transform="translate(0 167.6)" style="fill:#ffd131"/><path d="M189.4,40.7a10.42,10.42,0,0,0-2.5,4l10.2,3.8Z" transform="translate(0 167.6)" style="fill:#506c75;opacity:0.5;isolation:isolate"/><path d="M117.6,133.9h.5a8.65,8.65,0,0,1,.7-1.7l-.4-.4a2.62,2.62,0,1,1,3.7-3.7l.4.4a8.65,8.65,0,0,1,1.7-.7v-.5a2.61,2.61,0,1,1,5.2-.4v.8a8.65,8.65,0,0,1,1.7.7l.4-.4a2.62,2.62,0,0,1,3.7,3.7l-.4.4a8.65,8.65,0,0,1,.7,1.7h.5a2.6,2.6,0,1,1,0,5.2h-.5a8.65,8.65,0,0,1-.7,1.7l.4.4a2.62,2.62,0,0,1-3.7,3.7l-.3-.4a8.65,8.65,0,0,1-1.7.7v.5a2.61,2.61,0,0,1-5.2.4v-.8a8.65,8.65,0,0,1-1.7-.7l-.4.4a2.62,2.62,0,1,1-3.7-3.7l.4-.4a8.65,8.65,0,0,1-.7-1.7h-.5a2.65,2.65,0,0,1-2.6-2.6,2.39,2.39,0,0,1,2.5-2.6Zm9.2,7.8a5.2,5.2,0,1,0-5.2-5.2,5.16,5.16,0,0,0,5.2,5.2Z" transform="translate(0 167.6)" style="fill:#ffd131"/><path d="M108,124.6h.2a4.88,4.88,0,0,1,.3-.7l-.2-.2a1,1,0,0,1,0-1.6,1.12,1.12,0,0,1,1.6,0l.2.2c.2-.1.5-.2.7-.3v-.2a1.2,1.2,0,0,1,1.1-1.2,1.22,1.22,0,0,1,1.2,1.2h0v.2a4.88,4.88,0,0,1,.7.3l.2-.2a1,1,0,0,1,1.6,0,1.12,1.12,0,0,1,0,1.6l-.2.2c.1.2.2.5.3.7h.2a1.16,1.16,0,0,1,.3,2.3h-.4a4.88,4.88,0,0,1-.3.7l.2.2a1.13,1.13,0,0,1-.2,1.6,1.09,1.09,0,0,1-1.5,0l-.2-.2c-.2.1-.5.2-.7.3v.2a1.13,1.13,0,0,1-1.2,1.1,1.11,1.11,0,0,1-1.1-1.1v-.2a4.88,4.88,0,0,1-.7-.3l-.1.2a1,1,0,0,1-1.6,0,1.12,1.12,0,0,1,0-1.6l.2-.2c-.1-.2-.2-.5-.3-.7H108a1.16,1.16,0,1,1-.3-2.3Zm4.1,3.5a2.3,2.3,0,1,0-2.3-2.3h0a2.26,2.26,0,0,0,2.3,2.3Z" transform="translate(0 167.6)" style="fill:#061e43"/><polygon points="259.2 267.6 260.5 267.4 261.3 267.3 260.5 261.4 258.4 261.6 259.2 267.6" style="fill:#ffd131"/><polygon points="264.7 266.9 266 266.7 266.8 266.6 266.2 261.7 264.1 262 264.7 266.9" style="fill:#ffd131"/><polygon points="270.2 266.2 271.6 266 272.4 265.9 271.1 256.1 269 256.4 270.2 266.2" style="fill:#ffd131"/><polygon points="275.8 265.5 277.1 265.3 277.9 265.2 276.2 251.9 274.1 252.1 275.8 265.5" style="fill:#ffd131"/><polygon points="281.3 264.8 282.7 264.6 283.5 264.5 282.1 253.6 279.9 253.8 281.3 264.8" style="fill:#ffd131"/><polygon points="286 267.4 256.3 271.1 254.2 254.7 254.8 254.6 256.8 270.5 285.9 266.8 286 267.4" style="fill:#061e43"/><polygon points="264.9 259 258 259.1 258 258.5 264.6 258.3 269.6 252 274.7 248 281.6 249.4 281.5 250 274.9 248.7 270 252.5 264.9 259" style="fill:#061e43"/><path d="M220.6,119.2l20,3.9a1,1,0,0,1,.8,1.2l-.7,3.4a1,1,0,0,1-1.2.8l-20-3.9a1,1,0,0,1-.8-1.2l.7-3.4A1.1,1.1,0,0,1,220.6,119.2Z" transform="translate(0 167.6)" style="fill:#ffd131"/><path d="M246.8,138.1a8.19,8.19,0,1,1-10.4-5.1,8.15,8.15,0,0,1,10.4,5.1Z" transform="translate(0 167.6)" style="fill:#061e43"/><path d="M240,131.7l.2-1.3a1,1,0,0,0-.7-1.2h-.1l-20-3.9a1,1,0,0,0-1.2.7v.1l-.7,3.3a1,1,0,0,0,.7,1.2h.1l15,2.9a9.52,9.52,0,0,1,6.7-1.8Z" transform="translate(0 167.6)" style="fill:#ffd131"/><path d="M232.8,134.2l-14.5-2.8a1,1,0,0,0-1.2.7v.1l-.6,3.4a1,1,0,0,0,.7,1.2h.1l12.9,2.5A8.13,8.13,0,0,1,232.8,134.2Z" transform="translate(0 167.6)" style="fill:#ffd131"/><polygon points="239.5 312.6 237 311.3 237.1 312.4 238.6 313.2 239.5 312.6" style="fill:#fff"/><path d="M238.6,145.6l-1.5-.7.1,1.1c0,.2.2.3.4.3s.1,0,.1-.1Z" transform="translate(0 167.6)" style="fill:#fff"/><polygon points="238.9 312.2 238.6 312.1 239.4 310.5 238.6 310.2 237.9 311.7 239.5 312.6 240.3 311 239.7 310.7 238.9 312.2" style="fill:#fff"/><rect x="236.78" y="142.68" width="1.8" height="0.7" transform="translate(4.83 461.39) rotate(-63.96)" style="fill:#fff"/><path d="M240,137.5l-.8,1.6,2.5,1.2.8-1.6Zm-.1,1.9.7-1.5.2.1-.7,1.5Zm1.3.6-.2-.1.7-1.5.2.1Z" transform="translate(0 167.6)" style="fill:#fff"/><rect x="238.5" y="310" height="0.3" style="fill:#a7a8ab"/><rect x="237.8" y="311.6" height="0.3" style="fill:#a7a8ab"/><rect x="239.6" y="310.5" height="0.3" style="fill:#a7a8ab"/><path d="M238.1,138.6a1.5,1.5,0,0,0-1.4-1.1l-1.7-.3-.2.3,1.8,1.1-.9,1.8-2-.8-.2.3,1.2,1.2a1.92,1.92,0,0,0,1.8.4l.6-.2,4.3,2.1a1.58,1.58,0,0,0,.7.7,1.5,1.5,0,1,0,1.3-2.7h0a1.18,1.18,0,0,0-1-.1l-4.3-2.1Zm5.8,4.1-.4.9-1,.1-.5-.8.4-.9,1-.1Z" transform="translate(0 167.6)" style="fill:#fff"/><path d="M242.7,138.5l-2.5-1.2.2-.4a1.35,1.35,0,0,1,1.9-.6h0a1.47,1.47,0,0,1,.7,1.9h0Z" transform="translate(0 167.6)" style="fill:#fff"/><rect x="222.71" y="119.44" width="5.5" height="6.9" transform="translate(61.67 488.24) rotate(-78.96)" style="fill:#071841;opacity:0.5;isolation:isolate"/><rect x="221.46" y="125.54" width="5.5" height="6.9" transform="translate(54.67 491.96) rotate(-78.96)" style="fill:#071841;opacity:0.5;isolation:isolate"/><rect x="220.29" y="131.66" width="5.5" height="6.9" transform="translate(47.72 495.74) rotate(-78.96)" style="fill:#071841;opacity:0.5;isolation:isolate"/><path d="M218,1.4h-5.9L212,0h-6.4l-.1,1.4h-2.1V.7h-3.3v.7h-.5a.94.94,0,0,0-1,1v11a.94.94,0,0,0,1,1H218a.94.94,0,0,0,1-1V2.4A1,1,0,0,0,218,1.4Z" transform="translate(0 167.6)" style="fill:#ffd131"/><path d="M213.6,8.5a4.75,4.75,0,1,1-4.8-4.7h0A4.78,4.78,0,0,1,213.6,8.5Z" transform="translate(0 167.6)" style="fill:#061e43"/><path d="M214.4,4.5a.91.91,0,1,1-1.8.2V4.5a1,1,0,0,1,1-.8C214,3.7,214.3,4.1,214.4,4.5Z" transform="translate(0 167.6)" style="fill:#506c75"/><path d="M226.5,72.9h0v-1a.1.1,0,0,0-.1-.1c-.1,0-.1,0-.1.1v1Z" transform="translate(0 167.6)" style="fill:#070b3b"/><path d="M224.7,72h0c-.1,0-.1,0-.1.1l.2,1h.1Z" transform="translate(0 167.6)" style="fill:#070b3b"/><path d="M222.9,72.5h0c-.1-.1-.1,0-.1,0l.3.9h.1Z" transform="translate(0 167.6)" style="fill:#070b3b"/><path d="M231.9,91.4Z" transform="translate(0 167.6)" style="fill:#ffd131"/><path d="M221.2,73.2h0c-.1,0-.1,0-.1.1l.5.8.1-.1Z" transform="translate(0 167.6)" style="fill:#070b3b"/><path d="M233.4,90.4h0l-.6-.7a.1.1,0,0,1-.1.1Z" transform="translate(0 167.6)" style="fill:#070b3b"/><path d="M219.7,74.3h0l.5.8.1-.1Z" transform="translate(0 167.6)" style="fill:#070b3b"/><path d="M218.3,75.6h0l.7.7.1-.1Z" transform="translate(0 167.6)" style="fill:#070b3b"/><path d="M233.9,88.4l.8.7h0V89l-.8-.6Z" transform="translate(0 167.6)" style="fill:#070b3b"/><path d="M235.8,87.6h0l-.9-.6-.1.1Z" transform="translate(0 167.6)" style="fill:#070b3b"/><path d="M217.2,77h0l.8.6.1-.1Z" transform="translate(0 167.6)" style="fill:#070b3b"/><path d="M236.6,86h0l-1-.4v.1Z" transform="translate(0 167.6)" style="fill:#070b3b"/><path d="M216.4,78.7h0l.9.4V79Z" transform="translate(0 167.6)" style="fill:#070b3b"/><path d="M215.9,80.4h0l.9.2v-.1Z" transform="translate(0 167.6)" style="fill:#070b3b"/><path d="M237.1,84.2h0l-1-.2v.1Z" transform="translate(0 167.6)" style="fill:#070b3b"/><path d="M215.8,82.3h0c-.1.1,0,.1,0,.1h1v-.1Z" transform="translate(0 167.6)" style="fill:#070b3b"/><path d="M237.3,82.4h0c.1-.1,0-.1,0-.1h-1v.1Z" transform="translate(0 167.6)" style="fill:#070b3b"/><path d="M215.9,84.1h0l1-.1v-.1Z" transform="translate(0 167.6)" style="fill:#070b3b"/><path d="M237.1,80.6h0l-1,.1v.1Z" transform="translate(0 167.6)" style="fill:#070b3b"/><path d="M236.7,78.8h0l-1,.3v.1Z" transform="translate(0 167.6)" style="fill:#070b3b"/><path d="M216.4,85.9h0l1.1-.3v-.1Z" transform="translate(0 167.6)" style="fill:#070b3b"/><path d="M235.9,77.2h0l-1,.4.1.1Z" transform="translate(0 167.6)" style="fill:#070b3b"/><path d="M217.2,87.5h0l1-.4-.1-.1Z" transform="translate(0 167.6)" style="fill:#070b3b"/><path d="M234.8,75.7h0c0-.2-.1-.2,0,0l-.8.5.1.1Z" transform="translate(0 167.6)" style="fill:#070b3b"/><path d="M218.2,89h0l.9-.6a.1.1,0,0,0-.1-.1Z" transform="translate(0 167.6)" style="fill:#070b3b"/><path d="M219.6,90.3c-.1,0-.1.1,0,0h0l.6-.5-.1-.1Z" transform="translate(0 167.6)" style="fill:#070b3b"/><path d="M233.5,74.4h0c0-.2-.1-.2,0,0l-.7.6.1.1Z" transform="translate(0 167.6)" style="fill:#070b3b"/><path d="M221.1,91.4Z" transform="translate(0 167.6)" style="fill:#f05c4f"/><path d="M232,73.3h0l-.6.7.1.1Z" transform="translate(0 167.6)" style="fill:#070b3b"/><path d="M230.3,72.5h0l-.4.8h.1Z" transform="translate(0 167.6)" style="fill:#070b3b"/><path d="M228.5,72h0a.1.1,0,0,0-.1-.1l-.2,1h.1Z" transform="translate(0 167.6)" style="fill:#070b3b"/><path d="M226.5,97.1h0a7,7,0,0,0,2.8-1.2h-5.7A8.13,8.13,0,0,0,226.5,97.1Z" transform="translate(0 167.6)" style="fill:#ffd131"/><path d="M230.1,92.6H223a.2.2,0,1,0,0,.4h7.1a.2.2,0,1,0,0-.4Z" transform="translate(0 167.6)" style="fill:#061e43"/><path d="M230.1,93.4H223a.2.2,0,1,0,0,.4h7.1a.2.2,0,1,0,0-.4Z" transform="translate(0 167.6)" style="fill:#061e43"/><path d="M230.1,94.2H223a.2.2,0,0,0,0,.4h7.1a.22.22,0,0,0,.2-.2h0c0-.2-.1-.2-.2-.2Z" transform="translate(0 167.6)" style="fill:#061e43"/><path d="M230.1,95H223c-.1,0-.2,0-.2.1s0,.2.1.2h7.2c.1,0,.2,0,.2-.1s0-.2-.2-.2C230.2,94.9,230.1,94.9,230.1,95Z" transform="translate(0 167.6)" style="fill:#061e43"/><path d="M226.5,74.8h0a7.54,7.54,0,0,0-7.7,7.2,7.68,7.68,0,0,0,1.8,5,8.24,8.24,0,0,1,2.2,4.7.6.6,0,0,0,.1.4H230a.6.6,0,0,0,.1-.4,8.24,8.24,0,0,1,2.2-4.7,7.68,7.68,0,0,0,1.8-5A7.39,7.39,0,0,0,226.5,74.8Z" transform="translate(0 167.6)" style="fill:#ffd131"/><path d="M226.2,92H226c0-.2.1-4.9-1.3-6.6l-.2-.3.6.3.5-.7.4.7.5-.8.5.7.2-.7.3.6.4-.6.9.4-.1.1c-1.9,1.3-1.7,6.8-1.7,7h-.2c0-.6-.1-5.6,1.7-7.1l-.4-.2-.5.8-.3-.5-.2.6-.5-.8-.5.9-.4-.7-.5.6h0C226.4,87.5,226.2,91.8,226.2,92Z" transform="translate(0 167.6)" style="fill:#061e43"/><path d="M179,368.3l1.6.9a5.6,5.6,0,0,0,5.6,0l6.3-3.6a5,5,0,0,0,1.8-6.8,4.45,4.45,0,0,0-1.8-1.8l-2.6-1.5a5.42,5.42,0,0,0-5.5,0l-5.4,3.1a5.73,5.73,0,0,0-1.7,7.8A7.51,7.51,0,0,0,179,368.3Z" transform="translate(0 167.6)" style="fill:#b5e3df;opacity:0.5400000214576721;isolation:isolate"/><path d="M292.8,330.5l-1.6,1a5.6,5.6,0,0,1-5.6,0l-6.3-3.6a5,5,0,0,1-1.8-6.8,4.45,4.45,0,0,1,1.8-1.8l2.6-1.5a5.42,5.42,0,0,1,5.5,0l5.4,3.1a5.45,5.45,0,0,1,2,7.6A4.81,4.81,0,0,1,292.8,330.5Z" transform="translate(0 167.6)" style="fill:#b5e3df;opacity:0.5400000214576721;isolation:isolate"/><path d="M89.1,252.2l-1.6.9a5.6,5.6,0,0,1-5.6,0l-6.3-3.6a5,5,0,0,1-1.8-6.8,4.45,4.45,0,0,1,1.8-1.8l2.6-1.5a5.42,5.42,0,0,1,5.5,0l5.4,3.1a5.56,5.56,0,0,1,2.1,7.6A5.3,5.3,0,0,1,89.1,252.2Z" transform="translate(0 167.6)" style="fill:#b5e3df;opacity:0.5400000214576721;isolation:isolate"/><path d="M86.3,241.6l.6,3.2s1.5,2,1.9,2.4c.1.1.2.3.3.4s.1.3.2.4a.55.55,0,0,1-.3.5l-.6.3a1.2,1.2,0,0,1-.8-.2c-.3-.2-1-.8-1-.8l-1.7-1.6a.48.48,0,0,1-.2-.6v-.1c0-.2.1-.3.1-.5v-.5l-.3-2.9Z" transform="translate(0 167.6)" style="fill:#fca372"/><path d="M78.9,240l.2,2.5-2.5,2.6c-.1.1-.1.2-.2.3l-.2.4a.55.55,0,0,0,.3.5l.4.2a.3.3,0,0,0,.4,0l1.4-.8,2.1-1.4c.2-.1.6-.3.6-.5v-.5a1.27,1.27,0,0,0-.1-.6l-.1-.7-.4-2.5Z" transform="translate(0 167.6)" style="fill:#fca372"/><path d="M81.4,243.5a2.2,2.2,0,0,0-.1-.8l-.1-.4v.1a.71.71,0,0,1-.3.6l-2.4,1.5c-.2.1-.4,0-.6-.2a.19.19,0,0,1,0-.3l.8-1h-.1l-.1.1L76.7,245a.52.52,0,0,0-.2.4c-.1.1-.1.3-.2.4a.71.71,0,0,0,.3.6.37.37,0,0,0,.3.1h.4a6.38,6.38,0,0,0,1.4-.8l2.3-1.5c.2-.1.5-.4.5-.6C81.4,243.7,81.4,243.6,81.4,243.5Z" transform="translate(0 167.6)" style="fill:#203443"/><path d="M84.7,245.9a1.1,1.1,0,0,1,0-.8l.1-.4v.1a.68.68,0,0,0,.4.6l2.4,1.7c.2.1.4.1.5-.1s.1-.2,0-.4l-.9-1.5.2.2.2.2,1.6,1.9c.1.2.2.3.3.5a.6.6,0,0,1,.1.4.66.66,0,0,1-.4.5,1.42,1.42,0,0,1-.6.2,1.7,1.7,0,0,1-.7-.1,5.55,5.55,0,0,1-.8-.6c-.5-.4-2-1.7-2-1.7a1.21,1.21,0,0,1-.5-.5A.31.31,0,0,1,84.7,245.9Z" transform="translate(0 167.6)" style="fill:#203443"/><path d="M80.8,218l-.5,12.2.8,10.4c.1,1-.5,1.5-2,1.4-.1,0-.1-.1-.2-.1-.5-.2-.4-.6-.5-1.2l-1-10-1.7-12.8Z" transform="translate(0 167.6)" style="fill:#070b3b"/><path d="M85.1,218l.4,13.6,1.4,11c0,1.4-.7,1.5-1.8,1.2l-.2-.1c-.5-.2-.5-.4-.6-1l-1.7-10.9L80,218Z" transform="translate(0 167.6)" style="fill:#070b3b"/><path d="M77.4,202.2c1.9-.4,6.4,1.1,8.2,1.7s-1.6,5.4-1.7,8.7,1.5,3.9,1.7,5.7c.1,1.1.1,1.5-.4,1.9s-1.4,1.3-3.9.7-2.1-.2-3.9-1-3.1-.9-2.1-3a15.79,15.79,0,0,0,.9-4.2c.1-2.7-.8-4.8-.7-7.6C75.6,203,76.2,202.4,77.4,202.2Z" transform="translate(0 167.6)" style="fill:#ffd131"/><path d="M79.7,200.5l-.1,2.1c0,.6-.3,2.5.3,2.8a.37.37,0,0,0,.3.1c.6.1,1.6-2.4,1.6-3v-2.1Z" transform="translate(0 167.6)" style="fill:#fca372"/><path d="M83.6,197.1a16.05,16.05,0,0,1,0,3.1c-.1.8-.6,2.2-2.1,2s-2-.8-2.2-1.3-1.1-3.1,0-4.7c0,0,.4-1.1,2.1-.9S83.5,196.3,83.6,197.1Z" transform="translate(0 167.6)" style="fill:#fca372"/><path d="M66,195.9Z" transform="translate(0 167.6)"/><polygon points="68.9 377.5 66.6 377.1 66 376.6 65 376.4 64.9 376.7 64.5 376.9 64.6 377.4 64.7 378.4 65.3 378.7 66.6 378.6 68.5 379 68.9 377.5" style="fill:#fca372"/><path d="M77.3,202.6a1.33,1.33,0,0,0-1.6.9c-.7,1.6-2.5,6.5-2.5,6.5l-5.4-.4.3,2.1,5.7,1.4a1.65,1.65,0,0,0,1.8-1.2s2.4-5.5,3.1-7.4C79,203.8,78,202.8,77.3,202.6Z" transform="translate(0 167.6)" style="fill:#ffd131"/><polygon points="66.3 375.8 63.8 375.6 65.8 379.4 67.6 379.7 67.1 378.7 66.3 375.8" style="fill:#005386"/><polygon points="64.5 376.9 64.9 376.8 65.2 376.9 65.5 377.1 65.6 377.4 65.5 377.5 65.4 377.6 65.4 377.8 65.4 377.9 65.4 378.4 65.3 378.5 64.7 378.4 64.5 377.3 64.5 376.9" style="fill:#fca372"/><path d="M81.8,202.3v.4c0,.2.2.1.3.1.8.2,2.7.9,2.2.2a1.66,1.66,0,0,1,.1-1.9c.4-.4.2-1.1.1-1.6s.1-1.3-.2-1.6a2.84,2.84,0,0,1-.4-1.3c0-.6-.3-.7-1.1-1.6a1.25,1.25,0,0,0-1.7-.2c-1.6-.3-2.2.9-2.7,2.1s-.1,1.5-.3,2.8-.8,1.4-.9,2.1.7.3,1.2,1.1a1.39,1.39,0,0,0,1.2.7c.8-.7.6-.5.8-1s-.6-.9-.3-1.3-.3-1.1-.4-1.8a1.17,1.17,0,0,1,.7-1.4c.9-.3.4-1.1.7-1.6a.75.75,0,0,1,.7-.5c.7,0,1,.7,1.1,1.2s.4,0,.6.8a1.08,1.08,0,0,1,.2.8v.4a5.7,5.7,0,0,1-.1,1.3,1.85,1.85,0,0,1-.2.7l-.6.9A3.55,3.55,0,0,1,81.8,202.3Z" transform="translate(0 167.6)" style="fill:#070b3b"/><rect x="74.18" y="214.08" width="3" height="0.3" transform="translate(-149.34 350.43) rotate(-62.6)" style="fill:#231f20"/><polygon points="75.1 383.3 74.8 383.6 74.9 383.1 75.1 383.3" style="fill:#8c797e"/><path d="M76.2,212.9a.1.1,0,0,0,.1.1c.1,0,.1.1.2,0s0-.1-.1-.1S76.2,212.8,76.2,212.9Z" transform="translate(0 167.6)" style="fill:#8c797e"/><polygon points="79.6 381.7 77.2 381.8 76.1 381.4 75.9 381.5 75.9 381.5 75.6 381.6 75 381.8 75 381.8 75.1 382.8 75.9 383.4 76.9 383.6 77.9 383.2 80 383 79.6 381.7" style="fill:#fca372"/><path d="M85.1,203.8c-.8,0-1.4,1.1-1.4,2,0,1.9.5,7.2.5,7.2l-6.1,1,.5,1.6s5.7.5,7.1-.2a2,2,0,0,0,1.2-1.3,38.75,38.75,0,0,0-.1-5.9c-.1-.9-.2-2-.2-2.8A1.62,1.62,0,0,0,85.1,203.8Z" transform="translate(0 167.6)" style="fill:#ffd131"/><path d="M92.1,329.6l24-14.3L103,307.5,79.1,321.7a.8.8,0,0,0-.3,1.1l.3.3,11,6.5A2.33,2.33,0,0,0,92.1,329.6Z" transform="translate(0 167.6)" style="fill:#b5e3df;opacity:0.5400000214576721;isolation:isolate"/><polygon points="97.9 460.2 110.7 467.5 125.1 459.3 112.3 451.9 97.9 460.2" style="fill:#b5e3df"/><polygon points="101.8 460 110.9 465.3 121.2 459.4 112.1 454.1 101.8 460" style="fill:#506c75"/><polygon points="97.9 460.2 110.7 467.5 110.7 485.6 97.9 478.2 97.9 460.2" style="fill:#2d6375"/><polygon points="110.7 467.5 125.1 459.3 125.1 477.3 110.7 485.6 110.7 467.5" style="fill:#4aa4c2"/><polygon points="112.3 433.8 125.1 441.2 125.1 459.3 112.3 451.9 112.3 433.8" style="opacity:0.30000001192092896;isolation:isolate;fill:url(#eff11d2f-9054-4909-a604-85aa3637502d)"/><polygon points="123.6 462.4 112.2 469 112.2 472.1 123.6 465.4 123.6 462.4" style="fill:#061e43"/><polygon points="119.4 465.5 112.7 469.3 112.7 470.1 119.4 466.3 119.4 465.5" style="fill:#005486"/><polygon points="119.4 466.7 112.7 470.5 112.7 471.3 119.4 467.5 119.4 466.7" style="fill:#005486"/><g style="opacity:0.4000000059604645"><polygon points="119.4 465.5 112.7 469.3 112.7 470.1 119.4 466.3 119.4 465.5" style="fill:url(#af0cf62b-c4a3-43f7-a14f-63dda9b6c66d)"/><polygon points="119.4 466.7 112.7 470.5 112.7 471.3 119.4 467.5 119.4 466.7" style="fill:url(#bdb83edb-027e-4971-9449-329415e3a15b)"/></g><polygon points="123.6 466.3 112.2 472.9 112.2 476 123.6 469.3 123.6 466.3" style="fill:#061e43"/><polygon points="123.6 470.2 112.2 476.8 112.2 479.8 123.6 473.2 123.6 470.2" style="fill:#061e43"/><polygon points="123.6 474.1 112.2 480.7 112.2 483.7 123.6 477.1 123.6 474.1" style="fill:#061e43"/><polygon points="122.8 463.5 122.8 463.9 123.2 463.6 123.2 463.2 122.8 463.5" style="fill:#41b3a7"/><polygon points="122.2 463.9 122.2 464.3 122.6 464 122.6 463.7 122.2 463.9" style="fill:#98d0e1"/><polygon points="121.5 464.3 121.5 464.7 121.9 464.4 121.9 464 121.5 464.3" style="fill:#ffd131"/><polygon points="119.4 469.4 112.7 473.2 112.7 474 119.4 470.2 119.4 469.4" style="fill:#005486"/><polygon points="119.4 470.5 112.7 474.3 112.7 475.2 119.4 471.3 119.4 470.5" style="fill:#005486"/><polygon points="122.8 467.3 122.8 467.7 123.2 467.5 123.2 467.1 122.8 467.3" style="fill:#41b3a7"/><polygon points="122.2 467.8 122.2 468.1 122.6 467.9 122.6 467.5 122.2 467.8" style="fill:#98d0e1"/><polygon points="121.5 468.1 121.5 468.5 121.9 468.3 121.9 467.9 121.5 468.1" style="fill:#ffd131"/><polygon points="119.4 473.2 112.7 477.1 112.7 477.9 119.4 474.1 119.4 473.2" style="fill:#005486"/><polygon points="119.4 474.4 112.7 478.2 112.7 479 119.4 475.2 119.4 474.4" style="fill:#005486"/><polygon points="122.8 471.2 122.8 471.6 123.2 471.4 123.2 471 122.8 471.2" style="fill:#41b3a7"/><polygon points="122.2 471.6 122.2 472 122.6 471.8 122.6 471.4 122.2 471.6" style="fill:#98d0e1"/><polygon points="121.5 472 121.5 472.4 121.9 472.2 121.9 471.8 121.5 472" style="fill:#ffd131"/><polygon points="119.4 477.1 112.7 480.9 112.7 481.7 119.4 477.9 119.4 477.1" style="fill:#005486"/><polygon points="119.4 478.2 112.7 482.1 112.7 482.9 119.4 479.1 119.4 478.2" style="fill:#005486"/><g style="opacity:0.30000001192092896"><polygon points="119.4 469.4 112.7 473.2 112.7 474 119.4 470.2 119.4 469.4" style="fill:url(#f83ee23e-efd3-42c4-8dfc-644cf4eeb08e)"/><polygon points="119.4 470.5 112.7 474.3 112.7 475.2 119.4 471.3 119.4 470.5" style="fill:url(#fc67880e-b4ca-4dea-b2cc-e72330c9ae76)"/></g><g style="opacity:0.30000001192092896"><polygon points="119.4 473.2 112.7 477.1 112.7 477.9 119.4 474.1 119.4 473.2" style="fill:url(#ad8d7f84-41b5-44a1-a6c5-e4da8b5a4bae)"/><polygon points="119.4 474.4 112.7 478.2 112.7 479 119.4 475.2 119.4 474.4" style="fill:url(#b9b232e4-e8e7-4017-9b77-24815217e1a8)"/></g><polygon points="119.4 477.1 112.7 480.9 112.7 481.7 119.4 477.9 119.4 477.1" style="opacity:0.30000001192092896;isolation:isolate;fill:url(#fd2d546a-dec1-42ee-93b8-a0d6e49a6f02)"/><polygon points="119.4 478.2 112.7 482.1 112.7 482.9 119.4 479.1 119.4 478.2" style="opacity:0.30000001192092896;isolation:isolate;fill:url(#abd1be3a-c334-40fe-b17f-21a8ccdcfdb1)"/><polygon points="122.8 475.1 122.8 475.5 123.2 475.2 123.2 474.8 122.8 475.1" style="fill:#41b3a7"/><polygon points="122.2 475.5 122.2 475.9 122.6 475.6 122.6 475.2 122.2 475.5" style="fill:#98d0e1"/><polygon points="121.5 475.9 121.5 476.3 121.9 476 121.9 475.6 121.5 475.9" style="fill:#ffd131"/><polygon points="110.7 449.5 125.1 441.2 125.1 459.3 110.7 467.5 110.7 449.5" style="fill:url(#f7595ad9-9371-452f-bfda-2db66649a73b)"/><polygon points="97.9 442.1 112.3 433.8 112.3 451.9 97.9 460.2 97.9 442.1" style="opacity:0.5;isolation:isolate;fill:url(#eacd37ff-6b5d-4fc5-832b-e69139457b8d)"/><polygon points="97.9 442.1 110.7 449.5 110.7 467.5 97.9 460.2 97.9 442.1" style="opacity:0.699999988079071;isolation:isolate;fill:url(#a1e77024-4c34-43bc-bcc3-83b0aaf6d44c)"/><path d="M219.4,335.4l23.8-14.2-13.1-7.8-23.8,14.2a.8.8,0,0,0-.3,1.1l.3.3,10.7,6.3A2,2,0,0,0,219.4,335.4Z" transform="translate(0 167.6)" style="fill:#b5e3df;opacity:0.5400000214576721;isolation:isolate"/><polygon points="225 466.1 237.8 473.5 252.1 465.2 239.4 457.9 225 466.1" style="fill:#b5e3df"/><polygon points="228.9 466 238 471.3 248.3 465.4 239.1 460.1 228.9 466" style="fill:#506c75"/><polygon points="225 466.1 237.8 473.5 237.8 491.6 225 484.2 225 466.1" style="fill:#2d6375"/><polygon points="237.8 473.5 252.1 465.2 252.1 483.3 237.8 491.6 237.8 473.5" style="fill:#4aa4c2"/><polygon points="239.4 439.8 252.1 447.1 252.1 465.2 239.4 457.8 239.4 439.8" style="opacity:0.30000001192092896;isolation:isolate;fill:url(#a5e98399-c31e-4995-9cfc-162febad1de5)"/><polygon points="250.7 468.4 239.2 475 239.2 478 250.7 471.4 250.7 468.4" style="fill:#061e43"/><polygon points="246.5 471.5 239.8 475.3 239.8 476.1 246.5 472.3 246.5 471.5" style="fill:#005486"/><polygon points="246.5 472.6 239.8 476.4 239.8 477.3 246.5 473.4 246.5 472.6" style="fill:#005486"/><g style="opacity:0.4000000059604645"><polygon points="246.5 471.5 239.8 475.3 239.8 476.1 246.5 472.3 246.5 471.5" style="fill:url(#e8e75351-6093-459a-a756-37b0980eb799)"/><polygon points="246.5 472.6 239.8 476.4 239.8 477.3 246.5 473.4 246.5 472.6" style="fill:url(#acf530ea-8b68-4510-8526-65030e8f7efc)"/></g><polygon points="250.7 472.3 239.2 478.9 239.2 481.9 250.7 475.3 250.7 472.3" style="fill:#061e43"/><polygon points="250.7 476.2 239.2 482.8 239.2 485.8 250.7 479.2 250.7 476.2" style="fill:#061e43"/><polygon points="250.7 480.1 239.2 486.7 239.2 489.7 250.7 483.1 250.7 480.1" style="fill:#061e43"/><polygon points="249.9 469.5 249.9 469.8 250.3 469.6 250.3 469.2 249.9 469.5" style="fill:#41b3a7"/><polygon points="249.2 469.9 249.2 470.3 249.6 470 249.6 469.6 249.2 469.9" style="fill:#98d0e1"/><polygon points="248.6 470.3 248.6 470.6 249 470.4 249 470 248.6 470.3" style="fill:#ffd131"/><polygon points="246.5 475.3 239.8 479.2 239.8 480 246.5 476.1 246.5 475.3" style="fill:#005486"/><polygon points="246.5 476.5 239.8 480.3 239.8 481.1 246.5 477.3 246.5 476.5" style="fill:#005486"/><polygon points="249.9 473.3 249.9 473.7 250.3 473.5 250.3 473.1 249.9 473.3" style="fill:#41b3a7"/><polygon points="249.2 473.7 249.2 474.1 249.6 473.9 249.6 473.5 249.2 473.7" style="fill:#98d0e1"/><polygon points="248.6 474.1 248.6 474.5 249 474.3 249 473.9 248.6 474.1" style="fill:#ffd131"/><polygon points="246.5 479.2 239.8 483 239.8 483.9 246.5 480 246.5 479.2" style="fill:#005486"/><polygon points="246.5 480.4 239.8 484.2 239.8 485 246.5 481.2 246.5 480.4" style="fill:#005486"/><polygon points="249.9 477.2 249.9 477.6 250.3 477.4 250.3 477 249.9 477.2" style="fill:#41b3a7"/><polygon points="249.2 477.6 249.2 478 249.6 477.8 249.6 477.4 249.2 477.6" style="fill:#98d0e1"/><polygon points="248.6 478 248.6 478.4 249 478.1 249 477.8 248.6 478" style="fill:#ffd131"/><polygon points="246.5 483 239.8 486.9 239.8 487.7 246.5 483.9 246.5 483" style="fill:#005486"/><polygon points="246.5 484.2 239.8 488 239.8 488.9 246.5 485 246.5 484.2" style="fill:#005486"/><g style="opacity:0.30000001192092896"><polygon points="246.5 475.3 239.8 479.2 239.8 480 246.5 476.1 246.5 475.3" style="fill:url(#a78c76cf-14fc-433f-a77a-7ac00cb296e8)"/><polygon points="246.5 476.5 239.8 480.3 239.8 481.1 246.5 477.3 246.5 476.5" style="fill:url(#f76c54ae-4443-42f8-843d-a5fa86d4b888)"/></g><g style="opacity:0.30000001192092896"><polygon points="246.5 479.2 239.8 483 239.8 483.9 246.5 480 246.5 479.2" style="fill:url(#b4a21ab9-2505-440a-8919-698ac0720e94)"/><polygon points="246.5 480.4 239.8 484.2 239.8 485 246.5 481.2 246.5 480.4" style="fill:url(#be49e355-bdec-4671-8fad-b4bebd08b025)"/></g><polygon points="246.5 483 239.8 486.9 239.8 487.7 246.5 483.9 246.5 483" style="opacity:0.30000001192092896;isolation:isolate;fill:url(#b7d26b24-9958-4666-9c6f-b86b0c1f81ea)"/><polygon points="246.5 484.2 239.8 488 239.8 488.9 246.5 485 246.5 484.2" style="opacity:0.30000001192092896;isolation:isolate;fill:url(#b921deae-ab39-4f7c-87d8-3c9c87cb06d6)"/><polygon points="249.9 481 249.9 481.4 250.3 481.2 250.3 480.8 249.9 481" style="fill:#41b3a7"/><polygon points="249.2 481.4 249.2 481.8 249.6 481.6 249.6 481.2 249.2 481.4" style="fill:#98d0e1"/><polygon points="248.6 481.8 248.6 482.2 249 482 249 481.6 248.6 481.8" style="fill:#ffd131"/><polygon points="237.8 455.4 252.1 447.1 252.1 465.2 237.8 473.5 237.8 455.4" style="fill:url(#ba46ba73-54ba-43a6-9296-5eee32bf675b)"/><polygon points="225 448 239.4 439.8 239.4 457.8 225 466.1 225 448" style="opacity:0.5;isolation:isolate;fill:url(#b84c5af8-1315-4d21-8257-1a3eec0ee575)"/><polygon points="225 448 237.8 455.4 237.8 473.5 225 466.1 225 448" style="opacity:0.699999988079071;isolation:isolate;fill:url(#f266a8bb-ee8a-40f8-bee9-162c650bb2e4)"/><g style="opacity:0.5400000214576721"><path d="M324.1,306.6l-16.3,9.5a5,5,0,0,1-5,0l-62.3-36.3a3.89,3.89,0,0,1-1.4-5.2,3.76,3.76,0,0,1,1.4-1.4l15.7-9.1a5.23,5.23,0,0,1,5.4,0l62.5,36.4a3.48,3.48,0,0,1,1.3,4.8A4,4,0,0,1,324.1,306.6Z" transform="translate(0 167.6)" style="fill:#b5e3df"/></g><path d="M.4,281.4,33.5,301a2.44,2.44,0,0,0,2.6,0L74,279,38.5,258,.4,280.1a.71.71,0,0,0-.3,1C.2,281.2.3,281.4.4,281.4Z" transform="translate(0 167.6)" style="fill:#b5e3df;opacity:0.5400000214576721;isolation:isolate"/><polygon points="4.8 442.4 4.9 442.5 4.9 442.4 4.8 442.4" style="fill:#22b573;opacity:0.10000000149011612;isolation:isolate"/><path d="M61.4,193.9l-1.2-.7h0a1.1,1.1,0,0,0-.8,0L4,225.2a.82.82,0,0,0-.4.6v47.1a.71.71,0,0,0,.3.6h0l1.2.7.5-1-.1-.1,54.6-31.5a.82.82,0,0,0,.4-.6V194.6Z" transform="translate(0 167.6)" style="fill:#070b3b"/><path d="M61.4,242.2l-55.5,32a.71.71,0,0,1-1-.3c-.1-.1-.1-.2-.1-.4V226.4a.55.55,0,0,1,.4-.6l55.5-32a.71.71,0,0,1,1,.3c.1.1.1.2.1.4v47A.84.84,0,0,1,61.4,242.2Z" transform="translate(0 167.6)" style="fill:#061e43"/><polygon points="59.8 408.6 6.8 439.2 6.8 394.2 59.8 363.7 59.8 408.6" style="fill:#b5e3df"/><path d="M97.9,264.8h0v-1.4l-1-.1-.3.4L62.4,244a1.48,1.48,0,0,0-1.3,0L7.4,274.8l-.6-.4-1.1.4v1.4h0c0,.3.1.7.4.8l35.1,20.2a1.48,1.48,0,0,0,1.3,0l55-31.6A.68.68,0,0,0,97.9,264.8Z" transform="translate(0 167.6)" style="fill:#070b3b"/><path d="M61.1,242.4,6.2,274a.84.84,0,0,0-.3,1.2c.1.1.2.3.3.3l35.1,20.2a1.48,1.48,0,0,0,1.3,0l55-31.6a.86.86,0,0,0,.3-1.2l-.3-.3L62.4,242.4A1.05,1.05,0,0,0,61.1,242.4Z" transform="translate(0 167.6)" style="fill:#071841"/><path d="M61.4,246.4,13.5,274a.48.48,0,0,0-.2.6c0,.1.1.1.2.2l15.2,8.8a.6.6,0,0,0,.8,0L77.4,256a.48.48,0,0,0,.2-.6c0-.1-.1-.1-.2-.2l-15.2-8.8A1.1,1.1,0,0,0,61.4,246.4Z" transform="translate(0 167.6)" style="fill:#2d6375"/><polygon points="50.9 441.2 63.7 448.6 80.2 439.1 67.4 431.7 50.9 441.2" style="fill:#2d6375"/><path d="M6.8,226.6v7.6c12-6.1,37.3-17.3,53-12.5V196Z" transform="translate(0 167.6)" style="fill:#fff;opacity:0.699999988079071;isolation:isolate"/><polygon points="12.7 429.8 12.7 430.4 13.2 430.1 13.2 429.5 13.2 401.9 12.7 402.2 12.7 429.8" style="fill:#144d4c"/><polygon points="53.2 406.2 13.2 429.5 13.2 430.1 53.2 406.7 53.2 406.2" style="fill:#144d4c"/><path d="M13.3,261.6h-.1c-.1-.1-.2-.2-.1-.3l5.8-12.1H19l5.5-.6c4.5-13.5,4.7-13.4,5-13.3s4.6.4,7.4.6l4.9-6.2,5,.7,6.4-6.8a.22.22,0,0,1,.4.2v.1l-6.6,7-4.9-.7-4.9,6.2h-.1c-1.6-.1-6.4-.5-7.5-.6-.5,1-3,8.3-4.6,13.1v.1l-5.7.6-5.7,11.8C13.5,261.6,13.4,261.7,13.3,261.6Z" transform="translate(0 167.6)" style="fill:#41b3a7"/><path d="M13.3,261.6h0c-.1,0-.2-.2-.2-.3l3.3-16.5,9.4,6.6.7-19.7,9.5,1.8,7.9-.8,1.5-5.4,5.5-8.1a.37.37,0,0,1,.3-.1h0a.37.37,0,0,1,.1.3h0l-5.5,8.1-1.6,5.6-8.3.8h0l-9-1.7-.7,20.1-9.6-6.6-3,15.7C13.5,261.5,13.4,261.6,13.3,261.6Z" transform="translate(0 167.6)" style="fill:#ffd131"/><g style="opacity:0.10000000149011612"><path d="M125.8,359.2l1.4.8a2.27,2.27,0,0,0,2.5,0L172,335.3l-5.2-3-41,23.9a1.78,1.78,0,0,0-.6,2.4Z" transform="translate(0 167.6)" style="fill:#196592"/></g><path d="M176.3,268.4l-1.9-1.1h0a1.82,1.82,0,0,0-2,0l-28,16.2a3.19,3.19,0,0,0-1.6,2.8V347a1.94,1.94,0,0,0,1,1.7h0l1.5,1,.6-1,27.8-16.1a3.19,3.19,0,0,0,1.6-2.8V269.7Z" transform="translate(0 167.6)" style="fill:#070b3b"/><path d="M144.3,287.2v60.7a2,2,0,0,0,2,2,1.93,1.93,0,0,0,1-.3l28-16.1a3.19,3.19,0,0,0,1.6-2.8V270a2,2,0,0,0-2-2,1.69,1.69,0,0,0-1,.3l-28,16.2A3.24,3.24,0,0,0,144.3,287.2Z" transform="translate(0 167.6)" style="fill:#061e43"/><path d="M174.4,271.2a1.17,1.17,0,0,1,.9,1.1v56.4a3.08,3.08,0,0,1-1.4,2.5l-26.2,15.1a.88.88,0,0,1-.7.1,1.08,1.08,0,0,1-.8-.2,1.13,1.13,0,0,0,1.5.4l26.6-15.3a3,3,0,0,0,1.5-2.5V272.3a1.13,1.13,0,0,0-1.2-1.1Z" transform="translate(0 167.6)" style="fill:#2e4d65"/><path d="M173.6,271.3l-26.2,15.1a2.85,2.85,0,0,0-1.4,2.5v56.7a1.42,1.42,0,0,0,.2.6,1.28,1.28,0,0,0,1.2.2h.1a.35.35,0,0,0,.2-.1l26.2-15.1a2.85,2.85,0,0,0,1.4-2.5V272.2a1.11,1.11,0,0,0-1.1-1.1C174,271.2,173.8,271.2,173.6,271.3Z" transform="translate(0 167.6)" style="fill:#b5e3df"/><path d="M173.6,271.3l-26.2,15.1a2.85,2.85,0,0,0-1.4,2.5v9c7.7-4.1,21.2-9,29.3,1.1V272.2a1.11,1.11,0,0,0-1.1-1.1C174,271.2,173.8,271.2,173.6,271.3Z" transform="translate(0 167.6)" style="fill:#fff;opacity:0.699999988079071;isolation:isolate"/><path d="M169.2,305.6a13.8,13.8,0,0,1-2.2,7.1l2.5,1a19.8,19.8,0,0,0,3-10,9.86,9.86,0,0,0-.3-2.4l-3.2,2.8A2.4,2.4,0,0,1,169.2,305.6Z" transform="translate(0 167.6)" style="fill:#144d4c"/><path d="M169.1,304l2-1.8,1.2-1c-1.2-4.6-5.7-6-11.1-2.9v3.5C165.1,299.6,168.3,300.7,169.1,304Z" transform="translate(0 167.6)" style="fill:#41b3a7"/><path d="M160.2,298.9a8.79,8.79,0,0,1,1-.6h0v3.5h0c-4.4,2.5-7.8,8.2-7.8,12.8a5,5,0,0,0,1.7,4.1c1.5,1.1,3.8,1.1,6.3-.3a17,17,0,0,0,5.6-5.7l1.5.5,1.1.4a22.24,22.24,0,0,1-8.1,8.3c-3.5,2-6.7,2.1-8.8.6-1.6-1.1-2.6-3.1-2.6-6C150,310.4,154.5,302.7,160.2,298.9Z" transform="translate(0 167.6)" style="fill:#ffd131"/><polygon points="187.9 500.6 187.7 499.8 188.4 498.6 188.9 497 190.5 496.4 190 498.7 190 499.7 189.7 500.7 189.2 501.9 188.3 502.1 187.7 501.9 187.9 500.6" style="fill:#f7b6c7"/><path d="M192.3,324.3l-1.5,5.5a1.91,1.91,0,0,1-.5,1,1.27,1.27,0,0,1-.6.1c-.7-.2-1.2-.6-1.1-1l.9-6.3-1.8-5.6a1.39,1.39,0,0,1-.2-1.1,2.57,2.57,0,0,1,.2-.5,2.09,2.09,0,0,1,.4-.6,1.38,1.38,0,0,1,.4-.3,2.13,2.13,0,0,1,1.2-.7l.3-.1c.4-.1.6,0,.7.3a54.66,54.66,0,0,1,1.6,7A17.63,17.63,0,0,1,192.3,324.3Z" transform="translate(0 167.6)" style="fill:#3d6e73"/><path d="M185.5,364.1v-.4l-.2-.8V360l-2.6-.1v2l-2.5.5a5.64,5.64,0,0,0-1.2.4l-.4.3a.52.52,0,0,0-.2.4c0,.2.1.2.3.3l4.9,1a2.13,2.13,0,0,0,1.6-.3Z" transform="translate(0 167.6)" style="fill:#0d0d10"/><path d="M190.9,360.7c0-.2.1-.4.1-.6l-.3-.8-.1-2.8h-2.1v2.1l-1.4-.3a2,2,0,0,0-1.1.3l-.3.3c0,.1-.2.3-.2.4s0,.5.2.6l3.4,1.9a1.57,1.57,0,0,0,1.5-.5Z" transform="translate(0 167.6)" style="fill:#0d0d10"/><path d="M179.7,331.8c.7-2.1,6-.7,8.3-1.3s2.9,0,2.9,0V335a.6.6,0,0,1-.1.4l-.4,9.3.4,13.1c.1,1.2-.3,1.5-2.2,1.4l-.3-.1a1.35,1.35,0,0,1-.5-.9l-1-12.6-.6-7.9-.9.2v10.9l.4,12.1a1.42,1.42,0,0,1-1.4,1.3.9.9,0,0,1-.5-.1l-.6-.3a1.34,1.34,0,0,1-.8-1.3l-2.8-24.7h0A18.12,18.12,0,0,1,179.7,331.8Z" transform="translate(0 167.6)" style="fill:#070b3b"/><path d="M180.7,316.9s2.9-3.8,7.3-3.7,2.4,6,2.6,11.7,2.1,7.4-1.8,8.8-4.8,2-6.1,1.7-2.3.6-3.2-.7c-.8-1.1-.7-1.2-.4-2.6a69.46,69.46,0,0,0,.1-10.2C179,320.1,179.8,317.5,180.7,316.9Z" transform="translate(0 167.6)" style="fill:#3d6e73"/><path d="M183.1,313v2.2a1.57,1.57,0,0,0,1.7,1.4h.1a1.59,1.59,0,0,0,1.4-1.4v-3.4Z" transform="translate(0 167.6)" style="fill:#fca372"/><path d="M183.7,305.6c-.5.1-1.2,0-1.5.4a3.93,3.93,0,0,0-1.3,2.1c-.4,1.5-.6,3.3-.1,4a7.74,7.74,0,0,0,2.8,1.9,3.69,3.69,0,0,0,2.9-2.2c.8-1.7,1.5-3.2,1.2-3.9A3.89,3.89,0,0,0,183.7,305.6Z" transform="translate(0 167.6)" style="fill:#fca372"/><path d="M184.6,312.7c.5.5.7.7,1.6.3a1.52,1.52,0,0,0,1-1.3c.2-.9,1.1-1.9,1-3s-.8-3.8-2.4-3.9-1.7-1.1-2.4-1.1a3.14,3.14,0,0,0-2.8,2.1c-.4,1.6.4,2.2.9,2s.9.9.8,1.6,0,.5,0,.7.3.1.3.1a2.65,2.65,0,0,1,.5-.6c.2-.2,1.1-.5,1.1.4s-.4.8-.3,1.5C184.2,312,184.4,312.4,184.6,312.7Z" transform="translate(0 167.6)" style="fill:#070b3b"/><polygon points="169.5 479.4 167.7 477.4 167 475.8 166.4 475.1 165.7 474.6 165.7 475.2 166 475.4 166.2 475.8 166 475.9 165.3 475.1 164.5 474.1 164.3 474.5 165 475.7 165 477.4 165.7 478.4 166.6 479 168.5 481 169.5 479.4" style="fill:#fca372"/><path d="M180.1,317.3l-6.6-1.5-5-5.3c-.3-.4-1.2.2-1.4.6l-.1.2a1.32,1.32,0,0,0,.2,1.2l4,5.8a5,5,0,0,0,1.4,1s5.5,2.6,7.1,3.1c.9.3,1.2-1,1.6-1.9v-.6C181.4,318.9,180.9,317.4,180.1,317.3Z" transform="translate(0 167.6)" style="fill:#3d6e73"/><path d="M309,291.6l-7,4.1a3,3,0,0,1-2.9,0l-28.2-16.3a1.34,1.34,0,0,1-.5-1.9,1.21,1.21,0,0,1,.5-.5l7.2-4.2a2,2,0,0,1,2.1,0L309,289.4a1.28,1.28,0,0,1,.5,1.7A.82.82,0,0,1,309,291.6Z" transform="translate(0 167.6)" style="fill:#070b3b"/><path d="M309,291l-7,4.1a3,3,0,0,1-2.9,0l-28.3-16.4a1.34,1.34,0,0,1-.5-1.9,1.21,1.21,0,0,1,.5-.5l7.2-4.2a2,2,0,0,1,2.1,0l28.8,16.7a1.3,1.3,0,0,1,.4,1.8C309.4,290.7,309.2,290.8,309,291Z" transform="translate(0 167.6)" style="fill:#061e43"/><polygon points="301.3 429 301.3 455.6 283.2 445.2 283.2 418.6 301.3 429" style="fill:#006286"/><polygon points="299.7 429.9 299.7 456.5 281.7 446 281.7 419.5 299.7 429.9" style="fill:#071841"/><polygon points="299.7 456.5 301.3 455.6 301.3 429 299.7 429.9 299.7 456.5" style="fill:#33769e"/><polygon points="299.7 456.5 301.3 455.6 301.3 429 299.7 429.9 299.7 456.5" style="fill:#070b3b;opacity:0.6000000238418579;isolation:isolate"/><path d="M259,197l3-1.6h0a2.87,2.87,0,0,1,2.2-.3h0c.2.1.5.2.7.3l64.3,37.1a6.5,6.5,0,0,1,3.2,5.6v53.5a2.82,2.82,0,0,1-1.5,2.5h0l-2.6,1.6.3-.2a2.84,2.84,0,0,0,1.1-2.3v-2.1l-61.8-36.7a6.46,6.46,0,0,1-3.1-5.5l-.8-50.4Z" transform="translate(0 167.6)" style="fill:#070b3b"/><path d="M261,258.5l64.4,37.1a2.94,2.94,0,0,0,4-1.1,2.3,2.3,0,0,0,.4-1.4V239.5a6.5,6.5,0,0,0-3.2-5.6l-64.4-37.1a2.94,2.94,0,0,0-4,1.1,2.3,2.3,0,0,0-.4,1.4v53.6A6.38,6.38,0,0,0,261,258.5Z" transform="translate(0 167.6)" style="fill:#061e43"/><polygon points="260.3 413.5 327.3 452.1 327.3 407.8 260.3 369.1 260.3 413.5" style="fill:#b5e3df"/><g style="opacity:0.9200000166893005"><polygon points="264.1 399.7 264.1 412.6 324.4 447.4 324.4 420.6 315.4 404.1 306.9 411.6 298.5 401.3 290.1 407.4 281.6 400.8 273.2 406.2 264.1 399.7" style="fill:#ffd131"/></g><path d="M260.3,201.5v24.8c13.3.1,43.2,2.9,67.1,24.4V240.2Z" transform="translate(0 167.6)" style="fill:#edf8f1"/><path d="M287.5,325.3c-.1-.2-.1-.4-.2-.6l.2-.7v-2.9l2.6-.1v2l2.4.5a5.64,5.64,0,0,1,1.2.4l.4.3a.52.52,0,0,1,.2.4c0,.2.1.3-.1.5a38.64,38.64,0,0,1-4.9,1,1.75,1.75,0,0,1-1.7-.3Z" transform="translate(0 167.6)" style="fill:#002a43"/><path d="M279.1,324.5c0-.2-.1-.4-.1-.6l.2-.8.1-3.1h2.1v2.5l1.5-.4a2,2,0,0,1,1.1.3l.3.2c0,.1.2.3.2.4s0,.5-.2.6l-3.5,2a1.57,1.57,0,0,1-1.5-.5Z" transform="translate(0 167.6)" style="fill:#002a43"/><path d="M290.5,321.7l-.4-23.5h0c0-1.4-.2-3.2-.2-3.2-.6-2.1-6-.6-8.2-1.3s-2.9,0-2.9,0c-.4.1-.8,2.4,0,4.5,0,.1.1.2.2.4v11.2l.3,11.5c-.1,1.2.3,1.4,2.2,1.4l.3-.1a1.35,1.35,0,0,0,.5-.9l.6-12.4.4-8.3,1.3.3,2.4,10.8.4,10.1c.1.9.4,1.2,1.5,1l1-.1C290.8,322.8,290.5,322.2,290.5,321.7Z" transform="translate(0 167.6)" style="fill:#070b3b"/><path d="M296,283a10.93,10.93,0,0,1,.8-1.5l1-1.4v-1.3l-1-1.7-1.9-.5-.4.5-.1.1-.7,1-.2.5,1.3,2.4-.9,1.6,1.8.6Z" transform="translate(0 167.6)" style="fill:#fca372"/><path d="M288.5,278h0l4.4-6a.37.37,0,0,1,.3-.1l6.9,3a.1.1,0,0,1,.1.1h0v.2h0v.1l-4.4,6a.37.37,0,0,1-.3.1l-6.9-3c-.1,0-.1-.1-.1-.2h0Z" transform="translate(0 167.6)" style="fill:#d6ecf3"/><path d="M300.3,275.2l-4.4,6a.37.37,0,0,1-.3.1l-6.9-3c-.1-.1-.2-.2-.1-.4v-.1l4.4-6a.37.37,0,0,1,.3-.1l6.9,3a.44.44,0,0,1,.1.5Z" transform="translate(0 167.6)" style="fill:#fff"/><polygon points="299.9 442.8 295.8 448.4 289 445.5 293.1 439.8 299.9 442.8" style="fill:#b5e3df"/><line x1="293.1" y1="439.8" x2="299.9" y2="442.8" style="fill:none"/><path d="M292.8,275.4l1.8,1.2-2.5,1a.9.9,0,0,0,.6.6h0a3.49,3.49,0,0,0,3.8-.5h0c1.1-.9,1.2-2.2.2-2.9h0A3.71,3.71,0,0,0,292.8,275.4Z" transform="translate(0 167.6)" style="fill:#4a878c"/><path d="M292.4,275.4h0a2.1,2.1,0,0,0-.8,2.2l2.6-1Z" transform="translate(0 167.6)" style="fill:#ffd131"/><polygon points="297.8 447.7 297.3 446.6 296.5 445.9 296.4 446.3 296.7 447 296.1 447.7 296.1 449.1 296.9 449.1 297.8 447.7" style="fill:#fca372"/><path d="M286.6,280.5c.4-.7,1.9-1,2.3-.4a49.1,49.1,0,0,1,2.8,6.2l1.2-2.2a8.17,8.17,0,0,1,1.2-2c.2-.3.3-.1.6,0s1.5.6,1.5.6c.3.1.1.3,0,.6a27.28,27.28,0,0,1-2.8,6,2,2,0,0,1-2.6.8,1.34,1.34,0,0,1-.7-.6l-3.4-5.9A3.37,3.37,0,0,1,286.6,280.5Z" transform="translate(0 167.6)" style="fill:#a8e3f7"/><polygon points="292.4 443.3 291.3 443.3 290.5 443.9 287.9 446.2 288.9 448 290.5 446 291.5 445.8 292.8 445.1 292.9 444.1 294.3 443.8 294.4 443.4 292.4 443.3" style="fill:#fca372"/><path d="M289.9,278.9c-.1-.4-1.2-1.5-1.6-1.2a17.83,17.83,0,0,0-2.2,2.6l-2,2.5a29.26,29.26,0,0,0-3.3-5.3c-.7-.7-1.6-.2-2.3.5l-.1.1c-.7.9-.4,1.9.3,2.9,1.1,1.5,4.2,5.6,4.2,5.6a1.9,1.9,0,0,0,1.8.1l5.1-6.7a1,1,0,0,0,.2-.7C290,279.2,289.9,279.1,289.9,278.9Z" transform="translate(0 167.6)" style="fill:#a8e3f7"/><path d="M285,296.1l-3.7-1-2.8-1.4a3.39,3.39,0,0,1-.6-1.5c-.1-1.6.7-3.5.7-5.2.2-5.7-2.6-10,1.7-10.1a14,14,0,0,1,7.9,2.5c.9.6,1.9,3.8,1.8,5.7-.1,1.6-1.5,3.1.2,8.5.1.3,0,1.4-.5,1.4C288.3,296.7,285.5,296.2,285,296.1Z" transform="translate(0 167.6)" style="fill:#a8e3f7"/><path d="M286,276c.1.1.2.2.2.3l-.1,2a1.68,1.68,0,0,1-1.9,1.3h-.1a1.5,1.5,0,0,1-1.3-1.5l.2-2.6a.32.32,0,0,1,.3-.3h.1Z" transform="translate(0 167.6)" style="fill:#fca372"/><path d="M286.9,268.9c.5.2,1.1.3,1.4.8a4.38,4.38,0,0,1,.8,2.5c0,1.6-.3,3.4-.9,4a6.37,6.37,0,0,1-3.3,1.2,4.22,4.22,0,0,1-2.3-2.9c-.4-1.9-.7-3.6-.2-4.1A3.68,3.68,0,0,1,286.9,268.9Z" transform="translate(0 167.6)" style="fill:#fca372"/><path d="M287.5,267.1a3.24,3.24,0,0,1,2.2,2.8c0,1.7-.9,2.1-1.4,1.7s-1.1.6-1.2,1.4-.1.5-.2.7-.4.1-.4.1c0-.2-.1-.4-.1-.6a.38.38,0,0,0-.7,0,1.27,1.27,0,0,0,0,1.2,1.08,1.08,0,0,1,0,1.1,1.47,1.47,0,0,1-1.1.9,2.5,2.5,0,0,1-1.8-.8,2.15,2.15,0,0,1-.9-1.1s-.8-2.5-.4-3.5,1.7-3.6,3.3-3.3S286.9,266.9,287.5,267.1Z" transform="translate(0 167.6)" style="fill:#fff"/><rect x="258.7" width="470.1" height="352.6" style="fill:none"/><g style="opacity:0.5"><path d="M145.5,59.7a19.42,19.42,0,0,0-2.4-.2c-5,0-10.6,2.4-13.4,7A20.05,20.05,0,0,0,127.5,82c.1,0,.5.7.6.8a29.84,29.84,0,0,1-.4-4.2A18.61,18.61,0,0,1,145.5,59.7Z" transform="translate(0 167.6)" style="fill:#a1dbcc;opacity:0.5;isolation:isolate"/></g><g style="opacity:0.5"><path d="M145.5,59.9a19.42,19.42,0,0,0-2.4-.2c-5,0-10.6,2.4-13.4,7a20.05,20.05,0,0,0-2.2,15.5c.1,0,.5.7.6.8a29.84,29.84,0,0,1-.4-4.2C127.7,68.5,135.6,60.1,145.5,59.9Z" transform="translate(0 167.6)" style="fill:#a1dbcc;opacity:0.5;isolation:isolate"/></g><g style="opacity:0.5"><path d="M145.6,59.6a19.42,19.42,0,0,0-2.4-.2c-5,0-10.6,2.4-13.4,7a20.05,20.05,0,0,0-2.2,15.5c.1,0,.5.8.6.8a29.84,29.84,0,0,1-.4-4.2C127.8,68.2,135.7,59.8,145.6,59.6Z" transform="translate(0 167.6)" style="fill:#4a878c;opacity:0.5;isolation:isolate"/></g><g style="opacity:0.5"><path d="M145.4,59.5a19.42,19.42,0,0,0-2.4-.2c-5,0-10.6,2.4-13.4,7a20.05,20.05,0,0,0-2.2,15.5c.1,0,.5.8.6.8a29.84,29.84,0,0,1-.4-4.2C127.6,68.2,135.5,59.8,145.4,59.5Z" transform="translate(0 167.6)" style="fill:#4a878c;opacity:0.5;isolation:isolate"/></g><g style="opacity:0.5"><path d="M145.6,59.5a19.42,19.42,0,0,0-2.4-.2c-5,0-10.6,2.4-13.4,7a20.05,20.05,0,0,0-2.2,15.5c.1,0,.5.8.6.8a29.84,29.84,0,0,1-.4-4.2C127.8,68.2,135.7,59.8,145.6,59.5Z" transform="translate(0 167.6)" style="fill:#4aa4c2;opacity:0.5;isolation:isolate"/></g></g></svg>