<svg xmlns="http://www.w3.org/2000/svg" xmlns:xlink="http://www.w3.org/1999/xlink" viewBox="0 0 349.85 382.71"><defs><style>.accd687d-9afb-4961-9f12-5a058ba410ef{isolation:isolate;}.ee624b7f-a4f3-4c20-9d88-2e5ebd242106{fill:#22b573;}.ee624b7f-a4f3-4c20-9d88-2e5ebd242106,.f0cee8ce-7f21-4f61-a8ef-7092133fb38a{opacity:0.1;}.a22104ba-474e-4ea3-882a-46047e153bea,.a80d191d-11cf-42fc-85b8-210009e71f4c{fill:#070b3b;}.b04f7bf1-42f0-4d2d-9ae4-bb72f65f61cd,.bd22fffa-165b-4378-9413-f1ced9cd9787{fill:#a8e3f7;}.bd22fffa-165b-4378-9413-f1ced9cd9787{opacity:0.86;}.a240a617-16d7-41bb-8172-dee377e00560,.b1eb18a3-11ce-422c-b6d1-3ec697400f99{fill:#4aa4c2;}.a240a617-16d7-41bb-8172-dee377e00560,.a3e1ceb5-56ad-4d79-ab99-8823fcb8d344,.a6012fbe-caab-4244-8420-ecafa1085a54,.ad68c2bc-5812-46e7-8280-a8cb49329fc0,.e26c5056-ca9c-4e3b-9911-f07816a42d31,.e8b9d3b1-e2cc-46ea-9102-e4d54b8f0c7a,.eb96b5fa-4c9c-4b85-bdf7-3ab7f3352fa5,.ed306b4b-58c8-460f-9294-aa2a3aa1e65b,.ee9bc094-b223-4aac-87ad-3ba8a8d6d380{opacity:0.5;}.a3e1ceb5-56ad-4d79-ab99-8823fcb8d344,.a6158332-ec7f-480f-bfac-9f511ca2af37,.acf023be-8054-4054-bba1-61d94dfbd4fe{fill:#fff;}.a027e679-45e6-4fce-888a-90631266c209{fill:#005486;}.e1427b10-9b13-4531-88e2-f5ebb560bda3{fill:#061e43;}.fd82de32-2b66-4f33-a5af-8545a55a4556{fill:#ffd131;}.eacc3dc4-5e7f-4288-aec2-fbc862e71442{fill:#032837;opacity:0.2;}.a5226ffa-db6d-4f93-8a06-55318688076d,.ee9bc094-b223-4aac-87ad-3ba8a8d6d380{fill:#506c75;}.a1fb710f-6366-408a-b32d-92275f8999e3{fill:#eeefef;}.e5deda79-39ac-42a4-a3fe-2f1676a5fb1d{fill:#d1d1d0;}.a6158332-ec7f-480f-bfac-9f511ca2af37,.a703607b-596b-4d4b-a6e4-714492e664a4,.bc113619-8411-4d1b-b67a-2ff3352c0db2,.e5deda79-39ac-42a4-a3fe-2f1676a5fb1d{opacity:0.7;}.e14f9bc5-f5b7-4710-98aa-55cf6dfbebd0{fill:#be8f21;}.f0b9fea6-dbcb-4d85-92a1-8b9e7d461e06{fill:#edf9fe;}.fef64954-ee72-48a9-a6a2-3bf08506d3f5{fill:#a7a8ab;}.af846c6f-6388-45b5-899d-e782e7b6bc29,.e26c5056-ca9c-4e3b-9911-f07816a42d31{fill:#071841;}.bc3c4432-2044-4f96-913d-d9a2de581b6b{fill:#f05c4f;}.a89db4e0-f404-4a8f-9f5c-c6cd6818c517,.afaef39e-8078-46a0-8c72-02a30cfe9b2b{fill:#b5e3df;}.afaef39e-8078-46a0-8c72-02a30cfe9b2b,.f84a4821-4405-4859-b35d-8ed0f016bc1c{opacity:0.54;mix-blend-mode:multiply;}.b782ba15-5e3f-4f31-92f6-c948a76896fc{fill:#af6641;}.a10a1eff-a193-449b-9f5f-d0590c9f8f8a{fill:#203443;}.ac9c0c4d-88d7-4615-9f2a-6216513f1eb3{fill:#005386;}.b4849894-d11c-4a86-8fc5-bbad40b9412d{fill:#231f20;}.f3663fed-e2ca-4b5f-b3b7-a8c410370f7d{fill:#8c797e;}.f79e26ec-5732-4eaf-8da5-e4fc0c651a77{fill:#2d6375;}.a707ddaa-aa57-49c8-a3b5-655a0d823c8c,.a8f3f732-d44e-49d2-b021-45bd01400a44,.a927ec2f-4885-4fcb-bb73-cb036bf45649,.ace28890-2bc9-470b-9870-c2d066f58789,.b5e58ef3-57ce-41d8-adc0-32919f2a92aa,.e10f0008-99c4-45d6-888a-9f840e294d12,.f1bc89d3-1f3f-4027-bf0d-77b264f7cbcd{opacity:0.3;}.a6158332-ec7f-480f-bfac-9f511ca2af37,.a703607b-596b-4d4b-a6e4-714492e664a4,.a707ddaa-aa57-49c8-a3b5-655a0d823c8c,.a8f3f732-d44e-49d2-b021-45bd01400a44,.a927ec2f-4885-4fcb-bb73-cb036bf45649,.ace28890-2bc9-470b-9870-c2d066f58789,.ad68c2bc-5812-46e7-8280-a8cb49329fc0,.b5e58ef3-57ce-41d8-adc0-32919f2a92aa,.b678d7fa-df78-4ba1-9669-35c74f96c81b,.bc113619-8411-4d1b-b67a-2ff3352c0db2,.bec40291-97e0-42f9-b7d0-5a6df3d6610f,.e10f0008-99c4-45d6-888a-9f840e294d12,.e2d8e45d-ed5a-40c1-b0b9-ac6e08f49b47,.e8b9d3b1-e2cc-46ea-9102-e4d54b8f0c7a,.f1bc89d3-1f3f-4027-bf0d-77b264f7cbcd,.f6b5c63b-6871-4352-a9cf-b6c17806a93a{mix-blend-mode:screen;}.a8f3f732-d44e-49d2-b021-45bd01400a44{fill:url(#aaa8b1bd-234c-45e1-b4e2-fbaef8284c89);}.bec40291-97e0-42f9-b7d0-5a6df3d6610f{opacity:0.4;}.ae39c1cb-cdfb-4050-98c4-8ce5be1506a3{fill:url(#a72d7171-9ae7-46ff-825a-a8327703fa84);}.ff073a64-adc9-48f2-95f0-e3b826f8354f{fill:url(#b8bf72d2-f056-45c7-9beb-52ddc055ea9b);}.a61c915f-6e2e-41da-974b-7c517f372422{fill:#41b3a7;}.b86ca86e-1f35-4262-8c8b-dd13a7cad07d{fill:#98d0e1;}.ba28ad9e-e274-4509-9609-19bc53c2317d{fill:url(#ad591cfc-5a11-4e45-bc2a-99c35426c411);}.b52be0ec-4746-4144-9ffc-8d03ebfb9c37{fill:url(#b2dc7fbb-84f4-4ab6-9adc-6e21ea2ef218);}.ff6705e2-b0a8-4fa7-92b1-73b454bb9de6{fill:url(#f7d9290c-5127-4f95-a2cb-57080255898f);}.b9ee6071-e60b-4d47-9abf-561af21b4a59{fill:url(#eb3feed5-20f8-4380-95d4-eb85b89eea7a);}.f1bc89d3-1f3f-4027-bf0d-77b264f7cbcd{fill:url(#a5768f0d-45ea-4ca3-8aad-d26ad7d3b0a8);}.a707ddaa-aa57-49c8-a3b5-655a0d823c8c{fill:url(#b8547974-31e9-45c0-b818-fe853af79bf1);}.f6b5c63b-6871-4352-a9cf-b6c17806a93a{fill:url(#b5b56aae-107d-4bd0-ae2e-18818f6e7d76);}.ad68c2bc-5812-46e7-8280-a8cb49329fc0{fill:url(#e66427a4-b783-42ac-96aa-b286a98df8f3);}.a703607b-596b-4d4b-a6e4-714492e664a4{fill:url(#a53560d5-aa23-4721-925e-c1aa0d8bd3cc);}.ace28890-2bc9-470b-9870-c2d066f58789{fill:url(#af284cc9-d299-4e62-a8e5-cff6a0938713);}.b1ba3e70-b4b6-4f09-bc49-34b9412da08e{fill:url(#ab0e65cd-4a22-4988-a2ed-5331bf1205e7);}.a63b6815-652e-489f-ac94-fec09fac7a35{fill:url(#a6d317f8-7c79-4668-b1f2-f31f7c8ecdd1);}.bae24bd8-dbf7-4f5e-9296-5c4efcf6fc55{fill:url(#b7388ceb-7e6f-49df-ab51-fab31b1725fb);}.e3643641-f872-41d9-a798-bdedb0cff369{fill:url(#ac6dc3e2-e190-4dbb-87c0-b6eea6eb5a55);}.b78caeb9-ea22-4a88-8f79-82a6b9e023e1{fill:url(#ae995dcf-4a98-430e-9418-ee03b6da1c5d);}.a0dfe2ac-0728-4237-ae03-c9e1420a4bf2{fill:url(#a2497715-8b2d-4dd8-8f85-d556ff3f91e3);}.a927ec2f-4885-4fcb-bb73-cb036bf45649{fill:url(#b1234e3c-2804-45c4-8ff6-c4366f1d51ef);}.b5e58ef3-57ce-41d8-adc0-32919f2a92aa{fill:url(#b4c870b4-58e3-4a6e-a639-d3545c3455b3);}.b678d7fa-df78-4ba1-9669-35c74f96c81b{fill:url(#e574ec2a-fa0c-4624-bcd4-4096fcf77288);}.e8b9d3b1-e2cc-46ea-9102-e4d54b8f0c7a{fill:url(#af391a5a-dc22-44af-b8ae-28464f8632cd);}.bc113619-8411-4d1b-b67a-2ff3352c0db2{fill:url(#ab04a581-969a-489d-aace-ab210787291e);}.a26cd919-fca5-47ce-bd70-4a6c42aed5a7{fill:#144d4c;}.b6fda832-1575-439c-b3b7-2ab7c0ef05ae{fill:#196592;}.fd1a71d2-0d59-4af5-b11b-23f15c55721b{fill:#2e4d65;}.ec4cc0bc-eb62-4339-be32-d08408a84902{fill:#f7b6c7;}.a3090907-ac64-4e8e-b8db-305a54cd70a0{fill:#3d6e73;}.fd5ccbd4-33d0-4775-be2f-f50bbb8b1d51{fill:#0d0d10;}.fb36001d-c2eb-4f7d-9f0e-ec8cc85ed98b{fill:#f9d8c7;}.acc9ee72-c8c3-4a63-ae11-79965dfaa759{fill:#006286;}.b21e470b-8bf7-48f3-8fef-3ab071ec542b{fill:#33769e;}.a22104ba-474e-4ea3-882a-46047e153bea{opacity:0.6;}.a53e1b03-597d-459e-8b6f-e16e92408636{opacity:0.92;}.e2d8e45d-ed5a-40c1-b0b9-ac6e08f49b47{fill:#edf8f1;}.b6e1030c-3b48-4576-98ac-0d649eff2afe{fill:#002a43;}.fc004439-ce2b-404c-8d80-9c213c76b94c{fill:#fca372;}.b87fc5b4-2f84-4f45-ae06-2cb6ef6752e8{fill:#d6ecf3;}.f48cce3d-9388-42a0-b644-72f0a5a53fb3{fill:url(#b6965a48-7e55-45df-84e1-d14e5338e8e6);}.a6012fbe-caab-4244-8420-ecafa1085a54,.a77a45db-3d32-46a6-b31c-2e5bdc8590ac{fill:#4a878c;}.eb96b5fa-4c9c-4b85-bdf7-3ab7f3352fa5{fill:#a1dbcc;}</style><linearGradient id="aaa8b1bd-234c-45e1-b4e2-fbaef8284c89" x1="126.62" y1="297.38" x2="126.62" y2="271.94" gradientUnits="userSpaceOnUse"><stop offset="0" stop-color="#98d0e1"/><stop offset="1"/></linearGradient><linearGradient id="a72d7171-9ae7-46ff-825a-a8327703fa84" x1="120.68" y1="305.93" x2="127.33" y2="305.93" xlink:href="#aaa8b1bd-234c-45e1-b4e2-fbaef8284c89"/><linearGradient id="b8bf72d2-f056-45c7-9beb-52ddc055ea9b" x1="120.68" y1="307.09" x2="127.33" y2="307.09" xlink:href="#aaa8b1bd-234c-45e1-b4e2-fbaef8284c89"/><linearGradient id="ad591cfc-5a11-4e45-bc2a-99c35426c411" x1="120.68" y1="309.79" x2="127.33" y2="309.79" xlink:href="#aaa8b1bd-234c-45e1-b4e2-fbaef8284c89"/><linearGradient id="b2dc7fbb-84f4-4ab6-9adc-6e21ea2ef218" x1="120.68" y1="310.95" x2="127.33" y2="310.95" xlink:href="#aaa8b1bd-234c-45e1-b4e2-fbaef8284c89"/><linearGradient id="f7d9290c-5127-4f95-a2cb-57080255898f" x1="120.68" y1="313.68" x2="127.33" y2="313.68" xlink:href="#aaa8b1bd-234c-45e1-b4e2-fbaef8284c89"/><linearGradient id="eb3feed5-20f8-4380-95d4-eb85b89eea7a" x1="120.68" y1="314.84" x2="127.33" y2="314.84" xlink:href="#aaa8b1bd-234c-45e1-b4e2-fbaef8284c89"/><linearGradient id="a5768f0d-45ea-4ca3-8aad-d26ad7d3b0a8" x1="120.68" y1="317.51" x2="127.33" y2="317.51" xlink:href="#aaa8b1bd-234c-45e1-b4e2-fbaef8284c89"/><linearGradient id="b8547974-31e9-45c0-b818-fe853af79bf1" x1="120.68" y1="318.67" x2="127.33" y2="318.67" xlink:href="#aaa8b1bd-234c-45e1-b4e2-fbaef8284c89"/><linearGradient id="b5b56aae-107d-4bd0-ae2e-18818f6e7d76" x1="125.83" y1="305.66" x2="125.83" y2="279.32" gradientUnits="userSpaceOnUse"><stop offset="0.29" stop-color="#98d0e1"/><stop offset="1"/></linearGradient><linearGradient id="e66427a4-b783-42ac-96aa-b286a98df8f3" x1="113.04" y1="298.28" x2="113.04" y2="271.94" xlink:href="#aaa8b1bd-234c-45e1-b4e2-fbaef8284c89"/><linearGradient id="a53560d5-aa23-4721-925e-c1aa0d8bd3cc" x1="112.25" y1="305.66" x2="112.25" y2="280.22" xlink:href="#aaa8b1bd-234c-45e1-b4e2-fbaef8284c89"/><linearGradient id="af284cc9-d299-4e62-a8e5-cff6a0938713" x1="253.68" y1="303.31" x2="253.68" y2="277.88" xlink:href="#aaa8b1bd-234c-45e1-b4e2-fbaef8284c89"/><linearGradient id="ab0e65cd-4a22-4988-a2ed-5331bf1205e7" x1="247.74" y1="311.89" x2="254.39" y2="311.89" xlink:href="#aaa8b1bd-234c-45e1-b4e2-fbaef8284c89"/><linearGradient id="a6d317f8-7c79-4668-b1f2-f31f7c8ecdd1" x1="247.74" y1="313.05" x2="254.39" y2="313.05" xlink:href="#aaa8b1bd-234c-45e1-b4e2-fbaef8284c89"/><linearGradient id="b7388ceb-7e6f-49df-ab51-fab31b1725fb" x1="247.74" y1="315.75" x2="254.39" y2="315.75" xlink:href="#aaa8b1bd-234c-45e1-b4e2-fbaef8284c89"/><linearGradient id="ac6dc3e2-e190-4dbb-87c0-b6eea6eb5a55" x1="247.74" y1="316.91" x2="254.39" y2="316.91" xlink:href="#aaa8b1bd-234c-45e1-b4e2-fbaef8284c89"/><linearGradient id="ae995dcf-4a98-430e-9418-ee03b6da1c5d" x1="247.74" y1="319.65" x2="254.39" y2="319.65" xlink:href="#aaa8b1bd-234c-45e1-b4e2-fbaef8284c89"/><linearGradient id="a2497715-8b2d-4dd8-8f85-d556ff3f91e3" x1="247.74" y1="320.81" x2="254.39" y2="320.81" xlink:href="#aaa8b1bd-234c-45e1-b4e2-fbaef8284c89"/><linearGradient id="b1234e3c-2804-45c4-8ff6-c4366f1d51ef" x1="247.74" y1="323.48" x2="254.39" y2="323.48" xlink:href="#aaa8b1bd-234c-45e1-b4e2-fbaef8284c89"/><linearGradient id="b4c870b4-58e3-4a6e-a639-d3545c3455b3" x1="247.74" y1="324.64" x2="254.39" y2="324.64" xlink:href="#aaa8b1bd-234c-45e1-b4e2-fbaef8284c89"/><linearGradient id="e574ec2a-fa0c-4624-bcd4-4096fcf77288" x1="252.89" y1="311.59" x2="252.89" y2="285.25" xlink:href="#b5b56aae-107d-4bd0-ae2e-18818f6e7d76"/><linearGradient id="af391a5a-dc22-44af-b8ae-28464f8632cd" x1="240.1" y1="304.21" x2="240.1" y2="277.88" xlink:href="#aaa8b1bd-234c-45e1-b4e2-fbaef8284c89"/><linearGradient id="ab04a581-969a-489d-aace-ab210787291e" x1="239.31" y1="311.59" x2="239.31" y2="286.15" xlink:href="#aaa8b1bd-234c-45e1-b4e2-fbaef8284c89"/><linearGradient id="b6965a48-7e55-45df-84e1-d14e5338e8e6" x1="301.02" y1="279.4" x2="307.86" y2="279.4" xlink:href="#aaa8b1bd-234c-45e1-b4e2-fbaef8284c89"/></defs><g class="accd687d-9afb-4961-9f12-5a058ba410ef"><g id="be95d104-918d-491c-bb6b-4d11b509f964" data-name="Layer 1"><polygon class="ee624b7f-a4f3-4c20-9d88-2e5ebd242106" points="193.83 186.14 190.1 185.07 190.1 188.72 193.83 186.14"/><path class="a80d191d-11cf-42fc-85b8-210009e71f4c" d="M265.67,248.42,212,218.05A11.63,11.63,0,0,1,206.16,208V116.77h.25V208a11.35,11.35,0,0,0,5.75,9.87l53.64,30.38Z"/><path class="a80d191d-11cf-42fc-85b8-210009e71f4c" d="M184.27,330.72l-.13-.22,34.22-19.71a11.35,11.35,0,0,0,0-19.65l-63.1-36.38a11.58,11.58,0,0,1,0-20l31.68-18.43a11.37,11.37,0,0,0,5.64-9.8V116.21h.25v90.27a11.64,11.64,0,0,1-5.76,10l-31.68,18.42a11.34,11.34,0,0,0,0,19.62l63.1,36.39a11.58,11.58,0,0,1,0,20.07Z"/><path class="a80d191d-11cf-42fc-85b8-210009e71f4c" d="M89,263.14l-.12-.22,80.72-47a11.37,11.37,0,0,0,5.63-9.79V113.46h.25v92.63a11.64,11.64,0,0,1-5.76,10Z"/><path class="bd22fffa-165b-4378-9413-f1ced9cd9787" d="M254.2,69.07a52.92,52.92,0,0,0-101.57-6.85,19.81,19.81,0,0,0-26,18.81,20.43,20.43,0,0,0,.3,3.34,26.79,26.79,0,0,0-5.34-.54,26.32,26.32,0,1,0,0,52.63c.52,0,1,0,1.55-.05.32,0,.65.05,1,.05h128.6l.16,0,.62,0a33.7,33.7,0,0,0,.75-67.39Z"/><path class="a240a617-16d7-41bb-8172-dee377e00560" d="M113.89,112.32c0-12,7.44-21,18.94-21,.26,0,.52,0,.78,0a21.44,21.44,0,1,0-7.12,42.29C118.09,130.84,113.89,122,113.89,112.32Z"/><path class="a240a617-16d7-41bb-8172-dee377e00560" d="M271,100c0-15-6.28-27.3-30.37-27.12-2.37-22.62-19.14-39.54-39.89-39.54-14.18,0-27.1,10.72-35,21.28a43,43,0,0,1,73.81,20,27.38,27.38,0,0,1,20.34,45C265.75,114.68,271,108.36,271,100Z"/><g class="ed306b4b-58c8-460f-9294-aa2a3aa1e65b"><path class="a3e1ceb5-56ad-4d79-ab99-8823fcb8d344" d="M153.29,65.54a19.09,19.09,0,0,0-2.4-.17c-5,0-10.57,2.44-13.36,7a20.35,20.35,0,0,0-2.21,15.5c.06,0,.53.74.59.75a33.65,33.65,0,0,1-.44-4.17C135.47,74.15,143.41,65.77,153.29,65.54Z"/></g><path class="a240a617-16d7-41bb-8172-dee377e00560" d="M184.08,120s-12.29-15.42-4-31.88S206.59,66,226.2,78.34c0,0-29.1-11.21-39.87,9.36S184.08,120,184.08,120Z"/><polygon class="a80d191d-11cf-42fc-85b8-210009e71f4c" points="189.29 354.11 189.23 354.07 73.41 287.29 73.53 287.07 189.29 353.82 299.38 290.42 299.51 290.63 189.29 354.11"/><polygon class="a80d191d-11cf-42fc-85b8-210009e71f4c" points="134.7 143.11 134.32 142.55 134.53 142.41 134.71 142.68 134.9 142.42 135.1 142.57 134.7 143.11"/><path class="b1eb18a3-11ce-422c-b6d1-3ec697400f99" d="M135.7,141.77l-.2-.15.6-.8.2.15Zm1.19-1.6-.2-.15.6-.79.2.15Zm1.2-1.59-.2-.15.59-.8.2.15Zm1.19-1.6-.2-.15.6-.8.2.15Zm1.2-1.6-.2-.15.59-.8.2.15Zm1.19-1.6-.2-.14.6-.8.2.15Zm1.19-1.59-.2-.15.6-.8.2.15Zm1.2-1.6-.2-.15.6-.8.2.15Zm1.19-1.6-.2-.15.6-.8.2.15Zm1.2-1.6-.2-.14.59-.8.2.15Zm1.19-1.59-.2-.15.6-.8.2.15Zm1.19-1.6-.2-.15.6-.8.2.15Zm1.2-1.6-.2-.15.6-.8.2.15Zm1.19-1.59-.2-.15.6-.8.2.15Zm1.2-1.6-.2-.15.59-.8.2.15Zm1.19-1.6-.2-.15.6-.8.2.15Zm1.19-1.6-.2-.15.6-.8.2.15Zm1.2-1.59-.2-.15.6-.8.2.15Zm1.19-1.6-.2-.15.6-.8.2.15Zm1.2-1.6-.2-.15.59-.8.2.15Zm1.19-1.6-.2-.15.6-.8.2.15Zm1.19-1.59-.2-.15.6-.8.2.15Zm1.2-1.6-.2-.15.6-.8.2.15Zm1.19-1.6-.2-.15.6-.8.2.15Zm1.2-1.6-.2-.15.59-.79.2.14Zm1.19-1.59-.2-.15.6-.8.2.15Zm1.2-1.6-.21-.15.6-.8.2.15Zm1.19-1.6-.2-.15.6-.8.2.15Zm1.21-1.57L169,96.9l.69-.72.18.17Zm1.36-1.45-.18-.17.68-.73.19.17Zm1.37-1.45L171.7,94l.68-.73.18.17Zm1.37-1.46-.19-.17.69-.72.18.17Zm1.36-1.45-.18-.17.68-.73.18.17ZM176,89.81l-.19-.17.69-.73.18.17Zm1.36-1.46-.18-.17.68-.72.19.17Zm1.37-1.45-.18-.17.68-.73.18.18Zm1.37-1.45-.19-.17.69-.73.18.17ZM181.44,84l-.18-.18.68-.72.18.17Zm1.37-1.46-.19-.17.69-.73.18.18Zm1.36-1.45-.18-.17.68-.73.19.17Zm1.37-1.45-.18-.17.68-.73.18.17Zm1.37-1.46-.19-.17.69-.72.18.17Zm1.36-1.45-.18-.17.68-.73L189,76Zm1.37-1.45-.18-.17.68-.73.18.17ZM191,73.82l-.18-.17.68-.72.19.17Zm1.37-1.45-.18-.17.68-.73.18.17Zm1.37-1.45-.19-.17.69-.73.18.17Zm1.36-1.46-.18-.17.68-.72.19.17ZM196.47,68l-.18-.17.68-.73.18.18Zm1.36-1.45-.18-.17.68-.73.19.17Zm1.37-1.45-.18-.18.68-.72.18.17Zm1.37-1.46-.19-.17.69-.72.18.17Zm1.36-1.45-.18-.17.68-.73.19.17Zm1.37-1.45-.18-.17.68-.73L204,60Zm1.36-1.46-.18-.17.68-.72.19.17Z"/><polygon class="a80d191d-11cf-42fc-85b8-210009e71f4c" points="206.03 57.84 205.85 57.67 206.06 57.45 205.77 57.34 205.85 57.11 206.5 57.34 206.03 57.84"/><path class="a80d191d-11cf-42fc-85b8-210009e71f4c" d="M204.83,57l-.94-.33.08-.24.94.33Zm-1.89-.67L202,56l.08-.24.95.34Zm-1.88-.66-.94-.34.08-.23.94.33ZM199.18,55l-.94-.33.08-.24.94.33Zm-1.89-.67-.94-.33.08-.24.95.34Zm-1.88-.66-.94-.34.08-.23.94.33ZM193.53,53l-.95-.33.09-.24.94.34Zm-1.89-.67L190.7,52l.08-.23.95.33Zm-1.88-.66-.94-.33.08-.24.94.33ZM187.88,51l-.95-.33.09-.24.94.34ZM186,50.35l-.94-.34.08-.23,1,.33Zm-1.88-.67-.94-.33.08-.24.94.33ZM182.23,49l-.95-.33.09-.23.94.33Zm-1.89-.66L179.4,48l.08-.23,1,.33Zm-1.88-.67-.94-.33.08-.24.94.34ZM176.58,47l-1-.34.09-.23.94.33Zm-1.89-.67-.94-.33.08-.24.95.33Zm-1.88-.67-.94-.33.08-.24.94.34ZM170.93,45l-1-.34.09-.23.94.33ZM169,44.35,168.1,44l.08-.24.95.34Zm-1.88-.67-.94-.33.08-.23.94.33ZM165.28,43l-.95-.34.09-.23.94.33Zm-1.89-.67-.94-.33.08-.24.95.34Zm-1.88-.66-.94-.34.08-.23.94.33ZM159.63,41l-.95-.33.09-.24.94.33Zm-1.89-.67L156.8,40l.08-.24,1,.34Zm-1.88-.66-.94-.34.08-.23.94.33ZM154,39l-.95-.33.09-.24.94.34Zm-1.89-.67-.94-.33.08-.23,1,.33Zm-1.88-.66-.94-.33.08-.24.94.33Z"/><polygon class="a80d191d-11cf-42fc-85b8-210009e71f4c" points="147.63 37.18 147.45 37 147.86 36.59 148.41 36.79 148.32 37.02 147.93 36.88 147.63 37.18"/><path class="a80d191d-11cf-42fc-85b8-210009e71f4c" d="M98.89,86l-.18-.17.7-.7.18.17Zm1.39-1.39-.17-.18.69-.7L101,84Zm1.39-1.4-.17-.18.69-.69.18.17Zm1.4-1.4-.18-.17.7-.7.17.18Zm1.39-1.39-.18-.18.7-.7.18.18Zm1.39-1.4-.17-.17.69-.7.18.17Zm1.4-1.39-.18-.18.69-.7.18.18Zm1.39-1.4-.18-.18.7-.7.17.18Zm1.39-1.4-.18-.17.7-.7.18.18Zm1.39-1.39-.17-.18.69-.7.18.18Zm1.4-1.4-.18-.18.7-.69.17.17Zm1.39-1.39-.18-.18.7-.7.17.18Zm1.39-1.4-.18-.18.7-.7.18.18Zm1.39-1.4-.17-.17.69-.7.18.18Zm1.4-1.39-.18-.18.7-.7.17.18Zm1.39-1.4-.18-.18.7-.69.18.17Zm1.39-1.39-.18-.18.7-.7.18.18Zm1.39-1.4-.17-.18.69-.7.18.18Zm1.4-1.4-.18-.17.7-.7.17.18Zm1.39-1.39-.18-.18.7-.7.18.18Zm1.39-1.4-.18-.18.7-.69.18.17Zm1.39-1.39-.17-.18.69-.7.18.18Zm1.4-1.4-.18-.18.7-.7.17.18Zm1.39-1.4-.18-.17.7-.7.18.17Zm1.39-1.39-.17-.18.69-.7.18.18Zm1.39-1.4-.17-.18.69-.69.18.17Zm1.4-1.4-.18-.17.7-.7.17.18Zm1.39-1.39-.18-.18.7-.7.18.18Zm1.39-1.4-.17-.17.69-.7.18.17Zm1.4-1.39-.18-.18.69-.7.18.18Zm1.39-1.4-.18-.18.7-.69.17.17Zm1.39-1.4-.18-.17.7-.7.18.18Zm1.39-1.39-.17-.18.69-.7.18.18Zm1.4-1.4-.18-.17.7-.7.17.17Zm1.39-1.39-.18-.18.7-.7.17.18Z"/><polygon class="a80d191d-11cf-42fc-85b8-210009e71f4c" points="97.92 87.49 97.59 86.99 98.02 86.56 98.19 86.74 97.91 87.02 98.13 87.35 97.92 87.49"/><path class="a80d191d-11cf-42fc-85b8-210009e71f4c" d="M133.78,141.73l-.54-.83.21-.13.54.82Zm-1.09-1.65-.54-.82.21-.14.54.82Zm-1.08-1.64-.55-.82.21-.14.55.82Zm-1.09-1.64L130,136l.21-.13.54.82Zm-1.09-1.65-.54-.82.21-.14.54.82Zm-1.08-1.64-.55-.82.21-.14.55.82Zm-1.09-1.64-.54-.83.21-.13.54.82Zm-1.09-1.65-.54-.82.21-.14.54.82Zm-1.08-1.64-.55-.82.21-.14.55.82ZM124,126.93l-.54-.82.21-.13.54.82Zm-1.09-1.64-.54-.82.21-.14.54.82Zm-1.08-1.64-.55-.82.21-.14.55.82ZM120.74,122l-.54-.82.21-.13.54.82Zm-1.09-1.64-.54-.82.21-.14.54.82Zm-1.08-1.64-.55-.82.21-.14.55.82Zm-1.09-1.65-.54-.82.21-.14.54.83Zm-1.08-1.64-.55-.82.21-.14.54.82Zm-1.09-1.64-.54-.82.2-.14.55.82Zm-1.09-1.65-.54-.82.21-.14.54.83Zm-1.08-1.64-.55-.82.21-.14.54.82Zm-1.09-1.64-.54-.82.2-.14.55.82ZM111,107.21l-.54-.82.21-.14.54.83Zm-1.08-1.64-.55-.82.21-.14.54.82Zm-1.09-1.64-.54-.83.2-.13.55.82Zm-1.09-1.65-.54-.82.21-.14.54.83Zm-1.08-1.64-.55-.82.21-.14.54.82ZM105.53,99l-.54-.83.2-.13.55.82Zm-1.09-1.65-.54-.82.21-.14.54.82Zm-1.08-1.64-.55-.82.21-.14.54.82Zm-1.09-1.64-.54-.83.21-.13.54.82Zm-1.09-1.65-.54-.82.21-.14.54.82Zm-1.08-1.64L99.55,90l.21-.14.55.82ZM99,89.14l-.54-.83.21-.13.54.82Z"/><polygon class="a80d191d-11cf-42fc-85b8-210009e71f4c" points="168.68 97.66 168.47 97.51 168.84 97.02 169.37 97.32 169.25 97.54 168.91 97.34 168.68 97.66"/><path class="a80d191d-11cf-42fc-85b8-210009e71f4c" d="M237.48,136.33l-.88-.49.13-.22.87.5Zm-1.75-1-.88-.5.13-.22.87.5Zm-1.75-1-.88-.5.13-.22.87.5Zm-1.75-1-.88-.5.13-.21.87.49Zm-1.75-1-.87-.5.12-.22.87.5Zm-1.75-1-.87-.5.12-.21.87.49Zm-1.75-1-.87-.5.12-.22.87.5Zm-1.75-1-.87-.5.12-.21.88.49Zm-1.75-1-.87-.5.12-.22.88.5Zm-1.75-1-.87-.5.12-.21.88.49Zm-1.75-1-.87-.5.12-.22.88.5Zm-1.75-1-.87-.5.12-.21.88.49Zm-1.75-1-.87-.5.12-.22.88.5Zm-1.75-1-.87-.5.12-.21.88.49Zm-1.74-1-.88-.5.12-.22.88.5Zm-1.75-1-.88-.5.12-.21.88.49Zm-1.75-1-.88-.5.12-.22.88.5Zm-1.75-1-.88-.49.13-.22.87.5Zm-1.75-1-.88-.5.13-.22.87.5Zm-1.75-1-.88-.49.13-.22.87.5Zm-1.75-1-.88-.5.13-.22.87.5Zm-1.75-1-.88-.49.13-.22.87.5Zm-1.75-1-.88-.5.13-.22.87.5Zm-1.75-1-.88-.49.13-.22.87.5Zm-1.75-1-.87-.5.12-.22.87.5Zm-1.75-1-.87-.49.12-.22.87.5Zm-1.75-1-.87-.5.12-.22.87.5Zm-1.75-1-.87-.49.12-.22.88.5Zm-1.75-1-.87-.5.12-.21.88.49Zm-1.75-1-.87-.49.12-.22.88.5Zm-1.75-1-.87-.5.12-.22.88.5Zm-1.75-1-.87-.5.12-.22.88.5Zm-1.75-1-.87-.5.12-.21.88.49Zm-1.75-1-.87-.5.12-.22.88.5Zm-1.74-1-.88-.5.12-.21.88.49Zm-1.75-1-.88-.5.12-.22.88.5Zm-1.75-1-.88-.5.13-.21.87.49Zm-1.75-1-.88-.5.13-.22.87.5Zm-1.75-1-.88-.5.13-.21.87.49Z"/><polygon class="a80d191d-11cf-42fc-85b8-210009e71f4c" points="238.36 137.12 238.34 136.87 238.42 136.87 238.35 136.83 238.48 136.61 239.28 137.07 238.36 137.12"/><path class="a80d191d-11cf-42fc-85b8-210009e71f4c" d="M136.21,142.94v-.25l1-.06v.25Zm2-.12v-.25l1,0,0,.25Zm2-.11,0-.25,1-.06,0,.25Zm2-.12v-.25l1-.05v.25Zm2-.11v-.25l1-.06,0,.25Zm2-.11,0-.25,1-.06,0,.25Zm2-.12,0-.25,1-.05v.25Zm2-.11v-.25l1-.06v.25Zm2-.12v-.25l1-.05,0,.25Zm2-.11,0-.25,1-.06,0,.25Zm2-.11v-.25l1-.06v.25Zm2-.12v-.25l1-.05,0,.25Zm2-.11,0-.25,1-.06,0,.25Zm2-.12,0-.25,1,0v.25Zm2-.11v-.25l1-.06v.25Zm2-.11V141l1-.06,0,.25Zm2-.12,0-.25,1-.05,0,.25Zm2-.11v-.25l1-.06v.25Zm2-.12v-.25l1,0v.25Zm2-.11,0-.25,1-.06,0,.25Zm2-.11,0-.25,1-.06v.25Zm2-.12v-.25l1,0v.25Zm2-.11v-.25l1-.06,0,.25Zm2-.12,0-.25,1-.05,0,.25Zm2-.11V140l1-.06v.25Zm2-.11v-.25l1-.06V140Zm2-.12,0-.25,1-.05,0,.25Zm2-.11,0-.25,1-.06v.25Zm2-.11v-.25l1-.06v.25Zm2-.12v-.25l1-.06,0,.25Zm2-.11,0-.25,1-.06,0,.25Zm2-.12v-.25l1-.05v.25Zm2-.11V139l1-.06v.25Zm2-.11,0-.25,1-.06,0,.25Zm2-.12,0-.25,1-.06V139Zm2-.11v-.25l1-.06v.25Zm2-.12v-.25l1-.05,0,.25Zm2-.11,0-.25,1-.06,0,.25Zm2-.11v-.25l1-.06v.25Zm2-.12v-.25l1-.06v.25Zm2-.11,0-.25,1-.06,0,.25Zm2-.12,0-.25,1,0v.25Zm2-.11v-.25l1-.06v.25Zm2-.11v-.25l1-.06,0,.25Zm2-.12,0-.25,1-.06v.25Zm2-.11v-.25l1-.06v.25Zm2-.12v-.25l1-.05v.25Zm2-.11,0-.25,1-.06,0,.25Zm2-.11,0-.25,1-.06v.25Zm2-.12v-.25l1-.06v.25Zm2-.11V137l1-.06,0,.25Z"/><polygon class="a80d191d-11cf-42fc-85b8-210009e71f4c" points="134.44 143.04 134.9 142.42 135.1 142.57 134.97 142.76 135.2 142.74 135.21 142.99 134.44 143.04"/><path class="a80d191d-11cf-42fc-85b8-210009e71f4c" d="M135.69,141.78l-.2-.15.59-.78.2.14Zm1.18-1.57-.2-.15.59-.79.2.15Zm1.18-1.58-.2-.15.59-.79.2.15Zm1.18-1.58-.2-.14.59-.79.2.15Zm1.17-1.57-.2-.15.59-.79.2.15Zm1.18-1.58-.2-.15L142,133l.2.14Zm1.18-1.57-.2-.15.59-.79.2.15Zm1.18-1.58-.2-.15.59-.79.2.15Zm1.18-1.58-.2-.14.58-.79.21.15Zm1.17-1.57-.2-.15.59-.79.2.15Zm1.18-1.58-.2-.15.59-.78.2.14Zm1.18-1.57-.2-.15.59-.79.2.15Zm1.18-1.58-.2-.15.59-.79.2.15Zm1.18-1.58-.2-.14.58-.79.2.15Zm1.17-1.57-.2-.15.59-.79.2.15Zm1.18-1.58-.2-.15.59-.78.2.15Zm1.18-1.57-.2-.15.59-.79.2.15Zm1.18-1.58-.2-.15.59-.79.2.15Zm1.18-1.57-.2-.15.58-.79.2.15Zm1.17-1.58-.2-.15.59-.79.2.15Zm1.18-1.58-.2-.15.59-.78.2.15Zm1.18-1.57-.2-.15.59-.79.2.15Zm1.18-1.58-.2-.15.59-.79.2.15Zm1.18-1.57-.2-.15.58-.79.2.15ZM164,104l-.2-.15.59-.79.2.15Zm1.18-1.58-.2-.15.59-.78.2.15Zm1.18-1.57-.2-.15.59-.79.2.15Zm1.18-1.58-.2-.15.59-.79.2.15Z"/><polygon class="a80d191d-11cf-42fc-85b8-210009e71f4c" points="238.75 137.24 238.68 136.48 238.93 136.46 238.95 136.7 239.13 136.54 239.3 136.72 238.75 137.24"/><path class="a80d191d-11cf-42fc-85b8-210009e71f4c" d="M240,136l-.18-.18.74-.7.17.18Zm1.47-1.4-.17-.18.74-.69.17.18Zm1.48-1.39-.18-.18.74-.7.17.18Zm1.47-1.4-.17-.18.74-.7.17.19Zm1.47-1.39-.17-.18.74-.7.17.18Zm1.48-1.4-.17-.18.74-.7.17.18Zm1.47-1.39-.17-.19.74-.69.17.18Zm1.48-1.4-.17-.18.74-.7.17.18Zm1.47-1.39-.17-.19.74-.69.17.18Zm1.48-1.4-.17-.18.73-.7.18.18Zm1.47-1.4-.17-.18.74-.7.17.19Zm1.48-1.39-.17-.18.73-.7.18.18Zm1.47-1.4-.17-.18.74-.7.17.19Zm1.48-1.39-.17-.18.73-.7.18.18Zm1.47-1.4-.17-.18.74-.7.17.18Zm1.48-1.39-.17-.19.73-.69.17.18Zm1.47-1.4-.17-.18.74-.7.17.18Zm1.48-1.39-.17-.19.73-.69.17.18Zm1.47-1.4-.17-.18.74-.7.17.18Zm1.48-1.4-.18-.18.74-.7.17.19Zm1.47-1.39-.17-.18.74-.7.17.18Zm1.48-1.4-.18-.18.74-.7.17.19Zm1.47-1.39-.17-.18.74-.7.17.18Zm1.48-1.4-.18-.18.74-.7.17.18Zm1.47-1.39-.17-.19.74-.69.17.18Zm1.48-1.4-.18-.18.74-.7.17.18Z"/><polygon class="a80d191d-11cf-42fc-85b8-210009e71f4c" points="278.38 99.73 278.21 99.55 278.52 99.26 278.4 98.85 278.64 98.79 278.8 99.34 278.38 99.73"/><path class="a80d191d-11cf-42fc-85b8-210009e71f4c" d="M278.13,97.9l-.27-1,.24-.06.27,1ZM277.58,96l-.27-.95.24-.07.27,1ZM277,94.08l-.27-1,.24-.07.27,1Zm-.55-1.91-.27-1,.24-.07.27.95ZM276,90.26l-.27-1,.24-.07.27,1Zm-.55-1.91-.27-.95.24-.07.27,1Zm-.54-1.9-.27-1,.24-.07.27,1Zm-.55-1.91-.27-1,.24-.07.27,1Zm-.54-1.91-.27-1,.24-.07.27,1Zm-.55-1.91-.27-1,.24-.06.27,1Zm-.54-1.91-.27-1,.24-.06.27.95Zm-.55-1.91-.27-1,.24-.07.27,1ZM271.59,75l-.27-.95.24-.07.27,1ZM271,73.08l-.27-1,.24-.07.27,1Zm-.54-1.91-.27-1,.24-.07.27,1ZM270,69.26l-.27-1,.24-.07.27,1Zm-.54-1.9-.27-1,.24-.07.27,1Zm-.54-1.91-.28-1,.24-.07.28,1Zm-.55-1.91-.27-1,.24-.06.27.95Zm-.54-1.91-.28-1,.24-.06.28,1Zm-.55-1.91-.27-.95.24-.07.27.95Zm-.54-1.91-.28-1,.24-.07.28,1Z"/><polygon class="a80d191d-11cf-42fc-85b8-210009e71f4c" points="266.14 55.9 266.03 55.52 265.63 55.53 265.62 55.28 266.22 55.26 266.38 55.83 266.14 55.9"/><path class="a80d191d-11cf-42fc-85b8-210009e71f4c" d="M207.78,57.47v-.25l1,0v.25Zm2-.07v-.25l1,0v.25Zm2-.07v-.25l1,0v.25Zm2-.06V57l1,0v.25Zm2-.07V57l1,0v.25Zm2-.07v-.25l1,0v.25Zm2-.07v-.25l1,0V57Zm2-.06v-.25l1,0V57Zm2-.07v-.25l1,0v.25Zm2-.07v-.25l1,0v.25Zm2-.06v-.25l1,0v.25Zm2-.07v-.25l1,0v.25Zm2-.07v-.25l1,0v.25Zm2-.06v-.25l1,0v.25Zm2-.07v-.25l1,0v.25Zm2-.07v-.25l1,0v.25Zm2-.06v-.25l1,0v.25Zm2-.07v-.25l1,0v.25Zm2-.07V56l1,0v.25Zm2-.06V56l1,0v.25Zm2-.07v-.25l1,0v.25Zm2-.07v-.25l1,0V56Zm2-.06v-.25l1,0V56Zm2-.07v-.25l1,0v.25Zm2-.07v-.25l1,0v.25Zm2-.06v-.25l1,0v.25Zm2-.07v-.25l1,0v.25Zm2-.07v-.25l1,0v.25Zm2-.06v-.25l1,0v.25Z"/><polygon class="a80d191d-11cf-42fc-85b8-210009e71f4c" points="206.52 57.85 206.01 57.27 206.78 57.25 206.79 57.5 206.55 57.51 206.71 57.69 206.52 57.85"/><path class="a80d191d-11cf-42fc-85b8-210009e71f4c" d="M238.6,135.48l-.09-1,.25,0,.09,1Zm-.17-2-.09-1,.25,0,.09,1Zm-.17-2-.08-1,.24,0,.09,1Zm-.17-2-.08-1,.25,0,.08,1Zm-.17-2-.08-1,.25,0,.08,1Zm-.17-2-.08-1,.25,0,.08,1Zm-.17-2-.08-1,.25,0,.08,1Zm-.17-2-.08-1,.25,0,.08,1Zm-.16-2-.09-1,.25,0,.08,1Zm-.17-2-.09-1,.25,0,.09,1Zm-.17-2-.09-1,.25,0,.09,1Zm-.17-2-.09-1,.25,0,.09,1Zm-.17-2-.09-1,.25,0,.09,1Zm-.17-2-.09-1,.25,0,.09,1Zm-.17-2-.08-1,.24,0,.09,1Zm-.17-2-.08-1,.25,0,.08,1Zm-.17-2-.08-1,.25,0,.08,1Zm-.17-2-.08-1,.25,0,.08,1Zm-.17-2-.08-1,.25,0,.08,1Zm-.17-2-.08-1,.25,0,.08,1Zm-.16-2-.09-1,.25,0,.08,1Zm-.17-2-.09-1,.25,0,.09,1Zm-.17-2-.09-1,.25,0,.09,1Zm-.61-1.73-.66-.76.19-.16.66.76ZM233,88.15l-.66-.75.19-.17.66.76Zm-1.32-1.51-.66-.76.18-.16.66.76Zm-1.33-1.52-.66-.75.19-.17.66.76ZM229,83.61l-.66-.76.19-.16.66.75Zm-1.32-1.52-.66-.75.19-.17.66.76Zm-1.32-1.51-.66-.76.19-.16.66.75ZM225,79.06l-.66-.75.19-.17.66.76Zm-1.32-1.51-.66-.76.18-.16.67.75ZM222.38,76l-.67-.76.19-.16.66.76Zm-1.33-1.51-.66-.76.19-.16.66.75ZM219.73,73l-.66-.76.19-.16.66.76Zm-1.32-1.51-.66-.76.19-.17.66.76ZM217.09,70l-.66-.76.19-.16.66.76Zm-1.32-1.51-.66-.76.18-.17.67.76Zm-1.32-1.52-.67-.76L214,66l.66.76Zm-1.33-1.51-.66-.76.19-.17.66.76Zm-1.32-1.52-.66-.76.19-.16.66.76Zm-1.32-1.52-.66-.75.19-.17.66.76Zm-1.32-1.51-.66-.76.19-.16.66.76Zm-1.32-1.52-.66-.75.19-.17.66.76Z"/><rect class="a80d191d-11cf-42fc-85b8-210009e71f4c" x="278.29" y="99" width="0.25" height="0.5" transform="translate(124.72 351.73) rotate(-78.29)"/><path class="a80d191d-11cf-42fc-85b8-210009e71f4c" d="M277.16,99.12l-1-.21.06-.24,1,.2Zm-2-.41-1-.21.05-.24,1,.2Zm-2-.41-1-.21.05-.24,1,.2Zm-2-.41-1-.21.05-.24,1,.2Zm-2-.41-1-.2.05-.25,1,.2ZM168.91,97.3l0-.25,1-.1,0,.25Zm-1-.14-1-.14,0-.24,1,.14Zm3-.07,0-.25,1-.1,0,.25Zm96.41,0-1-.2.05-.25,1,.21Zm-94.41-.19,0-.25,1-.1,0,.24Zm-7,0-1-.14,0-.25,1,.14Zm9-.21,0-.25,1-.11,0,.25Zm90.45,0-1-.2.05-.25,1,.21ZM163.9,96.6l-1-.15,0-.24,1,.14Zm13-.14,0-.25,1-.11,0,.25Zm-15-.15-1-.14,0-.25,1,.14Zm101.47-.06-1-.2.05-.25,1,.21Zm-84.48,0,0-.25,1-.11,0,.25Zm2-.21,0-.25,1-.11,0,.25Zm-21,0-1-.15,0-.24,1,.14Zm101.49-.19-1-.2.05-.25,1,.21Zm-78.51,0,0-.24,1-.11,0,.25Zm-25-.08-1-.14,0-.25,1,.14Zm27-.13,0-.25,1-.1,0,.25Zm-29-.15-1-.15,0-.24,1,.14Zm103.5,0-1-.2.05-.25,1,.21Zm-72.54,0,0-.25,1-.1,0,.25Zm2-.21,0-.25,1-.1,0,.24Zm-35,0L153,95l0-.25,1,.14ZM257.48,95l-1-.2.05-.24,1,.2ZM190.9,95l0-.25,1-.11,0,.25ZM152,94.89l-1-.15,0-.24,1,.14Zm40.94-.12,0-.25,1-.11,0,.25Zm62.61-.15-1-.21,0-.24,1,.2ZM150,94.6l-1-.14,0-.25,1,.15Zm44.93,0,0-.25,1-.11,0,.25Zm2-.21,0-.25,1-.11,0,.25Zm-48.92,0-1-.14,0-.25,1,.14Zm105.56-.11-1-.21.05-.24,1,.2Zm-54.65-.08,0-.24,1-.11,0,.25ZM146,94l-1-.14,0-.25,1,.15Zm54.9-.11,0-.25,1-.1,0,.25Zm50.68-.12-1-.21,0-.24,1,.2ZM144,93.75l-1-.14,0-.25,1,.14Zm58.89,0,0-.25,1-.1,0,.25Zm2-.21,0-.25,1-.1,0,.24Zm-62.88,0-1-.14,0-.25,1,.15Zm107.59-.07-1-.21,0-.24,1,.2Zm-42.71-.1,0-.25,1-.11,0,.25ZM140,93.18,139,93l0-.25,1,.14Zm68.87-.1,0-.25,1-.11,0,.25Zm38.75-.1-1-.21,0-.24,1,.2ZM138,92.89l-1-.14,0-.25,1,.15Zm72.86,0,0-.25,1-.11,0,.25Zm2-.21,0-.25,1-.11,0,.25Zm-76.85,0-1-.14,0-.25,1,.14Zm109.63,0-1-.2,0-.25,1,.2Zm-30.78-.13,0-.24,1-.11,0,.25Zm-80.84-.12-1-.14,0-.24,1,.14Zm82.84-.09,0-.25,1-.1,0,.25Zm26.81-.07-1-.2.06-.25,1,.21ZM132.06,92l-1-.14,0-.25,1,.14Zm86.83,0,0-.25,1-.1,0,.25Zm2-.21,0-.25,1-.1,0,.25Zm-90.82,0-1-.15,0-.24,1,.14Zm111.66,0-1-.2.05-.25,1,.21Zm-18.85-.15,0-.25,1-.1,0,.24Zm-94.8-.13-1-.14,0-.25,1,.14Zm96.8-.08,0-.25,1-.11,0,.25Zm14.88,0-1-.2.05-.25,1,.21Zm-113.67-.15-1-.15,0-.24,1,.14Zm100.79,0,0-.25,1-.11,0,.25Zm2-.21,0-.25,1-.11,0,.25Zm8.91,0-1-.2.05-.25,1,.21Zm-113.69,0-1-.14,0-.25,1,.14Zm106.78-.15,0-.24,1-.11,0,.25Zm-108.77-.13-1-.15,0-.24,1,.14Zm110.77-.08,0-.25,1-.1,0,.25Zm3,0-.93-.19h0v0l0-.23h.06l1,.2Zm-115.71-.19-1-.14,0-.25,1,.14Zm-2-.28-1-.15,0-.24,1,.14Zm-2-.29-1-.14,0-.25,1,.15Zm-2-.28-1-.14,0-.25,1,.14Zm-2-.29-1-.14,0-.25,1,.15Zm-2-.28-1-.14,0-.25,1,.14Zm-2-.29-1-.14,0-.25,1,.15Zm-2-.28-1-.14,0-.25,1,.14Zm-2-.29-1-.14,0-.25,1,.15Zm-2-.28-1-.14,0-.25,1,.14Zm-2-.29-1-.14,0-.24,1,.14Z"/><rect class="a80d191d-11cf-42fc-85b8-210009e71f4c" x="97.87" y="86.79" width="0.25" height="0.5" transform="translate(-2.04 171.73) rotate(-81.86)"/><rect class="a80d191d-11cf-42fc-85b8-210009e71f4c" x="168.67" y="96.69" width="0.25" height="0.5" transform="translate(-22.42 60.54) rotate(-19.09)"/><path class="a80d191d-11cf-42fc-85b8-210009e71f4c" d="M168.26,95.8l-.32-.94.23-.08.33.94Zm-.65-1.88-.33-1,.24-.08.33.94ZM167,92l-.32-1,.23-.08.33.94Zm-.65-1.89-.33-1,.24-.08.32,1Zm-.66-1.89-.33-.94.24-.09.33,1ZM165,86.36l-.33-.94.23-.09.33,1Zm-.66-1.89-.33-.94.24-.08.33.94Zm-.65-1.89-.33-.94.23-.08.33.94ZM163,80.69l-.33-.94.24-.08.33.94Zm-.66-1.88-.32-1,.23-.08.33.94Zm-.65-1.89-.33-1,.24-.08.32.94ZM161.05,75l-.32-1L161,74l.33,1Zm-.65-1.89-.33-1,.24-.08.32,1Zm-.66-1.89-.33-.94.24-.09.33,1Zm-.65-1.89-.33-.94.23-.09.33,1Zm-.66-1.89-.33-.94.24-.08.33.94Zm-.66-1.89-.32-.94.23-.08.33.94Zm-.65-1.89-.33-.94.24-.08.33.94Zm-.66-1.88-.32-1,.23-.08.33.94Zm-.65-1.89-.33-1,.24-.08.32.94ZM155.15,58l-.33-1,.24-.08.33,1Zm-.65-1.89-.33-.94.24-.09.32,1Zm-.66-1.89-.33-.94.24-.09.33,1Zm-.65-1.89-.33-.94.23-.08.33.94Zm-.66-1.89-.33-.94.24-.08.33.94Zm-.66-1.89-.32-.94.23-.08.33.94Zm-.65-1.88-.33-1,.24-.08.33.94Zm-.66-1.89-.32-1,.23-.08.33.94Zm-.65-1.89-.33-1,.24-.08.32,1ZM149.25,41l-.33-1,.24-.08.33,1Zm-.65-1.89-.33-.94.24-.09.32,1Z"/><polygon class="a80d191d-11cf-42fc-85b8-210009e71f4c" points="147.94 37.25 147.74 36.66 148.33 36.46 148.41 36.69 148.06 36.81 148.18 37.17 147.94 37.25"/><path class="a80d191d-11cf-42fc-85b8-210009e71f4c" d="M149.37,36.36l-.09-.24,1-.33.08.24Zm1.91-.66-.08-.24,1-.33.09.24Zm1.91-.66-.08-.24,1-.33.08.24Zm1.91-.67-.08-.23,1-.33.08.23Zm1.92-.66-.08-.23.95-.34.08.24Zm1.91-.66-.08-.24,1-.33.08.24Zm1.91-.66-.08-.24,1-.33.08.24Zm1.92-.67-.09-.23,1-.33.08.23Zm1.91-.66-.08-.23.95-.34.09.24Zm1.91-.66-.08-.24,1-.33.08.24Zm1.92-.66-.09-.24,1-.33.08.24Zm1.91-.67-.08-.23.95-.33.08.23Zm1.91-.66-.08-.24,1-.33.08.24Zm1.91-.66-.08-.24,1-.33.08.24Zm1.92-.66-.09-.24,1-.33.08.23Zm1.91-.67-.08-.23,1-.33.09.23Zm1.91-.66-.08-.24,1-.33.08.24Zm1.92-.66-.09-.24,1-.33.08.24Zm1.91-.66-.08-.24.95-.33.09.23Zm1.91-.67-.08-.23,1-.33.08.23Zm1.91-.66-.08-.24,1-.33.08.24Zm1.92-.66-.08-.24.95-.33.08.24Zm1.91-.66-.08-.24,1-.33.08.24Zm1.91-.67-.08-.23,1-.33.08.23Zm1.92-.66-.09-.23,1-.34.08.24Zm1.91-.66-.08-.24.95-.33.09.24Zm1.91-.66L199,18.9l1-.33.08.24Zm1.92-.67-.09-.23,1-.33.08.23Zm1.91-.66-.08-.24,1-.33.08.24Zm1.91-.66-.08-.24,1-.33.08.24Zm1.91-.66-.08-.24,1-.33.08.23Zm1.92-.67-.08-.23.95-.33.08.23Zm1.91-.66-.08-.24.95-.33.09.24Zm1.91-.66-.08-.24,1-.33.08.24Zm1.92-.66-.09-.24,1-.33.08.23Z"/><polygon class="a80d191d-11cf-42fc-85b8-210009e71f4c" points="217.05 13.31 216.72 13.03 216.32 13.17 216.24 12.94 216.78 12.75 217.21 13.12 217.05 13.31"/><path class="a80d191d-11cf-42fc-85b8-210009e71f4c" d="M264.91,54.51l-.74-.64.16-.19.75.64Zm-1.49-1.29-.75-.64.16-.19.75.64Zm-1.5-1.28-.74-.65.16-.19.75.65Zm-1.49-1.29-.75-.64.16-.19.75.64Zm-1.5-1.29-.75-.64.17-.19.74.64Zm-1.49-1.29-.75-.64.16-.19.75.64Zm-1.5-1.28-.75-.65.16-.19.75.65Zm-1.5-1.29-.74-.64.16-.19.75.64ZM253,44.21l-.75-.64.16-.19.75.64Zm-1.5-1.29-.75-.64.17-.19.75.64ZM250,41.64l-.75-.65.16-.19.75.65Zm-1.5-1.29-.75-.64.17-.19.74.64ZM247,39.06l-.74-.64.16-.19.75.64Zm-1.49-1.29-.75-.64.16-.19.75.64ZM244,36.49l-.74-.65.16-.19.75.65Zm-1.49-1.29-.75-.64.16-.19.75.64ZM241,33.91l-.75-.64.17-.19.74.64Zm-1.49-1.29-.75-.64.16-.19.75.65ZM238,31.34l-.75-.65.17-.19.74.65Zm-1.5-1.29-.74-.64.16-.19.75.64ZM235,28.76l-.75-.64.16-.19.75.64Zm-1.5-1.28-.75-.65.17-.19.75.65ZM232,26.19l-.75-.65.16-.19.75.65Zm-1.5-1.29-.75-.64.17-.19.74.64ZM229,23.61l-.74-.64.16-.19.75.64Zm-1.49-1.28-.75-.65.16-.19.75.65ZM226,21l-.74-.65.16-.19.75.65Zm-1.49-1.29-.75-.64.16-.19.75.64ZM223,18.46l-.75-.64.17-.19.74.64Zm-1.49-1.28-.75-.65.16-.19.75.65ZM220,15.89l-.75-.65.16-.19.75.65Zm-1.5-1.29L217.8,14l.16-.19.75.64Z"/><rect class="a80d191d-11cf-42fc-85b8-210009e71f4c" x="265.81" y="54.97" width="0.25" height="0.5" transform="translate(50.6 220.76) rotate(-49.28)"/><rect class="a80d191d-11cf-42fc-85b8-210009e71f4c" x="216.44" y="13.01" width="0.5" height="0.25" transform="translate(154.38 221.09) rotate(-76.79)"/><path class="a80d191d-11cf-42fc-85b8-210009e71f4c" d="M206.75,56l-.25-.06.23-1L207,55ZM207.2,54,207,54l.22-1,.25.05Zm.46-1.93-.25-.06.23-1,.24.06Zm.45-1.94-.24-.06.23-1,.24.06Zm.46-1.93-.25-.06.23-1,.24.06Zm.45-1.94-.24,0,.23-1,.24.06Zm.46-1.93-.25-.06.23-1,.24.06Zm.45-1.94-.24-.05.23-1,.24.06Zm.46-1.93-.25-.06.23-1,.24.05Zm.45-1.93-.24-.06.23-1,.24.06Zm.46-1.94-.25-.06.23-1,.24,0Zm.45-1.93-.24-.06.23-1,.24.06Zm.46-1.94-.25-.06.23-1,.24.06Zm.45-1.93-.24-.06.23-1,.24.06Zm.46-1.94-.25-.05.23-1,.24.06Zm.45-1.93-.24-.06.23-1,.24.06ZM214,25l-.25-.05.23-1,.24.06Zm.45-1.93-.24-.06.23-1,.24.05Zm.46-1.93-.25-.06.23-1,.24.06Zm.45-1.94-.24-.06.23-1,.24,0Zm.46-1.93-.25-.06.23-1,.25.06Zm.45-1.94-.24-.06.23-1,.24,0Z"/><rect class="a80d191d-11cf-42fc-85b8-210009e71f4c" x="206.09" y="57.02" width="0.5" height="0.25" transform="translate(103.18 244.76) rotate(-76.68)"/><circle class="a027e679-45e6-4fce-888a-90631266c209" cx="168.87" cy="97.18" r="1.32"/><path class="a027e679-45e6-4fce-888a-90631266c209" d="M280,99.3A1.32,1.32,0,1,1,278.66,98,1.32,1.32,0,0,1,280,99.3Z"/><circle class="a027e679-45e6-4fce-888a-90631266c209" cx="238.68" cy="136.97" r="1.32"/><circle class="a027e679-45e6-4fce-888a-90631266c209" cx="234.89" cy="90.17" r="1.32"/><circle class="a027e679-45e6-4fce-888a-90631266c209" cx="265.73" cy="55.39" r="1.32"/><circle class="a027e679-45e6-4fce-888a-90631266c209" cx="206.28" cy="57.54" r="1.32"/><circle class="a027e679-45e6-4fce-888a-90631266c209" cx="216.75" cy="12.91" r="1.32"/><path class="a027e679-45e6-4fce-888a-90631266c209" d="M149.22,36.74a1.33,1.33,0,1,1-1.32-1.32A1.32,1.32,0,0,1,149.22,36.74Z"/><circle class="a027e679-45e6-4fce-888a-90631266c209" cx="97.75" cy="87.34" r="1.32"/><circle class="e1427b10-9b13-4531-88e2-f5ebb560bda3" cx="134.7" cy="142.9" r="1.32"/><rect class="fd82de32-2b66-4f33-a5af-8545a55a4556" x="154.36" y="86.73" width="29.03" height="19.82"/><path class="e1427b10-9b13-4531-88e2-f5ebb560bda3" d="M154.36,86.73l14.52,9.91,14.52-9.91Z"/><path class="e1427b10-9b13-4531-88e2-f5ebb560bda3" d="M160.72,34.26H145.28a2,2,0,0,0-2,2v9.43a2,2,0,0,0,2,2h9l5.87,5.71-.9-5.71h1.45a2,2,0,0,0,2-2V36.25A2,2,0,0,0,160.72,34.26Z"/><path class="eacc3dc4-5e7f-4288-aec2-fbc862e71442" d="M152.27,40.39V34.26h-7a2,2,0,0,0-2,2v6.13h7A2,2,0,0,0,152.27,40.39Z"/><path class="fd82de32-2b66-4f33-a5af-8545a55a4556" d="M133.7,27.83h15.44a2,2,0,0,1,2,2v9.42a2,2,0,0,1-2,2h-9l-5.87,5.71.9-5.71H133.7a2,2,0,0,1-2-2V29.82A2,2,0,0,1,133.7,27.83Z"/><rect class="fd82de32-2b66-4f33-a5af-8545a55a4556" x="81.63" y="76.04" width="27.39" height="15.41"/><rect class="a5226ffa-db6d-4f93-8a06-55318688076d" x="81.63" y="91.24" width="27.39" height="3.98"/><rect class="a1fb710f-6366-408a-b32d-92275f8999e3" x="86.55" y="92.79" width="21.08" height="0.7"/><rect class="e1427b10-9b13-4531-88e2-f5ebb560bda3" x="86.55" y="92.79" width="8.78" height="0.7"/><rect class="e5deda79-39ac-42a4-a3fe-2f1676a5fb1d" x="81.63" y="91.24" width="3.98" height="3.98"/><rect class="e1427b10-9b13-4531-88e2-f5ebb560bda3" x="82.95" y="92.44" width="0.51" height="1.4"/><rect class="e1427b10-9b13-4531-88e2-f5ebb560bda3" x="83.68" y="92.44" width="0.51" height="1.4"/><polygon class="e1427b10-9b13-4531-88e2-f5ebb560bda3" points="97.75 83.52 92.91 80.04 92.91 87.01 97.75 83.52"/><polygon class="e14f9bc5-f5b7-4710-98aa-55cf6dfbebd0" points="256.6 51.78 277.07 51.78 276.79 63.94 256.83 63.94 256.6 51.78"/><polygon class="fd82de32-2b66-4f33-a5af-8545a55a4556" points="259.55 38.11 259.55 57.6 274.56 57.6 274.56 42.62 274.56 42.61 274.56 42.06 270.61 38.11 259.55 38.11"/><polygon class="e1427b10-9b13-4531-88e2-f5ebb560bda3" points="270.61 38.11 270.61 42.06 274.56 42.06 274.56 42.06 270.61 38.11 270.61 38.11"/><rect class="f0b9fea6-dbcb-4d85-92a1-8b9e7d461e06" x="264.79" y="44.06" width="6.92" height="0.26"/><rect class="f0b9fea6-dbcb-4d85-92a1-8b9e7d461e06" x="262.39" y="45.92" width="9.33" height="0.26"/><rect class="f0b9fea6-dbcb-4d85-92a1-8b9e7d461e06" x="262.39" y="47.78" width="9.33" height="0.26"/><rect class="f0b9fea6-dbcb-4d85-92a1-8b9e7d461e06" x="262.39" y="49.64" width="9.33" height="0.26"/><rect class="f0b9fea6-dbcb-4d85-92a1-8b9e7d461e06" x="262.39" y="51.5" width="9.33" height="0.26"/><polygon class="e1427b10-9b13-4531-88e2-f5ebb560bda3" points="264.31 52.51 264.31 51.33 258.28 51.33 258.28 52.51 256.29 52.51 256.83 63.94 276.79 63.94 277.33 52.51 264.31 52.51"/><path class="e1427b10-9b13-4531-88e2-f5ebb560bda3" d="M204.52,41.07a11,11,0,0,0-7.82,3.24l7.83,7.83Z"/><path class="fd82de32-2b66-4f33-a5af-8545a55a4556" d="M205.67,44.31h0V55.39l-10.38-3.84a11.07,11.07,0,1,0,10.38-7.24Z"/><path class="ee9bc094-b223-4aac-87ad-3ba8a8d6d380" d="M197.3,46.44a11,11,0,0,0-2.55,4l10.18,3.76Z"/><path class="fd82de32-2b66-4f33-a5af-8545a55a4556" d="M125.53,139.58h.5a9.26,9.26,0,0,1,.7-1.69l-.35-.35a2.6,2.6,0,1,1,3.68-3.68l.35.35a9,9,0,0,1,1.69-.7V133a2.61,2.61,0,0,1,5.21,0v.5a9,9,0,0,1,1.69.7l.35-.35a2.6,2.6,0,1,1,3.68,3.68l-.35.35a9.26,9.26,0,0,1,.7,1.69h.5a2.61,2.61,0,0,1,0,5.21h-.5a9,9,0,0,1-.7,1.69l.35.35a2.6,2.6,0,1,1-3.68,3.68l-.35-.35a8.36,8.36,0,0,1-1.69.7v.5a2.61,2.61,0,0,1-5.21,0v-.5a8.36,8.36,0,0,1-1.69-.7l-.35.35a2.6,2.6,0,1,1-3.68-3.68l.35-.35a9,9,0,0,1-.7-1.69h-.5a2.61,2.61,0,0,1,0-5.21Zm9.17,7.82a5.22,5.22,0,1,0-5.21-5.21A5.21,5.21,0,0,0,134.7,147.4Z"/><path class="e1427b10-9b13-4531-88e2-f5ebb560bda3" d="M115.92,130.32h.24a4,4,0,0,1,.31-.74l-.17-.17a1.15,1.15,0,0,1,1.63-1.63l.17.17a4.66,4.66,0,0,1,.73-.3v-.24a1.16,1.16,0,0,1,2.31,0v.24a4.78,4.78,0,0,1,.74.3l.17-.17a1.15,1.15,0,1,1,1.63,1.63l-.17.17a4.78,4.78,0,0,1,.3.74h.24a1.16,1.16,0,0,1,0,2.31h-.24a4.66,4.66,0,0,1-.3.73l.17.17a1.15,1.15,0,1,1-1.63,1.63l-.17-.17a4,4,0,0,1-.74.31v.24a1.16,1.16,0,0,1-2.31,0v-.24a3.9,3.9,0,0,1-.73-.31l-.17.17a1.15,1.15,0,0,1-1.63-1.63l.17-.17a3.9,3.9,0,0,1-.31-.73h-.24a1.16,1.16,0,0,1,0-2.31Zm4.07,3.46a2.31,2.31,0,1,0-2.31-2.31A2.31,2.31,0,0,0,120,133.78Z"/><polygon class="fd82de32-2b66-4f33-a5af-8545a55a4556" points="267.08 105.67 268.42 105.5 269.21 105.4 268.46 99.49 266.33 99.76 267.08 105.67"/><polygon class="fd82de32-2b66-4f33-a5af-8545a55a4556" points="272.63 104.97 273.96 104.8 274.75 104.7 274.14 99.81 272.01 100.08 272.63 104.97"/><polygon class="fd82de32-2b66-4f33-a5af-8545a55a4556" points="278.17 104.27 279.51 104.1 280.3 104 279.06 94.22 276.93 94.49 278.17 104.27"/><polygon class="fd82de32-2b66-4f33-a5af-8545a55a4556" points="283.71 103.56 285.05 103.39 285.84 103.3 284.16 89.99 282.03 90.26 283.71 103.56"/><polygon class="fd82de32-2b66-4f33-a5af-8545a55a4556" points="289.25 102.86 290.6 102.69 291.38 102.59 290.01 91.69 287.88 91.96 289.25 102.86"/><polygon class="e1427b10-9b13-4531-88e2-f5ebb560bda3" points="293.93 105.5 264.2 109.26 262.12 92.78 262.7 92.71 264.71 108.6 293.86 104.92 293.93 105.5"/><polygon class="e1427b10-9b13-4531-88e2-f5ebb560bda3" points="272.82 97.07 265.98 97.19 265.96 96.57 272.52 96.45 277.49 90.14 282.68 86.14 289.57 87.51 289.46 88.11 282.83 86.81 277.9 90.6 272.82 97.07"/><rect class="fd82de32-2b66-4f33-a5af-8545a55a4556" x="226.81" y="126.8" width="22.46" height="5.5" rx="1.04" transform="translate(29.2 -43.17) rotate(11.04)"/><path class="e1427b10-9b13-4531-88e2-f5ebb560bda3" d="M254.73,143.8a8.16,8.16,0,1,1-10.37-5.06A8.17,8.17,0,0,1,254.73,143.8Z"/><path class="fd82de32-2b66-4f33-a5af-8545a55a4556" d="M248,137.37l.25-1.28a1,1,0,0,0-.82-1.22l-20-3.9a1,1,0,0,0-1.23.83l-.65,3.34a1,1,0,0,0,.83,1.22l15,2.93a9.36,9.36,0,0,1,2.69-1.48A9.09,9.09,0,0,1,248,137.37Z"/><path class="fd82de32-2b66-4f33-a5af-8545a55a4556" d="M240.69,139.87,226.2,137a1,1,0,0,0-1.22.83l-.65,3.34a1,1,0,0,0,.82,1.23l12.85,2.5A9.16,9.16,0,0,1,240.69,139.87Z"/><polygon class="acf023be-8054-4054-bba1-61d94dfbd4fe" points="247.44 150.66 244.93 149.43 245.03 150.52 246.54 151.26 247.44 150.66"/><path class="acf023be-8054-4054-bba1-61d94dfbd4fe" d="M246.54,151.26l-1.51-.74.09,1a.36.36,0,0,0,.56.27Z"/><polygon class="acf023be-8054-4054-bba1-61d94dfbd4fe" points="246.82 150.36 246.58 150.24 247.35 148.66 246.57 148.28 245.79 149.86 247.44 150.66 248.22 149.08 247.59 148.78 246.82 150.36"/><rect class="acf023be-8054-4054-bba1-61d94dfbd4fe" x="244.74" y="148.45" width="1.76" height="0.69" transform="translate(4.09 304.15) rotate(-63.96)"/><path class="acf023be-8054-4054-bba1-61d94dfbd4fe" d="M248,143.24l-.75,1.54,2.52,1.24.75-1.55Zm-.13,1.85.72-1.47.24.12-.71,1.47Zm1.27.62-.24-.12.72-1.47.24.12Z"/><rect class="fef64954-ee72-48a9-a6a2-3bf08506d3f5" x="246.45" y="148.08" height="0.27" transform="translate(5.07 304.56) rotate(-63.95)"/><rect class="fef64954-ee72-48a9-a6a2-3bf08506d3f5" x="245.67" y="149.66" height="0.27" transform="translate(3.22 304.75) rotate(-63.95)"/><rect class="fef64954-ee72-48a9-a6a2-3bf08506d3f5" x="247.47" y="148.58" height="0.27" transform="translate(5.2 305.76) rotate(-63.95)"/><path class="acf023be-8054-4054-bba1-61d94dfbd4fe" d="M246,144.31a1.74,1.74,0,0,0-1.38-1.15L243,142.9l-.17.33,1.84,1.08-.9,1.83-2-.78-.16.33,1.23,1.16a1.75,1.75,0,0,0,1.76.38l.62-.21,4.31,2.1a1.42,1.42,0,0,0,.69.7,1.49,1.49,0,1,0,.33-2.79l-4.31-2.1Zm5.83,4.11-.44.88-1,.07-.55-.82.43-.88,1-.07Z"/><path class="acf023be-8054-4054-bba1-61d94dfbd4fe" d="M250.6,144.19,248.08,143l.2-.38a1.4,1.4,0,0,1,1.87-.65h0a1.4,1.4,0,0,1,.64,1.88Z"/><rect class="e26c5056-ca9c-4e3b-9911-f07816a42d31" x="230.61" y="125.18" width="5.5" height="6.9" transform="translate(62.42 333.03) rotate(-78.96)"/><rect class="e26c5056-ca9c-4e3b-9911-f07816a42d31" x="229.42" y="131.25" width="5.5" height="6.9" transform="translate(55.52 336.8) rotate(-78.96)"/><rect class="e26c5056-ca9c-4e3b-9911-f07816a42d31" x="228.24" y="137.33" width="5.5" height="6.9" transform="translate(48.6 340.55) rotate(-78.96)"/><path class="fd82de32-2b66-4f33-a5af-8545a55a4556" d="M226,7.11h-5.92l-.11-1.41h-6.38l-.11,1.41h-2.13V6.35H208v.76h-.51a1,1,0,0,0-1,1V19.07a1,1,0,0,0,1,1H226a1,1,0,0,0,1-1V8.13A1,1,0,0,0,226,7.11Z"/><path class="e1427b10-9b13-4531-88e2-f5ebb560bda3" d="M221.49,14.23a4.74,4.74,0,1,1-4.74-4.74A4.74,4.74,0,0,1,221.49,14.23Z"/><path class="a5226ffa-db6d-4f93-8a06-55318688076d" d="M222.31,10.21a.89.89,0,1,1-.88-.89A.88.88,0,0,1,222.31,10.21Z"/><path class="a80d191d-11cf-42fc-85b8-210009e71f4c" d="M234.47,78.6h.05v-1a.06.06,0,0,0-.06-.06.05.05,0,0,0-.06.06v1h.07Z"/><path class="a80d191d-11cf-42fc-85b8-210009e71f4c" d="M232.65,77.72a.06.06,0,0,0-.07,0,.05.05,0,0,0-.05.07l.18,1,.12,0Z"/><path class="a80d191d-11cf-42fc-85b8-210009e71f4c" d="M230.83,78.19a.06.06,0,1,0-.11,0l.33.9.12,0Z"/><path class="fd82de32-2b66-4f33-a5af-8545a55a4556" d="M239.87,97.17s0,0,0-.07l0,.08Z"/><path class="a80d191d-11cf-42fc-85b8-210009e71f4c" d="M229.13,79a.07.07,0,0,0-.09,0,.07.07,0,0,0,0,.08l.48.8.1-.06Z"/><path class="a80d191d-11cf-42fc-85b8-210009e71f4c" d="M241.33,96.11s0,0,0,0h0a.06.06,0,0,0,0-.09l-.55-.64a.61.61,0,0,0-.07.1Z"/><path class="a80d191d-11cf-42fc-85b8-210009e71f4c" d="M227.58,80a.05.05,0,0,0-.08,0,.06.06,0,0,0,0,.09l.61.7.09-.08Z"/><path class="a80d191d-11cf-42fc-85b8-210009e71f4c" d="M226.25,81.27a.06.06,0,0,0-.09,0,.06.06,0,0,0,0,.08l.75.61.07-.09Z"/><path class="a80d191d-11cf-42fc-85b8-210009e71f4c" d="M241.83,94.14l.84.69h0s0,0,.05,0a.05.05,0,0,0,0-.08l-.83-.69h0A.6.6,0,0,0,241.83,94.14Z"/><path class="a80d191d-11cf-42fc-85b8-210009e71f4c" d="M243.75,93.34h0a.05.05,0,0,0,.05,0,.07.07,0,0,0,0-.09l-.93-.52a.86.86,0,0,1-.07.1Z"/><path class="a80d191d-11cf-42fc-85b8-210009e71f4c" d="M225.16,82.76a.06.06,0,0,0-.08,0,.08.08,0,0,0,0,.09l.85.48.06-.11Z"/><path class="a80d191d-11cf-42fc-85b8-210009e71f4c" d="M244.55,91.69h0a.05.05,0,0,0,.06,0,.05.05,0,0,0,0-.07l-1-.36a1.17,1.17,0,0,0-.05.11Z"/><path class="a80d191d-11cf-42fc-85b8-210009e71f4c" d="M224.36,84.41a.06.06,0,1,0,0,.12l.93.32a.36.36,0,0,0,0-.11Z"/><path class="a80d191d-11cf-42fc-85b8-210009e71f4c" d="M223.87,86.17s-.07,0-.07,0a.05.05,0,0,0,0,.07l.94.16,0-.11Z"/><path class="a80d191d-11cf-42fc-85b8-210009e71f4c" d="M245.05,89.93h0a.06.06,0,0,0,.06-.05.08.08,0,0,0-.05-.07l-1-.18,0,.12Z"/><path class="a80d191d-11cf-42fc-85b8-210009e71f4c" d="M223.69,88a.06.06,0,0,0,0,.12h1a.49.49,0,0,0,0-.12Z"/><path class="a80d191d-11cf-42fc-85b8-210009e71f4c" d="M245.22,88.11a.06.06,0,0,0,0-.12h-1v.12Z"/><path class="a80d191d-11cf-42fc-85b8-210009e71f4c" d="M223.85,89.81s-.06,0,0,.07a.06.06,0,0,0,.06.05h0l1-.18,0-.12Z"/><path class="a80d191d-11cf-42fc-85b8-210009e71f4c" d="M245.07,86.29s.05,0,.05-.07a.08.08,0,0,0-.07,0l-1,.17a.5.5,0,0,1,0,.12Z"/><path class="a80d191d-11cf-42fc-85b8-210009e71f4c" d="M244.59,84.53a.06.06,0,0,0,0-.12l-.94.34a.76.76,0,0,0,0,.11Z"/><path class="a80d191d-11cf-42fc-85b8-210009e71f4c" d="M224.32,91.58a.06.06,0,0,0,0,.07.06.06,0,0,0,.06,0h0l1-.36a1.17,1.17,0,0,1-.05-.11Z"/><path class="a80d191d-11cf-42fc-85b8-210009e71f4c" d="M243.81,82.87a.07.07,0,0,0,0-.09.05.05,0,0,0-.08,0l-.87.49.06.11Z"/><path class="a80d191d-11cf-42fc-85b8-210009e71f4c" d="M225.11,93.23a.08.08,0,0,0,0,.09.05.05,0,0,0,0,0h0l.93-.52-.06-.1Z"/><path class="a80d191d-11cf-42fc-85b8-210009e71f4c" d="M242.74,81.36a.05.05,0,0,0,0-.08.05.05,0,0,0-.08,0l-.76.62L242,82Z"/><path class="a80d191d-11cf-42fc-85b8-210009e71f4c" d="M226.17,94.74a.06.06,0,0,0,0,.08.06.06,0,0,0,.05,0h0l.83-.68-.08-.09Z"/><path class="a80d191d-11cf-42fc-85b8-210009e71f4c" d="M227.49,96a.06.06,0,0,0,0,.09h0a0,0,0,0,0,0,0l.53-.61-.07-.1Z"/><path class="a80d191d-11cf-42fc-85b8-210009e71f4c" d="M241.42,80.07a.06.06,0,1,0-.09-.08l-.61.71.09.08Z"/><path class="bc3c4432-2044-4f96-913d-d9a2de581b6b" d="M229,97.14h0Z"/><path class="a80d191d-11cf-42fc-85b8-210009e71f4c" d="M239.89,79a.05.05,0,0,0,0-.08.05.05,0,0,0-.08,0l-.48.81.1.06Z"/><path class="a80d191d-11cf-42fc-85b8-210009e71f4c" d="M238.2,78.23a.07.07,0,0,0,0-.08.07.07,0,0,0-.08,0l-.34.9.12,0Z"/><path class="a80d191d-11cf-42fc-85b8-210009e71f4c" d="M236.39,77.75s0-.07,0-.07-.07,0-.07,0l-.18,1h.12Z"/><path class="fd82de32-2b66-4f33-a5af-8545a55a4556" d="M234.44,102.83h0a6.79,6.79,0,0,0,2.82-1.23h-5.66A6.79,6.79,0,0,0,234.44,102.83Z"/><path class="e1427b10-9b13-4531-88e2-f5ebb560bda3" d="M238,98.3h-7.15a.2.2,0,0,0-.21.19.19.19,0,0,0,.21.18H238a.2.2,0,0,0,.22-.18A.21.21,0,0,0,238,98.3Z"/><path class="e1427b10-9b13-4531-88e2-f5ebb560bda3" d="M238,99.09h-7.15a.19.19,0,1,0,0,.37H238a.19.19,0,1,0,0-.37Z"/><path class="e1427b10-9b13-4531-88e2-f5ebb560bda3" d="M238,99.88h-7.15a.19.19,0,1,0,0,.37H238a.19.19,0,1,0,0-.37Z"/><path class="e1427b10-9b13-4531-88e2-f5ebb560bda3" d="M238,100.67h-7.15a.18.18,0,1,0,0,.36H238a.18.18,0,1,0,0-.36Z"/><path class="fd82de32-2b66-4f33-a5af-8545a55a4556" d="M234.47,80.49h0a7.54,7.54,0,0,0-7.68,7.16,7.82,7.82,0,0,0,1.83,5,7.94,7.94,0,0,1,2.2,4.68,1.06,1.06,0,0,0,.08.4H238a1.06,1.06,0,0,0,.09-.4,8,8,0,0,1,2.19-4.68,7.82,7.82,0,0,0,1.83-5A7.54,7.54,0,0,0,234.47,80.49Z"/><path class="e1427b10-9b13-4531-88e2-f5ebb560bda3" d="M234.17,97.72H234c0-.19.16-4.84-1.29-6.63l-.26-.32L233,91l.54-.69L234,91l.49-.83.5.71.25-.69.32.6.39-.63.89.38-.15.1c-1.89,1.31-1.73,6.79-1.72,7h-.2c0-.58-.13-5.59,1.67-7.09l-.42-.18-.48.79-.27-.52-.22.62-.54-.76-.52.86-.42-.75-.46.58h0C234.31,93.25,234.18,97.53,234.17,97.72Z"/><path class="afaef39e-8078-46a0-8c72-02a30cfe9b2b" d="M186.88,374l1.64.94a5.58,5.58,0,0,0,5.56,0l6.27-3.61a5,5,0,0,0,0-8.63l-2.57-1.48a5.46,5.46,0,0,0-5.47,0l-5.42,3.12A5.58,5.58,0,0,0,186.88,374Z"/><path class="afaef39e-8078-46a0-8c72-02a30cfe9b2b" d="M300.78,336.22l-1.63.94a5.57,5.57,0,0,1-5.57,0l-6.27-3.61a5,5,0,0,1,0-8.62l2.58-1.49a5.46,5.46,0,0,1,5.46,0l5.43,3.12A5.58,5.58,0,0,1,300.78,336.22Z"/><path class="afaef39e-8078-46a0-8c72-02a30cfe9b2b" d="M97,257.88l-1.63.94a5.58,5.58,0,0,1-5.56,0l-6.27-3.61a5,5,0,0,1,0-8.63l2.58-1.48a5.44,5.44,0,0,1,5.46,0L97,248.22A5.58,5.58,0,0,1,97,257.88Z"/><path class="b782ba15-5e3f-4f31-92f6-c948a76896fc" d="M94.27,247.27l.64,3.2s1.51,2,1.87,2.4a1.65,1.65,0,0,1,.3.43,2.35,2.35,0,0,1,.19.43.48.48,0,0,1-.27.47,2.73,2.73,0,0,1-.57.33,1.32,1.32,0,0,1-.78-.18c-.26-.19-1-.82-1-.82L92.91,252a.67.67,0,0,1-.25-.59s0,0,0-.15a3,3,0,0,1,.09-.46l0-.46-.28-2.91Z"/><path class="b782ba15-5e3f-4f31-92f6-c948a76896fc" d="M86.86,245.68l.13,2.5-2.5,2.62a1.19,1.19,0,0,0-.19.29l-.18.43a.52.52,0,0,0,.27.47l.36.2a.52.52,0,0,0,.42,0l1.36-.79,2.14-1.36c.18-.14.59-.3.57-.52l0-.5a1.68,1.68,0,0,0-.08-.6l-.12-.65-.39-2.51Z"/><path class="a10a1eff-a193-449b-9f5f-d0590c9f8f8a" d="M89.35,249.19a2.17,2.17,0,0,0-.13-.79l-.13-.35s0,0,0,.08a.64.64,0,0,1-.33.56l-2.42,1.51a.41.41,0,0,1-.57-.52l.81-1-.08.05-.15.14-1.81,1.93a2,2,0,0,0-.24.36,1.72,1.72,0,0,0-.19.45.73.73,0,0,0,.34.59.69.69,0,0,0,.27.14.67.67,0,0,0,.44,0,12.18,12.18,0,0,0,1.4-.75l2.28-1.45c.18-.14.52-.38.5-.61A2,2,0,0,0,89.35,249.19Z"/><path class="a10a1eff-a193-449b-9f5f-d0590c9f8f8a" d="M92.6,251.63a1.82,1.82,0,0,1,0-.8l.13-.35s0,0,0,.07a1,1,0,0,0,.38.65l2.4,1.66a.38.38,0,0,0,.58-.45l-.93-1.53.21.22.22.21,1.55,1.88a4.34,4.34,0,0,1,.3.5,1.3,1.3,0,0,1,.14.43c0,.2-.23.38-.4.49a1.46,1.46,0,0,1-.59.25,2.12,2.12,0,0,1-.71-.12,3.89,3.89,0,0,1-.81-.58c-.49-.43-2-1.67-2-1.67a1.31,1.31,0,0,1-.46-.53A2,2,0,0,1,92.6,251.63Z"/><path class="a80d191d-11cf-42fc-85b8-210009e71f4c" d="M88.77,223.75,88.28,236l.77,10.44c.09,1-.47,1.46-2,1.34a.72.72,0,0,1-.21-.09c-.5-.22-.45-.59-.51-1.16l-1-10-1.73-12.77Z"/><path class="a80d191d-11cf-42fc-85b8-210009e71f4c" d="M93,223.75l.38,13.57,1.44,11c0,1.41-.7,1.45-1.76,1.22l-.21-.09c-.5-.22-.52-.42-.58-1l-1.68-10.93-2.66-13.81Z"/><path class="fd82de32-2b66-4f33-a5af-8545a55a4556" d="M85.32,207.89c1.85-.38,6.44,1.12,8.16,1.74s-1.6,5.4-1.71,8.74,1.48,3.93,1.71,5.72c.15,1.14.12,1.51-.36,1.91s-1.35,1.29-3.88.67-2.07-.21-3.86-1-3.12-.9-2.14-3a12.76,12.76,0,0,0,.88-4.26c.1-2.73-.79-4.83-.68-7.57C83.52,208.71,84.14,208.13,85.32,207.89Z"/><path class="b782ba15-5e3f-4f31-92f6-c948a76896fc" d="M87.68,206.24l-.1,2.11c0,.63-.29,2.53.25,2.84a2.22,2.22,0,0,0,.32.14c.59.11,1.58-2.36,1.57-3l0-2.1Z"/><path class="b782ba15-5e3f-4f31-92f6-c948a76896fc" d="M91.56,202.82a25.27,25.27,0,0,1,0,3.11c-.1.83-.66,2.23-2.15,2.06s-2-.83-2.24-1.28-1.07-3.14,0-4.73c0,0,.4-1.07,2.09-.92C91.13,201.23,91.47,202,91.56,202.82Z"/><path d="M73.93,201.57l0,0A.11.11,0,0,0,73.93,201.57Z"/><polygon class="b782ba15-5e3f-4f31-92f6-c948a76896fc" points="76.84 215.58 74.51 215.18 73.88 214.71 72.9 214.55 72.79 214.8 72.42 214.97 72.5 215.51 72.68 216.47 73.23 216.77 74.53 216.71 76.42 217.08 76.84 215.58"/><path class="fd82de32-2b66-4f33-a5af-8545a55a4556" d="M85.28,208.27a1.34,1.34,0,0,0-1.57.86c-.72,1.64-2.51,6.46-2.51,6.46l-5.41-.43.27,2.13,5.67,1.41a1.79,1.79,0,0,0,1.84-1.18s2.42-5.5,3.09-7.39C86.9,209.47,86,208.47,85.28,208.27Z"/><polygon class="ac9c0c4d-88d7-4615-9f2a-6216513f1eb3" points="74.2 213.88 71.75 213.69 73.73 217.48 75.53 217.85 75.05 216.78 74.2 213.88"/><polygon class="b782ba15-5e3f-4f31-92f6-c948a76896fc" points="72.42 214.97 72.83 214.94 73.11 215.03 73.44 215.19 73.5 215.52 73.39 215.57 73.38 215.68 73.35 215.86 73.33 215.97 73.31 216.48 73.19 216.59 72.68 216.47 72.4 215.44 72.42 214.97"/><path class="a80d191d-11cf-42fc-85b8-210009e71f4c" d="M89.72,208a1.88,1.88,0,0,0,0,.44c0,.2.18.06.3.09.8.26,2.66.91,2.16.19a1.66,1.66,0,0,1,.06-1.89c.42-.38.2-1.13.15-1.65-.07-.68.07-1.27-.16-1.56a2.25,2.25,0,0,1-.36-1.31c0-.56-.34-.69-1.11-1.63a1.26,1.26,0,0,0-1.74-.21c-1.56-.28-2.21.92-2.69,2.14s-.09,1.49-.3,2.81-.83,1.38-.86,2.11.66.32,1.16,1.11a1.3,1.3,0,0,0,1.19.7c.81-.68.63-.52.76-1s-.57-.87-.3-1.26-.26-1.13-.41-1.82a1.22,1.22,0,0,1,.71-1.43c.91-.27.42-1.12.67-1.63a.82.82,0,0,1,.75-.47c.73,0,1,.7,1.1,1.18s.4,0,.61.77a1.06,1.06,0,0,1,.2.75c0,.08,0,.2,0,.35a11.12,11.12,0,0,1-.08,1.31,2.36,2.36,0,0,1-.22.7,2.85,2.85,0,0,1-.61.86A1.71,1.71,0,0,1,89.72,208Z"/><rect class="b4849894-d11c-4a86-8fc5-bbad40b9412d" x="83.45" y="218.49" width="0.32" height="2.97" transform="translate(56.61 453.75) rotate(-152.6)"/><polygon class="f3663fed-e2ca-4b5f-b3b7-a8c410370f7d" points="83.07 221.37 82.7 221.71 82.79 221.22 83.07 221.37"/><path class="f3663fed-e2ca-4b5f-b3b7-a8c410370f7d" d="M84.16,218.58s0,.08.11.12.16.06.17,0,0-.08-.12-.12S84.17,218.55,84.16,218.58Z"/><polygon class="b782ba15-5e3f-4f31-92f6-c948a76896fc" points="87.52 219.78 85.13 219.96 84.06 219.53 83.86 219.59 83.81 219.6 83.51 219.7 82.94 219.87 82.89 219.94 83.03 220.91 83.85 221.52 84.86 221.69 85.86 221.31 87.92 221.14 87.52 219.78"/><path class="fd82de32-2b66-4f33-a5af-8545a55a4556" d="M93,209.56c-.79,0-1.35,1.12-1.36,1.95,0,1.92.51,7.19.51,7.19L86,219.79l.52,1.65s5.7.51,7.11-.22a1.84,1.84,0,0,0,1.16-1.28,39.7,39.7,0,0,0-.07-5.9c0-.86-.19-2-.21-2.83A1.64,1.64,0,0,0,93,209.56Z"/><path class="afaef39e-8078-46a0-8c72-02a30cfe9b2b" d="M100.07,335.3,124,321l-13.12-7.76L87,327.49a.79.79,0,0,0,0,1.35l11,6.47A2,2,0,0,0,100.07,335.3Z"/><polygon class="a89db4e0-f404-4a8f-9f5c-c6cd6818c517" points="105.85 298.28 118.64 305.66 133.01 297.38 120.22 290 105.85 298.28"/><polygon class="a5226ffa-db6d-4f93-8a06-55318688076d" points="109.74 298.15 118.87 303.42 129.13 297.51 120 292.24 109.74 298.15"/><polygon class="f79e26ec-5732-4eaf-8da5-e4fc0c651a77" points="105.85 298.28 118.64 305.66 118.64 323.71 105.85 316.34 105.85 298.28"/><polygon class="b1eb18a3-11ce-422c-b6d1-3ec697400f99" points="118.64 305.66 133.01 297.38 133.01 315.44 118.64 323.71 118.64 305.66"/><polygon class="a8f3f732-d44e-49d2-b021-45bd01400a44" points="120.22 271.94 133.01 279.32 133.01 297.38 120.22 290 120.22 271.94"/><polygon class="e1427b10-9b13-4531-88e2-f5ebb560bda3" points="131.58 300.53 120.08 307.15 120.08 310.17 131.58 303.55 131.58 300.53"/><polygon class="a027e679-45e6-4fce-888a-90631266c209" points="127.33 303.61 120.68 307.44 120.68 308.25 127.33 304.42 127.33 303.61"/><polygon class="a027e679-45e6-4fce-888a-90631266c209" points="127.33 304.76 120.68 308.59 120.68 309.41 127.33 305.58 127.33 304.76"/><g class="bec40291-97e0-42f9-b7d0-5a6df3d6610f"><polygon class="ae39c1cb-cdfb-4050-98c4-8ce5be1506a3" points="127.33 303.61 120.68 307.44 120.68 308.25 127.33 304.42 127.33 303.61"/><polygon class="ff073a64-adc9-48f2-95f0-e3b826f8354f" points="127.33 304.76 120.68 308.59 120.68 309.41 127.33 305.58 127.33 304.76"/></g><polygon class="e1427b10-9b13-4531-88e2-f5ebb560bda3" points="131.58 304.43 120.08 311.05 120.08 314.06 131.58 307.44 131.58 304.43"/><polygon class="e1427b10-9b13-4531-88e2-f5ebb560bda3" points="131.58 308.32 120.08 314.94 120.08 317.95 131.58 311.33 131.58 308.32"/><polygon class="e1427b10-9b13-4531-88e2-f5ebb560bda3" points="131.58 312.21 120.08 318.83 120.08 321.84 131.58 315.22 131.58 312.21"/><polygon class="a61c915f-6e2e-41da-974b-7c517f372422" points="130.73 301.6 130.73 301.99 131.15 301.75 131.15 301.36 130.73 301.6"/><polygon class="b86ca86e-1f35-4262-8c8b-dd13a7cad07d" points="130.09 302.01 130.09 302.4 130.51 302.15 130.51 301.76 130.09 302.01"/><polygon class="fd82de32-2b66-4f33-a5af-8545a55a4556" points="129.44 302.4 129.44 302.79 129.87 302.54 129.87 302.15 129.44 302.4"/><polygon class="a027e679-45e6-4fce-888a-90631266c209" points="127.33 307.47 120.68 311.3 120.68 312.11 127.33 308.28 127.33 307.47"/><polygon class="a027e679-45e6-4fce-888a-90631266c209" points="127.33 308.63 120.68 312.45 120.68 313.27 127.33 309.44 127.33 308.63"/><polygon class="a61c915f-6e2e-41da-974b-7c517f372422" points="130.73 305.46 130.73 305.85 131.15 305.61 131.15 305.22 130.73 305.46"/><polygon class="b86ca86e-1f35-4262-8c8b-dd13a7cad07d" points="130.09 305.87 130.09 306.26 130.51 306.01 130.51 305.62 130.09 305.87"/><polygon class="fd82de32-2b66-4f33-a5af-8545a55a4556" points="129.44 306.26 129.44 306.65 129.87 306.4 129.87 306.01 129.44 306.26"/><polygon class="a027e679-45e6-4fce-888a-90631266c209" points="127.33 311.36 120.68 315.19 120.68 316 127.33 312.17 127.33 311.36"/><polygon class="a027e679-45e6-4fce-888a-90631266c209" points="127.33 312.52 120.68 316.35 120.68 317.16 127.33 313.33 127.33 312.52"/><polygon class="a61c915f-6e2e-41da-974b-7c517f372422" points="130.73 309.35 130.73 309.74 131.15 309.5 131.15 309.11 130.73 309.35"/><polygon class="b86ca86e-1f35-4262-8c8b-dd13a7cad07d" points="130.09 309.76 130.09 310.15 130.51 309.9 130.51 309.51 130.09 309.76"/><polygon class="fd82de32-2b66-4f33-a5af-8545a55a4556" points="129.44 310.15 129.44 310.54 129.87 310.3 129.87 309.9 129.44 310.15"/><polygon class="a027e679-45e6-4fce-888a-90631266c209" points="127.33 315.19 120.68 319.02 120.68 319.84 127.33 316.01 127.33 315.19"/><polygon class="a027e679-45e6-4fce-888a-90631266c209" points="127.33 316.35 120.68 320.18 120.68 321 127.33 317.17 127.33 316.35"/><g class="e10f0008-99c4-45d6-888a-9f840e294d12"><polygon class="ba28ad9e-e274-4509-9609-19bc53c2317d" points="127.33 307.47 120.68 311.3 120.68 312.11 127.33 308.28 127.33 307.47"/><polygon class="b52be0ec-4746-4144-9ffc-8d03ebfb9c37" points="127.33 308.63 120.68 312.45 120.68 313.27 127.33 309.44 127.33 308.63"/></g><g class="e10f0008-99c4-45d6-888a-9f840e294d12"><polygon class="ff6705e2-b0a8-4fa7-92b1-73b454bb9de6" points="127.33 311.36 120.68 315.19 120.68 316 127.33 312.17 127.33 311.36"/><polygon class="b9ee6071-e60b-4d47-9abf-561af21b4a59" points="127.33 312.52 120.68 316.35 120.68 317.16 127.33 313.33 127.33 312.52"/></g><polygon class="f1bc89d3-1f3f-4027-bf0d-77b264f7cbcd" points="127.33 315.19 120.68 319.02 120.68 319.84 127.33 316.01 127.33 315.19"/><polygon class="a707ddaa-aa57-49c8-a3b5-655a0d823c8c" points="127.33 316.35 120.68 320.18 120.68 321 127.33 317.17 127.33 316.35"/><polygon class="a61c915f-6e2e-41da-974b-7c517f372422" points="130.73 313.19 130.73 313.58 131.15 313.33 131.15 312.94 130.73 313.19"/><polygon class="b86ca86e-1f35-4262-8c8b-dd13a7cad07d" points="130.09 313.59 130.09 313.98 130.51 313.74 130.51 313.35 130.09 313.59"/><polygon class="fd82de32-2b66-4f33-a5af-8545a55a4556" points="129.44 313.99 129.44 314.38 129.87 314.13 129.87 313.74 129.44 313.99"/><polygon class="f6b5c63b-6871-4352-a9cf-b6c17806a93a" points="118.64 287.6 133.01 279.32 133.01 297.38 118.64 305.66 118.64 287.6"/><polygon class="ad68c2bc-5812-46e7-8280-a8cb49329fc0" points="105.85 280.22 120.22 271.94 120.22 290 105.85 298.28 105.85 280.22"/><polygon class="a703607b-596b-4d4b-a6e4-714492e664a4" points="105.85 280.22 118.64 287.6 118.64 305.66 105.85 298.28 105.85 280.22"/><path class="afaef39e-8078-46a0-8c72-02a30cfe9b2b" d="M227.28,341.18,251.06,327l-13.12-7.76-23.78,14.2a.82.82,0,0,0,0,1.42l10.73,6.35A2.35,2.35,0,0,0,227.28,341.18Z"/><polygon class="a89db4e0-f404-4a8f-9f5c-c6cd6818c517" points="232.91 304.25 245.71 311.62 260.08 303.35 247.28 295.97 232.91 304.25"/><polygon class="a5226ffa-db6d-4f93-8a06-55318688076d" points="236.8 304.12 245.93 309.38 256.19 303.48 247.06 298.21 236.8 304.12"/><polygon class="f79e26ec-5732-4eaf-8da5-e4fc0c651a77" points="232.91 304.25 245.71 311.62 245.71 329.68 232.91 322.31 232.91 304.25"/><polygon class="b1eb18a3-11ce-422c-b6d1-3ec697400f99" points="245.71 311.62 260.08 303.35 260.08 321.4 245.71 329.68 245.71 311.62"/><polygon class="ace28890-2bc9-470b-9870-c2d066f58789" points="247.28 277.88 260.08 285.25 260.08 303.31 247.28 295.93 247.28 277.88"/><polygon class="e1427b10-9b13-4531-88e2-f5ebb560bda3" points="258.64 306.5 247.14 313.12 247.14 316.14 258.64 309.51 258.64 306.5"/><polygon class="a027e679-45e6-4fce-888a-90631266c209" points="254.39 309.57 247.74 313.4 247.74 314.22 254.39 310.39 254.39 309.57"/><polygon class="a027e679-45e6-4fce-888a-90631266c209" points="254.39 310.73 247.74 314.56 247.74 315.38 254.39 311.55 254.39 310.73"/><g class="bec40291-97e0-42f9-b7d0-5a6df3d6610f"><polygon class="b1ba3e70-b4b6-4f09-bc49-34b9412da08e" points="254.39 309.57 247.74 313.4 247.74 314.22 254.39 310.39 254.39 309.57"/><polygon class="a63b6815-652e-489f-ac94-fec09fac7a35" points="254.39 310.73 247.74 314.56 247.74 315.38 254.39 311.55 254.39 310.73"/></g><polygon class="e1427b10-9b13-4531-88e2-f5ebb560bda3" points="258.64 310.39 247.14 317.01 247.14 320.03 258.64 313.41 258.64 310.39"/><polygon class="e1427b10-9b13-4531-88e2-f5ebb560bda3" points="258.64 314.28 247.14 320.9 247.14 323.92 258.64 317.3 258.64 314.28"/><polygon class="e1427b10-9b13-4531-88e2-f5ebb560bda3" points="258.64 318.17 247.14 324.8 247.14 327.81 258.64 321.19 258.64 318.17"/><polygon class="a61c915f-6e2e-41da-974b-7c517f372422" points="257.79 307.57 257.79 307.96 258.21 307.71 258.21 307.32 257.79 307.57"/><polygon class="b86ca86e-1f35-4262-8c8b-dd13a7cad07d" points="257.15 307.97 257.15 308.36 257.57 308.12 257.57 307.73 257.15 307.97"/><polygon class="fd82de32-2b66-4f33-a5af-8545a55a4556" points="256.5 308.37 256.5 308.75 256.93 308.51 256.93 308.12 256.5 308.37"/><polygon class="a027e679-45e6-4fce-888a-90631266c209" points="254.39 313.43 247.74 317.26 247.74 318.08 254.39 314.25 254.39 313.43"/><polygon class="a027e679-45e6-4fce-888a-90631266c209" points="254.39 314.59 247.74 318.42 247.74 319.24 254.39 315.41 254.39 314.59"/><polygon class="a61c915f-6e2e-41da-974b-7c517f372422" points="257.79 311.43 257.79 311.82 258.21 311.57 258.21 311.18 257.79 311.43"/><polygon class="b86ca86e-1f35-4262-8c8b-dd13a7cad07d" points="257.15 311.83 257.15 312.22 257.57 311.98 257.57 311.59 257.15 311.83"/><polygon class="fd82de32-2b66-4f33-a5af-8545a55a4556" points="256.5 312.23 256.5 312.62 256.93 312.37 256.93 311.98 256.5 312.23"/><polygon class="a027e679-45e6-4fce-888a-90631266c209" points="254.39 317.32 247.74 321.15 247.74 321.97 254.39 318.14 254.39 317.32"/><polygon class="a027e679-45e6-4fce-888a-90631266c209" points="254.39 318.48 247.74 322.31 247.74 323.13 254.39 319.3 254.39 318.48"/><polygon class="a61c915f-6e2e-41da-974b-7c517f372422" points="257.79 315.32 257.79 315.71 258.21 315.46 258.21 315.07 257.79 315.32"/><polygon class="b86ca86e-1f35-4262-8c8b-dd13a7cad07d" points="257.15 315.73 257.15 316.12 257.57 315.87 257.57 315.48 257.15 315.73"/><polygon class="fd82de32-2b66-4f33-a5af-8545a55a4556" points="256.5 316.12 256.5 316.51 256.93 316.26 256.93 315.87 256.5 316.12"/><polygon class="a027e679-45e6-4fce-888a-90631266c209" points="254.39 321.16 247.74 324.99 247.74 325.8 254.39 321.97 254.39 321.16"/><polygon class="a027e679-45e6-4fce-888a-90631266c209" points="254.39 322.32 247.74 326.15 247.74 326.96 254.39 323.13 254.39 322.32"/><g class="e10f0008-99c4-45d6-888a-9f840e294d12"><polygon class="bae24bd8-dbf7-4f5e-9296-5c4efcf6fc55" points="254.39 313.43 247.74 317.26 247.74 318.08 254.39 314.25 254.39 313.43"/><polygon class="e3643641-f872-41d9-a798-bdedb0cff369" points="254.39 314.59 247.74 318.42 247.74 319.24 254.39 315.41 254.39 314.59"/></g><g class="e10f0008-99c4-45d6-888a-9f840e294d12"><polygon class="b78caeb9-ea22-4a88-8f79-82a6b9e023e1" points="254.39 317.32 247.74 321.15 247.74 321.97 254.39 318.14 254.39 317.32"/><polygon class="a0dfe2ac-0728-4237-ae03-c9e1420a4bf2" points="254.39 318.48 247.74 322.31 247.74 323.13 254.39 319.3 254.39 318.48"/></g><polygon class="a927ec2f-4885-4fcb-bb73-cb036bf45649" points="254.39 321.16 247.74 324.99 247.74 325.8 254.39 321.97 254.39 321.16"/><polygon class="b5e58ef3-57ce-41d8-adc0-32919f2a92aa" points="254.39 322.32 247.74 326.15 247.74 326.96 254.39 323.13 254.39 322.32"/><polygon class="a61c915f-6e2e-41da-974b-7c517f372422" points="257.79 319.15 257.79 319.54 258.21 319.3 258.21 318.91 257.79 319.15"/><polygon class="b86ca86e-1f35-4262-8c8b-dd13a7cad07d" points="257.15 319.56 257.15 319.95 257.57 319.7 257.57 319.32 257.15 319.56"/><polygon class="fd82de32-2b66-4f33-a5af-8545a55a4556" points="256.5 319.95 256.5 320.34 256.93 320.1 256.93 319.71 256.5 319.95"/><polygon class="b678d7fa-df78-4ba1-9669-35c74f96c81b" points="245.71 293.53 260.08 285.25 260.08 303.31 245.71 311.59 245.71 293.53"/><polygon class="e8b9d3b1-e2cc-46ea-9102-e4d54b8f0c7a" points="232.91 286.15 247.28 277.88 247.28 295.93 232.91 304.21 232.91 286.15"/><polygon class="bc113619-8411-4d1b-b67a-2ff3352c0db2" points="232.91 286.15 245.71 293.53 245.71 311.59 232.91 304.21 232.91 286.15"/><g class="f84a4821-4405-4859-b35d-8ed0f016bc1c"><path class="a89db4e0-f404-4a8f-9f5c-c6cd6818c517" d="M332.05,312.27l-16.31,9.46a4.92,4.92,0,0,1-4.95,0L248.45,285.4a3.8,3.8,0,0,1,0-6.57l15.72-9.11a5.33,5.33,0,0,1,5.35,0l62.53,36.45A3.52,3.52,0,0,1,332.05,312.27Z"/></g><path class="afaef39e-8078-46a0-8c72-02a30cfe9b2b" d="M8.32,287.11l33.12,19.57a2.58,2.58,0,0,0,2.63,0l37.93-22-35.54-21L8.33,285.81A.75.75,0,0,0,8.32,287.11Z"/><polygon class="ee624b7f-a4f3-4c20-9d88-2e5ebd242106" points="12.75 280.52 12.79 280.57 12.79 280.5 12.75 280.52"/><path class="a80d191d-11cf-42fc-85b8-210009e71f4c" d="M69.32,199.6l-1.18-.68h0a.72.72,0,0,0-.76,0l-55.45,32a.72.72,0,0,0-.37.63v47.05a.7.7,0,0,0,.34.61h0l1.15.67.51-1.06-.09-.11,54.6-31.48a.72.72,0,0,0,.37-.63V200.18Z"/><path class="e1427b10-9b13-4531-88e2-f5ebb560bda3" d="M69.3,247.91l-55.45,32a.73.73,0,0,1-1.1-.63V232.2a.72.72,0,0,1,.37-.63l55.45-32a.73.73,0,0,1,1.1.64v47.05A.72.72,0,0,1,69.3,247.91Z"/><polygon class="a89db4e0-f404-4a8f-9f5c-c6cd6818c517" points="67.69 246.72 14.71 277.27 14.71 232.33 67.69 201.78 67.69 246.72"/><path class="a80d191d-11cf-42fc-85b8-210009e71f4c" d="M105.84,270.49h0v-1.43l-1-.12-.3.36L70.3,249.57a1.29,1.29,0,0,0-1.26,0L15.35,280.49l-.63-.35-1.08.39v1.38h0a.9.9,0,0,0,.44.85L49.2,303a1.24,1.24,0,0,0,1.26,0l54.94-31.64A.89.89,0,0,0,105.84,270.49Z"/><path class="af846c6f-6388-45b5-899d-e782e7b6bc29" d="M69,248.07,14.09,279.71a.89.89,0,0,0,0,1.54L49.2,301.5a1.29,1.29,0,0,0,1.26,0l54.94-31.64a.89.89,0,0,0,0-1.55L70.3,248.07A1.24,1.24,0,0,0,69,248.07Z"/><path class="f79e26ec-5732-4eaf-8da5-e4fc0c651a77" d="M69.36,252.11,21.47,279.68a.48.48,0,0,0,0,.82l15.24,8.79a.85.85,0,0,0,.82,0l47.88-27.58a.46.46,0,0,0,0-.81l-15.24-8.79A.81.81,0,0,0,69.36,252.11Z"/><polygon class="f79e26ec-5732-4eaf-8da5-e4fc0c651a77" points="58.8 279.35 71.6 286.73 88.14 277.2 75.34 269.82 58.8 279.35"/><path class="a6158332-ec7f-480f-bfac-9f511ca2af37" d="M14.72,232.33v7.58c12-6.09,37.3-17.27,53-12.44V201.78Z"/><polygon class="a26cd919-fca5-47ce-bd70-4a6c42aed5a7" points="20.63 267.89 20.63 268.47 21.13 268.18 21.13 267.6 21.13 239.98 20.63 240.27 20.63 267.89"/><polygon class="a26cd919-fca5-47ce-bd70-4a6c42aed5a7" points="61.16 244.27 21.13 267.6 21.13 268.18 61.16 244.85 61.16 244.27"/><path class="a61c915f-6e2e-41da-974b-7c517f372422" d="M21.24,267.33a.2.2,0,0,1-.11,0A.24.24,0,0,1,21,267l5.79-12.07.14,0,5.55-.59c4.5-13.5,4.72-13.43,5-13.33s4.54.39,7.42.6l4.86-6.24,5,.69,6.38-6.77a.24.24,0,0,1,.35,0,.26.26,0,0,1,0,.36l-6.56,7L50,235.87l-4.84,6.21H45c-1.57-.12-6.43-.47-7.48-.6-.51,1-3,8.27-4.63,13.13l0,.15-5.73.61-5.67,11.82A.24.24,0,0,1,21.24,267.33Z"/><path class="fd82de32-2b66-4f33-a5af-8545a55a4556" d="M21.24,267.33h0a.25.25,0,0,1-.2-.3l3.34-16.48,9.44,6.55.7-19.73L44,239.15l7.88-.74L53.4,233l5.51-8.1a.27.27,0,0,1,.35-.07.26.26,0,0,1,.07.35l-5.5,8.06-1.55,5.63-8.3.79h0L35,238,34.24,258l-9.57-6.65-3.19,15.74A.25.25,0,0,1,21.24,267.33Z"/><g class="f0cee8ce-7f21-4f61-a8ef-7092133fb38a"><path class="b6fda832-1575-439c-b3b7-2ab7c0ef05ae" d="M133.75,364.89l1.36.78a2.55,2.55,0,0,0,2.56,0L180,341l-5.24-3-41,23.89A1.75,1.75,0,0,0,133.75,364.89Z"/></g><path class="a80d191d-11cf-42fc-85b8-210009e71f4c" d="M184.21,274.07,182.32,273h0a2,2,0,0,0-2,0l-28,16.15a3.2,3.2,0,0,0-1.6,2.77v60.7a2,2,0,0,0,1,1.71h0l0,0h0l1.48,1,.65-1.06,27.87-16.06a3.2,3.2,0,0,0,1.6-2.77V275.23Z"/><path class="e1427b10-9b13-4531-88e2-f5ebb560bda3" d="M152.28,292.92v60.71a2,2,0,0,0,3,1.72l28-16.15a3.2,3.2,0,0,0,1.6-2.77v-60.7a2,2,0,0,0-3-1.73l-28,16.16A3.18,3.18,0,0,0,152.28,292.92Z"/><path class="fd1a71d2-0d59-4af5-b11b-23f15c55721b" d="M182.3,276.9a1.12,1.12,0,0,1,.94,1.11v56.43a2.87,2.87,0,0,1-1.44,2.49L155.62,352a1.12,1.12,0,0,1-.71.13,1.09,1.09,0,0,1-.8-.21,1.15,1.15,0,0,0,1.53.38L182.18,337a2.89,2.89,0,0,0,1.46-2.52V278A1.13,1.13,0,0,0,182.3,276.9Z"/><path class="a89db4e0-f404-4a8f-9f5c-c6cd6818c517" d="M181.55,277l-26.18,15.1a2.87,2.87,0,0,0-1.44,2.49v56.72a1.15,1.15,0,0,0,.18.61,1.25,1.25,0,0,0,1.17.2l.08,0h0a1.17,1.17,0,0,0,.24-.09l26.18-15.1a2.87,2.87,0,0,0,1.44-2.49V278A1.13,1.13,0,0,0,181.55,277Z"/><path class="a6158332-ec7f-480f-bfac-9f511ca2af37" d="M181.55,277l-26.18,15.1a2.87,2.87,0,0,0-1.44,2.49v9c7.73-4.1,21.21-9,29.31,1.15V278A1.13,1.13,0,0,0,181.55,277Z"/><path class="a26cd919-fca5-47ce-bd70-4a6c42aed5a7" d="M177.17,311.3a14,14,0,0,1-2.18,7.09l2.53.95a20,20,0,0,0,3-10,10.08,10.08,0,0,0-.31-2.43L177,309.71A7.72,7.72,0,0,1,177.17,311.3Z"/><path class="a61c915f-6e2e-41da-974b-7c517f372422" d="M177,309.71l2.08-1.78,1.17-1c-1.18-4.65-5.72-6-11.1-2.94l.05,3.55C173,305.36,176.2,306.36,177,309.71Z"/><path class="fd82de32-2b66-4f33-a5af-8545a55a4556" d="M168.17,304.6c.32-.21.65-.42,1-.61h0l.05,3.55h0c-4.35,2.5-7.83,8.23-7.78,12.81a5.06,5.06,0,0,0,1.68,4.08c1.46,1.16,3.75,1.15,6.31-.32a16.31,16.31,0,0,0,5.59-5.72l1.45.54,1.08.41a23.38,23.38,0,0,1-8.08,8.32c-3.55,2-6.73,2.12-8.83.61-1.57-1.14-2.54-3.18-2.57-6C158,316.1,162.42,308.43,168.17,304.6Z"/><polygon class="ec4cc0bc-eb62-4339-be32-d08408a84902" points="195.84 338.74 195.59 337.92 196.3 336.75 196.8 335.07 198.47 334.53 197.93 336.82 197.96 337.81 197.65 338.85 197.09 340.03 196.26 340.18 195.62 339.99 195.84 338.74"/><path class="a3090907-ac64-4e8e-b8db-305a54cd70a0" d="M200.19,330l-1.51,5.49c-.12.39-.21.79-.5,1a.72.72,0,0,1-.65.07c-.66-.24-1.17-.58-1.14-1.05l.88-6.29-1.77-5.64a1.2,1.2,0,0,1-.22-1.07c0-.14.21-.52.21-.52a3.79,3.79,0,0,1,.36-.56,1.67,1.67,0,0,1,.39-.27,2.36,2.36,0,0,1,1.24-.73l.27-.06c.38-.08.57,0,.71.32a68.5,68.5,0,0,1,1.58,7A5.56,5.56,0,0,1,200.19,330Z"/><path class="fd5ccbd4-33d0-4775-be2f-f50bbb8b1d51" d="M193.46,369.82a1.45,1.45,0,0,0,0-.36l-.19-.84V365.7l-2.62-.1,0,2-2.45.51a6.52,6.52,0,0,0-1.22.43l-.41.32c-.07.13-.22.24-.22.38s.06.19.31.34l4.89,1a2.22,2.22,0,0,0,1.65-.29Z"/><path class="fd5ccbd4-33d0-4775-be2f-f50bbb8b1d51" d="M198.82,366.46a2.78,2.78,0,0,0,.06-.64l-.25-.78-.09-2.82h-2.16v2.14L195,364a1.52,1.52,0,0,0-1.08.29l-.31.26c-.05.13-.18.26-.16.39s0,.46.23.57l3.43,1.94a1.67,1.67,0,0,0,1.56-.51Z"/><path class="a80d191d-11cf-42fc-85b8-210009e71f4c" d="M187.63,337.52c.65-2.07,6-.65,8.27-1.3s2.89,0,2.89,0v4.55a1.55,1.55,0,0,1-.07.43l-.39,9.28.44,13.14c.11,1.19-.33,1.45-2.21,1.38l-.32-.08a1.17,1.17,0,0,1-.46-.89l-1-12.63-.6-7.86-.91.18v10.91l.39,12.16a1.36,1.36,0,0,1-1.9,1.15l-.59-.25a1.38,1.38,0,0,1-.83-1.27l-2.85-24.7h0A26.63,26.63,0,0,1,187.63,337.52Z"/><path class="a3090907-ac64-4e8e-b8db-305a54cd70a0" d="M188.67,322.62s2.91-3.79,7.26-3.68,2.44,6,2.61,11.7,2.1,7.37-1.77,8.84-4.79,2-6.09,1.69-2.31.62-3.23-.67c-.77-1.08-.69-1.18-.42-2.6a80.26,80.26,0,0,0,.11-10.23C187,325.82,187.76,323.2,188.67,322.62Z"/><path class="fb36001d-c2eb-4f7d-9f0e-ec8cc85ed98b" d="M191,318.74l-.05,2.17a1.56,1.56,0,0,0,1.67,1.42h.11a1.55,1.55,0,0,0,1.44-1.36l.05-3.37Z"/><path class="fb36001d-c2eb-4f7d-9f0e-ec8cc85ed98b" d="M191.62,311.3c-.49.07-1.17,0-1.5.43a4,4,0,0,0-1.29,2.14c-.4,1.5-.57,3.31-.06,4a8.31,8.31,0,0,0,2.8,1.93,3.71,3.71,0,0,0,2.89-2.19c.8-1.74,1.54-3.23,1.19-3.89A3.9,3.9,0,0,0,191.62,311.3Z"/><path class="a80d191d-11cf-42fc-85b8-210009e71f4c" d="M192.53,318.44c.45.49.68.71,1.59.32a1.46,1.46,0,0,0,1-1.27c.19-.85,1.14-1.92,1-3s-.79-3.82-2.36-3.88-1.74-1.12-2.38-1.14a3.08,3.08,0,0,0-2.76,2.13c-.44,1.62.35,2.18.93,2s.86.85.79,1.56,0,.5,0,.71.33.16.33.16a5,5,0,0,1,.48-.61c.25-.23,1.08-.5,1.06.44s-.4.85-.27,1.51A5.12,5.12,0,0,0,192.53,318.44Z"/><polygon class="fb36001d-c2eb-4f7d-9f0e-ec8cc85ed98b" points="177.48 317.56 175.59 315.53 174.9 313.92 174.29 313.24 173.65 312.74 173.67 313.31 173.9 313.53 174.11 313.92 173.94 313.97 173.26 313.2 172.48 312.17 172.2 312.61 172.94 313.85 172.96 315.47 173.67 316.47 174.57 317.16 176.4 319.12 177.48 317.56"/><path class="a3090907-ac64-4e8e-b8db-305a54cd70a0" d="M188.06,323c-2.57-.56-6.65-1.5-6.65-1.5l-5-5.34c-.33-.36-1.26.18-1.42.63l-.09.21a1.44,1.44,0,0,0,.08,1.12L179,323.9a4.25,4.25,0,0,0,1.37,1s5.48,2.58,7.09,3.08c.92.28,1.21-1,1.59-1.93l0-.65C189.31,324.62,188.82,323.13,188.06,323Z"/><path class="a80d191d-11cf-42fc-85b8-210009e71f4c" d="M317,297.36l-7,4.08a2.82,2.82,0,0,1-2.85,0L278.82,285.1a1.42,1.42,0,0,1,0-2.45l7.18-4.18a2.13,2.13,0,0,1,2.13,0L317,295.15A1.28,1.28,0,0,1,317,297.36Z"/><path class="e1427b10-9b13-4531-88e2-f5ebb560bda3" d="M317,296.67l-7,4.08a2.82,2.82,0,0,1-2.85,0l-28.27-16.35a1.42,1.42,0,0,1,0-2.45l7.18-4.18a2.13,2.13,0,0,1,2.13,0L317,294.46A1.28,1.28,0,0,1,317,296.67Z"/><polygon class="acc9ee72-c8c3-4a63-ae11-79965dfaa759" points="309.21 267.14 309.21 293.73 291.14 283.29 291.14 256.7 309.21 267.14"/><polygon class="af846c6f-6388-45b5-899d-e782e7b6bc29" points="307.68 268.02 307.68 294.6 289.61 284.16 289.61 257.58 307.68 268.02"/><polygon class="b21e470b-8bf7-48f3-8fef-3ab071ec542b" points="307.68 294.6 309.21 293.73 309.21 267.14 307.68 268.02 307.68 294.6"/><polygon class="a22104ba-474e-4ea3-882a-46047e153bea" points="307.68 294.6 309.21 293.73 309.21 267.14 307.68 268.02 307.68 294.6"/><path class="a80d191d-11cf-42fc-85b8-210009e71f4c" d="M267,202.68l3-1.64h0a2.89,2.89,0,0,1,2.22-.3h0a3.46,3.46,0,0,1,.7.29l64.35,37.1a6.45,6.45,0,0,1,3.22,5.58v53.5a2.86,2.86,0,0,1-1.51,2.54h0l-2.62,1.6.27-.18a2.87,2.87,0,0,0,1.12-2.29v-2.15l-61.84-36.55a6.46,6.46,0,0,1-3.13-5.46l-.81-50.35Z"/><path class="e1427b10-9b13-4531-88e2-f5ebb560bda3" d="M269,264.25l64.4,37.13a2.9,2.9,0,0,0,4.35-2.51v-53.6a6.45,6.45,0,0,0-3.22-5.58l-64.41-37.13a2.9,2.9,0,0,0-4.35,2.51v53.59A6.47,6.47,0,0,0,269,264.25Z"/><polygon class="a89db4e0-f404-4a8f-9f5c-c6cd6818c517" points="268.19 251.58 335.26 290.25 335.26 245.88 268.19 207.21 268.19 251.58"/><g class="a53e1b03-597d-459e-8b6f-e16e92408636"><polygon class="fd82de32-2b66-4f33-a5af-8545a55a4556" points="272 237.79 272 250.72 332.31 285.5 332.31 258.67 323.32 242.24 314.87 249.68 306.43 239.38 297.98 245.48 289.54 238.88 281.09 244.29 272 237.79"/></g><path class="e2d8e45d-ed5a-40c1-b0b9-ac6e08f49b47" d="M268.19,207.21V232c13.3.09,43.21,2.92,67.07,24.38V245.88Z"/><path class="b6e1030c-3b48-4576-98ac-0d649eff2afe" d="M295.48,331.06a3.64,3.64,0,0,1-.16-.63l.18-.67v-2.91l2.61-.1,0,2,2.44.51a5.54,5.54,0,0,1,1.21.43l.41.32c.07.12.23.24.23.37s.12.34-.15.44a38,38,0,0,1-4.87,1,2,2,0,0,1-1.71-.3Z"/><path class="b6e1030c-3b48-4576-98ac-0d649eff2afe" d="M287.07,330.19a3.58,3.58,0,0,1-.07-.64l.26-.78.09-3.12h2.15v2.45l1.48-.38a1.48,1.48,0,0,1,1.08.29l.3.25c0,.13.19.27.17.39,0,.27,0,.47-.24.57l-3.52,2a1.6,1.6,0,0,1-1.55-.51Z"/><path class="a80d191d-11cf-42fc-85b8-210009e71f4c" d="M298.46,327.4,298,303.86h0c0-1.41-.21-3.16-.21-3.16-.65-2.06-6-.65-8.24-1.3s-2.88,0-2.88,0c-.42.09-.84,2.43,0,4.53a2.09,2.09,0,0,0,.19.36v11.19l.27,11.46c-.1,1.19.34,1.44,2.21,1.37l.31-.08a1.14,1.14,0,0,0,.46-.89l.64-12.43.34-8.34c.48.13.93.24,1.32.32l2.38,10.77.38,10.1c.07.93.36,1.16,1.47,1.05l1-.15C298.74,328.46,298.46,327.94,298.46,327.4Z"/><path class="fc004439-ce2b-404c-8d80-9c213c76b94c" d="M304,288.74a14.43,14.43,0,0,1,.82-1.51l1-1.41v-1.27l-1-1.65-1.91-.48-.35.47-.1.13-.72,1-.16.54,1.28,2.44L302,288.6l1.84.64Z"/><path class="b87fc5b4-2f84-4f45-ae06-2cb6ef6752e8" d="M296.45,283.73l0,0s0,0,0,0l4.41-6a.27.27,0,0,1,.32-.08l6.9,3a.24.24,0,0,1,.14.14l0,0v.16h0a.35.35,0,0,1-.05.13l-4.41,6a.26.26,0,0,1-.32.08l-6.9-3a.23.23,0,0,1-.15-.22h0Z"/><path class="acf023be-8054-4054-bba1-61d94dfbd4fe" d="M308.24,280.91l-4.41,6a.28.28,0,0,1-.32.08l-6.9-3a.26.26,0,0,1-.11-.4l4.41-6a.27.27,0,0,1,.32-.08l6.9,3A.27.27,0,0,1,308.24,280.91Z"/><polygon class="a89db4e0-f404-4a8f-9f5c-c6cd6818c517" points="307.86 280.89 303.72 286.55 296.88 283.56 301.02 277.91 307.86 280.89"/><line class="f48cce3d-9388-42a0-b644-72f0a5a53fb3" x1="301.02" y1="277.91" x2="307.86" y2="280.89"/><path class="a77a45db-3d32-46a6-b31c-2e5bdc8590ac" d="M300.76,281.09l1.83,1.16L300,283.3a1.47,1.47,0,0,0,.58.64h0a3.51,3.51,0,0,0,3.83-.53h0c1.1-.94,1.17-2.22.16-2.86h0A3.48,3.48,0,0,0,300.76,281.09Z"/><path class="fd82de32-2b66-4f33-a5af-8545a55a4556" d="M300.33,281.08h0a1.92,1.92,0,0,0-.76,2.21l2.58-1.06Z"/><polygon class="fc004439-ce2b-404c-8d80-9c213c76b94c" points="305.77 285.81 305.26 284.76 304.48 283.96 304.3 284.42 304.68 285.07 304.06 285.83 304.04 287.25 304.8 287.23 305.77 285.81"/><path class="b04f7bf1-42f0-4d2d-9ae4-bb72f65f61cd" d="M294.58,286.22c.37-.69,1.87-1,2.27-.36a48.78,48.78,0,0,1,2.78,6.25s.65-1.12,1.19-2.2a16.54,16.54,0,0,1,1.18-2c.24-.33.32-.09.65,0s1.46.62,1.46.62c.3.1.08.3,0,.6a32.2,32.2,0,0,1-2.75,6,1.9,1.9,0,0,1-3.26.2l-3.36-5.86A3.13,3.13,0,0,1,294.58,286.22Z"/><polygon class="fc004439-ce2b-404c-8d80-9c213c76b94c" points="300.38 281.44 299.27 281.46 298.47 281.99 295.79 284.36 296.86 286.1 298.43 284.13 299.48 283.87 300.72 283.26 300.84 282.2 302.23 281.94 302.37 281.48 300.38 281.44"/><path class="b04f7bf1-42f0-4d2d-9ae4-bb72f65f61cd" d="M297.79,284.59c-.14-.41-1.19-1.53-1.56-1.18A18.68,18.68,0,0,0,294,286l-2,2.52a37.9,37.9,0,0,0-3.29-5.33c-.67-.7-1.64-.24-2.25.52l-.07.12c-.73.93-.41,1.9.34,2.93,1.06,1.46,4.19,5.58,4.19,5.58a2,2,0,0,0,1.79.11l5.09-6.7a.84.84,0,0,0,.15-.73C297.89,284.92,297.85,284.77,297.79,284.59Z"/><path class="b04f7bf1-42f0-4d2d-9ae4-bb72f65f61cd" d="M293,301.81l-3.68-.95-2.77-1.35a4.21,4.21,0,0,1-.6-1.47c-.07-1.61.68-3.46.73-5.2.16-5.69-2.63-10,1.71-10.15a14.52,14.52,0,0,1,7.95,2.51c.91.58,1.92,3.84,1.76,5.68-.15,1.65-1.54,3.11.2,8.47.09.3,0,1.36-.5,1.35C296.25,302.43,293.44,301.93,293,301.81Z"/><path class="fc004439-ce2b-404c-8d80-9c213c76b94c" d="M294,281.74a.31.31,0,0,1,.21.33l-.14,2a1.61,1.61,0,0,1-1.85,1.27l-.12,0a1.6,1.6,0,0,1-1.33-1.53l.23-2.65a.33.33,0,0,1,.43-.28Z"/><path class="fc004439-ce2b-404c-8d80-9c213c76b94c" d="M294.83,274.58c.46.19,1.15.32,1.38.81a4.08,4.08,0,0,1,.75,2.44c0,1.59-.26,3.43-.93,4s-3,1.42-3.26,1.22a4.35,4.35,0,0,1-2.33-2.9c-.36-1.93-.72-3.59-.21-4.16A4,4,0,0,1,294.83,274.58Z"/><path class="acf023be-8054-4054-bba1-61d94dfbd4fe" d="M295.45,272.79a3.13,3.13,0,0,1,2.22,2.81c0,1.71-.89,2.07-1.41,1.71s-1.08.64-1.18,1.36-.11.49-.18.71-.37.07-.37.07a1.49,1.49,0,0,0-.15-.62c-.19-.29-.46-.32-.7,0a1,1,0,0,0,0,1.17,1.46,1.46,0,0,1,0,1.12c-.1.28-.59.87-1.07.85a2.71,2.71,0,0,1-1.82-.77,2.19,2.19,0,0,1-.91-1.09s-.79-2.45-.42-3.51,1.73-3.6,3.31-3.27S294.82,272.65,295.45,272.79Z"/><g class="ed306b4b-58c8-460f-9294-aa2a3aa1e65b"><path class="eb96b5fa-4c9c-4b85-bdf7-3ab7f3352fa5" d="M153.45,65.44a19.09,19.09,0,0,0-2.4-.17c-5,0-10.57,2.44-13.36,7a20.33,20.33,0,0,0-2.21,15.49c.06,0,.53.75.59.76a33.65,33.65,0,0,1-.44-4.17C135.63,74.05,143.57,65.66,153.45,65.44Z"/></g><g class="ed306b4b-58c8-460f-9294-aa2a3aa1e65b"><path class="eb96b5fa-4c9c-4b85-bdf7-3ab7f3352fa5" d="M153.43,65.61a19,19,0,0,0-2.4-.17c-5,0-10.57,2.44-13.36,7A20.43,20.43,0,0,0,135.46,88c.06,0,.54.75.6.76a31.85,31.85,0,0,1-.45-4.17C135.61,74.22,143.55,65.83,153.43,65.61Z"/></g><g class="ed306b4b-58c8-460f-9294-aa2a3aa1e65b"><path class="a6012fbe-caab-4244-8420-ecafa1085a54" d="M153.55,65.32a18.8,18.8,0,0,0-2.39-.18c-5,0-10.57,2.45-13.36,7a20.36,20.36,0,0,0-2.21,15.5c.06,0,.53.74.59.76a34,34,0,0,1-.44-4.18C135.74,73.93,143.68,65.54,153.55,65.32Z"/></g><g class="ed306b4b-58c8-460f-9294-aa2a3aa1e65b"><path class="a6012fbe-caab-4244-8420-ecafa1085a54" d="M153.33,65.26a18.8,18.8,0,0,0-2.39-.18c-5,0-10.57,2.45-13.37,7a20.39,20.39,0,0,0-2.2,15.5c.06,0,.53.74.59.76a34,34,0,0,1-.45-4.18C135.51,73.87,143.46,65.48,153.33,65.26Z"/></g><g class="ed306b4b-58c8-460f-9294-aa2a3aa1e65b"><path class="a240a617-16d7-41bb-8172-dee377e00560" d="M153.51,65.26a19.09,19.09,0,0,0-2.4-.18c-5,0-10.57,2.45-13.36,7a20.36,20.36,0,0,0-2.21,15.5c.06,0,.53.74.59.76a34,34,0,0,1-.44-4.18C135.69,73.87,143.63,65.48,153.51,65.26Z"/></g></g></g></svg>