<svg id="a07ae440-3d8d-49c7-b39e-82ead30f28ac" data-name="Layer 1" xmlns="http://www.w3.org/2000/svg" xmlns:xlink="http://www.w3.org/1999/xlink" viewBox="0 0 332.4 369.95"><defs><linearGradient id="b15e2598-c6ad-4be2-bdb3-06fc03a89b85" x1="118.7" y1="-404.04" x2="118.7" y2="-378.61" gradientTransform="matrix(1, 0, 0, -1, 0, -112.38)" gradientUnits="userSpaceOnUse"><stop offset="0" stop-color="#98d0e1"/><stop offset="1"/></linearGradient><linearGradient id="ab72d2a0-0f64-42ed-b276-f5d6067199bb" x1="112.74" y1="-412.58" x2="119.39" y2="-412.58" xlink:href="#b15e2598-c6ad-4be2-bdb3-06fc03a89b85"/><linearGradient id="b979f439-d993-4091-ab29-22eac3a545c3" x1="112.74" y1="-413.78" x2="119.39" y2="-413.78" xlink:href="#b15e2598-c6ad-4be2-bdb3-06fc03a89b85"/><linearGradient id="a3ec5409-28fe-428a-b6d1-3d982f38a01a" x1="112.74" y1="-416.48" x2="119.39" y2="-416.48" xlink:href="#b15e2598-c6ad-4be2-bdb3-06fc03a89b85"/><linearGradient id="b404961d-4311-4541-bbdb-0741d4ff9006" x1="112.74" y1="-417.63" x2="119.39" y2="-417.63" xlink:href="#b15e2598-c6ad-4be2-bdb3-06fc03a89b85"/><linearGradient id="f2ad8ed6-2f0f-4a0b-a847-24ccea3512ac" x1="112.74" y1="-420.33" x2="119.39" y2="-420.33" xlink:href="#b15e2598-c6ad-4be2-bdb3-06fc03a89b85"/><linearGradient id="ad7a54c3-584d-463c-a74f-7b7166c08d81" x1="112.74" y1="-421.48" x2="119.39" y2="-421.48" xlink:href="#b15e2598-c6ad-4be2-bdb3-06fc03a89b85"/><linearGradient id="e1bbbd14-3073-4424-9d5b-1e14a66b8cd7" x1="112.74" y1="-424.18" x2="119.39" y2="-424.18" xlink:href="#b15e2598-c6ad-4be2-bdb3-06fc03a89b85"/><linearGradient id="ec345915-4d58-469f-9226-ca75ea0a7784" x1="112.74" y1="-425.33" x2="119.39" y2="-425.33" xlink:href="#b15e2598-c6ad-4be2-bdb3-06fc03a89b85"/><linearGradient id="a7262bfc-1093-4680-8863-1ca2e3cf7bdb" x1="117.9" y1="-412.32" x2="117.9" y2="-385.98" gradientTransform="matrix(1, 0, 0, -1, 0, -112.38)" gradientUnits="userSpaceOnUse"><stop offset="0.29" stop-color="#98d0e1"/><stop offset="1"/></linearGradient><linearGradient id="b179ddec-876b-4004-9604-e33df6f67067" x1="105.1" y1="-404.94" x2="105.1" y2="-378.61" xlink:href="#b15e2598-c6ad-4be2-bdb3-06fc03a89b85"/><linearGradient id="a901c982-d20d-45c5-9116-60a0264c3eb9" x1="104.3" y1="-412.32" x2="104.3" y2="-386.89" xlink:href="#b15e2598-c6ad-4be2-bdb3-06fc03a89b85"/><linearGradient id="bacb6e5b-e20c-4d2f-b709-6bc1361811e9" x1="245.75" y1="-409.98" x2="245.75" y2="-384.55" xlink:href="#b15e2598-c6ad-4be2-bdb3-06fc03a89b85"/><linearGradient id="a86c26cf-f426-473b-8853-ac253041aa85" x1="239.8" y1="-418.58" x2="246.45" y2="-418.58" xlink:href="#b15e2598-c6ad-4be2-bdb3-06fc03a89b85"/><linearGradient id="bb01b36a-ff74-4c7e-b1e6-9509a91cd1f7" x1="239.8" y1="-419.73" x2="246.45" y2="-419.73" xlink:href="#b15e2598-c6ad-4be2-bdb3-06fc03a89b85"/><linearGradient id="e4bef871-4f3d-4393-8f14-c3aeeae1b266" x1="239.8" y1="-422.43" x2="246.45" y2="-422.43" xlink:href="#b15e2598-c6ad-4be2-bdb3-06fc03a89b85"/><linearGradient id="b1092677-0a09-423b-a8ca-c06cc7c99185" x1="239.8" y1="-423.58" x2="246.45" y2="-423.58" xlink:href="#b15e2598-c6ad-4be2-bdb3-06fc03a89b85"/><linearGradient id="ac8a1070-103f-4cff-a579-7372b41f9899" x1="239.8" y1="-426.33" x2="246.45" y2="-426.33" xlink:href="#b15e2598-c6ad-4be2-bdb3-06fc03a89b85"/><linearGradient id="f4c860d2-8c39-4025-bf7f-080f4136cf76" x1="239.8" y1="-427.48" x2="246.45" y2="-427.48" xlink:href="#b15e2598-c6ad-4be2-bdb3-06fc03a89b85"/><linearGradient id="ba2f4422-bed2-4f39-a114-9c546649785a" x1="239.8" y1="-430.13" x2="246.45" y2="-430.13" xlink:href="#b15e2598-c6ad-4be2-bdb3-06fc03a89b85"/><linearGradient id="fa80befa-1e24-4057-9885-d2a21ddc5da8" x1="239.8" y1="-431.33" x2="246.45" y2="-431.33" xlink:href="#b15e2598-c6ad-4be2-bdb3-06fc03a89b85"/><linearGradient id="a55fc41a-95ed-4619-b4e3-e417d7ed4491" x1="244.95" y1="-418.25" x2="244.95" y2="-391.92" xlink:href="#a7262bfc-1093-4680-8863-1ca2e3cf7bdb"/><linearGradient id="aabe013f-c7f7-4b79-a378-07f8379474d8" x1="232.2" y1="-410.88" x2="232.2" y2="-384.54" xlink:href="#b15e2598-c6ad-4be2-bdb3-06fc03a89b85"/><linearGradient id="e532bd03-7425-4f4b-b853-5a404df75331" x1="231.4" y1="-418.25" x2="231.4" y2="-392.82" xlink:href="#b15e2598-c6ad-4be2-bdb3-06fc03a89b85"/></defs><polygon points="185.9 180.4 182.2 179.4 182.2 183 185.9 180.4" style="fill:#22b573;opacity:0.10000000149011612;isolation:isolate"/><path d="M257.7,246.3l-53.6-30.4a11.72,11.72,0,0,1-5.9-10.1V114.6h.2v91.2a11.43,11.43,0,0,0,5.8,9.9l53.6,30.4Z" transform="translate(0 -3.6)" style="fill:#070b3b"/><path d="M176.3,328.6l-.1-.2,34.2-19.7a11.36,11.36,0,0,0,0-19.7l-63.1-36.4a11.59,11.59,0,0,1-4.2-15.8,11.29,11.29,0,0,1,4.2-4.2L179,214.2a11.29,11.29,0,0,0,5.6-9.8V114.1h.2v90.3a11.59,11.59,0,0,1-5.8,10l-31.7,18.4a11.29,11.29,0,0,0-4.1,15.5,11.51,11.51,0,0,0,4.1,4.1l63.1,36.4a11.59,11.59,0,0,1,4.2,15.8,11.29,11.29,0,0,1-4.2,4.2Z" transform="translate(0 -3.6)" style="fill:#070b3b"/><path d="M81,261l-.1-.2,80.7-47a11.29,11.29,0,0,0,5.6-9.8V111.4h.2V204a11.59,11.59,0,0,1-5.8,10Z" transform="translate(0 -3.6)" style="fill:#070b3b"/><path d="M246.3,67a52.93,52.93,0,0,0-101.6-6.9,19.65,19.65,0,0,0-25,12.5,19.32,19.32,0,0,0-1,6.3,18.41,18.41,0,0,0,.3,3.3,24.69,24.69,0,0,0-5.4-.5,26.3,26.3,0,0,0,0,52.6h132a33.65,33.65,0,0,0,.7-67.3Z" transform="translate(0 -3.6)" style="fill:#a8e3f7;opacity:0.8600000143051147;isolation:isolate"/><path d="M106,110.2c0-12,7.4-21,18.9-21h.8a21.44,21.44,0,1,0-7.6,42.2c.2,0,.3.1.5.1C110.2,128.7,106,119.9,106,110.2Z" transform="translate(0 -3.6)" style="fill:#4aa4c2;opacity:0.5;isolation:isolate"/><path d="M263,97.9c0-15-6.3-27.3-30.4-27.1-2.4-22.6-19.1-39.6-39.9-39.6-14.2,0-27.1,10.7-35,21.3a43,43,0,0,1,73.8,20,27.4,27.4,0,0,1,20.4,45C257.8,112.6,263,106.2,263,97.9Z" transform="translate(0 -3.6)" style="fill:#4aa4c2;opacity:0.5;isolation:isolate"/><g style="opacity:0.5"><path d="M145.4,63.4a19.42,19.42,0,0,0-2.4-.2c-5,0-10.6,2.4-13.4,7a20.05,20.05,0,0,0-2.2,15.5c.1,0,.5.7.6.8a29.84,29.84,0,0,1-.4-4.2A18.54,18.54,0,0,1,145.4,63.4Z" transform="translate(0 -3.6)" style="fill:#fff;opacity:0.5;isolation:isolate"/></g><path d="M176.1,117.9s-12.3-15.4-4-31.9,26.5-22.2,46.1-9.8c0,0-29.1-11.2-39.9,9.4S176.1,117.9,176.1,117.9Z" transform="translate(0 -3.6)" style="fill:#4aa4c2;opacity:0.5;isolation:isolate"/><polygon points="181.4 348.4 181.3 348.4 65.5 281.6 65.6 281.4 181.4 348.1 291.5 284.7 291.6 284.9 181.4 348.4" style="fill:#070b3b"/><polygon points="126.8 137.4 126.4 136.8 126.6 136.7 126.8 137 127 136.7 127.2 136.9 126.8 137.4" style="fill:#070b3b"/><path d="M127.8,139.7l-.2-.1.6-.8.2.1Zm1.2-1.6-.2-.1.6-.8.2.1Zm1.2-1.6-.2-.1.6-.8.2.1Zm1.2-1.6-.2-.1.6-.8.2.1Zm1.1-1.6-.2-.1.6-.8.2.1Zm1.2-1.6-.2-.1.6-.8.2.1Zm1.2-1.6-.2-.1.6-.8.2.1Zm1.2-1.6-.2-.1.6-.8.2.1Zm1.2-1.6-.2-.1.6-.8.2.1Zm1.2-1.6-.2-.1.6-.8.2.1Zm1.2-1.6-.2-.1.6-.8.2.1Zm1.2-1.6-.2-.1.6-.8.2.1Zm1.2-1.6-.2-.1.6-.8.2.1Zm1.2-1.6-.2-.1.6-.8.2.1Zm1.2-1.6-.2-.1.6-.8.2.1Zm1.2-1.6-.2-.1.6-.8.2.1Zm1.2-1.6-.2-.1.6-.8.2.1Zm1.2-1.6-.2-.1.6-.8.2.1Zm1.2-1.6-.2-.1.6-.8.2.1Zm1.2-1.6-.2-.1.6-.8.2.1Zm1.1-1.6-.2-.1.6-.8.2.1Zm1.2-1.6-.2-.1.6-.8.2.1Zm1.2-1.6-.2-.1.6-.8.2.1Zm1.2-1.6-.2-.1.6-.8.2.1Zm1.2-1.6-.2-.1.6-.8.2.1Zm1.2-1.6-.2-.1.6-.8.2.1Zm1.2-1.6-.2-.1.6-.8.2.1Zm1.2-1.6-.2-.1.6-.8.2.1Zm1.2-1.5-.2-.2.7-.7.2.2Zm1.4-1.5-.2-.2.7-.7.2.2Zm1.3-1.4-.2-.2.7-.7.2.2Zm1.4-1.5-.2-.2.7-.7.2.2Zm1.4-1.5-.2-.2.7-.7.2.2Zm1.3-1.4-.2-.2.7-.7.2.2Zm1.4-1.5-.2-.2.7-.7.2.2Zm1.4-1.4-.2-.2.7-.7.2.2Zm1.3-1.5-.2-.2.7-.7.2.2Zm1.4-1.4-.2-.2.7-.7.2.2Zm1.4-1.5-.2-.2.7-.7.2.2Zm1.3-1.4-.2-.2.7-.7.2.2Zm1.4-1.5-.2-.2.7-.7.2.2Zm1.4-1.4-.2-.2.7-.7.2.2Zm1.3-1.5-.2-.2.7-.7.2.2Zm1.4-1.4-.2-.2.7-.7.2.2Zm1.4-1.5-.2-.2.7-.7.2.2Zm1.3-1.4-.2-.2.7-.7.2.2Zm1.4-1.5-.2-.2.7-.7.2.2Zm1.4-1.4-.2-.2.7-.7.2.2Zm1.3-1.5-.2-.2.7-.7.2.2Zm1.4-1.5-.2-.2.7-.7.2.2Zm1.4-1.4-.2-.2.7-.7.2.2Zm1.3-1.5-.2-.2.7-.7.2.2Zm1.4-1.4-.2-.2.7-.7.2.2Zm1.4-1.5-.2-.2.7-.7.2.2Zm1.3-1.4-.2-.2.7-.7.2.2Z" transform="translate(0 -3.6)" style="fill:#4aa4c2"/><polygon points="198.1 52.1 197.9 52 198.1 51.7 197.8 51.6 197.9 51.4 198.6 51.6 198.1 52.1" style="fill:#070b3b"/><path d="M196.9,54.9l-.9-.3.1-.2.9.3Zm-1.9-.7-.9-.3.1-.2.9.3Zm-1.9-.6-.9-.3.1-.2.9.3Zm-1.9-.7-.9-.3.1-.2.9.3Zm-1.9-.7-.9-.3.1-.2.9.3Zm-1.8-.6-.9-.3.1-.2,1,.3Zm-1.9-.7-.9-.3.1-.2.9.3Zm-1.9-.7-.9-.3.1-.2.9.3Zm-1.9-.6-.9-.3.1-.3.9.3Zm-1.9-.7-.9-.3.1-.2.9.3Zm-1.8-.7-.9-.3.1-.2.9.4v.1Zm-1.9-.6-.9-.3.1-.2,1,.3Zm-1.9-.7-.9-.3.1-.2.9.3Zm-1.8-.7-.9-.3.1-.2.9.3Zm-1.9-.6-.9-.3.1-.2,1,.3Zm-1.9-.7-.9-.3.1-.2.9.3Zm-1.9-.7-1-.3.1-.2.9.3Zm-1.9-.6-.9-.3.1-.2,1,.3Zm-1.9-.7-.9-.3.1-.2.9.3Zm-1.9-.7-1-.3.1-.2.9.3Zm-1.9-.6-.9-.3.1-.2,1,.3Zm-1.9-.7-.9-.3.1-.2.9.3Zm-1.8-.7-1-.3.1-.2.9.3Zm-1.9-.6-.9-.3.1-.2.9.3Zm-1.9-.7-.9-.3.1-.2.9.3Zm-1.9-.7-1-.3.1-.2.9.3Zm-1.9-.6-.9-.3.1-.2.9.3Zm-1.9-.7-.9-.3.1-.2.9.3Zm-1.8-.7-.9-.3.1-.2.9.3Zm-1.9-.6-.9-.3.1-.2.9.3Z" transform="translate(0 -3.6)" style="fill:#070b3b"/><polygon points="139.7 31.5 139.5 31.3 139.9 30.9 140.5 31.1 140.4 31.3 140 31.2 139.7 31.5" style="fill:#070b3b"/><path d="M91,83.9l-.2-.2.7-.7.2.2Zm1.4-1.4-.2-.2.7-.7.2.2Zm1.3-1.4h0l.6-.8.2.2Zm1.4-1.4h0l.6-.8.2.2Zm1.4-1.4-.2-.2.7-.7.2.2Zm1.4-1.4-.2-.2.7-.7.2.2Zm1.4-1.3-.2-.2.7-.7.2.2Zm1.4-1.4-.2-.2.7-.7.2.2Zm1.4-1.4-.2-.2.7-.7.2.2Zm1.4-1.4-.2-.2.7-.7.2.2Zm1.4-1.4-.2-.2.7-.7.2.2Zm1.4-1.4-.2-.2.7-.7.2.2Zm1.4-1.4-.2-.2.7-.7.2.2Zm1.4-1.4-.2-.2.7-.7.2.2Zm1.4-1.4-.2-.2.7-.7.2.2Zm1.3-1.4-.2-.2.7-.7.2.2Zm1.4-1.4-.2-.2.7-.7.2.2Zm1.4-1.4-.2-.2.7-.7.2.2Zm1.4-1.4-.2-.2.7-.7.2.2Zm1.4-1.4-.2-.2.7-.7.2.2Zm1.4-1.4-.2-.2.7-.7.2.2Zm1.4-1.4-.2-.2.7-.7.2.2Zm1.4-1.4-.2-.2.7-.7.2.2Zm1.4-1.4-.2-.2.7-.7.2.2Zm1.4-1.4-.2-.2.7-.7.2.2Zm1.4-1.4-.2-.2.7-.7.2.2Zm1.4-1.4-.2-.2.7-.7.2.2Zm1.4-1.4-.2-.2.7-.7.2.2Zm1.4-1.4-.2-.2.7-.7.2.2Zm1.3-1.4-.2-.2.7-.7.2.2Zm1.4-1.4-.2-.2.7-.7.2.2Zm1.4-1.3-.2-.2.7-.7.2.2Zm1.4-1.4-.2-.2.7-.7.2.2Zm1.4-1.4-.2-.2.7-.7.2.2Zm1.4-1.4-.2-.2.7-.7.2.2Z" transform="translate(0 -3.6)" style="fill:#070b3b"/><polygon points="90 81.8 89.7 81.3 90.1 80.9 90.3 81 90 81.3 90.2 81.6 90 81.8" style="fill:#070b3b"/><path d="M125.8,139.6l-.5-.8.2-.1.5.8Zm-1-1.6-.6-.8.2-.1.6.8Zm-1.1-1.6-.5-.8.2-.1.5.8Zm-1.1-1.7-.5-.8.2-.1.5.8Zm-1.1-1.7-.6-.8.2-.1.6.8Zm-1.1-1.6-.5-.8.2-.1.5.8Zm-1.1-1.7-.5-.8.2-.1.5.8Zm-1.1-1.6-.6-.8.2-.1.6.8Zm-1-1.7-.5-.8.2-.1.5.8Zm-1.1-1.6-.5-.8.2-.1.5.8Zm-1.1-1.6-.6-.8.2-.1.6.8Zm-1.1-1.7-.5-.8.2-.1.5.8Zm-1.1-1.6-.5-.8.2-.1.5.8Zm-1-1.7-.5-.8.2-.1.6.8Zm-1.1-1.6-.5-.8.2-.1.5.8Zm-1.1-1.6-.6-.8.2-.1.4.9Zm-1.1-1.7-.5-.8.2-.1.6.8Zm-1.1-1.6-.5-.8.2-.1.5.8Zm-1.1-1.7-.6-.8.2-.1.4.9Zm-1.1-1.6-.5-.8.2-.1.6.8Zm-1.1-1.7-.5-.8.2-.1.5.8Zm-1.1-1.6-.6-.8.2-.1.4.9Zm-1.1-1.6-.5-.8.2-.1.6.8Zm-1.1-1.7-.5-.8.2-.1.5.8Zm-1-1.6-.6-.8.2-.1.4.9Zm-1.1-1.7-.5-.8.2-.1.6.8Zm-1.1-1.6-.5-.9.2-.1.5.8Zm-1.1-1.7-.5-.8.2-.1.6.8Zm-1.1-1.6-.5-.8.2-.1.5.8ZM94.3,92l-.5-.8L94,91l.5.8Zm-1.1-1.7-.6-.8.2-.1.6.8Zm-1-1.6-.5-.8.2-.1.5.8ZM91.1,87l-.5-.8.2-.1.5.8Z" transform="translate(0 -3.6)" style="fill:#070b3b"/><polygon points="160.7 91.9 160.5 91.8 160.9 91.3 161.4 91.6 161.3 91.8 161 91.6 160.7 91.9" style="fill:#070b3b"/><path d="M229.5,134.2l-.9-.5.1-.2.9.5Zm-1.7-1-.9-.5.1-.2.9.5Zm-1.8-1-.9-.5.1-.2.9.5Zm-1.7-1-.9-.5.1-.2.9.5Zm-1.8-1-.9-.5.1-.2.9.5Zm-1.7-1-.9-.5.1-.2.9.5Zm-1.7-1-.9-.5.1-.2.9.5Zm-1.8-1-.9-.5.1-.2.9.5Zm-1.7-1-.9-.5.1-.2.9.5Zm-1.8-1-.9-.5.1-.2.9.5Zm-1.7-1-.9-.5.1-.2.9.5Zm-1.8-1-.9-.5.1-.2.9.5Zm-1.7-1-.9-.5.1-.2.9.5Zm-1.8-1-.9-.5.1-.2.9.5Zm-1.7-1-.9-.5.1-.2.9.5Zm-1.8-1-.9-.5.1-.2.9.5Zm-1.7-1-.9-.5.1-.2.9.5Zm-1.8-1-.9-.5.1-.2.9.5Zm-1.7-1-.9-.5.1-.2.9.5Zm-1.8-1-.9-.5.1-.2.9.5Zm-1.7-1-.9-.5.1-.2.9.5Zm-1.8-1-.9-.5.1-.2.9.5Zm-1.7-1-.9-.5.1-.2.9.5Zm-1.8-1-.9-.5.1-.2.9.5Zm-1.7-1-.9-.5.1-.2.9.5Zm-1.8-1-.9-.5.1-.2.9.5Zm-1.7-1-.9-.5.1-.2.9.5Zm-1.8-1-.9-.5.1-.2.9.5Zm-1.7-1-.9-.5.1-.2.9.5Zm-1.8-1-.9-.5.1-.2.9.5Zm-1.7-1-.9-.5.1-.2.9.5Zm-1.8-1-.9-.5.1-.2.9.5Zm-1.7-1-.9-.5.1-.2.9.5Zm-1.8-1-.9-.5.1-.2.9.5Zm-1.7-1-.9-.5.1-.2.9.5Zm-1.8-1-.9-.5.1-.2.9.5Zm-1.7-1-.9-.5.1-.2.9.5Zm-1.8-1-.9-.5.1-.2.9.5Zm-1.7-1-.9-.5.1-.2.9.5Z" transform="translate(0 -3.6)" style="fill:#070b3b"/><polygon points="230.4 131.4 230.4 131.2 230.5 131.2 230.4 131.1 230.5 130.9 231.3 131.4 230.4 131.4" style="fill:#070b3b"/><path d="M128.3,140.8v-.2l1-.1v.2Zm2-.1v-.2l1-.1v.2Zm2-.1v-.2l1-.1v.2Zm2-.1v-.2l1-.1v.2Zm2-.1v-.2l1-.1v.2Zm2-.1V140l1-.1v.2Zm2-.2v-.2l1-.1v.2Zm2-.1v-.2l1-.1v.2Zm2-.1v-.2l1-.1v.2Zm2-.1v-.2l1-.1v.2Zm2-.1v-.2l1-.1v.2Zm2-.1v-.2l1-.1v.2Zm2-.1v-.2l1-.1v.2Zm2-.2v-.2l1-.1v.2Zm2-.1V139h1v.2Zm2-.1v-.2l1-.1v.2Zm2-.1v-.2l1-.1v.2Zm2-.1v-.2l1-.1v.2Zm2-.1v-.2l1-.1v.2Zm2-.1v-.2h1v.2Zm2-.2v-.2l1-.1v.2Zm2-.1v-.2l1-.1v.2Zm2-.1v-.2h1v.2Zm2-.1V138l1-.1v.2Zm2-.1v-.2l1-.1v.2Zm2-.1v-.2l1-.1v.2Zm2-.1v-.2l1-.1v.2Zm2-.2v-.2l1-.1v.2Zm2-.1v-.2l1-.1v.2Zm2-.1v-.2l1-.1v.2Zm2-.1v-.2l1-.1v.2Zm2-.1V137l1-.1v.2Zm2-.1V137l1-.1v.2Zm2-.1v-.2l1-.1v.3Zm2-.2v-.2h1v.2Zm2-.1v-.2l1-.1v.2Zm2-.1v-.2l1-.1v.2Zm2-.1v-.2l1-.1v.2Zm2-.1v-.2l1-.1v.2Zm2-.1v-.2h1v.2Zm2-.1V136l1-.1v.2Zm2-.1V136l1-.1v.2Zm2-.2v-.2h1v.2Zm2-.1v-.2l1-.1v.2Zm2-.1v-.2l1-.1v.2Zm2-.1v-.2l1-.1v.2Zm2-.1v-.2l1-.1v.2Zm2-.1v-.2l1-.1v.2Zm2-.1v-.2l1-.1v.2Zm2-.2V135l1-.1v.2Zm2-.1v-.2l1-.1v.2Z" transform="translate(0 -3.6)" style="fill:#070b3b"/><polygon points="126.5 137.3 127 136.7 127.2 136.9 127 137 127.3 137 127.3 137.3 126.5 137.3" style="fill:#070b3b"/><path d="M127.8,139.7l-.2-.1.6-.8.2.1Zm1.1-1.6-.2-.1.6-.8.2.1Zm1.2-1.6-.2-.1.6-.8.2.1Zm1.2-1.6-.2-.1.6-.8.2.1Zm1.2-1.5-.2-.1.6-.8.2.1Zm1.2-1.6-.2-.1.6-.8.2.1Zm1.1-1.6-.2-.1.6-.8.2.1Zm1.2-1.6-.2-.1.6-.8.2.1Zm1.2-1.5-.2-.1.6-.8.2.1Zm1.2-1.6-.2-.1.6-.8.2.1Zm1.1-1.6-.2-.1.6-.8.2.1Zm1.2-1.6-.2-.1.6-.8.2.1Zm1.2-1.5-.2-.1.6-.8.2.1Zm1.2-1.6-.2-.1.6-.8.2.1Zm1.2-1.6-.2-.1.6-.8.2.1Zm1.1-1.6-.2-.1.6-.8.2.1Zm1.2-1.5-.2-.1.6-.8.2.1Zm1.2-1.6-.2-.1.6-.8.2.1Zm1.2-1.6-.2-.1.6-.8.2.1Zm1.1-1.6-.2-.1.6-.8.2.1Zm1.2-1.5-.2-.1.6-.8.2.1Zm1.2-1.6-.2-.1.6-.8.2.1Zm1.1-1.6-.2-.1.7-.8.2.1Zm1.2-1.6-.2-.1.6-.8.2.1Zm1.2-1.6-.2-.1.6-.8.2.1Zm1.2-1.5-.2-.1.6-.8.2.1Zm1.1-1.6-.2-.1.6-.8.2.1Zm1.2-1.6-.2-.1.6-.8.2.1Z" transform="translate(0 -3.6)" style="fill:#070b3b"/><polygon points="230.8 131.5 230.8 130.8 231 130.7 231 131 231.2 130.8 231.4 131 230.8 131.5" style="fill:#070b3b"/><path d="M232.1,133.9l-.2-.2.7-.7.2.2Zm1.5-1.4-.2-.2.7-.7.2.2Zm1.5-1.4-.2-.2.7-.7.2.2Zm1.4-1.4-.2-.2.7-.7.2.2Zm1.5-1.4-.2-.2.7-.7.2.2Zm1.5-1.4-.2-.2.7-.7.2.2Zm1.5-1.4-.2-.2.7-.7.2.2Zm1.4-1.4-.2-.2.7-.7.2.2Zm1.5-1.4-.2-.2.7-.7.2.2Zm1.5-1.4-.2-.2.7-.7.2.2Zm1.5-1.3-.2-.2.7-.7.2.2Zm1.4-1.4-.2-.2.7-.7.2.2Zm1.5-1.4-.2-.2.7-.7.2.2Zm1.5-1.4-.2-.2.7-.7.2.2Zm1.5-1.4-.2-.2.7-.7.2.2Zm1.4-1.4-.2-.2.7-.7.2.2Zm1.5-1.4-.2-.2.7-.7.2.2Zm1.5-1.4-.2-.2.7-.7.2.2Zm1.5-1.4-.2-.2.7-.7.2.2Zm1.4-1.4-.2-.2.7-.7.2.2Zm1.5-1.4-.2-.2.7-.7.2.2Zm1.5-1.4-.2-.2.7-.7.2.2Zm1.4-1.4-.2-.2.7-.7.2.2Zm1.5-1.4-.2-.2.7-.7.2.2Zm1.5-1.4-.2-.2.7-.7.2.2ZM269,99l-.2-.2.7-.7.2.2Z" transform="translate(0 -3.6)" style="fill:#070b3b"/><polygon points="270.4 94 270.3 93.8 270.6 93.6 270.5 93.1 270.7 93.1 270.9 93.6 270.4 94" style="fill:#070b3b"/><path d="M270.2,95.8l-.3-.9.2-.1.3.9Zm-.5-1.9-.3-.9.2-.1.3.9Zm-.6-1.9-.3-.9.2-.1.3,1Zm-.5-1.9-.3-1,.2-.1.3,1Zm-.6-1.9-.3-1,.2-.1.3,1Zm-.5-2-.3-1,.2-.1.3,1Zm-.6-1.9-.3-1,.2-.1.3,1Zm-.5-1.9-.3-1,.2-.1.3,1Zm-.6-1.9-.3-.9.2-.1.3,1Zm-.5-1.9-.3-1,.2-.1.3,1Zm-.6-1.9-.3-1,.2-.1.3.9Zm-.5-1.9-.3-1,.2-.1.3,1Zm-.5-1.9-.3-.9.2-.1.3,1Zm-.6-1.9-.3-1,.2-.1.3,1Zm-.5-1.9-.3-1,.2-.1.3,1Zm-.6-1.9-.3-1,.2-.1.3,1Zm-.5-1.9-.3-1,.2-.1.3,1Zm-.6-1.9-.3-1,.2-.1.3.9Zm-.5-1.9-.3-1,.2-.1.3,1Zm-.6-1.9-.3-.9.2-.1.3,1Zm-.5-1.9-.3-1,.2-.1.3,1Zm-.6-2-.3-1,.2-.1.3,1Z" transform="translate(0 -3.6)" style="fill:#070b3b"/><polygon points="258.2 50.2 258.1 49.8 257.7 49.8 257.7 49.6 258.3 49.5 258.5 50.1 258.2 50.2" style="fill:#070b3b"/><path d="M199.9,55.4v-.2h1v.2Zm2-.1V55h1v.2Zm2-.1V55h1v.2Zm2,0V55h1v.2Zm2-.1v-.2h1V55Zm2-.1v-.2h1V55Zm2,0v-.2h1V55Zm2-.1v-.2h1v.2Zm2-.1v-.2h1v.2Zm2,0v-.2h1v.2Zm2-.1v-.2h1v.2Zm2-.1v-.2h1v.2Zm2,0v-.2h1v.2Zm2-.1v-.2h1v.2Zm2-.1v-.2h1v.2Zm2,0v-.2h1v.2Zm2-.1V54h1v.2Zm2-.1V54h1v.2Zm2,0V54h1v.2Zm2-.1v-.2h1V54Zm2-.1v-.2h1V54Zm2,0v-.2h1V54Zm2-.1v-.2h1v.2Zm2-.1v-.2h1v.2Zm2,0v-.2h1v.2Zm2-.1v-.2h1v.2Zm2-.1v-.2h1v.2Zm2,0v-.2h1v.2Zm2-.1v-.2h1v.2Z" transform="translate(0 -3.6)" style="fill:#070b3b"/><polygon points="198.6 52.1 198.1 51.6 198.8 51.5 198.9 51.8 198.6 51.8 198.8 52 198.6 52.1" style="fill:#070b3b"/><path d="M230.7,133.4l-.1-1h.2l.1,1Zm-.2-2-.1-1h.2l.1,1Zm-.2-2-.1-1h.2l.1,1Zm-.1-2-.1-1h.2l.1,1Zm-.2-2-.1-1h.2l.1,1Zm-.2-2-.1-1h.2l.1,1Zm-.1-2-.1-1h.2l.1,1Zm-.2-2-.1-1h.2l.1,1Zm-.2-2-.1-1h.2l.1,1Zm-.2-2-.1-1h.2l.1,1Zm-.1-2-.1-1h.2l.1,1Zm-.2-2-.1-1h.2l.1,1Zm-.2-2-.1-1h.2l.1,1Zm-.1-2-.1-1h.2l.1,1Zm-.2-2-.1-1h.2l.1,1Zm-.2-2-.1-1h.2l.1,1Zm-.1-2-.1-1h.2l.1,1Zm-.2-2-.1-1h.2l.1,1Zm-.2-2-.1-1h.2l.1,1Zm-.1-2-.1-1h.2l.1,1Zm-.2-2-.1-1h.2l.1,1Zm-.2-2-.1-1h.2l.1,1Zm-.2-2-.1-1h.2l.1,1Zm-.6-1.8-.7-.8.2-.2.7.8ZM225,86l-.7-.8.2-.2.7.8Zm-1.3-1.5-.7-.8.2-.2.7.8ZM222.4,83l-.7-.8.2-.2.7.8Zm-1.3-1.5-.7-.8.2-.2.7.8ZM219.7,80l-.7-.8.2-.2.7.8Zm-1.3-1.5-.7-.8.2-.2.7.8ZM217.1,77l-.7-.8.2-.2.7.8Zm-1.3-1.6-.7-.8.2-.2.7.8Zm-1.3-1.5-.7-.8.2-.1.7.8Zm-1.4-1.5-.7-.8.2-.2.7.8Zm-1.3-1.5-.7-.8.2-.2.7.8Zm-1.3-1.5-.7-.8.2-.2.7.8Zm-1.4-1.5-.7-.8.2-.2.7.8Zm-1.3-1.6-.7-.8.2-.2.7.8Zm-1.3-1.5-.7-.8.2-.2.7.8Zm-1.3-1.5-.7-.8.2-.2.7.8Zm-1.3-1.5-.7-.8.2-.2.7.8Zm-1.4-1.5-.7-.8.2-.2.7.8Zm-1.3-1.5-.7-.8.2-.2.7.8Zm-1.3-1.5-.7-.8.2-.2.7.8Z" transform="translate(0 -3.6)" style="fill:#070b3b"/><rect x="270.44" y="96.88" width="0.2" height="0.5" transform="translate(120.51 338.72) rotate(-78.29)" style="fill:#070b3b"/><path d="M269.2,97l-1-.2v-.2l1,.2Zm-2-.4-1-.2v-.2l1,.2Zm-2-.4-1-.2v-.2l1,.2Zm-2-.4-1-.2v-.2l1,.2Zm-2-.4-1-.2V95l1,.2Zm-100.4-.2V95l1-.1v.2Zm-1-.1-1-.1v-.2l1,.1Zm3-.1v-.2l1-.1v.2Zm96.5,0-1-.2v-.2l1,.2Zm-94.5-.2v-.2l1-.1v.2Zm-7,0-1-.1v-.2l1,.1Zm9-.2v-.2l1-.1v.2Zm90.5,0-1-.2v-.2l1,.2Zm-101.5-.1-1-.1v-.2l1,.1Zm13-.1v-.2l1-.1v.2Zm-15-.2-1-.1v-.2l1,.1Zm101.5,0-1-.2v-.2l1,.2Zm-84.5,0V94l1-.1v.2Zm2-.2v-.2l1-.1v.2Zm-21,0-1-.1v-.2l1,.1Zm101.5-.1-1-.2v-.2l1,.2Zm-78.5,0v-.2l1-.1v.2Zm-25-.1-1-.1v-.2l1,.1Zm27-.2v-.2l1-.1v.2Zm-29-.1-1-.1v-.2l1,.1Zm103.5,0-1-.2v-.2l1,.2Zm-72.5,0v-.2l1-.1v.2Zm2-.2V93l1-.1v.2Zm-35,0-1-.1V93l1,.1Zm103.5-.2-1-.2v-.2l1,.2Zm-66.6,0v-.2l1-.1V93ZM143.8,93l-1-.1v-.2l1,.1Zm40.9-.1v-.2l1-.1v.2Zm62.6-.1-1-.2v-.2l1,.2Zm-105.5,0-1-.1v-.2l1,.1Zm44.9-.1v-.2l1-.1v.2Zm2-.2v-.2l1-.1v.2Zm-48.9,0-1-.1v-.2l1,.1Zm105.6-.1-1-.2V92l1,.2ZM191,92v-.2l1-.1v.2Zm-52.9-.1-1-.1v-.2l1,.1Zm54.9-.1v-.2l1-.1v.2Zm50.7-.1-1-.2v-.2l1,.2Zm-107.6,0-1-.1v-.2l1,.1Zm58.9,0v-.2l1-.1v.2Zm2-.2v-.2l1-.1v.2Zm-62.9,0-1-.1v-.2l1,.1Zm107.6-.1-1-.2V91l1,.2ZM199,91.3V91l1-.1v.2ZM132.1,91l-1-.1v-.2l1,.1Zm68.9-.1v-.2l1-.1v.2Zm38.7-.1-1-.2v-.2l1,.2Zm-109.6,0-1-.1v-.2l1,.1Zm72.9,0v-.2l1-.1v.2Zm2-.2v-.2l1-.1v.2Zm-76.9-.1-1-.1v-.2l1,.1Zm109.6,0-1-.2v-.2l1,.2ZM207,90.4v-.2l1-.1v.2Zm-80.9-.2-1-.1v-.2l1,.1Zm82.8-.1v-.2l1-.1V90Zm26.9-.1-1-.2v-.2l1,.2Zm-111.7-.1-1-.1v-.2l1,.1Zm86.8,0v-.2l1-.1v.2Zm2-.2v-.2l1-.1v.2Zm-90.8,0-1-.1v-.2l1,.1Zm111.7,0-1-.2v-.2l1,.2Zm-18.9-.1v-.2l1-.1v.2Zm-94.8-.2-1-.1V89l1,.1Zm96.8-.1V89l1-.1v.2Zm14.9,0-1-.2v-.2l1,.2Zm-113.7-.2-1-.1v-.2l1,.1Zm100.8,0v-.2l1-.1V89Zm2-.2v-.2l1-.1v.2Zm8.9,0-1-.2v-.2l1,.2Zm-113.7,0-1-.1v-.2l1,.1Zm106.8-.1v-.2l1-.1v.2Zm-108.8-.2-1-.1v-.2l1,.1Zm110.8,0v-.2l1-.1v.2Zm3,0-.9-.2h0v-.2h0l1,.2Zm-115.7-.2-1-.1V88l1,.1Zm-2-.3-1-.1v-.2l1,.1Zm-2-.3-1-.1v-.2l1,.1Zm-2-.3-1-.1v-.2l1,.1Zm-2-.3-1-.1v-.2l1,.1Zm-2-.3-1-.1v-.2l1,.1Zm-2-.2-1-.1v-.2l1,.1Zm-2-.3-1-.1V86l1,.1Zm-2-.3-1-.1v-.2l1,.1Zm-2-.3-1-.1v-.2l1,.1Zm-2-.3-1-.1v-.2l1,.1Z" transform="translate(0 -3.6)" style="fill:#070b3b"/><rect x="89.93" y="84.73" width="0.2" height="0.5" transform="translate(-6.84 158.47) rotate(-81.86)" style="fill:#070b3b"/><rect x="160.7" y="94.6" width="0.2" height="0.5" transform="translate(-22.18 54.21) rotate(-19.09)" style="fill:#070b3b"/><path d="M160.3,93.7l-.3-.9.2-.1.3,1Zm-.6-1.9-.3-.9.2-.1.3.9Zm-.7-1.9-.3-.9.2-.1.3.9Zm-.6-1.9-.3-.9.2-.1.3.9Zm-.7-1.9-.3-.9.2-.1.3.9Zm-.6-1.9-.3-.9.2-.1.3.9Zm-.7-1.8-.3-.9.2-.1.3.9Zm-.7-1.9-.3-1,.2-.1.3.9Zm-.6-1.9-.3-1,.2-.1.3,1Zm-.7-1.9-.3-1,.2-.1.3,1Zm-.6-1.9-.3-.9.2-.1.3,1Zm-.7-1.9-.3-.9.2-.1.3,1Zm-.6-1.9-.3-.9.2-.1.3.9Zm-.7-1.9-.3-.9.2-.1.3.9Zm-.6-1.9-.3-.9.2-.1.3.9Zm-.7-1.8-.3-1,.2-.1.3.9Zm-.7-1.9-.3-1,.2-.1.3.9Zm-.6-1.9-.3-1,.2-.1.3,1Zm-.7-1.9-.3-1,.2-.1.3,1Zm-.6-1.9-.3-.9.2-.1.3,1Zm-.7-1.9-.3-.9.2-.1.3,1Zm-.6-1.9-.3-.9.2-.1.3.9Zm-.7-1.9-.3-.9.2-.1.3.9Zm-.6-1.9-.3-.9.2-.1.3.9Zm-.7-1.8-.3-1,.2-.1.3.9Zm-.7-1.9-.3-1,.2-.1.3,1Zm-.6-1.9-.3-1,.2-.1.3,1Zm-.7-1.9-.3-.9.2-.1.3,1Zm-.6-1.9-.3-.9.2-.1.3,1Zm-.7-1.9L141,38l.2-.1.3.9Zm-.6-1.9-.3-.9.2-.1.3.9Z" transform="translate(0 -3.6)" style="fill:#070b3b"/><polygon points="140 31.5 139.8 30.9 140.4 30.7 140.5 31 140.1 31.1 140.2 31.5 140 31.5" style="fill:#070b3b"/><path d="M141.4,34.2l-.1-.2.9-.3.1.2Zm1.9-.6-.1-.2,1-.3.1.2Zm2-.7-.1-.2,1-.3.1.2Zm1.9-.6-.1-.2.9-.3.1.2Zm1.9-.7-.1-.2,1-.3.1.2Zm1.9-.7-.1-.2,1-.3.1.2Zm1.9-.6-.1-.2,1-.3.1.2Zm1.9-.7-.1-.2,1-.3.1.2Zm1.9-.7-.1-.2,1-.3.1.2Zm2-.6-.1-.2,1-.3.1.2Zm1.9-.7-.1-.2,1-.3.1.2Zm1.9-.6-.1-.2,1-.3.1.2Zm1.9-.7-.1-.3,1-.3.1.2Zm1.9-.7-.1-.2,1-.3.1.2Zm1.9-.6-.1-.2,1-.3.1.2Zm1.9-.7-.1-.2,1-.3.1.3Zm1.9-.7-.1-.2,1-.3.1.2Zm2-.6-.1-.2,1-.3.1.2Zm1.9-.7-.1-.2,1-.3.1.2Zm1.9-.6-.1-.2,1-.3.1.2Zm1.9-.7-.1-.2,1-.3.1.2Zm1.9-.7-.1-.2,1-.3.1.2Zm1.9-.6-.1-.2,1-.3.1.2Zm1.9-.7-.1-.2,1-.3.1.2Zm1.9-.7-.1-.2,1-.3.1.2Zm2-.6-.1-.2,1-.3.1.2Zm1.9-.7-.1-.2,1-.3.1.2Zm1.9-.6-.1-.2,1-.3.1.2Zm1.9-.7-.1-.2,1-.3.1.2Zm1.9-.7-.1-.2,1-.3.1.2Zm1.9-.6-.1-.2,1-.3.1.2Zm1.9-.7-.1-.2,1-.3.1.2Zm1.9-.7-.1-.2,1-.3.1.2Zm2-.6-.1-.2,1-.3.1.2Zm1.9-.7-.1-.2,1-.3.1.2Z" transform="translate(0 -3.6)" style="fill:#070b3b"/><polygon points="209.1 7.6 208.8 7.3 208.4 7.5 208.3 7.2 208.8 7 209.3 7.4 209.1 7.6" style="fill:#070b3b"/><path d="M257,52.4l-.8-.6.2-.2.8.7Zm-1.5-1.3-.7-.7.2-.2.8.7ZM254,49.8l-.8-.6.2-.2.8.6Zm-1.5-1.3-.8-.6.2-.2.7.6ZM251,47.2l-.8-.6.2-.2.8.7ZM249.5,46l-.8-.7.2-.2.8.7ZM248,44.7l-.7-.6.2-.2.8.6Zm-1.5-1.3-.8-.6.2-.2.8.6ZM245,42.1l-.8-.6.2-.2.8.7Zm-1.5-1.3-.8-.7.2-.2.8.7ZM242,39.5l-.8-.6.2-.2.7.6Zm-1.5-1.3-.7-.6.2-.2.8.6ZM239,36.9l-.8-.6.2-.2.8.7Zm-1.5-1.2-.8-.7.2-.2.8.7ZM236,34.4l-.8-.6.2-.2.8.6Zm-1.5-1.3-.8-.6.2-.2.7.6Zm-1.4-1.3-.8-.7.2-.2.8.7Zm-1.5-1.3-.8-.7.2-.2.8.7Zm-1.5-1.3-.7-.6.2-.2.8.6Zm-1.5-1.3-.8-.6.2-.2.8.6Zm-1.5-1.2-.8-.7.2-.2.7.7Zm-1.5-1.3-.8-.7.2-.2.8.7Zm-1.5-1.3-.8-.6.2-.2.7.6Zm-1.5-1.3-.7-.6.1-.2.8.6Zm-1.5-1.3-.8-.7.2-.2.8.7Zm-1.5-1.3-.8-.7.2-.2.8.7Zm-1.5-1.3-.8-.6.2-.2.8.6Zm-1.5-1.3-.8-.6.2-.2.7.6Zm-1.5-1.2-.7-.7.2-.2.8.7ZM213.6,15l-.8-.7.2-.2.8.7Zm-1.5-1.2-.7-.6.2-.2.8.6Zm-1.5-1.3-.8-.6.2-.2.8.6Z" transform="translate(0 -3.6)" style="fill:#070b3b"/><rect x="257.91" y="52.92" width="0.2" height="0.5" transform="translate(49.39 210.42) rotate(-49.28)" style="fill:#070b3b"/><rect x="208.48" y="10.9" width="0.5" height="0.2" transform="translate(150.32 208.09) rotate(-76.79)" style="fill:#070b3b"/><path d="M198.8,53.9l-.2-.1.2-1,.2.1Zm.5-2H199l.2-1,.2.1Zm.4-1.9-.2-.1.2-1,.3.1Zm.5-1.9L200,48l.2-1,.2.1Zm.4-2-.2-.1.2-1,.2.1Zm.5-1.9-.2-.1.2-1,.2.1Zm.4-2-.2-.1.2-1h.2Zm.5-1.9-.2-.1.2-1,.2.1Zm.5-1.9h-.2l.2-1,.2.1Zm.4-2-.2-.1.2-1,.2.1Zm.5-1.9h-.2l.2-1,.2.1Zm.4-1.9-.2-.1.2-1h.2Zm.5-2-.2-.1.2-1,.2.1Zm.4-1.9-.2-.1.2-1h.2Zm.5-1.9-.2-.1.2-1,.2.1Zm.4-2-.2-.1.2-1h.2Zm.5-1.9-.2-.1.2-1,.2.1Zm.5-1.9h-.2l.2-1,.2.1Zm.4-2-.2-.1.2-1,.2.1Zm.5-1.9h-.2l.2-1,.2.1Zm.4-1.9-.2-.1.2-1,.2.1Zm.5-2-.2-.1.2-1,.2.1Z" transform="translate(0 -3.6)" style="fill:#070b3b"/><rect x="198.15" y="54.98" width="0.5" height="0.2" transform="translate(99.09 231.86) rotate(-76.68)" style="fill:#070b3b"/><circle cx="160.9" cy="91.5" r="1.3" style="fill:#005486"/><path d="M272,97.2a1.3,1.3,0,1,1-1.3-1.3A1.32,1.32,0,0,1,272,97.2Z" transform="translate(0 -3.6)" style="fill:#005486"/><circle cx="230.7" cy="131.3" r="1.3" style="fill:#005486"/><circle cx="227" cy="84.5" r="1.3" style="fill:#005486"/><circle cx="257.8" cy="49.7" r="1.3" style="fill:#005486"/><circle cx="198.4" cy="51.8" r="1.3" style="fill:#005486"/><circle cx="208.8" cy="7.2" r="1.3" style="fill:#005486"/><path d="M141.3,34.6a1.3,1.3,0,1,1-1.3-1.3,1.32,1.32,0,0,1,1.3,1.3Z" transform="translate(0 -3.6)" style="fill:#005486"/><circle cx="89.8" cy="81.6" r="1.3" style="fill:#005486"/><circle cx="126.8" cy="137.2" r="1.3" style="fill:#061e43"/><rect x="146.4" y="81" width="29" height="19.8" style="fill:#ffd131"/><path d="M146.4,84.6l14.5,9.9,14.5-9.9Z" transform="translate(0 -3.6)" style="fill:#061e43"/><path d="M152.8,32.1H137.4a2,2,0,0,0-2,2v9.4a2,2,0,0,0,2,2h9l5.9,5.7-.9-5.7h1.4a2,2,0,0,0,2-2V34.1A2.07,2.07,0,0,0,152.8,32.1Z" transform="translate(0 -3.6)" style="fill:#061e43"/><path d="M144.3,38.3V32.2h-7a2,2,0,0,0-2,2v6.1h7A2,2,0,0,0,144.3,38.3Z" transform="translate(0 -3.6)" style="fill:#032837;opacity:0.20000000298023224;isolation:isolate"/><path d="M125.8,25.7h15.4a2,2,0,0,1,2,2v9.4a2,2,0,0,1-2,2h-9l-5.9,5.7.9-5.7h-1.4a2,2,0,0,1-2-2V27.7A2,2,0,0,1,125.8,25.7Z" transform="translate(0 -3.6)" style="fill:#ffd131"/><rect x="73.7" y="70.3" width="27.4" height="15.4" style="fill:#ffd131"/><rect x="73.7" y="85.5" width="27.4" height="4" style="fill:#506c75"/><rect x="78.6" y="87.1" width="21.1" height="0.7" style="fill:#eeefef"/><rect x="78.6" y="87.1" width="8.8" height="0.7" style="fill:#061e43"/><rect x="73.7" y="85.5" width="4" height="4" style="fill:#d1d1d0;opacity:0.699999988079071;isolation:isolate"/><rect x="75" y="86.7" width="0.5" height="1.4" style="fill:#061e43"/><rect x="75.7" y="86.7" width="0.5" height="1.4" style="fill:#061e43"/><polygon points="89.8 77.8 85 74.3 85 81.3 89.8 77.8" style="fill:#061e43"/><polygon points="248.7 46.1 269.1 46.1 268.9 58.2 248.9 58.2 248.7 46.1" style="fill:#be8f21"/><polygon points="251.6 32.4 251.6 51.9 266.6 51.9 266.6 36.9 266.6 36.9 266.6 36.3 262.7 32.4 251.6 32.4" style="fill:#ffd131"/><polygon points="262.7 32.4 262.7 36.3 266.6 36.3 266.6 36.3 262.7 32.4" style="fill:#061e43"/><rect x="256.9" y="38.3" width="6.9" height="0.3" style="fill:#edf9fe"/><rect x="254.5" y="40.2" width="9.3" height="0.3" style="fill:#edf9fe"/><rect x="254.5" y="42.1" width="9.3" height="0.3" style="fill:#edf9fe"/><rect x="254.5" y="43.9" width="9.3" height="0.3" style="fill:#edf9fe"/><rect x="254.5" y="45.8" width="9.3" height="0.3" style="fill:#edf9fe"/><polygon points="256.4 46.8 256.4 45.6 250.3 45.6 250.3 46.8 248.4 46.8 248.9 58.2 268.9 58.2 269.4 46.8 256.4 46.8" style="fill:#061e43"/><path d="M196.6,39a11.22,11.22,0,0,0-7.8,3.2l7.8,7.8Z" transform="translate(0 -3.6)" style="fill:#061e43"/><path d="M197.7,42.2h0V53.3l-10.4-3.8a9.86,9.86,0,0,0-.7,3.8,11.1,11.1,0,1,0,11.1-11.1Z" transform="translate(0 -3.6)" style="fill:#ffd131"/><path d="M189.4,44.3a10.42,10.42,0,0,0-2.5,4l10.2,3.8Z" transform="translate(0 -3.6)" style="fill:#506c75;opacity:0.5;isolation:isolate"/><path d="M117.6,137.5h.5a8.65,8.65,0,0,1,.7-1.7l-.4-.4a2.62,2.62,0,0,1,3.7-3.7l.4.4a8.65,8.65,0,0,1,1.7-.7v-.5a2.61,2.61,0,1,1,5.2-.4v.8a8.65,8.65,0,0,1,1.7.7l.4-.4a2.62,2.62,0,1,1,3.7,3.7l-.4.4a8.65,8.65,0,0,1,.7,1.7h.5a2.6,2.6,0,0,1,0,5.2h-.5a8.65,8.65,0,0,1-.7,1.7l.4.4a2.62,2.62,0,1,1-3.7,3.7l-.3-.4a8.65,8.65,0,0,1-1.7.7v.5a2.61,2.61,0,0,1-5.2.4v-.8a8.65,8.65,0,0,1-1.7-.7l-.4.4a2.62,2.62,0,1,1-3.7-3.7l.4-.4a8.65,8.65,0,0,1-.7-1.7h-.5a2.65,2.65,0,0,1-2.6-2.6,2.39,2.39,0,0,1,2.5-2.6Zm9.2,7.8a5.2,5.2,0,1,0-5.2-5.2,5.16,5.16,0,0,0,5.2,5.2Z" transform="translate(0 -3.6)" style="fill:#ffd131"/><path d="M108,128.2h.2a4.88,4.88,0,0,1,.3-.7l-.2-.2a1,1,0,0,1,0-1.6,1.12,1.12,0,0,1,1.6,0l.2.2c.2-.1.5-.2.7-.3v-.2a1.2,1.2,0,0,1,1.1-1.2,1.22,1.22,0,0,1,1.2,1.2h0v.2a4.88,4.88,0,0,1,.7.3l.2-.2a1,1,0,0,1,1.6,0,1.12,1.12,0,0,1,0,1.6l-.2.2c.1.2.2.5.3.7h.2a1.16,1.16,0,0,1,.3,2.3h-.4a4.88,4.88,0,0,1-.3.7l.2.2a1.13,1.13,0,0,1-.2,1.6,1.09,1.09,0,0,1-1.5,0l-.2-.2c-.2.1-.5.2-.7.3v.2a1.13,1.13,0,0,1-1.2,1.1,1.11,1.11,0,0,1-1.1-1.1v-.2a4.88,4.88,0,0,1-.7-.3l-.1.2a1,1,0,0,1-1.6,0,1.12,1.12,0,0,1,0-1.6l.2-.2c-.1-.2-.2-.5-.3-.7H108a1.16,1.16,0,1,1-.3-2.3Zm4.1,3.5a2.3,2.3,0,1,0-2.3-2.3h0a2.26,2.26,0,0,0,2.3,2.3Z" transform="translate(0 -3.6)" style="fill:#061e43"/><polygon points="259.2 100 260.5 99.8 261.3 99.7 260.5 93.8 258.4 94 259.2 100" style="fill:#ffd131"/><polygon points="264.7 99.3 266 99.1 266.8 99 266.2 94.1 264.1 94.4 264.7 99.3" style="fill:#ffd131"/><polygon points="270.2 98.6 271.6 98.4 272.4 98.3 271.1 88.5 269 88.8 270.2 98.6" style="fill:#ffd131"/><polygon points="275.8 97.9 277.1 97.7 277.9 97.6 276.2 84.3 274.1 84.5 275.8 97.9" style="fill:#ffd131"/><polygon points="281.3 97.2 282.7 97 283.5 96.9 282.1 86 279.9 86.2 281.3 97.2" style="fill:#ffd131"/><polygon points="286 99.8 256.3 103.5 254.2 87.1 254.8 87 256.8 102.9 285.9 99.2 286 99.8" style="fill:#061e43"/><polygon points="264.9 91.4 258 91.5 258 90.9 264.6 90.7 269.6 84.4 274.7 80.4 281.6 81.8 281.5 82.4 274.9 81.1 270 84.9 264.9 91.4" style="fill:#061e43"/><path d="M220.6,122.8l20,3.9a1,1,0,0,1,.8,1.2l-.7,3.4a1,1,0,0,1-1.2.8l-20-3.9a1,1,0,0,1-.8-1.2l.7-3.4A1.1,1.1,0,0,1,220.6,122.8Z" transform="translate(0 -3.6)" style="fill:#ffd131"/><path d="M246.8,141.7a8.19,8.19,0,1,1-10.4-5.1,8.15,8.15,0,0,1,10.4,5.1Z" transform="translate(0 -3.6)" style="fill:#061e43"/><path d="M240,135.3l.2-1.3a1,1,0,0,0-.7-1.2h-.1l-20-3.9a1,1,0,0,0-1.2.7v.1l-.7,3.3a1,1,0,0,0,.7,1.2h.1l15,2.9a9.52,9.52,0,0,1,6.7-1.8Z" transform="translate(0 -3.6)" style="fill:#ffd131"/><path d="M232.8,137.8,218.3,135a1,1,0,0,0-1.2.7v.1l-.6,3.4a1,1,0,0,0,.7,1.2h.1l12.9,2.5A8.13,8.13,0,0,1,232.8,137.8Z" transform="translate(0 -3.6)" style="fill:#ffd131"/><polygon points="239.5 145 237 143.7 237.1 144.8 238.6 145.6 239.5 145" style="fill:#fff"/><path d="M238.6,149.2l-1.5-.7.1,1.1c0,.2.2.3.4.3s.1,0,.1-.1Z" transform="translate(0 -3.6)" style="fill:#fff"/><polygon points="238.9 144.6 238.6 144.5 239.4 142.9 238.6 142.6 237.9 144.1 239.5 145 240.3 143.4 239.7 143.1 238.9 144.6" style="fill:#fff"/><rect x="236.82" y="146.27" width="1.8" height="0.7" transform="translate(1.62 292.24) rotate(-63.96)" style="fill:#fff"/><path d="M240,141.1l-.8,1.6,2.5,1.2.8-1.6Zm-.1,1.9.7-1.5.2.1-.7,1.5Zm1.3.6-.2-.1.7-1.5.2.1Z" transform="translate(0 -3.6)" style="fill:#fff"/><path d="M238.1,142.2a1.5,1.5,0,0,0-1.4-1.1l-1.7-.3-.2.3,1.8,1.1-.9,1.8-2-.8-.2.3,1.2,1.2a1.92,1.92,0,0,0,1.8.4l.6-.2,4.3,2.1a1.58,1.58,0,0,0,.7.7,1.5,1.5,0,1,0,1.3-2.7h0a1.18,1.18,0,0,0-1-.1l-4.3-2.1Zm5.8,4.1-.4.9-1,.1-.5-.8.4-.9,1-.1Z" transform="translate(0 -3.6)" style="fill:#fff"/><path d="M242.7,142.1l-2.5-1.2.2-.4a1.35,1.35,0,0,1,1.9-.6h0a1.47,1.47,0,0,1,.7,1.9h0Z" transform="translate(0 -3.6)" style="fill:#fff"/><rect x="222.67" y="123.04" width="5.5" height="6.9" transform="translate(58.11 319.92) rotate(-78.96)" style="fill:#071841;opacity:0.5;isolation:isolate"/><rect x="221.43" y="129.1" width="5.5" height="6.9" transform="translate(51.16 323.6) rotate(-78.96)" style="fill:#071841;opacity:0.5;isolation:isolate"/><rect x="220.34" y="135.25" width="5.5" height="6.9" transform="translate(44.23 327.5) rotate(-78.96)" style="fill:#071841;opacity:0.5;isolation:isolate"/><path d="M218,5h-5.9L212,3.6h-6.4L205.5,5h-2.1V4.3h-3.3V5h-.5a.94.94,0,0,0-1,1V17a.94.94,0,0,0,1,1H218a.94.94,0,0,0,1-1V6A1,1,0,0,0,218,5Z" transform="translate(0 -3.6)" style="fill:#ffd131"/><path d="M213.6,12.1a4.75,4.75,0,1,1-4.8-4.7h0A4.78,4.78,0,0,1,213.6,12.1Z" transform="translate(0 -3.6)" style="fill:#061e43"/><path d="M214.4,8.1a.91.91,0,1,1-1.8.2V8.1a1,1,0,0,1,1-.8C214,7.3,214.3,7.7,214.4,8.1Z" transform="translate(0 -3.6)" style="fill:#506c75"/><path d="M226.5,76.5h0v-1a.1.1,0,0,0-.1-.1c-.1,0-.1,0-.1.1v1Z" transform="translate(0 -3.6)" style="fill:#070b3b"/><path d="M224.7,75.6h0c-.1,0-.1,0-.1.1l.2,1h.1Z" transform="translate(0 -3.6)" style="fill:#070b3b"/><path d="M222.9,76.1h0c-.1-.1-.1,0-.1,0l.3.9h.1Z" transform="translate(0 -3.6)" style="fill:#070b3b"/><path d="M221.2,76.8h0c-.1,0-.1,0-.1.1l.5.8.1-.1Z" transform="translate(0 -3.6)" style="fill:#070b3b"/><path d="M233.4,94h0l-.6-.7a.1.1,0,0,1-.1.1Z" transform="translate(0 -3.6)" style="fill:#070b3b"/><path d="M219.7,77.9h0l.5.8.1-.1Z" transform="translate(0 -3.6)" style="fill:#070b3b"/><path d="M218.3,79.2h0l.7.7.1-.1Z" transform="translate(0 -3.6)" style="fill:#070b3b"/><path d="M233.9,92l.8.7h0v-.1l-.8-.6Z" transform="translate(0 -3.6)" style="fill:#070b3b"/><path d="M235.8,91.2h0l-.9-.6-.1.1Z" transform="translate(0 -3.6)" style="fill:#070b3b"/><path d="M217.2,80.6h0l.8.6.1-.1Z" transform="translate(0 -3.6)" style="fill:#070b3b"/><path d="M236.6,89.6h0l-1-.4v.1Z" transform="translate(0 -3.6)" style="fill:#070b3b"/><path d="M216.4,82.3h0l.9.4v-.1Z" transform="translate(0 -3.6)" style="fill:#070b3b"/><path d="M215.9,84h0l.9.2v-.1Z" transform="translate(0 -3.6)" style="fill:#070b3b"/><path d="M237.1,87.8h0l-1-.2v.1Z" transform="translate(0 -3.6)" style="fill:#070b3b"/><path d="M215.8,85.9h0c-.1.1,0,.1,0,0h0l1,.1v-.1Z" transform="translate(0 -3.6)" style="fill:#070b3b"/><path d="M237.3,86h0c.1-.1,0-.1,0,0l-1-.1V86Z" transform="translate(0 -3.6)" style="fill:#070b3b"/><path d="M215.9,87.7h0l1-.1v-.1Z" transform="translate(0 -3.6)" style="fill:#070b3b"/><path d="M237.1,84.2h0l-1,.1v.1Z" transform="translate(0 -3.6)" style="fill:#070b3b"/><path d="M236.7,82.4h0l-1,.3v.1Z" transform="translate(0 -3.6)" style="fill:#070b3b"/><path d="M216.4,89.5h0l1.1-.3v-.1Z" transform="translate(0 -3.6)" style="fill:#070b3b"/><path d="M235.9,80.8h0l-1,.4.1.1Z" transform="translate(0 -3.6)" style="fill:#070b3b"/><path d="M217.2,91.1h0l1-.4-.1-.1Z" transform="translate(0 -3.6)" style="fill:#070b3b"/><path d="M234.8,79.3h0c0-.2-.1-.2,0,0l-.8.5.1.1Z" transform="translate(0 -3.6)" style="fill:#070b3b"/><path d="M218.2,92.6h0l.9-.6a.1.1,0,0,0-.1-.1Z" transform="translate(0 -3.6)" style="fill:#070b3b"/><path d="M219.6,93.9c-.1,0-.1.1,0,0h0l.6-.5-.1-.1Z" transform="translate(0 -3.6)" style="fill:#070b3b"/><path d="M233.5,78h0c0-.2-.1-.2,0,0l-.7.6.1.1Z" transform="translate(0 -3.6)" style="fill:#070b3b"/><path d="M232,76.9h0l-.6.7.1.1Z" transform="translate(0 -3.6)" style="fill:#070b3b"/><path d="M230.3,76.1h0l-.4.8h.1Z" transform="translate(0 -3.6)" style="fill:#070b3b"/><path d="M228.5,75.6h0a.1.1,0,0,0-.1-.1l-.2,1h.1Z" transform="translate(0 -3.6)" style="fill:#070b3b"/><path d="M226.5,100.7h0a7,7,0,0,0,2.8-1.2h-5.7A8.13,8.13,0,0,0,226.5,100.7Z" transform="translate(0 -3.6)" style="fill:#ffd131"/><path d="M230.1,96.2H223a.2.2,0,0,0,0,.4h7.1a.2.2,0,1,0,0-.4Z" transform="translate(0 -3.6)" style="fill:#061e43"/><path d="M230.1,97H223a.2.2,0,1,0,0,.4h7.1a.2.2,0,0,0,0-.4Z" transform="translate(0 -3.6)" style="fill:#061e43"/><path d="M230.1,97.8H223a.2.2,0,1,0,0,.4h7.1a.22.22,0,0,0,.2-.2h0c0-.2-.1-.2-.2-.2Z" transform="translate(0 -3.6)" style="fill:#061e43"/><path d="M230.1,98.6H223c-.1,0-.2,0-.2.1s0,.2.1.2h7.2c.1,0,.2,0,.2-.1s0-.2-.2-.2C230.2,98.5,230.1,98.5,230.1,98.6Z" transform="translate(0 -3.6)" style="fill:#061e43"/><path d="M226.5,78.4h0a7.54,7.54,0,0,0-7.7,7.2,7.68,7.68,0,0,0,1.8,5,8.24,8.24,0,0,1,2.2,4.7.6.6,0,0,0,.1.4H230a.6.6,0,0,0,.1-.4,8.24,8.24,0,0,1,2.2-4.7,7.68,7.68,0,0,0,1.8-5A7.39,7.39,0,0,0,226.5,78.4Z" transform="translate(0 -3.6)" style="fill:#ffd131"/><path d="M226.2,95.6H226c0-.2.1-4.9-1.3-6.6l-.2-.3.6.3.5-.7.4.7.5-.8.5.7.2-.7.3.6.4-.6.9.4-.1.1c-1.9,1.3-1.7,6.8-1.7,7h-.2c0-.6-.1-5.6,1.7-7.1l-.4-.2-.5.8-.3-.5-.2.6-.5-.8-.5.9-.4-.7-.5.6h0C226.4,91.1,226.2,95.4,226.2,95.6Z" transform="translate(0 -3.6)" style="fill:#061e43"/><path d="M179,371.9l1.6.9a5.6,5.6,0,0,0,5.6,0l6.3-3.6a5,5,0,0,0,1.8-6.8,4.45,4.45,0,0,0-1.8-1.8l-2.6-1.5a5.42,5.42,0,0,0-5.5,0l-5.4,3.1a5.73,5.73,0,0,0-1.7,7.8A7.51,7.51,0,0,0,179,371.9Z" transform="translate(0 -3.6)" style="fill:#b5e3df;opacity:0.5400000214576721;isolation:isolate"/><path d="M292.8,334.1l-1.6,1a5.6,5.6,0,0,1-5.6,0l-6.3-3.6a5,5,0,0,1-1.8-6.8,4.45,4.45,0,0,1,1.8-1.8l2.6-1.5a5.42,5.42,0,0,1,5.5,0l5.4,3.1a5.45,5.45,0,0,1,2,7.6A4.81,4.81,0,0,1,292.8,334.1Z" transform="translate(0 -3.6)" style="fill:#b5e3df;opacity:0.5400000214576721;isolation:isolate"/><path d="M89.1,255.8l-1.6.9a5.6,5.6,0,0,1-5.6,0l-6.3-3.6a5,5,0,0,1-1.8-6.8,4.45,4.45,0,0,1,1.8-1.8l2.6-1.5a5.42,5.42,0,0,1,5.5,0l5.4,3.1a5.56,5.56,0,0,1,2.1,7.6A5.3,5.3,0,0,1,89.1,255.8Z" transform="translate(0 -3.6)" style="fill:#b5e3df;opacity:0.5400000214576721;isolation:isolate"/><path d="M86.3,245.2l.6,3.2s1.5,2,1.9,2.4c.1.1.2.3.3.4s.1.3.2.4a.55.55,0,0,1-.3.5l-.6.3a1.2,1.2,0,0,1-.8-.2c-.3-.2-1-.8-1-.8l-1.7-1.6a.48.48,0,0,1-.2-.6v-.1c0-.2.1-.3.1-.5v-.5l-.3-2.9Z" transform="translate(0 -3.6)" style="fill:#fca372"/><path d="M78.9,243.6l.2,2.5-2.5,2.6c-.1.1-.1.2-.2.3l-.2.4a.55.55,0,0,0,.3.5l.4.2a.3.3,0,0,0,.4,0l1.4-.8,2.1-1.4c.2-.1.6-.3.6-.5v-.5a1.27,1.27,0,0,0-.1-.6l-.1-.7-.4-2.5Z" transform="translate(0 -3.6)" style="fill:#fca372"/><path d="M81.4,247.1a2.2,2.2,0,0,0-.1-.8l-.1-.4v.1a.71.71,0,0,1-.3.6l-2.4,1.5c-.2.1-.4,0-.6-.2a.19.19,0,0,1,0-.3l.8-1h-.1l-.1.1-1.8,1.9a.52.52,0,0,0-.2.4c-.1.1-.1.3-.2.4a.71.71,0,0,0,.3.6.37.37,0,0,0,.3.1h.4a6.38,6.38,0,0,0,1.4-.8l2.3-1.5c.2-.1.5-.4.5-.6C81.4,247.3,81.4,247.2,81.4,247.1Z" transform="translate(0 -3.6)" style="fill:#203443"/><path d="M84.7,249.5a1.1,1.1,0,0,1,0-.8l.1-.4v.1a.68.68,0,0,0,.4.6l2.4,1.7c.2.1.4.1.5-.1s.1-.2,0-.4l-.9-1.5.2.2.2.2,1.6,1.9c.1.2.2.3.3.5a.6.6,0,0,1,.1.4.66.66,0,0,1-.4.5,1.42,1.42,0,0,1-.6.2,1.7,1.7,0,0,1-.7-.1,5.55,5.55,0,0,1-.8-.6c-.5-.4-2-1.7-2-1.7a1.21,1.21,0,0,1-.5-.5A.31.31,0,0,1,84.7,249.5Z" transform="translate(0 -3.6)" style="fill:#203443"/><path d="M80.8,221.6l-.5,12.2.8,10.4c.1,1-.5,1.5-2,1.4-.1,0-.1-.1-.2-.1-.5-.2-.4-.6-.5-1.2l-1-10-1.7-12.8Z" transform="translate(0 -3.6)" style="fill:#070b3b"/><path d="M85.1,221.6l.4,13.6,1.4,11c0,1.4-.7,1.5-1.8,1.2l-.2-.1c-.5-.2-.5-.4-.6-1l-1.7-10.9L80,221.6Z" transform="translate(0 -3.6)" style="fill:#070b3b"/><path d="M77.4,205.8c1.9-.4,6.4,1.1,8.2,1.7s-1.6,5.4-1.7,8.7,1.5,3.9,1.7,5.7c.1,1.1.1,1.5-.4,1.9s-1.4,1.3-3.9.7-2.1-.2-3.9-1-3.1-.9-2.1-3a15.79,15.79,0,0,0,.9-4.2c.1-2.7-.8-4.8-.7-7.6C75.6,206.6,76.2,206,77.4,205.8Z" transform="translate(0 -3.6)" style="fill:#ffd131"/><path d="M79.7,204.1l-.1,2.1c0,.6-.3,2.5.3,2.8a.37.37,0,0,0,.3.1c.6.1,1.6-2.4,1.6-3V204Z" transform="translate(0 -3.6)" style="fill:#fca372"/><path d="M83.6,200.7a16.05,16.05,0,0,1,0,3.1c-.1.8-.6,2.2-2.1,2s-2-.8-2.2-1.3-1.1-3.1,0-4.7c0,0,.4-1.1,2.1-.9S83.5,199.9,83.6,200.7Z" transform="translate(0 -3.6)" style="fill:#fca372"/><polygon points="68.9 209.9 66.6 209.5 66 209 65 208.8 64.9 209.1 64.5 209.3 64.6 209.8 64.7 210.8 65.3 211.1 66.6 211 68.5 211.4 68.9 209.9" style="fill:#fca372"/><path d="M77.3,206.2a1.33,1.33,0,0,0-1.6.9c-.7,1.6-2.5,6.5-2.5,6.5l-5.4-.4.3,2.1,5.7,1.4a1.65,1.65,0,0,0,1.8-1.2s2.4-5.5,3.1-7.4C79,207.4,78,206.4,77.3,206.2Z" transform="translate(0 -3.6)" style="fill:#ffd131"/><polygon points="66.3 208.2 63.8 208 65.8 211.8 67.6 212.1 67.1 211.1 66.3 208.2" style="fill:#005386"/><polygon points="64.5 209.3 64.9 209.2 65.2 209.3 65.5 209.5 65.6 209.8 65.5 209.9 65.4 210 65.4 210.2 65.4 210.3 65.4 210.8 65.3 210.9 64.7 210.8 64.5 209.7 64.5 209.3" style="fill:#fca372"/><path d="M81.8,205.9v.4c0,.2.2.1.3.1.8.2,2.7.9,2.2.2a1.66,1.66,0,0,1,.1-1.9c.4-.4.2-1.1.1-1.6s.1-1.3-.2-1.6a2.84,2.84,0,0,1-.4-1.3c0-.6-.3-.7-1.1-1.6a1.25,1.25,0,0,0-1.7-.2c-1.6-.3-2.2.9-2.7,2.1s-.1,1.5-.3,2.8-.8,1.4-.9,2.1.7.3,1.2,1.1a1.39,1.39,0,0,0,1.2.7c.8-.7.6-.5.8-1s-.6-.9-.3-1.3-.3-1.1-.4-1.8a1.17,1.17,0,0,1,.7-1.4c.9-.3.4-1.1.7-1.6a.75.75,0,0,1,.7-.5c.7,0,1,.7,1.1,1.2s.4,0,.6.8a1.08,1.08,0,0,1,.2.8v.4a5.7,5.7,0,0,1-.1,1.3,1.85,1.85,0,0,1-.2.7l-.6.9A3.55,3.55,0,0,1,81.8,205.9Z" transform="translate(0 -3.6)" style="fill:#070b3b"/><rect x="74.2" y="217.67" width="3" height="0.3" transform="translate(-152.52 181.19) rotate(-62.6)" style="fill:#231f20"/><polygon points="75.1 215.7 74.8 216 74.9 215.5 75.1 215.7" style="fill:#8c797e"/><path d="M76.2,216.5a.1.1,0,0,0,.1.1c.1,0,.1.1.2,0s0-.1-.1-.1S76.2,216.4,76.2,216.5Z" transform="translate(0 -3.6)" style="fill:#8c797e"/><polygon points="79.6 214.1 77.2 214.2 76.1 213.8 75.9 213.9 75.9 213.9 75.6 214 75 214.2 75 214.2 75.1 215.2 75.9 215.8 76.9 216 77.9 215.6 80 215.4 79.6 214.1" style="fill:#fca372"/><path d="M85.1,207.4c-.8,0-1.4,1.1-1.4,2,0,1.9.5,7.2.5,7.2l-6.1,1,.5,1.6s5.7.5,7.1-.2a2,2,0,0,0,1.2-1.3,38.75,38.75,0,0,0-.1-5.9c-.1-.9-.2-2-.2-2.8A1.62,1.62,0,0,0,85.1,207.4Z" transform="translate(0 -3.6)" style="fill:#ffd131"/><path d="M92.1,333.2l24-14.3L103,311.1,79.1,325.3a.8.8,0,0,0-.3,1.1l.3.3,11,6.5A2.33,2.33,0,0,0,92.1,333.2Z" transform="translate(0 -3.6)" style="fill:#b5e3df;opacity:0.5400000214576721;isolation:isolate"/><polygon points="97.9 292.6 110.7 299.9 125.1 291.7 112.3 284.3 97.9 292.6" style="fill:#b5e3df"/><polygon points="101.8 292.4 110.9 297.7 121.2 291.8 112.1 286.5 101.8 292.4" style="fill:#506c75"/><polygon points="97.9 292.6 110.7 299.9 110.7 318 97.9 310.6 97.9 292.6" style="fill:#2d6375"/><polygon points="110.7 299.9 125.1 291.7 125.1 309.7 110.7 318 110.7 299.9" style="fill:#4aa4c2"/><polygon points="112.3 266.2 125.1 273.6 125.1 291.7 112.3 284.3 112.3 266.2" style="opacity:0.30000001192092896;isolation:isolate;fill:url(#b15e2598-c6ad-4be2-bdb3-06fc03a89b85)"/><polygon points="123.6 294.8 112.2 301.4 112.2 304.5 123.6 297.8 123.6 294.8" style="fill:#061e43"/><polygon points="119.4 297.9 112.7 301.7 112.7 302.5 119.4 298.7 119.4 297.9" style="fill:#005486"/><polygon points="119.4 299.1 112.7 302.9 112.7 303.7 119.4 299.9 119.4 299.1" style="fill:#005486"/><g style="opacity:0.4000000059604645"><polygon points="119.4 297.9 112.7 301.7 112.7 302.5 119.4 298.7 119.4 297.9" style="fill:url(#ab72d2a0-0f64-42ed-b276-f5d6067199bb)"/><polygon points="119.4 299.1 112.7 302.9 112.7 303.7 119.4 299.9 119.4 299.1" style="fill:url(#b979f439-d993-4091-ab29-22eac3a545c3)"/></g><polygon points="123.6 298.7 112.2 305.3 112.2 308.4 123.6 301.7 123.6 298.7" style="fill:#061e43"/><polygon points="123.6 302.6 112.2 309.2 112.2 312.2 123.6 305.6 123.6 302.6" style="fill:#061e43"/><polygon points="123.6 306.5 112.2 313.1 112.2 316.1 123.6 309.5 123.6 306.5" style="fill:#061e43"/><polygon points="122.8 295.9 122.8 296.3 123.2 296 123.2 295.6 122.8 295.9" style="fill:#41b3a7"/><polygon points="122.2 296.3 122.2 296.7 122.6 296.4 122.6 296.1 122.2 296.3" style="fill:#98d0e1"/><polygon points="121.5 296.7 121.5 297.1 121.9 296.8 121.9 296.4 121.5 296.7" style="fill:#ffd131"/><polygon points="119.4 301.8 112.7 305.6 112.7 306.4 119.4 302.6 119.4 301.8" style="fill:#005486"/><polygon points="119.4 302.9 112.7 306.7 112.7 307.6 119.4 303.7 119.4 302.9" style="fill:#005486"/><polygon points="122.8 299.7 122.8 300.1 123.2 299.9 123.2 299.5 122.8 299.7" style="fill:#41b3a7"/><polygon points="122.2 300.2 122.2 300.5 122.6 300.3 122.6 299.9 122.2 300.2" style="fill:#98d0e1"/><polygon points="121.5 300.5 121.5 300.9 121.9 300.7 121.9 300.3 121.5 300.5" style="fill:#ffd131"/><polygon points="119.4 305.6 112.7 309.5 112.7 310.3 119.4 306.5 119.4 305.6" style="fill:#005486"/><polygon points="119.4 306.8 112.7 310.6 112.7 311.4 119.4 307.6 119.4 306.8" style="fill:#005486"/><polygon points="122.8 303.6 122.8 304 123.2 303.8 123.2 303.4 122.8 303.6" style="fill:#41b3a7"/><polygon points="122.2 304 122.2 304.4 122.6 304.2 122.6 303.8 122.2 304" style="fill:#98d0e1"/><polygon points="121.5 304.4 121.5 304.8 121.9 304.6 121.9 304.2 121.5 304.4" style="fill:#ffd131"/><polygon points="119.4 309.5 112.7 313.3 112.7 314.1 119.4 310.3 119.4 309.5" style="fill:#005486"/><polygon points="119.4 310.6 112.7 314.5 112.7 315.3 119.4 311.5 119.4 310.6" style="fill:#005486"/><g style="opacity:0.30000001192092896"><polygon points="119.4 301.8 112.7 305.6 112.7 306.4 119.4 302.6 119.4 301.8" style="fill:url(#a3ec5409-28fe-428a-b6d1-3d982f38a01a)"/><polygon points="119.4 302.9 112.7 306.7 112.7 307.6 119.4 303.7 119.4 302.9" style="fill:url(#b404961d-4311-4541-bbdb-0741d4ff9006)"/></g><g style="opacity:0.30000001192092896"><polygon points="119.4 305.6 112.7 309.5 112.7 310.3 119.4 306.5 119.4 305.6" style="fill:url(#f2ad8ed6-2f0f-4a0b-a847-24ccea3512ac)"/><polygon points="119.4 306.8 112.7 310.6 112.7 311.4 119.4 307.6 119.4 306.8" style="fill:url(#ad7a54c3-584d-463c-a74f-7b7166c08d81)"/></g><polygon points="119.4 309.5 112.7 313.3 112.7 314.1 119.4 310.3 119.4 309.5" style="opacity:0.30000001192092896;isolation:isolate;fill:url(#e1bbbd14-3073-4424-9d5b-1e14a66b8cd7)"/><polygon points="119.4 310.6 112.7 314.5 112.7 315.3 119.4 311.5 119.4 310.6" style="opacity:0.30000001192092896;isolation:isolate;fill:url(#ec345915-4d58-469f-9226-ca75ea0a7784)"/><polygon points="122.8 307.5 122.8 307.9 123.2 307.6 123.2 307.2 122.8 307.5" style="fill:#41b3a7"/><polygon points="122.2 307.9 122.2 308.3 122.6 308 122.6 307.6 122.2 307.9" style="fill:#98d0e1"/><polygon points="121.5 308.3 121.5 308.7 121.9 308.4 121.9 308 121.5 308.3" style="fill:#ffd131"/><polygon points="110.7 281.9 125.1 273.6 125.1 291.7 110.7 299.9 110.7 281.9" style="fill:url(#a7262bfc-1093-4680-8863-1ca2e3cf7bdb)"/><polygon points="97.9 274.5 112.3 266.2 112.3 284.3 97.9 292.6 97.9 274.5" style="opacity:0.5;isolation:isolate;fill:url(#b179ddec-876b-4004-9604-e33df6f67067)"/><polygon points="97.9 274.5 110.7 281.9 110.7 299.9 97.9 292.6 97.9 274.5" style="opacity:0.699999988079071;isolation:isolate;fill:url(#a901c982-d20d-45c5-9116-60a0264c3eb9)"/><path d="M219.4,339l23.8-14.2L230.1,317l-23.8,14.2a.8.8,0,0,0-.3,1.1l.3.3,10.7,6.3A2,2,0,0,0,219.4,339Z" transform="translate(0 -3.6)" style="fill:#b5e3df;opacity:0.5400000214576721;isolation:isolate"/><polygon points="225 298.5 237.8 305.9 252.1 297.6 239.4 290.3 225 298.5" style="fill:#b5e3df"/><polygon points="228.9 298.4 238 303.7 248.3 297.8 239.1 292.5 228.9 298.4" style="fill:#506c75"/><polygon points="225 298.5 237.8 305.9 237.8 324 225 316.6 225 298.5" style="fill:#2d6375"/><polygon points="237.8 305.9 252.1 297.6 252.1 315.7 237.8 324 237.8 305.9" style="fill:#4aa4c2"/><polygon points="239.4 272.2 252.1 279.5 252.1 297.6 239.4 290.2 239.4 272.2" style="opacity:0.30000001192092896;isolation:isolate;fill:url(#bacb6e5b-e20c-4d2f-b709-6bc1361811e9)"/><polygon points="250.7 300.8 239.2 307.4 239.2 310.4 250.7 303.8 250.7 300.8" style="fill:#061e43"/><polygon points="246.5 303.9 239.8 307.7 239.8 308.5 246.5 304.7 246.5 303.9" style="fill:#005486"/><polygon points="246.5 305 239.8 308.8 239.8 309.7 246.5 305.8 246.5 305" style="fill:#005486"/><g style="opacity:0.4000000059604645"><polygon points="246.5 303.9 239.8 307.7 239.8 308.5 246.5 304.7 246.5 303.9" style="fill:url(#a86c26cf-f426-473b-8853-ac253041aa85)"/><polygon points="246.5 305 239.8 308.8 239.8 309.7 246.5 305.8 246.5 305" style="fill:url(#bb01b36a-ff74-4c7e-b1e6-9509a91cd1f7)"/></g><polygon points="250.7 304.7 239.2 311.3 239.2 314.3 250.7 307.7 250.7 304.7" style="fill:#061e43"/><polygon points="250.7 308.6 239.2 315.2 239.2 318.2 250.7 311.6 250.7 308.6" style="fill:#061e43"/><polygon points="250.7 312.5 239.2 319.1 239.2 322.1 250.7 315.5 250.7 312.5" style="fill:#061e43"/><polygon points="249.9 301.9 249.9 302.2 250.3 302 250.3 301.6 249.9 301.9" style="fill:#41b3a7"/><polygon points="249.2 302.3 249.2 302.7 249.6 302.4 249.6 302 249.2 302.3" style="fill:#98d0e1"/><polygon points="248.6 302.7 248.6 303 249 302.8 249 302.4 248.6 302.7" style="fill:#ffd131"/><polygon points="246.5 307.7 239.8 311.6 239.8 312.4 246.5 308.5 246.5 307.7" style="fill:#005486"/><polygon points="246.5 308.9 239.8 312.7 239.8 313.5 246.5 309.7 246.5 308.9" style="fill:#005486"/><polygon points="249.9 305.7 249.9 306.1 250.3 305.9 250.3 305.5 249.9 305.7" style="fill:#41b3a7"/><polygon points="249.2 306.1 249.2 306.5 249.6 306.3 249.6 305.9 249.2 306.1" style="fill:#98d0e1"/><polygon points="248.6 306.5 248.6 306.9 249 306.7 249 306.3 248.6 306.5" style="fill:#ffd131"/><polygon points="246.5 311.6 239.8 315.4 239.8 316.3 246.5 312.4 246.5 311.6" style="fill:#005486"/><polygon points="246.5 312.8 239.8 316.6 239.8 317.4 246.5 313.6 246.5 312.8" style="fill:#005486"/><polygon points="249.9 309.6 249.9 310 250.3 309.8 250.3 309.4 249.9 309.6" style="fill:#41b3a7"/><polygon points="249.2 310 249.2 310.4 249.6 310.2 249.6 309.8 249.2 310" style="fill:#98d0e1"/><polygon points="248.6 310.4 248.6 310.8 249 310.5 249 310.2 248.6 310.4" style="fill:#ffd131"/><polygon points="246.5 315.4 239.8 319.3 239.8 320.1 246.5 316.3 246.5 315.4" style="fill:#005486"/><polygon points="246.5 316.6 239.8 320.4 239.8 321.3 246.5 317.4 246.5 316.6" style="fill:#005486"/><g style="opacity:0.30000001192092896"><polygon points="246.5 307.7 239.8 311.6 239.8 312.4 246.5 308.5 246.5 307.7" style="fill:url(#e4bef871-4f3d-4393-8f14-c3aeeae1b266)"/><polygon points="246.5 308.9 239.8 312.7 239.8 313.5 246.5 309.7 246.5 308.9" style="fill:url(#b1092677-0a09-423b-a8ca-c06cc7c99185)"/></g><g style="opacity:0.30000001192092896"><polygon points="246.5 311.6 239.8 315.4 239.8 316.3 246.5 312.4 246.5 311.6" style="fill:url(#ac8a1070-103f-4cff-a579-7372b41f9899)"/><polygon points="246.5 312.8 239.8 316.6 239.8 317.4 246.5 313.6 246.5 312.8" style="fill:url(#f4c860d2-8c39-4025-bf7f-080f4136cf76)"/></g><polygon points="246.5 315.4 239.8 319.3 239.8 320.1 246.5 316.3 246.5 315.4" style="opacity:0.30000001192092896;isolation:isolate;fill:url(#ba2f4422-bed2-4f39-a114-9c546649785a)"/><polygon points="246.5 316.6 239.8 320.4 239.8 321.3 246.5 317.4 246.5 316.6" style="opacity:0.30000001192092896;isolation:isolate;fill:url(#fa80befa-1e24-4057-9885-d2a21ddc5da8)"/><polygon points="249.9 313.4 249.9 313.8 250.3 313.6 250.3 313.2 249.9 313.4" style="fill:#41b3a7"/><polygon points="249.2 313.8 249.2 314.2 249.6 314 249.6 313.6 249.2 313.8" style="fill:#98d0e1"/><polygon points="248.6 314.2 248.6 314.6 249 314.4 249 314 248.6 314.2" style="fill:#ffd131"/><polygon points="237.8 287.8 252.1 279.5 252.1 297.6 237.8 305.9 237.8 287.8" style="fill:url(#a55fc41a-95ed-4619-b4e3-e417d7ed4491)"/><polygon points="225 280.4 239.4 272.2 239.4 290.2 225 298.5 225 280.4" style="opacity:0.5;isolation:isolate;fill:url(#aabe013f-c7f7-4b79-a378-07f8379474d8)"/><polygon points="225 280.4 237.8 287.8 237.8 305.9 225 298.5 225 280.4" style="opacity:0.699999988079071;isolation:isolate;fill:url(#e532bd03-7425-4f4b-b853-5a404df75331)"/><g style="opacity:0.5400000214576721"><path d="M324.1,310.2l-16.3,9.5a5,5,0,0,1-5,0l-62.3-36.3a3.89,3.89,0,0,1-1.4-5.2,3.76,3.76,0,0,1,1.4-1.4l15.7-9.1a5.23,5.23,0,0,1,5.4,0l62.5,36.4a3.48,3.48,0,0,1,1.3,4.8A4,4,0,0,1,324.1,310.2Z" transform="translate(0 -3.6)" style="fill:#b5e3df"/></g><path d="M.4,285l33.1,19.6a2.44,2.44,0,0,0,2.6,0l37.9-22-35.5-21L.4,283.7a.71.71,0,0,0-.3,1C.2,284.8.3,285,.4,285Z" transform="translate(0 -3.6)" style="fill:#b5e3df;opacity:0.5400000214576721;isolation:isolate"/><polygon points="4.8 274.8 4.9 274.9 4.9 274.8 4.8 274.8" style="fill:#22b573;opacity:0.10000000149011612;isolation:isolate"/><path d="M61.4,197.5l-1.2-.7h0a1.1,1.1,0,0,0-.8,0L4,228.8a.82.82,0,0,0-.4.6v47.1a.71.71,0,0,0,.3.6h0l1.2.7.5-1-.1-.1,54.6-31.5a.82.82,0,0,0,.4-.6V198.2Z" transform="translate(0 -3.6)" style="fill:#070b3b"/><path d="M61.4,245.8l-55.5,32a.71.71,0,0,1-1-.3c-.1-.1-.1-.2-.1-.4V230a.55.55,0,0,1,.4-.6l55.5-32a.71.71,0,0,1,1,.3c.1.1.1.2.1.4v47A.84.84,0,0,1,61.4,245.8Z" transform="translate(0 -3.6)" style="fill:#061e43"/><polygon points="59.8 241 6.8 271.6 6.8 226.6 59.8 196.1 59.8 241" style="fill:#b5e3df"/><path d="M97.9,268.4h0V267l-1-.1-.3.4L62.4,247.6a1.48,1.48,0,0,0-1.3,0L7.4,278.4l-.6-.4-1.1.4v1.4h0c0,.3.1.7.4.8l35.1,20.2a1.48,1.48,0,0,0,1.3,0l55-31.6A.68.68,0,0,0,97.9,268.4Z" transform="translate(0 -3.6)" style="fill:#070b3b"/><path d="M61.1,246,6.2,277.6a.84.84,0,0,0-.3,1.2c.1.1.2.3.3.3l35.1,20.2a1.48,1.48,0,0,0,1.3,0l55-31.6a.86.86,0,0,0,.3-1.2l-.3-.3L62.4,246A1.05,1.05,0,0,0,61.1,246Z" transform="translate(0 -3.6)" style="fill:#071841"/><path d="M61.4,250,13.5,277.6a.48.48,0,0,0-.2.6c0,.1.1.1.2.2l15.2,8.8a.6.6,0,0,0,.8,0l47.9-27.6a.48.48,0,0,0,.2-.6c0-.1-.1-.1-.2-.2L62.2,250A1.1,1.1,0,0,0,61.4,250Z" transform="translate(0 -3.6)" style="fill:#2d6375"/><polygon points="50.9 273.6 63.7 281 80.2 271.5 67.4 264.1 50.9 273.6" style="fill:#2d6375"/><path d="M6.8,230.2v7.6c12-6.1,37.3-17.3,53-12.5V199.6Z" transform="translate(0 -3.6)" style="fill:#fff;opacity:0.699999988079071;isolation:isolate"/><polygon points="12.7 262.2 12.7 262.8 13.2 262.5 13.2 261.9 13.2 234.3 12.7 234.6 12.7 262.2" style="fill:#144d4c"/><polygon points="53.2 238.6 13.2 261.9 13.2 262.5 53.2 239.1 53.2 238.6" style="fill:#144d4c"/><path d="M13.3,265.2h-.1c-.1-.1-.2-.2-.1-.3l5.8-12.1H19l5.5-.6c4.5-13.5,4.7-13.4,5-13.3s4.6.4,7.4.6l4.9-6.2,5,.7,6.4-6.8a.22.22,0,0,1,.4.2v.1l-6.6,7-4.9-.7L37.2,240h-.1c-1.6-.1-6.4-.5-7.5-.6-.5,1-3,8.3-4.6,13.1v.1l-5.7.6L13.6,265C13.5,265.2,13.4,265.3,13.3,265.2Z" transform="translate(0 -3.6)" style="fill:#41b3a7"/><path d="M13.3,265.2h0c-.1,0-.2-.2-.2-.3l3.3-16.5,9.4,6.6.7-19.7,9.5,1.8,7.9-.8,1.5-5.4,5.5-8.1a.37.37,0,0,1,.3-.1h0a.37.37,0,0,1,.1.3h0l-5.5,8.1-1.6,5.6-8.3.8h0l-9-1.7-.7,20.1-9.6-6.6-3,15.7C13.5,265.1,13.4,265.2,13.3,265.2Z" transform="translate(0 -3.6)" style="fill:#ffd131"/><g style="opacity:0.10000000149011612"><path d="M125.8,362.8l1.4.8a2.27,2.27,0,0,0,2.5,0L172,338.9l-5.2-3-41,23.9a1.78,1.78,0,0,0-.6,2.4Z" transform="translate(0 -3.6)" style="fill:#196592"/></g><path d="M176.3,272l-1.9-1.1h0a1.82,1.82,0,0,0-2,0l-28,16.2a3.19,3.19,0,0,0-1.6,2.8v60.7a1.94,1.94,0,0,0,1,1.7h0l1.5,1,.6-1,27.8-16.1a3.19,3.19,0,0,0,1.6-2.8V273.3Z" transform="translate(0 -3.6)" style="fill:#070b3b"/><path d="M144.3,290.8v60.7a2,2,0,0,0,2,2,1.93,1.93,0,0,0,1-.3l28-16.1a3.19,3.19,0,0,0,1.6-2.8V273.6a2,2,0,0,0-2-2,1.69,1.69,0,0,0-1,.3l-28,16.2A3.24,3.24,0,0,0,144.3,290.8Z" transform="translate(0 -3.6)" style="fill:#061e43"/><path d="M174.4,274.8a1.17,1.17,0,0,1,.9,1.1v56.4a3.08,3.08,0,0,1-1.4,2.5l-26.2,15.1a.88.88,0,0,1-.7.1,1.08,1.08,0,0,1-.8-.2,1.13,1.13,0,0,0,1.5.4l26.6-15.3a3,3,0,0,0,1.5-2.5V275.9a1.13,1.13,0,0,0-1.2-1.1Z" transform="translate(0 -3.6)" style="fill:#2e4d65"/><path d="M173.6,274.9,147.4,290a2.85,2.85,0,0,0-1.4,2.5v56.7a1.42,1.42,0,0,0,.2.6,1.28,1.28,0,0,0,1.2.2h.1a.35.35,0,0,0,.2-.1l26.2-15.1a2.85,2.85,0,0,0,1.4-2.5V275.8a1.11,1.11,0,0,0-1.1-1.1C174,274.8,173.8,274.8,173.6,274.9Z" transform="translate(0 -3.6)" style="fill:#b5e3df"/><path d="M173.6,274.9,147.4,290a2.85,2.85,0,0,0-1.4,2.5v9c7.7-4.1,21.2-9,29.3,1.1V275.8a1.11,1.11,0,0,0-1.1-1.1C174,274.8,173.8,274.8,173.6,274.9Z" transform="translate(0 -3.6)" style="fill:#fff;opacity:0.699999988079071;isolation:isolate"/><path d="M169.2,309.2a13.8,13.8,0,0,1-2.2,7.1l2.5,1a19.8,19.8,0,0,0,3-10,9.86,9.86,0,0,0-.3-2.4l-3.2,2.8A2.4,2.4,0,0,1,169.2,309.2Z" transform="translate(0 -3.6)" style="fill:#144d4c"/><path d="M169.1,307.6l2-1.8,1.2-1c-1.2-4.6-5.7-6-11.1-2.9v3.5C165.1,303.2,168.3,304.3,169.1,307.6Z" transform="translate(0 -3.6)" style="fill:#41b3a7"/><path d="M160.2,302.5a8.79,8.79,0,0,1,1-.6h0v3.5h0c-4.4,2.5-7.8,8.2-7.8,12.8a5,5,0,0,0,1.7,4.1c1.5,1.1,3.8,1.1,6.3-.3a17,17,0,0,0,5.6-5.7l1.5.5,1.1.4a22.24,22.24,0,0,1-8.1,8.3c-3.5,2-6.7,2.1-8.8.6-1.6-1.1-2.6-3.1-2.6-6C150,314,154.5,306.3,160.2,302.5Z" transform="translate(0 -3.6)" style="fill:#ffd131"/><polygon points="187.9 333 187.7 332.2 188.4 331 188.9 329.4 190.5 328.8 190 331.1 190 332.1 189.7 333.1 189.2 334.3 188.3 334.5 187.7 334.3 187.9 333" style="fill:#f7b6c7"/><path d="M192.3,327.9l-1.5,5.5a1.91,1.91,0,0,1-.5,1,1.27,1.27,0,0,1-.6.1c-.7-.2-1.2-.6-1.1-1l.9-6.3-1.8-5.6a1.39,1.39,0,0,1-.2-1.1,2.57,2.57,0,0,1,.2-.5,2.09,2.09,0,0,1,.4-.6,1.38,1.38,0,0,1,.4-.3,2.13,2.13,0,0,1,1.2-.7l.3-.1c.4-.1.6,0,.7.3a54.66,54.66,0,0,1,1.6,7A17.63,17.63,0,0,1,192.3,327.9Z" transform="translate(0 -3.6)" style="fill:#3d6e73"/><path d="M185.5,367.7v-.4l-.2-.8v-2.9l-2.6-.1v2l-2.5.5a5.64,5.64,0,0,0-1.2.4l-.4.3a.52.52,0,0,0-.2.4c0,.2.1.2.3.3l4.9,1a2.13,2.13,0,0,0,1.6-.3Z" transform="translate(0 -3.6)" style="fill:#0d0d10"/><path d="M190.9,364.3c0-.2.1-.4.1-.6l-.3-.8-.1-2.8h-2.1v2.1l-1.4-.3a2,2,0,0,0-1.1.3l-.3.3c0,.1-.2.3-.2.4s0,.5.2.6l3.4,1.9a1.57,1.57,0,0,0,1.5-.5Z" transform="translate(0 -3.6)" style="fill:#0d0d10"/><path d="M179.7,335.4c.7-2.1,6-.7,8.3-1.3s2.9,0,2.9,0v4.5a.6.6,0,0,1-.1.4l-.4,9.3.4,13.1c.1,1.2-.3,1.5-2.2,1.4l-.3-.1a1.35,1.35,0,0,1-.5-.9l-1-12.6-.6-7.9-.9.2v10.9l.4,12.1a1.42,1.42,0,0,1-1.4,1.3.9.9,0,0,1-.5-.1l-.6-.3a1.34,1.34,0,0,1-.8-1.3l-2.8-24.7h0A18.12,18.12,0,0,1,179.7,335.4Z" transform="translate(0 -3.6)" style="fill:#070b3b"/><path d="M180.7,320.5s2.9-3.8,7.3-3.7,2.4,6,2.6,11.7,2.1,7.4-1.8,8.8-4.8,2-6.1,1.7-2.3.6-3.2-.7c-.8-1.1-.7-1.2-.4-2.6a69.46,69.46,0,0,0,.1-10.2C179,323.7,179.8,321.1,180.7,320.5Z" transform="translate(0 -3.6)" style="fill:#3d6e73"/><path d="M183.1,316.6v2.2a1.57,1.57,0,0,0,1.7,1.4h.1a1.59,1.59,0,0,0,1.4-1.4v-3.4Z" transform="translate(0 -3.6)" style="fill:#fca372"/><path d="M183.7,309.2c-.5.1-1.2,0-1.5.4a3.93,3.93,0,0,0-1.3,2.1c-.4,1.5-.6,3.3-.1,4a7.74,7.74,0,0,0,2.8,1.9,3.69,3.69,0,0,0,2.9-2.2c.8-1.7,1.5-3.2,1.2-3.9A3.89,3.89,0,0,0,183.7,309.2Z" transform="translate(0 -3.6)" style="fill:#fca372"/><path d="M184.6,316.3c.5.5.7.7,1.6.3a1.52,1.52,0,0,0,1-1.3c.2-.9,1.1-1.9,1-3s-.8-3.8-2.4-3.9-1.7-1.1-2.4-1.1a3.14,3.14,0,0,0-2.8,2.1c-.4,1.6.4,2.2.9,2s.9.9.8,1.6,0,.5,0,.7.3.1.3.1a2.65,2.65,0,0,1,.5-.6c.2-.2,1.1-.5,1.1.4s-.4.8-.3,1.5C184.2,315.6,184.4,316,184.6,316.3Z" transform="translate(0 -3.6)" style="fill:#070b3b"/><polygon points="169.5 311.8 167.7 309.8 167 308.2 166.4 307.5 165.7 307 165.7 307.6 166 307.8 166.2 308.2 166 308.3 165.3 307.5 164.5 306.5 164.3 306.9 165 308.1 165 309.8 165.7 310.8 166.6 311.4 168.5 313.4 169.5 311.8" style="fill:#fca372"/><path d="M180.1,320.9l-6.6-1.5-5-5.3c-.3-.4-1.2.2-1.4.6l-.1.2a1.32,1.32,0,0,0,.2,1.2l4,5.8a5,5,0,0,0,1.4,1s5.5,2.6,7.1,3.1c.9.3,1.2-1,1.6-1.9v-.6C181.4,322.5,180.9,321,180.1,320.9Z" transform="translate(0 -3.6)" style="fill:#3d6e73"/><path d="M309,295.2l-7,4.1a3,3,0,0,1-2.9,0L270.9,283a1.34,1.34,0,0,1-.5-1.9,1.21,1.21,0,0,1,.5-.5l7.2-4.2a2,2,0,0,1,2.1,0L309,293a1.28,1.28,0,0,1,.5,1.7A.82.82,0,0,1,309,295.2Z" transform="translate(0 -3.6)" style="fill:#070b3b"/><path d="M309,294.6l-7,4.1a3,3,0,0,1-2.9,0l-28.3-16.4a1.34,1.34,0,0,1-.5-1.9,1.21,1.21,0,0,1,.5-.5l7.2-4.2a2,2,0,0,1,2.1,0l28.8,16.7a1.3,1.3,0,0,1,.4,1.8C309.4,294.3,309.2,294.4,309,294.6Z" transform="translate(0 -3.6)" style="fill:#061e43"/><polygon points="301.3 261.4 301.3 288 283.2 277.6 283.2 251 301.3 261.4" style="fill:#006286"/><polygon points="299.7 262.3 299.7 288.9 281.7 278.4 281.7 251.9 299.7 262.3" style="fill:#071841"/><polygon points="299.7 288.9 301.3 288 301.3 261.4 299.7 262.3 299.7 288.9" style="fill:#33769e"/><polygon points="299.7 288.9 301.3 288 301.3 261.4 299.7 262.3 299.7 288.9" style="fill:#070b3b;opacity:0.6000000238418579;isolation:isolate"/><path d="M259,200.6l3-1.6h0a2.87,2.87,0,0,1,2.2-.3h0c.2.1.5.2.7.3l64.3,37.1a6.5,6.5,0,0,1,3.2,5.6v53.5a2.82,2.82,0,0,1-1.5,2.5h0l-2.6,1.6.3-.2a2.84,2.84,0,0,0,1.1-2.3v-2.1L267.9,258a6.46,6.46,0,0,1-3.1-5.5l-.8-50.4Z" transform="translate(0 -3.6)" style="fill:#070b3b"/><path d="M261,262.1l64.4,37.1a2.94,2.94,0,0,0,4-1.1,2.3,2.3,0,0,0,.4-1.4V243.1a6.5,6.5,0,0,0-3.2-5.6l-64.4-37.1a2.94,2.94,0,0,0-4,1.1,2.3,2.3,0,0,0-.4,1.4v53.6A6.38,6.38,0,0,0,261,262.1Z" transform="translate(0 -3.6)" style="fill:#061e43"/><polygon points="260.3 245.9 327.3 284.5 327.3 240.2 260.3 201.5 260.3 245.9" style="fill:#b5e3df"/><g style="opacity:0.9200000166893005"><polygon points="264.1 232.1 264.1 245 324.4 279.8 324.4 253 315.4 236.5 306.9 244 298.5 233.7 290.1 239.8 281.6 233.2 273.2 238.6 264.1 232.1" style="fill:#ffd131"/></g><path d="M260.3,205.1v24.8c13.3.1,43.2,2.9,67.1,24.4V243.8Z" transform="translate(0 -3.6)" style="fill:#edf8f1"/><path d="M287.5,328.9c-.1-.2-.1-.4-.2-.6l.2-.7v-2.9l2.6-.1v2l2.4.5a5.64,5.64,0,0,1,1.2.4l.4.3a.52.52,0,0,1,.2.4c0,.2.1.3-.1.5a38.64,38.64,0,0,1-4.9,1,1.75,1.75,0,0,1-1.7-.3Z" transform="translate(0 -3.6)" style="fill:#002a43"/><path d="M279.1,328.1c0-.2-.1-.4-.1-.6l.2-.8.1-3.1h2.1v2.5l1.5-.4a2,2,0,0,1,1.1.3l.3.2c0,.1.2.3.2.4s0,.5-.2.6l-3.5,2a1.57,1.57,0,0,1-1.5-.5Z" transform="translate(0 -3.6)" style="fill:#002a43"/><path d="M290.5,325.3l-.4-23.5h0c0-1.4-.2-3.2-.2-3.2-.6-2.1-6-.6-8.2-1.3s-2.9,0-2.9,0c-.4.1-.8,2.4,0,4.5,0,.1.1.2.2.4v11.2l.3,11.5c-.1,1.2.3,1.4,2.2,1.4l.3-.1a1.35,1.35,0,0,0,.5-.9l.6-12.4.4-8.3,1.3.3,2.4,10.8.4,10.1c.1.9.4,1.2,1.5,1l1-.1C290.8,326.4,290.5,325.8,290.5,325.3Z" transform="translate(0 -3.6)" style="fill:#070b3b"/><path d="M296,286.6a10.93,10.93,0,0,1,.8-1.5l1-1.4v-1.3l-1-1.7-1.9-.5-.4.5-.1.1-.7,1-.2.5,1.3,2.4-.9,1.6,1.8.6Z" transform="translate(0 -3.6)" style="fill:#fca372"/><path d="M288.5,281.6h0l4.4-6a.37.37,0,0,1,.3-.1l6.9,3a.1.1,0,0,1,.1.1h0v.2h0v.1l-4.4,6a.37.37,0,0,1-.3.1l-6.9-3c-.1,0-.1-.1-.1-.2h0Z" transform="translate(0 -3.6)" style="fill:#d6ecf3"/><path d="M300.3,278.8l-4.4,6a.37.37,0,0,1-.3.1l-6.9-3c-.1-.1-.2-.2-.1-.4v-.1l4.4-6a.37.37,0,0,1,.3-.1l6.9,3a.44.44,0,0,1,.1.5Z" transform="translate(0 -3.6)" style="fill:#fff"/><polygon points="299.9 275.2 295.8 280.8 289 277.9 293.1 272.2 299.9 275.2" style="fill:#b5e3df"/><line x1="293.1" y1="272.2" x2="299.9" y2="275.2" style="fill:none"/><path d="M292.8,279l1.8,1.2-2.5,1a.9.9,0,0,0,.6.6h0a3.49,3.49,0,0,0,3.8-.5h0c1.1-.9,1.2-2.2.2-2.9h0A3.71,3.71,0,0,0,292.8,279Z" transform="translate(0 -3.6)" style="fill:#4a878c"/><path d="M292.4,279h0a2.1,2.1,0,0,0-.8,2.2l2.6-1Z" transform="translate(0 -3.6)" style="fill:#ffd131"/><polygon points="297.8 280.1 297.3 279 296.5 278.3 296.4 278.7 296.7 279.4 296.1 280.1 296.1 281.5 296.9 281.5 297.8 280.1" style="fill:#fca372"/><path d="M286.6,284.1c.4-.7,1.9-1,2.3-.4a49.1,49.1,0,0,1,2.8,6.2l1.2-2.2a8.17,8.17,0,0,1,1.2-2c.2-.3.3-.1.6,0s1.5.6,1.5.6c.3.1.1.3,0,.6a27.28,27.28,0,0,1-2.8,6,2,2,0,0,1-2.6.8,1.34,1.34,0,0,1-.7-.6l-3.4-5.9A3.37,3.37,0,0,1,286.6,284.1Z" transform="translate(0 -3.6)" style="fill:#a8e3f7"/><polygon points="292.4 275.7 291.3 275.7 290.5 276.3 287.9 278.6 288.9 280.4 290.5 278.4 291.5 278.2 292.8 277.5 292.9 276.5 294.3 276.2 294.4 275.8 292.4 275.7" style="fill:#fca372"/><path d="M289.9,282.5c-.1-.4-1.2-1.5-1.6-1.2a17.83,17.83,0,0,0-2.2,2.6l-2,2.5a29.26,29.26,0,0,0-3.3-5.3c-.7-.7-1.6-.2-2.3.5l-.1.1c-.7.9-.4,1.9.3,2.9,1.1,1.5,4.2,5.6,4.2,5.6a1.9,1.9,0,0,0,1.8.1l5.1-6.7a1,1,0,0,0,.2-.7C290,282.8,289.9,282.7,289.9,282.5Z" transform="translate(0 -3.6)" style="fill:#a8e3f7"/><path d="M285,299.7l-3.7-1-2.8-1.4a3.39,3.39,0,0,1-.6-1.5c-.1-1.6.7-3.5.7-5.2.2-5.7-2.6-10,1.7-10.1a14,14,0,0,1,7.9,2.5c.9.6,1.9,3.8,1.8,5.7-.1,1.6-1.5,3.1.2,8.5.1.3,0,1.4-.5,1.4C288.3,300.3,285.5,299.8,285,299.7Z" transform="translate(0 -3.6)" style="fill:#a8e3f7"/><path d="M286,279.6c.1.1.2.2.2.3l-.1,2a1.68,1.68,0,0,1-1.9,1.3h-.1a1.5,1.5,0,0,1-1.3-1.5l.2-2.6a.32.32,0,0,1,.3-.3h.1Z" transform="translate(0 -3.6)" style="fill:#fca372"/><path d="M286.9,272.5c.5.2,1.1.3,1.4.8a4.38,4.38,0,0,1,.8,2.5c0,1.6-.3,3.4-.9,4a6.37,6.37,0,0,1-3.3,1.2,4.22,4.22,0,0,1-2.3-2.9c-.4-1.9-.7-3.6-.2-4.1A3.68,3.68,0,0,1,286.9,272.5Z" transform="translate(0 -3.6)" style="fill:#fca372"/><path d="M287.5,270.7a3.24,3.24,0,0,1,2.2,2.8c0,1.7-.9,2.1-1.4,1.7s-1.1.6-1.2,1.4-.1.5-.2.7-.4.1-.4.1c0-.2-.1-.4-.1-.6a.38.38,0,0,0-.7,0,1.28,1.28,0,0,0,0,1.2,1.08,1.08,0,0,1,0,1.1,1.47,1.47,0,0,1-1.1.9,2.5,2.5,0,0,1-1.8-.8,2.15,2.15,0,0,1-.9-1.1s-.8-2.5-.4-3.5,1.7-3.6,3.3-3.3S286.9,270.5,287.5,270.7Z" transform="translate(0 -3.6)" style="fill:#fff"/><g style="opacity:0.5"><path d="M145.5,63.3a19.42,19.42,0,0,0-2.4-.2c-5,0-10.6,2.4-13.4,7a20.05,20.05,0,0,0-2.2,15.5c.1,0,.5.7.6.8a29.84,29.84,0,0,1-.4-4.2A18.61,18.61,0,0,1,145.5,63.3Z" transform="translate(0 -3.6)" style="fill:#a1dbcc;opacity:0.5;isolation:isolate"/></g><g style="opacity:0.5"><path d="M145.5,63.5a19.42,19.42,0,0,0-2.4-.2c-5,0-10.6,2.4-13.4,7a20.05,20.05,0,0,0-2.2,15.5c.1,0,.5.7.6.8a29.84,29.84,0,0,1-.4-4.2C127.7,72.1,135.6,63.7,145.5,63.5Z" transform="translate(0 -3.6)" style="fill:#a1dbcc;opacity:0.5;isolation:isolate"/></g><g style="opacity:0.5"><path d="M145.6,63.2a19.42,19.42,0,0,0-2.4-.2c-5,0-10.6,2.4-13.4,7a20.05,20.05,0,0,0-2.2,15.5c.1,0,.5.8.6.8a29.84,29.84,0,0,1-.4-4.2C127.8,71.8,135.7,63.4,145.6,63.2Z" transform="translate(0 -3.6)" style="fill:#4a878c;opacity:0.5;isolation:isolate"/></g><g style="opacity:0.5"><path d="M145.4,63.1a19.42,19.42,0,0,0-2.4-.2c-5,0-10.6,2.4-13.4,7a20.05,20.05,0,0,0-2.2,15.5c.1,0,.5.8.6.8a29.84,29.84,0,0,1-.4-4.2C127.6,71.8,135.5,63.4,145.4,63.1Z" transform="translate(0 -3.6)" style="fill:#4a878c;opacity:0.5;isolation:isolate"/></g><g style="opacity:0.5"><path d="M145.6,63.1a19.42,19.42,0,0,0-2.4-.2c-5,0-10.6,2.4-13.4,7a20.05,20.05,0,0,0-2.2,15.5c.1,0,.5.8.6.8a29.84,29.84,0,0,1-.4-4.2C127.8,71.8,135.7,63.4,145.6,63.1Z" transform="translate(0 -3.6)" style="fill:#4aa4c2;opacity:0.5;isolation:isolate"/></g></svg>