<svg height="512pt" viewBox="0 0 512 512" width="512pt" xmlns="http://www.w3.org/2000/svg"><path d="m277.882812 195.386719 20.226563-6.742188 10.664063 31.996094-20.226563 6.742187zm0 0"/><path d="m256 213.332031c-47.050781 0-85.332031-52.640625-85.332031-117.332031v-10.667969c0-47.050781 38.28125-85.332031 85.332031-85.332031s85.332031 38.28125 85.332031 85.332031v10.667969c0 64.691406-38.28125 117.332031-85.332031 117.332031zm0-192c-35.296875 0-64 28.707031-64 64v10.667969c0 52.929688 28.703125 96 64 96s64-43.070312 64-96v-10.667969c0-35.292969-28.703125-64-64-64zm0 0"/><path d="m309.332031 320c-1.34375 0-2.6875-.246094-3.957031-.757812l-49.375-19.753907-49.367188 19.753907c-3.015624 1.195312-6.386718.980468-9.191406-.617188-2.816406-1.578125-4.757812-4.351562-5.292968-7.542969l-10.664063-64c-.566406-3.402343.542969-6.859375 2.972656-9.300781l21.335938-21.332031c3.753906-3.757813 9.695312-4.183594 13.941406-.992188l36.265625 27.199219 36.265625-27.199219c4.234375-3.179687 10.1875-2.773437 13.941406.992188l21.335938 21.332031c2.441406 2.441406 3.539062 5.898438 2.972656 9.300781l-10.664063 64c-.535156 3.191407-2.476562 5.964844-5.292968 7.542969-1.609375.917969-3.410156 1.375-5.226563 1.375zm-53.332031-42.667969c1.34375 0 2.6875.246094 3.96875.757813l41.023438 16.417968 7.582031-45.515624-10.898438-10.914063-35.277343 26.457031c-3.785157 2.847656-9.011719 2.847656-12.796876 0l-35.265624-26.445312-10.910157 10.914062 7.582031 45.511719 41.023438-16.414063c1.28125-.523437 2.625-.769531 3.96875-.769531zm0 0"/><path d="m96 341.332031h-21.332031c0-30.855469 18.152343-58.34375 48.5625-73.546875l64-32 9.546875 19.085938-64 32c-23.027344 11.519531-36.777344 31.871094-36.777344 54.460937zm0 0"/><path d="m416 309.332031c-2.730469 0-5.460938-1.042969-7.542969-3.125-9.289062-9.289062-16.167969-12.746093-28.648437-19.039062l-64.585938-32.289063c-5.269531-2.632812-7.402344-9.042968-4.769531-14.3125 2.644531-5.269531 9.054687-7.394531 14.316406-4.769531l64 32c14.132813 7.125 23.050781 11.617187 34.773438 23.339844 4.167969 4.171875 4.167969 10.910156 0 15.082031-2.082031 2.070312-4.8125 3.113281-7.542969 3.113281zm0 0"/><path d="m288 96h-21.332031c-16.097657 0-30.890625-5.738281-42.667969-16.363281-11.777344 10.625-26.570312 16.363281-42.667969 16.363281-5.886719 0-10.664062-4.777344-10.664062-10.667969 0-5.886719 4.777343-10.664062 10.664062-10.664062 13.484375 0 25.632813-6.113281 34.242188-17.207031 4.03125-5.203126 12.820312-5.203126 16.851562 0 8.609375 11.09375 20.757813 17.207031 34.242188 17.207031h21.332031c5.898438 0 10.667969 4.777343 10.667969 10.664062 0 5.890625-4.769531 10.667969-10.667969 10.667969zm0 0"/><path d="m85.332031 405.332031c-23.53125 0-42.664062-19.132812-42.664062-42.664062s19.132812-42.667969 42.664062-42.667969 42.667969 19.136719 42.667969 42.667969-19.136719 42.664062-42.667969 42.664062zm0-64c-11.765625 0-21.332031 9.570313-21.332031 21.335938s9.566406 21.332031 21.332031 21.332031 21.335938-9.566406 21.335938-21.332031-9.570313-21.335938-21.335938-21.335938zm0 0"/><path d="m138.667969 512h-128c-5.890625 0-10.667969-4.769531-10.667969-10.667969v-21.332031c0-14.238281 5.546875-27.625 15.617188-37.707031 10.078124-10.070313 23.476562-15.625 37.714843-15.625h64c14.253907 0 27.648438 5.554687 37.71875 15.625 4.160157 4.183593 4.160157 10.921875-.011719 15.09375-4.167968 4.160156-10.921874 4.148437-15.082031-.011719-6.035156-6.046875-14.070312-9.375-22.625-9.375h-64c-8.542969 0-16.574219 3.339844-22.621093 9.375-6.050782 6.050781-9.378907 14.082031-9.378907 22.625v10.667969h117.335938c5.886719 0 10.664062 4.765625 10.664062 10.664062 0 5.898438-4.777343 10.667969-10.664062 10.667969zm0 0"/><path d="m256 405.332031c-23.53125 0-42.667969-19.132812-42.667969-42.664062s19.136719-42.667969 42.667969-42.667969 42.667969 19.136719 42.667969 42.667969-19.136719 42.664062-42.667969 42.664062zm0-64c-11.765625 0-21.332031 9.570313-21.332031 21.335938s9.566406 21.332031 21.332031 21.332031 21.332031-9.566406 21.332031-21.332031-9.566406-21.335938-21.332031-21.335938zm0 0"/><path d="m330.667969 512h-149.335938c-5.886719 0-10.664062-4.769531-10.664062-10.667969v-21.332031c0-14.238281 5.546875-27.625 15.613281-37.707031 10.082031-10.070313 23.480469-15.625 37.71875-15.625h64c14.25 0 27.648438 5.554687 37.71875 15.625 10.058594 10.070312 15.613281 23.46875 15.613281 37.707031v21.332031c0 5.898438-4.765625 10.667969-10.664062 10.667969zm-138.667969-21.332031h128v-10.667969c0-8.542969-3.339844-16.585938-9.375-22.625-6.039062-6.046875-14.070312-9.375-22.625-9.375h-64c-8.542969 0-16.574219 3.339844-22.625 9.375-6.046875 6.050781-9.375 14.082031-9.375 22.625zm0 0"/><path d="m426.667969 405.332031c-23.53125 0-42.667969-19.132812-42.667969-42.664062s19.136719-42.667969 42.667969-42.667969 42.664062 19.136719 42.664062 42.667969-19.132812 42.664062-42.664062 42.664062zm0-64c-11.765625 0-21.335938 9.570313-21.335938 21.335938s9.570313 21.332031 21.335938 21.332031 21.332031-9.566406 21.332031-21.332031-9.566406-21.335938-21.332031-21.335938zm0 0"/><path d="m501.332031 512h-128c-5.898437 0-10.664062-4.769531-10.664062-10.667969 0-5.898437 4.765625-10.664062 10.664062-10.664062h117.335938v-10.667969c0-8.542969-3.339844-16.585938-9.378907-22.625-6.035156-6.046875-14.066406-9.375-22.621093-9.375h-64c-8.546875 0-16.589844 3.339844-22.625 9.375-4.171875 4.171875-10.914063 4.171875-15.082031 0-4.171876-4.167969-4.171876-10.910156 0-15.082031 10.070312-10.070313 23.464843-15.625 37.707031-15.625h64c14.25 0 27.648437 5.554687 37.714843 15.625 10.058594 10.070312 15.617188 23.46875 15.617188 37.707031v21.332031c0 5.898438-4.769531 10.667969-10.667969 10.667969zm0 0"/></svg>