<svg id="b40ec06d-602c-4042-a4a4-6e053b0c5c67" data-name="b970bff0-31a7-4301-8e14-418edc429bcb" xmlns="http://www.w3.org/2000/svg" xmlns:xlink="http://www.w3.org/1999/xlink" viewBox="0 0 907.1 724.05"><defs><linearGradient id="be7110b5-1b8c-4b83-8ce9-c96e60c468b8" x1="6157.25" y1="-417.42" x2="6145.71" y2="-316.73" gradientTransform="translate(-6124.52 1052.85)" gradientUnits="userSpaceOnUse"><stop offset="0" stop-color="#ff928e"/><stop offset="1" stop-color="#feb3b1"/></linearGradient><linearGradient id="abc42ee3-2415-40b8-91a2-cc4d399e258e" x1="7061.77" y1="-98.75" x2="7053.38" y2="-25.57" gradientTransform="matrix(0.96, 0.27, -0.27, 0.96, -6592.18, -1255.81)" xlink:href="#be7110b5-1b8c-4b83-8ce9-c96e60c468b8"/></defs><g id="a762a1e7-8a74-4672-8ee0-fd6ce1dd165a" data-name="ae6f552e-714f-4c00-9d52-416514531c76"><path d="M359.53,40.22a5.33,5.33,0,0,1,6-4.51,5.39,5.39,0,0,1,2.54,1.08c49.42,39,327.75,277.62,150.73,579C518.83,615.77,295.16,505.83,359.53,40.22Z" style="fill:#73d0d9"/><path d="M383.38,97.38a.93.93,0,0,1,1.25.36c9.68,17.64,19,35.46,28.14,53.37s18.09,35.92,26.82,54c17.45,36.23,34.11,72.86,49.62,110s29.9,74.74,42.23,113.08Q540.78,456.9,548,486.3a509,509,0,0,1,11.17,59.48,2.18,2.18,0,1,1-4.33.52h0a504.81,504.81,0,0,0-10.78-59q-7-29.24-16.17-57.93c-12.1-38.27-26.29-75.88-41.55-113s-31.74-73.82-49-110.11q-12.93-27.21-26.51-54.13T383,98.68h0a.9.9,0,0,1,.29-1.25Z" style="fill:#fff;opacity:0.8600000143051147;isolation:isolate"/><path d="M903.33,139.68a5.42,5.42,0,0,0-8.44-3.92c-52.27,35.51-347.85,254.34-188.1,563C706.82,698.77,939.26,603.79,903.33,139.68Z" style="fill:#4a878c"/><path d="M874.51,195.1c-10.86,16.85-21.35,33.89-31.7,51s-20.47,34.4-30.4,51.77-19.65,34.86-29.15,52.46-18.73,35.35-27.72,53.21c-17.93,35.75-34.8,72-49.62,109.18q-11.22,27.81-20.31,56.41a495,495,0,0,0-15,58.08,2,2,0,0,0,1.62,2.32h0a2,2,0,0,0,2.36-1.55h0a492.44,492.44,0,0,1,14.61-57.71q8.88-28.47,19.94-56.27c14.59-37.08,31.26-73.38,49-109.16q13.32-26.82,27.42-53.27T814.43,299q14.76-26.1,30.12-51.87C854.8,230,865.21,212.89,876,196h0a.82.82,0,0,0-.25-1.13l0,0h0A.9.9,0,0,0,874.51,195.1Z" style="fill:#fff;opacity:0.8600000143051147;isolation:isolate"/><path d="M10,6A6.19,6.19,0,0,1,21.77,3.43c27.45,55.83,104,200,193.24,267.46C360.25,380.77,480.43,580.66,423.77,706.22,423.77,706.22-10.14,706.93,10,6Z" style="fill:#2d6375"/><path d="M39.52,87.49c.45,1.37,1.1,3.08,1.68,4.65L43,96.94l3.81,9.56,7.79,19.06q7.95,19,16.32,37.82,16.62,37.68,34.63,74.72c24.16,49.29,49.6,98,77.62,145.14,14.1,23.52,28.31,47,43.48,69.82s30.88,45.32,47.45,67.15c33,43.77,69.26,85.12,109.93,122a1.23,1.23,0,0,1,.13,1.73,1.21,1.21,0,0,1-1.72.13h0a706.51,706.51,0,0,1-60-56.84c-18.84-20.14-36.48-41.36-53.55-63A1313,1313,0,0,1,176.84,387c-14-23.74-27.2-47.92-40-72.27s-25.15-49-36.75-74-22.9-50.07-33.46-75.49Q58.74,146.18,51.25,127c-2.46-6.43-4.93-12.85-7.3-19.31l-3.48-9.73L38.78,93c-.53-1.68-1.1-3.19-1.61-5.12a1.22,1.22,0,0,1,2.33-.69Z" style="fill:#fff;opacity:0.4300000071525574;isolation:isolate"/><path d="M473.65,706V417.16c0-34.39,29.76-62.27,66.47-62.27H769.43c36.71,0,66.47,27.88,66.47,62.27V706Z" style="fill:#071841"/><path d="M219.53,720.38V620.79c0-16.1,25.21-29.15,56.32-29.15H470.12c31.1,0,56.31,13,56.31,29.15v99.59Z" style="fill:#4aa4c2"/><path d="M173.56,720.38V620.79c0-16.1,25.21-29.15,56.31-29.15H424.15c31.1,0,56.31,13,56.31,29.15v99.59Z" style="fill:#5ecff5"/><path d="M60,718.22a3.81,3.81,0,0,0-.11-1.11c-5.53-21.92-33-35.57-33-35.57l-7,.55a5.69,5.69,0,0,0-5,4.1c-5.12,17.57-4.17,28.32-3.2,33h0A255.69,255.69,0,0,0,60,718.22Z" style="fill:#071841"/><path d="M11.72,719.27a4.71,4.71,0,0,0,3.45,3.49c12.76,2.68,33.05.52,41.56-.59a4,4,0,0,0,3.28-4A256.35,256.35,0,0,1,11.72,719.27Z" style="fill:#2d6375"/><path d="M21.94,662.22l-5.61,26.16A4.28,4.28,0,0,0,20,691.9a35,35,0,0,0,8.43-.13,5.37,5.37,0,0,0,4.26-6.3v0h0L40,662.19Z" style="fill:url(#be7110b5-1b8c-4b83-8ce9-c96e60c468b8)"/><path d="M212.8,602.12c-10.74-.3-16.3-1.56-19.17-2.73v3.28a2.08,2.08,0,0,0,2,2.15l59-.38a2.7,2.7,0,0,0,2.46-2.92,2.79,2.79,0,0,0-.29-1C249.1,601.16,229.4,602.59,212.8,602.12Z" style="fill:#2d6375"/><path d="M256.83,600.52v-.06c-5-7.15-18.28-22-44.95-28.44l-9.8-.31a4.23,4.23,0,0,0-4,2.65c-1.66,4-4.37,12.55-4.44,25,2.87,1.17,8.43,2.43,19.17,2.73C229.41,602.59,249.1,601.16,256.83,600.52Z" style="fill:#071841"/><path d="M204.75,553.79c-.12.94-2.3,15.12-3.15,20.62a2.72,2.72,0,0,0,1.55,3,28.54,28.54,0,0,0,8.36,2.2,3.7,3.7,0,0,0,3.72-2.83l6-21.53Z" style="fill:url(#abc42ee3-2415-40b8-91a2-cc4d399e258e)"/><path d="M83.33,407.54s-14.08,21.12-18.77,51.63c-4.32,28.07-41.11,185.66-47,210.69a3.49,3.49,0,0,0,2.61,4.21h0a59.16,59.16,0,0,0,14.15,1.7,6.54,6.54,0,0,0,5.76-4l87.76-203.24s58.37-11.24,79.79,14.08c12.86,15.2,4.4,42-7,79.8,0,0,14.08,7,23.47,2.35,0,0,43.76-68.39,25.82-110.31-8.31-19.4-44.15-38.53-79.8-42.24Z" style="fill:#071841"/><path d="M83.33,407.54l21.12-187.75s91.53,0,150.2,32.85l-76,158.41A24.4,24.4,0,0,1,156.58,425C140.57,424.88,113.75,422,83.33,407.54Z" style="fill:#66c2ab"/><path d="M331,202.22s-5.86,59.85-76.27,50.46c0,0-27,29.81-27.59,56,0,0,128.51,33.2,116.77-100.57Z" style="fill:#66c2ab"/><path d="M74,386.38S83.37,370,97.45,372.3s21.12,16.43,21.12,16.43L95.1,400.46C85.72,405.22,69.33,400.49,74,386.38Z" style="fill:#fca372"/><path d="M102.15,278.46s-119.7,54-28.17,108l2,11.71S3.18,408.68,0,324.22c-2.35-63.36,104.43-104.43,104.43-104.43Z" style="fill:#66c2ab"/><path d="M179.09,191.61l-17.24,36.87s19.2,14.07,38.73,8.57l5-52.35Z" style="fill:#fca372"/><path d="M221.57,151.48c.36.66,7.61,49.94,7.61,49.94L201,205l-13.82-45.68S215.63,140.38,221.57,151.48Z" style="fill:#fca372"/><path d="M197.54,163.92a4.11,4.11,0,0,0-.85,3.5L202,191.68a3.9,3.9,0,0,0,.38,1c1,1.83,4.61,7.39,10.21,3.36,4.78-3.43,9.21-6.52,13.05-7.12a4.1,4.1,0,0,1,4.65,3.45h0A153.47,153.47,0,0,1,232,214.83a4,4,0,0,1-3.83,4c-5.59.34-16.52.67-25.54-1a4.07,4.07,0,0,1-3.14-2.79c-2-6.33-7.67-24-10-28.81-2.2-4.42-8.74-5.23-11.76-5.37a4,4,0,0,1-3-1.45c-2.23-2.62-5.7-8.46,1.16-14.06a4.1,4.1,0,0,0,.57-5.67c-2.43-3.11-4.52-8.1.81-13.26s11.43-3.82,15.24-2a4.2,4.2,0,0,0,5-.93,2.8,2.8,0,0,1,2.53-.9,4,4,0,0,0,4.53-3.38h0c.5-3.81,2.59-8.28,9.36-9.5,12.42-2.23,18.43,10.25,18.1,19s-13.93,10.36-21.62,8.81C204.73,156.32,199.77,161.22,197.54,163.92Z" style="fill:#061e43"/><path d="M191.45,195.22s-.07-15.2-6.2-16.71-12.82,2.85-7.68,12C184,201.88,191.45,195.22,191.45,195.22Z" style="fill:#fca372"/><polygon points="234.74 164.63 429.53 134.12 427.19 195.14 234.74 178.72 234.74 164.63" style="fill:#506c75"/><path d="M422.84,132c-1,12.08,0,50.11.55,62.64a4.23,4.23,0,0,0,4.24,4h3.3a5.26,5.26,0,0,0,5.21-4.4c3.63-22.45,5.48-43.56,4.24-62.33a4,4,0,0,0-4-3.66h-9.5A4.09,4.09,0,0,0,422.84,132Z" style="fill:#506c75"/><path d="M238.46,161.11H232.7a2,2,0,0,0-1.9,1.54c-1.25,5.71-.31,14.31.18,17.91a1.91,1.91,0,0,0,1.91,1.68h3.65a1.92,1.92,0,0,0,1.91-1.72l1.92-17.3a1.93,1.93,0,0,0-1.72-2.1Z" style="fill:#506c75"/><path d="M331,202.22s1.07-13.59,2.88-15,15.9-15.51,18.25-15.51,4.69,4.7,0,7-5.87,9.51-5.87,9.51L359,189.31s-9.22,17.57-13.92,19.91S331,202.22,331,202.22Z" style="fill:#fca372"/></g></svg>