<?xml version="1.0" encoding="iso-8859-1"?>
<!-- Generator: Adobe Illustrator 19.0.0, SVG Export Plug-In . SVG Version: 6.00 Build 0)  -->
<svg version="1.1" id="Capa_1" xmlns="http://www.w3.org/2000/svg" xmlns:xlink="http://www.w3.org/1999/xlink" x="0px" y="0px"
	 viewBox="0 0 480 480" style="enable-background:new 0 0 480 480;" xml:space="preserve">
<g>
	<g>
		<path d="M333.897,384h-72v-64c0-22.091-17.909-40-40-40h-48v-43.92l108.64-77.6c1.76-1.246,2.943-3.15,3.28-5.28
			c0.319-2.123-0.229-4.285-1.52-6l-24-32c-2.586-3.438-7.428-4.216-10.96-1.76l-82,56.72c14.5-27.318,4.108-61.219-23.21-75.718
			c-27.318-14.5-61.219-4.108-75.718,23.21C56.75,139.617,60.973,166.639,78.777,184h-8.88c-2.257,0.005-4.408,0.964-5.92,2.64
			l-51.68,57.44c-14.189,15.853-13.486,40.038,1.6,55.04l42.32,42.56c1.663,1.665,3.975,2.514,6.32,2.32
			c2.375-0.183,4.545-1.414,5.92-3.36l9.44-13.36V472c0,4.418,3.582,8,8,8h48c4.418,0,8-3.582,8-8V344h56v40h-24
			c-4.418,0-8,3.582-8,8v80c0,4.418,3.582,8,8,8h160c4.418,0,8-3.582,8-8v-80C341.897,387.582,338.316,384,333.897,384z M77.897,144
			c0-22.091,17.909-40,40-40s40,17.909,40,40s-17.909,40-40,40S77.897,166.091,77.897,144z M136.937,200l-11.04,22.08L114.857,200
			H136.937z M77.897,285.68L65.097,272l12.8-12.8V285.68z M133.897,328c-4.418,0-8,3.582-8,8v128h-32V240
			c-0.016-3.23-1.973-6.133-4.96-7.36c-2.979-1.253-6.419-0.59-8.72,1.68l-32,32c-3.049,3.111-3.049,8.089,0,11.2l26.16,27.28
			l-13.52,18.88L25.017,288c-9.139-9.044-9.527-23.684-0.88-33.2l49.36-54.8h23.44l21.84,43.6c2.015,3.932,6.835,5.487,10.768,3.472
			c1.493-0.765,2.708-1.979,3.472-3.472l23.12-46.16l96-66.48l14.48,19.28l-105.36,75.28c-2.098,1.493-3.348,3.905-3.36,6.48v56
			c0,4.418,3.582,8,8,8h56c13.255,0,24,10.745,24,24v64h-32v-48c0-4.418-3.582-8-8-8H133.897z M325.897,464h-144v-64h144V464z"/>
	</g>
</g>
<g>
	<g>
		<path d="M469.897,64c-30.928,0-56-25.072-56-56c0-4.418-3.582-8-8-8s-8,3.582-8,8c0,30.928-25.072,56-56,56c-4.418,0-8,3.582-8,8
			s3.582,8,8,8c30.928,0,56,25.072,56,56c0,4.418,3.582,8,8,8s8-3.582,8-8c0-30.928,25.072-56,56-56c4.418,0,8-3.582,8-8
			S474.316,64,469.897,64z M405.897,103.04C399,89.74,388.158,78.898,374.857,72c13.3-6.898,24.142-17.74,31.04-31.04
			c6.898,13.3,17.74,24.142,31.04,31.04C423.637,78.898,412.795,89.74,405.897,103.04z"/>
	</g>
</g>
<g>
	<g>
		<rect x="251.287" y="207.984" transform="matrix(0.8064 -0.5913 0.5913 0.8064 -76.4588 198.3888)" width="27.04" height="16"/>
	</g>
</g>
<g>
	<g>
		<rect x="284.345" y="157.34" transform="matrix(0.8062 -0.5916 0.5916 0.8062 -33.1081 229.5946)" width="99.2" height="16"/>
	</g>
</g>
<g>
	<g>
		<rect x="289.035" y="103.985" transform="matrix(0.832 -0.5547 0.5547 0.832 -8.7313 195.1332)" width="57.68" height="16"/>
	</g>
</g>
<g>
</g>
<g>
</g>
<g>
</g>
<g>
</g>
<g>
</g>
<g>
</g>
<g>
</g>
<g>
</g>
<g>
</g>
<g>
</g>
<g>
</g>
<g>
</g>
<g>
</g>
<g>
</g>
<g>
</g>
</svg>
