<svg id="ac46b914-5438-49ee-8d8b-6ae7a1090dc1" data-name="Layer 1" xmlns="http://www.w3.org/2000/svg" viewBox="0 0 192.46 229.76">
  <defs>
    <style>
      .b254f306-96f0-4d69-bb4e-ded5b25fa846 {
        fill: #b40813;
      }
    </style>
  </defs>
  <path class="b254f306-96f0-4d69-bb4e-ded5b25fa846" d="M172.2,209.6c-19.7,5.2-34,4.5-34,4.5-32.9-.6-24.1-19.2-17.9-25.5,32.2-33.2,80.2-65.3,71-138.8-1.6-12.6-12-29.6-22.4-36.6,0,0-36.5-30-90.8.3C34.5,37.9,1.9,87.8.1,128.6c-1.7,40.3,16.1,65.3,42.5,82.9,33,22.1,83.5,17.9,83.5,17.9C172.9,225.1,184.2,206.5,172.2,209.6ZM48.1,186.3c-37.6-4.8-49.2-44.7-34.6-88.4,7.6-22.7,34-63.1,68.8-82.1,5-2.5,40.5-19.4,69,1,9,6.7,16.3,15.7,18.4,22C190.6,103.1,119.2,195.3,48.1,186.3Z" transform="translate(0.01 0.04)"/>
</svg>
