<?xml version="1.0" encoding="utf-8"?>
<!-- Generator: Adobe Illustrator 25.2.0, SVG Export Plug-In . SVG Version: 6.00 Build 0)  -->
<svg version="1.1" id="Layer_1" xmlns="http://www.w3.org/2000/svg" xmlns:xlink="http://www.w3.org/1999/xlink" x="0px" y="0px"
	 viewBox="0 0 192.5 229.8" style="enable-background:new 0 0 192.5 229.8;" xml:space="preserve">
<style type="text/css">
	.st0{fill:#B40813;}
</style>
<path class="st0" d="M172.2,209.6c-19.7,5.2-34,4.5-34,4.5c-32.9-0.6-24.1-19.2-17.9-25.5c32.2-33.2,80.2-65.3,71-138.8
	c-1.6-12.6-12-29.6-22.4-36.6c0,0-36.5-30-90.8,0.3C34.5,37.9,1.9,87.8,0.1,128.6c-1.7,40.3,16.1,65.3,42.5,82.9
	c33,22.1,83.5,17.9,83.5,17.9C172.9,225.1,184.2,206.5,172.2,209.6z M48.1,186.3c-37.6-4.8-49.2-44.7-34.6-88.4
	c7.6-22.7,34-63.1,68.8-82.1c5-2.5,40.5-19.4,69,1c9,6.7,16.3,15.7,18.4,22C190.6,103.1,119.2,195.3,48.1,186.3z"/>
</svg>
