<svg id="Capa_1" enable-background="new 0 0 512 512" height="512" viewBox="0 0 512 512" width="512" xmlns="http://www.w3.org/2000/svg"><path d="m482.41 225.253c43.285-49.175 38.522-124.399-10.616-167.685-19.477-17.16-43.419-27.289-69.241-29.29-24.967-1.938-50.38 4.194-71.586 17.255-3.527 2.173-4.626 6.794-2.453 10.322s6.795 4.625 10.322 2.453c39.108-24.088 88.556-19.864 123.038 10.518 39.112 34.454 46.038 92.065 18.369 134.532-7.338-21.771-25.369-40.834-48.932-51.389 9.568-9.651 15.488-22.908 15.488-37.52 0-.644-.026-1.281-.049-1.919.007-.135.021-.268.021-.405 0-.392-.039-.774-.097-1.15-1.801-27.845-25.062-49.954-53.413-49.954-18.6 0-35.008 9.52-44.608 23.929-.205.272-.384.559-.549.853-5.297 8.286-8.381 18.111-8.381 28.646 0 14.613 5.92 27.869 15.487 37.52-23.591 10.568-41.628 29.667-48.937 51.473-9.697-14.825-15.444-31.976-16.595-50.137-1.754-27.673 7.371-54.372 25.696-75.178 2.739-3.109 2.438-7.85-.671-10.588-3.108-2.74-7.849-2.439-10.588.671-17.631 20.018-27.819 44.801-29.427 71.006h-37.418c-2.022-31.58-16.238-60.57-40.035-81.637-40.214-35.607-99.109-40.135-143.22-11.013-3.458 2.283-4.41 6.937-2.127 10.394 2.282 3.458 6.936 4.41 10.394 2.128 38.458-25.39 89.862-21.39 125.007 9.726 39.032 34.555 45.975 92.159 18.409 134.539-7.341-21.773-25.376-40.837-48.943-51.389 9.559-9.651 15.473-22.904 15.473-37.514 0-.644-.026-1.281-.049-1.919.007-.135.02-.268.02-.405 0-.392-.039-.774-.097-1.149-1.8-27.846-25.049-49.955-53.384-49.955-18.601 0-35.01 9.521-44.61 23.931-.203.27-.382.555-.545.848-5.298 8.287-8.383 18.112-8.383 28.65 0 14.613 5.92 27.869 15.488 37.521-23.582 10.565-41.623 29.658-48.949 51.46-24.447-37.456-22.3-87.712 8.279-124.348 2.655-3.181 2.229-7.912-.952-10.567s-7.912-2.228-10.567.952c-42.104 50.44-36.962 123.545 11.708 166.431 22.536 19.84 50.543 29.582 78.444 29.581 9.74 0 19.466-1.198 28.942-3.558l18.325 26.376c-39.144 45.52-37.715 112.691 1.433 156.525.079.093.162.182.245.271 3.071 3.418 6.365 6.697 9.896 9.807 21.875 19.27 49.44 29.648 78.34 29.648 2.556 0 5.127-.081 7.7-.244 31.672-2.012 60.664-16.234 81.637-40.047 39.606-44.966 38.978-111.742.949-155.95l18.241-26.284c9.317 2.327 18.955 3.523 28.747 3.523 2.556 0 5.124-.081 7.698-.245 31.217-1.984 59.827-15.843 80.728-39.055.177-.177.345-.364.504-.558.13-.148.264-.29.394-.437zm-89.148-149.228c17.842 0 32.886 12.156 37.252 28.598h-10.848c-26.081 0-47.023-8.205-55.404-15.433 7.068-8.059 17.444-13.165 29-13.165zm-36.563 26.319c13.58 10.286 37.913 17.283 62.966 17.283h11.77c-2.547 18.729-18.69 33.216-38.174 33.216-21.248 0-38.533-17.224-38.533-38.394.001-4.229.699-8.296 1.971-12.105zm-237.982-26.319c17.829 0 32.862 12.156 37.224 28.598h-10.82c-26.08 0-47.022-8.205-55.404-15.433 7.069-8.059 17.445-13.165 29-13.165zm-36.563 26.319c13.58 10.286 37.913 17.283 62.967 17.283h11.742c-2.545 18.729-18.675 33.216-38.145 33.216-21.248 0-38.534-17.224-38.534-38.394 0-4.229.699-8.296 1.97-12.105zm-32.049 122.297c-2.291-2.018-4.464-4.118-6.533-6.283 3.166-24.489 23.799-46.884 51.645-55.942 4.954 2.424 10.335 4.102 15.998 4.897v29.269c0 4.144 3.359 7.502 7.502 7.502s7.502-3.358 7.502-7.502v-29.27c5.661-.796 11.04-2.474 15.991-4.899 27.845 9.054 48.48 31.436 51.651 55.908-38.192 40.128-101.822 43.236-143.756 6.32zm212.456 244.691c-2.252.143-4.492.214-6.728.214-25.246-.002-49.335-9.07-68.443-25.902-2.291-2.018-4.464-4.119-6.534-6.288 3.145-24.45 23.775-46.84 51.64-55.93 4.947 2.421 10.321 4.097 15.977 4.892v29.298c0 4.144 3.359 7.502 7.502 7.502s7.502-3.358 7.502-7.502v-29.298c5.667-.797 11.052-2.476 16.009-4.903 27.846 9.059 48.479 31.456 51.637 55.938-18.067 18.988-42.255 30.307-68.562 31.979zm-43.125-147.966c13.588 10.277 37.919 17.266 62.971 17.266h11.742c-2.547 18.729-18.69 33.216-38.173 33.216-21.232 0-38.506-17.224-38.506-38.395 0-4.223.697-8.284 1.966-12.087zm7.56-13.153c7.064-8.053 17.432-13.155 28.98-13.155 17.839 0 32.881 12.144 37.249 28.569h-10.818c-26.075 0-47.012-8.191-55.411-15.414zm115.973 114.182c-7.33-21.787-25.365-40.868-48.936-51.428 9.564-9.651 15.481-22.905 15.481-37.514 0-.643-.026-1.28-.049-1.918.007-.135.02-.268.02-.405 0-.393-.039-.775-.097-1.151-1.802-27.83-25.063-49.925-53.412-49.925-18.505 0-34.843 9.425-44.456 23.715-.337.42-.628.869-.864 1.344-5.18 8.22-8.19 17.933-8.19 28.34 0 14.617 5.92 27.876 15.487 37.529-23.582 10.576-41.617 29.649-48.943 51.414-24.785-38.082-22.378-89.548 9.079-125.263.882-1.001 1.785-1.977 2.699-2.939.076-.077.15-.155.223-.235 18.051-18.89 42.176-30.149 68.408-31.816 2.252-.143 4.492-.214 6.728-.214 25.246 0 49.335 9.07 68.443 25.902 39.141 34.478 46.074 92.108 18.379 134.564zm-7.557-145.006c-.303-.272-.599-.549-.905-.818-23.809-20.974-54.366-31.415-86.04-29.403-27.023 1.717-52.091 12.328-71.896 30.196l-14.054-20.228c16.501-6.516 31.767-16.825 44.405-30.842.197-.194.381-.4.556-.614.128-.144.26-.283.387-.427 17.646-20.046 27.836-44.841 29.43-71.032h37.407c.001.011.001.023.002.034 2.008 31.678 16.233 60.673 40.054 81.644 10.418 9.176 22.128 16.332 34.655 21.315zm64.421-27.062c-12.362.789-24.531-.606-36.07-4.019-.262-.095-.528-.175-.796-.239-13.974-4.257-27.003-11.486-38.291-21.43-2.282-2.009-4.457-4.107-6.535-6.279 3.141-24.486 23.766-46.883 51.62-55.944 4.954 2.424 10.335 4.102 15.998 4.897v29.269c0 4.144 3.358 7.502 7.502 7.502s7.502-3.358 7.502-7.502v-29.269c5.663-.796 11.045-2.473 15.999-4.897 27.842 9.056 48.473 31.438 51.643 55.908-18.069 19.003-42.261 30.332-68.572 32.003z"/></svg>