<svg id="b4bb7560-bdab-4247-9326-cc7f3a9e7e93" data-name="Layer 1" xmlns="http://www.w3.org/2000/svg" xmlns:xlink="http://www.w3.org/1999/xlink" viewBox="0 0 197.4 243.3"><defs><clipPath id="a13647df-aa58-4cec-9931-9b7a94a59729" transform="translate(-0.1)"><rect width="197.6" height="243.4" style="fill:none"/></clipPath></defs><circle cx="100.2" cy="101.7" r="93.7" style="fill:#fff"/><g style="clip-path:url(#a13647df-aa58-4cec-9931-9b7a94a59729)"><path d="M197.5,98.7A98.71,98.71,0,0,0,29,28.9,98,98,0,0,0,.1,98.7a108.39,108.39,0,0,0,1.4,16.2l-.1-.1s8.5,71.6,97.5,128.5h0c88.9-56.8,97.5-128.5,97.5-128.5l-.1.1A122.24,122.24,0,0,0,197.5,98.7ZM98.8,15.9A82.8,82.8,0,1,1,16,98.7,82.77,82.77,0,0,1,98.8,15.9Z" transform="translate(-0.1)" style="fill:#b71c29"/></g><g style="opacity:0.6000000238418579"><path d="M83.1,49.9H81c-1.2,0-2.4,0-3.7.1-8,.4-17.6,6.1-22.3,13.9,1.1-1.1,2.3-2.1,3.6-3.2C64.9,55.7,73.7,52,83.1,49.9Z" transform="translate(-0.1)" style="fill:#b61f29"/><path d="M152.9,89h0a56.31,56.31,0,0,0-3.6-9c-1.2-2.3-2.1-.3-3.3,2.3,0,4.5-.9,8.7-2.3,11a38.54,38.54,0,0,1-7.9,9.2,45.77,45.77,0,0,1,1.9,10.2h0a35.29,35.29,0,0,1-.7,9.7c-2.4,11.8-11.8,17.5-23.8,17.5a50.63,50.63,0,0,1-19.3-4.2,77.23,77.23,0,0,1-19.7-12.8h0c-6.5-5.8-12.6-13-16.3-21.3h0a39.73,39.73,0,0,1-2.6-25.2c1.8-7.5,10.9-15.5,16-16.7a35.48,35.48,0,0,1,8.6-1c23.1,0,48.7,20.4,55.8,43.8a36.12,36.12,0,0,0,7.9-9.2c1.4-2.3,2.3-6.5,2.3-11-1.2,2.6-2.8,5.8-5.4,6-12.5-13.2-23.6-32.1-47-37.2-2,.2-3.9.5-5.7.8,1.8-.3,3.8-.6,5.8-.8a67,67,0,0,0-10.5-1.3c-9.4,2-18.2,5.8-24.5,10.8A37.28,37.28,0,0,0,55,63.8a19.17,19.17,0,0,0-2.4,5.5c-.4,1.7-.8,3.3-1.1,5h0a66,66,0,0,0-.4,18.3h0c2.1,18.2,11.2,35.7,23.5,46.5h0c6.4,5.6,13.7,9.4,21.3,10.5h19.7C144.6,143,160.7,115.5,152.9,89Z" transform="translate(-0.1)" style="fill:#b61f29"/></g><g style="opacity:0.30000001192092896"><path d="M96.5,115.6c-14.6,0-29-4.5-38.6-13.9h0A34.91,34.91,0,0,1,53,95.8a20.16,20.16,0,0,1-1.8-3.2c2.1,18.2,11.2,35.8,23.5,46.5-3.1-3.9-3.4-11.9-.5-16.1h0a2.65,2.65,0,0,1,.5-.6c8.5.2,17.6,1.5,26.9,1.5,11.9,0,24.2-2.1,36-11.1a39.9,39.9,0,0,0-1.9-10.2C125.7,111.1,111.1,115.6,96.5,115.6Z" transform="translate(-0.1)" style="fill:#b61f29"/><path d="M150.1,73.4c-8.6-14.5-26.1-22.7-39.9-24.3a100.52,100.52,0,0,0-21-.1c-2,.3-4.1.6-6.1,1.1a56.88,56.88,0,0,1,10.5,1.3,77.69,77.69,0,0,1,8.5-.5c15.2,0,31.7,4.6,41,19.5,2,3.2,2.9,7.8,2.9,12.2.9-2,1.7-3.6,2.5-3.3-.8-.3-1.6,1.3-2.5,3.3,0,4.5-.9,8.7-2.3,11a38.54,38.54,0,0,1-7.9,9.2,45.77,45.77,0,0,1,1.9,10.2,61.81,61.81,0,0,0,8.9-8.3c3.4-3.8,5.7-9.6,6.4-15.5h0C153.5,83.5,152.7,77.8,150.1,73.4Z" transform="translate(-0.1)" style="fill:#b61f29"/><path d="M51.2,92.7a20.32,20.32,0,0,1,.4-18.3,40.33,40.33,0,0,1,1.1-5,19.17,19.17,0,0,1,2.4-5.5c-25.4,24.4-13.6,63.5,19.7,75.3h0C62.4,128.5,53.3,110.9,51.2,92.7Z" transform="translate(-0.1)" style="fill:#b61f29"/><path d="M51.6,74.4c3.8-7.5,11.7-14.1,22.2-18.5a72.9,72.9,0,0,1,19.8-4.7,67,67,0,0,0-10.5-1.3c-9.4,2-18.2,5.8-24.5,10.8A37.28,37.28,0,0,0,55,63.9a19.17,19.17,0,0,0-2.4,5.5C52.2,71,51.9,72.7,51.6,74.4Z" transform="translate(-0.1)" style="fill:#b61f29"/></g><path d="M130.4,142.2a56.11,56.11,0,0,1-16.1,2.1c-15.6-.3-11.4-9.1-8.5-12.1,15.3-15.8,38.1-31,33.7-65.9-.8-6-4.7-12.3-10.6-17.4,0,0-17.3-14.3-43.1.2C65.1,60.7,49.6,84.4,48.7,103.8c-.8,19.1,7.7,31,20.2,39.4,15.7,10.5,39.7,8.5,39.7,8.5C130.7,149.6,136,140.7,130.4,142.2Zm-59-11.1C53.5,128.8,48,109.9,55,89.2c3.6-10.8,16.1-29.9,32.7-39,2.4-1.2,19.2-9.2,32.8.5,4.3,3.2,7.7,7.4,8.7,10.5C139.1,91.7,105.2,135.4,71.4,131.1Z" transform="translate(-0.1)" style="fill:#b61f29"/></svg>