<?xml version="1.0" encoding="utf-8"?>
<!-- Generator: Adobe Illustrator 25.2.0, SVG Export Plug-In . SVG Version: 6.00 Build 0)  -->
<svg version="1.1" id="Layer_1" xmlns="http://www.w3.org/2000/svg" xmlns:xlink="http://www.w3.org/1999/xlink" x="0px" y="0px"
	 viewBox="0 0 305.3 130.4" style="enable-background:new 0 0 305.3 130.4;" xml:space="preserve">
<style type="text/css">
	.st0{fill:#171618;}
	.st1{opacity:0.6;}
	.st2{fill:#B40813;}
	.st3{opacity:0.3;}
</style>
<g>
	<path class="st0" d="M43.7,32.8c1.1,0,2.2,0,3.2,0.1v7.2c-1.1-0.2-2.3-0.3-3.5-0.3s-2.4-0.1-3.5-0.1c-2.9-0.1-5.7,0.3-8.6,1
		c-2.9,0.8-5.4,2.1-7.8,3.9c-2.3,1.8-4.2,4.3-5.6,7.4s-2.1,6.9-2.1,11.6V102H0V69.2c0-11.3,3.5-20.1,10.5-26.7
		c7-6.5,17.1-9.8,30.3-9.8h2.9V32.8z"/>
	<path class="st0" d="M59.4,81.5c0.9,3.1,2.2,5.6,3.9,7.4c1.7,1.8,3.8,3.2,6.2,3.9c2.4,0.8,5,1.1,7.9,1c2.9,0.1,5.5-0.2,7.9-1
		c2.4-0.7,4.5-2,6.2-3.9c1.7-1.8,3-4.3,3.9-7.5c0.9-3.1,1.4-7,1.4-11.6V65c0-4.6-0.5-8.5-1.4-11.6s-2.2-5.6-3.9-7.5
		c-1.7-1.8-3.8-3.1-6.2-3.9c-2.4-0.7-5-1.1-7.9-1c-2.9-0.1-5.5,0.3-7.9,1c-2.4,0.8-4.5,2.1-6.2,3.9s-3,4.3-3.9,7.4
		c-0.9,3.1-1.4,6.9-1.4,11.6v4.8C58,74.6,58.5,78.4,59.4,81.5 M58.2,130H42.3V67.5c0.2-5.4,1-10.2,2.4-14.4
		c1.4-4.2,3.5-7.9,6.3-10.9s6.5-5.3,10.9-6.9c4.5-1.6,9.9-2.4,16.3-2.4c6.1,0,11.3,0.8,15.5,2.4s7.8,3.9,10.5,6.9
		c2.8,3,4.8,6.6,6.2,10.9c1.4,4.2,2.2,9,2.4,14.4c-0.2,5.4-1,10.2-2.4,14.4s-3.5,7.9-6.2,10.9c-2.8,3-6.3,5.3-10.5,6.9
		c-4.2,1.6-9.4,2.4-15.5,2.4c-4.1,0-7.8-0.3-11-1c-3.2-0.6-6.1-1.6-8.8-2.9L58.2,130z"/>
	<rect x="121.4" y="32.4" class="st0" width="15.9" height="69.5"/>
	<path class="st0" d="M121.8,3.8c2-2,4.4-3,7.3-3c2.9,0,5.3,1,7.3,3s3,4.5,3,7.3c0,1.4-0.3,2.7-0.9,3.9c-0.6,1.2-1.4,2.4-2.4,3.3
		c-1,1-2.1,1.7-3.4,2.3c-1.2,0.6-2.5,0.8-3.7,0.8c-2.9,0-5.3-1-7.3-3s-3-4.5-3-7.3C118.8,8.3,119.8,5.8,121.8,3.8"/>
</g>
<g>
	<g class="st1">
		<path class="st2" d="M219.6,8.7c-0.8,0-1.7-0.1-2.6-0.1c-1.4,0-2.9,0-4.4,0.1c-9.6,0.5-21,7.3-26.6,16.6c1.4-1.3,2.8-2.6,4.3-3.8
			C197.8,15.6,208.3,11.1,219.6,8.7z"/>
		<path class="st2" d="M303,55.4L303,55.4c-1.1-3.6-2.5-7.2-4.3-10.7c-1.4-2.8-2.5-0.4-4,2.8c0,5.3-1,10.4-2.7,13.1
			c-2.5,4.1-5.7,7.8-9.5,11c1.2,4,2,8.1,2.2,12.2l0,0c0.2,3.9,0,7.7-0.8,11.6c-2.8,14.1-14.1,20.9-28.4,20.9c-7.1,0-15-1.7-23-5.1
			c-6.5-2.7-15.3-8-23.5-15.2l0,0c-7.8-6.9-15.1-15.5-19.5-25.5l0,0c-4-9-5.6-19.2-3.1-30.1c2.1-9,13-18.5,19.2-20
			c3.3-0.8,6.8-1.2,10.3-1.2c27.6,0,58.2,24.4,66.7,52.3c3.8-3.2,7-6.9,9.5-11c1.7-2.8,2.7-7.8,2.7-13.1c-1.5,3.1-3.4,6.9-6.4,7.2
			c-14.9-15.8-28.2-38.4-56.1-44.5c-2.4,0.3-4.7,0.6-6.9,1c2.2-0.4,4.5-0.7,6.9-1c-3.9-0.8-8-1.4-12.5-1.5
			c-11.3,2.4-21.8,6.9-29.2,12.9c-1.5,1.2-3,2.5-4.3,3.8c-1.3,2.1-2.2,4.3-2.8,6.6c-0.5,2-0.9,4-1.3,6l0,0
			c-1.2,7.2-1.3,14.6-0.5,21.9l0,0c2.5,21.8,13.4,42.7,28.1,55.6l0,0c7.7,6.7,16.4,11.2,25.4,12.5h23.5
			C293.1,119.9,312.3,87,303,55.4z"/>
	</g>
	<g class="st3">
		<path class="st2" d="M235.6,87.2c-17.4,0-34.6-5.4-46.1-16.6l0,0c-2.2-2.1-4.2-4.4-5.9-7c-0.8-1.3-1.5-2.5-2.2-3.8
			c2.5,21.8,13.4,42.7,28.1,55.6c-3.7-4.6-4-14.3-0.6-19.3l0,0c0.2-0.3,0.4-0.5,0.6-0.8c10.1,0.2,21,1.8,32.2,1.8
			c14.2,0,28.9-2.5,43-13.2c-0.2-4.1-1-8.2-2.2-12.2C270.6,81.8,253,87.2,235.6,87.2z"/>
		<path class="st2" d="M299.7,36.7C289.4,19.4,268.5,9.6,252,7.6c-12.9-1.6-25.1-0.2-25.1-0.2c-2.4,0.3-4.9,0.7-7.3,1.3
			c4.5,0.1,8.7,0.7,12.5,1.5c3.3-0.3,6.7-0.6,10.1-0.6c18.2,0,37.9,5.5,49,23.3c2.4,3.9,3.4,9.4,3.4,14.6c1.1-2.4,2-4.3,3-4
			c-1-0.3-1.9,1.6-3,4c0,5.3-1,10.4-2.7,13.1c-2.5,4.1-5.7,7.8-9.5,11c1.2,4,2,8.1,2.2,12.2c3.6-2.7,7.2-6,10.7-9.9
			c4.1-4.5,6.8-11.4,7.6-18.5l0,0C303.8,48.8,302.8,42,299.7,36.7z"/>
		<path class="st2" d="M181.5,59.8c-3.5-7.4-3-14.9,0.5-21.9c0.3-2,0.8-4,1.3-6c0.6-2.3,1.6-4.5,2.8-6.6
			c-30.4,29.1-16.2,75.9,23.5,90l0,0C194.9,102.5,184,81.6,181.5,59.8z"/>
		<path class="st2" d="M182,37.9c4.5-8.9,14-16.8,26.6-22.1c5.7-2.4,14.2-4.6,23.6-5.7c-3.9-0.8-8-1.4-12.5-1.5
			c-11.3,2.4-21.8,6.9-29.2,12.9c-1.5,1.2-3,2.5-4.3,3.8c-1.3,2.1-2.2,4.3-2.8,6.6C182.7,33.9,182.3,35.9,182,37.9z"/>
	</g>
	<path class="st2" d="M276.1,119c-11.2,2.9-19.3,2.6-19.3,2.6c-18.7-0.3-13.7-10.9-10.2-14.5c18.3-18.8,45.5-37,40.3-78.8
		c-0.9-7.1-5.6-14.7-12.7-20.8c0,0-20.7-17-51.5,0.2c-24.8,13.9-43.3,42.2-44.3,65.4c-1,22.8,9.1,37,24.1,47
		c18.7,12.5,47.4,10.1,47.4,10.1C276.5,127.7,282.9,117.2,276.1,119z M205.7,105.7c-21.4-2.7-27.9-25.4-19.6-50.1
		c4.3-12.9,19.3-35.8,39-46.6c2.8-1.4,23-11,39.2,0.6c5.1,3.8,9.3,8.9,10.4,12.5C286.5,58.6,246,110.8,205.7,105.7z"/>
</g>
</svg>
