<svg id="a405ad58-74c3-4edd-82a3-9f6e7ab89e10" data-name="a590554f-6887-4926-8983-c84371d06b2b" xmlns="http://www.w3.org/2000/svg" viewBox="0 0 305.34 130.38"><path d="M43.7,32.8c1.1,0,2.2,0,3.2.1v7.2a20.59,20.59,0,0,0-3.5-.3c-1.2,0-2.4-.1-3.5-.1a31.57,31.57,0,0,0-8.6,1,22.88,22.88,0,0,0-7.8,3.9A19.42,19.42,0,0,0,17.9,52a27.94,27.94,0,0,0-2.1,11.6V102H0V69.2C0,57.9,3.5,49.1,10.5,42.5s17.1-9.8,30.3-9.8h2.9Z" transform="translate(0 0)"/><path d="M59.4,81.5a17.86,17.86,0,0,0,3.9,7.4,14,14,0,0,0,6.2,3.9,22.25,22.25,0,0,0,7.9,1,22.25,22.25,0,0,0,7.9-1,13.23,13.23,0,0,0,6.2-3.9,17.72,17.72,0,0,0,3.9-7.5,42.42,42.42,0,0,0,1.4-11.6V65a42.42,42.42,0,0,0-1.4-11.6,19,19,0,0,0-3.9-7.5A14.81,14.81,0,0,0,85.3,42a24.82,24.82,0,0,0-7.9-1,24.82,24.82,0,0,0-7.9,1,14.81,14.81,0,0,0-6.2,3.9,17.86,17.86,0,0,0-3.9,7.4A41.66,41.66,0,0,0,58,64.9v4.8a42.32,42.32,0,0,0,1.4,11.8M58.2,130H42.3V67.5a51.4,51.4,0,0,1,2.4-14.4A29.53,29.53,0,0,1,51,42.2a27.62,27.62,0,0,1,10.9-6.9,48.75,48.75,0,0,1,16.3-2.4,43.91,43.91,0,0,1,15.5,2.4,26.69,26.69,0,0,1,10.5,6.9,28.48,28.48,0,0,1,6.2,10.9,51.4,51.4,0,0,1,2.4,14.4,51.4,51.4,0,0,1-2.4,14.4,30.88,30.88,0,0,1-6.2,10.9,27.47,27.47,0,0,1-10.5,6.9,43.91,43.91,0,0,1-15.5,2.4,52.07,52.07,0,0,1-11-1,35,35,0,0,1-8.8-2.9Z" transform="translate(0 0)"/><rect x="121.4" y="32.4" width="15.9" height="69.5"/><path d="M121.8,3.8a10.38,10.38,0,0,1,14.6,0,10,10,0,0,1,3,7.3,8.65,8.65,0,0,1-.9,3.9,11,11,0,0,1-2.4,3.3,11.22,11.22,0,0,1-3.4,2.3,8.28,8.28,0,0,1-3.7.8,9.88,9.88,0,0,1-7.3-3,10,10,0,0,1-3-7.3,10.6,10.6,0,0,1,3.1-7.3" transform="translate(0 0)"/><g style="opacity:0.6000000238418579"><path d="M219.6,8.7c-.8,0-1.7-.1-2.6-.1-1.4,0-2.9,0-4.4.1-9.6.5-21,7.3-26.6,16.6,1.4-1.3,2.8-2.6,4.3-3.8C197.8,15.6,208.3,11.1,219.6,8.7Z" transform="translate(0 0)" style="fill:#b40813"/><path d="M303,55.4h0a64.3,64.3,0,0,0-4.3-10.7c-1.4-2.8-2.5-.4-4,2.8,0,5.3-1,10.4-2.7,13.1a45,45,0,0,1-9.5,11,51.6,51.6,0,0,1,2.2,12.2h0a45.63,45.63,0,0,1-.8,11.6c-2.8,14.1-14.1,20.9-28.4,20.9a59.61,59.61,0,0,1-23-5.1A90.79,90.79,0,0,1,209,96h0c-7.8-6.9-15.1-15.5-19.5-25.5h0a47,47,0,0,1-3.1-30.1c2.1-9,13-18.5,19.2-20a44.07,44.07,0,0,1,10.3-1.2c27.6,0,58.2,24.4,66.7,52.3a45,45,0,0,0,9.5-11c1.7-2.8,2.7-7.8,2.7-13.1-1.5,3.1-3.4,6.9-6.4,7.2-14.9-15.8-28.2-38.4-56.1-44.5-2.4.3-4.7.6-6.9,1,2.2-.4,4.5-.7,6.9-1a69.18,69.18,0,0,0-12.5-1.5C208.5,11,198,15.5,190.6,21.5a53.56,53.56,0,0,0-4.3,3.8,24,24,0,0,0-2.8,6.6c-.5,2-.9,4-1.3,6h0a80.33,80.33,0,0,0-.5,21.9h0c2.5,21.8,13.4,42.7,28.1,55.6h0c7.7,6.7,16.4,11.2,25.4,12.5h23.5C293.1,119.9,312.3,87,303,55.4Z" transform="translate(0 0)" style="fill:#b40813"/></g><g style="opacity:0.30000001192092896"><path d="M235.6,87.2c-17.4,0-34.6-5.4-46.1-16.6h0a39.88,39.88,0,0,1-5.9-7c-.8-1.3-1.5-2.5-2.2-3.8,2.5,21.8,13.4,42.7,28.1,55.6-3.7-4.6-4-14.3-.6-19.3h0c.2-.3.4-.5.6-.8,10.1.2,21,1.8,32.2,1.8,14.2,0,28.9-2.5,43-13.2a51.6,51.6,0,0,0-2.2-12.2C270.6,81.8,253,87.2,235.6,87.2Z" transform="translate(0 0)" style="fill:#b40813"/><path d="M299.7,36.7C289.4,19.4,268.5,9.6,252,7.6a119.66,119.66,0,0,0-25.1-.2,62.33,62.33,0,0,0-7.3,1.3,67.44,67.44,0,0,1,12.5,1.5c3.3-.3,6.7-.6,10.1-.6,18.2,0,37.9,5.5,49,23.3,2.4,3.9,3.4,9.4,3.4,14.6,1.1-2.4,2-4.3,3-4-1-.3-1.9,1.6-3,4,0,5.3-1,10.4-2.7,13.1a45,45,0,0,1-9.5,11,51.6,51.6,0,0,1,2.2,12.2,74.86,74.86,0,0,0,10.7-9.9c4.1-4.5,6.8-11.4,7.6-18.5h0C303.8,48.8,302.8,42,299.7,36.7Z" transform="translate(0 0)" style="fill:#b40813"/><path d="M181.5,59.8c-3.5-7.4-3-14.9.5-21.9.3-2,.8-4,1.3-6a27.41,27.41,0,0,1,2.8-6.6c-30.4,29.1-16.2,75.9,23.5,90h0C194.9,102.5,184,81.6,181.5,59.8Z" transform="translate(0 0)" style="fill:#b40813"/><path d="M182,37.9c4.5-8.9,14-16.8,26.6-22.1a91.42,91.42,0,0,1,23.6-5.7,69.18,69.18,0,0,0-12.5-1.5c-11.3,2.4-21.8,6.9-29.2,12.9a53.56,53.56,0,0,0-4.3,3.8,24,24,0,0,0-2.8,6.6A32.48,32.48,0,0,0,182,37.9Z" transform="translate(0 0)" style="fill:#b40813"/></g><path d="M276.1,119a74,74,0,0,1-19.3,2.6c-18.7-.3-13.7-10.9-10.2-14.5,18.3-18.8,45.5-37,40.3-78.8-.9-7.1-5.6-14.7-12.7-20.8,0,0-20.7-17-51.5.2-24.8,13.9-43.3,42.2-44.3,65.4-1,22.8,9.1,37,24.1,47,18.7,12.5,47.4,10.1,47.4,10.1C276.5,127.7,282.9,117.2,276.1,119Zm-70.4-13.3c-21.4-2.7-27.9-25.4-19.6-50.1,4.3-12.9,19.3-35.8,39-46.6,2.8-1.4,23-11,39.2.6,5.1,3.8,9.3,8.9,10.4,12.5,11.8,36.5-28.7,88.7-69,83.6Z" transform="translate(0 0)" style="fill:#b40813"/></svg>