<svg id="b11284f2-b28b-449f-b53d-f2db986976e8" data-name="e36ad798-e2b3-4d65-bfa2-e9b296a4df12" xmlns="http://www.w3.org/2000/svg" viewBox="0 0 1541.67 955.87"><g id="aefba73d-2650-4a23-83c4-07fa04accf9e" data-name="f128c747-6340-4bf0-91b7-6e03f34e999a"><path d="M1403,511.79a2344.59,2344.59,0,0,1-174.44,170.35q-46,40-94.35,77.36-48.63,36.9-99.78,70.33c-34.35,21.85-69.56,42.39-105.81,61a1029.27,1029.27,0,0,1-112.27,48.45,4.11,4.11,0,0,1-2.79-7.74h.06a1023.07,1023.07,0,0,0,111.56-47.49c36.08-18.34,71.18-38.58,105.46-60.16q51.09-32.91,99.67-69.53,48.33-36.87,94.41-76.64a2337.8,2337.8,0,0,0,174.89-169.1" transform="translate(0 -3.97)" style="fill:#fff"/><g style="opacity:0.6800000071525574"><path d="M154.24,587,287,585.92l132.8-.61,265.6-.49,265.6.54,132.8.67,132.79,1.15a.4.4,0,0,1,.39.4.38.38,0,0,1-.38.38h0l-132.79,1.16-132.8.67-265.6.54-265.6-.49L287,589.23l-132.8-1.07a.58.58,0,0,1-.58-.58h0A.6.6,0,0,1,154.24,587Z" transform="translate(0 -3.97)" style="fill:#fff"/><path d="M1081.56,812H327.31a2,2,0,0,1,0-4.08h754.26a2,2,0,0,1,0,4.08Z" transform="translate(0 -3.97)" style="fill:#fff"/></g><path d="M976.05,519.14a4,4,0,0,1,7.33.78c3.55,12.8,12.16,35.13,30.22,43.06.91.4,1.77.8,2.6,1.21a9.18,9.18,0,0,0-1.13-8.3c-5.62-8.58,4.52-20.3,4.52-20.3s.67,10.32,8.52,16.82c6.75,5.6,10,18,5.38,28.27-9.77,38-24.41,88.17,32.6,124.85s137.29-69.22,137.29-69.22l-39.84,126.31s-61.51,45.39-133-18.44-24.12-156.68-24.12-156.68S951.8,565.49,976.05,519.14Z" transform="translate(0 -3.97)" style="fill:#fca372"/><path d="M1065.61,705c-16.76-10.79-27.38-22.74-33.79-35.21-12.87,5.07-26.57,5.33-40.59,4.75,3.64,23.42,14.38,48.13,38.4,69.58,72.29,64.58,134.44,18.66,134.44,18.66l40.24-127.82S1123.19,742.07,1065.61,705Z" transform="translate(0 -3.97)" style="fill:#41b3a7"/><path d="M1540.6,647.36,1425,938.11a34.4,34.4,0,0,1-36.91,21.37L1084.91,937.1l109.2-309.19a19.35,19.35,0,0,1,18.5-12.45c53.15,1.23,246.75,6,316,12.17a14.34,14.34,0,0,1,13,15.58h0A13.79,13.79,0,0,1,1540.6,647.36Z" transform="translate(0 -3.97)" style="fill:#071841"/><path d="M1398.31,946.28l115.5-293.36a9.15,9.15,0,0,0-5.18-11.87,9.33,9.33,0,0,0-3.13-.63L1220,629.62a17.32,17.32,0,0,0-16.77,11l-104.57,286Z" transform="translate(0 -3.97)" style="fill:#edf8f1"/><path d="M981.82,950a9.82,9.82,0,0,0,9.82,9.81h398.72a14.9,14.9,0,0,0,15-14.85h0v-.06l6.28-7.29-414-3.54A16,16,0,0,0,981.87,950Z" transform="translate(0 -3.97)" style="fill:#071841"/><path d="M1213.37,450.7s-16.52-74.08,68.34-54.47c0,0,41.2-6.73,43.29,32.15,0,0,26.56,17.49,7.12,51.14,0,0,78.91-30.48,113.29,38.69s2.78,107.23-30.35,117.15c0,0,26.84,13.47,14.14,43.91s-77.06,51.88-115.07,14.87c0,0-108.16,14.3-106-62.1,0,0-50.31-32.49,2.53-95.62S1213.37,450.7,1213.37,450.7Z" transform="translate(0 -3.97)" style="fill:#061e43"/><path d="M1208.71,622.43c17-5.11,66.7-14.55,113.93,29a29.22,29.22,0,0,1,8.43,29.15c-12.69,46.7-42.35,196.52-13,256.22,0,0-38.29,1.09-111.94-.78,0,0-25.31-110.33-58.47-158.77-22.89-33.43,36.51-125.56,51.53-147.82A17.77,17.77,0,0,1,1208.71,622.43Z" transform="translate(0 -3.97)" style="fill:#41b3a7"/><path d="M1255.79,529.62S1281,601,1282.91,632.42a53.91,53.91,0,0,1-54.14-8.71s-2.76-71.26-6.74-84Z" transform="translate(0 -3.97)" style="fill:#fca372"/><path d="M1220.76,432.38s-66,92.31-26.53,119.13,86.39-38.79,86.39-38.79,15.3-50.53-.7-67.67S1220.76,432.38,1220.76,432.38Z" transform="translate(0 -3.97)" style="fill:#fca372"/><path d="M1251.31,410.32s-30.3,7.18-34.55,20.89,43,26.42,56.21,27l10.64,55.41s31.51-52,19-82.11S1251.31,410.32,1251.31,410.32Z" transform="translate(0 -3.97)" style="fill:#061e43"/><path d="M1267.83,505.92s25.68-29.73,35.89-10.35-23.11,33.94-34.65,24.43Z" transform="translate(0 -3.97)" style="fill:#fca372"/><path d="M1329.4,660.78s80.57,67,100.56,158.46-117.77,101.21-117.77,101.21-18.7-20.87-40.89-13.43-1.72-36.44,24.25-36.32,13.94,20.65,50.68,4c35.79-16.21,57.91-66.35-33.4-142.35a41.31,41.31,0,0,1-12.06-16.43C1283.06,671.28,1297.19,642,1329.4,660.78Z" transform="translate(0 -3.97)" style="fill:#fca372"/><path d="M1430,818.93c-20.09-91.5-101-158.46-101-158.46-32.41-18.77-46.55,10.5-28.73,55.15a41.36,41.36,0,0,0,12.12,16.43c70.75,58.62,73.71,101.84,54.87,126,9.5,3,18.52,7.82,26.79,13.15,6.41,4.25,12.29,7.46,17.65,11.56C1427.11,867.94,1436.19,847.39,1430,818.93Z" transform="translate(0 -3.97)" style="fill:#41b3a7"/><path d="M620.13,478.15H604.92c-2.69,0-4.88-1.29-4.94-2.9l-4.67-103.53c-.06-1.67,2.17-3,4.94-3h19.86c2.73,0,4.94,1.33,4.94,3V475.18C625.07,476.82,622.86,478.15,620.13,478.15Z" transform="translate(0 -3.97)" style="fill:#5ecff5"/><path d="M594.45,360.49l.17,1.36c.16,1.29,1.89,2.3,4,2.37l21.92.68c2.44.07,4.49-1.1,4.49-2.57v-2.06c0-1.38-1.8-2.51-4.09-2.57-5.46-.14-15.3-.31-22.59,0C596,357.83,594.31,359.06,594.45,360.49Z" transform="translate(0 -3.97)" style="fill:#5ecff5"/><path d="M578.62,478.15H563.41c-2.68,0-4.87-1.29-4.94-2.9l-4.64-115.32c-.07-1.67,2.16-3,4.94-3h19.85c2.73,0,4.94,1.34,4.94,3V475.18C583.56,476.82,581.31,478.15,578.62,478.15Z" transform="translate(0 -3.97)" style="fill:#5ecff5"/><path d="M552.94,348.7l.17,1.36c.17,1.29,1.9,2.31,4,2.37l21.93.68c2.44.08,4.48-1.09,4.48-2.57v-2.06c0-1.38-1.8-2.51-4.08-2.57-5.47-.14-15.31-.31-22.6,0C554.53,346.05,552.76,347.28,552.94,348.7Z" transform="translate(0 -3.97)" style="fill:#5ecff5"/><path d="M661.89,478.15H646.68c-2.68,0-4.88-1.29-4.94-2.9L640,401.71c-.07-1.67,2.17-3,4.94-3h19.86c2.72,0,4.94,1.33,4.94,3l-2.86,73.54C666.83,476.82,664.62,478.15,661.89,478.15Z" transform="translate(0 -3.97)" style="fill:#5ecff5"/><path d="M639.06,390.48l.18,1.36c.16,1.29,1.89,2.3,4,2.37l21.93.68c2.44.07,4.49-1.1,4.49-2.57v-2.06c0-1.38-1.8-2.51-4.09-2.57-5.46-.14-15.3-.31-22.59,0C640.65,387.82,638.88,389.06,639.06,390.48Z" transform="translate(0 -3.97)" style="fill:#5ecff5"/><path d="M498.19,478.15H483c-2.68,0-4.87-1.29-4.93-2.9l-4.65-103.53c-.06-1.67,2.17-3,4.94-3h19.84c2.73,0,4.94,1.33,4.94,3V475.18C503.19,476.82,500.94,478.15,498.19,478.15Z" transform="translate(0 -3.97)" style="fill:#5ecff5"/><path d="M472.52,360.49l.18,1.36c.16,1.29,1.89,2.3,4,2.37l21.93.68c2.44.07,4.49-1.1,4.49-2.57v-2.06c0-1.38-1.8-2.51-4.09-2.57-5.46-.14-15.3-.31-22.59,0C474.11,357.83,472.31,359.06,472.52,360.49Z" transform="translate(0 -3.97)" style="fill:#5ecff5"/><path d="M540,478.15H524.76c-2.69,0-4.88-1.29-4.94-2.9L518,401.71c-.07-1.67,2.16-3,4.94-3h19.86c2.72,0,4.94,1.33,4.94,3l-2.86,73.54C544.91,476.82,542.7,478.15,540,478.15Z" transform="translate(0 -3.97)" style="fill:#5ecff5"/><path d="M517.19,390.48l.18,1.36c.16,1.29,1.89,2.3,4,2.37l21.93.68c2.44.07,4.49-1.1,4.49-2.57v-2.06c0-1.38-1.81-2.51-4.09-2.57-5.46-.14-15.3-.31-22.59,0C518.73,387.82,517,389.06,517.19,390.48Z" transform="translate(0 -3.97)" style="fill:#5ecff5"/><rect x="742.05" y="161.49" width="18.15" height="320.14" style="fill:#b5e3df"/><rect x="772.38" y="161.49" width="18.15" height="320.14" style="fill:#b5e3df"/><rect x="802.7" y="161.49" width="18.15" height="320.14" style="fill:#b5e3df"/><rect x="833.03" y="161.49" width="18.15" height="320.14" style="fill:#b5e3df"/><rect x="863.36" y="161.49" width="18.15" height="320.14" style="fill:#b5e3df"/><rect x="893.68" y="161.49" width="18.15" height="320.14" style="fill:#b5e3df"/><rect x="924.01" y="161.49" width="18.15" height="320.14" style="fill:#b5e3df"/><rect x="742.05" y="314.08" width="18.15" height="167.54" style="fill:#ffd131"/><rect x="772.38" y="371.66" width="18.15" height="109.96" style="fill:#ffd131"/><rect x="802.7" y="229.36" width="18.15" height="252.27" style="fill:#ffd131"/><rect x="833.03" y="421.02" width="18.15" height="60.6" style="fill:#ffd131"/><rect x="863.36" y="263.08" width="18.15" height="218.54" style="fill:#ffd131"/><rect x="893.68" y="300.92" width="18.15" height="180.7" style="fill:#ffd131"/><rect x="924.01" y="342.05" width="18.15" height="139.57" style="fill:#ffd131"/><circle cx="1001.82" cy="347.91" r="35.88" style="fill:#071841"/><path d="M1023.19,344.29A23,23,0,1,1,1001.87,330H1003v-5.84h-1.17a28.88,28.88,0,1,0,26.68,17.8Z" transform="translate(0 -3.97)" style="fill:#ffd131"/><path d="M1031.31,402.94H972.85a6.65,6.65,0,0,0-.51,13.29h59a6.65,6.65,0,1,0,.52-13.29h-.55Z" transform="translate(0 -3.97)" style="fill:#5ecff5"/><circle cx="1001.67" cy="232.59" r="35.88" style="fill:#071841"/><path d="M1013.87,257.23a23,23,0,1,1-12.28-42.54h1.16v-5.84h-1.16a28.88,28.88,0,1,0,15.17,53.46Z" transform="translate(0 -3.97)" style="fill:#ffd131"/><path d="M1031.47,287.62H973a6.65,6.65,0,0,0,0,13.29h58.47a6.65,6.65,0,0,0,0-13.29Z" transform="translate(0 -3.97)" style="fill:#5ecff5"/><circle cx="1001.99" cy="463.84" r="35.88" style="fill:#071841"/><path d="M1021.49,480.72a23,23,0,1,1-19.06-36h1.16v-5.84h-1.16a28.89,28.89,0,1,0,23.76,45.27Z" transform="translate(0 -3.97)" style="fill:#ffd131"/><path d="M972.72,531h58.47a6.65,6.65,0,1,0,.52-13.29h-59a6.65,6.65,0,0,0,0,13.29Z" transform="translate(0 -3.97)" style="fill:#5ecff5"/><circle cx="571.63" cy="144.87" r="84.73" style="fill:#071841"/><path d="M493.47,145.62h0a1,1,0,0,1-.91-1,82.08,82.08,0,0,1,1.15-10,1,1,0,0,1,1.35-.43,1,1,0,0,1,.53.77,81.07,81.07,0,0,0-1.12,9.71A1,1,0,0,1,493.47,145.62Z" transform="translate(0 -3.97)" style="fill:#91b3fa"/><circle cx="573.4" cy="146.71" r="71.71" style="fill:#73d0d9"/><path d="M595.37,123.56c0,12.14-9.84,25.25-22,25.25s-22-13.11-22-25.25,9.84-20.76,22-20.76S595.37,111.41,595.37,123.56Z" transform="translate(0 -3.97)" style="fill:#fff;opacity:0.5899999737739563;isolation:isolate"/><path d="M546.1,195.56h53.67a13,13,0,0,0,12.42-9l2.89-9a13,13,0,0,0-7.89-16.15c-21.84-8-44.43-7-67.56.74a12.93,12.93,0,0,0-8.29,15.68l2.22,8.2A13,13,0,0,0,546.1,195.56Z" transform="translate(0 -3.97)" style="fill:#fff;opacity:0.5899999737739563;isolation:isolate"/><path d="M571.57,293.62c-79.86,0-144.82-65-144.82-144.82S491.75,4,571.57,4,716.39,69,716.39,148.8,651.42,293.62,571.57,293.62Zm0-244.23A99.41,99.41,0,1,0,671,148.81h0a99.52,99.52,0,0,0-99.4-99.4Z" transform="translate(0 -3.97)" style="fill:#edf8f1;opacity:0.7300000190734863;isolation:isolate"/><path d="M716,138l-45.29,3.4c.18,2.46.27,4.93.27,7.44a98.57,98.57,0,0,1-5.9,33.75L707.79,198a143.84,143.84,0,0,0,8.6-49.17C716.39,145.16,716.25,141.56,716,138Z" transform="translate(0 -3.97)" style="fill:#5ecff5"/><path d="M571.57,248.21A99.41,99.41,0,1,1,595.79,52.39l11.06-44A145.18,145.18,0,0,0,571.57,4C491.71,4,426.75,69,426.75,148.86s65,144.76,144.82,144.76c62.6,0,116-39.93,136.22-95.65l-42.72-15.41A99.56,99.56,0,0,1,571.57,248.21Z" transform="translate(0 -3.97)" style="fill:#ffd131"/><path d="M670.7,141.37,716,138a143.83,143.83,0,0,0-14.24-52.58l-40.83,19.89A98.72,98.72,0,0,1,670.7,141.37Z" transform="translate(0 -3.97)" style="fill:#071841"/><path d="M749.92,555.32l172.38-1a9,9,0,0,1,9.13,8.87h0A8.88,8.88,0,0,1,930.1,568l-.86,1.44a9,9,0,0,1-7.76,4.39H750a9,9,0,0,1-9-9v-.53a9,9,0,0,1,8.94-9.06h0Z" transform="translate(0 -3.97)" style="fill:#071841"/><path d="M725.84,564.62v.28a9,9,0,0,1-9,9H678.57a9.05,9.05,0,0,1-8.74-6.71h0a9.08,9.08,0,0,1,6.47-11.09,9.19,9.19,0,0,1,2.21-.3l38.26-.28a9.05,9.05,0,0,1,9.07,9Z" transform="translate(0 -3.97)" style="fill:#071841"/><path d="M791.38,587.8l130.92-1a9,9,0,0,1,9.13,8.87h0a8.88,8.88,0,0,1-1.33,4.84l-.86,1.44a9,9,0,0,1-7.76,4.39h-130a9,9,0,0,1-9-9h0v-.48a9,9,0,0,1,8.94-9.06h0Z" transform="translate(0 -3.97)" style="fill:#071841"/><path d="M767.31,597.05v.28a9,9,0,0,1-9,9H720a9,9,0,0,1-8.74-6.71h0a9.07,9.07,0,0,1,6.4-11.08,9.2,9.2,0,0,1,2.27-.31l38.27-.28a9,9,0,0,1,9.07,9Z" transform="translate(0 -3.97)" style="fill:#071841"/><path d="M1.19,625.25l123.1,309.59a36.67,36.67,0,0,0,39.3,22.75l322.77-23.84L370.08,604.56a20.58,20.58,0,0,0-19.7-13.25c-56.6,1.3-262.74,6.39-336.48,13a15.27,15.27,0,0,0-12.76,21Z" transform="translate(0 -3.97)" style="fill:#071841"/><path d="M152.66,943.56,29.66,631.2a9.74,9.74,0,0,1,5.5-12.63h0a9.91,9.91,0,0,1,3.36-.68l304-11.54A18.46,18.46,0,0,1,360.41,618L471.7,922.56Z" transform="translate(0 -3.97)" style="fill:#edf8f1"/><path d="M596.11,947.56A10.45,10.45,0,0,1,585.66,958H161.11a15.88,15.88,0,0,1-15.92-15.84v-.09h0l-6.67-7.76,440.85-3.76A17,17,0,0,1,596.11,947.56Z" transform="translate(0 -3.97)" style="fill:#071841"/><path d="M392.13,619.28C313.36,618,226.46,640,226.46,640c-23.48,137-4.11,295-4.11,295,113.88,1.91,127.4-4.42,127.4-4.42,10.13-57.26,59.79-223.77,59.79-223.77,38.48-4.77,70.18-15.88,96.29-30.56-19.91-23.08-29.3-52.45-33.38-69.82C444.6,615.06,416.42,619.68,392.13,619.28Z" transform="translate(0 -3.97)" style="fill:#4aa4c2"/><path d="M624.79,503.26c-7.74-9.34-17.53-4.92-17.53-4.92-11.59,49-72.37,88.66-134.81,108.06,4.08,17.37,13.47,46.74,33.38,69.82C609.45,618,624.79,503.26,624.79,503.26Z" transform="translate(0 -3.97)" style="fill:#fca372"/><path d="M622.91,505.62c.81,2.57-8.57,6.49-14.09-4-.19-5-3.26-26.66-.24-30.77,16-21.89,47.18-49.33,47.18-49.33a7.4,7.4,0,0,1,.93,10.29l-15.1,15.75c3.16,5.71,7,10.53,8.81,17.43a21.1,21.1,0,0,1-2.11,15.57q-4.44,8.16-9.68,15.84C632.19,505.62,622.91,505.62,622.91,505.62Z" transform="translate(0 -3.97)" style="fill:#fca372"/><path d="M635,457.74,621.19,469.4,616.87,481l12.32,13.61s4.12-23,7.19-28S637.84,459.2,635,457.74Z" transform="translate(0 -3.97)" style="fill:#fca372"/><path d="M256.67,716.23,226.46,640s-73.57,50-85.67,113.37c13.9,1,39.19,4.64,64,17.14C210.19,740.56,256.67,716.23,256.67,716.23Z" transform="translate(0 -3.97)" style="fill:#4aa4c2"/><path d="M321,788s-82.6,46.69-110.47,6.83c-5.79-8.28-7.17-16.51-5.75-24.35-24.76-12.5-50-16.12-64-17.14a87.5,87.5,0,0,0,9.5,60c48.83,89.3,181.6-4.94,181.6-4.94Z" transform="translate(0 -3.97)" style="fill:#fca372"/><path d="M315.42,852.93a4.61,4.61,0,0,1-4.56-4.66h0a5.07,5.07,0,0,1,.18-1.22l45.08-157.43a4.61,4.61,0,0,1,3.88-3.31c8.17-1,31.83-3.62,59.16-5.93,32.92-2.79,71.14-5,94-3.13a4.61,4.61,0,0,1,4.23,5v0a4.38,4.38,0,0,1-.46,1.66c-13,26.28-66.42,133.18-93.18,168.2a4.58,4.58,0,0,1-3.71,1.82Z" transform="translate(0 -3.97)" style="fill:#ffd131"/><path d="M423.84,666.73l32.68-5.45a2.34,2.34,0,0,1,2.69,1.91,2.37,2.37,0,0,1-.08,1.09l-3.23,9.8a2.3,2.3,0,0,1-1.92,1.59l-31.45,4.21a2.36,2.36,0,0,1-2.64-2,2.82,2.82,0,0,1,0-.82l2-8.56A2.32,2.32,0,0,1,423.84,666.73Z" transform="translate(0 -3.97)" style="fill:#061e43"/><path d="M399.36,694.4l2.7-14a3.26,3.26,0,0,1,2.85-2.61l66-6.7a3.25,3.25,0,0,1,3.56,2.89,3.19,3.19,0,0,1-.08,1.11l-4.2,17.47a3.22,3.22,0,0,1-3,2.48l-64.51,3.25a3.24,3.24,0,0,1-3.38-3.09v0A3.42,3.42,0,0,1,399.36,694.4Z" transform="translate(0 -3.97)" style="fill:#061e43"/><path d="M321.93,809s-6.28-25.82-3.75-35,7.44-20.94,23.8-18.32,35.66,9.51,35.66,9.51-1,11.93-13.41,8.08l7.71,6s-1.1,9.55-11.6,4.45l7.17,7.91s-4.51,7.85-12.24,2.82S343.84,812.13,321.93,809Z" transform="translate(0 -3.97)" style="fill:#fca372"/><path d="M312.31,555.34l-25,72.47A2.62,2.62,0,0,0,288.5,631c6.83,3.77,31.44,14.69,61.1-4.11a12.27,12.27,0,0,0,5.66-8.79l8.12-62.72Z" transform="translate(0 -3.97)" style="fill:#fca372"/><path d="M366.88,488.22s27.52,51.8,24,72.73-37.63,19.42-67.42,2.43l-20.81-55.94Z" transform="translate(0 -3.97)" style="fill:#fca372"/><path d="M324.77,535.91a2.13,2.13,0,0,0,1.11-2.8v0a1.87,1.87,0,0,0-.17-.31c-2.2-3.36-6.34-10.24-7.66-16.25,0,0-4.94-3.17,12.6-7.37s43.69-10.71,49.19-25.64c5.36-14.56-8.72-51.16-31.19-22a2.14,2.14,0,0,1-3,.39,1.8,1.8,0,0,1-.39-.39c-3.68-4.8-13.36-14.75-26.81-8.72-12.58,5.65-14,14.87-13.82,19.52a2.12,2.12,0,0,1-2,2.21,1.85,1.85,0,0,1-.47,0c-6.36-1.21-21.63-2.26-28.75,13.4-5.87,12.9-2,20.2,1.42,23.77a2.14,2.14,0,0,1,0,3,2,2,0,0,1-.87.51c-4.18,1.28-9.58,4.82-9,14.62.75,13.54,15.89,12.34,20.2,11.73a2.16,2.16,0,0,1,1.89.67c3.7,4.09,20.35,21.45,38.37,23.55a2.16,2.16,0,0,0,2.37-1.93h0a2.22,2.22,0,0,0-.11-.92l-7.8-22.67A2.17,2.17,0,0,1,321,537.6Z" transform="translate(0 -3.97)" style="fill:#061e43"/><path d="M327.9,539.13s-19.59-13.45-21-2.13,17.64,16.4,27.09,12.18Z" transform="translate(0 -3.97)" style="fill:#fca372"/><path d="M1236.67,194.09l-.28-2.35h0a.61.61,0,0,1,.53-.67h0a.61.61,0,0,1,.68.52h0l.27,2.41a.6.6,0,0,1-1.19.14Z" transform="translate(0 -3.97)" style="fill:#fff"/><path d="M1234.05,180.07l-.6-2.3h0a.69.69,0,0,1,.49-.85h0a.71.71,0,0,1,.86.5h0l.58,2.34a.68.68,0,0,1-.58.78.68.68,0,0,1-.75-.44Z" transform="translate(0 -3.97)" style="fill:#fff"/><path d="M1229.79,166.45l-.86-2.22h0a.79.79,0,0,1,.39-1,.77.77,0,0,1,1,.38.14.14,0,0,1,0,.09h0l.84,2.25a.78.78,0,0,1-1.46.57h0Z" transform="translate(0 -3.97)" style="fill:#fff"/><path d="M1224,153.43l-1.13-2.1h0a.86.86,0,0,1,.3-1.19h0a.89.89,0,0,1,1.21.3h0v.06h0l1.12,2.15a.85.85,0,0,1-.35,1.15h0a.86.86,0,0,1-1.16-.35h0Z" transform="translate(0 -3.97)" style="fill:#fff"/><path d="M1216.57,141.28l-1.4-1.91h0a1,1,0,0,1,1.3-1.52,1,1,0,0,1,.27.37h0l1.4,2a1,1,0,0,1-1.55,1.12Z" transform="translate(0 -3.97)" style="fill:#fff"/><path d="M1207.49,130.37l-1.67-1.67h0a1.06,1.06,0,1,1,1.5-1.5h0l1.69,1.73a1,1,0,0,1-1.49,1.47Z" transform="translate(0 -3.97)" style="fill:#fff"/><path d="M1196.8,121.07l-1.93-1.36h0a1.17,1.17,0,1,1,1.2-2l.13.09h0l2,1.43a1.13,1.13,0,1,1-1.32,1.84h-.08Z" transform="translate(0 -3.97)" style="fill:#fff"/><path d="M1184.7,113.74l-2.12-1h0a1.23,1.23,0,0,1,1.06-2.23h0l2.17,1.07a1.22,1.22,0,0,1-1,2.21h0Z" transform="translate(0 -3.97)" style="fill:#fff"/><path d="M1073.91,116.68l-2.24.79h0a1.68,1.68,0,0,1-1.12-3.17h0l2.27-.79a1.68,1.68,0,0,1,2.12,1,1.66,1.66,0,0,1-1,2.11Z" transform="translate(0 -3.97)" style="fill:#fff"/><path d="M1060.53,121.71l-2.22.91h0a1.73,1.73,0,0,1-1.53-3.1l.24-.1h0l2.23-.88a1.72,1.72,0,1,1,1.41,3.14l-.13,0Z" transform="translate(0 -3.97)" style="fill:#fff"/><path d="M1047.36,127.27l-2.18,1h0a1.78,1.78,0,0,1-1.46-3.25h0l2.2-1a1.77,1.77,0,0,1,1.47,3.23h0Z" transform="translate(0 -3.97)" style="fill:#fff"/><path d="M1034.31,133.25l-2.2,1a1.82,1.82,0,1,1-1.47-3.33h0l2.18-1h0a1.82,1.82,0,1,1,1.67,3.24.85.85,0,0,1-.22.09Z" transform="translate(0 -3.97)" style="fill:#fff"/><path d="M1021,138.79l-2.24.86a1.84,1.84,0,0,1-1.65-3.29l.16-.07.17-.07h0l2.23-.85h0a1.84,1.84,0,1,1,1.54,3.35l-.23.08Z" transform="translate(0 -3.97)" style="fill:#fff"/><path d="M1007.4,143.75l-2.28.77a1.83,1.83,0,0,1-2.33-1.12v0a1.86,1.86,0,0,1,1.14-2.35h0l2.25-.77h0a1.85,1.85,0,1,1,1.2,3.51Z" transform="translate(0 -3.97)" style="fill:#fff"/><path d="M993.69,148.23l-2.3.71a1.85,1.85,0,0,1-2.31-1.22h0a1.87,1.87,0,0,1,1.23-2.33h0l2.28-.69h0a1.86,1.86,0,1,1,1.09,3.56h0Z" transform="translate(0 -3.97)" style="fill:#fff"/><path d="M979.87,152.32l-2.32.65a1.88,1.88,0,0,1-1-3.62h0l2.29-.64h0a1.87,1.87,0,1,1,1,3.61Z" transform="translate(0 -3.97)" style="fill:#fff"/><path d="M966,156.06l-2.32.59a1.88,1.88,0,0,1-.94-3.65h0l2.32-.58h0a1.88,1.88,0,1,1,.93,3.65Z" transform="translate(0 -3.97)" style="fill:#fff"/><path d="M952,159.5l-2.33.54a1.9,1.9,0,0,1-.87-3.7h0l2.33-.54h0a1.9,1.9,0,0,1,.85,3.7Z" transform="translate(0 -3.97)" style="fill:#fff"/><path d="M937.91,162.62l-2.35.5a1.91,1.91,0,0,1-.79-3.74h0l2.33-.49a1.91,1.91,0,1,1,1,3.69h-.2Z" transform="translate(0 -3.97)" style="fill:#fff"/><path d="M923.81,165.56l-2.36.46a1.9,1.9,0,0,1-2.24-1.5v0a1.94,1.94,0,0,1,1.52-2.26h0l2.35-.45a1.92,1.92,0,1,1,.74,3.77Z" transform="translate(0 -3.97)" style="fill:#fff"/><path d="M765.86,183.56l-2.4.09a2.06,2.06,0,0,1-.15-4.11h0l2.39-.08a2.05,2.05,0,1,1,.16,4.1Z" transform="translate(0 -3.97)" style="fill:#fff"/><path d="M737.08,184.19h-2.4a2,2,0,0,1,0-4.07h2.39a2,2,0,1,1,0,4.07Z" transform="translate(0 -3.97)" style="fill:#fff"/><path d="M423.63,100.85l-1.69-1.74a1.64,1.64,0,0,1,2.35-2.28h0L426,98.52h0a1.64,1.64,0,0,1-2.35,2.3Z" transform="translate(0 -3.97)" style="fill:#fff"/><path d="M413.94,90l-1.51-1.89a1.59,1.59,0,0,1,.25-2.23h0a1.58,1.58,0,0,1,2.22.24h0L416.39,88h0a1.61,1.61,0,0,1-2.51,2Z" transform="translate(0 -3.97)" style="fill:#fff"/><path d="M405.41,78.27l-1.29-2a1.56,1.56,0,1,1,2.64-1.67h0l1.28,2h0a1.57,1.57,0,0,1-2.54,1.85s-.07-.1-.1-.16Z" transform="translate(0 -3.97)" style="fill:#fff"/><path d="M398.25,65.62l-1-2.19A1.53,1.53,0,0,1,400,62.11h0l1,2.13h0a1.55,1.55,0,0,1-2.81,1.32h0Z" transform="translate(0 -3.97)" style="fill:#fff"/></g></svg>