<?xml version="1.0" encoding="UTF-8"?>
<svg xmlns="http://www.w3.org/2000/svg" id="Outline" viewBox="0 0 512 512" width="512" height="512"><path d="M32,176a8,8,0,0,0-8,8v32a8,8,0,0,0,8,8H49.443a109.193,109.193,0,0,0,12.336,30.907L42.343,274.343a8,8,0,0,0,0,11.314l24,24a8,8,0,0,0,11.314,0l19.436-19.436A109.193,109.193,0,0,0,128,302.557V328a8,8,0,0,0,8,8h28.05A127.94,127.94,0,0,0,359.9,409.843l79.129,79.128a24,24,0,0,0,33.942-33.942L393.842,375.9A127.778,127.778,0,0,0,372.565,208H384a8,8,0,0,0,8-8V169.46c1.577-4.18,24-63.736,24-65.46,0-17.592-4.961-31.472-14.744-41.256S377.592,48,360,48s-31.472,4.961-41.256,14.744S304,86.408,304,104c0,.959,24,65.45,24,65.45v12.957A127.5,127.5,0,0,0,288,176H254.557a109.193,109.193,0,0,0-12.336-30.907l19.436-19.436a8,8,0,0,0,0-11.314l-24-24a8,8,0,0,0-11.314,0l-19.436,19.436A109.193,109.193,0,0,0,176,97.443V72a8,8,0,0,0-8-8H136a8,8,0,0,0-8,8V97.443a109.193,109.193,0,0,0-30.907,12.336L77.657,90.343a8,8,0,0,0-11.314,0l-24,24a8,8,0,0,0,0,11.314l19.436,19.436A109.193,109.193,0,0,0,49.443,176ZM461.657,466.344a8,8,0,1,1-11.313,11.312l-77.716-77.714a129.177,129.177,0,0,0,11.313-11.313ZM320.013,102.584C320.487,76.979,333.935,64,360,64c26.1,0,39.546,13.01,39.988,38.677-2.249,6.177-13.182,35.226-21.519,57.323H341.543ZM344,176h32v16H349.908Q347,190.386,344,188.917Zm56,128A112,112,0,1,1,287.923,192H288A112.127,112.127,0,0,1,400,304ZM152,240a40,40,0,1,1,40-40A40.045,40.045,0,0,1,152,240ZM63.891,185.317a93,93,0,0,1,14.667-36.735,8,8,0,0,0-.9-10.239L59.313,120,72,107.313l18.343,18.344a8,8,0,0,0,10.239.9,93,93,0,0,1,36.735-14.667A8,8,0,0,0,144,104V80h16v24a8,8,0,0,0,6.683,7.891,93,93,0,0,1,36.735,14.667,8,8,0,0,0,10.239-.9L232,107.313,244.687,120l-18.344,18.343a8,8,0,0,0-.9,10.239A93,93,0,0,1,240.107,185.3a128.109,128.109,0,0,0-32.289,19c.109-1.423.182-2.855.182-4.305a56.024,56.024,0,1,0-37.29,52.775A127.257,127.257,0,0,0,160,304a128.836,128.836,0,0,0,1,16H144V296a8,8,0,0,0-6.683-7.891,93,93,0,0,1-36.735-14.667,8,8,0,0,0-10.239.9L72,292.687,59.313,280l18.344-18.343a8,8,0,0,0,.9-10.239,93,93,0,0,1-14.667-36.735A8,8,0,0,0,56,208H40V192H56A8,8,0,0,0,63.891,185.317Z"/><path d="M272.845,44.422a8,8,0,0,0,3.577,10.733l16,8a8,8,0,1,0,7.156-14.31l-16-8A8,8,0,0,0,272.845,44.422Z"/><path d="M352,8V24a8,8,0,0,0,16,0V8a8,8,0,0,0-16,0Z"/><path d="M308.422,8.845a8,8,0,0,0-3.577,10.733l8,16a8,8,0,1,0,14.31-7.156l-8-16A8,8,0,0,0,308.422,8.845Z"/><path d="M400.845,12.422l-8,16a8,8,0,1,0,14.31,7.156l8-16a8,8,0,1,0-14.31-7.156Z"/><path d="M436.422,40.845l-16,8a8,8,0,1,0,7.156,14.31l16-8a8,8,0,1,0-7.156-14.31Z"/><path d="M192,304a96,96,0,1,0,96-96A96.108,96.108,0,0,0,192,304Zm176,0a80,80,0,1,1-80-80A80.091,80.091,0,0,1,368,304Z"/><path d="M240,304a8,8,0,0,0-16,0,64.072,64.072,0,0,0,64,64,8,8,0,0,0,0-16A48.053,48.053,0,0,1,240,304Z"/></svg>
