<?xml version="1.0"?>
<svg xmlns="http://www.w3.org/2000/svg" id="Icons" viewBox="0 0 60 60" width="512" height="512"><path d="M33.308,48.72a5,5,0,1,0-6.592.02A8.381,8.381,0,0,0,22,56.294V58a2,2,0,0,0,2,2H36a2,2,0,0,0,2-2V56a7.984,7.984,0,0,0-4.692-7.28ZM30,42a3,3,0,1,1-3,3A3,3,0,0,1,30,42Zm6,16H24V56.294A6.2,6.2,0,0,1,29.815,50c.062,0,.123,0,.185,0a6,6,0,0,1,6,6Z"/><path d="M11.3,48.724a5,5,0,1,0-6.587.016A8.381,8.381,0,0,0,0,56.294V58a2,2,0,0,0,2,2H14a2,2,0,0,0,2-2V56a7.96,7.96,0,0,0-4.7-7.276ZM8,42a3,3,0,1,1-3,3A3,3,0,0,1,8,42Zm6,16H2V56.294A6.2,6.2,0,0,1,7.814,50L8,50a6,6,0,0,1,6,6Z"/><path d="M55.307,48.721a5,5,0,1,0-6.591.019A8.381,8.381,0,0,0,44,56.294V58a2,2,0,0,0,2,2H58a2,2,0,0,0,2-2V56a7.977,7.977,0,0,0-4.693-7.279ZM52,42a3,3,0,1,1-3,3A3,3,0,0,1,52,42Zm6,16H46V56.294A6.2,6.2,0,0,1,51.815,50c.062,0,.123,0,.185,0a6,6,0,0,1,6,6Z"/><path d="M30,37a4,4,0,0,0,4-4V11h1.937a2.063,2.063,0,0,0,1.558-3.415L31.531.712A2.07,2.07,0,0,0,28.476.705L22.49,7.6A2.053,2.053,0,0,0,24.04,11H26V33A4,4,0,0,0,30,37ZM24,8.913l6.015-6.9,5.979,6.947A.051.051,0,0,1,35.937,9H33.5A1.5,1.5,0,0,0,32,10.5V33a2,2,0,0,1-4,0V10.5A1.5,1.5,0,0,0,26.5,9Z"/><path d="M8.015,37a4,4,0,0,0,4-4V20h1.937a2.063,2.063,0,0,0,1.558-3.415L9.546,9.711A2.013,2.013,0,0,0,8.015,9h0a2.005,2.005,0,0,0-1.524.705L.505,16.6A2.052,2.052,0,0,0,2.055,20h1.96V33A4,4,0,0,0,8.015,37Zm-6-19.087,6.015-6.9,5.979,6.948a.052.052,0,0,1-.057.036H11.515a1.5,1.5,0,0,0-1.5,1.5V33a2,2,0,0,1-4,0V19.5a1.5,1.5,0,0,0-1.5-1.5Z"/><path d="M52,37a4,4,0,0,0,4-4V14h1.937a2.062,2.062,0,0,0,1.557-3.415L53.528,3.711a2.069,2.069,0,0,0-3.055-.006l-5.986,6.9A2.052,2.052,0,0,0,46.038,14H48V33A4,4,0,0,0,52,37ZM46,11.913l6.016-6.9,5.979,6.947a.051.051,0,0,1-.057.037H55.5A1.5,1.5,0,0,0,54,13.5V33a2,2,0,0,1-4,0V13.5A1.5,1.5,0,0,0,48.5,12Z"/></svg>
