<?xml version="1.0" encoding="utf-8"?>
<!-- Generator: Adobe Illustrator 25.2.3, SVG Export Plug-In . SVG Version: 6.00 Build 0)  -->
<svg version="1.1" id="Layer_1" xmlns="http://www.w3.org/2000/svg" xmlns:xlink="http://www.w3.org/1999/xlink" x="0px" y="0px"
	 viewBox="0 0 1600 1200" style="enable-background:new 0 0 1600 1200;" xml:space="preserve">
<style type="text/css">
	.st0{fill:none;}
	.st1{fill:#061E43;}
	.st2{fill:#66C2AB;}
	.st3{fill:#F4F8FF;}
	.st4{fill:#A1DBCC;}
	.st5{fill:#2D7770;}
	.st6{fill:#FCA372;}
	.st7{fill:#070B3B;}
	.st8{filter:url(#Adobe_OpacityMaskFilter);}
	.st9{filter:url(#Adobe_OpacityMaskFilter_1_);}
	.st10{mask:url(#SVGID_1_);fill:url(#SVGID_2_);}
	.st11{fill:url(#SVGID_3_);}
	.st12{filter:url(#Adobe_OpacityMaskFilter_2_);}
	.st13{filter:url(#Adobe_OpacityMaskFilter_3_);}
	.st14{mask:url(#SVGID_4_);fill:url(#SVGID_5_);}
	.st15{opacity:0.6;fill:#A1DBCC;}
	.st16{filter:url(#Adobe_OpacityMaskFilter_4_);}
	.st17{mask:url(#SVGID_6_);fill:#D2E4FA;}
	.st18{fill:#144D4C;}
	.st19{opacity:0.3;fill:#A1DBCC;}
	.st20{fill:#E7F0FF;}
	.st21{fill:#A3BFEB;}
	.st22{fill:#FFFFFF;}
	.st23{fill:#A8D0F5;}
	.st24{fill:#002D87;}
	.st25{fill:url(#SVGID_7_);}
	.st26{fill:#D2E4FA;}
	.st27{filter:url(#Adobe_OpacityMaskFilter_5_);}
	.st28{mask:url(#SVGID_8_);fill:#66C2AB;}
	.st29{fill:#FCD02D;}
	.st30{fill:url(#SVGID_9_);}
	.st31{filter:url(#Adobe_OpacityMaskFilter_6_);}
	.st32{mask:url(#SVGID_10_);fill:#2D7770;}
	.st33{fill:url(#SVGID_11_);}
	.st34{filter:url(#Adobe_OpacityMaskFilter_7_);}
	.st35{mask:url(#SVGID_12_);fill:#2D7770;}
	.st36{fill:#0072A8;}
	.st37{fill:#192C78;}
	.st38{fill:#00B7D8;}
	.st39{filter:url(#Adobe_OpacityMaskFilter_8_);}
	.st40{mask:url(#SVGID_13_);fill:#66C2AB;}
	.st41{fill:#EEF5F7;}
	.st42{filter:url(#Adobe_OpacityMaskFilter_9_);}
	.st43{filter:url(#Adobe_OpacityMaskFilter_10_);}
	.st44{mask:url(#SVGID_14_);fill:url(#SVGID_15_);}
	.st45{fill:#F8BFB4;}
	.st46{filter:url(#Adobe_OpacityMaskFilter_11_);}
	.st47{filter:url(#Adobe_OpacityMaskFilter_12_);}
	.st48{mask:url(#SVGID_16_);fill:url(#SVGID_17_);}
	.st49{fill:url(#SVGID_18_);}
	.st50{filter:url(#Adobe_OpacityMaskFilter_13_);}
	.st51{filter:url(#Adobe_OpacityMaskFilter_14_);}
	.st52{mask:url(#SVGID_19_);fill:url(#SVGID_20_);}
	.st53{fill:url(#SVGID_21_);}
	.st54{enable-background:new    ;}
	.st55{clip-path:url(#SVGID_23_);}
	.st56{opacity:0.2;fill:#00EEFF;}
	.st57{fill:#EC91A4;}
	.st58{fill:#E1980D;}
	.st59{clip-path:url(#SVGID_25_);}
	.st60{clip-path:url(#SVGID_27_);fill:#D2E4FA;}
	.st61{filter:url(#Adobe_OpacityMaskFilter_15_);}
	.st62{filter:url(#Adobe_OpacityMaskFilter_16_);}
	.st63{mask:url(#SVGID_28_);fill:url(#SVGID_29_);}
	.st64{fill:url(#SVGID_30_);}
	.st65{filter:url(#Adobe_OpacityMaskFilter_17_);}
	.st66{filter:url(#Adobe_OpacityMaskFilter_18_);}
	.st67{mask:url(#SVGID_31_);fill:url(#SVGID_32_);}
	.st68{fill:url(#SVGID_33_);}
	.st69{fill:url(#SVGID_34_);}
	.st70{fill:url(#SVGID_35_);}
	.st71{fill:url(#SVGID_36_);}
	.st72{filter:url(#Adobe_OpacityMaskFilter_19_);}
	.st73{filter:url(#Adobe_OpacityMaskFilter_20_);}
	.st74{mask:url(#SVGID_37_);fill:url(#SVGID_38_);}
	.st75{fill:url(#SVGID_39_);}
</style>
<rect class="st0" width="1600" height="1200"/>
<g>
	<polygon class="st1" points="105.3,348.7 105.3,372.5 358.5,518.7 358.5,495.5 	"/>
	<polygon class="st2" points="613.9,348.7 613.9,372.5 358.5,518.7 358.5,495.5 	"/>
	<g>
		<g>
			<polygon class="st3" points="105.3,343.3 358.5,490.1 613.9,343.3 206.1,285.7 			"/>
		</g>
		<g>
			<polygon class="st4" points="105.3,343.3 358.5,490.1 613.9,343.3 360.6,196.5 			"/>
		</g>
		<g>
			<polygon class="st5" points="358.5,490.1 358.5,495.5 613.9,348.7 613.9,343.3 			"/>
		</g>
		<g>
			<polygon class="st5" points="358.5,490.1 358.5,495.5 105.3,348.7 105.3,343.3 			"/>
		</g>
	</g>
</g>
<g>
	<path class="st6" d="M539.6,483.7c-2,1.7-3.7,6-3.7,6c-5.3,4.2-7.3,7.2-11.4,9.1c-6.8,3.2-13.8-16.1-21-22.4
		c-5.2-4.6-9.1,9.1-7.5,11c3.6,4.4,15,27,27.5,24c6.1-1.5,16.6-15.6,18.3-16.2c1.6-0.7,3.8-3.1,5.9-5.2c2.2-1.5,6.5-4.7,6.2-6
		c-0.2-0.9-0.8-0.6-1-0.5c0.3-0.2,1.8-1.1,1.6-2c-0.4-1.3-1.6-0.6-2-0.6c0.3-0.2,1.8-1.2,1.5-2.1c-0.5-1.2-3.4,0.7-3.4,0.7
		s1.4-0.9,0.9-1.9C550.9,476.2,543.2,480.8,539.6,483.7z"/>
	<path class="st1" d="M495.5,634.3c2.7,1.9,12.6,10.7,8.7,12.2c-3.2,1.2-9.7-3.5-13.1-6.3c-2.8-2.3-3.8-4.5-1.9-7.6
		C490.5,630.5,493.5,632.8,495.5,634.3z"/>
	<path class="st6" d="M503.7,531.9c1.9,9.8,5.6,46.9,4.9,51.2c-2.5,14.4-10.1,41.1-11,52.6c-0.3,3.5-9-0.5-8.2-3.3
		c0.9-3.4-0.5-31.7,2.6-46.6c2.1-10.5-10.1-58.6-5.6-64.6C488.5,518.2,502.6,526.4,503.7,531.9z"/>
	<path class="st1" d="M473.2,639.3c2.7,1.9,12.6,10.7,8.7,12.2c-3.2,1.2-9.7-3.5-13.1-6.3c-2.8-2.3-3.8-4.5-1.9-7.6
		C468.2,635.5,471.2,637.9,473.2,639.3z"/>
	<path class="st6" d="M481.4,536.9c1.9,9.8,5.6,46.9,4.9,51.2c-2.5,14.4-10.1,41.1-11,52.6c-0.3,3.5-9-0.5-8.2-3.3
		c0.9-3.4-0.5-31.7,2.6-46.6c2.1-10.5-4.9-58.4-0.5-64.3C471.4,523.5,480.3,531.4,481.4,536.9z"/>
	<path class="st5" d="M467.7,522.6c-3.2,6.2-3,44.8,1,64.6c0.9,4.3,15.2,1.5,23.2-1.8c1.9-0.8,0.9-22.6,2.7-23.6
		c1.8-0.9,6.4,19,7.9,18c4-2.7,6.7-5.6,6.3-8.1c-0.7-4.1-5.6-51.7-5.6-51.7L467.7,522.6z"/>
	<g>
		<path class="st7" d="M476.2,480.8c2.1-2.8,7.9-6.7,11.3-8.9c3.1-2,5.2-3.9,9.1-3.7c1.2,0.1,1.4-0.1,3.1,0.6
			c2.3,0.9,5.2,2.9,7.9,14.6c2.2,9.4-0.8,15.5-1.7,16.9c-2.1,3.2-3,14.5-2.2,24.5c0.6,7.4-36.4,23.6-37.4,11.8
			C464.6,514.2,469.7,489.4,476.2,480.8z"/>
	</g>
	<path class="st6" d="M463.7,552.5c0.5-2.6,0.1-8.6,0.1-8.6c1.5-6.8,0.1-10,3.8-21.3c3.4-10.5,11.6-18,14.7-29.1
		c1.5-5.4-6.6-11.7-8.2-9.6c-10.4,14.1-15.5,27.5-16.9,32.6c-0.8,2.9-0.7,25.5-1.6,27.2c-0.9,1.6-1,2.1-1.2,5.2
		c-0.7,2.7-2.1,8-1.1,8.8c0.7,0.6,1,0,1.1-0.2c-0.1,0.3-0.8,2.1,0,2.6c1.2,0.8,1.6-0.6,1.9-0.9c-0.1,0.4-0.7,2.2,0.2,2.6
		c1.2,0.6,2.2-2.9,2.2-2.9s-0.5,1.6,0.4,2.1C460.7,561.7,462.8,557.2,463.7,552.5z"/>
	<g>
		<path class="st1" d="M506.3,454.6c0.8,5.2,0.6,10.8-1.2,13.3c-1.9,2.5-1.3,4,1,7.1s1.1,5.1-0.3,6.3c-1.3,1.1-5.5-2.5-4.6-5.8
			c0.9-3.2-3-3.1-2.9-6c0.1-2.8,0.6-2.2,2.1-6.1c1.5-4,1.9-8,1.9-8L506.3,454.6z"/>
		<g>
			<path class="st6" d="M500.3,466c-2.5,2.1-2,3.6,1.2,7.4c1.6,1.9-15.9,7.1-14.2,2.3c2.4-6.9-8.4,3.1-7.2,2.2
				c2.2-1.7,8.5-6.8,8.8-8.4c0.4-1.6,2.5-13.6,2.5-13.6S503.9,463.1,500.3,466z"/>
		</g>
		<path class="st6" d="M491.4,456c0,5.2,4.9,11.4,9.3,11.4s6.3-6.4,6.6-11.4c0.4-5.2-3.6-9.4-7.9-9.4
			C495,446.6,491.4,450.8,491.4,456z"/>
		<path class="st1" d="M488.9,452.4c-2.6,5.6,1.3,10.3-8.9,20.5c-3.3,3.3-0.7,15.6,5.4,17c6.1,1.4,11.4-1.8,11.1-7.2
			c-0.1-1.7-13.6-1.2-3.3-15.3c2.1-2.9,2-8.2,3.1-10.2c1.1-2,2.3,3,7.7,3c5.4-0.1,4.8-3.3,4.3-6c-0.5-2.6-2.7-6.5-7.7-8
			C497.8,445.4,491.4,447,488.9,452.4z"/>
	</g>
</g>
<defs>
	<filter id="Adobe_OpacityMaskFilter" filterUnits="userSpaceOnUse" x="227.4" y="237.2" width="320.8" height="185.5">
		<feFlood  style="flood-color:white;flood-opacity:1" result="back"/>
		<feBlend  in="SourceGraphic" in2="back" mode="normal"/>
	</filter>
</defs>
<mask maskUnits="userSpaceOnUse" x="227.4" y="237.2" width="320.8" height="185.5" id="SVGID_1_">
	<g class="st8">
		<defs>
			<filter id="Adobe_OpacityMaskFilter_1_" filterUnits="userSpaceOnUse" x="227.4" y="237.2" width="320.8" height="185.5">
				<feFlood  style="flood-color:white;flood-opacity:1" result="back"/>
				<feBlend  in="SourceGraphic" in2="back" mode="normal"/>
			</filter>
		</defs>
		<mask maskUnits="userSpaceOnUse" x="227.4" y="237.2" width="320.8" height="185.5" id="SVGID_1_">
		</mask>
		<linearGradient id="SVGID_2_" gradientUnits="userSpaceOnUse" x1="352.2095" y1="359.1396" x2="630.1836" y2="179.359">
			<stop  offset="0" style="stop-color:#FFFFFF"/>
			<stop  offset="0.7966" style="stop-color:#343434"/>
			<stop  offset="1" style="stop-color:#000000"/>
		</linearGradient>
		<polygon class="st10" points="237.7,375.4 305.6,336.2 378.9,373.3 309.4,416.8 319.7,422.7 369.1,394.2 380.2,400.3 548.2,303.9 
			430.1,237.2 227.4,369.4 		"/>
	</g>
</mask>
<linearGradient id="SVGID_3_" gradientUnits="userSpaceOnUse" x1="352.2095" y1="359.1396" x2="630.1836" y2="179.359">
	<stop  offset="0" style="stop-color:#D2E4FA"/>
	<stop  offset="1" style="stop-color:#E7F0FF"/>
</linearGradient>
<polygon class="st11" points="237.7,375.4 305.6,336.2 378.9,373.3 309.4,416.8 319.7,422.7 369.1,394.2 380.2,400.3 548.2,303.9 
	430.1,237.2 227.4,369.4 "/>
<defs>
	<filter id="Adobe_OpacityMaskFilter_2_" filterUnits="userSpaceOnUse" x="565.8" y="443" width="677.4" height="456.2">
		<feFlood  style="flood-color:white;flood-opacity:1" result="back"/>
		<feBlend  in="SourceGraphic" in2="back" mode="normal"/>
	</filter>
</defs>
<mask maskUnits="userSpaceOnUse" x="565.8" y="443" width="677.4" height="456.2" id="SVGID_4_">
	<g class="st12">
		<defs>
			<filter id="Adobe_OpacityMaskFilter_3_" filterUnits="userSpaceOnUse" x="565.8" y="443" width="677.4" height="456.2">
				<feFlood  style="flood-color:white;flood-opacity:1" result="back"/>
				<feBlend  in="SourceGraphic" in2="back" mode="normal"/>
			</filter>
		</defs>
		<mask maskUnits="userSpaceOnUse" x="565.8" y="443" width="677.4" height="456.2" id="SVGID_4_">
		</mask>
		<linearGradient id="SVGID_5_" gradientUnits="userSpaceOnUse" x1="1399.0715" y1="672.2052" x2="54.9843" y2="668.6864">
			<stop  offset="0" style="stop-color:#FFFFFF"/>
			<stop  offset="0.7966" style="stop-color:#343434"/>
			<stop  offset="1" style="stop-color:#000000"/>
		</linearGradient>
		<path class="st14" d="M1083.2,455.2c-160.7-40.2-144.9,25.2-374.2,107.1l79.4,6.8c-135.1,5.1-222.6,33.2-222.6,112v0.2v22v26.1
			c0,88.3,132.5,159.9,295.9,159.9c28.1,0,40.1,13.1,65.9,9.1c0,0,35.5-8.8,31-32.1c-0.3-1.7-16.9-35.1-16.9-35.1
			c-1.2-2.6-2.6-5-4.3-7.3l0,0l0,0c-8.2-11.1-21.6-17.9-36.4-16.6c-12.8,1.1-25.9,1.7-39.2,1.7c-0.1,0-0.2,0-0.4,0l139.1-93.6
			c-115.5-9.3-269.6-50.5-236.8-114.1c42.8-20.2,36.9-7.8,98.1-7.8c80.1,0,151.2,20.9,195.6,53.2l42.2,50c0.8,1.9,1.4,3.7,2,5.6
			c-4.3,13.3-12.2,25.9-23.3,37.5c-16.9,17.7-26.3,41.3-26.3,65.8l5.9,42.4l35.1-18.9c40.5-27.4,64.7-62,64.7-99.8V684v-1.4
			c18.2-13.3,38.9-27.6,55.5-36.4C1275.8,613,1244,495.4,1083.2,455.2z"/>
	</g>
</mask>
<path class="st15" d="M1083.2,455.2c-160.7-40.2-144.9,25.2-374.2,107.1l79.4,6.8c-135.1,5.1-222.6,33.2-222.6,112v0.2v22v26.1
	c0,88.3,132.5,159.9,295.9,159.9c28.1,0,40.1,13.1,65.9,9.1c0,0,35.5-8.8,31-32.1c-0.3-1.7-16.9-35.1-16.9-35.1
	c-1.2-2.6-2.6-5-4.3-7.3l0,0l0,0c-8.2-11.1-21.6-17.9-36.4-16.6c-12.8,1.1-25.9,1.7-39.2,1.7c-0.1,0-0.2,0-0.4,0l139.1-93.6
	c-115.5-9.3-269.6-50.5-236.8-114.1c42.8-20.2,36.9-7.8,98.1-7.8c80.1,0,151.2,20.9,195.6,53.2l42.2,50c0.8,1.9,1.4,3.7,2,5.6
	c-4.3,13.3-12.2,25.9-23.3,37.5c-16.9,17.7-26.3,41.3-26.3,65.8l5.9,42.4l35.1-18.9c40.5-27.4,64.7-62,64.7-99.8V684v-1.4
	c18.2-13.3,38.9-27.6,55.5-36.4C1275.8,613,1244,495.4,1083.2,455.2z"/>
<g>
	<defs>
		<filter id="Adobe_OpacityMaskFilter_4_" filterUnits="userSpaceOnUse" x="237.7" y="280.8" width="3.1" height="94.6">
			<feFlood  style="flood-color:white;flood-opacity:1" result="back"/>
			<feBlend  in="SourceGraphic" in2="back" mode="normal"/>
		</filter>
	</defs>
	<mask maskUnits="userSpaceOnUse" x="237.7" y="280.8" width="3.1" height="94.6" id="SVGID_6_">
	</mask>
	<polygon class="st17" points="240.8,373.6 237.7,375.4 237.7,282.6 240.8,280.8 	"/>
	<g>
		<path class="st18" d="M274.9,336c-0.1,0-0.3,0-0.4-0.1l-47.3-16.1c-6.6-2.3-11-8.5-11-15.4v-43.2c0-0.6,0.5-1.2,1.2-1.2
			c0.6,0,1.2,0.5,1.2,1.2v43.2c0,6,3.8,11.3,9.5,13.2l46.8,16l20.7-11.9L274.1,294c-2.4-3.1-3.7-7-3.7-10.9l0-16.6
			c0-0.6,0.5-1.2,1.2-1.2c0,0,0,0,0,0c0.6,0,1.2,0.5,1.2,1.2l0,16.6c0,3.4,1.2,6.8,3.2,9.4l22.2,28.7c0.2,0.3,0.3,0.6,0.2,0.9
			c-0.1,0.3-0.3,0.6-0.6,0.8l-22.3,12.9C275.3,335.9,275.1,336,274.9,336z"/>
		<polygon class="st19" points="262.6,286.3 311,258.4 262.6,230.4 214.2,258.4 		"/>
		<polygon class="st20" points="262.6,291.5 311,263.5 311,258.4 262.6,286.3 		"/>
		<polygon class="st18" points="262.6,291.5 214.2,263.5 214.2,258.4 262.6,286.3 		"/>
		<path class="st18" d="M217.4,259.2c-0.6,0-1.2-0.5-1.2-1.2l0-17.1c0-1.9-0.2-3.8-0.7-5.6l-5.8-21.6c-0.2-0.6,0.2-1.3,0.8-1.4
			c0.6-0.2,1.3,0.2,1.4,0.8l5.8,21.6c0.5,2,0.8,4.1,0.8,6.2l0,17.1C218.6,258.6,218,259.2,217.4,259.2z"/>
		<path class="st21" d="M261.2,234.7c-0.6,0-1.2-0.5-1.2-1.2l0-17.1c0-1.9-0.2-3.8-0.7-5.6l-5.8-21.6c-0.2-0.6,0.2-1.3,0.8-1.4
			c0.6-0.2,1.3,0.2,1.4,0.8l5.8,21.6c0.5,2,0.8,4.1,0.8,6.2l0,17.1C262.4,234.2,261.9,234.7,261.2,234.7z"/>
		<g>
			<polygon class="st19" points="253.5,168.5 250.3,166.6 200.6,195.4 203.8,197.2 			"/>
			<polygon class="st18" points="211.5,228.1 208.3,226.3 200.6,195.4 203.8,197.2 			"/>
			<polygon class="st2" points="261.2,199.4 211.5,228.1 203.8,197.2 253.5,168.5 			"/>
		</g>
	</g>
	<g>
		<path class="st1" d="M273,228.6c14.1-4.1,50.3-1.8,58.8,0c3,0.6,9.5,6.8,5.9,14.6c-7.2,15.8-46.2,40.1-61.1,47.5
			c-3,1.5-12.4-7.9-9.8-10.1c8.1-6.9,12.4-14.4,22.6-21.4c10.8-7.5,15.4-9.6,15.4-9.6s-26.6,7.8-38.8,5.1c-3.8-0.8-14-13.6-14-13.6
			S267.1,230.3,273,228.6z"/>
		<path class="st22" d="M282.9,336.4c7.5,7,21.4,15.3,25.3,11.2c3-3.2-13.7-16.7-13.7-16.7s-2,2.8-4.4,1.6c-2.5-1.3-6.3-4.8-6.3-4.8
			S279.4,333,282.9,336.4z"/>
		<path class="st23" d="M268.6,279c-2.4,2.7-3.9,3.3-7.3,5.6c-1.8,1.2,17.4,16.2,17.4,16.2s-3-7-4-8.5c-1-1.5,2.6-5.5,2.6-5.6
			C277.2,286.6,270.5,276.9,268.6,279z"/>
		<path class="st1" d="M239.5,245.7c9.4,27.8,49.4,29.1,49.4,39c0,11-2.9,16-7,41.8c-0.6,3.6,11.4,8,12.6,5.8
			c0.8-1.6,21.2-48.8,13.8-60.6c-2.8-4.5-30-29.3-47.4-36.2C254.5,233,237.3,239.2,239.5,245.7z"/>
		<path class="st23" d="M253.5,263.9c12.2,4.8,26.6,8.1,37,8.2s16.6-2.6,16.6-2.6s1.6,1.9,2.1,4c0,0-11.5,7-14.1,8.8
			c-5.5,3.8-6.6,9.6-6.6,9.6s0.1-9.8-2.2-11.3C284,279.2,269,273,265,271C261,269,253.5,263.9,253.5,263.9z"/>
		<path class="st22" d="M266.2,280.6c0,0-4.5,1.2-5.1,4c-0.6,10.3,15.7,18.3,18.5,19.2c6.7,2.2,4.9-2.9,4.5-4
			c-2.8-7.2-3.9-9-9.7-15.6C272.1,281.5,266.2,280.6,266.2,280.6z"/>
		<path class="st24" d="M279.6,303.8c1.2,0.4,2.1,0.5,2.8,0.5c0.3,0,0.7-0.2,0.8-0.5c0.3-0.7,0.2-1.6-0.2-2.8
			c-1-2.9-5.3-4.3-12.3-12c-6.9-7.6-8.4-6.4-9.6-4.5C260.6,294.9,276.9,302.9,279.6,303.8z"/>
		<linearGradient id="SVGID_7_" gradientUnits="userSpaceOnUse" x1="260.411" y1="294.2001" x2="282.8783" y2="294.2001">
			<stop  offset="0" style="stop-color:#95B4E4"/>
			<stop  offset="1" style="stop-color:#C0D9FD"/>
		</linearGradient>
		<path class="st25" d="M279.1,304.3c1,0.3,1.9,0.5,2.5,0.5c0.6,0,1.1-0.4,1.2-0.9c0.1-0.6,0-1.4-0.4-2.4c-1.1-2.8-5.5-4.2-12.3-12
			c-6.7-7.8-8.9-6.6-9.6-4.5C258.2,293.4,276.4,303.5,279.1,304.3z"/>
		<path class="st6" d="M258.6,172c8.5,6.5,13.8,10.6,22.4,29.3c8.6,18.7,31.7,28.4,38.1,33.9c6.4,5.5,1.6,11.2-3.5,10.5
			c-5.1-0.7-4.2-8.1-7.9-10.1c-3.8-2-18-5.4-25.8-14.8c-7.8-9.4-29-33.5-29-33.5L258.6,172z"/>
		<path class="st4" d="M258.6,172c0.8,0.6,1.5,1.2,2.2,1.7c10.9,9,12.2,16.3,9.8,29.7c-2,10.8,6.2,24.6,6.2,24.6l-37.3,17.7
			c0,0-16.6-41.3-8.3-57.6C239.5,171.8,254.3,168.7,258.6,172z"/>
		<path class="st26" d="M233.3,195.7c-0.5,6.2-0.6,18.1,9.9,25.8c5.3,4,10,12.4,14.4,15.6c0,0,15.9-4.1,13-6.2
			C246.6,213.5,233.3,195.7,233.3,195.7z"/>
		<g>
			<path class="st6" d="M255.4,171.2c-3.1,1.7,0.5,5.7,0.7,8.3c0.2,2.6-1,9.9-4.8,8.1c-3.8-1.8-11.4-11.2-10-11.9
				c2.6-1.4,9.9-15,9.9-15S259.8,168.8,255.4,171.2z"/>
		</g>
		<path class="st6" d="M264.4,158.2c3.6,4.8,0.1,13.4-6.2,15.4c-6.3,1.9-6.7-5.4-7.3-8C249.6,159.1,256.6,147.8,264.4,158.2z"/>
		<path class="st1" d="M248.7,165.2c0.4-2.7,0.8-6.1,1.7-7.9c2.5-4.5,10.5-8.6,14.6-1.4c1.7,3,4,7.5,0.9,6.9c0,0-2.5-0.4-6.3,0.5
			c-3.8,1-4.1,1.7-5.7,2.8C252.3,167.2,248.7,165.2,248.7,165.2z"/>
		<path class="st6" d="M254,168L254,168c-0.9,0-1.6-0.8-1.6-1.8l0.1-2.3c0-0.9,0.8-1.6,1.8-1.6l0,0c0.9,0,1.6,0.8,1.6,1.8l-0.1,2.3
			C255.7,167.3,255,168,254,168z"/>
		<path class="st1" d="M307.2,348.3c-2.6,0.7-11.2-3.6-14.5-5.7c-3.3-2.1-10.5-7.2-11.1-9.8c-0.1,1.2,0.2,2.5,1.3,3.6
			C289.8,342.9,302.3,350.5,307.2,348.3z"/>
		<path class="st1" d="M291.1,337.5c-0.1,0-0.2,0-0.3-0.1c-0.2-0.2-0.2-0.4,0-0.6c1.5-1.7,4.6-4.1,7-3.5c0.2,0.1,0.4,0.3,0.3,0.5
			c-0.1,0.2-0.3,0.4-0.5,0.3c-2-0.5-4.9,1.7-6.2,3.2C291.4,337.4,291.3,337.5,291.1,337.5z"/>
		<path class="st1" d="M293,338.9c-0.1,0-0.2,0-0.3-0.1c-0.2-0.2-0.2-0.4,0-0.6c1.5-1.7,4.6-4.1,7-3.5c0.2,0.1,0.4,0.3,0.3,0.5
			c-0.1,0.2-0.3,0.4-0.5,0.3c-2-0.5-4.9,1.7-6.2,3.2C293.2,338.8,293.1,338.9,293,338.9z"/>
		<path class="st1" d="M294.9,340.2c-0.1,0-0.2,0-0.3-0.1c-0.2-0.2-0.2-0.4,0-0.6c1.6-1.9,4.4-3.9,6.7-3.3c0.2,0.1,0.4,0.3,0.3,0.5
			c-0.1,0.2-0.3,0.4-0.5,0.3c-1.8-0.4-4.3,1.2-5.8,3C295.1,340.2,295,340.2,294.9,340.2z"/>
		<path class="st1" d="M296.7,341.6c-0.1,0-0.2,0-0.3-0.1c-0.2-0.2-0.2-0.4,0-0.6c1.6-1.9,4.2-3.6,6.5-3.1c0.2,0.1,0.4,0.3,0.3,0.5
			c-0.1,0.2-0.3,0.4-0.5,0.3c-2-0.5-4.2,1.2-5.6,2.8C297,341.6,296.8,341.6,296.7,341.6z"/>
		<path class="st24" d="M283.2,296.9c-0.2,0-0.3-0.1-0.4-0.3c-0.5-1-0.8-1.9-1.2-2c0,0-0.2-0.1-0.7,0.1c-0.2,0.1-0.5,0-0.6-0.2
			c-0.1-0.2,0-0.5,0.2-0.6c0.5-0.3,1-0.3,1.4-0.2c0.8,0.3,1.2,1.2,1.8,2.5c0.1,0.2,0,0.5-0.2,0.6
			C283.3,296.9,283.2,296.9,283.2,296.9z"/>
		<path class="st24" d="M281.9,294.6c-0.2,0-0.3-0.1-0.4-0.3c-0.5-1-0.8-1.9-1.2-2c-0.1,0-0.2-0.1-0.7,0.1c-0.2,0.1-0.5,0-0.6-0.2
			c-0.1-0.2,0-0.5,0.2-0.6c0.5-0.3,1-0.3,1.4-0.2c0.8,0.3,1.2,1.2,1.8,2.5c0.1,0.2,0,0.5-0.2,0.6C282,294.6,282,294.6,281.9,294.6z"
			/>
		<path class="st24" d="M280.7,292.3c-0.2,0-0.3-0.1-0.4-0.3c-0.5-1-0.8-1.9-1.3-2c-0.1,0-0.2-0.1-0.7,0.1c-0.2,0.1-0.5,0-0.6-0.2
			c-0.1-0.2,0-0.5,0.2-0.6c0.5-0.3,1-0.3,1.4-0.2c0.8,0.3,1.2,1.2,1.8,2.5c0.1,0.2,0,0.5-0.2,0.6
			C280.8,292.3,280.7,292.3,280.7,292.3z"/>
		<path class="st24" d="M279.4,290.1c-0.1,0-0.3-0.1-0.4-0.2c-0.6-0.9-1.1-1.7-1.5-1.8c-0.1,0-0.3,0-0.6,0.2
			c-0.2,0.1-0.5,0.1-0.6-0.1c-0.1-0.2-0.1-0.5,0.1-0.6c0.5-0.3,0.9-0.4,1.3-0.4c0.8,0.2,1.3,1,2.1,2.2c0.1,0.2,0.1,0.5-0.1,0.6
			C279.6,290.1,279.5,290.1,279.4,290.1z"/>
	</g>
	<polygon class="st1" points="491.5,323.5 481.3,317.6 481.3,224.8 491.5,230.7 	"/>
	<polygon class="st1" points="237.7,375.4 227.4,369.4 227.4,276.6 237.7,282.6 	"/>
	<polygon class="st2" points="240.8,373.6 237.7,375.4 237.7,282.6 240.8,280.8 	"/>
	<polygon class="st26" points="494.6,321.7 491.5,323.5 491.5,230.7 494.6,228.9 	"/>
	<defs>
		<filter id="Adobe_OpacityMaskFilter_5_" filterUnits="userSpaceOnUse" x="491.5" y="228.9" width="3.1" height="94.6">
			<feFlood  style="flood-color:white;flood-opacity:1" result="back"/>
			<feBlend  in="SourceGraphic" in2="back" mode="normal"/>
		</filter>
	</defs>
	<mask maskUnits="userSpaceOnUse" x="491.5" y="228.9" width="3.1" height="94.6" id="SVGID_8_">
	</mask>
	<polygon class="st28" points="494.6,321.7 491.5,323.5 491.5,230.7 494.6,228.9 	"/>
	<g>
		<polygon class="st4" points="319.7,326 227.4,272.7 402.3,171.7 494.6,225 		"/>
		<polygon class="st29" points="347.5,297.9 301.3,271.2 388.9,220.6 435.2,247.3 		"/>
		<linearGradient id="SVGID_9_" gradientUnits="userSpaceOnUse" x1="274.123" y1="433.8773" x2="273.2751" y2="233.3979">
			<stop  offset="0" style="stop-color:#00D5D1"/>
			<stop  offset="1" style="stop-color:#00C9F1"/>
		</linearGradient>
		<polygon class="st30" points="319.7,329.9 227.4,276.6 227.4,272.7 319.7,326 		"/>
		<defs>
			<filter id="Adobe_OpacityMaskFilter_6_" filterUnits="userSpaceOnUse" x="227.4" y="272.7" width="92.3" height="57.3">
				<feFlood  style="flood-color:white;flood-opacity:1" result="back"/>
				<feBlend  in="SourceGraphic" in2="back" mode="normal"/>
			</filter>
		</defs>
		<mask maskUnits="userSpaceOnUse" x="227.4" y="272.7" width="92.3" height="57.3" id="SVGID_10_">
		</mask>
		<polygon class="st32" points="319.7,329.9 227.4,276.6 227.4,272.7 319.7,326 		"/>
		
			<linearGradient id="SVGID_11_" gradientUnits="userSpaceOnUse" x1="349.0158" y1="520.5286" x2="347.4613" y2="152.9512" gradientTransform="matrix(-1 0 0 1 755.1588 0)">
			<stop  offset="0" style="stop-color:#009CE4"/>
			<stop  offset="1" style="stop-color:#00C9F1"/>
		</linearGradient>
		<polygon class="st33" points="319.7,329.9 494.6,228.9 494.6,225 319.7,326 		"/>
		<defs>
			<filter id="Adobe_OpacityMaskFilter_7_" filterUnits="userSpaceOnUse" x="319.7" y="225" width="174.9" height="104.9">
				<feFlood  style="flood-color:white;flood-opacity:1" result="back"/>
				<feBlend  in="SourceGraphic" in2="back" mode="normal"/>
			</filter>
		</defs>
		<mask maskUnits="userSpaceOnUse" x="319.7" y="225" width="174.9" height="104.9" id="SVGID_12_">
		</mask>
		<polygon class="st35" points="319.7,329.9 494.6,228.9 494.6,225 319.7,326 		"/>
	</g>
	<polygon class="st1" points="319.7,422.7 309.4,416.8 309.4,324 319.7,329.9 	"/>
	<g>
		<path class="st36" d="M381,203.2l10.2,28.9c0.3,1-0.1,2.1-1,2.6l-34.9,20c0,0-1.1-0.2-1.6-1.6l-9.4-27.1c-0.3-1,0.1-2.1,1-2.6
			l33.5-19.3C380.1,203.2,381,203.2,381,203.2z"/>
		<path class="st37" d="M382.1,203.8l9.8,28.2c0.3,1-0.1,2.1-1,2.6l-34.7,20c-0.5,0.3-1.2,0.1-1.4-0.5l-9.8-28.2
			c-0.3-1,0.1-2.1,1-2.6l34.7-20C381.2,203,381.9,203.2,382.1,203.8z"/>
		<path class="st22" d="M380.7,206.3l8.8,25.4c0.3,0.9-0.1,1.9-0.9,2.3l-31.2,18c-0.5,0.3-1.1,0-1.3-0.5l-8.8-25.4
			c-0.3-0.9,0.1-1.9,0.9-2.3l31.2-18C379.9,205.6,380.6,205.8,380.7,206.3z"/>
		<path class="st36" d="M393.8,235.9l25.3,13.9c0,0,0.5,1.5-1.8,2.8l-33.2,19.1c-0.8,0.5-1.9,0.5-2.7,0L357.7,258
			c-2-1.2-1.5-2.7-1.5-2.7l34.9-19.4C392,235.4,393,235.4,393.8,235.9z"/>
		<path class="st37" d="M393.8,234.5l24.8,14.3c0.7,0.4,0.7,1.3,0,1.7l-34.4,19.8c-0.8,0.5-1.9,0.5-2.7,0l-24.8-14.3
			c-0.7-0.4-0.7-1.3,0-1.7l34.4-19.8C392,234,393,234,393.8,234.5z"/>
		<path class="st38" d="M396.8,250.2l8.8,5.1c0.2,0.1,0.2,0.4,0,0.6l-11.7,6.7c-0.3,0.2-0.6,0.2-0.9,0l-8.8-5.1
			c-0.2-0.1-0.2-0.4,0-0.6l11.7-6.7C396.2,250.1,396.5,250.1,396.8,250.2z"/>
		<g>
			<path class="st38" d="M361.4,256l8.6,5c0.8,0.5,1.9,0.5,2.7,0l29.9-17.2c0.5-0.3,0.5-1,0-1.2l-8.6-5c-0.8-0.5-1.9-0.5-2.7,0
				l-29.9,17.2C361,255,361,255.7,361.4,256z"/>
		</g>
	</g>
	<polygon class="st26" points="322.8,420.9 319.7,422.7 319.7,329.9 322.8,328.1 	"/>
	<defs>
		<filter id="Adobe_OpacityMaskFilter_8_" filterUnits="userSpaceOnUse" x="319.7" y="328.1" width="3.1" height="94.6">
			<feFlood  style="flood-color:white;flood-opacity:1" result="back"/>
			<feBlend  in="SourceGraphic" in2="back" mode="normal"/>
		</filter>
	</defs>
	<mask maskUnits="userSpaceOnUse" x="319.7" y="328.1" width="3.1" height="94.6" id="SVGID_13_">
	</mask>
	<polygon class="st40" points="322.8,420.9 319.7,422.7 319.7,329.9 322.8,328.1 	"/>
	<g>
		<path class="st41" d="M402.2,368.9c0,0,0.1,6-2.3,7c-5,2.1-10.9-4.1-14.9-11c-4.7-8.1,2.5-8.7,7.8-3.9
			C401,368.4,402.2,368.9,402.2,368.9z"/>
		<path class="st7" d="M402.2,367.3c0,0,0.6,6-1.8,7c-5,2.1-11.4-4.1-15.4-11c-4.7-8.1,2.5-8.7,7.8-3.9
			C401,366.8,402.2,367.3,402.2,367.3z"/>
		<path class="st7" d="M403.8,328.5c-1.4,9.8,0.1,28.3-1.3,39.4c-0.5,4.4-9.6,1.2-11-3.7c-3.2-11.5-9.6-44.2-1.9-52.8
			c8.2-9,36.4,3.6,36.4,3.6s-1.5,6.1-1.3,11.3C425.2,342.4,405.7,315.1,403.8,328.5z"/>
		<path class="st18" d="M423.9,416.9c-1,0-2-0.5-2.6-1.4l-26.5-33.1c-0.4-0.5-0.3-1.2,0.2-1.6c0.5-0.4,1.2-0.3,1.6,0.2l26.6,33.1
			c0,0,0.1,0.1,0.1,0.1c0.2,0.4,0.6,0.4,0.8,0.3c0.2,0,0.5-0.2,0.5-0.7l0-48c0-0.6,0.5-1.2,1.2-1.2c0.6,0,1.2,0.5,1.2,1.2l0,48
			c0,1.4-0.9,2.6-2.2,2.9C424.4,416.9,424.1,416.9,423.9,416.9z"/>
		<path class="st18" d="M462.9,392.8c-1,0-2-0.2-3-0.5l-49.3-16.4l-14.4,6.8c-0.6,0.3-1.3,0-1.6-0.6c-0.3-0.6,0-1.3,0.6-1.6l14.8-7
			c0.3-0.1,0.6-0.1,0.9-0.1l49.8,16.6c2.1,0.7,4.4,0.4,6.2-1c1.8-1.3,2.9-3.4,2.9-5.6l0-37.4c0-0.6,0.5-1.2,1.2-1.2
			c0.6,0,1.2,0.5,1.2,1.2l0,37.4c0,3-1.4,5.7-3.8,7.5C466.7,392.2,464.8,392.8,462.9,392.8z"/>
		<polygon class="st22" points="425.8,370.2 377.4,342.3 425.8,314.3 474.2,342.3 		"/>
		<polygon class="st18" points="425.8,375.4 377.4,347.4 377.4,342.3 425.8,370.2 		"/>
		<polygon class="st2" points="425.8,375.4 474.2,347.4 474.2,342.3 425.8,370.2 		"/>
		<path class="st18" d="M470.9,343.1L470.9,343.1c-0.6,0-1.2-0.5-1.2-1.2l0-17.1c0-2.1,0.3-4.2,0.8-6.2l5.8-21.6
			c0.2-0.6,0.8-1,1.4-0.8c0.6,0.2,1,0.8,0.8,1.4l-5.8,21.6c-0.5,1.8-0.7,3.7-0.7,5.6l0,17.1C472.1,342.6,471.6,343.1,470.9,343.1z"
			/>
		<g>
			<path class="st22" d="M408.3,259.9c8.2,4.2,10.4,5,18.8,10.6c9.2,6.1,4.1,25.1,14.2,30.7c4.9,2.7,12.6-2.6,13-5.1
				c2-11.4-14.7-30.7-19.3-33.3c-2.7-1.5-23-9.9-24.7-10.7C405,249.6,404.2,257.8,408.3,259.9z"/>
			<path class="st6" d="M395.5,248.9c-0.2-0.3-1.8-0.7-0.8-1.7c0.7-0.6,2.2,0.4,2.5,0.6c-0.2-0.1-0.7-0.6,0-1.1
				c1-0.8,6.5-0.2,8.9,1.1c2.9,0.9,2.8,3.1,4.1,4.2c-3.5,1.6-6.1,4.9-2,7.9c0,0-4.9-3.1-7.3-4.1c-4.3-1.9-9.2-3-8.3-4.2
				c0.7-0.8,2.6-0.5,2.6-0.5s-3.6-1.3-2.7-2.3C393.2,248.1,395.2,248.7,395.5,248.9z"/>
			<path class="st41" d="M385.6,394.3c0,0,0.6,4.8-0.7,6c-4,3.8-10.4-0.9-18.4-6.5c-7.3-5.2-3.7-7.7,4.9-5.2
				C382,391.7,385.6,394.3,385.6,394.3z"/>
			<path class="st1" d="M385.6,392.9c0,0,0.6,4.8-0.7,6c-4,3.8-10.4-0.9-18.4-6.5c-7.3-5.2-3.7-7.7,4.9-5.2
				C382,390.3,385.6,392.9,385.6,392.9z"/>
			<path class="st1" d="M446.4,337.4c-4.5,24.1-54.5-0.5-59,11c-4.3,11.3,0.7,34.6-1.7,45.4c-0.9,4.1-11.2-0.7-11.8-4.2
				c-1.2-6.6-6.4-51.3-2.1-58.6c9.1-15.2,41.5-2.3,50.5-15.9C425.9,309.6,447.6,331,446.4,337.4z"/>
			<path class="st1" d="M449.6,332.8c-1.5,15.5-12.9,18-27.8,16.5c-14.8-1.5-27.8-4.4-32-3.4c-4.2,1-22.3-8-18-15s11.1-8,21.5-8.4
				c10.4-0.4,22.6-2.4,29-7.5C428.7,309.9,449.6,332.8,449.6,332.8z"/>
			<path class="st22" d="M439.7,264.1c5.7,2.5,7.4,3.8,10.7,21.1c1.7,9.1,7.8,18,2.1,47.5c-1.5,7.9-44.1,10.7-41.9-2.6
				c1.8-10.8,4.1-12.1,3.1-23.8c-1-11.8-5.6-17.6-2.5-27c1.2-3.6,6.3-9.5,10.3-10.9C426.2,266.7,436.3,262.6,439.7,264.1z"/>
			<g>
				<path class="st6" d="M421.5,262.7c0,0,3,4.1,0,5.6c8.7,0.7,13.7-4.3,13.7-4.3c-2.3,0.1-3.9-4.8-8.3-12.2
					C424.8,248.2,421.5,262.7,421.5,262.7z"/>
			</g>
			<path class="st6" d="M427.1,253c0.6,4.4-2.9,10.3-6.6,10.8c-3.7,0.5-6.1-4.8-6.9-9c-0.9-4.4,2-8.4,5.7-8.9
				C423,245.3,426.5,248.5,427.1,253z"/>
			<path class="st1" d="M429.2,255.9c-2.8,0-5,3.2-5.9,3.3c-0.9,0-3.6-1-6.2-2.8c-2.6-1.8-2.1-2.5-5.3-3.6c-3.2-1.2-3.1-2.5-3.1-2.5
				s2.3-1.6,3.6-2.7c3.1-2.7,5-3.1,8.5-3.5C427.2,243.2,429.2,250.7,429.2,255.9z"/>
			<path class="st6" d="M417.3,259.2L417.3,259.2c-0.7-0.2-1.2-0.9-1-1.6l0.4-1.8c0.2-0.7,0.9-1.2,1.6-1l0,0c0.7,0.2,1.2,0.9,1,1.6
				l-0.4,1.8C418.8,259,418,259.4,417.3,259.2z"/>
			<path class="st22" d="M362.6,272.2c9.5,2.5,9.2,3.8,21.1,4.9c11,1,28.4-2.1,32.6-5c4.6-3.2,6.5,16.3,4,16.8
				c-17.1,4-29.8,0.7-35,0c-3-0.4-23.8-8.8-25.6-9.2C353.8,278.6,358.2,271.1,362.6,272.2z"/>
			<path class="st6" d="M345.7,273.1c-0.4,0.2-1.8,0-1.6,1.4c0.2,0.9,2,1,2.4,1c-0.2,0-0.9,0-0.6,0.9c0.3,1.2,5.8,2.1,8.5,2.5
				c2.8,1,3.4,1.1,5.2,0.9c-1.9-3.3-2.1-7.6,3-7.6c0,0-5.3-2.7-7.9-3.3c-4.6-1-9.6-0.8-9.5,0.7c0.1,1.1,1.7,1.2,1.7,1.2
				s-3.6-0.4-3.5,0.9C343.4,272.9,345.3,273.1,345.7,273.1z"/>
		</g>
		<path class="st18" d="M425.8,368.5L425.8,368.5c-0.6,0-1.2-0.5-1.2-1.2l0-17.1c0-2.1,0.3-4.2,0.8-6.2l5.8-21.6
			c0.2-0.6,0.8-1,1.4-0.8c0.6,0.2,1,0.8,0.8,1.4l-5.8,21.6c-0.5,1.8-0.7,3.7-0.7,5.6l0,17.1C426.9,368,426.4,368.5,425.8,368.5z"/>
		<g>
			<polygon class="st22" points="438.8,303.8 434.2,301.2 482.6,273.2 487.2,275.8 			"/>
			<polygon class="st18" points="430.4,335.9 425.8,333.4 434.2,301.2 438.8,303.8 			"/>
			<polygon class="st2" points="430.4,335.9 478.8,308 487.2,275.8 438.8,303.8 			"/>
		</g>
		<path class="st6" d="M400.6,255.3c-3.7,0.7-5.6,2.5-2.7,2.8c3,0.3,5.3-1.4,8.3-0.5L400.6,255.3z"/>
	</g>
	<path class="st6" d="M237.8,192.5c9.5,3.8,7.1,30.3,15,37.2c7.8,6.9,25.3,16.4,30.5,17.3c5.2,0.9,12.9-3.9,13.6,4.2
		c0.7,8.2-12.5,7.6-18.4,4.7c-5.9-3-28.9-9.6-36.7-19.7c-7.9-10.1-12.4-27.4-11-35.1C232.2,193.3,234.4,191.1,237.8,192.5z"/>
	<path class="st6" d="M291.3,246.4c0.4-0.1,11.9-4.2,12.1-2c0.1,1.3-1.9,1.8-1.9,1.8s4.3-1,4.4,0.6c0.1,1.2-2.2,1.7-2.7,1.8
		c0.5,0.1,2.2-0.3,2.1,1.4c-0.1,1.2-2.8,1.6-2.8,1.6s1.2-0.3,1,1c-0.3,2.1-11.7,4.8-11.7,4.8l-1.9-9.1
		C290,248.3,290.1,246.6,291.3,246.4z"/>
	<path class="st6" d="M284.9,247.1c2.6-1.1,6.6-5.4,8.3-6.1c1.7-0.8,2-0.3,2-0.3l-4.9,6.3L284.9,247.1z"/>
	<g>
		<path class="st36" d="M537.9,841.6l10.2,28.9c0.3,1-0.1,2.1-1,2.6l-34.9,20c0,0-1.1-0.2-1.6-1.6l-9.4-27.1c-0.3-1,0.1-2.1,1-2.6
			l33.5-19.3C537,841.6,537.9,841.6,537.9,841.6z"/>
		<path class="st37" d="M539,842.2l9.8,28.2c0.3,1-0.1,2.1-1,2.6l-34.7,20c-0.5,0.3-1.2,0.1-1.4-0.5l-9.8-28.2c-0.3-1,0.1-2.1,1-2.6
			l34.7-20C538.1,841.4,538.8,841.6,539,842.2z"/>
		<path class="st22" d="M537.7,844.7l8.8,25.4c0.3,0.9-0.1,1.9-0.9,2.3l-31.2,18c-0.5,0.3-1.1,0-1.3-0.5l-8.8-25.4
			c-0.3-0.9,0.1-1.9,0.9-2.3l31.2-18C536.9,844,537.5,844.2,537.7,844.7z"/>
		<path class="st36" d="M550.8,874.3l25.3,13.9c0,0,0.5,1.5-1.8,2.8l-33.2,19.1c-0.8,0.5-1.9,0.5-2.7,0l-23.8-13.7
			c-2-1.2-1.5-2.7-1.5-2.7l34.9-19.4C548.9,873.8,549.9,873.8,550.8,874.3z"/>
		<path class="st37" d="M550.8,872.9l24.8,14.3c0.7,0.4,0.7,1.3,0,1.7l-34.4,19.8c-0.8,0.5-1.9,0.5-2.7,0l-24.8-14.3
			c-0.7-0.4-0.7-1.3,0-1.7l34.4-19.8C548.9,872.4,549.9,872.4,550.8,872.9z"/>
		<path class="st38" d="M553.7,888.6l8.8,5.1c0.2,0.1,0.2,0.4,0,0.6l-11.7,6.7c-0.3,0.2-0.6,0.2-0.9,0l-8.8-5.1
			c-0.2-0.1-0.2-0.4,0-0.6l11.7-6.7C553.1,888.5,553.4,888.5,553.7,888.6z"/>
		<g>
			<path class="st38" d="M518.3,894.4l8.6,5c0.8,0.5,1.9,0.5,2.7,0l29.9-17.2c0.5-0.3,0.5-1,0-1.2l-8.6-5c-0.8-0.5-1.9-0.5-2.7,0
				l-29.9,17.2C517.9,893.4,517.9,894.1,518.3,894.4z"/>
		</g>
	</g>
</g>
<g>
	<g>
		<polygon class="st29" points="1208.2,386.2 1298.6,334.5 1299,247 1208.6,298.6 		"/>
	</g>
	<g>
		<polygon class="st22" points="1289.9,272.1 1289.9,276.4 1226.1,313.1 1226.1,308.8 		"/>
		<polygon class="st22" points="1222.2,311 1222.2,315.3 1217.3,318.1 1217.3,313.8 		"/>
		<polygon class="st22" points="1289.9,295.7 1289.9,299.9 1268.2,312.3 1268.3,308 		"/>
		<polygon class="st22" points="1265,309.9 1265,314.2 1217.3,341.5 1217.3,337.2 		"/>
		<polygon class="st22" points="1238.9,347.5 1238.9,351.8 1217.3,364.2 1217.3,359.9 		"/>
	</g>
	<polygon class="st29" points="1224.8,376.7 1208.1,406.4 1208.2,386.2 	"/>
</g>
<path class="st18" d="M1215.2,603.7c-0.2,0-0.3,0-0.5-0.1l-18.3-10.6c-0.2-0.1-0.4-0.4-0.5-0.6c-0.1-0.3,0-0.6,0.2-0.8l18.3-23.6
	c1.7-2.2,2.7-5,2.7-7.8l0-13.7c0-0.5,0.4-1,1-1h0c0.5,0,1,0.4,1,1l0,13.7c0,3.2-1.1,6.4-3.1,8.9l-17.6,22.7l17,9.8l38.4-13.1
	c4.6-1.6,7.8-6,7.8-10.9v-35.5c0-0.5,0.4-1,1-1c0.5,0,1,0.4,1,1v35.5c0,5.7-3.6,10.8-9.1,12.7l-38.8,13.3
	C1215.4,603.7,1215.3,603.7,1215.2,603.7z"/>
<polygon class="st4" points="1225.3,562.9 1185.5,540 1225.3,517 1265.1,540 "/>
<polygon class="st18" points="1225.3,567.2 1185.5,544.2 1185.5,540 1225.3,562.9 "/>
<polygon class="st18" points="1225.3,567.2 1265.1,544.2 1265.1,540 1225.3,562.9 "/>
<path class="st18" d="M1262.4,540.6c-0.5,0-1-0.4-1-1v-14.1c0-1.7,0.2-3.4,0.7-5.1l4.7-17.7c0.1-0.5,0.7-0.8,1.2-0.7
	c0.5,0.1,0.8,0.7,0.7,1.2L1264,521c-0.4,1.5-0.6,3-0.6,4.6v14.1C1263.4,540.2,1262.9,540.6,1262.4,540.6z"/>
<path class="st21" d="M1226.4,520.5L1226.4,520.5c-0.5,0-1-0.4-1-1l0-14.1c0-1.7,0.2-3.4,0.7-5.1l4.7-17.7c0.1-0.5,0.7-0.8,1.2-0.7
	c0.5,0.1,0.8,0.7,0.7,1.2l-4.7,17.7c-0.4,1.5-0.6,3-0.6,4.6l0,14.1C1227.4,520.1,1226.9,520.5,1226.4,520.5z"/>
<g>
	<polygon class="st5" points="1232.7,466.1 1235.4,464.6 1276.2,488.2 1273.6,489.7 	"/>
	<polygon class="st5" points="1267.3,515.1 1269.9,513.6 1276.2,488.2 1273.6,489.7 	"/>
	<polygon class="st4" points="1226.4,491.5 1267.3,515.1 1273.6,489.7 1232.7,466.1 	"/>
</g>
<g>
	<defs>
		<filter id="Adobe_OpacityMaskFilter_9_" filterUnits="userSpaceOnUse" x="1150.5" y="506" width="147.8" height="77">
			<feFlood  style="flood-color:white;flood-opacity:1" result="back"/>
			<feBlend  in="SourceGraphic" in2="back" mode="normal"/>
		</filter>
	</defs>
	<mask maskUnits="userSpaceOnUse" x="1150.5" y="506" width="147.8" height="77" id="SVGID_14_">
		<g class="st42">
			<defs>
				<filter id="Adobe_OpacityMaskFilter_10_" filterUnits="userSpaceOnUse" x="1150.5" y="506" width="147.8" height="77">
					<feFlood  style="flood-color:white;flood-opacity:1" result="back"/>
					<feBlend  in="SourceGraphic" in2="back" mode="normal"/>
				</filter>
			</defs>
			<mask maskUnits="userSpaceOnUse" x="1150.5" y="506" width="147.8" height="77" id="SVGID_14_">
			</mask>
			<linearGradient id="SVGID_15_" gradientUnits="userSpaceOnUse" x1="1150.4661" y1="544.4814" x2="1298.292" y2="544.4814">
				<stop  offset="0" style="stop-color:#FFFFFF"/>
				<stop  offset="0.7966" style="stop-color:#343434"/>
				<stop  offset="1" style="stop-color:#000000"/>
			</linearGradient>
			<polygon class="st44" points="1150.5,569.2 1246,506 1258.3,512.8 1298.3,535.4 1213.7,583 1205.3,577.4 1237,555.2 
				1221.8,544.5 1162.4,575.9 			"/>
		</g>
	</mask>
	<polygon class="st4" points="1150.5,569.2 1246,506 1258.3,512.8 1298.3,535.4 1213.7,583 1205.3,577.4 1237,555.2 1221.8,544.5 
		1162.4,575.9 	"/>
	<path class="st22" d="M1162.4,575.9c-10,2.3-26.2,2.3-27.4-3.2c-1-4.3,20.3-7.4,20.3-7.4s0.3,3.4,2.9,3.6c2.8,0.2,7.8-1,7.8-1
		S1167.2,574.9,1162.4,575.9z"/>
	<path class="st7" d="M1135.5,573.9c1.9,1.9,11.5,2.6,15.4,2.5c4-0.1,12.7-0.9,14.5-2.8c-0.5,1.1-1.5,2.1-3,2.4
		C1153.2,578.1,1138.6,578.3,1135.5,573.9z"/>
	<path class="st7" d="M1154.8,572.7c0.1,0.1,0.2,0.1,0.3,0.1c0.2,0,0.4-0.3,0.4-0.5c-0.4-2.2-1.9-5.9-4.3-6.6
		c-0.2-0.1-0.5,0.1-0.6,0.3c-0.1,0.2,0.1,0.5,0.3,0.6c2,0.6,3.3,4,3.7,5.9C1154.6,572.6,1154.7,572.7,1154.8,572.7z"/>
	<path class="st7" d="M1152.5,573c0.1,0.1,0.2,0.1,0.3,0.1c0.2,0,0.4-0.3,0.4-0.5c-0.4-2.2-1.9-5.9-4.3-6.6
		c-0.2-0.1-0.5,0.1-0.6,0.3c-0.1,0.2,0.1,0.5,0.3,0.6c2,0.6,3.3,4,3.7,5.9C1152.3,572.8,1152.4,572.9,1152.5,573z"/>
	<path class="st7" d="M1150.2,573.2c0.1,0.1,0.2,0.1,0.3,0.1c0.2,0,0.4-0.3,0.4-0.5c-0.4-2.4-1.8-5.5-4.1-6.3
		c-0.2-0.1-0.5,0.1-0.6,0.3c-0.1,0.2,0.1,0.5,0.3,0.6c1.8,0.6,3,3.2,3.5,5.6C1150,573,1150.1,573.1,1150.2,573.2z"/>
	<path class="st7" d="M1147.9,573.4c0.1,0.1,0.2,0.1,0.3,0.1c0.2,0,0.4-0.3,0.4-0.5c-0.4-2.4-1.8-5.3-4-6c-0.2-0.1-0.5,0.1-0.6,0.3
		c-0.1,0.2,0.1,0.5,0.3,0.6c2,0.6,3,3.1,3.4,5.3C1147.7,573.3,1147.8,573.4,1147.9,573.4z"/>
	<path class="st7" d="M1257,485.2c-22.2,19.2-66.5,25.5-71.5,34c-5.6,9.5-7.6,24.4-17.2,48.8c-1.3,3.4-13.9,1.2-13.8-1.4
		c0.1-1.8,8.5-62,20.8-68.5c4.7-2.5,49.9-35.5,68.4-32.6C1250.5,466.6,1262.3,480.6,1257,485.2z"/>
	<path class="st22" d="M1223.4,576.8c-7.5,7-21.4,15.3-25.3,11.2c-3-3.2,13.7-16.7,13.7-16.7s2,2.8,4.4,1.6c2.5-1.3,6.3-4.8,6.3-4.8
		S1227,573.4,1223.4,576.8z"/>
	<path class="st7" d="M1266.9,486.1c-9.4,27.8-49.4,29.1-49.4,39c0,11,2.9,16,7,41.8c0.6,3.6-11.4,8-12.6,5.8
		c-0.8-1.6-21.2-48.8-13.8-60.6c2.8-4.5,30-29.3,47.4-36.2C1251.9,473.4,1269.1,479.6,1266.9,486.1z"/>
	<path class="st6" d="M1247.8,412.4c-8.5,6.5-13.8,10.6-22.4,29.3c-8.6,18.7-31.7,28.4-38.1,33.9c-6.4,5.5-1.6,11.2,3.5,10.5
		c5.1-0.7,4.2-8.1,7.9-10.1c3.8-2,18-5.4,25.8-14.8c7.8-9.4,29-33.5,29-33.5L1247.8,412.4z"/>
	<path class="st2" d="M1247.8,412.4c-0.8,0.6-1.5,1.2-2.2,1.7c-10.9,9-12.2,16.3-9.8,29.7c2,10.8-6.2,24.6-6.2,24.6l37.3,17.7
		c0,0,16.6-41.3,8.3-57.6C1266.9,412.2,1252.1,409.1,1247.8,412.4z"/>
	<g>
		<path class="st6" d="M1251,411.6c3.1,1.7-0.5,5.7-0.7,8.3c-0.2,2.6,1,9.9,4.8,8.1s11.4-11.2,10-11.9c-2.6-1.4-9.9-15-9.9-15
			S1246.6,409.2,1251,411.6z"/>
	</g>
	<path class="st6" d="M1242,398.6c-3.6,4.8-0.1,13.4,6.2,15.4c6.3,1.9,6.7-5.4,7.3-8C1256.8,399.5,1249.8,388.2,1242,398.6z"/>
	<path class="st7" d="M1199.2,588.7c2.6,0.7,11.2-3.6,14.5-5.7c3.3-2.1,10.5-7.2,11.1-9.8c0.1,1.2-0.2,2.5-1.3,3.6
		C1216.5,583.3,1204,590.9,1199.2,588.7z"/>
	<path class="st7" d="M1215.2,577.9c0.1,0,0.2,0,0.3-0.1c0.2-0.2,0.2-0.4,0-0.6c-1.5-1.7-4.6-4.1-7-3.5c-0.2,0.1-0.4,0.3-0.3,0.5
		c0.1,0.2,0.3,0.4,0.5,0.3c2-0.5,4.9,1.7,6.2,3.2C1215,577.8,1215.1,577.9,1215.2,577.9z"/>
	<path class="st7" d="M1213.3,579.3c0.1,0,0.2,0,0.3-0.1c0.2-0.2,0.2-0.4,0-0.6c-1.5-1.7-4.6-4.1-7-3.5c-0.2,0.1-0.4,0.3-0.3,0.5
		c0.1,0.2,0.3,0.4,0.5,0.3c2-0.5,4.9,1.7,6.2,3.2C1213.1,579.2,1213.2,579.3,1213.3,579.3z"/>
	<path class="st7" d="M1211.5,580.6c0.1,0,0.2,0,0.3-0.1c0.2-0.2,0.2-0.4,0-0.6c-1.6-1.9-4.4-3.9-6.7-3.3c-0.2,0.1-0.4,0.3-0.3,0.5
		c0.1,0.2,0.3,0.4,0.5,0.3c1.8-0.4,4.3,1.2,5.8,3C1211.2,580.6,1211.4,580.6,1211.5,580.6z"/>
	<path class="st7" d="M1209.6,582c0.1,0,0.2,0,0.3-0.1c0.2-0.2,0.2-0.4,0-0.6c-1.6-1.9-4.2-3.6-6.5-3.1c-0.2,0.1-0.4,0.3-0.3,0.5
		c0.1,0.2,0.3,0.4,0.5,0.3c2-0.5,4.2,1.2,5.6,2.8C1209.4,582,1209.5,582,1209.6,582z"/>
	<path class="st45" d="M1185,478.3c-0.1,0.4-6.3,11-4.1,11.5c1.3,0.3,2.1-1.6,2.1-1.6s-1.8,4.1-0.2,4.4c1.2,0.3,2.1-1.8,2.3-2.3
		c0,0.5-0.7,2.1,1,2.3c1.2,0.2,2.1-2.5,2.1-2.5s-0.5,1.1,0.8,1.2c2.1,0.1,6.8-10.7,6.8-10.7l-8.6-3.5
		C1187.1,477.3,1185.4,477.1,1185,478.3z"/>
	<path class="st45" d="M1197.1,477.5c0,5.8,1.8,5.8,0.6,7.4c-1.2,1.6-3.8-3.7-3.8-3.7L1197.1,477.5z"/>
	<path class="st1" d="M1240.9,405.9c5.9-2.1,7.5-1.5,8.9-1.5c1.4,0,2.2,3.3,3.8,3.3s3.9-0.9,3.9-2.4s-3.1-8.5-3.9-10.9
		c-0.9-2.4-6-3.3-8.5-2.4c-2.4,0.9-7.1,10.1-10.8,10.6C1234.3,402.6,1238.7,406.7,1240.9,405.9z"/>
	<path class="st6" d="M1250.7,407.2c0.9,0,1.6-0.8,1.6-1.8l-0.1-2.3c0-0.9-0.8-1.6-1.8-1.6c-0.9,0-1.6,0.8-1.6,1.8l0.1,2.3
		C1249,406.5,1249.8,407.2,1250.7,407.2z"/>
	<g>
		<path class="st5" d="M1193.7,469.8l-25.3,13.9c0,0-0.5,1.5,1.8,2.8l33.2,19.1c0.8,0.5,1.9,0.5,2.7,0l23.8-13.7
			c2-1.2,1.5-2.7,1.5-2.7l-34.9-19.4C1195.5,469.3,1194.5,469.3,1193.7,469.8z"/>
		<path class="st1" d="M1193.7,468.4l-24.8,14.3c-0.7,0.4-0.7,1.3,0,1.7l34.4,19.8c0.8,0.5,1.9,0.5,2.7,0l24.8-14.3
			c0.7-0.4,0.7-1.3,0-1.7l-34.4-19.8C1195.5,467.9,1194.5,467.9,1193.7,468.4z"/>
		<path class="st38" d="M1190.7,484.1l-8.8,5.1c-0.2,0.1-0.2,0.4,0,0.6l11.7,6.7c0.3,0.2,0.6,0.2,0.9,0l8.8-5.1
			c0.2-0.1,0.2-0.4,0-0.6l-11.7-6.7C1191.3,484,1191,484,1190.7,484.1z"/>
		<g>
			<path class="st38" d="M1226.1,489.9l-8.6,5c-0.8,0.5-1.9,0.5-2.7,0l-29.9-17.2c-0.5-0.3-0.5-1,0-1.2l8.6-5c0.8-0.5,1.9-0.5,2.7,0
				l29.9,17.2C1226.5,488.9,1226.5,489.6,1226.1,489.9z"/>
		</g>
	</g>
	<path class="st6" d="M1226.7,490c-0.4,0-12.6-1.6-12.2,0.6c0.2,1.3,2.2,1.3,2.2,1.3s-4.4-0.1-4.2,1.5c0.2,1.2,2.5,1.2,3,1.2
		c-0.4,0.2-2.2,0.2-1.7,1.8c0.3,1.2,3.1,1,3.1,1s-1.2,0-0.8,1.2c0.7,2,12.5,2.2,12.5,2.2l-0.1-9.3
		C1228.5,491.6,1228,489.9,1226.7,490z"/>
	<path class="st6" d="M1233.2,489.3c-2.8-0.5-7.6-3.9-9.4-4.2c-1.8-0.4-2,0.1-2,0.1l6.1,5.2L1233.2,489.3z"/>
	<path class="st6" d="M1267.7,425.9c-8.5,5.8-0.6,31.1-6.8,39.5c-6.2,8.4-21.3,21.4-26.2,23.4c-4.9,2-13.4-1.1-12.4,7
		c1.1,8.1,13.8,4.8,19,0.7c5.1-4.1,26.2-15.5,31.8-27c5.6-11.5,6.3-29.3,3.3-36.7C1273.4,425.5,1270.8,423.9,1267.7,425.9z"/>
	<path class="st6" d="M1194.8,467.3c-0.2,0.3-6.7,9.3-4.6,10.3c1.2,0.5,2.3-1.2,2.3-1.2s-2.5,3.7-1,4.3c1.1,0.5,2.4-1.4,2.6-1.8
		c0,0.5-1,2,0.6,2.5c1.2,0.4,2.5-2,2.5-2s-0.7,1,0.6,1.3c2,0.5,8.6-9.3,8.6-9.3l-5.4-4.6C1201,466.7,1195.4,466.2,1194.8,467.3z"/>
	<path class="st36" d="M1155.7,455.1l11.4,27.9c0.6,1.5,1.7,3,2.6,3.6l33.8,19.5c0.8,0.5,1.9,0.1,1.5-0.9l-11.8-27.7
		c-0.6-1.5-1.7-3-2.6-3.6l-34.1-19.7C1156,453.9,1155.3,454.2,1155.7,455.1z"/>
	<path class="st5" d="M1155.2,455.4l11.4,27.9c0.6,1.5,1.7,3,2.6,3.6l33.8,19.5c0.8,0.5,1.9,0.1,1.5-0.9l-11.8-27.7
		c-0.6-1.5-1.7-3-2.6-3.6l-34.1-19.7C1155.5,454.2,1154.8,454.4,1155.2,455.4z"/>
</g>
<g>
	<defs>
		<filter id="Adobe_OpacityMaskFilter_11_" filterUnits="userSpaceOnUse" x="1219.9" y="753" width="321.9" height="227.9">
			<feFlood  style="flood-color:white;flood-opacity:1" result="back"/>
			<feBlend  in="SourceGraphic" in2="back" mode="normal"/>
		</filter>
	</defs>
	<mask maskUnits="userSpaceOnUse" x="1219.9" y="753" width="321.9" height="227.9" id="SVGID_16_">
		<g class="st46">
			<defs>
				<filter id="Adobe_OpacityMaskFilter_12_" filterUnits="userSpaceOnUse" x="1219.9" y="753" width="321.9" height="227.9">
					<feFlood  style="flood-color:white;flood-opacity:1" result="back"/>
					<feBlend  in="SourceGraphic" in2="back" mode="normal"/>
				</filter>
			</defs>
			<mask maskUnits="userSpaceOnUse" x="1219.9" y="753" width="321.9" height="227.9" id="SVGID_16_">
			</mask>
			<linearGradient id="SVGID_17_" gradientUnits="userSpaceOnUse" x1="1189.2041" y1="1036.8214" x2="1501.0237" y2="726.419">
				<stop  offset="0" style="stop-color:#FFFFFF"/>
				<stop  offset="0.7966" style="stop-color:#343434"/>
				<stop  offset="1" style="stop-color:#000000"/>
			</linearGradient>
			<polygon class="st48" points="1257.9,980.9 1284.9,980.9 1541.9,832.5 1404.4,753 1219.9,859.5 			"/>
		</g>
	</mask>
	<linearGradient id="SVGID_18_" gradientUnits="userSpaceOnUse" x1="1189.2041" y1="1036.8214" x2="1501.0237" y2="726.419">
		<stop  offset="0" style="stop-color:#D2E4FA"/>
		<stop  offset="1" style="stop-color:#E7F0FF"/>
	</linearGradient>
	<polyline class="st49" points="1541.9,832.5 1404.4,753 1219.9,859.5 1257.9,980.9 1284.9,980.9 	"/>
	<polygon class="st1" points="1122.9,878.9 1122.9,902.7 1257.9,980.9 1257.9,957.6 	"/>
	<polygon class="st2" points="1513.2,810.8 1513.3,834.6 1257.9,980.9 1257.9,957.6 	"/>
	<g>
		<g>
			<polygon class="st3" points="1122.9,873.5 1257.9,952.2 1513.2,805.4 1223.7,815.9 			"/>
		</g>
		<g>
			<polygon class="st4" points="1122.9,873.5 1257.9,952.2 1513.2,805.4 1378.3,726.7 			"/>
		</g>
		<g>
			<polygon class="st5" points="1257.9,952.2 1257.9,957.6 1513.2,810.8 1513.2,805.4 			"/>
		</g>
		<g>
			<polygon class="st5" points="1257.9,952.2 1257.9,957.6 1122.9,878.9 1122.9,873.5 			"/>
		</g>
	</g>
</g>
<defs>
	<filter id="Adobe_OpacityMaskFilter_13_" filterUnits="userSpaceOnUse" x="434.1" y="882" width="313" height="222.5">
		<feFlood  style="flood-color:white;flood-opacity:1" result="back"/>
		<feBlend  in="SourceGraphic" in2="back" mode="normal"/>
	</filter>
</defs>
<mask maskUnits="userSpaceOnUse" x="434.1" y="882" width="313" height="222.5" id="SVGID_19_">
	<g class="st50">
		<defs>
			<filter id="Adobe_OpacityMaskFilter_14_" filterUnits="userSpaceOnUse" x="434.1" y="882" width="313" height="222.5">
				<feFlood  style="flood-color:white;flood-opacity:1" result="back"/>
				<feBlend  in="SourceGraphic" in2="back" mode="normal"/>
			</filter>
		</defs>
		<mask maskUnits="userSpaceOnUse" x="434.1" y="882" width="313" height="222.5" id="SVGID_19_">
		</mask>
		<linearGradient id="SVGID_20_" gradientUnits="userSpaceOnUse" x1="497.3556" y1="1065.1591" x2="664.3891" y2="898.8848">
			<stop  offset="0" style="stop-color:#FFFFFF"/>
			<stop  offset="0.7966" style="stop-color:#343434"/>
			<stop  offset="1" style="stop-color:#000000"/>
		</linearGradient>
		<polygon class="st52" points="590.4,1104.5 617.4,1104.5 747.1,1029.7 491.3,882 434.1,915 		"/>
	</g>
</mask>
<linearGradient id="SVGID_21_" gradientUnits="userSpaceOnUse" x1="497.3556" y1="1065.1591" x2="664.3891" y2="898.8848">
	<stop  offset="0" style="stop-color:#D2E4FA"/>
	<stop  offset="1" style="stop-color:#E7F0FF"/>
</linearGradient>
<polyline class="st53" points="617.4,1104.5 747.1,1029.7 491.3,882 434.1,915 590.4,1104.5 "/>
<polygon class="st1" points="337.1,934.5 337.1,958.3 590.4,1104.5 590.3,1081.3 "/>
<polygon class="st2" points="718,1007.9 718,1031.7 590.4,1104.5 590.3,1081.3 "/>
<g>
	<g>
		<polygon class="st3" points="337.1,929.1 590.4,1075.9 718,1002.5 364,913.2 		"/>
	</g>
	<g>
		<polygon class="st4" points="337.1,929.1 590.4,1075.9 718,1002.5 464.7,855.7 		"/>
	</g>
	<g>
		<polygon class="st5" points="590.4,1075.9 590.3,1081.3 718,1007.9 718,1002.5 		"/>
	</g>
	<g>
		<polygon class="st5" points="590.4,1075.9 590.3,1081.3 337.1,934.5 337.1,929.1 		"/>
	</g>
</g>
<g>
	<g>
		<polygon class="st29" points="402.1,739.9 312.2,687.5 312.6,599.9 402.5,652.3 		"/>
	</g>
	<g>
		<polygon class="st22" points="322,628.2 322,632.5 385.3,669.2 385.3,664.9 		"/>
		<polygon class="st22" points="389.2,667.2 389.2,671.5 394.1,674.3 394.1,670.1 		"/>
		<polygon class="st22" points="321.9,649.1 321.9,653.4 343.4,666 343.4,661.7 		"/>
		<polygon class="st22" points="346.6,663.7 346.6,667.9 394.1,695.6 394.1,691.3 		"/>
		<polygon class="st22" points="321.9,671.2 321.9,675.5 343.4,688.1 343.4,683.8 		"/>
	</g>
	<polygon class="st29" points="385.6,730.3 402,760.2 402.1,739.9 	"/>
</g>
<g>
	<path class="st4" d="M825.1,540.8c-164.5,0-297.8,71.4-297.8,159.6v0.2v22v26c0,88.1,133.3,159.6,297.8,159.6
		c36,0,70.5-3.4,102.5-9.7l0,0c0-6.5-1.5-12.6-4.1-18l0,0l-0.1-0.1c-1-2-2.1-4-3.5-5.8l-14.4-24.3c-1.2-2.6-2.6-5-4.3-7.3l0,0l0,0
		c-8.2-11.1-21.8-17.9-36.6-16.6c-12.9,1.1-26,1.7-39.5,1.7c-120.1,0-220-46.3-240.9-107.5C605.1,659.4,705,613,825.1,613
		c120.9,0,221.3,46.9,241.3,108.6c-4.3,13.3-12.3,25.9-23.5,37.4c-17,17.6-26.4,41.2-26.4,65.7v1.4l41.3,22
		c40.7-27.3,65.1-61.9,65.1-99.6v-45.2v-2.9C1122.9,612.3,989.6,540.8,825.1,540.8z"/>
	<g>
		<path class="st7" d="M1057.8,845.8v2.3c40.7-27.3,65.1-61.9,65.1-99.6v-45.2c0,28.3-13.7,54.8-37.7,77.8
			C1067.5,798,1057.8,821.4,1057.8,845.8z"/>
		<path class="st7" d="M527.3,700.6v48c0,88.1,133.3,159.6,297.8,159.6c36,0,70.5-3.4,102.5-9.7l0,0c0-24.5-21.1-43.7-45.5-41.2
			c-18.4,1.9-37.5,2.9-57,2.9C660.6,860.1,527.3,788.7,527.3,700.6z"/>
	</g>
	<path class="st1" d="M825.1,565.4c-135.2,0-244.9,58.8-244.9,131.2v0.1c0,8.1,1.4,16,4,23.7C605.1,659.4,705,613,825.1,613
		c120.9,0,221.3,46.9,241.3,108.6c2.4-7.3,3.6-14.9,3.6-22.6v-2.4C1070,624.2,960.4,565.4,825.1,565.4z"/>
	<path class="st18" d="M825.1,353.3c-149.6,0-270.8,65-270.8,145.1v189.8c0-80.1,121.2-145.1,270.8-145.1
		c149.5,0,270.8,65,270.8,145.1V498.4C1095.9,418.3,974.7,353.3,825.1,353.3z"/>
	<path class="st2" d="M863.8,642.2c-12.6,1-25.6,1.5-38.7,1.5c-149.5,0-270.8-65-270.8-145.1v189.6c0,80.1,121.2,145.1,270.8,145.1
		c13.1,0,26.1-0.5,38.7-1.5V642.2z"/>
	<g>
		<g class="st54">
			<g class="st54">
				<defs>
					<path id="SVGID_22_" class="st54" d="M553.9,511c0-81.1,120.7-146.8,269.5-146.8c148.9,0,269.6,65.7,269.6,146.8v184.5
						c0-81.1-120.7-146.8-269.6-146.8c-148.9,0-269.5,65.7-269.5,146.8C553.9,640.2,553.9,566.4,553.9,511z"/>
				</defs>
				<clipPath id="SVGID_23_">
					<use xlink:href="#SVGID_22_"  style="overflow:visible;"/>
				</clipPath>
				<g class="st55">
					<path class="st56" d="M702.6,399.6c-0.6,0.9-1.2,1.4-2.1,1.7c-15.6,5.3-21.3,18.6-23,24.1c-4,12.7-1.6,23.6,6.4,29.2
						c0.6,0.4,0.9,1,0.8,2c20.8,10.1,49.7-18.8,42.4-42.4C725.8,410.2,720.3,397.2,702.6,399.6 M682.3,460
						c-5.2,1.4-19.7-19.2-4.9-44.8c9.6-16.5,23.3-19.4,23.5-19.4c5.8-0.3,23.4-1.1,29.1,17c8.2,26.1-23.8,58-47,46.8
						C682.6,459.8,682.5,459.9,682.3,460 M743.3,380.9c-29.2,5-56.3,12.5-80.3,22.2V480c24-9.7,51.1-17.3,80.3-22.2V380.9"/>
					<path class="st56" d="M853.6,375.2c-9.9-0.6-20-0.9-30.2-0.9c-0.8,0-1.6,0-2.4,0v16.9c0.8,0,1.6,0,2.4,0
						c10.2,0,20.3,0.3,30.2,0.9V375.2"/>
					<path class="st29" d="M839,403.5c-5.2-0.2-10.4-0.2-15.6-0.2c-3.1,0-6.3,0-9.4,0.1v5.7c3.1-0.1,6.2-0.1,9.4-0.1
						c5.2,0,10.4,0.1,15.6,0.2V403.5"/>
					<path class="st56" d="M939.1,537.2c-0.6-0.2-1.1-0.8-1.1-1.5v-9.8c0.1-1.1,1.1-1.2,1.8-0.5c0.4,0.4,0.4,0.9,0.4,1v9.8
						C940.2,537.2,939.6,537.3,939.1,537.2 M956.2,542.1c-0.6-0.3-1-0.8-1.1-1.5v-27.3c0.1-1.2,1.1-1,1.6-0.5
						c0.4,0.4,0.4,0.9,0.5,1.1v27.3C957.1,542.3,956.4,542.2,956.2,542.1 M921.4,532.9c-0.7-0.2-1.1-0.7-1.1-1.4V498
						c0.1-1.3,1.4-1.1,1.9-0.4c0.3,0.4,0.3,0.6,0.3,0.9V532C922.5,533,921.7,533,921.4,532.9 M972.4,547.7c-0.6-0.3-0.9-0.8-1-1.6
						v-36.5c0.1-1.2,1.1-1.1,1.6-0.3c0.3,0.5,0.4,0.9,0.4,1.1v36.5C973.3,548,972.5,547.7,972.4,547.7 M903.1,529.3
						c-0.7-0.2-1.1-0.7-1.2-1.4v-38.5c0.1-1.3,1.5-1.2,2-0.5c0.3,0.3,0.3,0.6,0.3,0.9v38.5C904.2,529.5,903.3,529.4,903.1,529.3
						 M864.8,524.3c-0.8-0.1-1.2-0.6-1.2-1.3v-44.5c0.1-1.3,1.5-1.3,2.1-0.7c0.3,0.3,0.3,0.6,0.4,0.9v44.5
						C865.9,524.4,864.9,524.3,864.8,524.3 M884.2,526.5c-0.5-0.1-1.1-0.4-1.2-1.4v-48.9c0.2-1.6,1.8-1.1,2.2-0.4
						c0.1,0.2,0.2,0.5,0.2,0.7v48.9C885.3,526.4,884.7,526.5,884.2,526.5 M983.6,497.6c-44.8-18-100.2-28.7-160.2-28.7
						c-1.8,0-3.6,0-5.3,0v60.6c1.8,0,3.6,0,5.3,0c60,0,115.4,10.7,160.2,28.7V497.6"/>
					<path class="st4" d="M697.8,540.8C697.8,540.8,697.8,540.8,697.8,540.8C697.8,540.8,697.8,540.8,697.8,540.8 M703.3,539.3
						c-1,0.4-1.8,0.6-2.8,0.9C701.5,539.9,702.3,539.6,703.3,539.3 M697.5,540.9C697.5,540.9,697.5,540.9,697.5,540.9
						C697.5,540.9,697.5,540.9,697.5,540.9 M697.1,540.9C697.1,540.9,697.1,540.9,697.1,540.9C697.1,540.9,697.1,540.9,697.1,540.9
						 M696.7,541c0,0,0.1,0,0.1,0C696.8,541,696.7,541,696.7,541 M696.3,541.1c0.1,0,0.2,0,0.2,0C696.5,541,696.4,541.1,696.3,541.1
						 M693.6,538.2c0.1,0,0.1,0,0.2,0C693.7,538.2,693.7,538.2,693.6,538.2 M693.4,538.2C693.4,538.2,693.4,538.2,693.4,538.2
						C693.4,538.2,693.4,538.2,693.4,538.2 M683,539.1c4.1,2,8,2.6,13.3,1.9C691.1,541.7,687.1,541.1,683,539.1 M702.7,476.1
						c0.4,0.6,0.7,1.5-0.1,3c26.2-2.6,32.9,25.2,17.3,44.7c-5.4,6.7-15.1,14-26.1,14.4c3.3-0.1,6.3-2.1,9.7-2
						c1.5,0.1,1.3,1.7,0.7,2.5c-0.1,0.1-0.3,0.3-0.5,0.4c31.8-13.1,35.6-52.9,12.5-61.9C710.6,475,705.6,475.7,702.7,476.1"/>
					<path class="st29" d="M684.7,536.2c-0.1,0.7-0.4,1.9-1.6,2.9c1.1,0.7,5.1,2.8,12.3,2.1c1.7-0.2,9.9-1.1,9.3-4.1
						c0-0.2-0.3-1.3-1.7-0.7C698.3,538.1,691.4,539.4,684.7,536.2"/>
					<path class="st22" d="M700.5,475.4c-31.7,10.7-37.4,53.7-19.8,64c1.9,1.1,4.6-1.7,4-4.1c-0.2-0.7-0.3-0.8-1.7-1.8
						c-5.1-3.6-7.6-11.3-7.3-17.2c0.5-12.9,6.1-21.5,10.8-26.5c5.7-6.1,10.8-7.8,14.1-9c2.1-0.7,2.6-2.7,2.6-3.3
						C703.1,475.8,701.7,475,700.5,475.4"/>
					<path class="st4" d="M697.8,461.3C697.8,461.3,697.8,461.3,697.8,461.3C697.8,461.3,697.8,461.3,697.8,461.3 M703.3,459.7
						c-1,0.4-1.8,0.6-2.8,0.9C701.5,460.3,702.3,460.1,703.3,459.7 M697.5,461.3C697.5,461.3,697.5,461.3,697.5,461.3
						C697.5,461.3,697.5,461.3,697.5,461.3 M697.1,461.4C697.1,461.4,697.1,461.4,697.1,461.4C697.1,461.4,697.1,461.4,697.1,461.4
						 M696.7,461.5c0,0,0.1,0,0.1,0C696.8,461.4,696.7,461.4,696.7,461.5 M696.3,461.5c0.1,0,0.2,0,0.2,0
						C696.5,461.5,696.4,461.5,696.3,461.5 M693.6,458.6c0.1,0,0.1,0,0.2,0C693.7,458.6,693.7,458.6,693.6,458.6 M693.4,458.6
						C693.4,458.6,693.4,458.6,693.4,458.6C693.4,458.6,693.4,458.6,693.4,458.6 M683,459.6c4.1,2,8,2.6,13.3,1.9
						C691.1,462.1,687.1,461.6,683,459.6 M702.7,396.5c0.4,0.7,0.7,1.5-0.1,3c26.2-2.6,32.9,25.2,17.3,44.7
						c-5.4,6.7-15.1,14-26.1,14.4c3.3-0.1,6.3-2.2,9.7-2c1.7,0.1,1.2,1.9,0.5,2.6c-0.2,0.2-0.5,0.3-0.7,0.4
						c32.5-13.6,36.3-52.9,12.8-62.1C710.6,395.4,705.6,396.1,702.7,396.5"/>
					<path class="st22" d="M684.7,456.6c-0.1,0.7-0.4,1.9-1.6,2.9c1.1,0.7,5.1,2.8,12.3,2.1c1.7-0.2,9.9-1.1,9.3-4.1
						c0-0.2-0.3-1.3-1.7-0.7C698.3,458.5,691.4,459.9,684.7,456.6"/>
					<path class="st29" d="M700.5,395.8c-31.7,10.7-37.4,53.7-19.8,64c1.9,1.1,4.6-1.7,4-4.1c-0.2-0.7-0.3-0.8-1.7-1.8
						c-5.1-3.6-7.6-11.3-7.3-17.2c0.5-12.9,6.1-21.5,10.8-26.5c5.7-6.1,10.8-7.8,14.1-9c2.1-0.7,2.6-2.7,2.6-3.3
						C703.1,396.2,701.7,395.5,700.5,395.8"/>
					<path class="st4" d="M611.8,449.3c0,0.1,0,0.1-0.1,0.2C611.8,449.5,611.8,449.4,611.8,449.3 M610,449.1
						c-10.1,28.3-2.5,50,14.8,42c4.3-2,10.9-6.5,17.6-16.9c-0.6,0.1-1.3-0.1-1.6-1.3c-16,22.6-30.2,20.3-32.9,4.1
						c-1.3-7.8-0.1-16.9,3.7-27.2c-0.6,1.4-1.4,1.6-1.7,0.8C609.9,450.5,609.7,450,610,449.1 M616.5,440.1c-1.9,2.9-3.2,5.5-4.7,9
						C613.6,444.8,615.4,441.9,616.5,440.1 M616.7,439.9c-0.1,0.1-0.1,0.2-0.2,0.2C616.6,440.1,616.7,440,616.7,439.9 M616.9,439.6
						c0,0.1-0.1,0.1-0.1,0.2C616.8,439.7,616.9,439.7,616.9,439.6 M617.1,439.3C617.1,439.4,617.1,439.4,617.1,439.3
						C617.1,439.4,617.1,439.4,617.1,439.3 M617.3,439C617.3,439,617.3,439,617.3,439C617.3,439,617.3,439,617.3,439 M622.6,429.9
						c-2.1,1.9-3.8,3.7-5.7,6.3C618.8,433.6,620.4,431.8,622.6,429.9 M622.7,429.8C622.6,429.9,622.6,429.9,622.7,429.8
						C622.6,429.9,622.6,429.9,622.7,429.8"/>
					<path class="st22" d="M623.5,429.1c-8.6,6.9-15.4,21.6-13.2,22c0.1,0,0.7,0.1,1.3-1.3c1.6-4,3.5-7.6,5.7-10.7
						c2.1-3,4-5,6.5-7.1C623.1,431.2,623.3,430,623.5,429.1"/>
					<path class="st29" d="M626.6,425.8c-5.1,3-3,6.4-2.2,6.5c0.5,0.1,0.8-0.2,1.2-0.4c5.1-3.3,9.1-3.2,11.5-2.5
						c5.3,1.5,7.8,6.2,8.9,8.8c1.9,5,3.8,15.7-4.6,31.9c-1.3,2.6-0.3,4.2,0.8,4.1c5.2-0.6,15.5-30.2,5.4-44.5
						C642.6,422.6,634.7,421.2,626.6,425.8"/>
					<path class="st4" d="M621.2,526.4C621.2,526.4,621.2,526.4,621.2,526.4C621.2,526.4,621.2,526.4,621.2,526.4 M621.3,526.2
						C621.3,526.2,621.3,526.2,621.3,526.2C621.3,526.2,621.3,526.2,621.3,526.2 M624.8,520.6c-14.1,11.4-17.3,41-4.7,42.7
						c4,0.5,11-2.4,17.2-12.4c-0.6,0.1-0.9-0.2-1.1-1c-8.3,13.3-19.4,15.2-22,3.8c-1.6-6.8,0.3-18.7,6.9-27.3
						c-1.8,2.3-3.2,4.8-4.3,7.5c-1,2.5-1.5,0.8-1.5,0.8c-0.1-1,2.4-5.5,2.4-5.6c1.3-2.4,2.7-4.1,3.6-5.2
						C622.4,522.8,624.2,522.4,624.8,520.6"/>
					<path class="st22" d="M624.8,520.7c-6.2,5-10.8,14.6-9,14.7c0.5,0,0.7-0.6,1.1-1.4c1.1-2.7,3.7-7.8,8.1-11.3
						C624.5,522.1,624.6,521.2,624.8,520.7"/>
					<path class="st29" d="M626.8,518.4c-3.4,2-2,4.3-1.5,4.4c0.3,0.1,0.6-0.1,0.8-0.3c3.4-2.2,6.1-2.2,7.7-1.7
						c3.5,1,5.1,4.1,5.8,5.9c1.2,3.3,2.5,10.5-3,21.4c-0.8,1.7-0.2,2.9,0.6,2.8c3.4-0.4,10.1-20.4,3.5-29.9
						C637.5,516.3,632.3,515.4,626.8,518.4"/>
					<path class="st29" d="M972.4,508.8c-0.8-0.2-1,0.4-1,0.8v36.5c0.1,1.3,1.2,1.9,1.7,1.5c0.1-0.1,0.3-0.3,0.3-0.7v-36.5
						C973.3,509.1,972.5,508.8,972.4,508.8"/>
					<path class="st57" d="M956.1,512.4c-0.6-0.1-1,0.2-1,0.9v27.3c0.1,1.5,1.5,1.9,1.9,1.3c0.1-0.2,0.2-0.4,0.2-0.6v-27.3
						C957.1,512.7,956.2,512.4,956.1,512.4"/>
					<path class="st57" d="M939.1,525c-0.6-0.1-1.1,0.2-1.1,0.9v9.8c0.1,1.2,1.3,1.9,1.9,1.3c0.2-0.2,0.2-0.5,0.2-0.7v-9.8
						C940.2,525.6,939.6,525.1,939.1,525"/>
					<path class="st29" d="M921.4,497c-0.7-0.1-1.1,0.2-1.1,1v33.5c0.1,1.5,1.6,1.8,2.1,1.1c0.1-0.2,0.2-0.4,0.2-0.6v-33.5
						C922.5,497.2,921.5,497,921.4,497"/>
					<path class="st29" d="M903.1,488.5c-0.7,0-1.1,0.3-1.2,1v38.5c0.1,1.5,1.7,1.7,2.1,1c0.2-0.2,0.2-0.4,0.2-0.6v-38.5
						C904.2,488.7,903.2,488.5,903.1,488.5"/>
					<path class="st29" d="M884.2,475.2c-0.3,0-1.1,0-1.2,1v48.9c0.2,1.6,1.8,1.6,2.2,1c0.1-0.2,0.2-0.4,0.2-0.6v-48.9
						C885.2,475.4,884.5,475.2,884.2,475.2"/>
					<path class="st29" d="M864.7,477.4c-1.1,0-1.2,0.7-1.2,1.1V523c0.2,1.5,1.7,1.6,2.3,0.9c0.1-0.2,0.2-0.4,0.2-0.6v-44.5
						C865.9,477.5,864.8,477.4,864.7,477.4"/>
					<path class="st29" d="M780.9,442.1c-9.3,5.1-15.1,7.1-24.9,8.6v1.6c5.6-0.8,10.6-1.9,16.8-4.5
						C778.5,445.5,778.5,445.5,780.9,442.1 M815.1,430.8c-20.3,0.7-30.7,9.1-32.9,12.3c6.2-2.1,11.4-6.4,17.7-8.4
						c2.5-0.8,7.8-2.2,15.2-2.3c8.8-0.2,13.9,1.4,15.8,1.9c5.7,1.7,10.4,5.4,15.8,7.6C846.4,441.4,837.4,430.4,815.1,430.8
						 M963,426.7c-0.4,0.2-0.7,0.3-1.1,0.6c6.7,8.2,12.8,12.9,21.7,16.7v-1.6C975,438.7,969.3,434.3,963,426.7 M927.5,386.4
						c-13.3-2-20.7,7-33.2,26.7c-11.6,18.1-22.6,35.3-46,27.7c1.4,4.5,17.2,4.9,27.8-2.3c3.4-2.4,3.4-2.4,26.6-34.9
						c11.8-16.6,19.8-17.7,28.9-14.2c3.6,1.4,7.9,4.8,11.1,8.8c6.9,8.7,11.5,18.8,18.1,27.7c0.3-0.2,0.8-0.4,1.1-0.6
						c-7.1-9.6-11.8-20.8-19.8-29.9C936.5,389.1,930.6,387,927.5,386.4"/>
					<path class="st58" d="M983.6,425.9c-3.6-1.4-6.7-2.4-11.4-2.7c-1.3-0.1-3.4-0.1-6.2,0.6c-8.8,2-13.7,10.5-22,13.4
						c-11.5,3.9-23.2-3.5-34.8,0.5c-7.8,2.7-12.3,10.1-19.5,13.7c-4.4,2.2-27.5,11.9-46.8-17.7c-6-9.3-14.3-21.9-30.4-19.4
						c-28.3,4.4-28.6,42.4-56.5,47.3v1.6c27.9-5,28.3-42.9,56.7-47.3c15.1-2.4,22.6,9.2,28.1,17.6c21.9,33.5,46.7,21.4,51.4,18.6
						c6.8-4,11.7-10.7,19.5-13.3c11.5-3.9,23.2,4.4,34.7-0.5c7.2-3.1,11.6-10.6,19.6-12.5c0.6-0.2,1.5-0.3,2.1-0.5
						c0.5-0.1,2.7-0.4,4.8-0.3c4.7,0.3,8.2,1.7,10.8,2.6V425.9"/>
					<path class="st4" d="M700.5,494.6c-15.1,5.1-18.4,25.6-8,30.1c11.7,5,26.9-12.3,21.4-24.3C711.6,495.3,706.2,493,700.5,494.6"
						/>
					<path class="st56" d="M812.3,374.4c-19.4,0.4-38.2,2-56.3,4.5v6.2c18.1-2.5,37-4.1,56.3-4.5V374.4"/>
					<path class="st56" d="M812.3,385.5c-19.4,0.4-38.2,2-56.3,4.5v6.2c18.1-2.5,37-4.1,56.3-4.5V385.5"/>
					<path class="st56" d="M785.8,398c-10.1,0.8-20.1,1.8-29.8,3.2v6.2c9.7-1.4,19.7-2.4,29.8-3.2V398"/>
					<path class="st7" d="M555,621.5c-0.7,4.5-1.1,9-1.1,13.5v6.2c0-4.6,0.4-9.1,1.1-13.5V621.5"/>
					<path class="st7" d="M555,632.7c-0.7,4.5-1.1,9-1.1,13.5v6.2c0.3-4.1,0.5-9.5,1.1-13.5V632.7"/>
					<path class="st56" d="M1019.3,420.2c-4.8-2.8-9.8-5.4-15-8v20c5.2,2.6,10.2,5.2,15,8V420.2"/>
					<path class="st56" d="M1039.4,433.2c-4.2-3.1-8.6-6-13.2-8.9v20c4.6,2.9,9,5.8,13.2,8.9V433.2"/>
					<path class="st56" d="M1056.6,447.4c-3.5-3.3-7.3-6.6-11.3-9.7v20c4,3.1,7.8,6.4,11.3,9.7V447.4"/>
					<path class="st56" d="M1070.8,462.7c-2.8-3.6-5.9-7-9.2-10.4v20c3.3,3.4,6.4,6.9,9.2,10.4V462.7"/>
					<path class="st56" d="M1081.7,479c-2.1-3.8-4.4-7.4-7-11.1v20c2.6,3.6,4.9,7.3,7,11.1V479"/>
					<path class="st56" d="M1019.3,454.9c-4.8-2.8-9.8-5.4-15-8v20c5.2,2.6,10.2,5.2,15,8V454.9"/>
					<path class="st56" d="M1039.4,467.9c-4.2-3.1-8.6-6-13.2-8.9v20c4.6,2.9,9,5.8,13.2,8.9V467.9"/>
					<path class="st4" d="M1056.6,482.1c-3.5-3.3-7.3-6.6-11.3-9.7v20c4,3.1,7.8,6.4,11.3,9.7V482.1"/>
					<path class="st56" d="M1070.8,497.4c-2.8-3.6-5.9-7-9.2-10.4v20c3.3,3.4,6.4,6.9,9.2,10.4V497.4"/>
					<path class="st56" d="M1081.7,513.7c-2.1-3.8-4.4-7.4-7-11.1v20c2.6,3.6,4.9,7.3,7,11.1V513.7"/>
					<path class="st56" d="M1019.3,489.6c-4.8-2.8-9.8-5.4-15-8v20c5.2,2.6,10.2,5.2,15,8V489.6"/>
					<path class="st4" d="M1039.4,502.6c-4.2-3.1-8.6-6-13.2-8.9v20c4.6,2.9,9,5.8,13.2,8.9V502.6"/>
					<path class="st56" d="M1056.6,516.8c-3.5-3.3-7.3-6.6-11.3-9.7v20c4,3.1,7.8,6.4,11.3,9.7V516.8"/>
					<path class="st4" d="M1070.8,532.1c-2.8-3.6-5.9-7-9.2-10.4v20c3.3,3.4,6.4,6.9,9.2,10.4V532.1"/>
					<path class="st56" d="M1081.7,548.4c-2.1-3.8-4.4-7.4-7-11.1v20c2.6,3.6,4.9,7.3,7,11.1V548.4"/>
					<path class="st4" d="M1019.3,524.3c-4.8-2.8-9.8-5.4-15-8v20c5.2,2.6,10.2,5.2,15,8V524.3"/>
					<path class="st56" d="M1039.4,537.3c-4.2-3.1-8.6-6-13.2-8.9v20c4.6,2.9,9,5.8,13.2,8.9V537.3"/>
					<path class="st56" d="M1056.6,551.6c-3.5-3.3-7.3-6.6-11.3-9.7v20c4,3.1,7.8,6.4,11.3,9.7V551.6"/>
					<path class="st56" d="M1070.8,566.9c-2.8-3.6-5.9-7-9.2-10.4v20c3.3,3.4,6.4,6.9,9.2,10.4V566.9"/>
					<path class="st56" d="M1081.7,583.1c-2.1-3.8-4.4-7.4-7-11.1v20c2.6,3.6,4.9,7.3,7,11.1V583.1"/>
					<path class="st56" d="M1019.3,559.1c-4.8-2.8-9.8-5.4-15-8v20c5.2,2.6,10.2,5.2,15,8V559.1"/>
					<path class="st56" d="M1039.4,572.1c-4.2-3.1-8.6-6-13.2-8.9v20c4.6,2.9,9,5.8,13.2,8.9V572.1"/>
				</g>
			</g>
			<g class="st54">
				<defs>
					<path id="SVGID_24_" class="st54" d="M1093,511v184.5c0,81.1-120.7,146.8-269.6,146.8c-148.9,0-269.5-65.7-269.5-146.8V511
						c0,81.1,120.7,146.8,269.5,146.8C972.3,657.8,1093,592.1,1093,511z"/>
				</defs>
				<clipPath id="SVGID_25_">
					<use xlink:href="#SVGID_24_"  style="overflow:visible;"/>
				</clipPath>
				<g class="st59">
					<path class="st2" d="M784.7,673.9c-3.2,0.9-5.7,2-8.5,3.6C778.9,675.9,781.4,674.8,784.7,673.9 M785,673.8
						c-0.1,0-0.1,0-0.2,0.1C784.9,673.8,784.9,673.8,785,673.8 M800.3,673c35.3,6.2,41.4,42.1,17.5,57.7c-7.5,4.9-14,5.3-18.4,5.6
						c0.4-0.7,0.8-1.6-0.1-3c30.2-3,37.9-33.6,19-49.3c-7.2-6-15-7.4-18.3-7.9c1.9-0.1,2.1-1.8,1.1-2.6
						C800.8,673.1,800.5,673,800.3,673"/>
					<path class="st29" d="M796.9,672.6c3.5,0.2,3.9,0.4,4.2,0.6c0.8,0.5,1,1.6,0.3,2.3c-0.6,0.5-1.2,0.4-1.6,0.4
						c-7.8-1-15,0.4-21.5,4.1c-0.2-1.5-1.2-2.2-2-2.6C782.2,673.9,789.2,672.3,796.9,672.6"/>
					<path class="st22" d="M775.3,677.3c1.8,0.3,2.5,1.4,2.8,2.1c0.1,0.3,0.6,1.8-0.8,3c-13.6,10.5-10.5,25.8-6.5,33.1
						c3.6,6.7,11.1,15,26.1,16.5c3.1,0.3,3.9,3.5,2,4.9c-6.3,4.6-42.2-10.9-37-40.9C763.9,684.5,772.9,677.1,775.3,677.3"/>
					<path class="st2" d="M784.7,753.5c-3.3,0.9-5.7,2-8.5,3.6C778.9,755.4,781.4,754.4,784.7,753.5 M785,753.4
						c-0.1,0-0.1,0-0.2,0.1C784.9,753.4,784.9,753.4,785,753.4 M800.3,752.5c35.3,6.2,41.4,42.1,17.5,57.7c-7.5,4.9-14,5.3-18.4,5.6
						c0.4-0.7,0.8-1.7-0.1-3c30.2-3,37.9-33.6,19-49.3c-7.2-6-15-7.4-18.3-7.9c1.9-0.1,2.1-1.8,1.1-2.6
						C800.8,752.6,800.5,752.6,800.3,752.5"/>
					<path class="st22" d="M796.9,752.2c3.5,0.2,3.9,0.4,4.2,0.6c0.8,0.5,1,1.6,0.3,2.3c-0.6,0.5-1.2,0.4-1.6,0.4
						c-7.8-1-15,0.4-21.5,4.1c-0.2-1.5-1.2-2.2-2-2.6C782.2,753.5,789.2,751.8,796.9,752.2"/>
					<path class="st29" d="M775.3,756.9c1.8,0.3,2.5,1.4,2.8,2c0.1,0.3,0.6,1.8-0.8,3c-13.6,10.5-10.5,25.8-6.5,33.1
						c3.6,6.7,11.1,15,26.1,16.5c3.1,0.3,3.9,3.5,2,4.9c-6.3,4.6-42.2-10.9-37-40.9C763.9,764.1,772.9,756.6,775.3,756.9"/>
					<path class="st7" d="M796.9,687.8c16.9,1.6,22,17.8,12,26.4c-11.2,9.7-30.2,0.4-28.6-14C781.1,692.8,788.3,687.4,796.9,687.8"
						/>
					<path class="st7" d="M554.1,538.3c0.7,10.6,3.5,20.8,8.2,30.7v6.2c-4.6-9.9-7.4-20.2-8.2-30.7V538.3"/>
					<path class="st7" d="M554.1,549.5c0.7,10.6,3.5,20.8,8.2,30.7v6.1c-4.6-9.9-7.4-20.2-8.2-30.7V549.5"/>
					<path class="st7" d="M554.1,560.6c0.7,10.6,3.5,20.8,8.2,30.7v6.1c-4.6-9.9-7.4-20.1-8.2-30.7V560.6"/>
					<path class="st7" d="M554.1,584.4c0.7,10.6,3.5,20.8,8.2,30.7v6.2c-4.6-9.9-7.4-20.2-8.2-30.7V584.4"/>
					<path class="st7" d="M554.1,595.6c0.7,10.6,3.5,20.8,8.2,30.7v6.2c-4.6-9.9-7.4-20.1-8.2-30.7V595.6"/>
					<path class="st7" d="M555.1,614.9c1.3,7.7,3.7,15.2,7.2,22.5v6.2c-3.4-7.3-5.8-14.8-7.2-22.5V614.9"/>
					<path class="st7" d="M553.9,635c0,12.6,2.9,24.8,8.4,36.4v6.2c-5.5-11.7-8.4-23.9-8.4-36.4V635"/>
					<path class="st7" d="M553.9,646.2c0,12.6,2.9,24.8,8.4,36.4v6.2c-5.3-13.6-8.3-21.1-8.4-36.4V646.2"/>
					<path class="st7" d="M555.1,671.2c1.3,7.7,3.7,15.2,7.2,22.5v6.2c-3.4-7.3-5.8-14.8-7.2-22.5V671.2"/>
					<path class="st22" d="M653.6,736.1c0.2,0.1,0.5,0.2,0.7,0.3v1.2c0.2,5.6,3.3,10.5,7.8,12.6c4.4,1.8,8.9,3.5,13.4,5.1
						c5.3,2.2,8.9,7.4,9.2,13.4v1.2c-0.3-0.1-0.5-0.2-0.8-0.3v-1.2c-0.2-5.4-3.5-10.2-8.3-12.2c-4.6-1.6-9.1-3.4-13.4-5.1
						c-4.9-2.3-8.3-7.7-8.5-13.8V736.1 M632,725.5c0.2,0.1,0.4,0.2,0.7,0.4c-0.3,5.7-3.2,8-7.4,5.8c-8.1-4.8-15.7-9.9-22.6-15.2
						c-3.2-2.3-5.3-0.4-5.5,4.9v2.5c-0.2-0.1-0.4-0.3-0.5-0.4l0-2.5c0.2-5.9,2.4-7.8,6-5.3c6.9,5.4,14.4,10.4,22.6,15.2
						C629,732.8,631.7,730.7,632,725.5"/>
					<path class="st22" d="M684.5,708c0.3,0.1,0.5,0.2,0.8,0.3v2c-0.2,5.3-3.5,7.8-8.2,6.4c-5.3-1.9-10.5-3.9-15.6-5.9
						c-4-1.4-6.7,0.6-6.9,5.4v2.4c-0.2-0.1-0.5-0.2-0.7-0.3v-2.4c0.2-5.2,3.1-7.5,7.6-5.9c5.1,2.1,10.3,4.1,15.6,5.9
						c4.3,1.3,7.2-1,7.4-5.7L684.5,708 M611.5,638.5c0.2,0.1,0.4,0.3,0.6,0.4l0,16.6c0.2,4.9,2.3,9.6,5.5,11.9
						c2.6,1.7,5.3,3.4,8.1,5c3.9,2.5,6.5,7.6,6.7,13v22.2c-0.2-0.1-0.4-0.2-0.7-0.4v-22.2c-0.2-4.8-2.5-9.4-6-11.7
						c-2.8-1.6-5.5-3.3-8.1-5c-3.5-2.5-5.9-7.7-6.1-13.2V638.5"/>
					<path class="st29" d="M574.8,700.9c6.1,7.9,13.4,15.4,21.8,22.6c0.2,0.1,0.3,0.3,0.5,0.4c8.5,7.1,18,13.8,28.5,20v18.1
						c-21.3-12.5-38.6-27-50.9-43V700.9"/>
					<path class="st2" d="M643.9,753.6c12.3,6,25.7,11.4,39.9,16.1c0.3,0.1,0.5,0.2,0.8,0.3c12.4,4.1,25.5,7.6,39.1,10.6v18.1
						c-29.6-6.4-56.5-15.6-79.9-26.9V753.6"/>
					<path class="st2" d="M605.3,690.4c8,6,16.8,11.7,26.4,16.9c0.2,0.1,0.4,0.2,0.7,0.4c6.8,3.7,14,7.2,21.5,10.5
						c0.2,0.1,0.5,0.2,0.7,0.3c5.8,2.5,11.8,4.9,17.9,7.2v18.1c-6.3-2.3-12.3-4.8-18.2-7.3c-0.2-0.1-0.5-0.2-0.7-0.3
						c-7.3-3.2-14.3-6.7-20.9-10.3c-0.2-0.1-0.4-0.2-0.7-0.4c-9.6-5.3-18.6-11-26.6-17V690.4"/>
					<path class="st29" d="M643.9,673.6c23.3,11.4,50.3,20.5,79.9,26.9v18.1c-13.4-2.9-26.3-6.4-38.5-10.4c-0.3-0.1-0.5-0.2-0.8-0.3
						c-14.5-4.7-28-10.2-40.5-16.3V673.6"/>
					<path class="st3" d="M585.9,599.2c15,15.1,34.6,28.7,58,40v18.1c-11.5-5.6-22.2-11.8-31.8-18.4c-0.2-0.1-0.4-0.3-0.6-0.4
						c-9.6-6.6-18.1-13.7-25.5-21.2V599.2"/>
				</g>
			</g>
		</g>
	</g>
	<g>
		<path class="st41" d="M935.8,655.4c0,0-0.1,6,2.3,7c5,2.1,10.9-4.1,14.9-11c4.7-8.1-2.5-8.7-7.8-3.9
			C936.9,654.9,935.8,655.4,935.8,655.4z"/>
		<path class="st7" d="M935.8,653.8c0,0-0.6,6,1.8,7c5,2.1,11.4-4.1,15.4-11c4.7-8.1-2.5-8.7-7.8-3.9
			C936.9,653.3,935.8,653.8,935.8,653.8z"/>
		<path class="st7" d="M936.1,596.3c1.4,9.8-2,47.1-0.6,58.2c0.5,4.4,6.2,2.8,7.5-2.1c3.2-11.5,19.7-92,11.9-100.5
			c-8.2-9-9.8-13.1-9.8-13.1s-15.5-8-15.7-2.8C928.9,552,934.1,582.9,936.1,596.3z"/>
		<g>
			<path class="st6" d="M994.4,477.6c0.4,0,1.7-0.6,2,0.7c0.2,0.9-1.5,1.7-1.9,1.8c0.2-0.1,0.8-0.3,0.9,0.6c0.1,1.3-4.6,4-7,5.4
				c-2.3,1.9-2.8,2.2-4.5,2.7c0.5-3.8-0.8-7.8-5.6-5.9c0,0,4.4-6.7,6.6-8.2c4-2.6,8.5-2.5,8.9-1c0.3,1-2.1,1.6-2.1,1.6s4-1,4.4,0.3
				C996.5,476.6,994.8,477.4,994.4,477.6z"/>
			<path class="st22" d="M978.6,482.1c-10.7,5.4-27.5,8-32.7-2.4c-2.5-5-14.8,0.2-15.4,10c-1,17.5,45.1,6.7,52.7-1.2
				C987.3,484.3,982.7,480.1,978.6,482.1z"/>
			<path class="st22" d="M1022.2,480.5c0,0-15.4,9.8-19.7,21c-4.4,11.2-4.8,18.8-4.8,18.8l-21.2-19c0,0,3.6-13.9,8.1-20.3
				c4.5-6.4,17.5-13.2,17.5-13.2L1022.2,480.5z"/>
			<path class="st6" d="M1012.4,494.4c0.4-0.1,1.3-1.3,2.1-0.1c0.5,0.8-0.8,2.1-1,2.4c0.2-0.2,0.7-0.6,1.1,0.2
				c0.6,1.1-2.7,5.5-4.4,7.7c-1.4,2.7-1.7,3.2-3,4.3c-1-3.7-3.8-6.9-7.5-3.3c0,0,1.9-5.7,3.4-7.9c2.6-3.9,6.3-7.3,7.3-6.1
				c0.7,0.8-0.4,2.1-0.4,2.1s2.3-2.8,3.2-1.8C1013.9,492.7,1012.7,494.1,1012.4,494.4z"/>
			<path class="st41" d="M958.9,668.9c0,0-0.6,4.8,0.7,6c4,3.8,10.4-0.9,18.4-6.5c7.3-5.2,3.7-7.7-4.9-5.2
				C962.5,666.3,958.9,668.9,958.9,668.9z"/>
			<path class="st7" d="M960.4,666.6c-1,0.5-1.6,1.5-1.6,2.6c-0.1,1.5,0,3.6,0.8,4.3c4,3.8,10.4-0.9,18.4-6.5
				c7.3-5.2,3.7-7.7-4.9-5.2C966.2,663.7,962.3,665.6,960.4,666.6z"/>
			<path class="st7" d="M929.4,542.3c4.5,24.1,22.9,52.8,27.3,64.3c4.3,11.3,0.5,48.7,2.8,59.5c0.9,4.1,8.4,2.2,9-1.3
				c1.2-6.6,9.7-48.3,4.7-69c-4.2-17.3-6.8-46.9-11-63.8C960.7,525.7,928.3,536,929.4,542.3z"/>
			<path class="st22" d="M937.3,475.4c-5.7,2.5-8.9,6.9-10.3,17.2c-2.4,18-2,30,0.4,51.5c0.9,8,28.1,3.6,36.2-6.8
				c3.5-4.4-1.2-8.1-0.3-19.8c1-11.8,5.6-17.6,2.5-27c-1.2-3.6-6.3-9.5-10.3-10.9C950.7,478,940.7,473.9,937.3,475.4z"/>
			<path class="st4" d="M963.4,486.3c-6.7,2.6-11.6,5.6-10.3,16.3c0.8,6.6-4.3,9.4,1.7,19.9c6,10.4,2.8,12.5,2.8,12.5
				s5.4-2.3,5.5-13.7c0.1-8.4,3.6-21.5,3.6-21.5L963.4,486.3z"/>
			<g>
				<path class="st6" d="M955.5,473.9c0,0-3,4.1,0,5.6c-8.7,0.7-13.7-4.3-13.7-4.3c2.3,0.1,3.9-4.8,8.3-12.2
					C952.2,459.5,955.5,473.9,955.5,473.9z"/>
			</g>
			<path class="st6" d="M949.9,464.2c-0.6,4.4,2.9,10.3,6.6,10.8c3.7,0.5,6.1-4.8,6.9-9c0.9-4.4-2-8.4-5.7-8.9
				C954,456.6,950.4,459.8,949.9,464.2z"/>
			<path class="st41" d="M947.8,467.2c2.8,0,5,3.2,5.9,3.3c0.9,0,3.6-1,6.2-2.8c2.6-1.8,2.1-2.5,5.3-3.6c3.2-1.2-0.5-10.4-9.8-9.4
				C949,455.3,947.8,461.9,947.8,467.2z"/>
			<path class="st6" d="M959.7,470.5L959.7,470.5c0.7-0.2,1.2-0.9,1-1.6l-0.4-1.8c-0.2-0.7-0.9-1.2-1.6-1l0,0
				c-0.7,0.2-1.2,0.9-1,1.6l0.4,1.8C958.2,470.2,959,470.7,959.7,470.5z"/>
			<path class="st22" d="M999.6,504.7c-7.7,9.2-11.1,21.7-19.1,10.3c-6.4-9-8.9-22.2-17.8-29.7c-4.3-3.6-13.6,6-10.2,15.2
				c5.9,16.5,21.3,31.1,28,34.9c15,8.5,22.4-16,26.3-26.2C1008.9,503.8,1002.6,501.2,999.6,504.7z"/>
			<path class="st6" d="M1004.6,495.7c-3.3,2.4-3.1-2.6-4.9-2.4c-3.3,0.3,0.4,7.3,0.6,10.6L1004.6,495.7z"/>
			<path class="st6" d="M988.8,476.8c-1.6,1.9,1.1,2.1,4.1,2.1c3,0,3.4,2-1,2.2s-6.5,3.2-8.3,1.6c-1.9-1.5,0.7-4.9,1-4.9
				C984.7,477.7,988.8,476.8,988.8,476.8z"/>
		</g>
	</g>
	<path class="st2" d="M1053.3,579.2v187.1c26.9-22.6,42.6-49.4,42.6-78.1V501.1C1095.9,529.8,1080.3,556.6,1053.3,579.2z"/>
</g>
<g>
	<g>
		<path class="st6" d="M475.1,792.6c1-3.5,5-7.4,7-9.4c2.1-2.1,4.2-7.9,5-8.4c0.9-0.5,2.3-1.3,1.4,3.4c-0.9,4.8-0.3,3.7,0.8,8.2
			c1.1,4.5-1.1,4.7-3.8,6.3c-2.7,1.5-4.6,2.2-4.6,2.2L475.1,792.6z"/>
		<path class="st41" d="M411.5,949.1c0,0-0.2,6.4,2.4,7.5c5.3,2.2,11.6-4.3,15.9-11.6c5-8.6-2.6-9.2-8.3-4.1
			C412.7,948.6,411.5,949.1,411.5,949.1z"/>
		<path class="st1" d="M411.5,947.3c0,0-0.7,6.4,1.9,7.5c5.3,2.2,12.1-4.3,16.4-11.6c5-8.6-2.6-9.2-8.3-4.1
			C412.7,946.9,411.5,947.3,411.5,947.3z"/>
		<path class="st1" d="M410,906.2c1.5,10.4-0.2,30.1,1.2,41.9c0.6,4.7,10.2,1.4,11.7-3.9c3.4-12.2,1.5-39.9,1.7-60.4
			c0.1-14.9-0.9-29.1-0.9-29.1s-21.2-10.9-21.4-5.4C401.7,866.3,408,892,410,906.2z"/>
		<path class="st41" d="M443.1,952.3c0,0-0.7,5.1,0.7,6.4c4.2,4,11.1-0.9,19.6-6.9c7.8-5.5,4-8.2-5.2-5.6
			C447,949.5,443.1,952.3,443.1,952.3z"/>
		<path class="st1" d="M443.1,950.8c0,0-0.7,5.1,0.7,6.4c4.2,4,11.1-0.9,19.6-6.9c7.8-5.5,4-8.2-5.2-5.6
			C447,948,443.1,950.8,443.1,950.8z"/>
		<path class="st1" d="M417.7,838.1c4.6,25.6,22.1,50.5,23.5,62.8c1.5,12.8-0.7,39.4,1.8,50.9c0.9,4.4,11.9-0.7,12.5-4.4
			c1.3-7.1,3.3-44.5,2-57c-1.3-12.1-13.6-32.1-16.6-50.3C439.8,833.3,416.5,831.4,417.7,838.1z"/>
		<g>
			<defs>
				<path id="SVGID_26_" d="M414,781.8c-6.1,2.7-7.9,3.9-11.5,22.3c-1.9,9.6-3.6,48,3.9,102.1c0.8,5.8,59.1,8.3,57.1-0.7
					c-5.6-25-23.2-66.4-22.1-78.9c1.1-12.5,6-18.6,2.8-28.6c-1.3-3.8-6.6-10.2-10.9-11.7C428.2,784.6,417.6,780.2,414,781.8z"/>
			</defs>
			<use xlink:href="#SVGID_26_"  style="overflow:visible;fill:#144D4C;"/>
			<clipPath id="SVGID_27_">
				<use xlink:href="#SVGID_26_"  style="overflow:visible;"/>
			</clipPath>
			<path class="st60" d="M439.3,792.7c-7.1,2.7-10,6.7-8.7,18c0.8,7-4.6,10,1.7,21.1c6.3,11.1,12.3,20.1,12.3,20.1s-0.5-19,0-22.3
				c0.5-3.4,3.9-12.4,3.9-12.4L439.3,792.7z"/>
		</g>
		<path class="st18" d="M434.2,797.6c-1.3,2.8-1.7,5.4,2.2,12.7c5,9.4,12.7,17.6,24.2,17.6c3.1,0,9.8-1.2,14.1-9.9
			c2-4.1,5.4-15.3,7.7-23.2c0.5-1.6-5.8-5-7.3-2.9c-2.6,3.7-4.8,19.6-13.1,21.8c-7.2,1.9-17.9-17.8-20.1-20
			C438.3,790.4,435,795.7,434.2,797.6z"/>
		<g>
			<path class="st6" d="M433.3,780.3c0,0-3.2,4.3,0,6c-9.3,0.7-14.5-4.6-14.5-4.6c2.5,0.1,4.2-5.1,8.9-12.9
				C429.9,765,433.3,780.3,433.3,780.3z"/>
		</g>
		<path class="st6" d="M427.4,770c-0.6,4.7,3,10.9,7,11.5c4,0.5,6.5-5,7.4-9.5c1-4.6-2.1-9-6-9.5C431.7,761.9,428,765.3,427.4,770z"
			/>
		<path class="st6" d="M475.1,792.4c0.5-5.5,0.7-4.5,1.1-6.7c0.7-4.4,0.4-6.8,1.5-6.7c1.6,0.2,0.2,7.7,4.5,4.2
			C484.3,781.3,475.1,792.4,475.1,792.4z"/>
		<path class="st1" d="M444.7,766.3c1.1-0.6,1.9-1.9,1.9-3.3c0-2.1-1.7-3.7-3.7-3.7h0c-0.1,0-0.1,0-0.2,0c0.1-0.3,0.2-0.7,0.2-1v0
			c0-2.1-1.7-3.7-3.7-3.7c-1.2,0-2.2,0.6-2.9,1.4c-0.7-0.9-1.7-1.4-2.9-1.4c-1.9,0-3.4,1.4-3.7,3.2c-0.4-0.1-0.8-0.2-1.2-0.2l0,0
			c-2.1,0-3.7,1.7-3.7,3.7c0,0.7,0.2,1.4,0.6,1.9c-1.7,0.3-3,1.9-3,3.7c0,0.7,0.2,1.3,0.5,1.9c-0.3,0.6-0.5,1.2-0.5,1.9
			c0,2.1,1.7,3.7,3.7,3.7c0,0,0.1,0,0.1,0c0.4,1.7,1.9,2.9,3.6,2.9c0,0,0.1,0,0.1,0c0.6,0.5,1.5,0.9,2.3,0.9c1.9,0,3.4-1.4,3.7-3.2
			c0.7-0.4,1.4-0.8,2.1-1.3c2-1.3,2.6-0.5,3.7-0.6c0.2,0,0.5,0.1,0.7,0.1l0,0c2.1,0,3.7-1.7,3.7-3.7
			C446.2,768.1,445.6,767,444.7,766.3z"/>
		<path class="st6" d="M437.7,776.7L437.7,776.7c0.8-0.2,1.3-0.9,1.1-1.7l-0.4-1.9c-0.2-0.8-0.9-1.3-1.7-1.1h0
			c-0.8,0.2-1.3,0.9-1.1,1.7l0.4,1.9C436.2,776.4,437,776.9,437.7,776.7z"/>
	</g>
</g>
<g>
	<defs>
		<filter id="Adobe_OpacityMaskFilter_15_" filterUnits="userSpaceOnUse" x="521.5" y="888.5" width="148.6" height="88.2">
			<feFlood  style="flood-color:white;flood-opacity:1" result="back"/>
			<feBlend  in="SourceGraphic" in2="back" mode="normal"/>
		</filter>
	</defs>
	<mask maskUnits="userSpaceOnUse" x="521.5" y="888.5" width="148.6" height="88.2" id="SVGID_28_">
		<g class="st61">
			<defs>
				<filter id="Adobe_OpacityMaskFilter_16_" filterUnits="userSpaceOnUse" x="521.5" y="888.5" width="148.6" height="88.2">
					<feFlood  style="flood-color:white;flood-opacity:1" result="back"/>
					<feBlend  in="SourceGraphic" in2="back" mode="normal"/>
				</filter>
			</defs>
			<mask maskUnits="userSpaceOnUse" x="521.5" y="888.5" width="148.6" height="88.2" id="SVGID_28_">
			</mask>
			<linearGradient id="SVGID_29_" gradientUnits="userSpaceOnUse" x1="553.8996" y1="965.5559" x2="628.3469" y2="916.4591">
				<stop  offset="0" style="stop-color:#FFFFFF"/>
				<stop  offset="0.7966" style="stop-color:#343434"/>
				<stop  offset="1" style="stop-color:#000000"/>
			</linearGradient>
			<polygon class="st63" points="615,888.5 538,939.6 544.6,947.8 521.5,965.9 540.2,976.7 570.4,959.5 592.7,974.3 670.1,925.7 			
				"/>
		</g>
	</mask>
	<linearGradient id="SVGID_30_" gradientUnits="userSpaceOnUse" x1="553.8996" y1="965.5559" x2="628.3469" y2="916.4591">
		<stop  offset="0" style="stop-color:#D2E4FA"/>
		<stop  offset="1" style="stop-color:#E7F0FF"/>
	</linearGradient>
	<polygon class="st64" points="615,888.5 538,939.6 544.6,947.8 521.5,965.9 540.2,976.7 570.4,959.5 592.7,974.3 670.1,925.7 	"/>
	<path class="st1" d="M555.9,948.6c0,0,0.1,5.4-2.1,6.3c-4.5,1.8-9.8-3.7-13.3-9.9c-4.1-7.3,2.3-7.8,7.1-3.4
		C554.8,948.2,555.9,948.6,555.9,948.6z"/>
	<path class="st22" d="M555.9,947.1c0,0,0.5,5.4-1.7,6.3c-4.5,1.8-10.2-3.7-13.8-9.9c-4.1-7.3,2.3-7.8,7.1-3.4
		C554.8,946.7,555.9,947.1,555.9,947.1z"/>
	<path class="st6" d="M557.4,912.4c-1.3,8.8,0,25.4-1.3,35.4c-0.5,4-6.2,2.5-7.4-1.9c-2.8-10.4-10.9-41.2-3.9-48.8
		c7.4-8,32.6,3.4,32.6,3.4s-1.4,5.4-1.3,10.1C576.6,924.9,559.3,900.4,557.4,912.4z"/>
	<path class="st18" d="M575.1,991.8c-0.9,0-1.8-0.5-2.3-1.3l-23.7-29.8c-0.4-0.5-0.3-1.1,0.2-1.5c0.5-0.4,1.1-0.3,1.5,0.2l23.7,29.8
		c0,0,0.1,0.1,0.1,0.1c0.2,0.4,0.6,0.3,0.7,0.3c0.1,0,0.5-0.2,0.5-0.6l0.2-43.1c0-0.6,0.5-1,1.1-1s1,0.5,1,1.1l-0.2,43.1
		c0,1.2-0.8,2.3-2,2.6C575.6,991.7,575.4,991.8,575.1,991.8z"/>
	<path class="st18" d="M610.2,970.3c-0.9,0-1.8-0.2-2.6-0.4l-44.2-14.9l-13,6.1c-0.5,0.2-1.1,0-1.4-0.5c-0.2-0.5,0-1.1,0.5-1.4
		l13.3-6.2c0.2-0.1,0.5-0.1,0.8,0l44.6,15.1c1.9,0.6,4,0.3,5.6-0.8c1.6-1.2,2.6-3,2.6-5l0.2-33.5c0-0.6,0.5-1,1.1-1
		c0.6,0,1,0.5,1,1.1l-0.2,33.5c0,2.7-1.3,5.2-3.5,6.7C613.6,969.8,612,970.3,610.2,970.3z"/>
	<polygon class="st3" points="577,949.9 533.7,924.6 577.3,899.7 620.6,925 	"/>
	<polygon class="st5" points="577,954.5 533.7,929.2 533.7,924.6 577,949.9 	"/>
	<polygon class="st2" points="577,954.5 620.6,929.6 620.6,925 577,949.9 	"/>
	<path class="st18" d="M617.7,925.7L617.7,925.7c-0.6,0-1-0.5-1-1.1l0.1-15.4c0-1.9,0.3-3.7,0.8-5.6l5.3-19.4
		c0.2-0.6,0.7-0.9,1.3-0.7c0.6,0.2,0.9,0.7,0.7,1.3l-5.3,19.4c-0.4,1.6-0.7,3.3-0.7,5l-0.1,15.4
		C618.7,925.2,618.3,925.7,617.7,925.7z"/>
	<g>
		<path class="st6" d="M538.8,856.1c-0.3,0-1.5-0.6-1.7,0.6c-0.1,0.7,1.4,1.4,1.7,1.6c-0.2-0.1-0.7-0.3-0.8,0.5
			c-0.1,1.1,4.2,3.5,6.4,4.7c2.1,1.7,2.5,2,4,2.4c-0.6-3.2,0.6-6.5,4.8-4.8c0,0-4-5.8-6-7.1c-3.6-2.3-7.6-2.3-7.9-1.1
			c-0.3,0.8,1.9,1.4,1.9,1.4s-3.6-0.9-3.9,0.1C537,855.1,538.5,855.9,538.8,856.1z"/>
		<path class="st6" d="M552.9,860.6c9.6,4.9,24.7,7.3,29.4-2c2.3-4.5,13.3,0.2,13.8,9.1c0.8,15.8-40.5,5.8-47.3-1.3
			C545.1,862.5,549.2,858.7,552.9,860.6z"/>
		<path class="st1" d="M540.9,971.3c0,0,0.5,4.3-0.7,5.4c-3.6,3.4-9.4-0.8-16.5-6c-6.5-4.7-3.3-7,4.4-4.7
			C537.6,968.9,540.9,971.3,540.9,971.3z"/>
		<path class="st22" d="M540.9,970c0,0,0.5,4.3-0.7,5.4c-3.6,3.4-9.4-0.8-16.5-6c-6.5-4.7-3.3-7,4.4-4.7
			C537.7,967.7,540.9,970,540.9,970z"/>
		<path class="st6" d="M595.7,920.5c-4.1,21.6-48.9-0.7-53,9.6c-3.9,10.1,0.5,31.1-1.7,40.8c-0.8,3.7-7,1.2-7.5-2
			c-1-6-8.6-48-4.6-54.5c8.2-13.6,37.3-1.9,45.4-14.1C577.4,895.5,596.7,914.8,595.7,920.5z"/>
		<path class="st29" d="M598.6,916.4c-1.4,13.9-11.7,16.1-25,14.7c-13.3-1.4-24.9-4-28.7-3.2c-3.8,0.9-20-7.3-16.1-13.6
			c3.9-6.3,18-19.1,27.3-19.4c9.4-0.4,17.7,3.8,23.4-0.7C585.4,889.8,598.6,916.4,598.6,916.4z"/>
		<g>
			<path class="st36" d="M537.9,841.6l10.2,28.9c0.3,1-0.1,2.1-1,2.6l-34.9,20c0,0-1.1-0.2-1.6-1.6l-9.4-27.1c-0.3-1,0.1-2.1,1-2.6
				l33.5-19.3C537,841.6,537.9,841.6,537.9,841.6z"/>
			<path class="st7" d="M539,842.2l9.8,28.2c0.3,1-0.1,2.1-1,2.6l-34.7,20c-0.5,0.3-1.2,0.1-1.4-0.5l-9.8-28.2c-0.3-1,0.1-2.1,1-2.6
				l34.7-20C538.1,841.4,538.8,841.6,539,842.2z"/>
			<path class="st22" d="M537.7,844.7l8.8,25.4c0.3,0.9-0.1,1.9-0.9,2.3l-31.2,18c-0.5,0.3-1.1,0-1.3-0.5l-8.8-25.4
				c-0.3-0.9,0.1-1.9,0.9-2.3l31.2-18C536.9,844,537.5,844.2,537.7,844.7z"/>
			<path class="st36" d="M550.8,874.3l25.3,13.9c0,0,0.5,1.5-1.8,2.8l-33.2,19.1c-0.8,0.5-1.9,0.5-2.7,0l-23.8-13.7
				c-2-1.2-1.5-2.7-1.5-2.7l34.9-19.4C548.9,873.8,549.9,873.8,550.8,874.3z"/>
			<path class="st7" d="M550.8,872.9l24.8,14.3c0.7,0.4,0.7,1.3,0,1.7l-34.4,19.8c-0.8,0.5-1.9,0.5-2.7,0l-24.8-14.3
				c-0.7-0.4-0.7-1.3,0-1.7l34.4-19.8C548.9,872.4,549.9,872.4,550.8,872.9z"/>
			<path class="st38" d="M553.7,888.6l8.8,5.1c0.2,0.1,0.2,0.4,0,0.6l-11.7,6.7c-0.3,0.2-0.6,0.2-0.9,0l-8.8-5.1
				c-0.2-0.1-0.2-0.4,0-0.6l11.7-6.7C553.1,888.5,553.4,888.5,553.7,888.6z"/>
			<g>
				<path class="st5" d="M518.3,894.4l8.6,5c0.8,0.5,1.9,0.5,2.7,0l29.9-17.2c0.5-0.3,0.5-1,0-1.2l-8.6-5c-0.8-0.5-1.9-0.5-2.7,0
					l-29.9,17.2C517.9,893.4,517.9,894.1,518.3,894.4z"/>
			</g>
		</g>
		<path class="st6" d="M522.5,871.5c-0.3-0.1-1.2-1.1-1.9-0.1c-0.5,0.7,0.7,1.9,0.9,2.2c-0.1-0.1-0.6-0.5-1,0.2
			c-0.6,1,2.4,5,3.9,6.9c1.2,2.4,1.5,2.8,2.7,3.8c0.9-3.3,3.4-6.1,6.7-2.9c0,0-1.7-5.1-3-7.1c-2.3-3.5-5.7-6.6-6.6-5.5
			c-0.6,0.7,0.3,1.9,0.3,1.9s-2.1-2.5-2.8-1.6C521.2,869.9,522.2,871.2,522.5,871.5z"/>
		<path class="st2" d="M589.9,854.7c5.1,2.3,6.6,3.4,9.5,18.9c1.5,8.1,6.9,16.1,1.7,42.6c-1.4,7.1-39.7,9.4-37.6-2.5
			c1.7-9.7,3.7-10.8,2.9-21.3c-0.8-10.6-4.9-15.8-2.1-24.2c1.1-3.2,5.7-8.5,9.3-9.8C577.9,857,586.9,853.3,589.9,854.7z"/>
		<path class="st26" d="M566.5,864.4c6,2.3,10.4,5.1,9.2,14.6c-0.8,6,3.8,8.5-1.6,17.8c-5.4,9.3-10.5,16.9-10.5,16.9s3.1-7.7,3.1-18
			c0-7.6-3.1-19.3-3.1-19.3L566.5,864.4z"/>
		<g>
			<path class="st6" d="M573.7,853.3c0,0,2.7,3.7,0,5.1c7.8,0.6,12.3-3.8,12.3-3.8c-2.1,0-3.5-4.4-7.4-11
				C576.6,840.4,573.7,853.3,573.7,853.3z"/>
		</g>
		<path class="st6" d="M578.7,844.6c0.5,4-2.6,9.2-6,9.6c-3.4,0.4-5.4-4.3-6.2-8.1c-0.8-3.9,1.8-7.6,5.2-8
			C575.1,837.8,578.2,840.7,578.7,844.6z"/>
		<path class="st1" d="M580.6,847.3c-2.5,0-4.5,2.9-5.3,2.9c-0.8,0-3.2-1-5.6-2.6c-2.4-1.6-1.8-2.2-4.7-3.3
			c-2.9-1.1,0.5-9.4,8.8-8.4C579.6,836.6,580.6,842.6,580.6,847.3z"/>
		<path class="st6" d="M569.9,850.2L569.9,850.2c-0.6-0.2-1.1-0.8-0.9-1.5l0.4-1.6c0.2-0.6,0.8-1.1,1.5-0.9l0,0
			c0.6,0.2,1.1,0.8,0.9,1.5l-0.4,1.6C571.2,850,570.5,850.4,569.9,850.2z"/>
		<path class="st2" d="M533.9,880.8c6.9,8.3,9.9,19.5,17.1,9.3c5.8-8.1,8.1-19.9,16.1-26.5c3.9-3.2,12.1,5.4,9.1,13.7
			c-5.4,14.8-19.2,27.8-25.3,31.2c-13.5,7.5-20-14.5-23.5-23.6C525.6,879.9,531.3,877.7,533.9,880.8z"/>
		<path class="st6" d="M529.5,872.7c2.9,2.1,2.8-2.3,4.4-2.1c3,0.3-0.4,6.5-0.6,9.5L529.5,872.7z"/>
		<path class="st6" d="M543.8,855.7c1.4,1.7-1,1.9-3.7,1.9c-2.7,0-3.1,1.8,0.9,2c4,0.2,5.8,2.9,7.5,1.5c1.7-1.4-0.6-4.4-0.8-4.4
			C547.4,856.6,543.8,855.7,543.8,855.7z"/>
	</g>
	<path class="st18" d="M577,948.4c-0.6,0-1-0.5-1-1.1l0.1-15.4c0-1.9,0.3-3.7,0.8-5.6l5.3-19.4c0.2-0.6,0.7-0.9,1.3-0.7
		c0.6,0.2,0.9,0.7,0.7,1.3l-5.3,19.4c-0.4,1.6-0.7,3.3-0.7,5l-0.1,15.4C578.1,947.9,577.6,948.4,577,948.4z"/>
	<g>
		<polygon class="st22" points="589,890.3 584.9,888 628.4,863.1 632.6,865.4 		"/>
		<polygon class="st18" points="581.3,919.1 577.2,916.8 584.9,888 589,890.3 		"/>
		<polygon class="st2" points="581.3,919.1 624.9,894.2 632.6,865.4 589,890.3 		"/>
	</g>
	<path class="st1" d="M581.6,834.9c0-3.3-2.6-5.9-5.9-6c-3.3,0-5.9,2.6-6,5.9c0,3.3,2.6,5.9,5.9,6
		C579,840.8,581.6,838.2,581.6,834.9z"/>
</g>
<g>
	<polygon class="st2" points="1426,782.2 1216,902.1 1216,805.7 1426,685.7 	"/>
	<polygon class="st19" points="1375.8,656.7 1165.7,776.6 1216,805.7 1426,685.7 	"/>
	<polygon class="st4" points="1216,902.1 1165.7,873.1 1165.7,776.6 1216,805.7 	"/>
	<g>
		<polygon class="st2" points="1223.5,768.8 1219.8,766.6 1198.1,779 1201.8,781.1 		"/>
		<polygon class="st2" points="1198,783.4 1194.2,781.2 1189.3,784 1193,786.2 		"/>
		<polygon class="st2" points="1208.9,789.7 1205.2,787.5 1200.3,790.3 1204,792.5 		"/>
		<polygon class="st2" points="1219.8,796 1216.1,793.8 1211.2,796.6 1214.9,798.8 		"/>
		<polygon class="st2" points="1217.5,784.7 1213.8,782.5 1208.9,785.3 1212.6,787.5 		"/>
		<polygon class="st2" points="1228.5,791 1224.8,788.9 1219.8,791.7 1223.5,793.8 		"/>
		<polygon class="st2" points="1226.1,779.7 1222.4,777.6 1217.5,780.4 1221.2,782.5 		"/>
		<polygon class="st2" points="1237.1,786 1233.4,783.9 1228.4,786.7 1232.2,788.9 		"/>
		<polygon class="st2" points="1234.8,774.7 1231.1,772.6 1226.1,775.4 1229.8,777.6 		"/>
		<polygon class="st2" points="1245.7,781.1 1242,778.9 1237.1,781.7 1240.8,783.9 		"/>
		<polygon class="st2" points="1243.4,769.8 1239.7,767.6 1234.7,770.4 1238.4,772.6 		"/>
		<polygon class="st2" points="1254.3,776.1 1250.6,773.9 1245.7,776.7 1249.4,778.9 		"/>
		<polygon class="st2" points="1203.6,767.2 1199.9,765 1178.3,777.4 1182,779.5 		"/>
		<path class="st2" d="M1218.2,763l-9.7-5.6l-1.7,6.3C1207,763.5,1218.2,763,1218.2,763z"/>
		<path class="st2" d="M1224.5,759.4l-9.7-5.6l10.1-0.5C1225.1,753.2,1224.5,759.4,1224.5,759.4z"/>
		<path class="st2" d="M1259.9,754.2l-23.4-13.7l-4.1,15.2C1232.8,755.5,1259.9,754.2,1259.9,754.2z"/>
		<path class="st21" d="M1275.1,745.6l-23.4-13.7l24.5-1.2C1276.6,730.5,1275.1,745.6,1275.1,745.6z"/>
	</g>
	<g>
		<polygon class="st2" points="1375.9,680.8 1372.2,678.6 1350.6,690.9 1354.3,693.1 		"/>
		<polygon class="st2" points="1350.4,695.3 1346.7,693.2 1341.8,696 1345.5,698.1 		"/>
		<polygon class="st2" points="1361.4,701.6 1357.7,699.5 1352.7,702.3 1356.4,704.5 		"/>
		<polygon class="st2" points="1372.3,708 1368.6,705.8 1363.7,708.6 1367.4,710.8 		"/>
		<polygon class="st2" points="1370,696.7 1366.3,694.5 1361.4,697.3 1365.1,699.5 		"/>
		<polygon class="st2" points="1380.9,703 1377.2,700.8 1372.3,703.6 1376,705.8 		"/>
		<polygon class="st2" points="1378.6,691.7 1374.9,689.5 1370,692.3 1373.7,694.5 		"/>
		<polygon class="st2" points="1389.6,698 1385.8,695.8 1380.9,698.7 1384.6,700.8 		"/>
		<polygon class="st2" points="1387.2,686.7 1383.5,684.5 1378.6,687.4 1382.3,689.5 		"/>
		<polygon class="st21" points="1398.2,693 1394.5,690.9 1389.5,693.7 1393.2,695.8 		"/>
		<polygon class="st2" points="1395.9,681.7 1392.1,679.6 1387.2,682.4 1390.9,684.5 		"/>
		<polygon class="st2" points="1406.8,688.1 1403.1,685.9 1398.2,688.7 1401.9,690.9 		"/>
		<polygon class="st2" points="1356.1,679.2 1352.4,677 1330.8,689.4 1334.5,691.5 		"/>
		<path class="st2" d="M1370.7,674.9l-9.7-5.6l-1.7,6.3C1359.5,675.5,1370.7,674.9,1370.7,674.9z"/>
		<path class="st2" d="M1376.9,671.4l-9.7-5.6l10.1-0.5C1377.6,665.2,1376.9,671.4,1376.9,671.4z"/>
	</g>
</g>
<g>
	<defs>
		<filter id="Adobe_OpacityMaskFilter_17_" filterUnits="userSpaceOnUse" x="1356.8" y="758.3" width="150.1" height="82.1">
			<feFlood  style="flood-color:white;flood-opacity:1" result="back"/>
			<feBlend  in="SourceGraphic" in2="back" mode="normal"/>
		</filter>
	</defs>
	<mask maskUnits="userSpaceOnUse" x="1356.8" y="758.3" width="150.1" height="82.1" id="SVGID_31_">
		<g class="st65">
			<defs>
				<filter id="Adobe_OpacityMaskFilter_18_" filterUnits="userSpaceOnUse" x="1356.8" y="758.3" width="150.1" height="82.1">
					<feFlood  style="flood-color:white;flood-opacity:1" result="back"/>
					<feBlend  in="SourceGraphic" in2="back" mode="normal"/>
				</filter>
			</defs>
			<mask maskUnits="userSpaceOnUse" x="1356.8" y="758.3" width="150.1" height="82.1" id="SVGID_31_">
			</mask>
			<linearGradient id="SVGID_32_" gradientUnits="userSpaceOnUse" x1="1402.5809" y1="827.6446" x2="1472.3754" y2="774.6971">
				<stop  offset="0" style="stop-color:#FFFFFF"/>
				<stop  offset="0.7966" style="stop-color:#343434"/>
				<stop  offset="1" style="stop-color:#000000"/>
			</linearGradient>
			<polygon class="st67" points="1381.9,805.7 1457.5,758.3 1506.9,786.2 1446,824.6 1433.6,834.1 1408.9,821.4 1373.5,840.3 
				1356.8,829.1 			"/>
		</g>
	</mask>
	<linearGradient id="SVGID_33_" gradientUnits="userSpaceOnUse" x1="1402.5809" y1="827.6446" x2="1472.3754" y2="774.6971">
		<stop  offset="0" style="stop-color:#D2E4FA"/>
		<stop  offset="1" style="stop-color:#E7F0FF"/>
	</linearGradient>
	<polygon class="st68" points="1381.9,805.7 1457.5,758.3 1506.9,786.2 1446,824.6 1433.6,834.1 1408.9,821.4 1373.5,840.3 
		1356.8,829.1 	"/>
	<path class="st41" d="M1394.9,810.2c0,0,0.1,6-2.3,7c-5,2.1-10.9-4.1-14.9-11c-4.7-8.1,2.5-8.7,7.8-3.9
		C1393.7,809.8,1394.9,810.2,1394.9,810.2z"/>
	<path class="st7" d="M1394.9,808.6c0,0,0.6,6-1.8,7c-5,2.1-11.4-4.1-15.4-11c-4.7-8.1,2.5-8.7,7.8-3.9
		C1393.7,808.2,1394.9,808.6,1394.9,808.6z"/>
	<path class="st7" d="M1396.4,769.9c-1.4,9.8,0.1,28.3-1.3,39.4c-0.5,4.4-9.6,1.2-11-3.7c-3.2-11.5-9.6-44.2-1.9-52.8
		c8.2-9,36.4,3.6,36.4,3.6s-1.5,6.1-1.3,11.3C1417.9,783.7,1398.4,756.5,1396.4,769.9z"/>
	<path class="st21" d="M1417.3,852.2c-0.9,0-1.8-0.5-2.3-1.3l-24.3-30.3c-0.4-0.5-0.3-1.1,0.2-1.5c0.5-0.4,1.1-0.3,1.5,0.2
		l24.3,30.3c0,0,0.1,0.1,0.1,0.1c0.2,0.4,0.6,0.3,0.7,0.3c0.1,0,0.5-0.2,0.5-0.6l0-44c0-0.6,0.5-1.1,1.1-1.1s1.1,0.5,1.1,1.1l0,44
		c0,1.3-0.8,2.4-2.1,2.7C1417.8,852.2,1417.5,852.2,1417.3,852.2z"/>
	<path class="st21" d="M1453,830.1c-0.9,0-1.8-0.1-2.7-0.4l-45.2-15l-13.2,6.3c-0.5,0.3-1.2,0-1.4-0.5c-0.3-0.5,0-1.2,0.5-1.4
		l13.6-6.4c0.2-0.1,0.5-0.1,0.8,0l45.6,15.2c2,0.7,4,0.3,5.7-0.9c1.7-1.2,2.6-3.1,2.6-5.1l0-34.2c0-0.6,0.5-1.1,1.1-1.1
		s1.1,0.5,1.1,1.1l0,34.2c0,2.8-1.3,5.3-3.5,6.9C1456.5,829.6,1454.7,830.1,1453,830.1z"/>
	<polygon class="st3" points="1419,809.5 1374.7,783.9 1419,758.3 1463.3,783.9 	"/>
	<polygon class="st20" points="1419,814.2 1374.7,788.6 1374.7,783.9 1419,809.5 	"/>
	
		<linearGradient id="SVGID_34_" gradientUnits="userSpaceOnUse" x1="-532.3214" y1="797.3146" x2="-415.4916" y2="802.129" gradientTransform="matrix(-1 0 0 1 950.2134 0)">
		<stop  offset="0" style="stop-color:#95B4E4"/>
		<stop  offset="1" style="stop-color:#C0D9FD"/>
	</linearGradient>
	<polygon class="st69" points="1419,814.2 1463.3,788.6 1463.3,783.9 1419,809.5 	"/>
	<path class="st21" d="M1460.4,784.6L1460.4,784.6c-0.6,0-1.1-0.5-1.1-1.1l0-15.7c0-1.9,0.2-3.8,0.7-5.7l5.3-19.8
		c0.2-0.6,0.7-0.9,1.3-0.8c0.6,0.2,0.9,0.7,0.8,1.3l-5.3,19.8c-0.4,1.7-0.7,3.4-0.7,5.1l0,15.7
		C1461.4,784.1,1461,784.6,1460.4,784.6z"/>
	<g>
		<linearGradient id="SVGID_35_" gradientUnits="userSpaceOnUse" x1="1430.5051" y1="723.1028" x2="1392.2385" y2="701.2018">
			<stop  offset="0" style="stop-color:#EC91A4"/>
			<stop  offset="0.9988" style="stop-color:#FFA883"/>
		</linearGradient>
		<path class="st70" d="M1401,701.2c8.2,4.2,10.4,5,18.8,10.6c9.2,6.1,4.1,25.1,14.2,30.7c4.9,2.7,12.6-2.6,13-5.1
			c2-11.4-14.7-30.7-19.3-33.3c-2.7-1.5-23-9.9-24.7-10.7C1397.7,691,1396.9,699.2,1401,701.2z"/>
		<path class="st6" d="M1388.2,690.2c-0.2-0.3-1.8-0.7-0.8-1.7c0.7-0.6,2.2,0.4,2.5,0.6c-0.2-0.1-0.7-0.6,0-1.1
			c1-0.8,6.5-0.2,8.9,1.1c2.9,0.9,2.8,3.1,4.1,4.2c-3.5,1.6-6.1,4.9-2,7.9c0,0-4.9-3.1-7.3-4.1c-4.3-1.9-9.2-3-8.3-4.2
			c0.7-0.8,2.6-0.5,2.6-0.5s-3.6-1.3-2.7-2.3C1385.9,689.4,1387.8,690,1388.2,690.2z"/>
		<path class="st41" d="M1378.3,835.6c0,0,0.6,4.8-0.7,6c-4,3.8-10.4-0.9-18.4-6.5c-7.3-5.2-3.7-7.7,4.9-5.2
			C1374.7,833,1378.3,835.6,1378.3,835.6z"/>
		<path class="st1" d="M1378.3,834.2c0,0,0.6,4.8-0.7,6c-4,3.8-10.4-0.9-18.4-6.5c-7.3-5.2-3.7-7.7,4.9-5.2
			C1374.7,831.6,1378.3,834.2,1378.3,834.2z"/>
		<path class="st1" d="M1439.1,778.7c-4.5,24.1-54.5-0.5-59,11c-4.3,11.3,0.7,34.6-1.7,45.4c-0.9,4.1-11.2-0.7-11.8-4.2
			c-1.2-6.6-6.4-51.3-2.1-58.6c9.1-15.2,41.5-2.3,50.5-15.9C1418.6,751,1440.2,772.4,1439.1,778.7z"/>
		<path class="st1" d="M1442.3,774.2c-1.5,15.5-12.9,18-27.8,16.5c-14.8-1.5-27.8-4.4-32-3.4c-4.2,1-22.3-8-18-15
			c4.3-7,11.1-8,21.5-8.4c10.4-0.4,22.6-2.4,29-7.5C1421.4,751.3,1442.3,774.2,1442.3,774.2z"/>
		<path class="st29" d="M1443.1,721.2c5.2,13.5,18.3,27.6-0.1,54.4c-2.4,3.5-6.7-0.6-8.3-2.6c-3.7-4.6,5.2-5.3,2.1-12.5
			c-5.4-12.3-4.5-23.6-5.3-25.3c-1.2-2.7-8.6-21.4-8.6-21.4s3.1-0.2,9.8-5.2C1437.1,705.1,1441.6,717.3,1443.1,721.2z"/>
		<path class="st29" d="M1432.3,705.4c5.7,2.5,7.4,3.8,10.7,21.1c1.7,9.1,7.8,18,2.1,47.5c-1.5,7.9-44.1,10.7-41.9-2.6
			c1.8-10.8,4.1-12.1,3.1-23.8c-1-11.8-5.6-17.6-2.5-27c1.2-3.6,6.3-9.5,10.3-10.9C1418.9,708,1428.9,703.9,1432.3,705.4z"/>
		<path class="st26" d="M1406.2,716.3c6.7,2.6,11.6,5.6,10.3,16.3c-0.8,6.6,4.3,9.4-1.7,19.9c-6,10.4-11.6,18.9-11.6,18.9
			s3.4-8.6,3.3-20c-0.1-8.4-3.6-21.5-3.6-21.5L1406.2,716.3z"/>
		<g>
			<path class="st57" d="M1414.2,704c0,0,3,4.1,0,5.6c8.7,0.7,13.7-4.3,13.7-4.3c-2.3,0.1-3.9-4.8-8.3-12.2
				C1417.4,689.6,1414.2,704,1414.2,704z"/>
		</g>
		<path class="st6" d="M1419.8,694.3c0.6,4.4-2.9,10.3-6.6,10.8s-6.1-4.8-6.9-9c-0.9-4.4,2-8.4,5.7-8.9
			C1415.7,686.7,1419.2,689.9,1419.8,694.3z"/>
		<path class="st1" d="M1432.6,708.4c-11.6,11-19.7,3.2-19.7-4.9c0-3-0.6-4-3.2-5.8c-2.6-1.8-2.1,0.9-5.3-0.3
			c-3.2-1.2-1.4-6.5-1.4-6.5s2.6-3.9,3.8-5c3.1-2.7,10.2-2.1,13.1,0C1428.7,692.2,1436.4,704.8,1432.6,708.4z"/>
		<path class="st6" d="M1410,700.6L1410,700.6c-0.7-0.2-1.2-0.9-1-1.6l0.4-1.8c0.2-0.7,0.9-1.2,1.6-1l0,0c0.7,0.2,1.2,0.9,1,1.6
			l-0.4,1.8C1411.4,700.3,1410.7,700.7,1410,700.6z"/>
		<path class="st29" d="M1355.3,713.6c9.5,2.5,9.2,3.8,21.1,4.9c11,1,22.6-0.3,32.6-2.1c5.5-1,6.5,13.3,4,13.9
			c-17.1,4-29.8,0.7-35,0c-3-0.4-23.8-8.8-25.6-9.2C1346.5,719.9,1350.9,712.4,1355.3,713.6z"/>
		<path class="st6" d="M1338.4,714.4c-0.4,0.2-1.8,0-1.6,1.4c0.2,0.9,2,1,2.4,1c-0.2,0-0.9,0-0.6,0.9c0.3,1.2,5.8,2.1,8.5,2.5
			c2.8,1,3.4,1.1,5.2,0.9c-1.9-3.3-2.1-7.6,3-7.6c0,0-5.3-2.7-7.9-3.3c-4.6-1-9.6-0.8-9.5,0.7c0.1,1.1,1.7,1.2,1.7,1.2
			s-3.6-0.4-3.5,0.9C1336.1,714.2,1338,714.4,1338.4,714.4z"/>
	</g>
	<path class="st21" d="M1419,807.9L1419,807.9c-0.6,0-1.1-0.5-1.1-1.1l0-15.7c0-1.9,0.2-3.8,0.7-5.7l5.3-19.8
		c0.2-0.6,0.7-0.9,1.3-0.8c0.6,0.2,0.9,0.7,0.8,1.3l-5.3,19.8c-0.4,1.7-0.7,3.4-0.7,5.1l0,15.7
		C1420.1,807.4,1419.6,807.9,1419,807.9z"/>
	<g>
		<polygon class="st3" points="1431,748.6 1426.7,746.2 1471.1,720.6 1475.3,723 		"/>
		<polygon class="st20" points="1423.2,778 1419,775.7 1426.7,746.2 1431,748.6 		"/>
		
			<linearGradient id="SVGID_36_" gradientUnits="userSpaceOnUse" x1="-548.3393" y1="748.4833" x2="-409.1222" y2="754.2203" gradientTransform="matrix(-1 0 0 1 950.2134 0)">
			<stop  offset="0" style="stop-color:#95B4E4"/>
			<stop  offset="1" style="stop-color:#C0D9FD"/>
		</linearGradient>
		<polygon class="st71" points="1423.2,778 1467.6,752.4 1475.3,723 1431,748.6 		"/>
	</g>
	<path class="st6" d="M1393.3,696.6c-3.7,0.7-5.6,2.5-2.7,2.8c3,0.3,5.3-1.4,8.3-0.5L1393.3,696.6z"/>
</g>
<g>
	<defs>
		<filter id="Adobe_OpacityMaskFilter_19_" filterUnits="userSpaceOnUse" x="1257.9" y="837.1" width="120.4" height="80.3">
			<feFlood  style="flood-color:white;flood-opacity:1" result="back"/>
			<feBlend  in="SourceGraphic" in2="back" mode="normal"/>
		</filter>
	</defs>
	<mask maskUnits="userSpaceOnUse" x="1257.9" y="837.1" width="120.4" height="80.3" id="SVGID_37_">
		<g class="st72">
			<defs>
				<filter id="Adobe_OpacityMaskFilter_20_" filterUnits="userSpaceOnUse" x="1257.9" y="837.1" width="120.4" height="80.3">
					<feFlood  style="flood-color:white;flood-opacity:1" result="back"/>
					<feBlend  in="SourceGraphic" in2="back" mode="normal"/>
				</filter>
			</defs>
			<mask maskUnits="userSpaceOnUse" x="1257.9" y="837.1" width="120.4" height="80.3" id="SVGID_37_">
			</mask>
			<linearGradient id="SVGID_38_" gradientUnits="userSpaceOnUse" x1="1284.1714" y1="896.3638" x2="1368.2456" y2="846.6252">
				<stop  offset="0" style="stop-color:#FFFFFF"/>
				<stop  offset="0.7966" style="stop-color:#343434"/>
				<stop  offset="1" style="stop-color:#000000"/>
			</linearGradient>
			<polygon class="st74" points="1354.7,837.1 1280,884 1257.9,900.9 1278.3,917.4 1378.3,853.4 			"/>
		</g>
	</mask>
	<linearGradient id="SVGID_39_" gradientUnits="userSpaceOnUse" x1="1284.1714" y1="896.3638" x2="1368.2456" y2="846.6252">
		<stop  offset="0" style="stop-color:#D2E4FA"/>
		<stop  offset="1" style="stop-color:#E7F0FF"/>
	</linearGradient>
	<polygon class="st75" points="1354.7,837.1 1280,884 1257.9,900.9 1278.3,917.4 1378.3,853.4 	"/>
	<path class="st41" d="M1300.5,896.5c0,0,0.2,7.1-2.7,8.3c-5.9,2.5-13-4.7-17.7-12.9c-5.6-9.6,2.9-10.3,9.2-4.7
		C1299.1,896,1300.5,896.5,1300.5,896.5z"/>
	<path class="st1" d="M1300.4,894.6c0,0,0.8,7.1-2.1,8.3c-5.9,2.5-13.5-4.7-18.3-12.9c-5.6-9.6,2.9-10.3,9.2-4.6
		C1299.1,894.1,1300.4,894.6,1300.4,894.6z"/>
	<path class="st5" d="M1309.8,728.6c6.3,15.9,22,32.4,0.4,64.3c-2.8,4.1-7.9-0.6-9.9-3c-4.4-5.4,4.3-8,6.3-17.1
		c3.2-14.5,1.4-19.3,0.5-21.3c-1.5-3.1-21.3-31.6-21.3-31.6s3.6-0.2,11.6-6.2C1302.7,709.7,1308,724.1,1309.8,728.6z"/>
	<path class="st1" d="M1301.9,848.7c-1.6,11.6,0.4,33.5-1.1,46.7c-0.6,5.2-11.4,1.6-13-4.3c-3.9-13.6-1.9-44.4-2.2-67.3
		c-0.2-16.6,0.8-32.5,0.8-32.5s23.6-12.2,23.9-6.1C1311,804.2,1304.1,832.9,1301.9,848.7z"/>
	<path class="st41" d="M1279.8,908.6c0,0,0.8,5.6-0.8,7.1c-4.7,4.5-12.3-0.9-21.9-7.6c-8.7-6.1-4.5-9.1,5.7-6.2
		C1275.5,905.6,1279.8,908.6,1279.8,908.6z"/>
	<path class="st1" d="M1279.8,907c0,0,0.8,5.6-0.8,7.1c-4.7,4.5-12.3-0.9-21.9-7.6c-8.7-6.1-4.5-9.1,5.7-6.2
		C1275.5,903.9,1279.8,907,1279.8,907z"/>
	<path class="st1" d="M1307.7,781.2c-5.1,28.6-24.4,56.4-25.9,70c-1.6,14.2,0.9,43.9-1.8,56.8c-1,4.9-13.2-0.7-14-4.9
		c-1.5-7.9-3.9-49.5-2.4-63.5c1.4-13.5,15-35.8,18.2-56.1C1283,776,1309,773.8,1307.7,781.2z"/>
	<path class="st18" d="M1297,710.1c6.8,3,8.8,4.4,12.9,24.8c2.1,10.7,5.4,50.5-3.1,101.4c-2.3,13.8-48.9,15.8-48.9,5.5
		c0-25.5,10-67.8,8.8-81.7c-1.3-14-6.8-20.8-3.2-31.9c1.4-4.3,7.3-11.3,12.1-13C1281.1,713.3,1293,708.4,1297,710.1z"/>
	<g>
		<path class="st6" d="M1275.5,708.6c0,0,3.6,4.8,0.1,6.7c10.3,0.7,16.1-5.2,16.1-5.2c-2.8,0.1-4.7-5.7-10-14.4
			C1279.2,691.5,1275.5,708.6,1275.5,708.6z"/>
	</g>
	<path class="st6" d="M1285.1,699.5c-1.2,5.1-7.6,10.1-11.9,9.1c-4.3-1-4.7-7.8-3.8-12.9c0.9-5.2,5.8-8.5,10.1-7.4
		C1283.8,689.3,1286.4,694.3,1285.1,699.5z"/>
	<path class="st1" d="M1286.2,703.6c-3.1-1.1-6.9,1.4-7.9,1.1c-1-0.4-3.5-2.7-5.7-5.8c-2.2-3.1-1.2-3.6-4.3-6.3
		c-3.1-2.7-1.5-6.7-1.5-6.7s2.4,1.8,4.2,1.2c4.6-1.7,6.8-1.3,10.9-0.3C1289.4,688.7,1288.4,697.8,1286.2,703.6z"/>
	<path class="st6" d="M1207,682.6c-5.7-6.3-13.3-12.5-16.1-14.3c-2.8-1.8-2.6,0.8-1.3,2c1.2,1.2,4.5,3.9,3.9,4.6
		c-0.6,0.7-4.8,6.8-0.6,9c4.2,2.2,7.2,3.4,7.2,3.4L1207,682.6z"/>
	<path class="st6" d="M1271.6,702.2L1271.6,702.2c-0.7-0.5-0.9-1.5-0.4-2.2l1.2-1.8c0.5-0.7,1.5-0.9,2.2-0.4l0,0
		c0.7,0.5,0.9,1.5,0.4,2.2l-1.2,1.8C1273.3,702.5,1272.4,702.7,1271.6,702.2z"/>
	<path class="st18" d="M1268.2,720.8c9.5-4.1-0.4,26-4.6,24.1c-4.2-1.9-37.9-23.8-43-29.6c-5.2-5.8-18.2-22.9-21.5-26.7
		c-3.4-3.8,2.2-10.3,6.8-7c4.5,3.3,25.1,24.4,28.9,26.6C1242.8,712.7,1259.3,724.7,1268.2,720.8z"/>
</g>
<g>
	<g>
		<polygon class="st22" points="841,889.7 862.2,901.6 886.5,870 865.2,858.1 		"/>
	</g>
	<polygon class="st1" points="797.3,920.9 775.6,933.5 775.6,956.5 797.3,943.9 	"/>
	<path class="st6" d="M779.4,903.6c3.1,15.2,2.2,19.5,0.5,22.3c-1.6,2.8-1,5.3-1.2,5.9l4.2-2.5c0,0,0.1,4,0.7,4.5s2.1,0.2,2.2-3.4
		c0.1-3.5,1.1-6.4,1.1-6.4l0.9-22.3L779.4,903.6z"/>
	<path class="st18" d="M791.1,860.6c-7.5,10.6-14.2,28.4-13.4,33.4c0.7,4.9,2.5,23.3,2.9,25.3c0.4,2,8.4,0.2,7.6-3.9
		C787.2,911.3,791.1,860.6,791.1,860.6z"/>
	<path class="st1" d="M794.6,1017.1c0,0-0.6,6.2,1.9,7.2c5.1,2.1,9.4-2.4,13.4-9.5c4.7-8.3-0.7-9.6-6.2-4.7
		C795.3,1017.7,794.6,1017.1,794.6,1017.1z"/>
	<path class="st6" d="M792.9,977.2c1.5,10.1,0.2,28.4,1.6,39.8c0.6,4.5,7.4,3,7.9-2.3c1.1-11.9,4.3-39.5,4.4-59.3
		c0.1-14.4-1-28.2-1-28.2s-17.9-12-18-6.6C787.3,937.1,790.9,963.5,792.9,977.2z"/>
	<path class="st1" d="M824.6,1019.6c-0.6,1.9-1,5.8,0.4,7.1c4.1,3.9,10.7-0.9,18.8-6.7c7.5-5.4,3.8-8-5-5.4
		C828,1017.8,825.9,1015.8,824.6,1019.6z"/>
	<path class="st6" d="M800,911.2c4.6,24.8,22.8,48,24.2,59.9c1.5,12.3-0.9,40.4,0.6,49.7c0.7,4.3,8.1,1.3,8.7-2.3
		c1.2-6.8,6.4-44.7,5-56.8c-1.3-11.7-13.2-31-16.2-48.6C821.2,906.5,798.8,904.7,800,911.2z"/>
	<path class="st5" d="M796.1,856.7c-5.8,2.6-5.6,3.2-9.5,20.8c-5.8,26.1-2.7,53.2,2.2,83.8c1.3,8.2,52.4,17,49.7,0.3
		c-3.6-22.1-16.8-49.6-15.8-61.6c1-12.2,3.6-19.3,0.4-29c-1.2-3.7-4.3-8.6-8.5-10C809.8,859.4,799.6,855.2,796.1,856.7z"/>
	<path class="st6" d="M869.5,898.8c0.4-0.8-0.2-1-0.4-1.1c0.3,0.1,2.2,0.4,2.6-0.4c0.6-1.3-0.8-1.5-1.1-1.8c0.4,0.1,2.3,0.4,2.6-0.6
		c0.4-1.2-3.2-1.8-3.2-1.8s1.7,0.3,2-0.7c0.5-1.5-1-2.6-5.8-2.9c-2.7-0.1-6.8,1-6.8,1c-0.7-0.1-1.4-0.1-2.1-0.1
		c3.9,2.6,3.8,7.9,1.1,9.1l0,0c0.8,0,1.4,0,1.6,0.1c1.7,0.6,1.8,0.7,4.9,0.5C867.6,900.6,868.9,899.9,869.5,898.8z"/>
	<path class="st5" d="M859,890.7c-6.6-2.3-14.3-1-24.3-3.4c-6.6-1.5-8.2-4.8-14.1-19.2c-3.3-8-14.8,0.3-12.7,5.6
		c8,19.7,14.8,22.3,22.2,24.3c6.5,1.7,23.1,1,27,1.7C861.2,900.5,863.8,891.9,859,890.7z"/>
	<g>
		<path class="st6" d="M812.9,853.7c0,1.7-2.1,5.7,1.5,7.1c-9.5,1.9-15.6-3-15.6-3c2.6-0.2,6.4-1,7.5-12.3
			C806.8,840.8,812.9,850.9,812.9,853.7z"/>
	</g>
	<path class="st6" d="M806.2,844.3c-0.1,5,4.5,11.1,8.7,11.2c4.2,0.1,6-6.1,6.4-11c0.4-5-3.3-9.2-7.5-9.2
		C809.7,835.2,806.3,839.3,806.2,844.3z"/>
	<path class="st22" d="M806.1,847.2c3.5,6.5,7.1,1.3,7.7,0.2c0.5-1,0-1.7,3.5-1s4.9-3.8,3.4-7c-1.4-3.2-3.7-8.4-13-1.7
		c0,0-2.3-5.9-7.1-4.5c-8.7,2.6-8.3,14.6-0.5,15.4C803.9,849,806.1,847.2,806.1,847.2z"/>
	<path class="st6" d="M815.8,849.9L815.8,849.9c0.8,0,1.5-0.7,1.5-1.5l0-2.1c0-0.8-0.7-1.5-1.5-1.5l0,0c-0.8,0-1.5,0.7-1.5,1.5
		l0,2.1C814.3,849.3,815,850,815.8,849.9z"/>
</g>
<path class="st29" d="M1063,600c15.7-16.5,25.8-34.9,29-54.4v6.2c-3.1,19.5-13.2,37.8-29,54.4V600"/>
<path class="st29" d="M1063,611.1c15.7-16.5,25.8-34.9,29-54.4v6.1c-3.1,19.5-13.2,37.8-29,54.4V611.1"/>
<path class="st29" d="M1063,622.3c15.7-16.5,25.8-34.9,29-54.4v6.1c-3.1,19.5-13.2,37.8-29,54.4V622.3"/>
<path class="st29" d="M1063,646.1c15.7-16.5,25.8-34.9,29-54.4v6.2c-3.1,19.5-13.2,37.8-29,54.4V646.1"/>
<path class="st29" d="M1063,657.2c15.7-16.5,25.8-34.9,29-54.4v6.2c-3.1,19.5-13.2,37.8-29,54.4V657.2"/>
<path class="st29" d="M1074.1,655.1c9.4-12.9,15.5-26.7,17.9-41.1v6.2c-2.3,14.4-8.5,28.2-17.9,41.1V655.1"/>
<path class="st29" d="M1063,702.4c15.7-16.5,25.8-34.9,29-54.4v6.2c-3.1,19.5-13.2,37.8-29,54.4V702.4"/>
<path class="st29" d="M1063,713.6c15.7-16.5,25.8-34.9,29-54.4v6.2c-3.1,19.5-13.2,37.8-29,54.4V713.6"/>
<path class="st29" d="M1074.1,711.4c9.4-12.9,15.5-26.7,17.9-41.1v6.2c-2.3,14.4-8.5,28.2-17.9,41.1V711.4"/>
</svg>
