<svg  xmlns="http://www.w3.org/2000/svg" xmlns:xlink="http://www.w3.org/1999/xlink" viewBox="0 0 409.86 268.5"><defs><style>.be06c291-6f53-4930-ac6e-1980bfc39bc9,.e413160c-5747-4257-91f1-2787a2ef7e45{fill:#fff;}.accd356f-aed7-4252-84d5-2acd089e6b69{fill:#ff980d;}.e413160c-5747-4257-91f1-2787a2ef7e45{opacity:0.33;isolation:isolate;}.bdf26669-42b5-4aef-8dda-bfc85a951275{fill:#66c2ab;}.b58ab2cc-9ff3-49d2-80d9-8c0807a4e753{fill:#a2dab0;}.a8ac9124-28b1-4f63-8668-487bafdbb8a4{fill:#070b3b;}.b00bba63-0002-482e-ad30-c7b612479dd2{fill:#144d4c;}.b841d48b-7609-41c1-880f-f09bf1cefc3f{fill:#2d7770;}.aa7d4c64-617f-4b9a-8ef0-d1639e42687a{fill:#ffd131;}.b599104d-7039-4b39-b729-358ab8063cf3{fill:#061e43;}.b3d8ce78-88af-4991-89b6-e698a2656e43{fill:#a3daaf;}.ba34c3b1-6994-456d-b5e2-bddfdb509ef5{fill:url(#f66a95ae-677f-40f8-9ac1-8b983765ae84);}.a35c2fec-f900-4f41-9e00-3cda3bbd801c{fill:url(#b0dbb923-d7fd-4757-9edb-2f4774e66c8f);}.bc2ded75-431d-4115-861f-2d149be2c5de{fill:#a1dbcc;}.f345cb97-bf73-45ad-886c-551fde308336{fill:#41b3a7;}.baf1fb1c-d538-465d-9233-3643bf5d8c30{fill:url(#b018bd67-1b7e-49b2-a815-fa215566f04d);}.ac2724bf-d67c-4356-9692-568800aa7ef5{fill:url(#b276046e-18bb-4587-8e62-97db5d5864c8);}.f4975cfd-41b3-40df-b5e7-00e6272d5870{fill:#d1d1d0;}.b10f393a-c63e-47f9-93a9-e38f9ce87f37{fill:#fca372;}.ec263551-4a77-48b1-a85a-9cc87af32096{fill:url(#a561127e-2ef2-4e42-8c62-e1d28ef364fe);}.aa62ce35-c5cd-41b1-ac75-2e3eb7f32a6e{fill:url(#b9eb931c-120d-44d8-a653-08894b4a09e5);}.e380c2b4-1751-4093-8a7c-75a2e9c51cf4{fill:#fb886b;}.bfcfe3a5-055b-468e-b224-c384f57c3c42{fill:url(#b28d1c58-fdbe-4c8e-a420-dada92f2e19d);}.aac659a1-20a4-40fa-88d8-4aa82168d2b4{fill:#f81f4d;}.e25daadb-2315-4f51-a010-a7e1669874cf{fill:#071841;}.af790324-e094-4658-8472-96441c68b4b5{fill:url(#fcc6ab64-96ae-4990-b6ee-2810b2679492);}</style><linearGradient id="f66a95ae-677f-40f8-9ac1-8b983765ae84" x1="840.88" y1="223.05" x2="867.25" y2="223.05" gradientTransform="translate(871.6 327.5) rotate(180)" gradientUnits="userSpaceOnUse"><stop offset="0" stop-color="#edf8f1"/><stop offset="1" stop-color="#b5e3df"/></linearGradient><linearGradient id="b0dbb923-d7fd-4757-9edb-2f4774e66c8f" x1="840.85" y1="215.1" x2="862.12" y2="215.1" xlink:href="#f66a95ae-677f-40f8-9ac1-8b983765ae84"/><linearGradient id="b018bd67-1b7e-49b2-a815-fa215566f04d" x1="-75.11" y1="319.68" x2="-42.49" y2="319.68" gradientTransform="matrix(-1, -0.04, 0.04, -1, 233.46, 322.35)" xlink:href="#f66a95ae-677f-40f8-9ac1-8b983765ae84"/><linearGradient id="b276046e-18bb-4587-8e62-97db5d5864c8" x1="-81.8" y1="318.76" x2="-42.74" y2="318.76" gradientTransform="matrix(-1, -0.04, 0.04, -1, 233.46, 322.35)" xlink:href="#f66a95ae-677f-40f8-9ac1-8b983765ae84"/><linearGradient id="a561127e-2ef2-4e42-8c62-e1d28ef364fe" x1="179.02" y1="176.44" x2="194.56" y2="176.44" gradientTransform="matrix(1, 0, 0, -1, 0, 346)" gradientUnits="userSpaceOnUse"><stop offset="0" stop-color="#d8f0dd"/><stop offset="1" stop-color="#b5e3df"/></linearGradient><linearGradient id="b9eb931c-120d-44d8-a653-08894b4a09e5" x1="165.88" y1="174.45" x2="181.73" y2="174.45" xlink:href="#a561127e-2ef2-4e42-8c62-e1d28ef364fe"/><linearGradient id="b28d1c58-fdbe-4c8e-a420-dada92f2e19d" x1="158.61" y1="172.4" x2="172.89" y2="172.4" xlink:href="#a561127e-2ef2-4e42-8c62-e1d28ef364fe"/><linearGradient id="fcc6ab64-96ae-4990-b6ee-2810b2679492" x1="280.05" y1="190.92" x2="265.04" y2="137.04" gradientTransform="translate(561.93 346) rotate(180)" xlink:href="#a561127e-2ef2-4e42-8c62-e1d28ef364fe"/></defs><polygon class="be06c291-6f53-4930-ac6e-1980bfc39bc9" points="-43.98 -32.2 -43.98 -32.2 -43.98 -32.2 -43.98 -32.2"/><rect class="accd356f-aed7-4252-84d5-2acd089e6b69" x="89.79" y="102.8" width="5.8" height="32.1" transform="translate(-57.82 15.47) rotate(-17.78)"/><path class="e413160c-5747-4257-91f1-2787a2ef7e45" d="M95.88,134.6h-.2s-10.1-28.1-9.8-30.6,2.4-5.4,1.9-.6S95.88,134.6,95.88,134.6Z" transform="translate(-25.96 -18.5)"/><path class="bdf26669-42b5-4aef-8dda-bfc85a951275" d="M45.28,50.9c5.3-4.3,10.6-8.8,16.4-12.5.9-.6,4.6-3.4,2.2-1.5.8-.3,1.5-.6,2.3-.9,3.1-.1,6.1.2,9.2-.2a30.33,30.33,0,0,0,8.1-2.3,37.26,37.26,0,0,1,13.4,68.3,22.29,22.29,0,0,0-4.3,1c-.5.1-1,.3-1.5.4a45.35,45.35,0,0,0-6.4,1.3,20.86,20.86,0,0,0-6,2.9,37.18,37.18,0,0,1-33.4-56.5Z" transform="translate(-25.96 -18.5)"/><path class="b58ab2cc-9ff3-49d2-80d9-8c0807a4e753" d="M100.48,98.2a17.29,17.29,0,0,0-7.6,3.1c-1.4,1.1-3,2.1-4.5,3.1-.1,0-.2.1-.3.1L65.78,34.9a37.34,37.34,0,0,1,34.7,63.3Z" transform="translate(-25.96 -18.5)"/><path class="a8ac9124-28b1-4f63-8668-487bafdbb8a4" d="M41.58,81.8a37.29,37.29,0,1,0,24.1-46.9A37.29,37.29,0,0,0,41.58,81.8Zm4-1.3a33.14,33.14,0,1,1,41.7,21.4A33.17,33.17,0,0,1,45.58,80.5Z" transform="translate(-25.96 -18.5)"/><path class="a8ac9124-28b1-4f63-8668-487bafdbb8a4" d="M105.28,165.5l-14.1-37.7a1.82,1.82,0,0,1,1.1-2.3L97,124a1.81,1.81,0,0,1,2.2,1.2l8.6,26.9C105.08,151.2,108.18,164,105.28,165.5Z" transform="translate(-25.96 -18.5)"/><path class="b00bba63-0002-482e-ad30-c7b612479dd2" d="M104.28,171.1l-13.1-43.3a1.79,1.79,0,0,1,.9-2.2c.4.7,12,32.1,17.3,45.7C108.18,171.5,105.38,170.5,104.28,171.1Z" transform="translate(-25.96 -18.5)"/><path class="be06c291-6f53-4930-ac6e-1980bfc39bc9" d="M62.48,62.5a4.84,4.84,0,1,1-6.1-3.1A4.86,4.86,0,0,1,62.48,62.5Z" transform="translate(-25.96 -18.5)"/><path class="be06c291-6f53-4930-ac6e-1980bfc39bc9" d="M58.68,72.8a2.31,2.31,0,1,1-2.9-1.5A2.41,2.41,0,0,1,58.68,72.8Z" transform="translate(-25.96 -18.5)"/><path class="b00bba63-0002-482e-ad30-c7b612479dd2" d="M128,228.1s42.4-42,43.2-72.3c.4-14.6-15-23.8-28-17-37.9,19.8-21.7,87.5-21.7,87.5Z" transform="translate(-25.96 -18.5)"/><path class="b841d48b-7609-41c1-880f-f09bf1cefc3f" d="M125.88,233.3l-1.7-.1c.2-3.1,5.2-75.1,35.1-95.4l1.8.8C131.88,158.4,126,232.6,125.88,233.3Z" transform="translate(-25.96 -18.5)"/><path class="aa7d4c64-617f-4b9a-8ef0-d1639e42687a" d="M69.48,208.1c-10.1-5.1-17.3-10.6-22.3-15.9-13.6-14.5-11-37.8,5-49.5,9-6.6,21.9-11,39.1-5.1,37.7,12.9,38.5,99.1,38.5,99.1l-12.2,6.1C117.58,242.7,109.88,228.5,69.48,208.1Z" transform="translate(-25.96 -18.5)"/><path class="b599104d-7039-4b39-b729-358ab8063cf3" d="M104,249.5s-39.4,9.9-59.3-14a14.75,14.75,0,0,1,5.6-22.8c45.1-19.7,67.3,30.1,67.3,30.1Z" transform="translate(-25.96 -18.5)"/><path class="be06c291-6f53-4930-ac6e-1980bfc39bc9" d="M123.28,240.1l-1.7.4c-.2-.8-19.7-78.3-75.3-92.4l1.4-1.5C104.28,161,123.08,239.3,123.28,240.1Z" transform="translate(-25.96 -18.5)"/><path class="b00bba63-0002-482e-ad30-c7b612479dd2" d="M112,246c-.5-.3-45.6-29.2-70.6-19.8l.1-1.9c25.8-9.7,69.6,19,71.4,20.2Z" transform="translate(-25.96 -18.5)"/><polygon class="b3d8ce78-88af-4991-89b6-e698a2656e43" points="6.22 107.3 3.23 113.1 9.53 111.7 30.73 105 6.22 107.3"/><polygon class="bdf26669-42b5-4aef-8dda-bfc85a951275" points="3.23 113.1 13.82 112.4 11.22 111.1 3.23 113.1"/><polygon class="ba34c3b1-6994-456d-b5e2-bddfdb509ef5" points="6.22 107.3 4.42 101.6 30.73 105 6.22 107.3"/><polygon class="a35c2fec-f900-4f41-9e00-3cda3bbd801c" points="30.73 105 9.53 111.7 12.63 119.8 30.73 105"/><path class="bdf26669-42b5-4aef-8dda-bfc85a951275" d="M31.58,137.4a.1.1,0,0,1-.1-.1.48.48,0,0,1,0-.7,13.66,13.66,0,0,1,2.1-1.5.51.51,0,1,1,.5.9,13.3,13.3,0,0,0-1.9,1.4A.63.63,0,0,1,31.58,137.4Z" transform="translate(-25.96 -18.5)"/><path class="bdf26669-42b5-4aef-8dda-bfc85a951275" d="M38.58,191.9h0a14.07,14.07,0,0,1-3.9-3.4.5.5,0,1,1,.8-.6,15.35,15.35,0,0,0,3.6,3.2.57.57,0,0,1,.2.7C39.18,192,38.88,192,38.58,191.9Zm-5.4-5.7a.22.22,0,0,1-.2-.2,16.6,16.6,0,0,1-1.9-4.8c-.1-.3.1-.5.4-.6s.5.1.6.4a17.65,17.65,0,0,0,1.8,4.5.53.53,0,0,1-.2.7Zm-2.4-7.6c-.2-.1-.3-.2-.3-.4V178a20.5,20.5,0,0,1,.3-4.9.51.51,0,1,1,1,.2,25,25,0,0,0-.2,4.7v.2a.47.47,0,0,1-.5.5A.37.37,0,0,0,30.78,178.6Zm.9-8a.6.6,0,0,1-.3-.6,34.67,34.67,0,0,1,1.7-4.8.52.52,0,0,1,.7-.3.61.61,0,0,1,.3.7,32.66,32.66,0,0,0-1.6,4.7.63.63,0,0,1-.8.3Zm2.9-7.5a.57.57,0,0,1-.2-.7c.1-.1.1-.2.2-.3a15.45,15.45,0,0,1-2.2-1.2.5.5,0,0,1,.6-.8c.7.4,1.3.8,2.1,1.2a35.84,35.84,0,0,1,1.8-3.2.51.51,0,1,1,.9.5c-.6,1.1-1.2,2.1-1.7,3.1.5.2.9.3,1.4.5a.47.47,0,0,1-.3.9c-.5-.2-1.1-.3-1.6-.5-.1.1-.1.2-.2.4-.3.1-.6.3-.8.1Zm-4.5-4.1-.1-.1a15.67,15.67,0,0,1-2-2.5l-.9-1.8a.47.47,0,0,1,.9-.3,13,13,0,0,0,.8,1.7,18.76,18.76,0,0,0,1.8,2.4.48.48,0,0,1,0,.7A1.09,1.09,0,0,1,30.08,159Zm9.8,4.6a.55.55,0,0,1-.3-.5.54.54,0,0,1,.5-.5,15.11,15.11,0,0,0,4.8-.4c.3-.1.5.1.6.4s-.1.5-.4.6a14.51,14.51,0,0,1-5.1.4ZM26.48,152a1.38,1.38,0,0,1-.3-.4,15.13,15.13,0,0,1,0-5.2.51.51,0,0,1,1,.2,19.27,19.27,0,0,0,0,4.8.55.55,0,0,1-.4.6Zm21.2,10.1a.22.22,0,0,1-.2-.2.66.66,0,0,1,.2-.7c.4-.2.7-.4,1.1-.6a8.2,8.2,0,0,0,2.5-2.4.5.5,0,0,1,.8.6,10.26,10.26,0,0,1-2.8,2.7c-.4.2-.8.5-1.2.7A.6.6,0,0,1,47.68,162.1Zm-9.2-6h0a.53.53,0,0,1-.2-.7,20,20,0,0,1,3.2-4,.49.49,0,1,1,.7.7,18.6,18.6,0,0,0-3.1,3.8C39,156.2,38.78,156.2,38.48,156.1Zm-11.3-12a.48.48,0,0,1-.2-.6c.3-.7.6-1.5.9-2.2a15.76,15.76,0,0,1,1.5-2.4.5.5,0,0,1,.8.6c-.5.7-1,1.5-1.4,2.2s-.6,1.3-.9,2a.57.57,0,0,1-.7.4Zm25.6,12.1a.6.6,0,0,1-.3-.6,4.64,4.64,0,0,0-.3-3.3,3.11,3.11,0,0,0-.7-.9.49.49,0,0,1,.7-.7,3.6,3.6,0,0,1,.8,1.2,5.44,5.44,0,0,1,.4,4,.55.55,0,0,1-.6.4C52.88,156.2,52.78,156.2,52.78,156.2Zm-8.6-5.6a.22.22,0,0,1-.2-.2.66.66,0,0,1,.2-.7,8.44,8.44,0,0,1,5.2-.5.51.51,0,1,1-.2,1,7.26,7.26,0,0,0-4.6.4Z" transform="translate(-25.96 -18.5)"/><path class="bdf26669-42b5-4aef-8dda-bfc85a951275" d="M41.48,193.1a.6.6,0,0,1-.3-.6.42.42,0,0,1,.6-.3,9.26,9.26,0,0,0,2.3.4.5.5,0,1,1,0,1,8,8,0,0,1-2.6-.5Z" transform="translate(-25.96 -18.5)"/><polygon class="bdf26669-42b5-4aef-8dda-bfc85a951275" points="246.13 219.6 79.83 219.8 28.43 261.2 246.13 261.2 246.13 219.6"/><polygon class="bdf26669-42b5-4aef-8dda-bfc85a951275" points="174.03 219.6 340.32 219.8 391.73 261.2 174.03 261.2 174.03 219.6"/><path class="b841d48b-7609-41c1-880f-f09bf1cefc3f" d="M272.08,279.1H54.38c0,4.4,5,7.9,11.1,7.9h341.1c6.1,0,11.1-3.6,11.1-7.9Z" transform="translate(-25.96 -18.5)"/><path class="b841d48b-7609-41c1-880f-f09bf1cefc3f" d="M367.58,241.9H107a4.8,4.8,0,0,1-4.8-4.8V74.8A4.8,4.8,0,0,1,107,70h260.6a4.8,4.8,0,0,1,4.8,4.8V237.1A4.87,4.87,0,0,1,367.58,241.9Z" transform="translate(-25.96 -18.5)"/><path class="bdf26669-42b5-4aef-8dda-bfc85a951275" d="M358.38,234.3H115.78a6.59,6.59,0,0,1-6.6-6.6V83.3a6.59,6.59,0,0,1,6.6-6.6h242.7a6.59,6.59,0,0,1,6.6,6.6V227.8A6.6,6.6,0,0,1,358.38,234.3Z" transform="translate(-25.96 -18.5)"/><path class="be06c291-6f53-4930-ac6e-1980bfc39bc9" d="M297.78,271.8h-5.3a1.23,1.23,0,0,1-1.1-.7l-1.6-3.2a1.26,1.26,0,0,1,1.1-1.8h5a1.15,1.15,0,0,1,1.1.6l1.8,3.2A1.18,1.18,0,0,1,297.78,271.8Z" transform="translate(-25.96 -18.5)"/><path class="be06c291-6f53-4930-ac6e-1980bfc39bc9" d="M308.78,271.8h-5.1a1.25,1.25,0,0,1-1.1-.6l-1.9-3.2a1.26,1.26,0,0,1,1.1-1.9h4.9a1.38,1.38,0,0,1,1.1.6l2.1,3.2A1.26,1.26,0,0,1,308.78,271.8Z" transform="translate(-25.96 -18.5)"/><path class="be06c291-6f53-4930-ac6e-1980bfc39bc9" d="M161.58,250.1h-11.7a.73.73,0,0,1-.5-1.2l2.4-2.3a.76.76,0,0,1,.5-.2h11.4a.71.71,0,0,1,.5,1.2l-2,2.3A1.42,1.42,0,0,1,161.58,250.1Z" transform="translate(-25.96 -18.5)"/><path class="be06c291-6f53-4930-ac6e-1980bfc39bc9" d="M280.68,271.9H179.28a1.12,1.12,0,0,1-1-1.7l1.9-3.4a1.1,1.1,0,0,1,1-.6h98.1a1.23,1.23,0,0,1,1.1.7l1.4,3.4A1.21,1.21,0,0,1,280.68,271.9Z" transform="translate(-25.96 -18.5)"/><path class="be06c291-6f53-4930-ac6e-1980bfc39bc9" d="M142,250.1h-11.5a.7.7,0,0,1-.4-1.3l2.9-2.3a.76.76,0,0,1,.4-.2h11.2a.7.7,0,0,1,.5,1.2l-2.5,2.3C142.28,250.1,142.18,250.1,142,250.1Z" transform="translate(-25.96 -18.5)"/><path class="be06c291-6f53-4930-ac6e-1980bfc39bc9" d="M201.78,250.1h-12.1a.73.73,0,0,1-.6-1.1l1.3-2.3a.82.82,0,0,1,.6-.4h11.7a.78.78,0,0,1,.7,1l-.9,2.3A.75.75,0,0,1,201.78,250.1Z" transform="translate(-25.96 -18.5)"/><path class="be06c291-6f53-4930-ac6e-1980bfc39bc9" d="M182.28,250.1h-12a.72.72,0,0,1-.6-1.1l1.8-2.3a.6.6,0,0,1,.6-.3h11.6a.7.7,0,0,1,.6,1.1l-1.4,2.3A.71.71,0,0,1,182.28,250.1Z" transform="translate(-25.96 -18.5)"/><path class="be06c291-6f53-4930-ac6e-1980bfc39bc9" d="M241.78,250.1h-11.9a.92.92,0,0,1-.9-1l.2-2a.88.88,0,0,1,.9-.8h11.6a1,1,0,0,1,.9.8l.1,2A.92.92,0,0,1,241.78,250.1Z" transform="translate(-25.96 -18.5)"/><path class="be06c291-6f53-4930-ac6e-1980bfc39bc9" d="M222.48,250.1h-12.2a.74.74,0,0,1-.7-.9l.7-2.3a.75.75,0,0,1,.7-.5h11.9a.71.71,0,0,1,.7.8l-.4,2.3A.73.73,0,0,1,222.48,250.1Z" transform="translate(-25.96 -18.5)"/><path class="be06c291-6f53-4930-ac6e-1980bfc39bc9" d="M153.28,259.8H140a.73.73,0,0,1-.5-1.2l3.2-3.2a.76.76,0,0,1,.5-.2H156a.71.71,0,0,1,.5,1.2l-2.7,3.2A.76.76,0,0,1,153.28,259.8Z" transform="translate(-25.96 -18.5)"/><path class="be06c291-6f53-4930-ac6e-1980bfc39bc9" d="M131.58,259.8h-13a.7.7,0,0,1-.4-1.3l3.9-3.2a.76.76,0,0,1,.4-.2H135a.7.7,0,0,1,.5,1.2l-3.4,3.2A.91.91,0,0,1,131.58,259.8Z" transform="translate(-25.96 -18.5)"/><path class="be06c291-6f53-4930-ac6e-1980bfc39bc9" d="M198,259.8h-13.6a.73.73,0,0,1-.6-1.1l1.8-3.2a.82.82,0,0,1,.6-.4h13.1a.78.78,0,0,1,.7,1l-1.3,3.2C198.48,259.6,198.28,259.8,198,259.8Z" transform="translate(-25.96 -18.5)"/><path class="be06c291-6f53-4930-ac6e-1980bfc39bc9" d="M176.28,259.8h-13.5a.72.72,0,0,1-.6-1.1l2.5-3.2a.6.6,0,0,1,.6-.3h13a.7.7,0,0,1,.6,1.1l-2,3.2A.86.86,0,0,1,176.28,259.8Z" transform="translate(-25.96 -18.5)"/><path class="be06c291-6f53-4930-ac6e-1980bfc39bc9" d="M242.38,259.8H229a.92.92,0,0,1-.9-1l.3-2.8a.88.88,0,0,1,.9-.8h13a1,1,0,0,1,.9.8l.2,2.8A1.07,1.07,0,0,1,242.38,259.8Z" transform="translate(-25.96 -18.5)"/><path class="be06c291-6f53-4930-ac6e-1980bfc39bc9" d="M220.88,259.8h-13.7a.74.74,0,0,1-.7-.9l1-3.2a.75.75,0,0,1,.7-.5h13.2a.71.71,0,0,1,.7.8l-.5,3.2A.86.86,0,0,1,220.88,259.8Z" transform="translate(-25.96 -18.5)"/><path class="be06c291-6f53-4930-ac6e-1980bfc39bc9" d="M310.38,250.1h11.7a.73.73,0,0,0,.5-1.2l-2.4-2.3a.76.76,0,0,0-.5-.2h-11.4a.71.71,0,0,0-.5,1.2l2,2.3A.85.85,0,0,0,310.38,250.1Z" transform="translate(-25.96 -18.5)"/><path class="be06c291-6f53-4930-ac6e-1980bfc39bc9" d="M330,250.1h11.5a.7.7,0,0,0,.4-1.3l-2.9-2.3a.76.76,0,0,0-.4-.2h-11.2a.7.7,0,0,0-.5,1.2l2.5,2.3A.6.6,0,0,0,330,250.1Z" transform="translate(-25.96 -18.5)"/><path class="be06c291-6f53-4930-ac6e-1980bfc39bc9" d="M270.08,250.1h12.1a.73.73,0,0,0,.6-1.1l-1.3-2.3a.82.82,0,0,0-.6-.4h-11.7a.78.78,0,0,0-.7,1l.9,2.3C269.58,249.9,269.78,250.1,270.08,250.1Z" transform="translate(-25.96 -18.5)"/><path class="be06c291-6f53-4930-ac6e-1980bfc39bc9" d="M289.68,250.1h12a.72.72,0,0,0,.6-1.1l-1.8-2.3a.6.6,0,0,0-.6-.3h-11.6a.7.7,0,0,0-.6,1.1l1.4,2.3A.6.6,0,0,0,289.68,250.1Z" transform="translate(-25.96 -18.5)"/><path class="be06c291-6f53-4930-ac6e-1980bfc39bc9" d="M249.48,250.1h12.2a.74.74,0,0,0,.7-.9l-.7-2.3a.75.75,0,0,0-.7-.5h-11.9a.71.71,0,0,0-.7.8l.4,2.3C248.78,249.9,249.08,250.1,249.48,250.1Z" transform="translate(-25.96 -18.5)"/><path class="be06c291-6f53-4930-ac6e-1980bfc39bc9" d="M318.58,259.8h13.3a.73.73,0,0,0,.5-1.2l-3.2-3.2a.76.76,0,0,0-.5-.2h-12.8a.71.71,0,0,0-.5,1.2l2.7,3.2A.76.76,0,0,0,318.58,259.8Z" transform="translate(-25.96 -18.5)"/><path class="be06c291-6f53-4930-ac6e-1980bfc39bc9" d="M340.38,259.8h13a.7.7,0,0,0,.4-1.3l-3.9-3.2a.76.76,0,0,0-.4-.2H337a.7.7,0,0,0-.5,1.2l3.4,3.2A.55.55,0,0,0,340.38,259.8Z" transform="translate(-25.96 -18.5)"/><path class="be06c291-6f53-4930-ac6e-1980bfc39bc9" d="M274,259.8h13.6a.73.73,0,0,0,.6-1.1l-1.8-3.2a.82.82,0,0,0-.6-.4h-13.1a.78.78,0,0,0-.7,1l1.3,3.2A.75.75,0,0,0,274,259.8Z" transform="translate(-25.96 -18.5)"/><path class="be06c291-6f53-4930-ac6e-1980bfc39bc9" d="M295.68,259.8h13.5a.72.72,0,0,0,.6-1.1l-2.5-3.2a.6.6,0,0,0-.6-.3h-13a.7.7,0,0,0-.6,1.1l2,3.2A.6.6,0,0,0,295.68,259.8Z" transform="translate(-25.96 -18.5)"/><path class="be06c291-6f53-4930-ac6e-1980bfc39bc9" d="M251.08,259.8h13.7a.74.74,0,0,0,.7-.9l-1-3.2a.75.75,0,0,0-.7-.5h-13.2a.71.71,0,0,0-.7.8l.5,3.2A.67.67,0,0,0,251.08,259.8Z" transform="translate(-25.96 -18.5)"/><polygon class="a8ac9124-28b1-4f63-8668-487bafdbb8a4" points="89.63 209.4 331.63 208.8 331.63 65 89.72 65.3 89.63 75.7 89.63 209.4"/><path class="bc2ded75-431d-4115-861f-2d149be2c5de" d="M136.68,48.2s39.6,5.1,101.4-15.4c55.5,15.4,98.7,15.4,98.7,15.4s19.5,102.9-100,185.5C123,150.1,136.68,48.2,136.68,48.2Z" transform="translate(-25.96 -18.5)"/><path class="bc2ded75-431d-4115-861f-2d149be2c5de" d="M336.78,48.2s-42.8,0-97.9-15.2V232.2C356.08,149.9,336.78,48.2,336.78,48.2Z" transform="translate(-25.96 -18.5)"/><path class="bdf26669-42b5-4aef-8dda-bfc85a951275" d="M146.58,56.6s35.7,4.6,91.4-13.9c50.1,13.9,89,13.9,89,13.9s17.6,92.8-90.2,167.2C134.18,148.5,146.58,56.6,146.58,56.6Z" transform="translate(-25.96 -18.5)"/><path class="f345cb97-bf73-45ad-886c-551fde308336" d="M327,56.6s-38.5,0-88.3-13.7V222.5C344.28,148.2,327,56.6,327,56.6Z" transform="translate(-25.96 -18.5)"/><path class="be06c291-6f53-4930-ac6e-1980bfc39bc9" d="M213,103.1a26.23,26.23,0,0,1,52.2,0h8a34.31,34.31,0,0,0-68.4,0Z" transform="translate(-25.96 -18.5)"/><path class="aa7d4c64-617f-4b9a-8ef0-d1639e42687a" d="M271.48,159.7h-64.9a2.26,2.26,0,0,1-2.3-2.3V104.5a2.26,2.26,0,0,1,2.3-2.3h64.9a2.26,2.26,0,0,1,2.3,2.3v52.8A2.29,2.29,0,0,1,271.48,159.7Z" transform="translate(-25.96 -18.5)"/><path class="be06c291-6f53-4930-ac6e-1980bfc39bc9" d="M273.88,107.8v-4.5c0-.6-1-1.2-2.3-1.2h-64.9c-1.3,0-2.3.5-2.3,1.2v4.5Z" transform="translate(-25.96 -18.5)"/><path class="be06c291-6f53-4930-ac6e-1980bfc39bc9" d="M204.38,154.4v4.5c0,.6,1,1.2,2.3,1.2h64.9c1.3,0,2.3-.5,2.3-1.2v-4.5Z" transform="translate(-25.96 -18.5)"/><path class="b599104d-7039-4b39-b729-358ab8063cf3" d="M246.88,124.2a6.8,6.8,0,1,0-10.4,5.7v9.5a3.6,3.6,0,1,0,7.2,0v-9.5A6.55,6.55,0,0,0,246.88,124.2Z" transform="translate(-25.96 -18.5)"/><polygon class="baf1fb1c-d538-465d-9233-3643bf5d8c30" points="288.23 10.2 305.82 1.4 314.63 0 321.23 1.2 288.23 10.2"/><polyline class="b3d8ce78-88af-4991-89b6-e698a2656e43" points="288.23 10.2 320.73 3.2 321.23 1.2"/><polygon class="bdf26669-42b5-4aef-8dda-bfc85a951275" points="321.43 8.7 321.43 8.8 319.82 13.8 288.32 10.2 321.43 8.7"/><polygon class="ac2724bf-d67c-4356-9692-568800aa7ef5" points="327.73 6.1 323.23 2.2 288.43 10.2 318.13 10.4 327.73 6.1"/><path class="bdf26669-42b5-4aef-8dda-bfc85a951275" d="M423.58,91.2a16.81,16.81,0,0,1-3-1.5.45.45,0,0,0-.4.8,18.67,18.67,0,0,0,3.2,1.5,5.64,5.64,0,0,0,1.2.4c.1.1.3,0,.4-.1l.2-.2a.45.45,0,0,0-.3-.6A8.57,8.57,0,0,1,423.58,91.2Z" transform="translate(-25.96 -18.5)"/><path class="bdf26669-42b5-4aef-8dda-bfc85a951275" d="M363.18,21.4a43.22,43.22,0,0,0-4.7.6c-.3,0-.4.3-.4.5s.3.4.5.4c1.7-.2,3.2-.4,4.6-.5.1,0,.2,0,.2-.1a.76.76,0,0,0,.2-.4C363.68,21.6,363.48,21.4,363.18,21.4Z" transform="translate(-25.96 -18.5)"/><path class="bdf26669-42b5-4aef-8dda-bfc85a951275" d="M371,22.1a.52.52,0,0,0,.2-.4.46.46,0,0,0-.4-.5,36.84,36.84,0,0,0-4.7,0c-.3,0-.5.2-.4.5s.2.5.5.4a35.27,35.27,0,0,1,4.6,0C370.78,22.2,370.88,22.2,371,22.1Z" transform="translate(-25.96 -18.5)"/><path class="bdf26669-42b5-4aef-8dda-bfc85a951275" d="M414.78,85.2a.49.49,0,1,0-.7.7,21.09,21.09,0,0,0,3.6,3.1.45.45,0,0,0,.5,0l.1-.1a.49.49,0,0,0-.1-.7A24.33,24.33,0,0,1,414.78,85.2Z" transform="translate(-25.96 -18.5)"/><path class="bdf26669-42b5-4aef-8dda-bfc85a951275" d="M412.88,83.7a.59.59,0,0,0,.1-.7,6.07,6.07,0,0,1-.7-1,27.55,27.55,0,0,1-1.7-2.9.45.45,0,0,0-.8.4,23.81,23.81,0,0,0,1.8,3,7.63,7.63,0,0,0,.8,1.1c0,.2.3.3.5.1Z" transform="translate(-25.96 -18.5)"/><path class="bdf26669-42b5-4aef-8dda-bfc85a951275" d="M409.18,77.2a.1.1,0,0,0,.1-.1.37.37,0,0,0,.2-.5c-.5-1.4-.9-2.8-1.3-4.4a.51.51,0,0,0-1,.2,30.89,30.89,0,0,0,1.3,4.6A.66.66,0,0,0,409.18,77.2Z" transform="translate(-25.96 -18.5)"/><path class="bdf26669-42b5-4aef-8dda-bfc85a951275" d="M398.38,36.9c.4.5.7,1,1.1,1.5l1.5,2.4a.48.48,0,0,0,.6.2h0a.38.38,0,0,0,.1-.6l-1.5-2.4c-.4-.5-.7-1-1.1-1.5a.48.48,0,0,0-.7-.1C398.28,36.4,398.18,36.7,398.38,36.9Z" transform="translate(-25.96 -18.5)"/><path class="bdf26669-42b5-4aef-8dda-bfc85a951275" d="M402.18,43.2a32,32,0,0,1,1.7,4.3.49.49,0,0,0,.6.3.1.1,0,0,0,.1-.1c.2-.1.2-.3.2-.5-.5-1.5-1.1-3-1.7-4.4a.48.48,0,0,0-.6-.2C402.18,42.6,402.08,42.9,402.18,43.2Z" transform="translate(-25.96 -18.5)"/><path class="bdf26669-42b5-4aef-8dda-bfc85a951275" d="M393.38,31.4a34.26,34.26,0,0,1,3.3,3.3.47.47,0,0,0,.6.1h0a.48.48,0,0,0,0-.7c-1-1.2-2.2-2.3-3.3-3.4a.48.48,0,0,0-.7,0A.47.47,0,0,0,393.38,31.4Z" transform="translate(-25.96 -18.5)"/><path class="bdf26669-42b5-4aef-8dda-bfc85a951275" d="M384.88,25.8a.45.45,0,0,0,.5,0c.1,0,.1-.1.2-.2a.48.48,0,0,0-.2-.6,33.83,33.83,0,0,0-4.4-1.8.47.47,0,1,0-.3.9A21.74,21.74,0,0,1,384.88,25.8Z" transform="translate(-25.96 -18.5)"/><path class="bdf26669-42b5-4aef-8dda-bfc85a951275" d="M406.58,62.6c.1,0,.2,0,.2-.1a.52.52,0,0,0,.2-.4v-.6c-.1-1.4-.2-2.7-.3-4.1,0-.3-.3-.4-.5-.4s-.4.3-.4.5c.1,1.4.2,2.7.3,4.1v.6A.46.46,0,0,0,406.58,62.6Z" transform="translate(-25.96 -18.5)"/><path class="bdf26669-42b5-4aef-8dda-bfc85a951275" d="M391.18,29.7a.45.45,0,0,0,.5,0l.1-.1a.49.49,0,0,0-.1-.7,44,44,0,0,0-3.9-2.6.45.45,0,0,0-.4.8A31.94,31.94,0,0,1,391.18,29.7Z" transform="translate(-25.96 -18.5)"/><path class="bdf26669-42b5-4aef-8dda-bfc85a951275" d="M406.68,64.4c-.3,0-.4.2-.4.5.2,1.8.3,3.3.5,4.7,0,.3.3.4.5.4s.1,0,.2-.1a.76.76,0,0,0,.2-.5,46.25,46.25,0,0,1-.5-4.6A.46.46,0,0,0,406.68,64.4Z" transform="translate(-25.96 -18.5)"/><path class="bdf26669-42b5-4aef-8dda-bfc85a951275" d="M427.28,92.3a.47.47,0,0,0-.3.9c1.4.3,3,.6,4.7.8a.37.37,0,0,0,.3-.1c.1-.1.2-.2.2-.3a.46.46,0,0,0-.4-.5A32.51,32.51,0,0,1,427.28,92.3Z" transform="translate(-25.96 -18.5)"/><path class="bdf26669-42b5-4aef-8dda-bfc85a951275" d="M405,49.6a.55.55,0,0,0-.4.6c.3,1.4.6,2.9.8,4.6,0,.3.3.4.5.4s.1,0,.2-.1a.76.76,0,0,0,.2-.4c-.2-1.7-.5-3.2-.8-4.7C405.48,49.7,405.18,49.5,405,49.6Z" transform="translate(-25.96 -18.5)"/><path class="bdf26669-42b5-4aef-8dda-bfc85a951275" d="M375.18,21.7a8.75,8.75,0,0,0-1.6-.2.45.45,0,0,0-.1.9c.5.1,1.1.1,1.6.2,1,.2,2,.4,2.9.6a.6.6,0,0,0,.4-.1c.1-.1.2-.2.2-.3a.49.49,0,0,0-.3-.6C377.28,22.1,376.18,21.9,375.18,21.7Z" transform="translate(-25.96 -18.5)"/><path class="b841d48b-7609-41c1-880f-f09bf1cefc3f" d="M359.78,168.3s-45.3-19.8-54.9-42.9c-4.7-11.2,4.5-22.8,16.5-21.4,35.1,4,42.8,61.1,42.8,61.1Z" transform="translate(-25.96 -18.5)"/><path class="b00bba63-0002-482e-ad30-c7b612479dd2" d="M362.88,171.7l1.3-.6c-1.1-2.3-26.4-56.4-55.5-63.2l-1.1,1.1C336,115.7,362.68,171.1,362.88,171.7Z" transform="translate(-25.96 -18.5)"/><path class="aa7d4c64-617f-4b9a-8ef0-d1639e42687a" d="M399,135.4c6.3-7,10.2-13.3,12.5-18.9,6.2-15.2-2.8-32.5-18.6-36.7-8.9-2.4-20.2-1.9-31.7,7.7-25.3,21.2-.2,87.9-.2,87.9l11.2,1.1S373.78,163.2,399,135.4Z" transform="translate(-25.96 -18.5)"/><path class="b599104d-7039-4b39-b729-358ab8063cf3" d="M384.68,177.7s33.4-4.1,41.6-28.5a12.15,12.15,0,0,0-11.1-15.9c-40.7-1.7-43,43.3-43,43.3Z" transform="translate(-25.96 -18.5)"/><path class="be06c291-6f53-4930-ac6e-1980bfc39bc9" d="M367,176.2l1.4-.2c-.1-.7-8.1-66.3,30.6-93.7l-1.5-.8C358.08,109.4,366.88,175.5,367,176.2Z" transform="translate(-25.96 -18.5)"/><path class="b00bba63-0002-482e-ad30-c7b612479dd2" d="M377.48,177.4c.3-.4,26.5-36.1,48.6-36.3l-.7-1.5c-22.8.2-48,35.4-49.1,36.9Z" transform="translate(-25.96 -18.5)"/><circle class="b841d48b-7609-41c1-880f-f09bf1cefc3f" cx="346.41" cy="181.46" r="49.2"/><path class="b00bba63-0002-482e-ad30-c7b612479dd2" d="M372.38,150.8a49.2,49.2,0,1,0,49.2,49.2A49.16,49.16,0,0,0,372.38,150.8Zm.1,88.2a38.2,38.2,0,1,1,38.2-38.2A38.2,38.2,0,0,1,372.48,239Z" transform="translate(-25.96 -18.5)"/><path class="be06c291-6f53-4930-ac6e-1980bfc39bc9" d="M372.38,166.3a34.5,34.5,0,1,0,34.5,34.5A34.5,34.5,0,0,0,372.38,166.3Zm.1,61.8a26.7,26.7,0,1,1,26.7-26.7A26.69,26.69,0,0,1,372.48,228.1Z" transform="translate(-25.96 -18.5)"/><path class="f4975cfd-41b3-40df-b5e7-00e6272d5870" d="M372.68,218.6a16.8,16.8,0,1,1,16.8-16.8A16.77,16.77,0,0,1,372.68,218.6Z" transform="translate(-25.96 -18.5)"/><path class="be06c291-6f53-4930-ac6e-1980bfc39bc9" d="M393.58,201.3a21,21,0,1,1-21-21A21,21,0,0,1,393.58,201.3Z" transform="translate(-25.96 -18.5)"/><path class="b599104d-7039-4b39-b729-358ab8063cf3" d="M380.18,201.7a7.8,7.8,0,1,1-7.8-7.8A7.81,7.81,0,0,1,380.18,201.7Z" transform="translate(-25.96 -18.5)"/><path class="be06c291-6f53-4930-ac6e-1980bfc39bc9" d="M376.48,201.7a4.1,4.1,0,1,1-4.1-4.1A4.12,4.12,0,0,1,376.48,201.7Z" transform="translate(-25.96 -18.5)"/><path class="accd356f-aed7-4252-84d5-2acd089e6b69" d="M419.58,175.7c-3.8,2.7-6.9,6.6-7.6,8.6,0,.1-.1.2-.1.4h-.1v.1h.1c.2.1.3.2.4.2,1.9.9,7,1.4,11.5.6,6.9-1.2,11.5-3.1,12-5.5.3-1.6-1.5-3.5-6.6-2.6,3.3-1.9,4.2-5.4,2.9-6.4C430,169.8,425.18,171.6,419.58,175.7Z" transform="translate(-25.96 -18.5)"/><path class="aa7d4c64-617f-4b9a-8ef0-d1639e42687a" d="M388.58,186a9.34,9.34,0,0,1-.5,8.8l-.2.1h.1v.1l.1-.1a9.36,9.36,0,0,1,6.6,6c12.7-4.1,24.6-19.3,24.6-19.4C419.28,181.6,400.28,180.1,388.58,186Z" transform="translate(-25.96 -18.5)"/><path class="accd356f-aed7-4252-84d5-2acd089e6b69" d="M389.38,185.6c-6.6,2.5-10.6,9.7-9.8,11.9a2.51,2.51,0,0,0,.4.7c.1.2.1.5.2.7.9,2.2,8.8,4.6,15.3,1.7-1.1-2.9-2.3-5.6-3.1-7.5S390.58,188.5,389.38,185.6Z" transform="translate(-25.96 -18.5)"/><polygon class="accd356f-aed7-4252-84d5-2acd089e6b69" points="354.82 180.5 345.43 183.7 354.13 178.4 354.82 180.5"/><path class="a8ac9124-28b1-4f63-8668-487bafdbb8a4" d="M180.38,246.3s.8,1.1,4.3,2c.8.2,1.6.3,1.6,1.6h-3.5l-3.6-.6v.6h-2s-.5-3.2.6-3.6Z" transform="translate(-25.96 -18.5)"/><path class="b10f393a-c63e-47f9-93a9-e38f9ce87f37" d="M180.58,244l-.2,2.3h0a2.3,2.3,0,0,1-2.4.1l-.1-.1V244Z" transform="translate(-25.96 -18.5)"/><path class="a8ac9124-28b1-4f63-8668-487bafdbb8a4" d="M162.18,246.8s.8,1.1,4.3,2c.8.2,1.6.3,1.6,1.6h-3.5l-3.6-.6v.6h-2s-.5-3.2.6-3.6Z" transform="translate(-25.96 -18.5)"/><path class="b10f393a-c63e-47f9-93a9-e38f9ce87f37" d="M162.38,244.5l-.2,2.3h0a2.3,2.3,0,0,1-2.4.1l-.1-.1v-2.3Z" transform="translate(-25.96 -18.5)"/><path class="b599104d-7039-4b39-b729-358ab8063cf3" d="M182,187.6l-.9,57.7h-4.2s-6.4-46.6-5-57.7S182,187.6,182,187.6Z" transform="translate(-25.96 -18.5)"/><path class="a8ac9124-28b1-4f63-8668-487bafdbb8a4" d="M177.58,187.6s-1.5,17.7-4.8,27.5-9.4,30.2-9.4,30.2H159s7.3-42.5,5.6-57.7h13Z" transform="translate(-25.96 -18.5)"/><path class="ec263551-4a77-48b1-a85a-9cc87af32096" d="M181.28,158.2s5.2,12.1,6.5,12.1c1.1,0-.4-9.9-.4-9.9h4.3s5.5,16.9,1.1,20-13.9-8.7-13.9-8.7Z" transform="translate(-25.96 -18.5)"/><path class="b10f393a-c63e-47f9-93a9-e38f9ce87f37" d="M165.88,189.1l1.6,3.9c.8,1.5,3.5,1.6,5.4,1.1.3-.1.4-.4.2-.6a39.9,39.9,0,0,0-4.6-4.6Z" transform="translate(-25.96 -18.5)"/><path class="aa62ce35-c5cd-41b1-ac75-2e3eb7f32a6e" d="M179,155.7s2.7,1.8,2.7,3.9v27.9h-15.8V161.4s.3-5.8,6-5.8S179,155.7,179,155.7Z" transform="translate(-25.96 -18.5)"/><polygon class="bdf26669-42b5-4aef-8dda-bfc85a951275" points="155.53 169.1 155.53 144 156.03 144.1 156.03 169.1 155.53 169.1"/><path class="e380c2b4-1751-4093-8a7c-75a2e9c51cf4" d="M171.68,150.2l1.3,6.5a4,4,0,0,0,3.3.9c1.9-.4,1.7-1.8,1.7-1.8l-.8-4.1-3-.2Z" transform="translate(-25.96 -18.5)"/><path class="b10f393a-c63e-47f9-93a9-e38f9ce87f37" d="M177.58,152.8a2.1,2.1,0,0,0,1.4-.7c1.2-3.1-2.2-10.1-2.2-10.1l-6,2.4.8,5a4.17,4.17,0,0,0,2.2,3.1h0A6.16,6.16,0,0,0,177.58,152.8Z" transform="translate(-25.96 -18.5)"/><path class="a8ac9124-28b1-4f63-8668-487bafdbb8a4" d="M173.68,144a13.67,13.67,0,0,0,4.3-.8c2.1-.8.2-2.9.2-2.9a8.35,8.35,0,0,1-4.4,1.2c-2,.1-2.6-.2-3.7.7-1.5,1.2-.5,4.2-.5,4.2l2.2,6.3.3-.1s-.7-3.9-.9-5.2a.84.84,0,0,1,1-.7,1,1,0,0,1,.7.8l1.3,6.7s4.6,1,5.7.4-.7-5.4-.7-5.4a2,2,0,0,0-2.1,1c-.7,1.3-2.1.4-2.1.4Z" transform="translate(-25.96 -18.5)"/><path class="b10f393a-c63e-47f9-93a9-e38f9ce87f37" d="M190.88,160.5l-.2-.8a6.83,6.83,0,0,0-3.9-4.7H185l.6,3.9,2.6,1.6Z" transform="translate(-25.96 -18.5)"/><path class="b10f393a-c63e-47f9-93a9-e38f9ce87f37" d="M171.58,146.6a1.06,1.06,0,0,1,1.2.8c.2.6,0,1.2-.5,1.3a1.06,1.06,0,0,1-1.2-.8A1,1,0,0,1,171.58,146.6Z" transform="translate(-25.96 -18.5)"/><path class="b10f393a-c63e-47f9-93a9-e38f9ce87f37" d="M186.38,158.4l3.6,2.1h-2.3l-3.8-3.2s.3-.6,1.1-.1A4.63,4.63,0,0,1,186.38,158.4Z" transform="translate(-25.96 -18.5)"/><path class="bfcfe3a5-055b-468e-b224-c384f57c3c42" d="M167.58,157.4s-9,10-9,15.9,7.3,16.5,7.3,16.5l3.6-1.1s-3.2-13-3.2-16.5,6.7-8.5,6.7-8.5" transform="translate(-25.96 -18.5)"/><path class="bdf26669-42b5-4aef-8dda-bfc85a951275" d="M166.48,172.3c0,3,2.6,13.9,3.3,16.4-.2,0-.3.1-.5.1-.8-3.1-3.3-13.6-3.3-16.5,0-3.5,6.5-8.5,6.8-8.7l.3.4C173,164,166.48,169,166.48,172.3Z" transform="translate(-25.96 -18.5)"/><path class="aa7d4c64-617f-4b9a-8ef0-d1639e42687a" d="M184,151.9a10,10,0,0,0,1.6,7c.1.2.4.3.7.4a2,2,0,0,0,1.2-.2,1.39,1.39,0,0,0,.7-.5c.1-.2.1-.4-.1-.5-.5-.7-2-3.2-1.3-5.4A3.1,3.1,0,0,0,184,151.9Z" transform="translate(-25.96 -18.5)"/><path class="accd356f-aed7-4252-84d5-2acd089e6b69" d="M187.88,158.8c.3-.1.3-.2.4-.4s.1-.4-.1-.5c-.5-.7-2-3.2-1.3-5.4a2,2,0,0,0-1.4-.6C185.48,154.3,186,155.9,187.88,158.8Z" transform="translate(-25.96 -18.5)"/><path class="a8ac9124-28b1-4f63-8668-487bafdbb8a4" d="M186.08,155c.1.6.4,1,.6.9s.3-.5.2-1.1-.4-1-.6-.9S186,154.5,186.08,155Z" transform="translate(-25.96 -18.5)"/><polygon class="a8ac9124-28b1-4f63-8668-487bafdbb8a4" points="160.32 135.5 160.53 135.4 160.53 135.5 160.32 135.6 160.32 135.5"/><polygon class="aac659a1-20a4-40fa-88d8-4aa82168d2b4" points="160.72 137.5 161.03 137.4 160.63 137.4 160.72 137.5"/><path class="aa7d4c64-617f-4b9a-8ef0-d1639e42687a" d="M186.28,155c.1.6.4,1,.6.9s.3-.5.2-1.1-.4-1-.6-.9S186.18,154.5,186.28,155Z" transform="translate(-25.96 -18.5)"/><path class="a8ac9124-28b1-4f63-8668-487bafdbb8a4" d="M183,148.6h-.4a1.45,1.45,0,0,0-1.5,1.4v1.1a1.45,1.45,0,0,0,1.5,1.4h.4Z" transform="translate(-25.96 -18.5)"/><path class="a8ac9124-28b1-4f63-8668-487bafdbb8a4" d="M196,149.7c0,3-.7,5.5-1.6,5.5s-1.6-2.5-1.6-5.5.7-5.5,1.6-5.5S196,146.7,196,149.7Z" transform="translate(-25.96 -18.5)"/><polygon class="be06c291-6f53-4930-ac6e-1980bfc39bc9" points="166.82 129.2 168.13 130 168.13 131.8 166.82 132.9 166.32 130.6 166.82 129.2"/><path class="accd356f-aed7-4252-84d5-2acd089e6b69" d="M192.88,149.7c0-2.6.5-4.7,1.2-5.3h0a26.25,26.25,0,0,1-11.3,4.3v3.9s8.2-.5,11.3,2.5h0C193.38,154.4,192.88,152.3,192.88,149.7Z" transform="translate(-25.96 -18.5)"/><path class="aa7d4c64-617f-4b9a-8ef0-d1639e42687a" d="M194.18,149.4c0,.5-.1.9-.2.9s-.2-.4-.2-.9.1-.9.2-.9S194.18,148.9,194.18,149.4Z" transform="translate(-25.96 -18.5)"/><path class="b10f393a-c63e-47f9-93a9-e38f9ce87f37" d="M189,157.6a5.52,5.52,0,0,1-2,.3c-1,0-1.5-1.3-1.7-2a.65.65,0,0,1,.2-.8l1.7-.2Z" transform="translate(-25.96 -18.5)"/><path class="e380c2b4-1751-4093-8a7c-75a2e9c51cf4" d="M126,213.4c-2.4,16.9.2,34.4.2,34.3a12.05,12.05,0,0,1,1.9,0s2.6-20.5,3.2-27.4,0-7.3,0-7.3S128.28,196.5,126,213.4Z" transform="translate(-25.96 -18.5)"/><polygon class="aa7d4c64-617f-4b9a-8ef0-d1639e42687a" points="99.33 151.3 93.53 155 91.13 149.9 98.63 141.3 99.33 151.3"/><polygon class="b10f393a-c63e-47f9-93a9-e38f9ce87f37" points="129.82 117.4 122.83 135.9 118.22 132.6 128.32 115.5 129.82 117.4"/><path class="b10f393a-c63e-47f9-93a9-e38f9ce87f37" d="M156.18,129.7a2.74,2.74,0,0,0-1,1.8l-.9,2.6.3.5,1.2,1.4a2,2,0,0,1,.5-1l1.9-2.2s3.2-3.7.2-4.9c1.7-3.4.5-3.3.5-3.3l-1.5,2.9Z" transform="translate(-25.96 -18.5)"/><path class="b10f393a-c63e-47f9-93a9-e38f9ce87f37" d="M156.68,130.3s-.6-.6-.1-2-.3-1.3-.3-1.3-2.4,5.6-1.6,6.2S156.68,130.3,156.68,130.3Z" transform="translate(-25.96 -18.5)"/><path class="aa7d4c64-617f-4b9a-8ef0-d1639e42687a" d="M135.58,158.2l2.1.2,7.2-8.4,3.9,4.4a125.46,125.46,0,0,1-8.8,13.7c-.3,1.4-1.8,15.7-1.8,15.7h-12.5s2-10.5-1.5-16.3S135.58,158.2,135.58,158.2Z" transform="translate(-25.96 -18.5)"/><path class="b10f393a-c63e-47f9-93a9-e38f9ce87f37" d="M131.48,213.4c-2.4,16.9.2,34.4.2,34.3a12.05,12.05,0,0,1,1.9,0s2.6-20.5,3.2-27.4,0-7.3,0-7.3S133.78,196.5,131.48,213.4Z" transform="translate(-25.96 -18.5)"/><path class="b10f393a-c63e-47f9-93a9-e38f9ce87f37" d="M136,145.2l-7.2,2.5.7,5.4v.2c.1,0,.3.1.4.1h.2a5,5,0,0,1,3.4,3.4,8.08,8.08,0,0,0,3.1,0,3,3,0,0,0,1.6-.7C139.68,152.7,136,145.2,136,145.2Z" transform="translate(-25.96 -18.5)"/><path class="b599104d-7039-4b39-b729-358ab8063cf3" d="M136.18,149.7a4.56,4.56,0,0,0-.1,4.1,6.73,6.73,0,0,1,.2,5.7,7.61,7.61,0,0,1-2.6,2.4,4,4,0,0,0-1.9,3.1c-.2,1.7-.3,3.9-1.8,4.4-4.3,1.5-5.9,1.4-6.5-2.3a7.42,7.42,0,0,1,.4-3.5,6.37,6.37,0,0,0-.1-4.7,9.31,9.31,0,0,1-.8-2.8,7,7,0,0,1,1.5-3,6.22,6.22,0,0,0,1.3-4.4,5.57,5.57,0,0,1,1.7-4.9c3-2.5,9.5,1.5,9.5,1.5A6.63,6.63,0,0,1,136.18,149.7Z" transform="translate(-25.96 -18.5)"/><path class="b10f393a-c63e-47f9-93a9-e38f9ce87f37" d="M117.08,168.4l-2.8,2.9c-1.8,1.9-2.4,4.6-.2,6l9.1,7.2-.8,1.6a3.81,3.81,0,0,0,.3,4.1l1,1.3,2.1-7.3-6.6-8.2a1.69,1.69,0,0,1,.3-2.5h0Z" transform="translate(-25.96 -18.5)"/><path class="b00bba63-0002-482e-ad30-c7b612479dd2" d="M138.08,183.8a30.43,30.43,0,0,1,1.8,9.5c0,2.6-2.3,22.5-2.3,22.5h-11.9c.8-14.7-3.7-16.5-3.7-22.9,0-4.5,3.5-9.2,3.5-9.2h12.6Z" transform="translate(-25.96 -18.5)"/><path class="a8ac9124-28b1-4f63-8668-487bafdbb8a4" d="M126.18,245.5a2.19,2.19,0,0,0-.8,1.9c.2,1,.5,3.5.5,3.5H127v-2.3c0-.1,2.3,2.3,2.7,2.3h5.7s.4-1.5-2.9-2A12.85,12.85,0,0,1,126.18,245.5Z" transform="translate(-25.96 -18.5)"/><path class="e25daadb-2315-4f51-a010-a7e1669874cf" d="M132.18,245.5a2.19,2.19,0,0,0-.8,1.9c.2,1,.5,3.5.5,3.5H133v-2.3c0-.1,2.3,2.3,2.7,2.3h5.7s.4-1.5-2.9-2A12.85,12.85,0,0,1,132.18,245.5Z" transform="translate(-25.96 -18.5)"/><path class="a8ac9124-28b1-4f63-8668-487bafdbb8a4" d="M286.28,246.3a12.17,12.17,0,0,1-5,2.3c-.8.2-1.6-.1-1.6,1.2h4.2l3.5-.6v.6h1.9s.5-3.1-.6-3.5Z" transform="translate(-25.96 -18.5)"/><path class="b10f393a-c63e-47f9-93a9-e38f9ce87f37" d="M286.48,244.1l-.2,2.2h0a2.13,2.13,0,0,0,2.3.1l.1-.1.8-2.2Z" transform="translate(-25.96 -18.5)"/><path class="a8ac9124-28b1-4f63-8668-487bafdbb8a4" d="M303,246.3a12.17,12.17,0,0,1-5,2.3c-.8.2-1.6-.1-1.6,1.2h4.2l3.5-.6v.6H306s.5-3.1-.6-3.5Z" transform="translate(-25.96 -18.5)"/><path class="b10f393a-c63e-47f9-93a9-e38f9ce87f37" d="M303.18,244.1l-.2,2.2h0a2.13,2.13,0,0,0,2.3.1l.1-.1.8-2.2Z" transform="translate(-25.96 -18.5)"/><polygon class="a8ac9124-28b1-4f63-8668-487bafdbb8a4" points="266.93 170.2 262.13 170.2 260.43 226.1 263.73 226.1 273.32 180.6 266.93 170.2"/><polygon class="b599104d-7039-4b39-b729-358ab8063cf3" points="265.43 170.2 276.73 226.1 280.23 226.1 278.82 170.2 265.43 170.2"/><path class="a8ac9124-28b1-4f63-8668-487bafdbb8a4" d="M301.18,201l1.1-.1a2,2,0,0,1,.5-1.3,2.81,2.81,0,0,1,2-.6,3.4,3.4,0,0,1,2.2.6,1.39,1.39,0,0,1,.4.9l1.1.1a2.64,2.64,0,0,0-.7-1.7,4.14,4.14,0,0,0-3-1,3.56,3.56,0,0,0-2.8,1A2.78,2.78,0,0,0,301.18,201Z" transform="translate(-25.96 -18.5)"/><rect class="a8ac9124-28b1-4f63-8668-487bafdbb8a4" x="270.49" y="183.75" width="16.2" height="10.4"/><path class="aa7d4c64-617f-4b9a-8ef0-d1639e42687a" d="M304,209.2c0,.6.3.7.7.7s.7-.1.7-.7V207a42.78,42.78,0,0,0,7.3-1.3v8.2c0,.7-.3,1.3-.7,1.3h-14.7c-.4,0-.7-.6-.7-1.3v-8.2a50.67,50.67,0,0,0,7.5,1.3v2.2Z" transform="translate(-25.96 -18.5)"/><path class="accd356f-aed7-4252-84d5-2acd089e6b69" d="M299.78,206.4a29.09,29.09,0,0,0,2.5,4.2,55.85,55.85,0,0,0,3.9,4.6h-8.9c-.4,0-.7-.6-.7-1.3v-8.2A24.23,24.23,0,0,0,299.78,206.4Z" transform="translate(-25.96 -18.5)"/><path class="bdf26669-42b5-4aef-8dda-bfc85a951275" d="M297.28,200H312c.4,0,.7.6.7,1.3v4a22.25,22.25,0,0,1-7.3,1.2V206c0-.6-.3-.7-.7-.7s-.7.1-.7.7v.5a26.43,26.43,0,0,1-7.5-1.2v-4C296.58,200.6,296.78,200,297.28,200Z" transform="translate(-25.96 -18.5)"/><path class="be06c291-6f53-4930-ac6e-1980bfc39bc9" d="M303.78,208.3v-.7a.27.27,0,0,1,.3-.3h1.2a.27.27,0,0,1,.3.3v.7a.27.27,0,0,1-.3.3h-1.2A.45.45,0,0,1,303.78,208.3Zm.3-.9a.22.22,0,0,0-.2.2v.7a.22.22,0,0,0,.2.2h1.2a.22.22,0,0,0,.2-.2v-.7a.22.22,0,0,0-.2-.2Z" transform="translate(-25.96 -18.5)"/><path class="be06c291-6f53-4930-ac6e-1980bfc39bc9" d="M304.58,207.9h0a.14.14,0,0,0,.2,0v-1a.1.1,0,0,0-.1-.1h0a.1.1,0,0,0-.1.1Z" transform="translate(-25.96 -18.5)"/><path class="b10f393a-c63e-47f9-93a9-e38f9ce87f37" d="M264.88,180.4a5.81,5.81,0,0,1-2.3.7c-1.3.1-4.2-.5-3.7.9a29.8,29.8,0,0,1,2.7,1.7,4.82,4.82,0,0,0,3.1-.4l2.5-1.5s.2-1.4.2-1.5l-.6-.2C266.28,180.2,265.58,180.3,264.88,180.4Z" transform="translate(-25.96 -18.5)"/><path class="b10f393a-c63e-47f9-93a9-e38f9ce87f37" d="M264.38,180.9a.31.31,0,0,1-.1.2,1.69,1.69,0,0,0,.5.2c.7,0,1.4.1,2.1.1a7.72,7.72,0,0,0-.1-1l-4.6-1.1s-.4.5.5,1A4.56,4.56,0,0,0,264.38,180.9Z" transform="translate(-25.96 -18.5)"/><path class="b10f393a-c63e-47f9-93a9-e38f9ce87f37" d="M304,195.2l-1.5,3.3a6.63,6.63,0,0,0,1,2.6.78.78,0,0,0,.8.2,12,12,0,0,0,2.3-1.2,1.27,1.27,0,0,0,.1-.6l-.4-1.5-.1-3.4Z" transform="translate(-25.96 -18.5)"/><polygon class="e380c2b4-1751-4093-8a7c-75a2e9c51cf4" points="269.13 136.5 269.02 141 273.02 140.8 273.32 133.9 269.13 136.5"/><path class="b10f393a-c63e-47f9-93a9-e38f9ce87f37" d="M294.38,155.5a2.06,2.06,0,0,1-1.3-.3c-1.6-2.3.2-8.6.2-8.6l2.6-1.1,3.3,2,.2,4.2a3.51,3.51,0,0,1-1.5,2.9h0A7.3,7.3,0,0,1,294.38,155.5Z" transform="translate(-25.96 -18.5)"/><path class="a8ac9124-28b1-4f63-8668-487bafdbb8a4" d="M298.18,149.9c-.2-.7.3-2.3-.4-2.2a26.42,26.42,0,0,1-2.9.2c-1.4,0-4-.6-4-2.8a1.88,1.88,0,0,1,1.4-1.9c.7-.3,1.4.5,2.1.8a16.12,16.12,0,0,0,5.7.8,1.83,1.83,0,0,1,2,1.4c.2,1.3-.7,3.2-1.3,4.5a13.3,13.3,0,0,1-1.4,1.9h0Z" transform="translate(-25.96 -18.5)"/><path class="b10f393a-c63e-47f9-93a9-e38f9ce87f37" d="M300.08,150a1.06,1.06,0,0,0-1.3.1c-.4.4-.5.9-.2,1.2a1.06,1.06,0,0,0,1.3-.1C300.28,150.8,300.38,150.3,300.08,150Z" transform="translate(-25.96 -18.5)"/><path class="af790324-e094-4658-8472-96441c68b4b5" d="M297.08,158.1a11.18,11.18,0,0,1,11,8.8c1.3,5.4,3.4,18.2-1.5,29.4a32.65,32.65,0,0,1-3.3,0l-.5-26.4.4,18.9h-15.1V176.6s-.4,2.7-4,5.3-17.4.9-17.4.9v-2.9s12-2.5,14-4,6.2-12.2,6.2-12.2a9.54,9.54,0,0,1,6.6-5.1A12.5,12.5,0,0,1,297.08,158.1Z" transform="translate(-25.96 -18.5)"/><polygon class="bdf26669-42b5-4aef-8dda-bfc85a951275" points="277.02 170.3 276.73 152.1 277.02 152.1 277.43 170.3 277.02 170.3"/><polygon class="be06c291-6f53-4930-ac6e-1980bfc39bc9" points="273.13 138.3 273.32 139.8 268.73 139.8 269.02 138.3 273.13 138.3"/><path class="e25daadb-2315-4f51-a010-a7e1669874cf" d="M338.78,247.2h-8.4c-1.1.1-2.4.4-2.6,1.4a8.87,8.87,0,0,0-.1,1.3c.3.3,11.4,0,11.4,0h0A1.8,1.8,0,0,0,338.78,247.2Z" transform="translate(-25.96 -18.5)"/><polygon class="a8ac9124-28b1-4f63-8668-487bafdbb8a4" points="301.82 231.4 313.23 231.3 313.13 231.7 301.73 231.7 301.82 231.4"/><polygon class="be06c291-6f53-4930-ac6e-1980bfc39bc9" points="309.52 228.7 308.73 228.7 309.02 229.7 309.73 229.7 309.52 228.7"/><polygon class="be06c291-6f53-4930-ac6e-1980bfc39bc9" points="307.93 228.7 307.13 228.7 307.43 229.7 308.13 229.7 307.93 228.7"/><path class="b10f393a-c63e-47f9-93a9-e38f9ce87f37" d="M339.38,244.4l-.6,2.8h0a2.81,2.81,0,0,1-2.2.1l-.1-.1-.4-2.8Z" transform="translate(-25.96 -18.5)"/><path class="a8ac9124-28b1-4f63-8668-487bafdbb8a4" d="M358.38,247.2H350c-1.1.1-2.4.4-2.6,1.4a8.87,8.87,0,0,0-.1,1.3c.3.3,11.4,0,11.4,0h0A1.88,1.88,0,0,0,358.38,247.2Z" transform="translate(-25.96 -18.5)"/><polygon class="a8ac9124-28b1-4f63-8668-487bafdbb8a4" points="321.32 231.4 332.73 231.3 332.63 231.7 321.32 231.7 321.32 231.4"/><polygon class="be06c291-6f53-4930-ac6e-1980bfc39bc9" points="329.13 228.7 328.32 228.7 328.52 229.7 329.32 229.7 329.13 228.7"/><polygon class="be06c291-6f53-4930-ac6e-1980bfc39bc9" points="327.43 228.7 326.73 228.7 326.93 229.7 327.73 229.7 327.43 228.7"/><path class="b10f393a-c63e-47f9-93a9-e38f9ce87f37" d="M358,244.4l.4,2.8h0a2.81,2.81,0,0,1-2.2.1l-.1-.1-1.3-2.8Z" transform="translate(-25.96 -18.5)"/><path class="b10f393a-c63e-47f9-93a9-e38f9ce87f37" d="M345.48,150.7l6.9,4.5-2.1,5.4c0,.1-.1.1-.1.2h-.7a5.32,5.32,0,0,0-4.4,2.7,13.23,13.23,0,0,1-3.3-.8,2.69,2.69,0,0,1-1.5-1.2C339.68,157.6,345.48,150.7,345.48,150.7Z" transform="translate(-25.96 -18.5)"/><path class="b10f393a-c63e-47f9-93a9-e38f9ce87f37" d="M336.78,152.1s-.8,8,.9,13.1c-.8.7-3.7,3.8-4.6-.2s1-14.3,1-14.3Z" transform="translate(-25.96 -18.5)"/><polygon class="a8ac9124-28b1-4f63-8668-487bafdbb8a4" points="314.93 133 316.52 134 315.93 135.2 314.23 134.5 314.93 133"/><path class="a8ac9124-28b1-4f63-8668-487bafdbb8a4" d="M341.78,153c-.2.4-.2.7,0,.8s.4-.2.6-.6.2-.7,0-.8S342,152.6,341.78,153Z" transform="translate(-25.96 -18.5)"/><path class="a8ac9124-28b1-4f63-8668-487bafdbb8a4" d="M321.28,145.6h0a14.73,14.73,0,0,1,1.6-2.9,10.23,10.23,0,0,0,1.5-2.5l16.7,11-1.1,2-18.7-6.9Z" transform="translate(-25.96 -18.5)"/><polygon class="e380c2b4-1751-4093-8a7c-75a2e9c51cf4" points="321.02 145 321.63 148.7 316.32 148.7 315.93 144.1 321.02 145"/><path class="b10f393a-c63e-47f9-93a9-e38f9ce87f37" d="M333.28,172.8s-6.3-2-8.3-4.7,1.4-17.4,1.4-17.4L326,148a2.51,2.51,0,0,1,2.4-2.9h1.7a1,1,0,0,1,.9,1.4l-2.2,5s-1.7,11.2.7,12a24.9,24.9,0,0,0,5.9,1.2Z" transform="translate(-25.96 -18.5)"/><path class="e25daadb-2315-4f51-a010-a7e1669874cf" d="M345.08,163.5l1.6-3.6-1.1-.7a1.91,1.91,0,0,1-.8-2.3l1.2-3.4s-3.3-.4-3.2-3.5c0-1.6,2.2-1.6,2.2-1.6a3.14,3.14,0,0,0,2.7,1.6c.9-.1,3.2.2,4.8,3,1.1,1.9.6,4.8-.3,7-.8,2-3,3.1-5.1,3.4h-2Z" transform="translate(-25.96 -18.5)"/><path class="a8ac9124-28b1-4f63-8668-487bafdbb8a4" d="M351.48,193.6a111.65,111.65,0,0,1-2,16,13.93,13.93,0,0,0,.5,7.3c3.8,11.2,9,28,9,28h-4.7s-10.6-19.8-13.4-29.7-3.2-13-3.2-13l3.3-8.6Z" transform="translate(-25.96 -18.5)"/><path class="b10f393a-c63e-47f9-93a9-e38f9ce87f37" d="M347.58,158.2a1.54,1.54,0,0,1-.9,1.7c-.7.4-1.4.2-1.6-.4a1.54,1.54,0,0,1,.9-1.7C346.68,157.5,347.38,157.6,347.58,158.2Z" transform="translate(-25.96 -18.5)"/><path class="aa7d4c64-617f-4b9a-8ef0-d1639e42687a" d="M336.18,193.6h15.3V174a8.35,8.35,0,0,0-7.5-8.3l-10.6-1.3s-1.2,1.9-4.7,6.4a36.1,36.1,0,0,0,9,3.8Z" transform="translate(-25.96 -18.5)"/><path class="b599104d-7039-4b39-b729-358ab8063cf3" d="M351.48,193.6s-2.2,7.8-10.1,16.6a10.66,10.66,0,0,0-3,8l1.6,26.7h-4.8s-5.8-22.2-4.5-33.1a48.79,48.79,0,0,1,5.5-18.1h15.3Z" transform="translate(-25.96 -18.5)"/><path class="be06c291-6f53-4930-ac6e-1980bfc39bc9" d="M323.88,143.8c-.8,1.7-1.9,2.9-2.5,2.6s-.3-1.9.5-3.6,1.9-2.9,2.5-2.6S324.68,142.1,323.88,143.8Z" transform="translate(-25.96 -18.5)"/><path class="b10f393a-c63e-47f9-93a9-e38f9ce87f37" d="M337.38,148.8l-.1.1a2.22,2.22,0,0,1-1.6.1h-.1a2.92,2.92,0,0,1-1.8-1.8h0a.53.53,0,0,1,.6-.7l1.1.2a1.45,1.45,0,0,1,1,.7Z" transform="translate(-25.96 -18.5)"/></svg>