<svg id="a69fcc1a-2b2a-4d60-b588-9591662a1155" data-name="Layer 1" xmlns="http://www.w3.org/2000/svg" viewBox="0 0 1182.92 1255.41"><defs><style>.e57d2526-db2b-4f72-bf58-ae6ca4ced2fb,.fee2bb85-b2ce-4d51-b78e-6862063b4208{fill:#b5e3df;}.fee2bb85-b2ce-4d51-b78e-6862063b4208{opacity:0.5;}.b1bd910b-744e-4274-b5a7-b1aefa35cad2,.bb0e5505-4a47-457c-a9b7-7e3801b4bb5a,.fee2bb85-b2ce-4d51-b78e-6862063b4208{isolation:isolate;}.f20204ba-76f0-4854-84ba-fa57bf61083d{fill:#66c2ab;}.ad068872-3e9e-40e7-9cf2-0d8bf405c213{fill:#2d6375;}.a6f683d4-14f3-4647-9bd5-24f480b95379,.bcbdf8d4-fdd2-4850-9e40-9bcc94075636,.e07cb149-6284-433e-a585-a2545571992f,.e863c737-b526-45b2-afd4-456dcf846d87,.f6095cea-8fa2-4ee7-9f55-91d46e7c8712{fill:none;stroke-linecap:round;stroke-linejoin:round;}.e863c737-b526-45b2-afd4-456dcf846d87{stroke:#fffcfa;stroke-width:2px;}.e7d1a73d-c9f5-4972-b6fc-b73ca9a1a470{fill:#fffcfa;}.b6949cd9-cd70-40bb-aac1-3049b31ddef0{fill:#519399;}.b3ad8d18-d71f-46b0-a63c-1c7ebdcb6100{fill:#73d0d9;}.bd39ce6f-9fc6-4a53-b6e1-f4963740d066{fill:#fff;}.f2b87101-9fd4-46f3-94dc-cc6332a30284{fill:#071841;}.ad56e6f0-cb86-481d-9dab-69b78bafb4d3{fill:#506c75;}.b1bd910b-744e-4274-b5a7-b1aefa35cad2{fill:#5b67f0;opacity:0.21;}.b17d25be-871e-4aea-8513-946468a16a97{fill:#ffd131;}.b399fc83-57bf-4641-9565-6155693d48e4{fill:#5ecff5;}.bcbdf8d4-fdd2-4850-9e40-9bcc94075636,.e07cb149-6284-433e-a585-a2545571992f{stroke:#071841;}.e07cb149-6284-433e-a585-a2545571992f{stroke-width:3px;}.e18d0bba-551b-4fca-a727-fae1c82f6725{fill:#fca372;}.bb0e5505-4a47-457c-a9b7-7e3801b4bb5a{fill:#637a94;opacity:0.4;}.a6ebbe7c-b732-4975-8646-393c7b5f69b5{fill:#24307d;}.ae3df041-31e6-4027-a995-362de5de6a72{fill:#a8e3f7;}.f7abfd32-67bc-49b3-abb4-6322d36137eb{fill:#41b3a7;}.ade0c9a9-3b59-42f4-93ba-db58c9a27700{fill:#ffc2b0;}.b41c3651-3b81-484a-9e91-49d1537c332f{fill:#061e43;}.b6d3a6b9-5eeb-491c-8e97-776489839256{fill:#144d4c;}.f9536eb9-12d1-4408-bc6f-d20e5944dea9{fill:#af6641;}.f2738f07-23f4-481b-aeea-d653d8b550b0{fill:#0e2e82;}.a6f683d4-14f3-4647-9bd5-24f480b95379,.f6095cea-8fa2-4ee7-9f55-91d46e7c8712{stroke:#fff;}.a6f683d4-14f3-4647-9bd5-24f480b95379{stroke-width:5.65px;}.f6095cea-8fa2-4ee7-9f55-91d46e7c8712{stroke-width:4px;}</style></defs><g id="e504da88-e7d4-442e-8984-6c07648dfcaa" data-name="image"><path class="fee2bb85-b2ce-4d51-b78e-6862063b4208" d="M1146.27,624.56c-16.9-62-23.8-126.9-17.3-191.1,13.8-138.4-43.7-280.2-158.7-359.4-128.5-88.6-289.7-72-399.7,28.7-50.2,46-46.8,64.7-109.2,86.3-49.2,17.1-131.6,83.4-166.5,161.2-65.2,145-43.5,311.2,81.9,397.5,88.4,60.9,165.1,51.5,248.5-3.4,10.2,84.3,53.5,163.2,124.6,211.8,124.9,85.3,289.8,43.8,367.4-92.5C1159.47,789.56,1167.57,702.46,1146.27,624.56Z"/><path class="f20204ba-76f0-4854-84ba-fa57bf61083d" d="M365.17,581.56s-199.4-70-137.9-373C227.27,208.56,491.17,362.66,365.17,581.56Z"/><path class="ad068872-3e9e-40e7-9cf2-0d8bf405c213" d="M376.07,670.16s-299.3-1.5-357-435.7C19.07,234.46,443.57,318.86,376.07,670.16Z"/><line class="e863c737-b526-45b2-afd4-456dcf846d87" x1="325.57" y1="600.96" x2="69.07" y2="299.76"/><line class="e863c737-b526-45b2-afd4-456dcf846d87" x1="130.77" y1="373.86" x2="60.07" y2="358.86"/><line class="e863c737-b526-45b2-afd4-456dcf846d87" x1="192.77" y1="441.46" x2="89.77" y2="433.86"/><line class="e863c737-b526-45b2-afd4-456dcf846d87" x1="139.17" y1="294.76" x2="130.77" y2="373.86"/><line class="e863c737-b526-45b2-afd4-456dcf846d87" x1="208.57" y1="337.86" x2="192.77" y2="441.46"/><line class="e863c737-b526-45b2-afd4-456dcf846d87" x1="273.87" y1="411.46" x2="257.97" y2="515.16"/><line class="e863c737-b526-45b2-afd4-456dcf846d87" x1="253.17" y1="518.66" x2="150.17" y2="511.06"/><polygon class="e57d2526-db2b-4f72-bf58-ae6ca4ced2fb" points="785.37 1136.06 1028.67 959.76 785.37 892.26 785.37 1136.06"/><path class="e7d1a73d-c9f5-4972-b6fc-b73ca9a1a470" d="M774.47,183.86s-4.3-42.3-36.2-47.3-30.4,17-30.4,17-.5-42.5-36.8-52.6-28.2,48-28.2,48Z"/><path class="e7d1a73d-c9f5-4972-b6fc-b73ca9a1a470" d="M918.77,434.26s5.4-53.6,45.7-38.7,38.3,43.2,38.3,43.2.7-56.5,46.3-45.4,35.6,83.2,35.6,83.2Z"/><path class="b6949cd9-cd70-40bb-aac1-3049b31ddef0" d="M838,310.06a74,74,0,0,0-13.7-42.1l.2-.2c-7.9-11.2-18.5-19.6-30.3-22.6L391.57,143c-10.2-2.6-19.5-.7-27,4.5l-24.4,18.4,7.7,786a2.15,2.15,0,0,0,.2,1c.1,29.2,19.6,57.7,43.7,63.8l407.5,110.6,17.5-13.9c13.3-10.6,21.2-20.8,21.2-40.1Z"/><path class="b3ad8d18-d71f-46b0-a63c-1c7ebdcb6100" d="M546.67,491.66S326.27,1001,327,970.86l11-805.7,26.1-18.9c7.6-5.4,17.1-7.3,27.3-4.7l403,103.3c11.8,3,22.3,11.6,30,23Z"/><path class="bd39ce6f-9fc6-4a53-b6e1-f4963740d066" d="M768.67,1134.36l-401.6-102.5c-24.1-6.1-42.7-35.1-42.7-64.4V200.56c0-29.3,19-48,43.2-41.8L769,261.26c24.1,6.1,42.5,35.2,42.5,64.5v766.9C811.37,1122,792.77,1140.56,768.67,1134.36Z"/><path class="f2b87101-9fd4-46f3-94dc-cc6332a30284" d="M760.57,1139.36,359,1036.86c-24.1-6.1-42.7-35.1-42.7-64.4V205.56c0-29.3,19-48,43.2-41.8l401.4,102.5c24.1,6.1,42.5,35.2,42.5,64.5v766.9C803.27,1127,784.67,1145.46,760.57,1139.36Z"/><path class="ad56e6f0-cb86-481d-9dab-69b78bafb4d3" d="M770.27,318a8.64,8.64,0,0,0-6.8-8.8l-401.9-102c-9-2.3-20.3,6.7-20.3,16.2v664.8h0v76.9a8.64,8.64,0,0,0,6.8,8.8l401.9,102c9,2.3,20.3-6.7,20.3-16.2V394.86h0Z"/><path class="b1bd910b-744e-4274-b5a7-b1aefa35cad2" d="M713,536.66l-369-94c-15.2-3.9-27.7-22.1-27.7-40.6V256.36c0-18.4,12.5-30.3,27.7-26.4l369,94c15.2,3.9,27.7,22.1,27.7,40.6v145.7C740.67,528.66,728.17,540.56,713,536.66Z"/><path class="b17d25be-871e-4aea-8513-946468a16a97" d="M687.37,559.76l-369-94c-15.2-3.9-27.7-22.1-27.7-40.6V279.46c0-18.4,12.5-30.3,27.7-26.4l369,94c15.2,3.9,27.7,22.1,27.7,40.6v145.7C715.07,551.76,702.57,563.66,687.37,559.76Z"/><ellipse class="f2b87101-9fd4-46f3-94dc-cc6332a30284" cx="615.42" cy="432.21" rx="68.6" ry="88.1" transform="translate(-131.93 348.44) rotate(-28.68)"/><path class="bd39ce6f-9fc6-4a53-b6e1-f4963740d066" d="M594.47,468.36c-.3-.2-.2-.4.2-.6,1.3-.7,2.3-1.8,3.5-2.5a3,3,0,0,0,.8-.4,8.55,8.55,0,0,0,0-1.6c.1-3.4.1-6.9.2-10.3,0-.7,1-.6,1,.1v.8l.2-3.6,28.9,4.2c-.1.7-.2,1.5-.3,2.5a.53.53,0,0,1,.8.5c-.1,3.4-.1,6.7-.2,10.1a4.8,4.8,0,0,0,0,1.2c.1-.2.8.9,1,1.2,1.1,1.3,3.7,3.2,4.8,4.4.5.6,5.4,6.2,4.9,5.6s3.8,8.3-1.5,2.6c1.2,1.6,13.3,10.5,13.3,10.5l-38.2-1.2L585,475.76Z"/><path class="bd39ce6f-9fc6-4a53-b6e1-f4963740d066" d="M590.37,414.56c.6.2.7,1.4,0,1.2-5.1-1.5-3.5,9.4-3,12.7-.4-3-1.3-8.2-.7-11,.2-1,1.5-1.9,2.2-2.6s1.4,1.1,2.3,1.6l3.3,22.3h-.2c.1.4,0,.8-.4.8-5.6-.2-7-7.8-7.6-12.9C585.57,422.86,584.87,413,590.37,414.56Z"/><path class="bd39ce6f-9fc6-4a53-b6e1-f4963740d066" d="M634.17,445.46c5.6,1.6,7-5.6,7.7-10.4.5-3.7,1.3-13.3-4.2-13.4-.6,0-.6,1.2,0,1.2h-.3l-3.5,21.3a6.47,6.47,0,0,0,1.3.4,5.16,5.16,0,0,1-1.1-.2C633.47,444.06,633.47,445.26,634.17,445.46Z"/><path class="bd39ce6f-9fc6-4a53-b6e1-f4963740d066" d="M593.57,396.06c2.7-6.7,8-9.9,14.5-9.9,1.8.1,3.7.4,5.5.6h.3c5.5.9,11,2,15.5,7.1,4.3,4.8,6.2,11.5,6.9,17.8a108.43,108.43,0,0,1-.2,22.8c-.5,5.5-.4,11.8-2.3,16.8-2.6,6.5-7.6,9-13.3,10.7s-11.6-.9-17.1-4.6c-6.1-4.1-9.7-11.5-10.5-19.3-.6-6.4-1.4-12.8-1.7-19.1C590.87,411.16,591,402.86,593.57,396.06Z"/><path class="b399fc83-57bf-4641-9565-6155693d48e4" d="M595.27,421.46a2.13,2.13,0,0,1,.2-2.7l.6-.6c1.4-1.4,2.9-3,5.1-2.7a24.35,24.35,0,0,1,6.8,1.9,3,3,0,0,1,1.4,3.2c-.2,1.1-1,1.6-1.9,1.2h0a16.66,16.66,0,0,0-3-.8c-.8-.2-1.7-.4-2.6-.7-1.7-.6-3-.2-4.5,1.3a1.58,1.58,0,0,1-1.2.5A1.4,1.4,0,0,1,595.27,421.46Zm12.7-1.6Z"/><path class="b399fc83-57bf-4641-9565-6155693d48e4" d="M630.87,428.46c-1.6-2-2.8-2.7-4.5-2.6a22.6,22.6,0,0,1-2.6-.1,15,15,0,0,0-3,0h0a1.93,1.93,0,0,1-1.9-1.8c-.2-1.2.2-2.6,1.3-2.8a22.3,22.3,0,0,1,6.8.1c2.2.3,3.8,2.4,5.2,4.2.2.3.4.5.6.8a2.63,2.63,0,0,1,.6,2,1.32,1.32,0,0,1-.9,1h-.4A1.71,1.71,0,0,1,630.87,428.46Zm1.3-1.3Zm-11.7-3.6Z"/><path class="b399fc83-57bf-4641-9565-6155693d48e4" d="M615.47,402.06h0c-5.7-1-11.4-2.2-17-3.5a19.07,19.07,0,0,1-5.8-2,4.51,4.51,0,0,1-2.1-2.2,5.82,5.82,0,0,1,.3-4.3c2.8-7.6,8.8-12,15.1-12.9s13,1.4,19.2,4.9c4.6,2.6,10.7,7.4,11,15.1.2,5.9-7.1,5.7-10,5.9A49,49,0,0,1,615.47,402.06Z"/><path class="b399fc83-57bf-4641-9565-6155693d48e4" d="M631.07,403h0a2.48,2.48,0,0,1,.1-.9c.1-.3.4-.4.6-.6.8-.4,1.6-.9,2.4-1.3a2.3,2.3,0,0,1,1.4-.4c.9.1,1.7,1.2,2.2,2.2a21.1,21.1,0,0,1,1.9,9.2,44.35,44.35,0,0,1-1.2,9c-.5,2.1-.8,5.2-1.8,6.9-1.1-.6-1.7-3.9-2.1-5.2-.6-2.1-1.2-4.2-1.7-6.3A68.33,68.33,0,0,1,631.07,403Z"/><path class="b399fc83-57bf-4641-9565-6155693d48e4" d="M595.77,397.76h0a3.4,3.4,0,0,0-.1-1c-.1-.3-.4-.5-.6-.8-.8-.7-1.6-1.4-2.4-2a3.07,3.07,0,0,0-1.4-.9c-.9-.2-1.7.7-2.1,1.6a17.86,17.86,0,0,0-1.7,8.7,50.84,50.84,0,0,0,1.4,9.4c.5,2.2.8,5.5,1.9,7.4,1.1-.3,1.7-3.4,2-4.5.6-1.9,1.1-3.8,1.6-5.8A93.19,93.19,0,0,0,595.77,397.76Z"/><path class="b399fc83-57bf-4641-9565-6155693d48e4" d="M563.07,477.46l.8-.8h0c2.7-1.9,6-2.6,8.9-3.2s6.9-1.7,10.7-2.8,7.7-2.2,10.7-2.8l.5-.1.2.6c-.8,8.9,7,17,15.4,18.5,8.9,1.6,25.5-.7,24.4-12.9l.2-.5.5.2a77.83,77.83,0,0,1,9.6,5.9,100.23,100.23,0,0,0,9.4,5.8,31.57,31.57,0,0,1,8.9,5.8c1.7,1.7,3.6,5.4,5.5,10.1a54,54,0,0,1-35.9,14.8C606.87,517.06,580.67,501.46,563.07,477.46Z"/><path class="b399fc83-57bf-4641-9565-6155693d48e4" d="M635.27,446.26l-2.3-1.6a58.46,58.46,0,0,0-18.5-9c-.1,0-.2,0-.2-.1a34.45,34.45,0,0,0-13.3-1.2l-8.3,1,.7,8.3s-.4,16.6,18,20.9C636.67,470.66,635.27,446.26,635.27,446.26Z"/><path class="bd39ce6f-9fc6-4a53-b6e1-f4963740d066" d="M622.77,447.46l-2.5-1.6a19.51,19.51,0,0,0-6.2-2.7l-2.7-.6a10.56,10.56,0,0,0-4.3-.2l-4.3.7.3,4.4s.9,7.5,10.5,9.9C625.67,460.36,622.77,447.46,622.77,447.46Z"/><path class="b399fc83-57bf-4641-9565-6155693d48e4" d="M613.77,463.46l1.1.3c2.8.7,4.9-1.3,4.6-4.5l-.3-3.8c-.3-3.2-2.8-6.3-5.6-7l-1.1-.3c-2.8-.7-4.9,1.3-4.6,4.5l.3,3.8C608.47,459.66,611,462.76,613.77,463.46Z"/><path class="bd39ce6f-9fc6-4a53-b6e1-f4963740d066" d="M512.07,353.66l4,9.4a1.87,1.87,0,0,0,1.2,1.1l9,3.1a1.89,1.89,0,0,1,.9,3l-6.5,5.5a1.35,1.35,0,0,0-.4,1.4l1.5,9.8a1.37,1.37,0,0,1-2.3,1.3l-8-6.1a1.9,1.9,0,0,0-1.4-.3l-8,2.9c-1.1.4-2.5-.9-2.3-2.2l1.5-9.2a2.4,2.4,0,0,0-.4-1.6l-6.5-8c-.9-1.1-.4-2.7.9-2.7l9,.4a1.31,1.31,0,0,0,1.2-.7l4-7.9C509.77,352,511.47,352.36,512.07,353.66Z"/><path class="bd39ce6f-9fc6-4a53-b6e1-f4963740d066" d="M469.67,343l4,9.4a1.87,1.87,0,0,0,1.2,1.1l9,3.1a1.89,1.89,0,0,1,.9,3l-6.5,5.5a1.35,1.35,0,0,0-.4,1.4l1.5,9.8a1.37,1.37,0,0,1-2.3,1.3l-8-6.1a1.9,1.9,0,0,0-1.4-.3l-8,2.9c-1.1.4-2.5-.9-2.3-2.2l1.5-9.2a2.4,2.4,0,0,0-.4-1.6l-6.5-8c-.9-1.1-.4-2.7.9-2.7l9,.4a1.31,1.31,0,0,0,1.2-.7l4-7.9C467.47,341.26,469.07,341.56,469.67,343Z"/><path class="bd39ce6f-9fc6-4a53-b6e1-f4963740d066" d="M427.37,332.26l4,9.4a1.87,1.87,0,0,0,1.2,1.1l9,3.1a1.89,1.89,0,0,1,.9,3l-6.5,5.5a1.35,1.35,0,0,0-.4,1.4l1.5,9.8a1.37,1.37,0,0,1-2.3,1.3l-8-6.1a1.9,1.9,0,0,0-1.4-.3l-8,2.9c-1.1.4-2.5-.9-2.3-2.2l1.5-9.2a2.4,2.4,0,0,0-.4-1.6l-6.5-8c-.9-1.1-.4-2.7.9-2.7l9,.4a1.31,1.31,0,0,0,1.2-.7l4-7.9C425.07,330.56,426.77,330.86,427.37,332.26Z"/><path class="bd39ce6f-9fc6-4a53-b6e1-f4963740d066" d="M385,321.56l4,9.4a1.87,1.87,0,0,0,1.2,1.1l9,3.1a1.89,1.89,0,0,1,.9,3l-6.5,5.5a1.35,1.35,0,0,0-.4,1.4l1.5,9.8a1.37,1.37,0,0,1-2.3,1.3l-8-6.1a1.9,1.9,0,0,0-1.4-.3l-8,2.9c-1.1.4-2.5-.9-2.3-2.2l1.5-9.2a2.4,2.4,0,0,0-.4-1.6l-6.5-8c-.9-1.1-.4-2.7.9-2.7l9,.4a1.31,1.31,0,0,0,1.2-.7l4-7.9C382.77,319.86,384.37,320.16,385,321.56Z"/><path class="bd39ce6f-9fc6-4a53-b6e1-f4963740d066" d="M342.67,310.86l4,9.4a1.87,1.87,0,0,0,1.2,1.1l9,3.1a1.89,1.89,0,0,1,.9,3l-6.5,5.5a1.35,1.35,0,0,0-.4,1.4l1.5,9.8a1.37,1.37,0,0,1-2.3,1.3l-8-6.1a1.9,1.9,0,0,0-1.4-.3l-8,2.9c-1.1.4-2.5-.9-2.3-2.2l1.5-9.2a2.4,2.4,0,0,0-.4-1.6l-6.5-8c-.9-1.1-.4-2.7.9-2.7l9,.4a1.31,1.31,0,0,0,1.2-.7l4-7.9C340.37,309.16,342.07,309.46,342.67,310.86Z"/><line class="e07cb149-6284-433e-a585-a2545571992f" x1="527.87" y1="435.56" x2="324.27" y2="382.36"/><line class="e07cb149-6284-433e-a585-a2545571992f" x1="524.97" y1="471.56" x2="392.17" y2="436.86"/><path class="b1bd910b-744e-4274-b5a7-b1aefa35cad2" d="M713,797.56l-369-94c-15.2-3.9-27.7-22.1-27.7-40.6V517.26c0-18.4,12.5-30.3,27.7-26.4l369,94c15.2,3.9,27.7,22.1,27.7,40.6v145.7C740.67,789.56,728.17,801.46,713,797.56Z"/><path class="e7d1a73d-c9f5-4972-b6fc-b73ca9a1a470" d="M687.37,820.76l-369-94c-15.2-3.9-27.7-22.1-27.7-40.6V540.36c0-18.4,12.5-30.3,27.7-26.4l369,94c15.2,3.9,27.7,22.1,27.7,40.6v145.7C715.07,812.66,702.57,824.56,687.37,820.76Z"/><path class="b17d25be-871e-4aea-8513-946468a16a97" d="M512.07,614.56l4,9.4a1.87,1.87,0,0,0,1.2,1.1l9,3.1a1.89,1.89,0,0,1,.9,3l-6.5,5.5a1.35,1.35,0,0,0-.4,1.4l1.5,9.8a1.37,1.37,0,0,1-2.3,1.3l-8-6.1a1.9,1.9,0,0,0-1.4-.3l-8,2.9c-1.1.4-2.5-.9-2.3-2.2l1.5-9.2a2.4,2.4,0,0,0-.4-1.6l-6.5-8c-.9-1.1-.4-2.7.9-2.7l9,.4a1.31,1.31,0,0,0,1.2-.7l4-7.9C509.77,613,511.47,613.26,512.07,614.56Z"/><path class="b17d25be-871e-4aea-8513-946468a16a97" d="M469.67,603.86l4,9.4a1.87,1.87,0,0,0,1.2,1.1l9,3.1a1.89,1.89,0,0,1,.9,3l-6.5,5.5a1.35,1.35,0,0,0-.4,1.4l1.5,9.8a1.37,1.37,0,0,1-2.3,1.3l-8-6.1a1.9,1.9,0,0,0-1.4-.3l-8,2.9c-1.1.4-2.5-.9-2.3-2.2l1.5-9.2a2.4,2.4,0,0,0-.4-1.6l-6.5-8c-.9-1.1-.4-2.7.9-2.7l9,.4a1.31,1.31,0,0,0,1.2-.7l4-7.9C467.47,602.16,469.07,602.56,469.67,603.86Z"/><path class="b17d25be-871e-4aea-8513-946468a16a97" d="M427.37,593.16l4,9.4a1.87,1.87,0,0,0,1.2,1.1l9,3.1a1.89,1.89,0,0,1,.9,3l-6.5,5.5a1.35,1.35,0,0,0-.4,1.4l1.5,9.8a1.37,1.37,0,0,1-2.3,1.3l-8-6.1a1.9,1.9,0,0,0-1.4-.3l-8,2.9c-1.1.4-2.5-.9-2.3-2.2l1.5-9.2a2.4,2.4,0,0,0-.4-1.6l-6.5-8c-.9-1.1-.4-2.7.9-2.7l9,.4a1.31,1.31,0,0,0,1.2-.7l4-7.9C425.07,591.46,426.77,591.86,427.37,593.16Z"/><path class="b17d25be-871e-4aea-8513-946468a16a97" d="M385,582.46l4,9.4a1.87,1.87,0,0,0,1.2,1.1l9,3.1a1.89,1.89,0,0,1,.9,3l-6.5,5.5a1.35,1.35,0,0,0-.4,1.4l1.5,9.8a1.37,1.37,0,0,1-2.3,1.3l-8-6.1a1.9,1.9,0,0,0-1.4-.3l-8,2.9c-1.1.4-2.5-.9-2.3-2.2l1.5-9.2a2.4,2.4,0,0,0-.4-1.6l-6.5-8c-.9-1.1-.4-2.7.9-2.7l9,.4a1.31,1.31,0,0,0,1.2-.7l4-7.9C382.77,580.76,384.37,581.16,385,582.46Z"/><path class="b17d25be-871e-4aea-8513-946468a16a97" d="M342.67,571.76l4,9.4a1.87,1.87,0,0,0,1.2,1.1l9,3.1a1.89,1.89,0,0,1,.9,3l-6.5,5.5a1.35,1.35,0,0,0-.4,1.4l1.5,9.8a1.37,1.37,0,0,1-2.3,1.3l-8-6.1a1.9,1.9,0,0,0-1.4-.3l-8,2.9c-1.1.4-2.5-.9-2.3-2.2l1.5-9.2a2.4,2.4,0,0,0-.4-1.6l-6.5-8c-.9-1.1-.4-2.7.9-2.7l9,.4a1.31,1.31,0,0,0,1.2-.7l4-7.9C340.37,570.06,342.07,570.36,342.67,571.76Z"/><line class="e07cb149-6284-433e-a585-a2545571992f" x1="527.87" y1="696.46" x2="324.27" y2="643.26"/><line class="e07cb149-6284-433e-a585-a2545571992f" x1="524.97" y1="732.46" x2="392.17" y2="697.76"/><path class="b1bd910b-744e-4274-b5a7-b1aefa35cad2" d="M713,1058.46l-369-94c-15.2-3.9-27.7-22.1-27.7-40.6V778.16c0-18.4,12.5-30.3,27.7-26.4l369,94c15.2,3.9,27.7,22.1,27.7,40.6v145.7C740.67,1050.46,728.17,1062.36,713,1058.46Z"/><path class="b3ad8d18-d71f-46b0-a63c-1c7ebdcb6100" d="M687.37,1081.66l-369-94c-15.2-3.9-27.7-22.1-27.7-40.6V801.36c0-18.4,12.5-30.3,27.7-26.4l369,94c15.2,3.9,27.7,22.1,27.7,40.6v145.7C715.07,1073.66,702.57,1085.56,687.37,1081.66Z"/><path class="bd39ce6f-9fc6-4a53-b6e1-f4963740d066" d="M512.07,875.46l4,9.4a1.87,1.87,0,0,0,1.2,1.1l9,3.1a1.89,1.89,0,0,1,.9,3l-6.5,5.5a1.35,1.35,0,0,0-.4,1.4l1.5,9.8a1.37,1.37,0,0,1-2.3,1.3l-8-6.1a1.9,1.9,0,0,0-1.4-.3l-8,2.9c-1.1.4-2.5-.9-2.3-2.2l1.5-9.2a2.4,2.4,0,0,0-.4-1.6l-6.5-8c-.9-1.1-.4-2.7.9-2.7l9,.4a1.31,1.31,0,0,0,1.2-.7l4-7.9C509.77,873.86,511.47,874.16,512.07,875.46Z"/><path class="bd39ce6f-9fc6-4a53-b6e1-f4963740d066" d="M469.67,864.76l4,9.4a1.87,1.87,0,0,0,1.2,1.1l9,3.1a1.89,1.89,0,0,1,.9,3l-6.5,5.5a1.35,1.35,0,0,0-.4,1.4l1.5,9.8a1.37,1.37,0,0,1-2.3,1.3l-8-6.1a1.9,1.9,0,0,0-1.4-.3l-8,2.9c-1.1.4-2.5-.9-2.3-2.2l1.5-9.2a2.4,2.4,0,0,0-.4-1.6l-6.5-8c-.9-1.1-.4-2.7.9-2.7l9,.4a1.31,1.31,0,0,0,1.2-.7l4-7.9C467.47,863.16,469.07,863.46,469.67,864.76Z"/><path class="bd39ce6f-9fc6-4a53-b6e1-f4963740d066" d="M427.37,854.06l4,9.4a1.87,1.87,0,0,0,1.2,1.1l9,3.1a1.89,1.89,0,0,1,.9,3l-6.5,5.5a1.35,1.35,0,0,0-.4,1.4l1.5,9.8a1.37,1.37,0,0,1-2.3,1.3l-8-6.1a1.9,1.9,0,0,0-1.4-.3l-8,2.9c-1.1.4-2.5-.9-2.3-2.2l1.5-9.2a2.4,2.4,0,0,0-.4-1.6l-6.5-8c-.9-1.1-.4-2.7.9-2.7l9,.4a1.31,1.31,0,0,0,1.2-.7l4-7.9C425.07,852.46,426.77,852.76,427.37,854.06Z"/><path class="bd39ce6f-9fc6-4a53-b6e1-f4963740d066" d="M385,843.36l4,9.4a1.87,1.87,0,0,0,1.2,1.1l9,3.1a1.89,1.89,0,0,1,.9,3l-6.5,5.5a1.35,1.35,0,0,0-.4,1.4l1.5,9.8a1.37,1.37,0,0,1-2.3,1.3l-8-6.1a1.9,1.9,0,0,0-1.4-.3l-8,2.9c-1.1.4-2.5-.9-2.3-2.2l1.5-9.2a2.4,2.4,0,0,0-.4-1.6l-6.5-8c-.9-1.1-.4-2.7.9-2.7l9,.4a1.31,1.31,0,0,0,1.2-.7l4-7.9C382.77,841.76,384.37,842.06,385,843.36Z"/><path class="bd39ce6f-9fc6-4a53-b6e1-f4963740d066" d="M342.67,832.66l4,9.4a1.87,1.87,0,0,0,1.2,1.1l9,3.1a1.89,1.89,0,0,1,.9,3l-6.5,5.5a1.35,1.35,0,0,0-.4,1.4l1.5,9.8a1.37,1.37,0,0,1-2.3,1.3l-8-6.1a1.9,1.9,0,0,0-1.4-.3l-8,2.9c-1.1.4-2.5-.9-2.3-2.2l1.5-9.2a2.4,2.4,0,0,0-.4-1.6l-6.5-8c-.9-1.1-.4-2.7.9-2.7l9,.4a1.31,1.31,0,0,0,1.2-.7l4-7.9C340.37,831,342.07,831.36,342.67,832.66Z"/><line class="e07cb149-6284-433e-a585-a2545571992f" x1="527.87" y1="957.46" x2="324.27" y2="904.26"/><line class="e07cb149-6284-433e-a585-a2545571992f" x1="524.97" y1="993.36" x2="392.17" y2="958.66"/><ellipse class="f2b87101-9fd4-46f3-94dc-cc6332a30284" cx="616.17" cy="972.51" rx="68.4" ry="87.8" transform="translate(-391.17 415.11) rotate(-28.68)"/><path class="b399fc83-57bf-4641-9565-6155693d48e4" d="M636,933.26s25.5,23.7,6.8,69.1l-34.1-4.2Z"/><path class="bd39ce6f-9fc6-4a53-b6e1-f4963740d066" d="M595.27,1008.66c-.3-.2-.2-.4.2-.6,1.3-.7,2.3-1.8,3.5-2.4a3,3,0,0,0,.8-.4,8.55,8.55,0,0,0,0-1.6c.1-3.4.1-6.9.2-10.3,0-.7,1-.6,1,.1v.8l.2-3.6,28.8,4.2q-.15,1-.3,2.4a.53.53,0,0,1,.8.5c-.1,3.4-.1,6.7-.2,10.1a4.05,4.05,0,0,0,0,1.1c.1-.2.8.9,1,1.1,1.1,1.3,3.7,3.2,4.8,4.4.5.6,5.4,6.2,4.9,5.6s3.8,8.3-1.5,2.5c1.2,1.6,13.2,10.5,13.2,10.5l-38.1-1.2-28.8-16Z"/><path class="bd39ce6f-9fc6-4a53-b6e1-f4963740d066" d="M591.17,955.06c.6.2.6,1.4,0,1.2-5.1-1.5-3.5,9.4-3,12.6-.4-3-1.3-8.2-.7-11,.2-1,1.5-1.9,2.2-2.6s1.4,1.1,2.2,1.6l3.3,22.3H595c.1.3,0,.8-.4.8-5.6-.2-7-7.8-7.6-12.8C586.47,963.26,585.67,953.36,591.17,955.06Z"/><path class="bd39ce6f-9fc6-4a53-b6e1-f4963740d066" d="M634.87,985.76c5.6,1.6,7-5.6,7.6-10.4.5-3.7,1.3-13.3-4.2-13.4-.6,0-.6,1.2,0,1.2H638l-3.5,21.2a6.47,6.47,0,0,0,1.3.4,5.16,5.16,0,0,1-1.1-.2C634.17,984.36,634.17,985.56,634.87,985.76Z"/><path class="bd39ce6f-9fc6-4a53-b6e1-f4963740d066" d="M594.47,936.56a14.91,14.91,0,0,1,14.4-9.9c1.8.1,3.7.4,5.5.6h.3c5.5.9,11,2,15.4,7.1,4.3,4.8,6.1,11.4,6.9,17.8a107.48,107.48,0,0,1-.2,22.7c-.5,5.5-.4,11.8-2.3,16.7-2.5,6.5-7.5,9-13.2,10.6s-11.5-.9-17-4.6c-6.1-4.1-9.7-11.5-10.4-19.2-.6-6.3-1.4-12.7-1.7-19.1C591.67,951.56,591.77,943.26,594.47,936.56Z"/><path class="b399fc83-57bf-4641-9565-6155693d48e4" d="M616.17,942.46h0c-5.7-1-11.3-2.1-17-3.4a19.07,19.07,0,0,1-5.8-2,4.51,4.51,0,0,1-2.1-2.2,5.82,5.82,0,0,1,.3-4.3c2.8-7.6,8.8-12,15.1-12.9s12.9,1.4,19.1,4.9c4.6,2.6,10.6,7.4,10.9,15.1.2,5.9-7,5.7-10,5.8A42.88,42.88,0,0,1,616.17,942.46Z"/><path class="b399fc83-57bf-4641-9565-6155693d48e4" d="M631.77,943.46h0a2.48,2.48,0,0,1,.1-.9c.1-.3.4-.4.6-.6.8-.4,1.6-.9,2.4-1.3a2.3,2.3,0,0,1,1.4-.4c.9.1,1.7,1.2,2.2,2.2a21.1,21.1,0,0,1,1.9,9.2,44.35,44.35,0,0,1-1.2,9c-.5,2.1-.8,5.2-1.8,6.8-1.1-.6-1.7-3.9-2.1-5.1-.6-2.1-1.2-4.1-1.7-6.3A70.83,70.83,0,0,1,631.77,943.46Z"/><path class="b399fc83-57bf-4641-9565-6155693d48e4" d="M564,1017.66l.8-.8h0c2.6-1.9,5.9-2.6,8.8-3.2s6.9-1.7,10.6-2.8,7.7-2.2,10.7-2.8l.5-.1.2.6c1.7,8.6,8.6,16.2,17,17.7,8.9,1.6,23.7.1,22.7-12.1l.2-.5.5.2a77,77,0,0,1,9.5,5.9,88.79,88.79,0,0,0,9.4,5.8,31.57,31.57,0,0,1,8.9,5.8c1.7,1.7,3.6,5.4,5.5,10.1a54.88,54.88,0,0,1-35.8,14.8C607.67,1057.16,581.47,1041.66,564,1017.66Z"/><path class="bd39ce6f-9fc6-4a53-b6e1-f4963740d066" d="M623.47,987.76l-2.5-1.6a19.51,19.51,0,0,0-6.2-2.7l-2.7-.6a12.67,12.67,0,0,0-4.3-.2l-4.3.7.3,4.4s.9,7.4,10.4,9.9C626.37,1000.66,623.47,987.76,623.47,987.76Z"/><path class="b399fc83-57bf-4641-9565-6155693d48e4" d="M609.57,941.26s-22.9,9.4-9.7,59.5l-18.1-1.1s-11.8-54,10-69C613.37,915.56,609.57,941.26,609.57,941.26Z"/><path class="b399fc83-57bf-4641-9565-6155693d48e4" d="M595.47,965.16a.9.9,0,0,1,.2-1.5c.2-.1.3-.2.5-.3a6.2,6.2,0,0,1,4.3-1.4,33,33,0,0,1,5.8,1.2,1.54,1.54,0,0,1,1.2,1.8,1.22,1.22,0,0,1-1.6.7h0a22.11,22.11,0,0,0-2.5-.5c-.7-.1-1.4-.3-2.2-.4a4.38,4.38,0,0,0-3.8.7,1.23,1.23,0,0,1-1,.2A3.6,3.6,0,0,1,595.47,965.16Zm10.7-.7Z"/><path class="b399fc83-57bf-4641-9565-6155693d48e4" d="M628.47,968.36a2.11,2.11,0,0,1-1-.4,4.09,4.09,0,0,0-3.5-1.4h-4.8a1.13,1.13,0,0,1-1.4-1,1.79,1.79,0,0,1,1.6-1.6,29.06,29.06,0,0,1,5.9,0,6.16,6.16,0,0,1,3.9,2.3l.4.4a.89.89,0,0,1-.2,1.5A1,1,0,0,1,628.47,968.36Zm-9.3-3Z"/><path class="b399fc83-57bf-4641-9565-6155693d48e4" d="M612.87,998.16s-7.7-1.3-12.7-4.6v4.7S611.57,1002.46,612.87,998.16Z"/><ellipse class="f2b87101-9fd4-46f3-94dc-cc6332a30284" cx="615.07" cy="696.7" rx="68.7" ry="88.3" transform="translate(-258.92 380.73) rotate(-28.68)"/><path class="bd39ce6f-9fc6-4a53-b6e1-f4963740d066" d="M593.37,732.86c-.3-.2-.2-.4.2-.6,1.3-.7,2.3-1.8,3.6-2.5a3,3,0,0,0,.8-.4,8.55,8.55,0,0,0,0-1.6c.1-3.4.1-6.9.2-10.3,0-.7,1-.6,1,.1v.8l.2-3.6,28.9,4.2c-.1.7-.2,1.5-.3,2.5a.53.53,0,0,1,.8.5c-.1,3.4-.1,6.8-.2,10.1a4.8,4.8,0,0,0,0,1.2c.1-.2.8.9,1.1,1.2,1.1,1.3,3.7,3.2,4.8,4.5.5.6,5.4,6.2,4.9,5.7s3.8,8.3-1.5,2.6c1.2,1.6,13.3,10.5,13.3,10.5l-38.2-1.2-29-16.1Z"/><path class="bd39ce6f-9fc6-4a53-b6e1-f4963740d066" d="M589.17,679c.6.2.7,1.4,0,1.2-5.1-1.5-3.5,9.4-3,12.7-.4-3-1.3-8.3-.7-11,.2-1,1.5-1.9,2.2-2.6s1.4,1.1,2.3,1.6l3.4,22.4h-.2c.1.4,0,.8-.4.8-5.6-.2-7-7.8-7.6-12.9C584.47,687.26,583.67,677.36,589.17,679Z"/><path class="bd39ce6f-9fc6-4a53-b6e1-f4963740d066" d="M633.07,709.86c5.6,1.6,7.1-5.6,7.7-10.4.5-3.7,1.3-13.4-4.2-13.5-.6,0-.6,1.2,0,1.2h-.3l-3.5,21.3a6.47,6.47,0,0,0,1.3.4,5.16,5.16,0,0,1-1.1-.2C632.37,708.46,632.37,709.66,633.07,709.86Z"/><path class="bd39ce6f-9fc6-4a53-b6e1-f4963740d066" d="M592.47,660.36c2.7-6.8,8-9.9,14.5-9.9a51.68,51.68,0,0,1,5.5.7h.3c5.6.9,11,2,15.5,7.1,4.3,4.8,6.2,11.5,7,17.8a108.43,108.43,0,0,1-.2,22.8c-.5,5.6-.4,11.9-2.3,16.8-2.6,6.6-7.6,9-13.3,10.7-5.9,1.7-11.6-.9-17.1-4.6-6.2-4.1-9.8-11.6-10.5-19.3-.6-6.4-1.4-12.8-1.7-19.1C589.67,675.46,589.77,667.16,592.47,660.36Z"/><path class="b399fc83-57bf-4641-9565-6155693d48e4" d="M594.17,685.86a2.13,2.13,0,0,1,.2-2.7l.6-.6c1.4-1.4,2.9-3,5.1-2.7a24.35,24.35,0,0,1,6.8,1.9,3.11,3.11,0,0,1,1.4,3.2c-.2,1.1-1,1.6-1.9,1.2h0a16.66,16.66,0,0,0-3-.8c-.8-.2-1.7-.4-2.6-.7-1.7-.6-3-.2-4.5,1.3a1.58,1.58,0,0,1-1.2.5A1.21,1.21,0,0,1,594.17,685.86Zm12.7-1.7Z"/><path class="b399fc83-57bf-4641-9565-6155693d48e4" d="M629.77,692.86c-1.6-2-2.8-2.7-4.5-2.6a22.6,22.6,0,0,1-2.6-.1,15,15,0,0,0-3,0h0a1.93,1.93,0,0,1-1.9-1.8c-.2-1.2.2-2.6,1.3-2.8a22.3,22.3,0,0,1,6.8.1c2.2.3,3.8,2.4,5.2,4.2.2.3.4.5.6.8a2.74,2.74,0,0,1,.6,2.1,1.32,1.32,0,0,1-.9,1H631A2.37,2.37,0,0,1,629.77,692.86Zm1.3-1.3Zm-11.8-3.6Z"/><path class="b399fc83-57bf-4641-9565-6155693d48e4" d="M614.37,666.36h0c-5.7-1-18,7.5-23.7,6.2-1.9-.4,2.7-10.6.8-11.6a4.51,4.51,0,0,1-2.1-2.2,6.11,6.11,0,0,1,.3-4.4c2.8-7.6,8.8-12,15.2-12.9s13,1.4,19.2,4.9c4.6,2.6,10.7,7.4,11,15.2.2,5.9-7.1,5.7-10,5.9A49.23,49.23,0,0,1,614.37,666.36Z"/><path class="b399fc83-57bf-4641-9565-6155693d48e4" d="M630,667.26h0a2.48,2.48,0,0,1,.1-.9c.1-.3.4-.4.6-.6.8-.4,1.6-.9,2.4-1.3a2.3,2.3,0,0,1,1.4-.4c.9.1,1.7,1.2,2.2,2.2a21.25,21.25,0,0,1,1.9,9.3,44.35,44.35,0,0,1-1.2,9c-.5,2.1-.8,5.2-1.8,6.9-1.1-.6-1.7-3.9-2.1-5.2-.6-2.1-1.2-4.2-1.7-6.3A69.38,69.38,0,0,1,630,667.26Z"/><path class="b399fc83-57bf-4641-9565-6155693d48e4" d="M561.87,741.86l.8-.8h0c2.7-1.9,6-2.6,8.9-3.2s6.9-1.7,10.7-2.8,7.7-2.2,10.8-2.8l.5-.1.2.6c-.8,8.9,7,17.1,15.4,18.5,8.9,1.6,25.5-.7,24.5-12.9l.2-.5.5.2A77.83,77.83,0,0,1,644,744a100.23,100.23,0,0,0,9.4,5.8,31.57,31.57,0,0,1,8.9,5.8c1.7,1.7,3.6,5.4,5.5,10.1a54.2,54.2,0,0,1-36,14.8C605.77,781.56,579.47,766,561.87,741.86Z"/><path class="b399fc83-57bf-4641-9565-6155693d48e4" d="M610.67,722.56s-7.6.4-12.7-4.8l-.1,4.9C598,722.76,609.47,727,610.67,722.56Z"/><path class="b399fc83-57bf-4641-9565-6155693d48e4" d="M594.17,660.36h0a3.4,3.4,0,0,0-.1-1,2.41,2.41,0,0,0-.6-.8c-.8-.7-1.6-1.4-2.4-2a3.07,3.07,0,0,0-1.4-.9c-.9-.2-1.7.7-2.2,1.6a17.86,17.86,0,0,0-1.7,8.7,50.84,50.84,0,0,0,1.4,9.4c.5,2.2.8,5.5,1.9,7.4,1.1-.3,1.7-3.4,2-4.6.6-1.9,1.1-3.8,1.6-5.8A77.17,77.17,0,0,0,594.17,660.36Z"/><path class="bcbdf8d4-fdd2-4850-9e40-9bcc94075636" d="M341.27,732.46l-22.9-5.5c-15.2-3.9-27.7-22.1-27.7-40.6V540.66c0-18.4,12.5-30.3,27.7-26.4"/><polygon class="ad068872-3e9e-40e7-9cf2-0d8bf405c213" points="910.07 809.16 935.47 826.26 954.87 830.46 947.57 848.36 929.77 842.36 904.57 820.96 910.07 809.16"/><path class="e18d0bba-551b-4fca-a727-fae1c82f6725" d="M891.37,800h0a8.35,8.35,0,0,1,11.7-.8l4.5,3.9a8.35,8.35,0,0,1,.8,11.7h0a8.35,8.35,0,0,1-11.7.8l-4.5-3.9A8.35,8.35,0,0,1,891.37,800Z"/><path class="bb0e5505-4a47-457c-a9b7-7e3801b4bb5a" d="M873.57,659.16c12,61.7-29.3,96.5-73.3,97.2s-82.6-41.9-86.1-94.9,29.3-96.5,73.3-97.2S863.47,607,873.57,659.16Z"/><polygon class="f2b87101-9fd4-46f3-94dc-cc6332a30284" points="885.57 804.96 869.17 826.26 832.77 752.16 852.47 737.66 885.57 804.96"/><path class="f2b87101-9fd4-46f3-94dc-cc6332a30284" d="M943.87,885h0l-45.1-87.8h0c-1.2-3.7-5.5-5.9-12.1-5.5-11.6.7-26,8.9-32.2,18.4-3.2,4.9-3.6,9.1-1.6,12h0l10.6,20.6h0l44.8,87.3,46.4-24.4Z"/><ellipse class="a6ebbe7c-b732-4975-8646-393c7b5f69b5" cx="931.62" cy="918.72" rx="26" ry="9.6" transform="translate(-329.6 570.46) rotate(-29.16)"/><path class="f2b87101-9fd4-46f3-94dc-cc6332a30284" d="M823.27,569.56c-43.6-24.3-90.2-2.4-104.1,49s10.2,112.8,53.8,137.2,90.2,2.4,104.1-49S866.87,593.86,823.27,569.56Zm48.6,131.8c-11.8,43.7-58.1,61-95.1,40.4s-57.5-72.8-45.7-116.5,54.7-68.3,91.8-47.6S883.67,657.66,871.87,701.36Z"/><path class="f2b87101-9fd4-46f3-94dc-cc6332a30284" d="M899.47,676.06c.1-1.1.2-2.3.2-3.4v-.6a8.6,8.6,0,0,1,.1-1.6c0-.7.1-1.3.1-2v-5.9a10.87,10.87,0,0,0-.1-1.8v-.9c0-.8-.1-1.5-.1-2.3,0-.5-.1-1-.1-1.5v-.4c-.1-1.4-.2-2.8-.4-4.1h0v-.4c-.1-1.2-.3-2.4-.5-3.7,0-.2-.1-.4-.1-.6-.1-.5-.1-.9-.2-1.4-.1-.7-.2-1.3-.3-2a5,5,0,0,1-.2-1.2l-.3-1.5c-.1-.4-.1-.7-.2-1.1-.2-.7-.3-1.5-.5-2.2l-.3-1.2c0-.1-.1-.3-.1-.4-.3-1.3-.6-2.6-1-3.9v-.2c-.1-.4-.2-.7-.3-1.1-.3-1-.5-2-.8-2.9,0-.2-.1-.3-.1-.5a22.5,22.5,0,0,0-.8-2.4c-.2-.6-.4-1.3-.6-1.9,0-.1-.1-.2-.1-.3-.7-2.1-1.5-4.1-2.3-6.1-.1-.2-.1-.3-.2-.5l-.6-1.5a27.18,27.18,0,0,0-1.1-2.5c-.3-.7-.7-1.4-1-2.2a25.57,25.57,0,0,1-1.1-2.4,3,3,0,0,0-.4-.8c-.3-.6-.6-1.2-1-1.9a8.26,8.26,0,0,0-.7-1.3c-.7-1.3-1.4-2.6-2.2-3.9h0c-.9-1.5-1.7-2.9-2.7-4.4,0-.1-.1-.1-.1-.2-.7-1-1.4-2.1-2.1-3.1-.1-.2-.3-.4-.4-.6h0c-.8-1.2-1.7-2.4-2.6-3.6,0-.1-.1-.1-.1-.2-.3-.4-.5-.7-.8-1.1-.6-.7-1.1-1.5-1.7-2.2-.1-.1-.2-.3-.3-.4-.4-.5-.8-.9-1.2-1.4s-.9-1-1.3-1.6c-.2-.2-.3-.4-.5-.6-.4-.5-.9-1-1.3-1.5a15,15,0,0,1-1.1-1.3l-.7-.7-1.5-1.5-1-1-.8-.8c-.5-.5-1-.9-1.5-1.4l-.9-.9c-.3-.3-.7-.6-1-.9-.5-.4-1-.9-1.5-1.3a5,5,0,0,1-.8-.7l-1.3-1a13.44,13.44,0,0,0-1.4-1.1,2.65,2.65,0,0,1-.6-.5c-.6-.4-1.2-.9-1.8-1.3l-1.2-.9c-.1-.1-.2-.2-.3-.2-1.1-.7-2.2-1.5-3.3-2.2h0a.31.31,0,0,0-.2-.1l-3-1.8c-.3-.1-.5-.3-.8-.4-.8-.5-1.7-.9-2.5-1.4a9.29,9.29,0,0,0-1-.5c-.4-.2-.9-.4-1.3-.6s-.7-.3-1-.5a11.11,11.11,0,0,0-1.6-.7c-.4-.2-.8-.3-1.2-.5-.2-.1-.3-.1-.5-.2-1.1-.4-2.2-.9-3.3-1.3h0a33.82,33.82,0,0,0-3.4-1.1c-.1,0-.3-.1-.4-.1l-1.2-.3c-.6-.2-1.2-.3-1.7-.5-.3-.1-.6-.1-.9-.2l-1.5-.3-1.2-.3c-.4-.1-.8-.1-1.2-.2l-1.5-.3c-.3,0-.5-.1-.8-.1-.5-.1-1-.1-1.4-.2a11,11,0,0,0-1.8-.2c-.2,0-.4-.1-.6-.1-.5,0-1-.1-1.5-.1s-1.3-.1-1.9-.1h-4.8c-.9,0-1.7.1-2.5.1h-.3c-.6.1-1.3.1-1.9.2a5,5,0,0,0-1.2.2c-.3,0-.6.1-.9.1-1.1.2-2.2.3-3.3.6H794c-.3.1-.6.1-.9.2l-2.7.6c-.4.1-.9.3-1.3.4-.6.2-1.2.3-1.7.5a.76.76,0,0,0-.4.2l-2.7.9c-.4.2-.9.3-1.3.5-1.3.5-2.6,1.1-3.8,1.7l-20.7,9.9c1.3-.6,2.5-1.2,3.8-1.7.4-.2.9-.3,1.3-.5.9-.3,1.8-.7,2.7-.9a18.66,18.66,0,0,0,2.2-.7c.4-.1.9-.3,1.3-.4l2.7-.6c.3-.1.6-.1.9-.2l3.4-.6c.3,0,.6-.1.9-.1l3.1-.3h.3c1.1-.1,2.1-.1,3.2-.1h4.2c.6,0,1.3.1,1.9.1a14.92,14.92,0,0,1,2.1.2c.6.1,1.2.1,1.8.2l2.2.3,1.5.3a20.48,20.48,0,0,1,2.4.5l1.5.3a25,25,0,0,1,2.6.7l1.2.3c1.3.4,2.5.8,3.8,1.2h0c1.3.5,2.5.9,3.8,1.5.4.2.8.3,1.2.5l2.7,1.2c.4.2.9.4,1.3.6,1.2.6,2.3,1.2,3.5,1.8s2.6,1.5,3.8,2.3a.35.35,0,0,1,.2.1l3.6,2.4,1.2.9c.8.6,1.6,1.1,2.4,1.7l1.4,1.1c.7.6,1.4,1.1,2.1,1.7.5.4,1,.9,1.5,1.3.6.6,1.3,1.1,1.9,1.7s1,.9,1.5,1.4l1.8,1.8,1.5,1.5c.6.6,1.2,1.3,1.8,1.9.4.5.9,1,1.3,1.5l1.8,2.1c.4.5.8.9,1.2,1.4.7.8,1.3,1.7,2,2.6.3.4.5.7.8,1.1.9,1.2,1.8,2.5,2.7,3.8.1.2.3.4.4.6.7,1.1,1.5,2.2,2.2,3.3.9,1.4,1.8,2.9,2.6,4.3v.1h0c.8,1.3,1.5,2.6,2.2,4a8.26,8.26,0,0,0,.7,1.3c.5.9.9,1.8,1.3,2.7a25.57,25.57,0,0,1,1.1,2.4c.3.7.7,1.4,1,2.2s.7,1.6,1.1,2.5c.3.7.6,1.4.8,2,.8,2,1.6,4.1,2.3,6.1a20.16,20.16,0,0,1,.7,2.3c.3.8.5,1.6.8,2.4.3,1.1.7,2.3,1,3.4.1.4.2.7.3,1.1.4,1.5.8,2.9,1.1,4.4l.3,1.2c.2,1.1.5,2.2.7,3.3l.3,1.5c.2,1.1.4,2.1.5,3.2a6.75,6.75,0,0,1,.2,1.4c.2,1.4.4,2.8.6,4.3v.4c.2,1.5.3,3.1.4,4.6,0,.5.1,1,.1,1.5.1,1.1.1,2.1.2,3.2a10.87,10.87,0,0,0,.1,1.8v4.8c0,1,0,2-.1,3.1a8.6,8.6,0,0,1-.1,1.6c-.1,1.3-.2,2.7-.3,4v.6c-.1,1.5-.3,3-.5,4.6-.1.4-.1.9-.2,1.3-.2,1.1-.3,2.2-.5,3.3-.1.5-.2,1-.3,1.6-.2,1-.4,2.1-.6,3.1l-.3,1.5c-.3,1.5-.7,2.9-1.1,4.3s-.8,3-1.3,4.5c-.1.4-.3.8-.4,1.2-.3,1-.7,2-1,3-.2.6-.4,1.1-.6,1.7a26,26,0,0,1-1,2.5c-.3.6-.5,1.2-.8,1.8s-.7,1.5-1,2.2a18.65,18.65,0,0,1-1,2c-.3.7-.7,1.3-1,2s-.8,1.5-1.2,2.2-.7,1.1-1,1.7c-.5.9-1.1,1.7-1.6,2.6-.4.5-.7,1.1-1.1,1.6-.2.3-.4.5-.6.8-.6.9-1.3,1.8-1.9,2.6-.1.2-.3.3-.4.5a38.76,38.76,0,0,1-2.6,3.1h0c-.9,1-1.8,2-2.7,2.9l-.6.6c-.7.7-1.4,1.4-2.1,2-.3.3-.6.5-.9.8-.7.6-1.3,1.2-2,1.8a5,5,0,0,0-.8.7c-.9.8-1.9,1.5-2.8,2.2-.1.1-.3.2-.4.3-.8.6-1.7,1.2-2.5,1.7l-.9.6a25.29,25.29,0,0,1-2.2,1.3,4.05,4.05,0,0,1-.9.5c-1,.6-2.1,1.1-3.1,1.6l20.7-9.9a30.13,30.13,0,0,0,3.1-1.6c.3-.2.6-.3.9-.5.7-.4,1.5-.9,2.2-1.3l.9-.6c.9-.6,1.7-1.1,2.5-1.7.1-.1.3-.2.4-.3a30.13,30.13,0,0,0,2.8-2.2,5,5,0,0,0,.8-.7c.7-.6,1.4-1.2,2-1.8.3-.3.6-.5.9-.8.7-.7,1.4-1.3,2.1-2l.6-.6.2-.2c.9-.9,1.7-1.8,2.5-2.7h0c.8-.9,1.6-1.9,2.4-2.9l.2-.2c.1-.2.3-.3.4-.5a24.76,24.76,0,0,0,1.9-2.6c.2-.3.4-.5.6-.8s.3-.4.4-.6.4-.7.6-1c.6-.9,1.1-1.7,1.6-2.6.1-.2.3-.5.4-.7s.4-.7.6-1c.4-.7.8-1.5,1.2-2.2.2-.3.3-.6.5-.9s.3-.7.5-1c.3-.6.6-1.3,1-2,.2-.3.3-.7.5-1s.3-.8.5-1.2c.3-.6.5-1.2.8-1.8.1-.3.3-.6.4-.9.2-.5.4-1,.6-1.6s.4-1.1.6-1.7a4.88,4.88,0,0,0,.3-.7c.3-.8.5-1.5.8-2.3.1-.4.3-.8.4-1.2,0-.1.1-.2.1-.3.4-1.3.8-2.6,1.1-3.9,0-.1,0-.2.1-.2.3-1.2.6-2.4.9-3.7a1.7,1.7,0,0,0,.1-.7l.3-1.5c.1-.6.3-1.2.4-1.7a5.85,5.85,0,0,0,.2-1.3c.1-.5.2-1,.3-1.6.1-.3.1-.7.2-1,.1-.7.2-1.5.3-2.2.1-.4.1-.9.2-1.3a.6.6,0,0,1,.1-.4c.2-1.3.3-2.7.4-4V677A3.87,3.87,0,0,1,899.47,676.06Z"/><path class="ae3df041-31e6-4027-a995-362de5de6a72" d="M821.87,566c-21.2-11.8-44.1-13.6-64.3-4.9-21.9,9.4-37.9,29.4-45.2,56.3-14.2,52.5,10.6,115.5,55.1,140.4,13,7.3,26.6,10.7,39.9,10.3a65.51,65.51,0,0,0,24.5-5.4c21.9-9.4,37.9-29.4,45.2-56.3C891.17,653.76,866.47,590.76,821.87,566Zm44.9,136.7c-6.4,23.7-20.5,41.3-39.8,49.5a59.93,59.93,0,0,1-21.5,4.8c-11.7.3-23.6-2.7-35.1-9.1-39.2-21.9-61-77.3-48.5-123.5,6.4-23.7,20.5-41.3,39.8-49.5,17.8-7.6,37.9-6.1,56.6,4.3C857.47,601.06,879.27,656.46,866.77,702.66Z"/><path class="e57d2526-db2b-4f72-bf58-ae6ca4ced2fb" d="M926.37,1141.46c19.7-7.4,53.2-7.6,74.9-.5,10.5,3.4,16.2,7.9,17.2,12.5a19.51,19.51,0,0,1,2.9-1.1c10.9-3.6,27.7-3.4,37.6.3s9.1,9.6-1.8,13.1-27.7,3.4-37.6-.3a15.87,15.87,0,0,1-5.5-3.2,33.2,33.2,0,0,1-9.3,4.9c-19.7,7.4-53.2,7.6-74.9.5S906.67,1148.86,926.37,1141.46Z"/><path class="e18d0bba-551b-4fca-a727-fae1c82f6725" d="M1034.27,1124.76c1,8.6,12,.6,12-6-13.8-44.3-28.5-80.2-45.5-94.9l-4.1-94-52.5-14.8,25.8,122.3Z"/><path class="f2b87101-9fd4-46f3-94dc-cc6332a30284" d="M948.47,1143.76l-12.5,4.3c-9.6.3-14.6-.5-17.1,3.2l-.7,1.1c-2.5,3.8-.7,5.7,4.9,7.4l25.1,5.7c7.3,1.6,9.2-.8,11-5.2,0,0,1.1-5.5-3.9-12.2C952.47,1144.36,952.67,1144.06,948.47,1143.76Z"/><path class="e18d0bba-551b-4fca-a727-fae1c82f6725" d="M940.77,1149.56c2.7,6.9,14.7,5.4,14.5-.3,12.7-87.5,4-92.7,4.3-111.8.4-21.3,4.5-44.3,19.6-84.7l-13.6,2.2a44.94,44.94,0,0,0-37.8,44C927.27,1053.26,930,1096.26,940.77,1149.56Z"/><path class="f7abfd32-67bc-49b3-abb4-6322d36137eb" d="M932.67,918.76l-8.1,114.6s40.5,34.7,90.3-8.4c-10.9-15.6-12.3-35.5-10.8-56.6,4.4-19.9-.6-36.2-6.3-50.5Z"/><path class="ade0c9a9-3b59-42f4-93ba-db58c9a27700" d="M951.07,808.26c1,12.4,9.1,17.4,18,11.3s15.3-21.2,14.3-33.6-9.1-17.4-18-11.3S950.07,795.86,951.07,808.26Z"/><path class="e18d0bba-551b-4fca-a727-fae1c82f6725" d="M938.87,802.06c1,12.4,12.7,19.1,21.7,13s15.3-21.2,14.3-33.6-9.1-17.4-18-11.3S937.87,789.66,938.87,802.06Z"/><path class="e18d0bba-551b-4fca-a727-fae1c82f6725" d="M966.37,842.16l1.3-.3a8.48,8.48,0,0,0,6.4-10.1l-5.7-25.6a8.48,8.48,0,0,0-10.1-6.4l-1.3.3a8.48,8.48,0,0,0-6.4,10.1l1.9,25.4C953.37,840.06,961.77,843.16,966.37,842.16Z"/><path class="b41c3651-3b81-484a-9e91-49d1537c332f" d="M977,811.46s-.2,8.4-14.5,6.4c-11.5-1.6-4-21.5-14.9-25.6-12-4.5-11.2-20.2-5.1-25.1s20.3-5.2,29.3,1.1S1000.87,781.86,977,811.46Z"/><path class="e18d0bba-551b-4fca-a727-fae1c82f6725" d="M946.27,798.56a5.47,5.47,0,1,0,5-5.9A5.55,5.55,0,0,0,946.27,798.56Z"/><path class="ad068872-3e9e-40e7-9cf2-0d8bf405c213" d="M997.77,917.86c0-20.1-.7-24.4,2.8-47.3,1.2-7.7.6-9.9,1.4-17.7,1.4-13.6-4.7-38.3-27.1-31.8l-2,1.4a45.66,45.66,0,0,0-9.5,3.7c-32.7,16.9-45,18.9-40,39.6,1.4,15.5,14.1,20,9.3,53C939.37,941,990.37,933.66,997.77,917.86Z"/><path class="e18d0bba-551b-4fca-a727-fae1c82f6725" d="M950.67,817.06l1.9-2.7a8.23,8.23,0,0,1-6.9.4A9.14,9.14,0,0,0,950.67,817.06Z"/><path class="e7d1a73d-c9f5-4972-b6fc-b73ca9a1a470" d="M973.07,819.26a3.87,3.87,0,0,1,4.7,4.5c-.5,3-2.4,6.7-7.9,8.6-7.7,2.6-16.2,1.2-20.2.2a1.07,1.07,0,0,1-.3-2C954,827.66,965,821.26,973.07,819.26Z"/><path class="f2b87101-9fd4-46f3-94dc-cc6332a30284" d="M1034.27,1125.56l2.8,13c-.8,9.7-2.3,14.6,1.2,17.5l1,.8c3.5,3,7.1,1.1,8-4l8.1-23.4c1-5.2-1.9-9.6-6.1-12,0,0-3.7-2.1-9.8,1.8C1035.37,1121.76,1035.07,1121.36,1034.27,1125.56Z"/><path class="b41c3651-3b81-484a-9e91-49d1537c332f" d="M977.17,781.86s12.4-15.4,23.5,3.6,4.9,41.6,20.7,52.6c0,0-27.7.4-30.8-17.2s-1.4-32.3-11.4-32.8C969.47,787.66,977.17,781.86,977.17,781.86Z"/><path class="e18d0bba-551b-4fca-a727-fae1c82f6725" d="M947.87,1154.26l-16-.9a1.91,1.91,0,0,1-.7-3.6l10-6Z"/><path class="e18d0bba-551b-4fca-a727-fae1c82f6725" d="M1043.17,1117.36s-4,18.7-6.1,21.2l-3.9-16,2.8-9.4Z"/><path class="f7abfd32-67bc-49b3-abb4-6322d36137eb" d="M1005.07,963.26s-5.7,10.2-9.9,10.5c0,0,5.5.5,8.7-1.7Z"/><path class="f7abfd32-67bc-49b3-abb4-6322d36137eb" d="M924.57,1033.36l8.1-114.6,14.7,8.7s-12.1,101.6-2.9,116.2A54.45,54.45,0,0,1,924.57,1033.36Z"/><path class="e18d0bba-551b-4fca-a727-fae1c82f6725" d="M863.27,855.56h0a8.28,8.28,0,0,1,11.6-1.5l4.7,3.7a8.39,8.39,0,0,1,1.5,11.7h0a8.28,8.28,0,0,1-11.6,1.5l-4.7-3.7A8.41,8.41,0,0,1,863.27,855.56Z"/><path class="b6d3a6b9-5eeb-491c-8e97-776489839256" d="M932.67,918.76s1.7-20.1-1-26-13.4-30.8-13.4-30.8l6.3-7.8c6.9,12.1,21.4,13.1,22.9,76.9C947.57,931.16,934.37,928.16,932.67,918.76Z"/><path class="ad068872-3e9e-40e7-9cf2-0d8bf405c213" d="M942.87,869.06l-22.1,40a10.09,10.09,0,0,1-16.7,1.5l-31.2-38.2,10.4-12.6,20.2,21.9a4,4,0,0,0,6.7-1.1l13-29.1Z"/><path class="f9536eb9-12d1-4408-bc6f-d20e5944dea9" d="M277.77,709.26h0a6.41,6.41,0,0,1-2,8.7l-10.2,6.3a6.43,6.43,0,0,1-8.7-2h0a6.41,6.41,0,0,1,2-8.7l10.2-6.3A6.39,6.39,0,0,1,277.77,709.26Z"/><path class="f20204ba-76f0-4854-84ba-fa57bf61083d" d="M156,724.46s41.3,35.3,52.7,26.1,45.9-34.8,45.9-34.8l14.8,15s-50.6,59-67.3,58-56.5-26.7-56.5-26.7Z"/><path class="f7abfd32-67bc-49b3-abb4-6322d36137eb" d="M267.37,728.66l2.1,2.2s-50.6,59-67.3,58c-11.2-.7-33.1-12.7-46.1-20.3l6.8-11.3s27.3,19.3,39.1,20.9C212.37,779.56,217.27,777.56,267.37,728.66Z"/><path class="e57d2526-db2b-4f72-bf58-ae6ca4ced2fb" d="M58.37,1077.16c15.1-8.2,40.5-8.8,57.5-1.5,1.5-3.5,4.8-6.8,10-9.6,15.6-8.4,42-8.8,59-.9s18.1,21.2,2.5,29.6c-15.1,8.2-40.5,8.8-57.5,1.5-1.5,3.5-4.8,6.8-10,9.6-15.6,8.4-42,8.8-59,.9S42.77,1085.56,58.37,1077.16Z"/><path class="f2b87101-9fd4-46f3-94dc-cc6332a30284" d="M110.87,718.46s-12.4,3.4-12.4,9.8a68,68,0,0,0,1.2,12.2l41.6-8.8-4.3-17.2Z"/><path class="f2b87101-9fd4-46f3-94dc-cc6332a30284" d="M176.17,1067.36l-23-15.8a21.68,21.68,0,0,0-12.4,0c-2.1.6-2.5-1-2.3,1l-2,8.5c-1.9,5.7,2.6,9.1,9,11.1l22,6.3c4.6,1.5,11,.6,14.3-1.8l.9-.7C186,1073.46,181.07,1070,176.17,1067.36Z"/><path class="ad068872-3e9e-40e7-9cf2-0d8bf405c213" d="M138.57,1054.16c.4,6.6,16.4,5.7,16-.9l-1.2-21.4-16,.9Z"/><path class="f2b87101-9fd4-46f3-94dc-cc6332a30284" d="M136,1046.06c6.7,5,13.4,4.8,20.1-.5,0,0,11.2-132.1,7.5-200l-50.4-15.7c6.3,41.6,20,109.9,20,109.9C118.57,974,131.77,1016.36,136,1046.06Z"/><path class="f2b87101-9fd4-46f3-94dc-cc6332a30284" d="M113.17,829.86l14.1,4.4c3.9,24.7,9.9,56.9,14.2,79.2a120.52,120.52,0,0,1,0,44c-5.3,30.3,4.4,63.9,7.9,88.6a24.9,24.9,0,0,0,3,1.9c-5.5,2.8-10.9,2.2-16.4-1.9-3.7-26.4-14.6-62.8-6.7-94.6a67.54,67.54,0,0,0,.5-29C125.27,899.46,117.47,858.36,113.17,829.86Z"/><path class="ad068872-3e9e-40e7-9cf2-0d8bf405c213" d="M81.57,1070.66c-.7,6.5,15.3,8.2,15.9,1.6l2.2-21.3-15.9-1.6Z"/><path class="f2b87101-9fd4-46f3-94dc-cc6332a30284" d="M80.37,1062.66c6.9,5.6,13.5,6.6,20,2.3,0,0,5.7-43.9,14.7-90.6,7-36.2,17.3-72.5,19.6-101.3l-46.8-27.3c.4,25.6-1.5,81.9-2.4,106.1a39.61,39.61,0,0,1-4.1,16.2C70.67,990.16,80.37,1062.66,80.37,1062.66Z"/><path class="f20204ba-76f0-4854-84ba-fa57bf61083d" d="M167.57,848.76c-1.6-23.3-1.9-57-.4-86.3-2.8-40.2-19-54-43.7-43l-10.3,3.5c-29.4,18.6-45,18.8-37.3,50.8l7.2,76.6C85.67,886.86,172.47,891.46,167.57,848.76Z"/><path class="f7abfd32-67bc-49b3-abb4-6322d36137eb" d="M75.87,773.66l7.2,76.6c1.5,21.3,31.6,31.7,55.5,28.3C110.37,864.46,90.77,825.56,75.87,773.66Z"/><path class="bd39ce6f-9fc6-4a53-b6e1-f4963740d066" d="M100.87,730.06s-.8,11.1,15.9,19.1c8.6,4.1,13.3,11.8,15.9,18.3,1.5,3.8,3.6,1.7,3.7-2.4.3-10.7.4-13.9,2-21.9,2.6-13-4.4-31.5-5.1-31.6S100.87,730.06,100.87,730.06Z"/><path class="f2b87101-9fd4-46f3-94dc-cc6332a30284" d="M122.27,720.06s15.7,3.6,13.4,18.3l1.1,17.1s10.2-20.3,3.1-38S122.27,720.06,122.27,720.06Z"/><path class="b41c3651-3b81-484a-9e91-49d1537c332f" d="M128.67,720.26s-2.4,4.7-4.1,5.7-27.2-7.8-26.5-28.2c.4-13,25-11.8,25-11.8Z"/><path class="f9536eb9-12d1-4408-bc6f-d20e5944dea9" d="M119.77,739.66l1.2.1a7.6,7.6,0,0,0,8.1-7l1.7-23.5a7.6,7.6,0,0,0-7-8.1l-1.2-.1a7.6,7.6,0,0,0-8.1,7l-5,22.3C109.27,734.56,115.67,739.36,119.77,739.66Z"/><path class="f9536eb9-12d1-4408-bc6f-d20e5944dea9" d="M129.87,722a20.72,20.72,0,0,1-17.3-7.7s7.6,13.9,16.8,14.3Z"/><path class="f2b87101-9fd4-46f3-94dc-cc6332a30284" d="M107.77,719.36s-9.6,14.1,10.8,22.9c0,0,8.2,7.2,9.1,15.8,0,0-7-4.7-11-7.2S82.77,733.06,107.77,719.36Z"/><ellipse class="f9536eb9-12d1-4408-bc6f-d20e5944dea9" cx="131.15" cy="699.1" rx="12.9" ry="22.8" transform="translate(-98.83 26.01) rotate(-8.24)"/><path class="f9536eb9-12d1-4408-bc6f-d20e5944dea9" d="M111.47,714c5.7,9.3,24.2,12.3,28.7,3.9s-3.1-25.1-8.8-34.4-14-10-18.5-1.7S105.77,704.66,111.47,714Z"/><path class="b41c3651-3b81-484a-9e91-49d1537c332f" d="M118.57,687.56s5.8,19.4-9,26.6c0,0-19.5-7-10-28.4,8.4-18.8,29-9.4,29-9.4Z"/><path class="b41c3651-3b81-484a-9e91-49d1537c332f" d="M143.87,696.76s-3.6-8.1-14.6-9.8l7.3-6.3S145.17,681.06,143.87,696.76Z"/><path class="b41c3651-3b81-484a-9e91-49d1537c332f" d="M112.47,700.66c2.6-5.2,10-6.5,21.1-4.6a9.35,9.35,0,0,0,5-.4c7.5-3,6.9-12.8,6.9-12.8.5-6.7-4.3-8.9-11-9.4l-17.6-1.3c-9.9-.8-17.7,8.6-18.2,15.4l-.2,1.1C98,695.36,105.77,700.16,112.47,700.66Z"/><path class="f9536eb9-12d1-4408-bc6f-d20e5944dea9" d="M107.67,714a4.8,4.8,0,1,0,1.6-6.6A4.93,4.93,0,0,0,107.67,714Z"/><path class="f2b87101-9fd4-46f3-94dc-cc6332a30284" d="M97.57,1071.36l-1.1,13.5c-.1,1.6-1.7,10-2.4,11.5-2,4.2-5.2,5.9-8.3,6.1-4.1.3-12.5-7.1-9.5-16.2,2.6-7.9,5.4-16.3,5.4-16.3C87.47,1072.76,93,1073.66,97.57,1071.36Z"/><path class="f2b87101-9fd4-46f3-94dc-cc6332a30284" d="M167,858.76l-36.7,7.9c-7.2,1.5-11.2-2.3-8.9-8.4l20.8-55.9c2.3-6.2,10.1-12.5,17.2-14l36.7-7.9c7.2-1.5,11.2,2.3,8.9,8.4l-20.8,55.9C181.87,851,174.17,857.26,167,858.76Z"/><path class="f9536eb9-12d1-4408-bc6f-d20e5944dea9" d="M148.37,838.26h0a6.82,6.82,0,0,1-6.7,6.2l-11.7-.3a5.83,5.83,0,0,1-5.6-6.5h0a6.82,6.82,0,0,1,6.7-6.2l11.7.3A5.83,5.83,0,0,1,148.37,838.26Z"/><path class="f20204ba-76f0-4854-84ba-fa57bf61083d" d="M74,755.36s-32.8,67.4-22.2,90.3,72.6-3.5,72.6-3.5v-18.6H80.57l8.8-56Z"/><path class="e57d2526-db2b-4f72-bf58-ae6ca4ced2fb" d="M374.57,1180.46l-89-22.1c2.7-4.3,1.4-11.4,10.3-17.5l68.2-46.5c8.9-6.1,24.8-8.9,35.2-6.3l89,22.1c10.5,2.6,11.7,9.7,2.8,15.8l-68.2,46.5C414,1178.46,398.17,1181.36,374.57,1180.46Z"/><polygon class="f2738f07-23f4-481b-aeea-d653d8b550b0" points="459.57 1102.56 461.27 1120.16 436.97 1123.36 253.87 1150.86 252.47 1134.66 459.57 1102.56"/><path class="f2b87101-9fd4-46f3-94dc-cc6332a30284" d="M351.87,1181.66l-89-22.1c-10.5-2.6-11.7-9.7-2.8-15.8l68.2-46.5c8.9-6.1,24.8-8.9,35.2-6.3l89,22.1c10.5,2.6,11.7,9.7,2.8,15.8l-68.2,46.5C378.17,1181.36,362.27,1184.26,351.87,1181.66Z"/><path class="ae3df041-31e6-4027-a995-362de5de6a72" d="M350.07,1163.06l-89-22.1c-10.5-2.6-11.7-9.7-2.8-15.8l68.2-46.5c8.9-6.1,24.8-8.9,35.2-6.3l89,22.1c10.5,2.6,11.7,9.7,2.8,15.8l-68.2,46.5C376.37,1162.86,360.57,1165.66,350.07,1163.06Z"/><polyline class="a6f683d4-14f3-4647-9bd5-24f480b95379" points="334.77 1097.06 332.27 1130.26 407.27 1104.26"/><path class="e57d2526-db2b-4f72-bf58-ae6ca4ced2fb" d="M571.57,1229.16l-89-22.1c2.7-4.3,1.4-11.4,10.3-17.5l68.2-46.5c8.9-6.1,24.8-8.9,35.2-6.3l89,22.1c10.5,2.6,11.7,9.7,2.8,15.8l-68.2,46.5C611,1227.16,595.17,1230,571.57,1229.16Z"/><polygon class="f2738f07-23f4-481b-aeea-d653d8b550b0" points="656.57 1151.16 658.27 1168.76 633.97 1171.96 450.87 1199.46 449.47 1183.26 656.57 1151.16"/><path class="f2b87101-9fd4-46f3-94dc-cc6332a30284" d="M548.77,1230.26l-89-22.1c-10.5-2.6-11.7-9.7-2.8-15.8l68.2-46.5c8.9-6.1,24.8-8.9,35.2-6.3l89,22.1c10.5,2.6,11.7,9.7,2.8,15.8L584,1224C575.07,1230.06,559.27,1232.86,548.77,1230.26Z"/><path class="b17d25be-871e-4aea-8513-946468a16a97" d="M547.07,1211.76l-89-22.1c-10.5-2.6-11.7-9.7-2.8-15.8l68.2-46.5c8.9-6.1,24.8-8.9,35.2-6.3l89,22.1c10.5,2.6,11.7,9.7,2.8,15.8l-68.2,46.5C573.37,1211.46,557.57,1214.36,547.07,1211.76Z"/><path class="f6095cea-8fa2-4ee7-9f55-91d46e7c8712" d="M583,1142.26l-4.4,12.8c-.2.7.2,1.4,1.1,1.8l17.1,7.1c2.4,1,1,3.3-2.4,3.9l-24,4.2a5.65,5.65,0,0,0-3.2,1.5l-11,12.4c-1.6,1.8-6,2.2-7.5.7l-10.4-10.3a4.42,4.42,0,0,0-3.1-.9l-23.9.6c-3.4.1-4.7-2-2.2-3.5l17.6-10.5c1-.6,1.5-1.4,1.2-2l-3.8-12c-.5-1.7,3.1-3.4,6.1-2.9l21.3,3.7a7.49,7.49,0,0,0,3.9-.4l21.6-8C580.07,1139.46,583.57,1140.46,583,1142.26Z"/><path class="f9536eb9-12d1-4408-bc6f-d20e5944dea9" d="M282.27,705.46l-10,7.8a3.17,3.17,0,0,1-4.4-.5h0a3.17,3.17,0,0,1,.5-4.4l10-7.8a3.17,3.17,0,0,1,4.4.5h0A3.16,3.16,0,0,1,282.27,705.46Z"/></g></svg>