<svg id="b5e81b89-b106-416f-83f1-5e37c91fc579" data-name="Layer 1" xmlns="http://www.w3.org/2000/svg" viewBox="0 0 1138.53 1214.88"><g id="a4c1a3db-c790-4489-a096-f9ad88290ac4" data-name="b9b3e87a-0643-45f4-92d2-ff97f0c5e263"><path d="M1127.2,608.19c-16.93-62-23.76-126.91-17.34-191.15,13.83-138.4-43.71-280.18-158.7-359.41-128.53-88.56-289.68-72-399.65,28.73-50.24,46-46.79,64.68-109.24,86.34C393,189.77,310.7,256.09,275.72,333.9c-65.17,145-43.45,311.17,81.87,397.51,88.4,60.91,165.12,51.5,248.53-3.36,10.19,84.27,53.48,163.23,124.57,211.8,124.87,85.31,289.83,43.77,367.39-92.47C1140.33,773.2,1148.48,686.15,1127.2,608.19Z" style="fill:#b5e3df;opacity:0.5;isolation:isolate"/><path d="M346.05,565.21s-199.39-70-137.85-373C208.2,192.17,472,346.3,346.05,565.21Z" style="fill:#66c2ab"/><path d="M357,653.81S57.72,652.28,0,218.09C0,218.09,424.48,302.5,357,653.81Z" style="fill:#2d6375"/><line x1="306.45" y1="584.56" x2="50" y2="283.44" style="fill:none;stroke:#fffcfa;stroke-linecap:round;stroke-linejoin:round;stroke-width:2px"/><line x1="111.71" y1="357.55" x2="40.95" y2="342.55" style="fill:none;stroke:#fffcfa;stroke-linecap:round;stroke-linejoin:round;stroke-width:2px"/><line x1="173.65" y1="425.11" x2="70.64" y2="417.54" style="fill:none;stroke:#fffcfa;stroke-linecap:round;stroke-linejoin:round;stroke-width:2px"/><line x1="120.07" y1="278.37" x2="111.71" y2="357.55" style="fill:none;stroke:#fffcfa;stroke-linecap:round;stroke-linejoin:round;stroke-width:2px"/><line x1="189.51" y1="321.45" x2="173.65" y2="425.11" style="fill:none;stroke:#fffcfa;stroke-linecap:round;stroke-linejoin:round;stroke-width:2px"/><line x1="254.75" y1="395.1" x2="238.89" y2="498.76" style="fill:none;stroke:#fffcfa;stroke-linecap:round;stroke-linejoin:round;stroke-width:2px"/><line x1="234.03" y1="502.27" x2="131.03" y2="494.7" style="fill:none;stroke:#fffcfa;stroke-linecap:round;stroke-linejoin:round;stroke-width:2px"/><polygon points="766.3 1119.74 1009.58 943.43 766.3 875.89 766.3 1119.74" style="fill:#b5e3df"/><path d="M755.4,167.52s-4.26-42.32-36.23-47.31-30.37,17-30.37,17S688.27,94.7,652,84.61s-28.24,48-28.24,48Z" style="fill:#fffcfa"/><path d="M899.64,417.89s5.38-53.63,45.68-38.73,38.29,43.16,38.29,43.16.67-56.45,46.35-45.41,35.6,83.16,35.6,83.16Z" style="fill:#fffcfa"/><path d="M818.92,293.7a73.57,73.57,0,0,0-13.75-42.1l.22-.17c-7.86-11.2-18.55-19.58-30.32-22.57L372.47,126.64c-10.18-2.59-19.55-.73-27,4.48l-24.41,18.39,7.71,786a2.15,2.15,0,0,0,.19,1c.15,29.19,19.63,57.71,43.66,63.81l407.53,110.61L797.66,1097c13.31-10.62,21.23-20.82,21.23-40.09Z" style="fill:#519399"/><path d="M527.57,475.26S307.12,984.55,307.86,954.51l11-805.68L345,129.92c7.61-5.37,17.09-7.3,27.28-4.69l403,103.35c11.78,3,22.34,11.57,30,23Z" style="fill:#73d0d9"/><path d="M749.54,1118.05,347.92,1015.59c-24.11-6.13-42.67-35.11-42.67-64.41V184.3c0-29.3,19-48,43.15-41.83L749.79,245c24.12,6.12,42.46,35.16,42.46,64.46v766.88C792.27,1105.64,773.65,1124.17,749.54,1118.05Z" style="fill:#fff"/><path d="M741.48,1123,339.87,1020.5c-24.12-6.13-42.68-35.11-42.68-64.41V189.21c0-29.3,19-48,43.16-41.83L741.74,249.91c24.11,6.12,42.45,35.16,42.45,64.46v766.88C784.19,1110.55,765.6,1129.08,741.48,1123Z" style="fill:#071841"/><path d="M751.16,301.61a8.71,8.71,0,0,0-6.76-8.82l-401.94-102c-9-2.29-20.26,6.7-20.26,16.18V871.7h0v76.86a8.71,8.71,0,0,0,6.76,8.82l401.94,102c9,2.28,20.27-6.7,20.27-16.18V378.48h0Z" style="fill:#506c75"/><path d="M693.87,520.29l-369-94c-15.24-3.88-27.7-22.13-27.7-40.55V240c0-18.43,12.46-30.32,27.7-26.44l369,94c15.23,3.88,27.69,22.13,27.69,40.55V493.86C721.56,512.28,709.1,524.18,693.87,520.29Z" style="fill:#5b67f0;opacity:0.20999999344348907;isolation:isolate"/><path d="M668.27,543.44l-369-94c-15.23-3.88-27.69-22.13-27.69-40.55V263.12c0-18.42,12.44-30.32,27.69-26.42l369,94c15.23,3.88,27.7,22.13,27.7,40.55V517C695.93,535.42,683.46,547.32,668.27,543.44Z" style="fill:#ffd131"/><ellipse cx="596.3" cy="415.69" rx="68.62" ry="88.12" transform="translate(-126.35 337.3) rotate(-28.69)" style="fill:#071841"/><path d="M575.41,452c-.32-.22-.21-.4.18-.61,1.26-.68,2.28-1.78,3.55-2.46a4.55,4.55,0,0,0,.79-.41,13.7,13.7,0,0,0,0-1.57l.18-10.31c0-.74,1-.6,1,.14v.78l.22-3.62,28.88,4.18a22.65,22.65,0,0,0-.31,2.46c.28-.25.83,0,.82.53,0,3.37-.11,6.75-.17,10.12a5.51,5.51,0,0,0,0,1.15c.07-.19.85.92,1,1.16,1.12,1.27,3.7,3.17,4.81,4.44.49.56,5.4,6.2,4.91,5.65s3.77,8.28-1.47,2.55c1.17,1.64,13.26,10.48,13.26,10.48l-38.18-1.24L566,459.36Z" style="fill:#fff"/><path d="M571.27,398.25c.63.19.65,1.37,0,1.18-5.1-1.54-3.5,9.38-3,12.66-.39-3-1.35-8.25-.74-11,.22-1,1.52-1.93,2.18-2.6s1.35,1.14,2.25,1.59l3.31,22.33h-.2c.11.35,0,.81-.44.79-5.6-.2-7-7.79-7.62-12.86C566.5,406.52,565.75,396.59,571.27,398.25Z" style="fill:#fff"/><path d="M615,429.06c5.59,1.59,7-5.57,7.67-10.43.48-3.74,1.28-13.34-4.2-13.44-.64,0-.63,1.17,0,1.18h-.27l-3.46,21.25a7.79,7.79,0,0,0,1.32.42,4.87,4.87,0,0,1-1.08-.17C614.38,427.7,614.4,428.88,615,429.06Z" style="fill:#fff"/><path d="M574.51,379.7c2.68-6.75,8-9.87,14.47-9.93,1.83.09,3.69.41,5.53.65h.28c5.55.89,11,2,15.49,7.08,4.27,4.79,6.16,11.46,6.94,17.81.95,7.71.49,15.36-.2,22.81-.51,5.55-.36,11.84-2.29,16.79-2.56,6.54-7.58,9-13.29,10.65s-11.57-.94-17.06-4.63c-6.15-4.13-9.74-11.54-10.47-19.3-.6-6.37-1.38-12.77-1.72-19.12C571.77,394.79,571.83,386.49,574.51,379.7Z" style="fill:#fff"/><path d="M576.27,405.14a2.05,2.05,0,0,1,.23-2.66l.61-.61c1.37-1.4,2.93-3,5.13-2.68a23.83,23.83,0,0,1,6.82,1.92,3,3,0,0,1,1.39,3.17c-.2,1.07-1,1.58-1.86,1.24h0a25.63,25.63,0,0,0-3-.84c-.83-.19-1.69-.39-2.56-.67-1.7-.56-3-.19-4.5,1.31a1.41,1.41,0,0,1-1.24.47A1.59,1.59,0,0,1,576.27,405.14Z" style="fill:#5ecff5"/><path d="M611.78,412.12c-1.56-1.95-2.83-2.69-4.53-2.63-.87,0-1.72,0-2.55-.08a21.45,21.45,0,0,0-3,0h0c-.88.07-1.66-.66-1.88-1.79s.21-2.59,1.34-2.77a21.38,21.38,0,0,1,6.82.07c2.19.34,3.78,2.38,5.17,4.18l.63.8a2.55,2.55,0,0,1,.6,2,1.23,1.23,0,0,1-.93,1,1,1,0,0,1-.41,0A2,2,0,0,1,611.78,412.12Z" style="fill:#5ecff5"/><path d="M596.37,385.7h0q-8.52-1.5-17-3.46a20.76,20.76,0,0,1-5.78-2,4.31,4.31,0,0,1-2.08-2.17,6.25,6.25,0,0,1,.31-4.34c2.83-7.59,8.81-12,15.14-12.9s13,1.37,19.2,4.87c4.57,2.57,10.67,7.38,11,15.13.24,5.93-7,5.71-10,5.86A48.88,48.88,0,0,1,596.37,385.7Z" style="fill:#5ecff5"/><path d="M611.94,386.6h0a2.1,2.1,0,0,1,.09-.93,1.34,1.34,0,0,1,.63-.57l2.37-1.35a2.44,2.44,0,0,1,1.41-.45c.94.1,1.68,1.17,2.17,2.19a20.89,20.89,0,0,1,1.88,9.24,43.42,43.42,0,0,1-1.22,9c-.45,2.08-.76,5.24-1.82,6.86-1.09-.61-1.72-3.9-2.1-5.15-.64-2.07-1.2-4.16-1.66-6.27A77.14,77.14,0,0,1,611.94,386.6Z" style="fill:#5ecff5"/><path d="M576.67,381.44h0a2.25,2.25,0,0,0-.1-1,2.14,2.14,0,0,0-.64-.76l-2.4-2a3.46,3.46,0,0,0-1.42-.86c-.94-.17-1.67.68-2.14,1.56a17.59,17.59,0,0,0-1.75,8.71,48.68,48.68,0,0,0,1.36,9.38c.49,2.22.84,5.47,1.93,7.41,1.08-.29,1.66-3.41,2-4.55q.91-2.83,1.57-5.8A68.32,68.32,0,0,0,576.67,381.44Z" style="fill:#5ecff5"/><path d="M544,461.08a5.56,5.56,0,0,1,.83-.78h0c2.65-1.93,6-2.6,8.86-3.19s6.91-1.72,10.69-2.79,7.71-2.19,10.74-2.81l.52-.1.18.62c-.82,8.93,7,17,15.41,18.5,8.89,1.56,25.48-.66,24.43-12.89l.19-.52.49.24a89.11,89.11,0,0,1,9.56,5.88,87.41,87.41,0,0,0,9.41,5.8,31.66,31.66,0,0,1,8.93,5.79c1.67,1.68,3.61,5.4,5.53,10.11a54.25,54.25,0,0,1-35.91,14.76C587.76,500.7,561.55,485.12,544,461.08Z" style="fill:#5ecff5"/><path d="M616.15,429.94l-2.32-1.64a60.07,60.07,0,0,0-18.52-9l-.23-.07a35.19,35.19,0,0,0-13.31-1.17l-8.27,1,.7,8.26s-.4,16.58,18,20.93C617.58,454.26,616.15,429.94,616.15,429.94Z" style="fill:#5ecff5"/><path d="M603.7,431.1l-2.43-1.62a19.59,19.59,0,0,0-6.2-2.74l-2.67-.61a11.47,11.47,0,0,0-4.29-.22l-4.31.67.25,4.41s.88,7.45,10.48,9.93C606.56,444,603.7,431.1,603.7,431.1Z" style="fill:#fff"/><path d="M594.69,447.11l1.08.26c2.82.7,4.9-1.3,4.65-4.46l-.32-3.84a8.18,8.18,0,0,0-5.57-7l-1.08-.26c-2.82-.7-4.9,1.3-4.64,4.45l.31,3.85C589.38,443.29,591.87,446.41,594.69,447.11Z" style="fill:#5ecff5"/><path d="M492.94,337.3l4,9.44a2.08,2.08,0,0,0,1.17,1.14l9,3.13c1.28.44,1.79,2.21.87,3l-6.5,5.49a1.48,1.48,0,0,0-.44,1.38l1.53,9.82a1.37,1.37,0,0,1-.94,1.68,1.36,1.36,0,0,1-1.36-.38l-8-6.06a1.58,1.58,0,0,0-1.45-.28l-8,2.94c-1.14.42-2.47-.87-2.26-2.19l1.54-9.22a2,2,0,0,0-.45-1.56l-6.49-8c-.93-1.14-.42-2.71.86-2.66l9,.35a1.23,1.23,0,0,0,1.17-.68l4-7.88C490.72,335.63,492.37,336,492.94,337.3Z" style="fill:#fff"/><path d="M450.58,326.59l4,9.44a2,2,0,0,0,1.17,1.14l9,3.13c1.28.44,1.79,2.21.86,3l-6.49,5.49a1.48,1.48,0,0,0-.45,1.38l1.54,9.82a1.36,1.36,0,0,1-1,1.65,1.37,1.37,0,0,1-1.27-.34l-8-6.05a1.53,1.53,0,0,0-1.44-.29l-8,2.94c-1.14.42-2.48-.87-2.26-2.18l1.53-9.23a2,2,0,0,0-.44-1.55l-6.5-8c-.92-1.14-.41-2.71.87-2.66l9,.35a1.23,1.23,0,0,0,1.17-.68l4-7.88C448.36,324.93,450,325.25,450.58,326.59Z" style="fill:#fff"/><path d="M408.27,315.88l4,9.45a2,2,0,0,0,1.17,1.13l9,3.13c1.28.45,1.79,2.22.86,3l-6.49,5.48a1.48,1.48,0,0,0-.45,1.38l1.53,9.82a1.35,1.35,0,0,1-2.25,1.31l-8-6.05a1.55,1.55,0,0,0-1.45-.28l-8,2.94c-1.14.41-2.48-.88-2.26-2.19l1.53-9.23a2,2,0,0,0-.44-1.55l-6.5-8c-.92-1.14-.41-2.72.86-2.67l9,.36a1.23,1.23,0,0,0,1.17-.68l4-7.89C406,314.22,407.66,314.54,408.27,315.88Z" style="fill:#fff"/><path d="M365.88,305.17l4,9.45a2.06,2.06,0,0,0,1.17,1.13l9,3.13c1.27.45,1.78,2.22.86,3l-6.49,5.48a1.48,1.48,0,0,0-.45,1.38l1.53,9.82a1.36,1.36,0,0,1-1,1.65,1.37,1.37,0,0,1-1.27-.34l-8-6.05a1.55,1.55,0,0,0-1.45-.28l-8,2.94c-1.15.42-2.48-.88-2.26-2.19l1.53-9.22a2,2,0,0,0-.45-1.56l-6.49-8c-.92-1.14-.41-2.71.86-2.66l9,.35a1.23,1.23,0,0,0,1.17-.68l4-7.89C363.66,303.51,365.27,303.83,365.88,305.17Z" style="fill:#fff"/><path d="M323.53,294.47l4,9.44A2.06,2.06,0,0,0,328.7,305l9,3.13c1.28.45,1.79,2.22.87,3l-6.5,5.49a1.45,1.45,0,0,0-.44,1.38l1.53,9.82a1.36,1.36,0,0,1-1,1.65,1.37,1.37,0,0,1-1.27-.34l-8-6.06a1.58,1.58,0,0,0-1.45-.28l-8,2.94c-1.14.42-2.47-.87-2.25-2.19l1.53-9.22a2,2,0,0,0-.45-1.56l-6.49-8c-.93-1.14-.42-2.71.86-2.66l9,.35a1.22,1.22,0,0,0,1.17-.68l4-7.88C321.27,292.8,323,293.12,323.53,294.47Z" style="fill:#fff"/><line x1="508.8" y1="419.21" x2="305.15" y2="366.03" style="fill:none;stroke:#071841;stroke-linecap:round;stroke-linejoin:round;stroke-width:3px"/><line x1="505.86" y1="455.16" x2="373.07" y2="420.48" style="fill:none;stroke:#071841;stroke-linecap:round;stroke-linejoin:round;stroke-width:3px"/><path d="M693.87,781.22l-369-94c-15.24-3.88-27.7-22.13-27.7-40.55V500.9c0-18.42,12.46-30.32,27.7-26.44l369,94c15.23,3.88,27.69,22.13,27.69,40.55V754.78C721.56,773.2,709.1,785.1,693.87,781.22Z" style="fill:#5b67f0;opacity:0.20999999344348907;isolation:isolate"/><path d="M668.27,804.36l-369-94c-15.23-3.89-27.69-22.13-27.69-40.56V524c0-18.42,12.46-30.31,27.69-26.43l369,94c15.23,3.88,27.7,22.13,27.7,40.55V777.93C695.93,796.35,683.46,808.24,668.27,804.36Z" style="fill:#fffcfa"/><path d="M492.94,598.22l4,9.44a2,2,0,0,0,1.17,1.14l9,3.13c1.28.44,1.79,2.21.87,3l-6.5,5.49a1.48,1.48,0,0,0-.44,1.38l1.53,9.82a1.36,1.36,0,0,1-1,1.65,1.37,1.37,0,0,1-1.27-.34l-8-6a1.55,1.55,0,0,0-1.45-.29l-8,2.94c-1.14.42-2.47-.87-2.26-2.18l1.54-9.23a2,2,0,0,0-.45-1.55l-6.49-8c-.93-1.14-.42-2.71.86-2.66l9,.35a1.23,1.23,0,0,0,1.17-.68l4-7.88C490.72,596.56,492.37,596.88,492.94,598.22Z" style="fill:#ffd131"/><path d="M450.58,587.51l4,9.45a2,2,0,0,0,1.17,1.13l9,3.13c1.28.45,1.79,2.22.86,3l-6.5,5.48a1.48,1.48,0,0,0-.45,1.38l1.54,9.82a1.36,1.36,0,0,1-1,1.65,1.37,1.37,0,0,1-1.27-.34l-8-6a1.53,1.53,0,0,0-1.44-.28l-8,2.94c-1.14.41-2.48-.88-2.26-2.19l1.53-9.23a2,2,0,0,0-.44-1.55l-6.5-8c-.92-1.13-.41-2.71.87-2.66l9,.36a1.23,1.23,0,0,0,1.17-.68l4-7.89C448.36,585.85,450,586.17,450.58,587.51Z" style="fill:#ffd131"/><path d="M408.27,576.8l4,9.45a2,2,0,0,0,1.17,1.13l9,3.13c1.28.45,1.79,2.22.86,3L416.81,599a1.48,1.48,0,0,0-.45,1.38l1.53,9.82a1.35,1.35,0,0,1-2.25,1.31l-8-6a1.55,1.55,0,0,0-1.45-.28l-8,2.94c-1.14.42-2.48-.88-2.26-2.19l1.53-9.22a2,2,0,0,0-.44-1.56l-6.5-8c-.92-1.14-.41-2.71.86-2.66l9,.35a1.23,1.23,0,0,0,1.17-.68l4-7.89C406,575.14,407.66,575.46,408.27,576.8Z" style="fill:#ffd131"/><path d="M365.88,566.1l4,9.44a2.06,2.06,0,0,0,1.17,1.13l9,3.13c1.27.45,1.78,2.22.86,3l-6.49,5.48a1.48,1.48,0,0,0-.45,1.39l1.53,9.82a1.36,1.36,0,0,1-2.23,1.31l-8-6.06a1.58,1.58,0,0,0-1.45-.28l-8,2.94c-1.15.42-2.48-.87-2.26-2.19l1.53-9.22a2,2,0,0,0-.45-1.56l-6.49-8c-.92-1.14-.41-2.71.86-2.66l9,.35a1.23,1.23,0,0,0,1.17-.68l4-7.88C363.66,564.43,365.27,564.75,365.88,566.1Z" style="fill:#ffd131"/><path d="M323.53,555.39l4,9.44A2.08,2.08,0,0,0,328.7,566l9,3.13c1.28.44,1.79,2.21.87,3l-6.5,5.49a1.48,1.48,0,0,0-.44,1.38l1.53,9.82a1.36,1.36,0,0,1-1,1.65,1.37,1.37,0,0,1-1.27-.34l-8-6.06a1.58,1.58,0,0,0-1.45-.28l-8,2.94c-1.14.42-2.47-.87-2.25-2.18l1.53-9.23a2,2,0,0,0-.45-1.55l-6.49-8c-.93-1.14-.42-2.71.86-2.66l9,.35a1.22,1.22,0,0,0,1.17-.68l4-7.88C321.27,553.7,323,554.05,323.53,555.39Z" style="fill:#ffd131"/><line x1="508.8" y1="680.14" x2="305.15" y2="626.95" style="fill:none;stroke:#071841;stroke-linecap:round;stroke-linejoin:round;stroke-width:3px"/><line x1="505.86" y1="716.08" x2="373.07" y2="681.4" style="fill:none;stroke:#071841;stroke-linecap:round;stroke-linejoin:round;stroke-width:3px"/><path d="M693.87,1042.14l-369-94c-15.24-3.88-27.7-22.13-27.7-40.55V761.82c0-18.42,12.46-30.32,27.7-26.44l369,94c15.23,3.88,27.69,22.13,27.69,40.55V1015.7C721.56,1034.12,709.1,1046,693.87,1042.14Z" style="fill:#5b67f0;opacity:0.20999999344348907;isolation:isolate"/><path d="M668.27,1065.28l-369-94c-15.23-3.88-27.69-22.13-27.69-40.55V785c0-18.42,12.46-30.31,27.69-26.43l369,94c15.23,3.89,27.7,22.13,27.7,40.55v145.73C695.93,1057.27,683.46,1069.16,668.27,1065.28Z" style="fill:#73d0d9"/><path d="M492.94,859.14l4,9.44a2,2,0,0,0,1.17,1.14l9,3.13c1.28.45,1.79,2.22.87,3l-6.5,5.48a1.48,1.48,0,0,0-.44,1.38l1.53,9.82a1.36,1.36,0,0,1-1,1.65,1.37,1.37,0,0,1-1.27-.34l-8-6.05a1.55,1.55,0,0,0-1.45-.28l-8,2.94c-1.14.41-2.47-.88-2.26-2.19l1.54-9.23a2,2,0,0,0-.45-1.55l-6.49-8c-.93-1.13-.42-2.71.86-2.66l9,.36a1.23,1.23,0,0,0,1.17-.68l4-7.89C490.72,857.48,492.37,857.8,492.94,859.14Z" style="fill:#fff"/><path d="M450.58,848.43l4,9.45a2,2,0,0,0,1.17,1.13l9,3.13c1.28.45,1.79,2.22.86,3l-6.49,5.48a1.48,1.48,0,0,0-.45,1.38l1.54,9.82a1.36,1.36,0,0,1-1,1.65,1.37,1.37,0,0,1-1.27-.34l-8-6a1.53,1.53,0,0,0-1.44-.28l-8,2.94c-1.14.42-2.48-.88-2.26-2.19l1.53-9.22a2,2,0,0,0-.44-1.56l-6.5-8c-.92-1.14-.41-2.71.87-2.66l9,.35a1.23,1.23,0,0,0,1.17-.68l4-7.89C448.36,846.77,450,847.09,450.58,848.43Z" style="fill:#fff"/><path d="M408.27,837.7l4,9.44a2,2,0,0,0,1.17,1.13l9,3.13c1.28.45,1.79,2.22.86,3l-6.49,5.48a1.48,1.48,0,0,0-.45,1.39l1.53,9.82a1.35,1.35,0,0,1-2.25,1.31l-8-6.06a1.58,1.58,0,0,0-1.45-.28l-8,2.94c-1.14.42-2.48-.87-2.26-2.19l1.53-9.22A2,2,0,0,0,397,856l-6.5-8c-.92-1.14-.41-2.71.86-2.66l9,.35a1.23,1.23,0,0,0,1.17-.68l4-7.89C406,836.06,407.66,836.38,408.27,837.7Z" style="fill:#fff"/><path d="M365.88,827l4,9.44a2.08,2.08,0,0,0,1.17,1.14l9,3.13c1.27.44,1.78,2.21.86,3l-6.49,5.49a1.46,1.46,0,0,0-.45,1.38l1.53,9.82a1.36,1.36,0,0,1-1.08,1.59,1.34,1.34,0,0,1-1.15-.31l-8-6.06a1.58,1.58,0,0,0-1.45-.28l-8,2.94c-1.15.42-2.48-.87-2.26-2.18l1.53-9.23a2,2,0,0,0-.45-1.55l-6.49-8c-.92-1.14-.41-2.71.86-2.66l9,.35a1.23,1.23,0,0,0,1.17-.68l4-7.88C363.66,825.36,365.27,825.7,365.88,827Z" style="fill:#fff"/><path d="M323.53,816.31l4,9.44a2.08,2.08,0,0,0,1.17,1.14l9,3.13c1.28.44,1.79,2.21.87,3l-6.5,5.49a1.48,1.48,0,0,0-.44,1.38l1.53,9.82a1.36,1.36,0,0,1-1,1.65,1.37,1.37,0,0,1-1.27-.34l-8-6a1.52,1.52,0,0,0-1.45-.28l-8,2.93c-1.14.42-2.47-.87-2.25-2.18l1.53-9.23a2,2,0,0,0-.45-1.55l-6.49-8c-.93-1.13-.42-2.71.86-2.66l9,.35a1.22,1.22,0,0,0,1.17-.67l4-7.89C321.27,814.7,323,815,323.53,816.31Z" style="fill:#fff"/><line x1="508.8" y1="941.06" x2="305.15" y2="887.87" style="fill:none;stroke:#071841;stroke-linecap:round;stroke-linejoin:round;stroke-width:3px"/><line x1="505.86" y1="977" x2="373.07" y2="942.32" style="fill:none;stroke:#071841;stroke-linecap:round;stroke-linejoin:round;stroke-width:3px"/><ellipse cx="597.06" cy="956.04" rx="68.41" ry="87.84" transform="translate(-385.67 404) rotate(-28.69)" style="fill:#071841"/><path d="M616.89,916.89s25.54,23.68,6.82,69.15l-34.07-4.22Z" style="fill:#5ecff5"/><path d="M576.27,992.27c-.32-.22-.22-.4.17-.6,1.27-.68,2.28-1.78,3.54-2.45a4,4,0,0,0,.79-.42,13.53,13.53,0,0,0,0-1.56L581,977c0-.74,1-.6,1,.14v.78l.22-3.61L611,978.44a22.29,22.29,0,0,0-.31,2.44.54.54,0,0,1,.82.54c-.05,3.33-.1,6.7-.17,10.09,0,.28-.08.79,0,1.15.07-.2.84.91,1,1.14,1.11,1.28,3.68,3.17,4.79,4.44.49.55,5.38,6.17,4.9,5.62s3.76,8.26-1.47,2.55c1.17,1.63,13.22,10.45,13.22,10.45l-38.06-1.24-28.84-16Z" style="fill:#fff"/><path d="M572,938.7c.63.19.65,1.37,0,1.17-5.08-1.53-3.49,9.36-3,12.63-.38-3-1.34-8.22-.74-11,.22-1,1.52-1.92,2.17-2.59s1.36,1.14,2.25,1.59l3.34,22.27h-.2c.11.35,0,.81-.44.8-5.59-.21-7-7.78-7.6-12.83C567.34,946.91,566.58,937,572,938.7Z" style="fill:#fff"/><path d="M615.72,969.38c5.57,1.59,7-5.55,7.65-10.39.48-3.73,1.28-13.3-4.19-13.4-.63,0-.63,1.16,0,1.17h-.26l-3.46,21.18a8.76,8.76,0,0,0,1.32.41,4.94,4.94,0,0,1-1.08-.16C615.07,968,615.09,969.2,615.72,969.38Z" style="fill:#fff"/><path d="M575.32,920.19a14.8,14.8,0,0,1,14.42-9.9c1.83.09,3.69.4,5.52.65h.28c5.53.88,11,2,15.44,7.06,4.25,4.77,6.14,11.42,6.92,17.75.94,7.68.49,15.32-.2,22.74-.51,5.53-.36,11.8-2.29,16.74-2.54,6.52-7.55,9-13.24,10.62s-11.54-.94-17-4.62c-6.13-4.12-9.71-11.51-10.44-19.25-.6-6.34-1.37-12.72-1.72-19C572.59,935.22,572.64,926.94,575.32,920.19Z" style="fill:#fff"/><path d="M589.64,943.87" style="fill:#5981eb"/><path d="M597.11,926.14h0q-8.5-1.5-17-3.45a20.63,20.63,0,0,1-5.76-2,4.31,4.31,0,0,1-2.07-2.16,6.22,6.22,0,0,1,.31-4.33c2.82-7.57,8.78-12,15.09-12.87s12.93,1.37,19.14,4.86c4.56,2.57,10.63,7.36,10.94,15.08.23,5.92-7,5.7-10,5.84A47.57,47.57,0,0,1,597.11,926.14Z" style="fill:#5ecff5"/><path d="M612.63,927.05h0a2.06,2.06,0,0,1,.09-.92,1.45,1.45,0,0,1,.63-.57l2.36-1.34a2.44,2.44,0,0,1,1.41-.45c.93.1,1.68,1.17,2.17,2.18a21,21,0,0,1,1.87,9.21,43.42,43.42,0,0,1-1.22,9c-.45,2.07-.75,5.21-1.81,6.83-1.09-.6-1.71-3.89-2.1-5.13a61.33,61.33,0,0,1-1.66-6.25A78.11,78.11,0,0,1,612.63,927.05Z" style="fill:#5ecff5"/><path d="M544.86,1001.3a6,6,0,0,1,.82-.77h0c2.65-1.93,5.94-2.6,8.84-3.19s6.88-1.71,10.65-2.78,7.69-2.18,10.71-2.79l.51-.1.19.61c1.71,8.64,8.61,16.2,17,17.67,8.87,1.56,23.74.12,22.69-12.07l.19-.52.49.24a88.54,88.54,0,0,1,9.53,5.86,89.47,89.47,0,0,0,9.38,5.78c2.92,1.44,6.22,3.07,8.9,5.77,1.66,1.68,3.6,5.38,5.51,10.08a54.05,54.05,0,0,1-35.79,14.76C588.53,1040.79,562.4,1025.27,544.86,1001.3Z" style="fill:#5ecff5"/><path d="M604.41,971.42l-2.47-1.62a19.63,19.63,0,0,0-6.17-2.73l-2.66-.61a11.42,11.42,0,0,0-4.28-.22l-4.3.67.25,4.4s.88,7.43,10.45,9.89C607.27,984.31,604.41,971.42,604.41,971.42Z" style="fill:#fff"/><path d="M590.43,924.89s-22.95,9.36-9.66,59.5l-18.12-1.13s-11.76-54,10-69S590.43,924.89,590.43,924.89Z" style="fill:#5ecff5"/><path d="M576.36,948.77a.9.9,0,0,1-.12-1.27.92.92,0,0,1,.31-.24l.52-.34a6.13,6.13,0,0,1,4.32-1.42,28.35,28.35,0,0,1,5.75,1.24,1.6,1.6,0,0,1,1.17,1.83,1.17,1.17,0,0,1-1.5.7l-.07,0h0c-.84-.23-1.66-.38-2.54-.54-.7-.13-1.42-.26-2.15-.44a4.45,4.45,0,0,0-3.79.66,1.6,1.6,0,0,1-1,.24A1.5,1.5,0,0,1,576.36,948.77Z" style="fill:#5ecff5"/><path d="M609.35,952a1.52,1.52,0,0,1-1-.45,4.27,4.27,0,0,0-3.54-1.42H600c-.78.06-1.35-.34-1.38-1a1.65,1.65,0,0,1,1.57-1.55,27.8,27.8,0,0,1,5.91,0,6,6,0,0,1,3.88,2.27l.42.43a.92.92,0,0,1,.14,1.28,1,1,0,0,1-.3.24A1.62,1.62,0,0,1,609.35,952Z" style="fill:#5ecff5"/><path d="M593.78,981.76s-7.66-1.31-12.7-4.56V982S592.51,986.09,593.78,981.76Z" style="fill:#5ecff5"/><ellipse cx="595.95" cy="680.27" rx="68.74" ry="88.27" transform="translate(-253.41 369.62) rotate(-28.69)" style="fill:#071841"/><path d="M574.27,716.47c-.32-.22-.22-.4.18-.61,1.27-.68,2.28-1.78,3.55-2.46a4.07,4.07,0,0,0,.8-.42,13.7,13.7,0,0,0,0-1.57l.17-10.33c0-.74,1-.6,1,.15V702l.22-3.63,28.93,4.19a22.67,22.67,0,0,0-.32,2.46.55.55,0,0,1,.75.16.54.54,0,0,1,.08.37q-.07,5.07-.17,10.14a5.61,5.61,0,0,0,0,1.16c.07-.2.85.91,1,1.15,1.12,1.28,3.71,3.18,4.82,4.45l4.92,5.66c-.53-.61,3.78,8.29-1.47,2.55,1.17,1.64,13.28,10.51,13.28,10.51l-38.24-1.25-29-16.11Z" style="fill:#fff"/><path d="M570.06,662.61c.64.19.66,1.37,0,1.18-5.1-1.54-3.51,9.4-3,12.69-.38-3-1.34-8.27-.74-11,.23-1,1.53-1.93,2.19-2.6s1.36,1.14,2.25,1.6l3.36,22.38h-.2c.11.35,0,.81-.44.8-5.61-.21-7-7.82-7.63-12.89C565.34,670.89,564.58,661,570.06,662.61Z" style="fill:#fff"/><path d="M614,693.47c5.6,1.59,7-5.58,7.69-10.45.48-3.75,1.28-13.36-4.21-13.46-.64,0-.63,1.17,0,1.18h-.27L613.69,692a10.27,10.27,0,0,0,1.33.42,5,5,0,0,1-1.09-.17C613.27,692.1,613.32,693.29,614,693.47Z" style="fill:#fff"/><path d="M573.36,644c2.68-6.76,8-9.89,14.49-10,1.84.09,3.7.41,5.55.65h.28c5.55.89,11,2,15.51,7.1,4.27,4.79,6.17,11.48,7,17.84,1,7.71.5,15.38-.2,22.84-.51,5.56-.36,11.86-2.3,16.82-2.56,6.55-7.58,9-13.31,10.67s-11.58-.94-17.09-4.63c-6.16-4.14-9.75-11.57-10.49-19.34-.6-6.38-1.37-12.79-1.72-19.15C570.61,659.15,570.67,650.83,573.36,644Z" style="fill:#fff"/><path d="M575.07,669.51a2.05,2.05,0,0,1,.23-2.66l.61-.62c1.38-1.4,2.94-3,5.14-2.68a24,24,0,0,1,6.84,1.93,3,3,0,0,1,1.38,3.22c-.21,1.07-1,1.58-1.87,1.24h0a25.63,25.63,0,0,0-3-.84c-.83-.19-1.68-.39-2.56-.67-1.7-.56-3-.19-4.5,1.31a1.47,1.47,0,0,1-1.25.47A1.54,1.54,0,0,1,575.07,669.51Z" style="fill:#5ecff5"/><path d="M610.69,676.51c-1.56-2-2.83-2.7-4.53-2.64-.88,0-1.73,0-2.56-.08a21.45,21.45,0,0,0-3,0h0c-.89.07-1.67-.66-1.89-1.8s.21-2.59,1.35-2.77a21.38,21.38,0,0,1,6.82.07c2.2.34,3.79,2.38,5.19,4.19.21.27.41.54.62.79a2.5,2.5,0,0,1,.6,2.06,1.21,1.21,0,0,1-.92,1,1.41,1.41,0,0,1-.41,0A2.13,2.13,0,0,1,610.69,676.51Z" style="fill:#5ecff5"/><path d="M595.27,650h0c-5.69-1-18,7.51-23.69,6.2-1.94-.44,2.71-10.58.83-11.64a4.31,4.31,0,0,1-2.08-2.17,6.28,6.28,0,0,1,.32-4.35c2.83-7.6,8.82-12,15.16-12.93s13,1.38,19.23,4.89c4.58,2.57,10.68,7.39,11,15.15.24,5.94-7.06,5.72-10,5.87A48.67,48.67,0,0,1,595.27,650Z" style="fill:#5ecff5"/><path d="M610.85,650.94h0a2.1,2.1,0,0,1,.09-.93,1.37,1.37,0,0,1,.63-.58l2.37-1.35a2.41,2.41,0,0,1,1.42-.44c.94.1,1.68,1.17,2.18,2.19a21,21,0,0,1,1.88,9.25,44.1,44.1,0,0,1-1.22,9c-.46,2.08-.76,5.25-1.83,6.87-1.09-.61-1.72-3.91-2.1-5.16-.64-2.07-1.2-4.17-1.67-6.28A77.14,77.14,0,0,1,610.85,650.94Z" style="fill:#5ecff5"/><path d="M542.75,725.55a5.56,5.56,0,0,1,.83-.78h0c2.66-1.94,6-2.61,8.87-3.2s6.92-1.72,10.71-2.8,7.73-2.19,10.76-2.81l.52-.1.18.62c-.82,9,7,17,15.44,18.53,8.91,1.57,25.52-.66,24.46-12.91l.2-.52.49.24a89.33,89.33,0,0,1,9.57,5.89,87.67,87.67,0,0,0,9.43,5.8c2.93,1.45,6.25,3.09,8.95,5.81,1.67,1.69,3.61,5.4,5.53,10.12a54.29,54.29,0,0,1-36,14.83C586.63,765.22,560.37,749.62,542.75,725.55Z" style="fill:#5ecff5"/><path d="M591.62,706.25s-7.57.35-12.71-4.75v4.94S590.34,710.6,591.62,706.25Z" style="fill:#5ecff5"/><path d="M575.08,644h0a2.26,2.26,0,0,0-.11-1,2.14,2.14,0,0,0-.64-.76l-2.4-2a3.3,3.3,0,0,0-1.42-.86c-.94-.18-1.68.68-2.15,1.56a17.52,17.52,0,0,0-1.75,8.72A48.88,48.88,0,0,0,568,659c.49,2.22.84,5.48,1.93,7.42,1.09-.29,1.67-3.42,2-4.56.61-1.89,1.14-3.82,1.57-5.81A69.52,69.52,0,0,0,575.08,644Z" style="fill:#5ecff5"/><path d="M322.19,716.08l-22.92-5.54C284,706.66,271.58,688.41,271.58,670V524.27c0-18.42,12.46-30.32,27.69-26.44" style="fill:none;stroke:#071841;stroke-linecap:round;stroke-linejoin:round"/><polygon points="890.95 792.78 916.4 809.87 935.78 814.09 928.42 831.97 910.62 825.95 885.46 804.58 890.95 792.78" style="fill:#2d6375"/><path d="M872.32,783.58h0a8.32,8.32,0,0,1,11.71-.82l4.51,3.93a8.33,8.33,0,0,1,.82,11.72h0a8.33,8.33,0,0,1-11.71.81l-4.52-3.93A8.32,8.32,0,0,1,872.32,783.58Z" style="fill:#fca372"/><path d="M854.51,642.81c12,61.7-29.28,96.53-73.3,97.16s-82.56-41.86-86.1-94.89,29.29-96.52,73.3-97.15S844.36,590.7,854.51,642.81Z" style="fill:#637a94;opacity:0.4000000059604645;isolation:isolate"/><polygon points="866.42 788.63 850.06 809.87 813.66 735.79 833.32 721.27 866.42 788.63" style="fill:#071841"/><path d="M924.77,868.61h0l-45.12-87.8h0c-1.25-3.71-5.49-5.89-12.13-5.49-11.58.69-26,8.92-32.24,18.38-3.22,4.89-3.6,9.14-1.62,12h0l10.61,20.6h0L889,913.6l46.36-24.42Z" style="fill:#071841"/><ellipse cx="912.64" cy="902.17" rx="25.98" ry="9.56" transform="translate(-323.98 559.24) rotate(-29.17)" style="fill:#24307d"/><path d="M804.18,553.19c-43.6-24.33-90.21-2.37-104.09,49S710.28,715,753.89,739.35s90.2,2.37,104.08-49.05S847.78,577.52,804.18,553.19ZM852.81,685c-11.79,43.67-58.1,61-95.14,40.37S700.18,652.54,712,608.87s54.74-68.29,91.77-47.63S864.61,641.32,852.81,685Z" style="fill:#071841"/><path d="M880.41,659.7c.1-1.13.19-2.26.25-3.39v-.61a14.62,14.62,0,0,1,.06-1.62c.06-.54.06-1.31.08-2v-5.84c0-.54,0-1.17-.06-1.76v-.87c0-.77-.1-1.54-.15-2.32l-.09-1.5v-.42c-.11-1.38-.24-2.76-.4-4.14h0v-.38c-.14-1.22-.3-2.44-.47-3.65l-.09-.58c-.07-.46-.15-.92-.22-1.37-.1-.66-.2-1.32-.31-2l-.24-1.25c-.09-.51-.19-1-.29-1.52s-.13-.74-.21-1.11c-.15-.74-.32-1.47-.49-2.21-.08-.39-.16-.79-.25-1.18a1.6,1.6,0,0,0-.1-.42c-.3-1.28-.62-2.57-1-3.85v-.16c-.1-.37-.21-.73-.31-1.1-.27-1-.54-2-.84-2.94a1.88,1.88,0,0,0-.14-.46c-.25-.8-.51-1.6-.77-2.4-.21-.64-.4-1.28-.62-1.92a1.09,1.09,0,0,0-.13-.34c-.71-2.07-1.48-4.11-2.29-6.13-.06-.17-.12-.34-.19-.52-.21-.51-.44-1-.65-1.51-.35-.83-.69-1.66-1.06-2.48s-.66-1.45-1-2.17-.75-1.61-1.15-2.41c-.12-.26-.24-.53-.37-.8l-1-1.86-.66-1.29c-.71-1.33-1.44-2.65-2.19-3.94h0c-.86-1.49-1.75-2.94-2.67-4.38l-.11-.2c-.67-1-1.36-2.07-2.06-3.09l-.41-.63h0c-.83-1.21-1.68-2.39-2.55-3.56l-.14-.17c-.26-.36-.54-.7-.81-1-.56-.73-1.11-1.46-1.68-2.17l-.33-.39c-.38-.48-.78-.94-1.18-1.41s-.86-1.05-1.3-1.56c-.17-.19-.34-.37-.5-.56L848,562.66c-.38-.42-.75-.84-1.14-1.25-.21-.23-.44-.45-.66-.68-.48-.5-1-1-1.46-1.48s-.67-.7-1-1l-.82-.77c-.49-.48-1-.94-1.5-1.4l-.9-.86-1-.87L838,553.07l-.78-.67c-.42-.35-.86-.67-1.29-1l-1.42-1.12-.58-.45c-.58-.44-1.18-.86-1.77-1.28-.41-.29-.81-.6-1.22-.88a3.55,3.55,0,0,1-.31-.23c-1.08-.74-2.17-1.46-3.28-2.16h0l-.24-.15c-1-.62-2-1.24-3-1.82l-.77-.44c-.84-.47-1.68-.92-2.53-1.35-.32-.17-.64-.31-1-.47l-1.31-.64-1-.5c-.55-.25-1.09-.48-1.64-.71l-1.17-.52-.48-.21c-1.1-.45-2.19-.87-3.29-1.26h0c-1.11-.4-2.23-.77-3.35-1.11l-.43-.13-1.22-.34c-.58-.16-1.15-.34-1.73-.48-.28-.08-.57-.13-.86-.2l-1.5-.35c-.39-.08-.78-.19-1.17-.27s-.81-.14-1.22-.21-1-.19-1.52-.27l-.81-.14-1.43-.18c-.6-.07-1.19-.15-1.79-.21l-.62-.08-1.48-.09L789.9,533h-4.83c-.86,0-1.7.07-2.55.13h-.32c-.65.05-1.29.11-1.93.18a8.36,8.36,0,0,0-1.21.16l-.92.11c-1.11.16-2.22.34-3.32.56h-.1c-.3.06-.59.14-.89.21-.92.19-1.84.4-2.74.64-.45.11-.88.25-1.32.38s-1.17.31-1.75.5c-.15,0-.29.11-.44.15-.89.29-1.77.62-2.65,1-.43.16-.86.3-1.28.47q-2,.78-3.84,1.68L739.15,549c1.27-.61,2.55-1.16,3.84-1.68.43-.17.86-.31,1.29-.47.88-.33,1.76-.66,2.65-.95.72-.23,1.45-.45,2.18-.65.44-.13.88-.27,1.32-.38.91-.24,1.83-.45,2.75-.65l.89-.2c1.13-.22,2.27-.41,3.42-.58l.92-.12c1-.13,2.08-.25,3.13-.33h.33c1.06-.07,2.12-.11,3.19-.14h4.18c.63,0,1.28.07,1.93.12s1.4.09,2.1.17l1.78.21c.75.1,1.5.2,2.25.32.51.08,1,.17,1.52.27.79.14,1.59.3,2.38.48.51.11,1,.22,1.51.35.86.21,1.72.44,2.58.68l1.22.34c1.27.38,2.53.79,3.79,1.24h0c1.26.45,2.51,1,3.77,1.47l1.17.51c.88.39,1.77.79,2.65,1.22.44.2.87.42,1.31.63,1.16.59,2.32,1.18,3.48,1.83s2.57,1.48,3.83,2.27l.23.13q1.83,1.17,3.62,2.41c.41.28.81.58,1.21.87.79.57,1.58,1.15,2.36,1.74l1.41,1.12c.7.55,1.39,1.11,2.07,1.69.51.42,1,.85,1.5,1.28s1.29,1.14,1.92,1.72l1.5,1.41q.93.89,1.83,1.8c.49.48,1,1,1.46,1.48s1.2,1.28,1.79,1.93c.45.48.89,1,1.33,1.46.61.69,1.2,1.39,1.8,2.1.39.47.79.94,1.18,1.42.67.84,1.33,1.69,2,2.55.27.36.55.7.81,1.06.93,1.23,1.83,2.49,2.71,3.76l.41.61c.74,1.09,1.47,2.19,2.18,3.31.91,1.42,1.79,2.87,2.64,4.33v.08h0c.76,1.33,1.49,2.67,2.2,4,.23.43.45.86.67,1.29.45.88.9,1.76,1.34,2.66s.77,1.6,1.15,2.41.67,1.44,1,2.17.71,1.64,1.06,2.47l.84,2c.81,2,1.58,4.06,2.29,6.12.26.76.5,1.51.74,2.27s.53,1.59.77,2.4c.35,1.12.67,2.25,1,3.39.11.37.22.74.32,1.11.39,1.47.76,3,1.1,4.43.09.39.18.79.26,1.18.25,1.1.48,2.21.7,3.32.1.51.19,1,.29,1.52.19,1.07.38,2.14.55,3.21.07.46.15.92.22,1.38.21,1.42.39,2.83.56,4.25v.35c.18,1.54.32,3.08.43,4.62,0,.5.07,1,.1,1.51.07,1.06.13,2.11.17,3.17v1.78c0,1,0,2,0,3V661c0,1,0,2-.08,3.07a14.35,14.35,0,0,1-.06,1.61c-.07,1.34-.16,2.68-.27,4v.59c-.14,1.52-.31,3-.5,4.56l-.18,1.3c-.16,1.09-.32,2.17-.5,3.26-.09.52-.19,1-.28,1.56-.19,1-.39,2-.61,3.07-.11.5-.21,1-.32,1.49-.33,1.45-.68,2.9-1.07,4.34s-.85,3-1.31,4.46c-.13.41-.28.81-.41,1.22-.34,1-.68,2-1,3-.2.57-.42,1.12-.64,1.68-.32.83-.65,1.65-1,2.46-.25.6-.5,1.19-.76,1.78s-.67,1.48-1,2.21a20.89,20.89,0,0,1-1,1.95c-.37.64-.67,1.31-1,2s-.82,1.51-1.25,2.24-.66,1.15-1,1.71c-.54.89-1.09,1.75-1.65,2.6-.36.54-.7,1.08-1.06,1.6-.18.27-.37.53-.55.79-.63.88-1.27,1.75-1.93,2.6-.12.17-.25.34-.38.5q-1.25,1.59-2.55,3.09h0c-.87,1-1.77,2-2.68,2.89l-.56.56c-.69.69-1.39,1.37-2.1,2-.28.27-.57.53-.86.79-.67.6-1.35,1.18-2,1.75-.26.22-.52.44-.79.65-.93.76-1.87,1.49-2.84,2.19l-.41.28c-.84.6-1.69,1.17-2.54,1.73l-1,.59c-.72.45-1.46.89-2.2,1.31L819,741c-1,.57-2.06,1.11-3.12,1.62l20.65-9.89c1.06-.51,2.1-1,3.13-1.61l.92-.53c.74-.42,1.48-.86,2.21-1.31l.94-.59c.86-.56,1.71-1.13,2.54-1.73.14-.09.28-.18.41-.28,1-.7,1.91-1.43,2.85-2.18l.78-.66c.69-.57,1.36-1.15,2-1.75.29-.26.58-.52.86-.79.71-.66,1.41-1.33,2.1-2l.56-.55.17-.17c.85-.88,1.69-1.79,2.51-2.73h0c.82-.94,1.62-1.9,2.4-2.89l.15-.21.39-.5c.65-.85,1.29-1.72,1.92-2.6l.55-.78.41-.58c.22-.33.43-.69.65-1,.56-.85,1.11-1.71,1.65-2.6.14-.23.3-.45.44-.69s.37-.68.56-1c.43-.73.84-1.48,1.25-2.24.16-.3.34-.6.51-.91s.33-.69.51-1c.32-.64.64-1.29,1-2,.16-.33.34-.66.49-1s.35-.81.53-1.21c.26-.59.52-1.18.77-1.78.12-.3.26-.59.39-.9.21-.51.39-1,.59-1.56s.44-1.11.65-1.68c.08-.23.17-.44.26-.67.27-.76.51-1.53.77-2.3.13-.41.28-.82.41-1.23a1.18,1.18,0,0,1,.1-.3c.41-1.29.79-2.6,1.15-3.92l.06-.24c.33-1.21.64-2.43.92-3.65.06-.23.1-.46.15-.69.11-.49.22-1,.32-1.48s.26-1.16.37-1.74.16-.89.24-1.34.19-1,.28-1.56c.06-.35.13-.69.18-1,.12-.74.21-1.49.32-2.24.06-.43.13-.85.18-1.28l.06-.43c.17-1.35.31-2.7.43-4.05v-.09A2.33,2.33,0,0,1,880.41,659.7Z" style="fill:#071841"/><path d="M802.79,549.55c-21.23-11.84-44.08-13.58-64.35-4.92-21.87,9.36-37.93,29.36-45.21,56.3-14.18,52.52,10.55,115.48,55.14,140.36,13,7.25,26.6,10.72,39.85,10.33a67.07,67.07,0,0,0,24.49-5.41c21.88-9.36,37.94-29.35,45.22-56.3C872.11,637.4,847.38,574.43,802.79,549.55Zm44.85,136.72c-6.4,23.71-20.53,41.3-39.78,49.54a59.21,59.21,0,0,1-21.55,4.75c-11.66.35-23.63-2.7-35.07-9.08-39.23-21.9-61-77.3-48.51-123.5,6.4-23.71,20.53-41.31,39.78-49.54,17.83-7.63,37.94-6.09,56.61,4.33,39.24,21.93,61,77.29,48.52,123.5Z" style="fill:#a8e3f7"/><path d="M907.27,1125.13c19.71-7.37,53.23-7.61,74.87-.53,10.47,3.43,16.23,7.94,17.17,12.51a30.73,30.73,0,0,1,2.94-1.13c10.87-3.56,27.72-3.44,37.62.26s9.11,9.59-1.77,13.15-27.72,3.44-37.62-.27a15,15,0,0,1-5.54-3.24,35.09,35.09,0,0,1-9.28,4.89c-19.71,7.37-53.23,7.61-74.87.53S887.61,1132.5,907.27,1125.13Z" style="fill:#b5e3df"/><path d="M1015.12,1108.42c1,8.58,12,.58,12-6-13.76-44.27-28.46-80.15-45.53-94.94l-4.14-94L925,898.7,950.82,1021Z" style="fill:#fca372"/><path d="M929.38,1127.41l-12.47,4.34c-9.62.33-14.62-.53-17.11,3.22l-.71,1.07c-2.5,3.75-.67,5.71,4.9,7.42l25.07,5.69c7.32,1.62,9.19-.79,11-5.22,0,0,1.13-5.53-3.88-12.18C933.33,1128,933.53,1127.7,929.38,1127.41Z" style="fill:#071841"/><path d="M921.62,1133.23c2.74,6.93,14.75,5.42,14.55-.27,12.65-87.47,4-92.74,4.34-111.82.36-21.33,4.49-44.32,19.61-84.75l-13.6,2.18a44.92,44.92,0,0,0-37.82,44C908.21,1036.88,910.84,1079.87,921.62,1133.23Z" style="fill:#fca372"/><path d="M913.59,902.43,905.48,1017s40.5,34.72,90.3-8.42C984.87,993,983.52,973.11,985,952c4.43-19.86-.59-36.21-6.3-50.49Z" style="fill:#41b3a7"/><path d="M932,791.92c1,12.4,9.08,17.44,18,11.26s15.31-21.24,14.31-33.63-9.08-17.44-18-11.26S930.94,779.53,932,791.92Z" style="fill:#ffc2b0"/><path d="M919.77,785.7c1,12.4,12.74,19.15,21.66,13s15.31-21.24,14.29-33.63-9.08-17.44-18-11.26S918.75,773.34,919.77,785.7Z" style="fill:#fca372"/><path d="M947.27,825.76l1.34-.3A8.46,8.46,0,0,0,955,815.38l-5.7-25.57a8.47,8.47,0,0,0-10.09-6.41l-1.34.3a8.47,8.47,0,0,0-6.4,10.09l1.86,25.37C934.32,823.7,942.69,826.77,947.27,825.76Z" style="fill:#fca372"/><path d="M957.9,795.1s-.17,8.42-14.51,6.37c-11.48-1.64-4-21.5-14.9-25.58-12-4.49-11.16-20.23-5.11-25.13s20.3-5.24,29.3,1.08S981.79,765.49,957.9,795.1Z" style="fill:#061e43"/><path d="M927.18,782.24a5.47,5.47,0,1,0,5-5.91A5.46,5.46,0,0,0,927.18,782.24Z" style="fill:#fca372"/><path d="M978.72,901.47c0-20.11-.66-24.39,2.8-47.26,1.16-7.67.61-10,1.38-17.67,1.35-13.57-4.69-38.25-27.07-31.81l-2,1.4a47.77,47.77,0,0,0-9.52,3.66c-32.7,16.86-45,18.85-40,39.61,1.39,15.54,14.11,20,9.27,53C920.27,924.61,971.27,917.35,978.72,901.47Z" style="fill:#2d6375"/><path d="M931.6,800.75l1.86-2.69a8.18,8.18,0,0,1-6.92.4A10.58,10.58,0,0,0,931.6,800.75Z" style="fill:#fca372"/><path d="M954,802.91a3.93,3.93,0,0,1,4.7,3,4.09,4.09,0,0,1,0,1.52c-.51,3-2.38,6.7-7.94,8.59-7.71,2.61-16.17,1.2-20.24.24a1.11,1.11,0,0,1-.32-2C934.84,811.34,945.85,804.89,954,802.91Z" style="fill:#fffcfa"/><path d="M1015.18,1109.16l2.84,13c-.84,9.66-2.3,14.55,1.15,17.5l1,.84c3.45,3,7.06,1.15,8-4l8.08-23.43c1-5.15-1.87-9.6-6.08-12,0,0-3.68-2.13-9.81,1.77C1016.32,1105.44,1016,1105,1015.18,1109.16Z" style="fill:#071841"/><path d="M958.08,765.53s12.42-15.44,23.54,3.64,4.93,41.59,20.74,52.59c0,0-27.67.36-30.76-17.18s-1.44-32.35-11.36-32.82S958.08,765.53,958.08,765.53Z" style="fill:#061e43"/><path d="M928.78,1137.85l-16-.92a1.89,1.89,0,0,1-.67-3.57l10-6Z" style="fill:#fca372"/><path d="M1024.11,1101s-4,18.72-6.09,21.17l-3.92-16,2.77-9.4Z" style="fill:#fca372"/><path d="M986,946.9s-5.67,10.2-9.86,10.51c0,0,5.46.48,8.68-1.7Z" style="fill:#41b3a7"/><path d="M905.48,1017l8.11-114.56,14.72,8.66s-12.1,101.61-2.87,116.2A54.53,54.53,0,0,1,905.48,1017Z" style="fill:#41b3a7"/><path d="M844.21,839.17h0a8.33,8.33,0,0,1,11.65-1.49l4.74,3.66A8.33,8.33,0,0,1,862.09,853h0a8.32,8.32,0,0,1-11.64,1.49l-4.74-3.65A8.34,8.34,0,0,1,844.21,839.17Z" style="fill:#fca372"/><path d="M913.59,902.43s1.68-20.1-1-26-13.4-30.84-13.4-30.84l6.31-7.77c6.93,12.13,21.35,13.06,22.94,76.93C928.42,914.79,915.27,911.82,913.59,902.43Z" style="fill:#144d4c"/><path d="M923.74,852.7l-22.11,40a10.14,10.14,0,0,1-13.78,4,10,10,0,0,1-3-2.47l-31.16-38.15,10.4-12.63,20.23,21.91a4.08,4.08,0,0,0,6.72-1.11l13-29.08Z" style="fill:#2d6375"/><path d="M258.68,693h0a6.32,6.32,0,0,1-2,8.68L246.44,708a6.31,6.31,0,0,1-8.67-2h0a6.32,6.32,0,0,1,2-8.68L250,690.94A6.33,6.33,0,0,1,258.68,693Z" style="fill:#fca372"/><path d="M136.89,708.14s41.3,35.3,52.74,26.07,45.91-34.77,45.91-34.77l14.76,15s-50.64,59-67.26,58-56.55-26.74-56.55-26.74Z" style="fill:#66c2ab"/><path d="M248.27,712.31l2.07,2.15s-50.64,59-67.26,58c-11.25-.73-33.15-12.68-46.15-20.35l6.82-11.26S171,760.1,182.85,761.7C193.27,763.18,198.13,761.16,248.27,712.31Z" style="fill:#41b3a7"/><path d="M39.27,1060.77c15.14-8.18,40.47-8.78,57.48-1.53,1.53-3.48,4.84-6.8,10-9.58,15.59-8.42,42-8.81,59-.87s18.11,21.21,2.52,29.63c-15.14,8.17-40.48,8.78-57.48,1.53-1.53,3.48-4.85,6.8-10,9.58-15.59,8.42-42,8.81-59,.87S23.7,1069.19,39.27,1060.77Z" style="fill:#b5e3df"/><path d="M91.77,702.08s-12.4,3.45-12.38,9.81a67.8,67.8,0,0,0,1.23,12.23l41.65-8.78L118,698.15Z" style="fill:#071841"/><path d="M157.06,1051,134,1035.2a20.65,20.65,0,0,0-12.35,0c-2.13.63-2.53-1-2.34,1l-2,8.48c-1.95,5.67,2.55,9.09,9,11l22,6.3c4.56,1.47,11,.64,14.29-1.85l.94-.71C166.91,1057.06,161.93,1053.7,157.06,1051Z" style="fill:#071841"/><path d="M119.43,1037.83c.37,6.57,16.36,5.66,16-.91l-1.22-21.37-16,.91Z" style="fill:#2d6375"/><path d="M116.85,1029.7c6.72,5,13.41,4.79,20.08-.53,0,0,11.23-132.12,7.49-200L94,813.44c6.32,41.61,20,109.92,20,109.92C99.45,957.63,112.63,1000,116.85,1029.7Z" style="fill:#071841"/><path d="M94,813.46l14.13,4.41c3.87,24.65,9.9,56.88,14.2,79.2a121.85,121.85,0,0,1,0,44c-5.31,30.31,4.42,63.87,7.94,88.61a21.1,21.1,0,0,0,3,1.86c-5.46,2.83-10.94,2.23-16.43-1.86-3.75-26.39-14.58-62.81-6.67-94.63a67.07,67.07,0,0,0,.48-29C106.17,883.07,98.36,842,94,813.46Z" style="fill:#071841"/><path d="M62.49,1054.29c-.67,6.55,15.26,8.2,15.93,1.65l2.2-21.28L64.69,1033Z" style="fill:#2d6375"/><path d="M61.27,1046.3c6.86,5.59,13.52,6.57,20,2.28,0,0,5.72-43.88,14.7-90.62,7-36.17,17.26-72.5,19.63-101.29L68.77,829.38c.42,25.59-1.49,81.92-2.37,106.08a40.59,40.59,0,0,1-4.13,16.24C51.53,973.84,61.27,1046.3,61.27,1046.3Z" style="fill:#071841"/><path d="M148.43,832.36c-1.61-23.29-1.88-57-.42-86.26-2.77-40.19-19-54-43.66-43l-10.27,3.5c-29.41,18.56-45,18.81-37.29,50.77L64,834C66.55,870.47,153.33,875.12,148.43,832.36Z" style="fill:#66c2ab"/><path d="M56.79,757.35,64,834c1.47,21.28,31.59,31.73,55.48,28.27C91.27,848.08,71.71,809.19,56.79,757.35Z" style="fill:#41b3a7"/><path d="M81.81,713.7S81,724.81,97.72,732.76c8.62,4.1,13.35,11.8,15.9,18.29,1.49,3.79,3.61,1.68,3.72-2.45.28-10.74.41-13.86,2-21.92,2.6-13-4.39-31.48-5.09-31.56S81.81,713.7,81.81,713.7Z" style="fill:#fff"/><path d="M103.15,703.7s15.71,3.57,13.42,18.27l1.11,17.08s10.21-20.34,3.15-38S103.15,703.7,103.15,703.7Z" style="fill:#071841"/><path d="M109.53,703.86s-2.42,4.67-4.11,5.71-27.19-7.78-26.49-28.24c.43-13,25-11.8,25-11.8Z" style="fill:#061e43"/><path d="M100.69,723.33l1.23.09a7.6,7.6,0,0,0,8.11-7L111.74,693a7.6,7.6,0,0,0-7-8.11l-1.24-.09a7.59,7.59,0,0,0-8.11,7l-5,22.3C90.12,718.21,96.53,723,100.69,723.33Z" style="fill:#fca372"/><path d="M110.82,705.61a20.76,20.76,0,0,1-17.27-7.72s7.63,13.91,16.79,14.28Z" style="fill:#fca372"/><path d="M88.7,703s-9.64,14.14,10.76,22.93c0,0,8.22,7.24,9.07,15.85,0,0-7-4.66-11-7.18S63.68,716.7,88.7,703Z" style="fill:#071841"/><ellipse cx="109.37" cy="684.38" rx="12.92" ry="22.79" transform="translate(-94.75 22.06) rotate(-8.05)" style="fill:#fca372"/><path d="M92.35,697.61c5.71,9.28,24.22,12.3,28.74,3.94s-3.12-25.07-8.82-34.35-14-10-18.54-1.67S86.63,688.32,92.35,697.61Z" style="fill:#fca372"/><path d="M99.51,671.23s5.83,19.36-9,26.63c0,0-19.51-7-10-28.39,8.4-18.84,29-9.39,29-9.39Z" style="fill:#061e43"/><path d="M124.76,680.43s-3.63-8.1-14.58-9.82l7.25-6.32S126.08,664.7,124.76,680.43Z" style="fill:#061e43"/><path d="M93.42,684.33c2.6-5.25,10-6.53,21.08-4.65a9.46,9.46,0,0,0,5-.4c7.48-3,6.91-12.84,6.91-12.84.51-6.74-4.27-8.88-11-9.39L97.88,655.7c-9.94-.81-17.73,8.65-18.24,15.39l-.25,1.14C78.88,679,86.68,683.81,93.42,684.33Z" style="fill:#061e43"/><path d="M88.61,697.57A4.8,4.8,0,1,0,90.18,691a4.79,4.79,0,0,0-1.57,6.61Z" style="fill:#fca372"/><path d="M78.5,1055l-1.14,13.54c-.13,1.6-1.69,10-2.37,11.49-2,4.2-5.21,5.89-8.34,6.1-4.14.29-12.48-7-9.51-16.15,2.59-7.94,5.4-16.3,5.4-16.3C68.39,1056.41,73.83,1057.34,78.5,1055Z" style="fill:#071841"/><path d="M147.87,842.45l-36.72,7.88c-7.18,1.54-11.17-2.25-8.87-8.43L123.07,786c2.3-6.18,10.06-12.5,17.24-14L177,764.13c7.18-1.54,11.17,2.25,8.87,8.43L165.1,828.45C162.8,834.59,155.05,840.91,147.87,842.45Z" style="fill:#071841"/><path d="M129.27,821.89h0a6.75,6.75,0,0,1-6.68,6.17l-11.7-.3a5.79,5.79,0,0,1-5.59-6c0-.16,0-.32,0-.48h0a6.74,6.74,0,0,1,6.67-6.16l11.7.3a5.8,5.8,0,0,1,5.6,6C129.3,821.57,129.29,821.73,129.27,821.89Z" style="fill:#fca372"/><path d="M54.83,739.05S22.08,806.4,32.68,829.38s72.59-3.53,72.59-3.53V807.21H61.5l8.8-56Z" style="fill:#66c2ab"/><path d="M355.5,1164.12l-89-22.07c2.66-4.33,1.4-11.42,10.32-17.49l68.23-46.48c8.92-6.07,24.76-8.92,35.22-6.32l89,22.06c10.45,2.6,11.71,9.69,2.79,15.76l-68.23,46.47C394.91,1162.12,379.07,1165,355.5,1164.12Z" style="fill:#b5e3df"/><polygon points="440.47 1086.2 442.16 1103.81 417.85 1106.97 234.81 1134.5 233.39 1118.29 440.47 1086.2" style="fill:#0e2e82"/><path d="M332.73,1165.29l-89-22.07c-10.46-2.59-11.71-9.68-2.8-15.75L309.17,1081c8.91-6.07,24.76-8.92,35.21-6.33l89,22.07c10.45,2.6,11.71,9.69,2.79,15.76L367.94,1159C359,1165,343.18,1167.88,332.73,1165.29Z" style="fill:#071841"/><path d="M331,1146.7l-89-22.07c-10.45-2.59-11.71-9.68-2.79-15.76l68.23-46.47c8.92-6.07,24.77-8.92,35.22-6.33l89,22.07c10.45,2.59,11.71,9.68,2.8,15.76l-68.24,46.47C357.27,1146.48,341.45,1149.33,331,1146.7Z" style="fill:#a8e3f7"/><polyline points="315.64 1080.74 313.12 1113.86 388.14 1087.87" style="fill:none;stroke:#fff;stroke-linecap:round;stroke-linejoin:round;stroke-width:5.6475300788879395px"/><path d="M552.48,1212.75l-89-22.07c2.66-4.33,1.4-11.42,10.32-17.49L542,1126.7c8.92-6.07,24.76-8.92,35.22-6.33l89,22.07c10.45,2.6,11.71,9.69,2.79,15.76l-68.24,46.5C591.9,1210.75,576.05,1213.6,552.48,1212.75Z" style="fill:#b5e3df"/><polygon points="637.45 1134.83 639.14 1152.44 614.83 1155.59 431.79 1183.13 430.37 1166.92 637.45 1134.83" style="fill:#0e2e82"/><path d="M529.71,1213.92l-89-22.07c-10.45-2.59-11.71-9.68-2.8-15.76l68.24-46.47c8.91-6.07,24.76-8.92,35.21-6.33l89,22.07c10.45,2.6,11.71,9.68,2.79,15.76l-68.23,46.47C556,1213.7,540.16,1216.51,529.71,1213.92Z" style="fill:#071841"/><path d="M528,1195.37l-89-22.07c-10.45-2.59-11.71-9.68-2.79-15.76l68.23-46.47c8.92-6.07,24.77-8.92,35.22-6.33l89,22.07c10.45,2.59,11.71,9.68,2.8,15.76L563.2,1189C554.27,1195.11,538.43,1198,528,1195.37Z" style="fill:#ffd131"/><path d="M563.88,1125.89l-4.42,12.81c-.25.73.18,1.4,1.15,1.8l17.12,7.09c2.44,1,1,3.33-2.4,3.93l-24.06,4.18a5.65,5.65,0,0,0-3.17,1.49l-11,12.39c-1.57,1.76-6,2.19-7.46.73l-10.44-10.25a4.41,4.41,0,0,0-3.1-.88l-23.94.57c-3.4.08-4.71-2-2.21-3.47l17.59-10.53c1-.6,1.46-1.36,1.25-2l-3.78-12c-.53-1.71,3.07-3.42,6.1-2.88l21.3,3.74a7.62,7.62,0,0,0,3.87-.38l21.62-8C561,1123.06,564.51,1124.06,563.88,1125.89Z" style="fill:none;stroke:#fff;stroke-linecap:round;stroke-linejoin:round;stroke-width:4px"/><path d="M263.18,689.07l-10,7.8a3.11,3.11,0,0,1-4.35-.53h0a3.11,3.11,0,0,1,.53-4.35l10-7.81a3.11,3.11,0,0,1,4.35.53h0A3.12,3.12,0,0,1,263.18,689.07Z" style="fill:#fca372"/></g></svg>