<svg version="1.1" id="Layer_1" xmlns="http://www.w3.org/2000/svg" xmlns:xlink="http://www.w3.org/1999/xlink" x="0px" y="0px"  viewBox="0 0 614.1 149.5" style="enable-background:new 0 0 614.1 149.5;" xml:space="preserve">
    <style type="text/css">
        .st0 {
            fill: none;
        }

        .st11 {
            fill: #fff;
            transition: all .25s ease-in;
        }

        .st22 {
            fill: #fff;
            transition: all .25s ease-in;

        }
    </style>
    <rect x="-305" y="-321.3" class="st0" width="1224" height="792"></rect>
    <g>
        <g>
            <path class="st11" d="M192.6,105.4c0.2,0.4,0.5,0.8,1,1.1c0.5,0.3,1.2,0.7,2,0.9c0.9,0.3,1.9,0.6,3.3,0.9c1.5,0.4,2.7,0.8,3.9,1.2
c1.1,0.4,2.1,1,2.8,1.6c0.7,0.6,1.3,1.4,1.7,2.2c0.4,0.9,0.6,1.9,0.6,3c0,1.3-0.2,2.5-0.7,3.5c-0.5,1-1.2,1.9-2,2.6
c-0.9,0.7-1.9,1.3-3.1,1.6c-1.2,0.4-2.5,0.6-4,0.6c-2.1,0-4.2-0.4-6.1-1.1c-1.9-0.7-3.8-1.8-5.4-3.3l2.9-3.5
c1.3,1.2,2.7,2,4.1,2.7c1.4,0.6,2.9,0.9,4.7,0.9c1.5,0,2.7-0.3,3.6-0.9c0.9-0.6,1.3-1.5,1.3-2.6c0-0.5-0.1-0.9-0.3-1.3
c-0.2-0.4-0.5-0.8-0.9-1.1c-0.5-0.3-1.1-0.6-1.9-0.9s-1.9-0.6-3.1-0.9c-1.5-0.3-2.8-0.7-3.9-1.1c-1.1-0.4-2.1-0.9-2.9-1.6
c-0.8-0.6-1.4-1.4-1.8-2.3c-0.4-0.9-0.6-2-0.6-3.3c0-1.2,0.2-2.3,0.7-3.3c0.5-1,1.1-1.8,1.9-2.5c0.8-0.7,1.8-1.3,3-1.6
c1.2-0.4,2.4-0.6,3.8-0.6c2,0,3.8,0.3,5.5,0.9c1.6,0.6,3.1,1.5,4.6,2.6l-2.6,3.7c-1.3-0.9-2.5-1.6-3.8-2.1
c-1.2-0.5-2.5-0.7-3.8-0.7c-1.4,0-2.5,0.3-3.3,1c-0.8,0.6-1.2,1.4-1.2,2.3C192.4,104.5,192.5,105,192.6,105.4z"></path>
            <path class="st11" d="M248.1,116.1c-0.7,1.7-1.7,3.3-3,4.6c-1.3,1.3-2.8,2.3-4.6,3.1c-1.8,0.8-3.7,1.1-5.8,1.1
c-2.1,0-4.1-0.4-5.8-1.1c-1.8-0.8-3.3-1.8-4.5-3.1c-1.3-1.3-2.3-2.8-3-4.5c-0.7-1.7-1.1-3.6-1.1-5.5s0.4-3.8,1.1-5.5
c0.7-1.7,1.7-3.3,3-4.6c1.3-1.3,2.8-2.3,4.6-3.1c1.8-0.8,3.7-1.1,5.8-1.1c2.1,0,4.1,0.4,5.8,1.1c1.8,0.8,3.3,1.8,4.5,3.1
c1.3,1.3,2.2,2.8,3,4.5c0.7,1.7,1.1,3.6,1.1,5.5S248.8,114.3,248.1,116.1z M243.4,106.8c-0.5-1.2-1.1-2.2-1.9-3.1
c-0.8-0.9-1.8-1.6-3-2.1c-1.2-0.5-2.4-0.8-3.8-0.8c-1.4,0-2.6,0.3-3.8,0.8c-1.1,0.5-2.1,1.2-2.9,2.1c-0.8,0.9-1.5,1.9-1.9,3.1
c-0.5,1.2-0.7,2.5-0.7,3.8c0,1.3,0.2,2.6,0.7,3.8c0.5,1.2,1.1,2.2,1.9,3.1c0.8,0.9,1.8,1.6,3,2.1c1.2,0.5,2.4,0.8,3.8,0.8
c1.4,0,2.6-0.3,3.8-0.8s2.1-1.2,2.9-2.1c0.8-0.9,1.5-1.9,1.9-3.1c0.5-1.2,0.7-2.5,0.7-3.8C244,109.3,243.8,108,243.4,106.8z"></path>
            <path class="st11" d="M262.9,96.8h4.8V120h14.5v4.4h-19.3V96.8z"></path>
            <path class="st11" d="M317.7,112.4c0,2.1-0.3,3.9-0.8,5.4c-0.6,1.6-1.4,2.8-2.4,3.9c-1,1-2.3,1.8-3.7,2.3c-1.5,0.5-3.1,0.8-4.9,0.8
c-1.8,0-3.4-0.3-4.9-0.8c-1.4-0.5-2.7-1.3-3.7-2.3c-1-1-1.8-2.3-2.4-3.8c-0.6-1.5-0.8-3.3-0.8-5.3V96.8h4.8v15.7
c0,2.6,0.6,4.5,1.9,5.9c1.2,1.3,3,2,5.2,2c2.2,0,3.9-0.6,5.1-1.9c1.2-1.3,1.9-3.2,1.9-5.8V96.8h4.8V112.4z"></path>
            <path class="st11" d="M343.9,124.4H339v-23.1h-8.8v-4.5h22.4v4.5h-8.8V124.4z"></path>
            <path class="st11" d="M370.8,96.8v27.6H366V96.8H370.8z"></path>
            <path class="st11" d="M412.7,116.1c-0.7,1.7-1.7,3.3-3,4.6c-1.3,1.3-2.8,2.3-4.6,3.1c-1.8,0.8-3.7,1.1-5.8,1.1
c-2.1,0-4.1-0.4-5.8-1.1c-1.8-0.8-3.3-1.8-4.5-3.1c-1.3-1.3-2.3-2.8-3-4.5c-0.7-1.7-1.1-3.6-1.1-5.5s0.4-3.8,1.1-5.5
c0.7-1.7,1.7-3.3,3-4.6c1.3-1.3,2.8-2.3,4.6-3.1c1.8-0.8,3.7-1.1,5.8-1.1c2.1,0,4.1,0.4,5.8,1.1c1.8,0.8,3.3,1.8,4.5,3.1
c1.3,1.3,2.2,2.8,3,4.5c0.7,1.7,1.1,3.6,1.1,5.5S413.4,114.3,412.7,116.1z M408,106.8c-0.5-1.2-1.1-2.2-1.9-3.1
c-0.8-0.9-1.8-1.6-3-2.1c-1.2-0.5-2.4-0.8-3.8-0.8c-1.4,0-2.6,0.3-3.8,0.8c-1.1,0.5-2.1,1.2-2.9,2.1c-0.8,0.9-1.5,1.9-1.9,3.1
c-0.5,1.2-0.7,2.5-0.7,3.8c0,1.3,0.2,2.6,0.7,3.8c0.5,1.2,1.1,2.2,1.9,3.1c0.8,0.9,1.8,1.6,3,2.1c1.2,0.5,2.4,0.8,3.8,0.8
c1.4,0,2.6-0.3,3.8-0.8c1.1-0.5,2.1-1.2,2.9-2.1c0.8-0.9,1.5-1.9,1.9-3.1c0.5-1.2,0.7-2.5,0.7-3.8
C408.7,109.3,408.5,108,408,106.8z"></path>
            <path class="st11" d="M446.8,96.8h4.8v27.6h-4.1l-15.2-19.7v19.7h-4.8V96.8h4.5l14.8,19.1V96.8z"></path>
            <path class="st11" d="M471,105.4c0.2,0.4,0.5,0.8,1,1.1s1.2,0.7,2,0.9c0.9,0.3,1.9,0.6,3.3,0.9c1.5,0.4,2.7,0.8,3.9,1.2
c1.1,0.4,2,1,2.8,1.6c0.7,0.6,1.3,1.4,1.7,2.2c0.4,0.9,0.6,1.9,0.6,3c0,1.3-0.2,2.5-0.7,3.5c-0.5,1-1.2,1.9-2,2.6
c-0.9,0.7-1.9,1.3-3.1,1.6c-1.2,0.4-2.5,0.6-4,0.6c-2.1,0-4.2-0.4-6.1-1.1c-1.9-0.7-3.8-1.8-5.4-3.3l2.9-3.5
c1.3,1.2,2.7,2,4.1,2.7c1.4,0.6,2.9,0.9,4.7,0.9c1.5,0,2.7-0.3,3.6-0.9c0.9-0.6,1.3-1.5,1.3-2.6c0-0.5-0.1-0.9-0.3-1.3
c-0.2-0.4-0.5-0.8-1-1.1c-0.5-0.3-1.1-0.6-1.9-0.9c-0.8-0.3-1.9-0.6-3.1-0.9c-1.5-0.3-2.8-0.7-3.9-1.1c-1.1-0.4-2.1-0.9-2.9-1.6
c-0.8-0.6-1.4-1.4-1.8-2.3c-0.4-0.9-0.6-2-0.6-3.3c0-1.2,0.2-2.3,0.7-3.3c0.5-1,1.1-1.8,1.9-2.5c0.8-0.7,1.8-1.3,3-1.6
c1.2-0.4,2.4-0.6,3.8-0.6c2,0,3.8,0.3,5.5,0.9c1.6,0.6,3.1,1.5,4.6,2.6l-2.6,3.7c-1.3-0.9-2.5-1.6-3.8-2.1
c-1.2-0.5-2.5-0.7-3.8-0.7c-1.4,0-2.5,0.3-3.3,1c-0.8,0.6-1.2,1.4-1.2,2.3C470.7,104.5,470.8,105,471,105.4z"></path>
        </g>
        <g>
            <path class="st11" d="M359.1,46.2c0.4,0.9,1,1.7,2,2.5c0.9,0.7,2.3,1.4,3.9,2c1.7,0.6,3.8,1.2,6.4,1.7c5.3,1.2,9.2,2.8,11.7,4.9
c2.5,2.1,3.8,5,3.8,8.6c0,2-0.4,3.9-1.2,5.6c-0.8,1.7-1.9,3.1-3.3,4.3c-1.4,1.2-3.1,2.1-5.1,2.7c-2,0.6-4.2,0.9-6.5,0.9
c-3.8,0-7.3-0.6-10.4-1.8c-3.1-1.2-6.1-3.1-9-5.7l3.3-3.9c2.5,2.3,5,3.9,7.5,5c2.5,1.1,5.4,1.7,8.7,1.7c3.2,0,5.8-0.7,7.7-2.2
c1.9-1.5,2.9-3.5,2.9-5.9c0-1.1-0.2-2.1-0.5-3c-0.4-0.9-1-1.7-1.9-2.4c-0.9-0.7-2.2-1.4-3.8-2c-1.6-0.6-3.7-1.2-6.1-1.7
c-2.7-0.6-5.1-1.3-7.1-2c-2-0.8-3.7-1.7-5-2.8c-1.3-1.1-2.3-2.3-2.9-3.8c-0.6-1.4-0.9-3.2-0.9-5.2c0-1.9,0.4-3.6,1.1-5.2
c0.8-1.6,1.9-2.9,3.2-4.1c1.4-1.2,3-2.1,4.9-2.7c1.9-0.7,4-1,6.2-1c3.5,0,6.5,0.5,9.1,1.4c2.6,1,5.1,2.4,7.5,4.3l-3.1,4.1
c-2.2-1.8-4.4-3.1-6.7-3.9s-4.6-1.2-7-1.2c-1.5,0-2.9,0.2-4.2,0.6c-1.2,0.4-2.3,1-3.2,1.6c-0.9,0.7-1.6,1.5-2,2.4
c-0.5,1-0.7,2-0.7,3.1C358.6,44.3,358.7,45.3,359.1,46.2z"></path>
            <path class="st11" d="M414.6,78.7h-5.3V36.3h-15.9v-4.9h37.2v4.9h-15.9V78.7z"></path>
            <path class="st11" d="M473.2,78.7l-13.7-18.4H446v18.4h-5.3V31.3H461c2.6,0,5,0.3,7.1,1c2.1,0.7,3.9,1.6,5.4,2.9s2.6,2.7,3.5,4.5
c0.8,1.7,1.2,3.7,1.2,5.8c0,2-0.3,3.8-0.9,5.3c-0.6,1.6-1.5,2.9-2.7,4.1c-1.2,1.2-2.5,2.1-4.1,2.9c-1.6,0.8-3.3,1.3-5.1,1.6
l14.6,19.3H473.2z M469.6,38.8c-2.1-1.7-5.1-2.5-9-2.5H446v19.3h14.6c1.8,0,3.4-0.2,4.9-0.7c1.5-0.5,2.8-1.1,3.9-1.9
c1.1-0.8,1.9-1.9,2.5-3.1c0.6-1.2,0.9-2.6,0.9-4.1C472.8,42.7,471.7,40.4,469.6,38.8z"></path>
            <path class="st11" d="M523.8,36.2h-28.9v16.2h25.9v4.9h-25.9v16.6h29.2v4.9h-34.6V31.3h34.3V36.2z"></path>
            <path class="st11" d="M569.2,36.2h-28.9v16.2h25.9v4.9h-25.9v16.6h29.2v4.9h-34.6V31.3h34.3V36.2z"></path>
            <path class="st11" d="M598.1,78.7h-5.3V36.3h-15.9v-4.9h37.2v4.9h-15.9V78.7z"></path>
        </g>
        <g>
            <path class="st11" d="M211.4,31.3h9l-19.7,47.7h-7.3l-19.7-47.7h9.2l14.3,36.4L211.4,31.3z"></path>
            <path class="st11" d="M237.2,31.3v47.4H229V31.3H237.2z"></path>
            <path class="st11" d="M283,31.3h8.3v47.4h-7L258.2,45v33.7h-8.3V31.3h7.7L283,64.1V31.3z"></path>
            <path class="st11" d="M338.5,38.8h-26.8V51h23.8v7.5h-23.8v12.7h27.1v7.5h-35.4V31.3h35.1V38.8z"></path>
        </g>
        <g>
            <path class="st22" d="M83.3,2.7l-2.5,6L78,15.5l-29,70L28.7,37.3c-2.7,3.3-5,6.9-7,10.8l22.4,51.4h9.6l35.2-82.4l2.7-6.4L95,2.8
l0,0H83.3z"></path>
            <path class="st22" d="M22.1,21.7l-2.9-6.8l-3.3-7.8H3.9l7.2,16.6l3.1,7.3l4,9.2c2.2-3.5,4.7-6.9,7.5-9.9L22.1,21.7z"></path>
            <path class="st22" d="M117.8,99.8c-5.1-4.2-13-7.5-23.7-9.9c-5.3-1.1-9.7-2.3-13-3.5c-3.4-1.2-6-2.6-8-4.1
c-1.1-0.9-2.1-1.9-2.8-2.9l-4.8,11.3c2.6,2,5.8,3.8,9.7,5.3c4.1,1.6,8.9,2.9,14.4,4.1c5,1.1,9.2,2.2,12.5,3.4
c3.3,1.2,5.8,2.5,7.6,4c1.8,1.5,3.1,3.1,3.9,4.9c0.7,1.8,1.1,3.8,1.1,6.1c0,5-1.9,8.9-5.8,12c-3.9,3-9.1,4.5-15.6,4.5
c-6.7,0-12.6-1.1-17.7-3.4c-5.1-2.2-10.2-5.7-15.2-10.2l-6.7,8c5.8,5.2,11.8,9,18.2,11.5c0,0,0.1,0,0.1,0
c-7.1-0.3-13.9-1.7-20.2-4.1c5.6,4.6,11.5,8.1,17.6,10.5c2.1,0.8,4.3,1.5,6.6,2.1c10.6-0.1,20.7-2.5,29.7-6.6
c0.1,0,0.3-0.1,0.4-0.1c4-1.3,7.5-3.1,10.3-5.5c0.6-0.5,1.1-1,1.7-1.5c0,0,0,0,0,0c2.1-2.1,3.8-4.4,5.1-7.1
c1.6-3.4,2.4-7.1,2.4-11.2v-0.1C125.5,109.8,122.9,104,117.8,99.8z M107.3,48.7c-5.3-1.9-11.4-2.9-18.5-2.9
c-1.4,0-2.8,0.1-4.2,0.2l-4.5,10.7c0,0,0,0,0,0c2.5-0.8,5.3-1.2,8.4-1.2c4.9,0,9.7,0.8,14.2,2.5c4.5,1.7,9,4.3,13.5,8l6.3-8.4
C117.6,53.6,112.5,50.6,107.3,48.7z"></path>
            <path class="st22" d="M117.8,99.8c-5.1-4.2-13-7.5-23.7-9.9c-5.3-1.1-9.7-2.3-13-3.5c-3.4-1.2-6-2.6-8-4.1
c-1.1-0.9-2.1-1.9-2.8-2.9l-4.8,11.3c2.6,2,5.8,3.8,9.7,5.3c4.1,1.6,8.9,2.9,14.4,4.1c5,1.1,9.2,2.2,12.5,3.4
c3.3,1.2,5.8,2.5,7.6,4c1.8,1.5,3.1,3.1,3.9,4.9c0.7,1.8,1.1,3.8,1.1,6.1c0,5-1.9,8.9-5.8,12c-3.9,3-9.1,4.5-15.6,4.5
c-6.7,0-12.6-1.1-17.7-3.4c-5.1-2.2-10.2-5.7-15.2-10.2l-6.7,8c5.8,5.2,11.8,9,18.2,11.5c0,0,0.1,0,0.1,0
c6.3,2.5,13.3,3.7,20.9,3.7c4.6,0,8.9-0.6,12.8-1.8c0.1,0,0.3-0.1,0.4-0.1c4-1.3,7.5-3.1,10.3-5.5c0.6-0.5,1.1-1,1.7-1.5
c0,0,0,0,0,0c2.1-2.1,3.8-4.4,5.1-7.1c1.6-3.4,2.4-7.1,2.4-11.2v-0.1C125.5,109.8,122.9,104,117.8,99.8z M107.3,48.7
c-5.3-1.9-11.4-2.9-18.5-2.9c-1.4,0-2.8,0.1-4.2,0.2l-4.5,10.7c0,0,0,0,0,0c2.5-0.8,5.3-1.2,8.4-1.2c4.9,0,9.7,0.8,14.2,2.5
c4.5,1.7,9,4.3,13.5,8l6.3-8.4C117.6,53.6,112.5,50.6,107.3,48.7z"></path>
            <path class="st22" d="M149.5,74.7c0-34.2-23.1-63.1-54.5-71.9c-0.1,0-0.1,0-0.1,0c-3.4-1-6.9-1.7-10.5-2.1l-3.5,8.1
c3.7,0.3,7.3,1,10.8,1.9C120,18.1,141,44,141,74.7c0,12.5-3.5,24.3-9.6,34.3c0.6,2.6,1,5.3,1,8.2c0,1.9-0.1,3.7-0.4,5.5
C142.9,109.8,149.5,93,149.5,74.7z M74.7,141c-1,0-1.9,0-2.9-0.1c-7.1-0.3-13.9-1.7-20.2-4.1c-25.2-9.4-43.1-33.7-43.1-62.1
c0-12.7,3.6-24.5,9.8-34.6c2.2-3.5,4.7-6.9,7.5-9.9c11.6-12.8,28.2-21,46.6-21.7L75.6,0c-0.3,0-0.6,0-0.9,0
C54.2,0,35.6,8.3,22.1,21.7c-2.9,2.8-5.5,5.9-7.9,9.2C5.3,43.2,0,58.4,0,74.7c0,41.2,33.5,74.7,74.7,74.7c0.4,0,0.7,0,1.1,0
c10.6-0.1,20.7-2.5,29.7-6.6c4.4-2,8.5-4.4,12.4-7.1c0,0,0,0,0,0c2.1-2.1,3.8-4.4,5.1-7.1c1.6-3.4,2.4-7.1,2.4-11.2
C113.3,131.8,95.1,141,74.7,141z"></path>
        </g>
    </g>
</svg>