<svg id="e36ad798-e2b3-4d65-bfa2-e9b296a4df12" data-name="Layer 1" xmlns="http://www.w3.org/2000/svg" xmlns:xlink="http://www.w3.org/1999/xlink" viewBox="0 0 2048.92 1378.05"><defs><linearGradient id="e5e3bbc5-c2d0-48ed-b178-f5f81b8d3ef0" x1="1195.12" y1="730.02" x2="1599.65" y2="730.02" gradientTransform="matrix(1, 0, 0, -1, 0, 1366.13)" gradientUnits="userSpaceOnUse"><stop offset="0" stop-color="#dae3fe"/><stop offset="1" stop-color="#e9effd"/></linearGradient></defs><g id="f128c747-6340-4bf0-91b7-6e03f34e999a" data-name="b9bc4275-8399-4081-95b0-1544ff8bbc97"><path d="M2039.32,745.19a105,105,0,0,0-22.7-36.62c-30.46-31.5-83.82-36.34-110.45-71.06-25-32.52-19.38-95.15-23.21-134.93-9.49-98.34-9.77-200.53-60.61-288.19-97.83-168.66-326.2-211.55-493.5-176.21C1154.74,75,1005,194.59,827.92,220.47c-72.68,10.59-150.09,3.83-216.8-31.27-89-46.83-160.39-117.64-265-113.45C177.37,82.51,45.59,142.75,8,335.53-18,469.42,22.46,553.06,81.67,666.32c38.43,73.51,40.71,165.26,17.75,244.61-10.35,35.78-22.4,60.6-23,100-1.33,85.53,18.06,138.25,73,200.23,47.59,53.65,109.4,96.32,175.11,123.21,118.61,48.55,251.37,53.27,377.2,30.59,159.21-28.69,312.1-99.83,473.77-99.83,146.09,0,285.61,58.19,429.65,83.11,73.26,12.67,165.45,18.1,226.52-33.56,48.75-41.24,25.28-117,51-170.1,28.38-58.66,80.82-100.71,114.75-155.64,25.21-40.82,39.51-87.89,47.27-135.5C2050.52,817.65,2051.66,778.13,2039.32,745.19Z" style="fill:#b5e3df"/><path d="M2004.47,630.76c-26.36,113.39-211,766.56-953.25,697.53,0,0-6.89-462.36,938.47-709.41C1998,616.72,2006.19,623.35,2004.47,630.76Z" style="fill:#73d0d9"/><path d="M1904.39,705.36c-24.21,32.73-49.75,64.33-75.86,95.49s-53.09,61.55-80.71,91.38a2346.53,2346.53,0,0,1-174.44,170.35q-46,40-94.35,77.36-48.63,36.9-99.78,70.33c-34.35,21.85-69.56,42.39-105.81,61a1029.27,1029.27,0,0,1-112.27,48.45,4.11,4.11,0,0,1-2.79-7.74h.06A1023.44,1023.44,0,0,0,1270,1264.49c36.08-18.34,71.18-38.58,105.46-60.16q51.09-32.91,99.67-69.53,48.33-36.87,94.41-76.64a2337.8,2337.8,0,0,0,174.89-169.1q41.58-44.46,81-90.84c26.2-31,51.9-62.43,76.15-94.9h0A1.75,1.75,0,0,1,1904,703a1.73,1.73,0,0,1,.36,2.44h0Z" style="fill:#fff"/><path d="M1653.56,15.42c43.14,128,259.25,881.33-517.48,1174.58,0,0-289.12-465.92,495.6-1179.41C1638.54,4.35,1650.74,7.06,1653.56,15.42Z" style="fill:#66c2ab"/><path d="M1599.65,139.89c-1.63,22.75-4,45.37-6.66,68s-5.71,45.17-9.06,67.69q-10,67.56-24,134.45c-18.6,89.13-42.16,177.32-72.35,263.31s-67,169.83-113.46,248.41a953.49,953.49,0,0,1-77.63,112.69c-14.39,17.73-29.35,35-45.22,51.49s-32.5,32.18-49.83,47.12a3.82,3.82,0,1,1-5-5.78h0q25.79-22,49.48-46.4c15.78-16.23,30.67-33.32,45-50.84a947.52,947.52,0,0,0,77.52-111.58c46.52-77.92,83.49-161.35,114-246.88s54.3-173.5,73.23-262.4q14.13-66.69,24.48-134.12,5.16-33.69,9.32-67.54c2.73-22.55,5.21-45.17,6.92-67.78h0a1.61,1.61,0,0,1,3.22.24h0Z" style="fill:url(#e5e3bbc5-c2d0-48ed-b178-f5f81b8d3ef0)"/><path d="M771.42,957.18S577.9,369.93,150.12,99.6A9.07,9.07,0,0,0,136.27,106C121.92,209.18,59.29,864.44,771.42,957.18Z" style="fill:#73d0d9"/><path d="M213.57,267.3c14.32,32.94,30,65.44,46.92,97.21q25,47.85,52.81,94.1c18.6,30.78,37.84,61.17,58.21,90.77s41.28,58.84,63.53,87,45,56,69.19,82.53c3,3.34,5.94,6.73,9,10l9.23,9.8c6.19,6.5,12.21,13.16,18.55,19.52l19,19.07,4.73,4.79,4.88,4.63,9.77,9.28c12.83,12.57,26.5,24.21,39.81,36.28,6.76,5.91,13.73,11.57,20.59,17.37l10.33,8.65c3.47,2.85,7.08,5.53,10.58,8.34l21.19,16.68,21.78,15.9,10.91,7.94,11.21,7.52,22.33,15.25.06.05a2.53,2.53,0,1,1-2.7,4.28A1008.19,1008.19,0,0,1,570.42,805.74l-10.08-9.16-5-4.58-4.9-4.72-19.51-19c-6.49-6.34-12.67-13-19-19.48l-9.53-9.74c-3.11-3.3-6.14-6.68-9.21-10-24.75-26.57-47.89-54.57-70.4-83a1516.28,1516.28,0,0,1-121-180.65q-27-47.16-50.5-96.23-11.7-24.51-22.42-49.49c-7.18-16.63-14-33.37-20.08-50.52a2.53,2.53,0,0,1,4.71-1.86h.07Z" style="fill:#fff"/><path d="M889.85,1314.52S495.41,759,117.12,780.51a10.43,10.43,0,0,0-9.8,11,10,10,0,0,0,.41,2.37C130,868.9,274.84,1259.18,889.85,1314.52Z" style="fill:#66c2ab"/><path d="M209,861.69c24.94,21.61,50.71,42.39,76.64,62.88,13,10.19,26,20.38,39.17,30.43s26.33,20,39.66,29.77,26.68,19.54,40.12,29.16l40.56,28.52c27.34,18.6,54.67,37.21,82.51,55,27.53,18.32,55.89,35.33,83.93,52.84l42.76,25.11c7.14,4.15,14.23,8.41,21.42,12.49l21.71,12c14.5,7.94,28.91,16,43.47,23.86l44.1,22.68c7.35,3.77,14.64,7.67,22,11.34l22.37,10.69,44.74,21.38h.07a2.42,2.42,0,1,1-2.06,4.39h0c-60.2-27.66-120-56.29-177.77-88.9l-21.8-11.93c-7.22-4.06-14.34-8.3-21.51-12.44l-43-25c-28.17-17.45-56.65-34.4-84.31-52.66q-83.49-53.91-163.19-113.47c-13.32-9.84-26.41-20-39.63-30s-26.12-20.38-39.13-30.64c-25.79-20.81-51.31-41.91-76.17-63.92a2.42,2.42,0,1,1,3.19-3.65h0Z" style="fill:#fff"/><ellipse cx="1031.76" cy="748.5" rx="590.29" ry="637.16" transform="translate(238.79 1746.49) rotate(-87.49)" style="fill:#2d6375"/><g style="opacity:0.6800000071525574"><path d="M1194.62,751.4c-.15,104.12-7.29,208.44-25.64,311.08-4.65,25.64-10,51.15-16.45,76.42a733.12,733.12,0,0,1-23,74.8c-9.17,24.42-19.82,48.49-34.26,70.49-7.27,10.92-15.53,21.38-25.71,30a72.77,72.77,0,0,1-16.83,10.84,50.21,50.21,0,0,1-19.65,4.63,49.32,49.32,0,0,1-19.86-3.65A68.24,68.24,0,0,1,996,1315.76c-10.43-8.34-18.87-18.69-26.27-29.52C955,1264.4,944.24,1240.38,935,1216a721.2,721.2,0,0,1-23.2-74.71c-6.48-25.26-11.92-50.76-16.61-76.39-9.34-51.27-15.72-103-20-155s-6.41-104-6.67-156.08c-.13-26,.58-52.08,1.5-78.1s2.41-52,4.33-78c3.85-51.93,9.6-103.74,18.16-155.13,4.29-25.69,9.29-51.27,15.31-76.62a736.86,736.86,0,0,1,21.74-75.09c4.37-12.28,9.15-24.44,14.6-36.31a267.19,267.19,0,0,1,18.7-34.45c7.17-10.93,15.42-21.36,25.69-29.71a65.94,65.94,0,0,1,17-10.18,48.22,48.22,0,0,1,19.54-3.47,52.05,52.05,0,0,1,19.3,4.52,76,76,0,0,1,16.76,10.52c10.25,8.33,18.73,18.51,26.25,29.2,15,21.52,26.23,45.27,36,69.42A714.71,714.71,0,0,1,1148,364.59c7,25.12,12.83,50.52,17.92,76.07C1186.12,542.94,1194.32,647.28,1194.62,751.4Zm-7.71,0c.1-51.87-1.87-103.76-6.19-155.46S1170,492.7,1160.44,441.73c-4.79-25.49-10.37-50.82-17-75.88a708.45,708.45,0,0,0-23.71-74c-9.43-24.08-20.36-47.74-34.87-69.11-7.29-10.62-15.52-20.7-25.39-28.9a73.74,73.74,0,0,0-16.09-10.29,48.55,48.55,0,0,0-18.38-4.48,45.29,45.29,0,0,0-18.53,3.49,63.48,63.48,0,0,0-16.22,10c-9.85,8.19-17.83,18.49-24.77,29.32a261.42,261.42,0,0,0-18.1,34.18c-5.26,11.81-9.87,23.92-14.08,36.16a732.16,732.16,0,0,0-20.79,74.84c-5.72,25.29-10.42,50.81-14.41,76.43-8,51.27-13.13,103-16.4,154.74s-4.45,103.69-4.35,155.57q-.21,77.82,5.45,155.5c3.88,51.72,9.84,103.32,18.75,154.4,4.46,25.54,9.67,51,15.92,76.09a717.41,717.41,0,0,0,22.45,74.32c9,24.21,19.5,48,33.7,69.49,7.14,10.63,15.27,20.72,25.13,28.72a64.8,64.8,0,0,0,16.08,9.76,44.31,44.31,0,0,0,18.18,3.45,46,46,0,0,0,18-4.4,68.58,68.58,0,0,0,15.75-10.34c9.64-8.28,17.6-18.49,24.62-29.22,14-21.63,24.31-45.5,33.19-69.75a728.9,728.9,0,0,0,22.19-74.4c6.18-25.16,11.33-50.58,15.75-76.13,8.85-51.09,14.72-102.69,18.63-154.42S1186.93,803.29,1186.91,751.4Z" style="fill:#fff"/><path d="M1457.26,751.4c-.36,67-9,134.12-26.93,198.78-18.26,64.51-45.78,126.56-83.16,182.28a524.49,524.49,0,0,1-63.52,77.78,444.31,444.31,0,0,1-78.19,63,377,377,0,0,1-91.23,41.71,341.13,341.13,0,0,1-198.37.09,376.92,376.92,0,0,1-91.3-41.65,446.07,446.07,0,0,1-78.3-62.9,524.69,524.69,0,0,1-63.64-77.77c-37.45-55.72-65-117.8-83.38-182.34a722.35,722.35,0,0,1-20.19-98.55,741.26,741.26,0,0,1,.07-200.77,724.1,724.1,0,0,1,20.26-98.53c18.39-64.51,46-126.55,83.49-182.21a526.21,526.21,0,0,1,63.65-77.68,444.89,444.89,0,0,1,78.27-62.79A378.94,378.94,0,0,1,916,188.36a338.89,338.89,0,0,1,198.07.08A378.71,378.71,0,0,1,1205.25,230a443.68,443.68,0,0,1,78.16,62.84,523.8,523.8,0,0,1,63.53,77.7c37.4,55.65,65,117.67,83.27,182.15C1448.19,617.3,1456.85,684.36,1457.26,751.4Zm-8.83,0c-.1-66.28-8.36-132.63-25.85-196.62s-44.06-125.56-80.52-181A518.81,518.81,0,0,0,1280,296.23a435.28,435.28,0,0,0-76.79-63,371,371,0,0,0-90.07-41.63,330.37,330.37,0,0,0-196.09.08,371,371,0,0,0-90,41.71c-28,17.84-53.54,39.3-76.69,63a520.87,520.87,0,0,0-62,77.57C652,429.42,625.54,491.07,608,555a728.68,728.68,0,0,0-19.31,97.39,758.1,758.1,0,0,0,.07,198.16,726.22,726.22,0,0,0,19.37,97.36c17.55,63.83,44,125.44,80.42,180.84a517.34,517.34,0,0,0,62,77.48c23.15,23.68,48.7,45.12,76.67,62.9a372,372,0,0,0,89.92,41.56,328,328,0,0,0,195.78.09,371.94,371.94,0,0,0,90-41.49c28-17.77,53.59-39.19,76.77-62.86a518.4,518.4,0,0,0,62.09-77.46c36.48-55.41,63-117,80.63-180.91S1448.28,817.69,1448.43,751.4Z" style="fill:#fff"/><path d="M499.05,522.58l132.79-1.07,132.8-.61,265.6-.49,265.6.54,132.8.66,132.79,1.16a.39.39,0,0,1,.39.39h0a.37.37,0,0,1-.37.39h0l-132.79,1.16-132.8.66-265.6.54-265.6-.49-132.8-.6-132.79-1.08a.57.57,0,0,1-.57-.58.58.58,0,0,1,.57-.58Z" style="fill:#fff"/><path d="M653.12,300.15c31.43-.49,62.85-.71,94.28-1.07l94.28-.61c31.43-.26,62.86-.23,94.29-.31l94.28-.18,188.57.54,94.28.67c31.43.39,62.85.62,94.28,1.16a.39.39,0,0,1,.39.39h0a.4.4,0,0,1-.39.39c-31.43.53-62.85.76-94.28,1.15l-94.28.67-188.57.54L936,303.31c-31.43-.08-62.86-.05-94.29-.31l-94.28-.61c-31.43-.36-62.85-.58-94.28-1.07a.59.59,0,0,1-.51-.66.62.62,0,0,1,.51-.51Z" style="fill:#fff"/><path d="M452.9,745.06,597.23,744l144.34-.61,288.67-.49,288.67.54,144.34.66,144.33,1.16a.39.39,0,0,1,.39.39.38.38,0,0,1-.39.39l-144.33,1.15-144.34.67-288.67.54-288.67-.49-144.34-.61L452.9,746.22a.58.58,0,0,1-.58-.59A.59.59,0,0,1,452.9,745.06Z" style="fill:#fff"/><path d="M499.05,967.43l132.79-1.07,132.8-.61,265.6-.49,265.6.54,132.8.67,132.79,1.15a.41.41,0,0,1,.39.4.38.38,0,0,1-.38.38h0l-132.79,1.16-132.8.67-265.6.54-265.6-.49-132.8-.61L499.05,968.6a.58.58,0,0,1-.58-.58A.6.6,0,0,1,499.05,967.43Z" style="fill:#fff"/><path d="M1426.37,1192.48H672.12a2,2,0,1,1,0-4.08h754.26a2,2,0,0,1,0,4.08Z" style="fill:#fff"/></g><path d="M1352,467.24l-7.41-6.28a42.35,42.35,0,0,0-.31-13.71l7.12-6.6a.78.78,0,0,0,.19-.91l-4.7-10.66a.8.8,0,0,0-.8-.47l-9.68.81a42.49,42.49,0,0,0-9.92-9.47l.37-9.71a.8.8,0,0,0-.51-.78l-10.86-4.21a.81.81,0,0,0-.9.23l-6.28,7.41a42.56,42.56,0,0,0-13.7.31l-6.61-7.12a.8.8,0,0,0-.9-.19l-10.67,4.7a.81.81,0,0,0-.47.8l.81,9.68a42.49,42.49,0,0,0-9.47,9.92l-9.71-.37a.83.83,0,0,0-.78.51L1252.55,442a.81.81,0,0,0,.23.9l7.42,6.27a42.06,42.06,0,0,0,.3,13.71l-7.12,6.61a.82.82,0,0,0-.19.9l4.71,10.67a.76.76,0,0,0,.79.47l9.68-.81a42.09,42.09,0,0,0,9.92,9.47l-.37,9.71a.8.8,0,0,0,.51.78l10.86,4.21a.81.81,0,0,0,.9-.23l6.28-7.42a42.06,42.06,0,0,0,13.71-.3l6.6,7.12a.78.78,0,0,0,.9.19l10.67-4.71a.78.78,0,0,0,.47-.79l-.81-9.68a41.71,41.71,0,0,0,9.47-9.92l9.71.37a.79.79,0,0,0,.78-.51l4.21-10.86A.78.78,0,0,0,1352,467.24Z" style="fill:#73d0d9"/><path d="M1302.38,466.36a11.3,11.3,0,1,1,6.94-2.38A11.28,11.28,0,0,1,1302.38,466.36Zm0-20.69a9.4,9.4,0,1,0,7.44,3.61A9.39,9.39,0,0,0,1302.38,445.67Z" style="fill:#fff"/><path d="M1732.12,726.79a.87.87,0,0,1-.57-.19,1,1,0,0,1-.2-1.34c.77-1,1.58-2.06,2.41-3a1,1,0,0,1,1.39.28,1,1,0,0,1,.08,1q-1.21,1.5-2.34,3A.94.94,0,0,1,1732.12,726.79Z" style="fill:#5ecff5"/><path d="M1841.53,743.92a1,1,0,0,1-.91-.65,57.94,57.94,0,0,0-2.66-6.55,1,1,0,0,1,1.73-.83,62.72,62.72,0,0,1,2.75,6.77,1,1,0,0,1-.6,1.21A.65.65,0,0,1,1841.53,743.92Zm-8.67-16.69a1,1,0,0,1-.78-.39c-.4-.55-.81-1.09-1.23-1.63-1-1.32-2.13-2.61-3.26-3.84a1,1,0,0,1,1.41-1.3c1.17,1.27,2.3,2.6,3.36,4,.44.55.86,1.11,1.27,1.67a1,1,0,0,1-.21,1.34A.85.85,0,0,1,1832.86,727.23Zm-90-11.62a.9.9,0,0,1-.74-.36.94.94,0,0,1,.12-1.32l0,0,1.07-.86c1.55-1.21,3.18-2.36,4.83-3.42a1,1,0,0,1,1.33.28,1,1,0,0,1-.29,1.33,54,54,0,0,0-4.7,3.32l-1,.83A.84.84,0,0,1,1742.86,715.61Zm76.77-1.75a.87.87,0,0,1-.57-.19,61.37,61.37,0,0,0-5.91-3.88,1,1,0,0,1,1-1.66,63.23,63.23,0,0,1,6.09,4,1,1,0,0,1,.2,1.34A1,1,0,0,1,1819.63,713.86Zm-60.58-7.8a1,1,0,0,1-.36-1.84,64.65,64.65,0,0,1,6.92-2.33,1,1,0,0,1,1,1,1,1,0,0,1-.48.82,65.87,65.87,0,0,0-6.7,2.25A.73.73,0,0,1,1759.05,706.06Zm44-1a.86.86,0,0,1-.32,0,63.19,63.19,0,0,0-6.8-2,1,1,0,0,1-.73-1.14,1,1,0,0,1,1.15-.73,67.39,67.39,0,0,1,7,2,1,1,0,0,1,.59,1.22,1,1,0,0,1-.91.65Zm-25.67-3.32a1,1,0,0,1-.71-1.22,1,1,0,0,1,.63-.69c1.66-.13,3.35-.19,5-.19h2.27a1,1,0,0,1,.92,1,1,1,0,0,1-1,.92h-2.22c-1.61,0-3.25.06-4.86.19Z" style="fill:#5ecff5"/><path d="M1844.65,759.11a1,1,0,0,1-1-.88c-.1-1.25-.23-2.51-.4-3.74a1,1,0,1,1,1.89-.27c.18,1.27.32,2.57.42,3.86a1,1,0,0,1-.88,1Z" style="fill:#5ecff5"/><path d="M1302.17,484.06a29.08,29.08,0,1,1,26.56-40.81q.45,1,.78,1.95a28.54,28.54,0,0,1,1,3.47,2.46,2.46,0,0,0,.1.47.67.67,0,0,1,0,.2,1,1,0,0,1-.76.93.93.93,0,0,1-1.12-.71v0A26.82,26.82,0,0,0,1327,444h0a27.22,27.22,0,0,0-28.6-16,27.77,27.77,0,0,0-6.69,1.83l-.27.12-.26.11a27.17,27.17,0,1,0,33.14,40.56,1,1,0,0,1,1.91.62,1.05,1.05,0,0,1-.35.48A29,29,0,0,1,1302.17,484.06Z" style="fill:#fff"/><path d="M322.39,390.55,434.31,672.06A33.33,33.33,0,0,0,470,692.74l293.48-20.58L657.81,371.72a18.69,18.69,0,0,0-17.91-12C588.45,360.9,401,365.53,334,371.5a13.89,13.89,0,0,0-11.61,19.05Z" style="fill:#071841"/><path d="M460.12,679.92l-111.82-284a8.88,8.88,0,0,1,8-12.1l276.37-10.49A16.78,16.78,0,0,1,648.91,384l101.3,276.85Z" style="fill:#edf8f1"/><path d="M863.32,683.54a9.5,9.5,0,0,1-9.5,9.5h-386a14.43,14.43,0,0,1-14.43-14.43h0l-6.07-7,400.8-3.48a15.43,15.43,0,0,1,15.22,15.42Z" style="fill:#071841"/><path d="M708.21,419.88c-8.4-13.88-23.06-23-31.9-36.6-11.14-17.13-11.52-39.82-4.22-58.91,6-15.83,16.84-29.51,23-45.3,8.31-21.25,8.47-30.4,4.68-51.73-3.33-18.8-10.64-38.82-28.68-49.59-22.31-13.34-49.61-15.87-75.15-11-26.51,5-52.22,16.27-71.61,35s-32,45.07-31.72,72.05c.22,18.26,6.09,37.07.24,54.36a42.7,42.7,0,0,1-30.19,27.41c-15.37,3.59-31.33-1.66-47.11-1.46a68.67,68.67,0,0,0-43.07,16.11c-10.57,9-18.41,21.5-20.19,35.24s3,28.51,13.56,37.48c7.22,6.13,17.38,10.28,20,19.37,3,10.17-5.77,20.38-15.53,24.51s-20.75,4.49-30.68,8.19c-22.22,8.27-35.69,33.31-34,57s16.69,45,36.32,58.37S385.39,629.67,409,631.6s47.39,0,71.07-1.08c27.1-1.27,54.73-1.63,80.42-10.32,26-8.79,48.43-25.6,69.36-43.33,9.91-8.39,20-17.57,24.41-29.77,3.23-8.86,3.24-18.7,7-27.37,8-18.59,30.07-26.5,42.85-42.19C717.12,461.58,718.84,437.42,708.21,419.88Z" style="fill:#061e43"/><path d="M684.8,388.24c-15.3-4.86-59.93-14.09-103.15,24.52a26.39,26.39,0,0,0-8,26.15c10.76,42.3,32.59,177.74,5.26,231.14,0,0,8.56-.07,103.69,1,0,0,24.42-99.11,55-142.3,21.13-29.82-31.09-113.75-44.31-134A15.8,15.8,0,0,0,684.8,388.24Z" style="fill:#41b3a7"/><path d="M643.69,303.89s-23.77,64-25.94,92.31a48.62,48.62,0,0,0,48.94-7.08s3.52-64.21,7.3-75.65Z" style="fill:#fca372"/><path d="M676.69,216.7s58.14,84.19,22.2,107.8-77.33-36.23-77.33-36.23-13.07-45.79,1.61-61S676.69,216.7,676.69,216.7Z" style="fill:#fca372"/><path d="M649.48,196.36s27.22,6.92,30.85,19.34-39.13,23.2-51.07,23.57l-10.41,49.79s-27.66-47.39-16-74.32S649.48,196.36,649.48,196.36Z" style="fill:#061e43"/><path d="M633.18,282.33s-22.71-27.19-32.2-9.86,20.34,30.94,30.88,22.53Z" style="fill:#fca372"/><path d="M575.42,421.06s-73.62,59.21-93,141.42,104.69,93,104.69,93,17.16-18.55,37.07-11.51,2.08-32.84-21.34-33.11-12.87,18.42-45.76,2.88c-32-15.14-51.25-60.67,32.19-127.87a37.15,37.15,0,0,0,11.11-14.63C617.05,431.2,604.78,404.6,575.42,421.06Z" style="fill:#fca372"/><path d="M1320.86,899.58a4,4,0,0,1,7.33.78c3.55,12.8,12.16,35.13,30.22,43.06.91.4,1.77.8,2.6,1.21a9.19,9.19,0,0,0-1.13-8.3c-5.62-8.58,4.52-20.3,4.52-20.3s.67,10.32,8.52,16.82c6.75,5.6,10,18,5.38,28.27-9.77,38-24.41,88.17,32.6,124.85s137.29-69.22,137.29-69.22l-39.84,126.31s-61.51,45.39-133-18.44-24.12-156.68-24.12-156.68S1296.61,945.93,1320.86,899.58Z" style="fill:#fca372"/><path d="M1410.42,1085.39c-16.76-10.79-27.38-22.74-33.79-35.21-12.87,5.07-26.57,5.33-40.59,4.75,3.64,23.42,14.38,48.13,38.4,69.58,72.29,64.58,134.44,18.66,134.44,18.66l40.24-127.82S1468,1122.51,1410.42,1085.39Z" style="fill:#41b3a7"/><path d="M1885.41,1027.8,1769.8,1318.55a34.42,34.42,0,0,1-36.91,21.37l-303.17-22.38,109.2-309.19a19.35,19.35,0,0,1,18.5-12.45c53.15,1.23,246.75,6,316,12.17a14.35,14.35,0,0,1,13,15.59A14.1,14.1,0,0,1,1885.41,1027.8Z" style="fill:#071841"/><path d="M1743.12,1326.72l115.5-293.36a9.16,9.16,0,0,0-8.31-12.5l-285.5-10.8a17.32,17.32,0,0,0-16.77,11l-104.57,286Z" style="fill:#edf8f1"/><path d="M1326.63,1330.46a9.82,9.82,0,0,0,9.82,9.81h398.72a14.9,14.9,0,0,0,14.95-14.85v-.06l6.28-7.29-414-3.54a15.94,15.94,0,0,0-15.72,15.93Z" style="fill:#071841"/><path d="M1558.18,831.14s-16.52-74.08,68.34-54.47c0,0,41.2-6.73,43.29,32.15,0,0,26.56,17.49,7.12,51.14,0,0,78.91-30.48,113.29,38.69s2.78,107.23-30.35,117.15c0,0,26.84,13.47,14.14,43.91s-77.06,51.88-115.07,14.87c0,0-108.16,14.3-106-62.1,0,0-50.31-32.49,2.53-95.62S1558.18,831.14,1558.18,831.14Z" style="fill:#061e43"/><path d="M1553.52,1002.87c17-5.11,66.7-14.55,113.93,29a29.23,29.23,0,0,1,8.43,29.15c-12.69,46.7-42.35,196.52-13,256.22,0,0-38.29,1.09-111.94-.78,0,0-25.31-110.33-58.47-158.77-22.89-33.43,36.51-125.56,51.53-147.82A17.72,17.72,0,0,1,1553.52,1002.87Z" style="fill:#41b3a7"/><path d="M1600.6,910.06s25.22,71.33,27.12,102.8a53.91,53.91,0,0,1-54.14-8.71s-2.76-71.26-6.74-84Z" style="fill:#fca372"/><path d="M1565.57,812.82s-66,92.31-26.53,119.13,86.39-38.79,86.39-38.79,15.3-50.53-.7-67.67S1565.57,812.82,1565.57,812.82Z" style="fill:#fca372"/><path d="M1596.12,790.76s-30.3,7.18-34.55,20.89,43,26.42,56.21,27l10.64,55.41s31.51-52,19-82.11S1596.12,790.76,1596.12,790.76Z" style="fill:#061e43"/><path d="M1612.64,886.36s25.68-29.73,35.89-10.35-23.11,33.94-34.65,24.43Z" style="fill:#fca372"/><path d="M1674.21,1041.22s80.57,67,100.56,158.46S1657,1300.89,1657,1300.89s-18.7-20.87-40.89-13.43-1.72-36.44,24.25-36.32,13.94,20.65,50.68,4c35.79-16.21,57.91-66.35-33.4-142.35a41.31,41.31,0,0,1-12.06-16.43C1627.87,1051.72,1642,1022.45,1674.21,1041.22Z" style="fill:#fca372"/><path d="M1774.77,1199.37c-20.09-91.5-101-158.46-101-158.46-32.41-18.77-46.55,10.5-28.73,55.15a41.32,41.32,0,0,0,12.12,16.43c70.75,58.62,73.71,101.84,54.87,126,9.5,3,18.52,7.82,26.79,13.15,6.41,4.25,12.29,7.46,17.65,11.56C1771.92,1248.38,1781,1227.83,1774.77,1199.37Z" style="fill:#41b3a7"/><path d="M964.94,858.59H949.73c-2.69,0-4.88-1.29-4.94-2.9l-4.67-103.53c-.06-1.67,2.17-3,4.94-3h19.86c2.73,0,4.94,1.33,4.94,3V855.62C969.88,857.26,967.67,858.59,964.94,858.59Z" style="fill:#5ecff5"/><path d="M939.26,740.93l.17,1.36c.16,1.29,1.89,2.3,4,2.37l21.92.68c2.44.07,4.49-1.1,4.49-2.57v-2.06c0-1.38-1.8-2.51-4.09-2.57-5.46-.14-15.3-.31-22.59,0C940.84,738.27,939.12,739.5,939.26,740.93Z" style="fill:#5ecff5"/><path d="M923.43,858.59H908.22c-2.68,0-4.87-1.29-4.94-2.9l-4.64-115.32c-.07-1.67,2.16-3,4.94-3h19.85c2.73,0,4.94,1.34,4.94,3V855.62C928.37,857.26,926.12,858.59,923.43,858.59Z" style="fill:#5ecff5"/><path d="M897.75,729.14l.17,1.36c.17,1.29,1.9,2.31,4,2.37l21.93.68c2.44.08,4.48-1.09,4.48-2.57v-2.06c0-1.38-1.8-2.51-4.08-2.57-5.47-.14-15.31-.31-22.6,0C899.34,726.49,897.57,727.72,897.75,729.14Z" style="fill:#5ecff5"/><path d="M1006.7,858.59H991.49c-2.68,0-4.88-1.29-4.94-2.9l-1.79-73.54c-.07-1.67,2.17-3,4.94-3h19.86c2.72,0,4.94,1.33,4.94,3l-2.86,73.54C1011.64,857.26,1009.43,858.59,1006.7,858.59Z" style="fill:#5ecff5"/><path d="M983.87,770.92l.18,1.36c.16,1.29,1.89,2.3,4,2.37l21.93.68c2.44.07,4.49-1.1,4.49-2.57V770.7c0-1.38-1.8-2.51-4.09-2.57-5.46-.14-15.3-.31-22.59,0C985.46,768.26,983.69,769.5,983.87,770.92Z" style="fill:#5ecff5"/><path d="M843,858.59H827.8c-2.68,0-4.87-1.29-4.93-2.9l-4.65-103.53c-.06-1.67,2.17-3,4.94-3H843c2.73,0,4.94,1.33,4.94,3V855.62C848,857.26,845.75,858.59,843,858.59Z" style="fill:#5ecff5"/><path d="M817.33,740.93l.18,1.36c.16,1.29,1.89,2.3,4,2.37l21.93.68c2.44.07,4.49-1.1,4.49-2.57v-2.06c0-1.38-1.8-2.51-4.09-2.57-5.46-.14-15.3-.31-22.59,0C818.92,738.27,817.12,739.5,817.33,740.93Z" style="fill:#5ecff5"/><path d="M884.78,858.59H869.57c-2.69,0-4.88-1.29-4.94-2.9l-1.79-73.54c-.07-1.67,2.16-3,4.94-3h19.86c2.72,0,4.94,1.33,4.94,3l-2.86,73.54C889.72,857.26,887.51,858.59,884.78,858.59Z" style="fill:#5ecff5"/><path d="M862,770.92l.18,1.36c.16,1.29,1.89,2.3,4,2.37l21.93.68c2.44.07,4.49-1.1,4.49-2.57V770.7c0-1.38-1.81-2.51-4.09-2.57-5.46-.14-15.3-.31-22.59,0C863.54,768.26,861.77,769.5,862,770.92Z" style="fill:#5ecff5"/><rect x="1086.86" y="545.9" width="18.15" height="320.14" style="fill:#b5e3df"/><rect x="1117.19" y="545.9" width="18.15" height="320.14" style="fill:#b5e3df"/><rect x="1147.51" y="545.9" width="18.15" height="320.14" style="fill:#b5e3df"/><rect x="1177.84" y="545.9" width="18.15" height="320.14" style="fill:#b5e3df"/><rect x="1208.17" y="545.9" width="18.15" height="320.14" style="fill:#b5e3df"/><rect x="1238.49" y="545.9" width="18.15" height="320.14" style="fill:#b5e3df"/><rect x="1268.82" y="545.9" width="18.15" height="320.14" style="fill:#b5e3df"/><rect x="1086.86" y="698.49" width="18.15" height="167.54" style="fill:#ffd131"/><rect x="1117.19" y="756.07" width="18.15" height="109.96" style="fill:#ffd131"/><rect x="1147.51" y="613.77" width="18.15" height="252.27" style="fill:#ffd131"/><rect x="1177.84" y="805.43" width="18.15" height="60.6" style="fill:#ffd131"/><rect x="1208.17" y="647.49" width="18.15" height="218.54" style="fill:#ffd131"/><rect x="1238.49" y="685.33" width="18.15" height="180.7" style="fill:#ffd131"/><rect x="1268.82" y="726.46" width="18.15" height="139.57" style="fill:#ffd131"/><circle cx="1346.63" cy="732.32" r="35.88" style="fill:#071841"/><path d="M1368,724.73a23,23,0,1,1-21.32-14.29h1.17V704.6h-1.17a28.88,28.88,0,1,0,26.68,17.8Z" style="fill:#ffd131"/><path d="M1376.12,783.38h-58.46a6.65,6.65,0,0,0-.51,13.29h59a6.65,6.65,0,1,0,.52-13.29Z" style="fill:#5ecff5"/><circle cx="1346.48" cy="617" r="35.88" style="fill:#071841"/><path d="M1358.68,637.67a23,23,0,1,1-12.28-42.54h1.16v-5.84h-1.16a28.88,28.88,0,1,0,15.17,53.46Z" style="fill:#ffd131"/><path d="M1376.28,668.06h-58.47a6.65,6.65,0,0,0,0,13.29h58.47a6.65,6.65,0,0,0,0-13.29Z" style="fill:#5ecff5"/><circle cx="1346.8" cy="848.25" r="35.88" style="fill:#071841"/><path d="M1366.3,861.16a23,23,0,1,1-19.06-36h1.16v-5.84h-1.16A28.89,28.89,0,1,0,1371,864.59Z" style="fill:#ffd131"/><path d="M1317.53,911.39H1376a6.65,6.65,0,0,0,.52-13.29h-59a6.65,6.65,0,0,0,0,13.29Z" style="fill:#5ecff5"/><circle cx="916.44" cy="529.28" r="84.73" style="fill:#071841"/><path d="M838.28,526.06h0a1,1,0,0,1-.91-1,80.15,80.15,0,0,1,1.15-10,1,1,0,0,1,1.88.34,79.53,79.53,0,0,0-1.12,9.71A1,1,0,0,1,838.28,526.06Z" style="fill:#91b3fa"/><circle cx="918.21" cy="531.12" r="71.71" transform="translate(-2.86 4.98) rotate(-0.31)" style="fill:#73d0d9"/><path d="M940.18,504c0,12.14-9.84,25.25-22,25.25s-22-13.11-22-25.25,9.84-20.76,22-20.76S940.18,491.85,940.18,504Z" style="fill:#fff;opacity:0.5899999737739563;isolation:isolate"/><path d="M890.91,576h53.67A13,13,0,0,0,957,567l2.89-9A13,13,0,0,0,952,541.85c-21.84-8-44.43-7-67.56.74a12.93,12.93,0,0,0-8.29,15.68l2.22,8.2A13,13,0,0,0,890.91,576Z" style="fill:#fff;opacity:0.5899999737739563;isolation:isolate"/><path d="M916.38,674.06c-79.86,0-144.82-65-144.82-144.82s65-144.83,144.82-144.83,144.82,65,144.82,144.83S996.23,674.06,916.38,674.06Zm0-244.23a99.41,99.41,0,1,0,99.4,99.42h0a99.52,99.52,0,0,0-99.4-99.4Z" style="fill:#edf8f1;opacity:0.7300000190734863;isolation:isolate"/><path d="M1060.8,518.41l-45.29,3.4c.18,2.46.27,4.93.27,7.44a98.81,98.81,0,0,1-5.9,33.75l42.72,15.42a143.84,143.84,0,0,0,8.6-49.17C1061.2,525.6,1061.06,522,1060.8,518.41Z" style="fill:#5ecff5"/><path d="M916.38,628.65A99.41,99.41,0,1,1,940.6,432.83l11.06-44a145.12,145.12,0,0,0-35.28-4.36c-79.86,0-144.82,65-144.82,144.83s65,144.76,144.82,144.76c62.6,0,116-39.93,136.22-95.65L1009.88,563A99.56,99.56,0,0,1,916.38,628.65Z" style="fill:#ffd131"/><path d="M1015.51,521.81l45.29-3.4a143.83,143.83,0,0,0-14.24-52.58l-40.83,19.89A98.72,98.72,0,0,1,1015.51,521.81Z" style="fill:#071841"/><path d="M1094.73,935.76l172.38-1a9,9,0,0,1,9.13,8.87,8.88,8.88,0,0,1-1.33,4.84l-.86,1.44a9,9,0,0,1-7.76,4.39H1094.78a9,9,0,0,1-9-8.95v-.53a9,9,0,0,1,8.94-9.06Z" style="fill:#071841"/><path d="M1070.65,945.06v.28a9,9,0,0,1-9,9h-38.27a9.05,9.05,0,0,1-8.74-6.71h0a9.08,9.08,0,0,1,8.68-11.39l38.26-.28a9.06,9.06,0,0,1,9.07,9Z" style="fill:#071841"/><path d="M1136.19,968.24l130.92-1a9,9,0,0,1,9.13,8.87,8.88,8.88,0,0,1-1.33,4.84l-.86,1.44a9,9,0,0,1-7.76,4.39h-130a9,9,0,0,1-9-9v-.48a9,9,0,0,1,8.94-9.06Z" style="fill:#071841"/><path d="M1112.12,977.49v.28a9,9,0,0,1-9,9h-38.27a9,9,0,0,1-8.74-6.71h0a9.06,9.06,0,0,1,6.4-11.08,9.2,9.2,0,0,1,2.27-.31l38.27-.28a9.05,9.05,0,0,1,9.07,9Z" style="fill:#071841"/><path d="M346,1005.69l123.1,309.59a36.67,36.67,0,0,0,39.3,22.75l322.77-23.84L714.89,985a20.59,20.59,0,0,0-19.7-13.25c-56.6,1.3-262.74,6.39-336.48,12.95a15.27,15.27,0,0,0-12.76,21Z" style="fill:#071841"/><path d="M497.47,1324l-123-312.36A9.74,9.74,0,0,1,380,999a9.91,9.91,0,0,1,3.36-.68l304-11.54a18.46,18.46,0,0,1,17.86,11.69L816.51,1303Z" style="fill:#edf8f1"/><path d="M940.92,1328a10.45,10.45,0,0,1-10.45,10.45H505.92A15.88,15.88,0,0,1,490,1322.52h0l-6.67-7.76L924.18,1311a17,17,0,0,1,16.74,17Z" style="fill:#071841"/><path d="M736.94,999.72c-78.77-1.3-165.67,20.68-165.67,20.68-23.48,137-4.11,295-4.11,295,113.88,1.91,127.4-4.42,127.4-4.42,10.13-57.26,59.79-223.77,59.79-223.77,38.48-4.77,70.18-15.88,96.29-30.56-19.91-23.08-29.3-52.45-33.38-69.82C789.41,995.5,761.23,1000.12,736.94,999.72Z" style="fill:#4aa4c2"/><path d="M969.6,883.7c-7.74-9.34-17.53-4.92-17.53-4.92-11.59,49-72.37,88.66-134.81,108.06,4.08,17.37,13.47,46.74,33.38,69.82C954.26,998.4,969.6,883.7,969.6,883.7Z" style="fill:#fca372"/><path d="M967.72,886.06c.81,2.57-8.57,6.49-14.09-4-.19-5-3.26-26.66-.24-30.77,16-21.89,47.18-49.33,47.18-49.33a7.4,7.4,0,0,1,.93,10.29L986.4,828c3.16,5.71,7,10.53,8.81,17.43A21.11,21.11,0,0,1,993.1,861a185.17,185.17,0,0,1-9.68,15.84C977,886.06,967.72,886.06,967.72,886.06Z" style="fill:#fca372"/><path d="M979.79,838.18,966,849.84l-4.32,11.62L974,875.07s4.12-23,7.19-28S982.65,839.64,979.79,838.18Z" style="fill:#fca372"/><path d="M601.48,1096.67l-30.21-76.27s-73.57,50-85.67,113.37c13.9,1,39.19,4.64,63.95,17.14C555,1121,601.48,1096.67,601.48,1096.67Z" style="fill:#4aa4c2"/><path d="M665.77,1168.43s-82.6,46.69-110.47,6.83c-5.79-8.28-7.17-16.51-5.75-24.35-24.76-12.5-50-16.12-63.95-17.14a87.49,87.49,0,0,0,9.5,60c48.83,89.3,181.6-4.94,181.6-4.94Z" style="fill:#fca372"/><path d="M660.23,1233.37a4.61,4.61,0,0,1-4.56-4.66,5.07,5.07,0,0,1,.18-1.22l45.08-157.43a4.61,4.61,0,0,1,3.88-3.31c8.17-1,31.83-3.62,59.16-5.93,32.92-2.79,71.14-5,94-3.13a4.62,4.62,0,0,1,4.23,5,4.57,4.57,0,0,1-.46,1.66c-13,26.28-66.42,133.18-93.18,168.2a4.58,4.58,0,0,1-3.71,1.82Z" style="fill:#ffd131"/><path d="M768.65,1047.17l32.68-5.45a2.33,2.33,0,0,1,2.61,3l-3.23,9.8a2.32,2.32,0,0,1-1.92,1.59l-31.45,4.21a2.36,2.36,0,0,1-2.64-2,2.52,2.52,0,0,1,0-.82l2-8.56A2.32,2.32,0,0,1,768.65,1047.17Z" style="fill:#061e43"/><path d="M744.17,1074.84l2.7-14a3.25,3.25,0,0,1,2.85-2.61l66-6.7a3.25,3.25,0,0,1,3.56,2.89,3.17,3.17,0,0,1-.08,1.11L815,1073a3.22,3.22,0,0,1-3,2.48l-64.51,3.25a3.24,3.24,0,0,1-3.38-3.11A3.51,3.51,0,0,1,744.17,1074.84Z" style="fill:#061e43"/><path d="M666.74,1189.46s-6.28-25.82-3.75-35,7.44-20.94,23.8-18.32,35.66,9.51,35.66,9.51-1,11.93-13.41,8.08l7.71,6s-1.1,9.55-11.6,4.45l7.17,7.91s-4.51,7.85-12.24,2.82S688.65,1192.57,666.74,1189.46Z" style="fill:#fca372"/><path d="M657.12,935.78l-25,72.47a2.61,2.61,0,0,0,1.19,3.15c6.83,3.77,31.44,14.69,61.1-4.11a12.27,12.27,0,0,0,5.66-8.79l8.12-62.72Z" style="fill:#fca372"/><path d="M711.69,868.66s27.52,51.8,24,72.73-37.63,19.42-67.42,2.43l-20.81-55.94Z" style="fill:#fca372"/><path d="M669.58,916.35a2.13,2.13,0,0,0,1.1-2.82,2.38,2.38,0,0,0-.17-.31c-2.2-3.36-6.34-10.24-7.66-16.25,0,0-4.94-3.17,12.6-7.37s43.69-10.71,49.19-25.64c5.36-14.56-8.72-51.16-31.19-22a2.14,2.14,0,0,1-3,.39,2.06,2.06,0,0,1-.39-.39c-3.68-4.8-13.36-14.75-26.81-8.72-12.58,5.65-14,14.87-13.82,19.52a2.13,2.13,0,0,1-2,2.21,1.87,1.87,0,0,1-.47,0c-6.36-1.21-21.63-2.26-28.75,13.4-5.87,12.9-2,20.2,1.42,23.77a2.14,2.14,0,0,1,0,3,2,2,0,0,1-.87.51c-4.18,1.28-9.58,4.82-9,14.62.75,13.54,15.89,12.34,20.2,11.73a2.16,2.16,0,0,1,1.89.67c3.7,4.09,20.35,21.45,38.37,23.55a2.16,2.16,0,0,0,2.37-1.93,2.22,2.22,0,0,0-.11-.92l-7.8-22.67a2.16,2.16,0,0,1,1.16-2.66Z" style="fill:#061e43"/><path d="M672.71,919.57s-19.59-13.45-21-2.13,17.64,16.4,27.09,12.18Z" style="fill:#fca372"/><path d="M1906.28,349.13,1799.72,617.06a31.72,31.72,0,0,1-34,19.69L1486.31,617.2,1587,331.2a17.8,17.8,0,0,1,17-11.47c49,1.12,227.42,5.53,291.25,11.21a13.21,13.21,0,0,1,11.08,18.19Z" style="fill:#071841"/><path d="M1775.12,624.62l106.46-270.37a8.43,8.43,0,0,0-4.75-10.93,8.53,8.53,0,0,0-2.91-.59l-263.13-10a15.94,15.94,0,0,0-15.45,10.12L1499,606.42Z" style="fill:#edf8f1"/><path d="M1391.28,628.06a9,9,0,0,0,9,9h367.49a13.75,13.75,0,0,0,13.74-13.75l5.78-6.72-381.57-3.27A14.7,14.7,0,0,0,1391.28,628.06Z" style="fill:#071841"/><path d="M1105,397.81,1362.59,375a20.31,20.31,0,0,0,18.53-20.14l1-173.71a20.31,20.31,0,0,0-20.21-20.42c-.51,0-1,0-1.52,0l-274.34,19.09a20.31,20.31,0,0,0-19,21.59l0,.48,15.75,177.48a20.34,20.34,0,0,0,22.05,18.46Z" style="fill:#41b3a7"/><path d="M1367,197.92l1.7,150a12.55,12.55,0,0,1-11.32,12.65l-247,24.54a12.55,12.55,0,0,1-13.74-11.25c0-.05,0-.1,0-.15l-14.24-160.37a12.58,12.58,0,0,1,11.39-13.65l.39,0,259.57-14.15a12.57,12.57,0,0,1,13.25,11.85C1367,197.55,1367,197.74,1367,197.92Z" style="fill:#edf8f1;opacity:0.8700000047683716;isolation:isolate"/><path d="M1249.84,329,1110,337.16a2.56,2.56,0,0,0-2.39,2.72v.05l.2,2.24a2.56,2.56,0,0,0,2.73,2.32l139.61-10.43a2.53,2.53,0,0,0,2.35-2.73v0h0A2.54,2.54,0,0,0,1249.84,329Z" style="fill:#4aa4c2"/><path d="M1253.57,343l.08.95a2.55,2.55,0,0,1-2.31,2.76L1111.9,359.06a2.54,2.54,0,0,1-2.76-2.31l-.09-1a2.56,2.56,0,0,1,2.31-2.76l139.44-12.37a2.56,2.56,0,0,1,2.77,2.32Z" style="fill:#4aa4c2"/><path d="M1212.35,359.22v.42a2.55,2.55,0,0,1-2.31,2.76L1113,371.06a2.54,2.54,0,0,1-2.76-2.3h0l-.18-2a2.56,2.56,0,0,1,2.33-2.76h0l97.26-7.06A2.54,2.54,0,0,1,1212.35,359.22Z" style="fill:#4aa4c2"/><path d="M1126.55,335.75l304-6.18a23.9,23.9,0,0,0,23.34-22.14l15-203.69a23.89,23.89,0,0,0-22-25.61c-.58,0-1.16-.06-1.74-.07l-323.33.42a23.9,23.9,0,0,0-23.86,23.92v.46l4.26,209.46a23.88,23.88,0,0,0,24.34,23.43Z" style="fill:#2d6375"/><path d="M1449.9,122.25l-10,176.08a14.77,14.77,0,0,1-14.3,13.93l-291.76,9a14.77,14.77,0,0,1-15.22-14.32.76.76,0,0,1,0-.15l-3.85-189.27a14.77,14.77,0,0,1,14.47-15.06h.53l305.62,4.19a14.77,14.77,0,0,1,14.54,15C1449.92,121.84,1449.91,122.05,1449.9,122.25Z" style="fill:#edf8f1;opacity:0.8700000047683716;isolation:isolate"/><path d="M1302,266.59l-164.66-1.53a3,3,0,0,0-3,3v2.7a3,3,0,0,0,3,2.93L1302,272.62a3,3,0,0,0,3-3v-.07h0A3,3,0,0,0,1302,266.59Z" style="fill:#4aa4c2"/><path d="M1305.27,283.32v1.13a3,3,0,0,1-2.94,3.05l-164.56,3.35a3,3,0,0,1-3-2.93v-1.13a3,3,0,0,1,2.93-3.05l164.56-3.35A3,3,0,0,1,1305.27,283.32Z" style="fill:#4aa4c2"/><path d="M1255.63,299.06v.5a3,3,0,0,1-2.94,3.05L1138.12,305a3,3,0,0,1-3-2.93l0-2.33a3,3,0,0,1,3-3h0l114.65-.5A3,3,0,0,1,1255.63,299.06Z" style="fill:#4aa4c2"/><path d="M1171.42,285.37h337.31a26.51,26.51,0,0,0,26.39-24l21.26-225.54A26.51,26.51,0,0,0,1532.48,7c-.66-.07-1.32-.1-2-.12L1171.92,0a26.51,26.51,0,0,0-27,26c0,.16,0,.32,0,.48V258.86A26.51,26.51,0,0,0,1171.42,285.37Z" style="fill:#ffd131"/><path d="M1534.82,55.91l-15.08,195a16.4,16.4,0,0,1-16.17,15.15l-323.75,3.4a16.38,16.38,0,0,1-16.56-16.21V43.06a16.38,16.38,0,0,1,16.38-16.39c.19,0,.38,0,.57,0L1519,38.22a16.4,16.4,0,0,1,15.83,17C1534.86,55.42,1534.84,55.67,1534.82,55.91Z" style="fill:#edf8f1"/><path d="M1362,54.12l-182.56-5.46a3.33,3.33,0,0,0-3.42,3.22v3a3.31,3.31,0,0,0,3.27,3.32l182.56,2.52a3.31,3.31,0,0,0,3.37-3.26v-.06h0A3.33,3.33,0,0,0,1362,54.12Z" style="fill:#4aa4c2"/><rect x="1176" y="69.43" width="189.2" height="7.89" rx="3.32" style="fill:#4aa4c2"/><path d="M1309.79,89.11v.55a3.31,3.31,0,0,1-3.32,3.32H1179.32a3.31,3.31,0,0,1-3.32-3.3V87.06a3.32,3.32,0,0,1,3.32-3.32h0l127.15,2a3.32,3.32,0,0,1,3.27,3.35Z" style="fill:#4aa4c2"/><path d="M1224.4,189.33a1.29,1.29,0,0,0,.9-.32l54.82-44.52,54,39.57a1.43,1.43,0,0,0,2-.24l75.15-90.15c8.54,7.49,63.91,56,71.28,62.48a1.44,1.44,0,0,0,1.89-2.16c-8-7-72.39-63.45-72.39-63.45a1.43,1.43,0,0,0-2,.16L1334.82,181,1281,141.52a1.44,1.44,0,0,0-1.76,0l-54.8,44.54-29.31-25.65a1.44,1.44,0,0,0-2.07,2,1.19,1.19,0,0,0,.18.15L1223.44,189A1.42,1.42,0,0,0,1224.4,189.33Z" style="fill:#4aa4c2"/><path d="M1409,236.85V234a1,1,0,0,1,1.92,0v2.87a1,1,0,0,1-1.92,0Zm0-9.57v-2.87a1,1,0,0,1,1.92,0v2.87a1,1,0,0,1-1.92,0Zm0-9.57v-2.87a1,1,0,0,1,1.92,0v2.87a1,1,0,0,1-1.92,0Zm0-9.57v-2.87a1,1,0,0,1,1.92,0v2.87a1,1,0,0,1-1.92,0Zm0-9.56v-2.87a1,1,0,1,1,1.92-.56.89.89,0,0,1,0,.56v2.87a1,1,0,0,1-1.92,0Zm0-9.57v-2.87a1,1,0,0,1,1.92,0v2.92a1,1,0,0,1-1.92,0Zm0-9.57v-2.87a1,1,0,0,1,1.92,0v2.87a1,1,0,0,1-1.92,0Zm0-9.57V167a1,1,0,0,1,1.92,0v2.87a1,1,0,0,1-1.92,0Zm0-9.57v-2.87a1,1,0,0,1,1.92,0v2.87a1,1,0,0,1-1.92,0Zm0-9.57v-2.87a1,1,0,0,1,1.92,0v2.87a1,1,0,0,1-1.92,0Zm0-9.57v-2.87a1,1,0,0,1,1.92,0v2.87a1,1,0,0,1-1.92.56A1.06,1.06,0,0,1,1409,141.16Zm0-9.56v-2.88a1,1,0,0,1,1.92,0v2.88a1,1,0,0,1-1.92,0Zm0-9.57v-2.87a1,1,0,0,1,1.92,0v2.9a1,1,0,0,1-1.92,0Zm0-9.57v-2.87a1,1,0,1,1,1.92-.56.89.89,0,0,1,0,.56v2.87a1,1,0,0,1-1.92,0Z" style="fill:#3d6e73"/><path d="M1334,238.61v-2.87a1,1,0,1,1,1.91-.59,1,1,0,0,1,0,.59v2.87a1,1,0,1,1-1.91.6A1,1,0,0,1,1334,238.61Zm0-9.57v-2.87a1,1,0,1,1,1.91-.59,1,1,0,0,1,0,.59v2.89a1,1,0,1,1-1.91.6,1,1,0,0,1,0-.6Zm0-9.57V216.6a1,1,0,0,1,1.25-.65,1,1,0,0,1,.66.65v2.87a1,1,0,1,1-1.91.6A1,1,0,0,1,1334,219.47Zm0-9.57v-2.84a1,1,0,0,1,1.25-.65,1,1,0,0,1,.66.65v2.87a1,1,0,1,1-1.91.6,1,1,0,0,1,0-.6Zm0-9.56v-2.87a1,1,0,1,1,1.91-.59,1,1,0,0,1,0,.59v2.87a1,1,0,0,1-1.91,0Zm0-9.57V187.9a1,1,0,1,1,1.91-.59,1,1,0,0,1,0,.59v2.87a1,1,0,0,1-1.91,0Z" style="fill:#3d6e73"/><path d="M1278,241.4a.93.93,0,0,1-.92-1v0l.09-2.87a.92.92,0,0,1,.91-.93h.09a1,1,0,0,1,.93,1l-.09,2.87a1,1,0,0,1-1,.92Zm.3-9.56a1,1,0,0,1-.93-1l.09-2.87a1,1,0,0,1,1.26-.64,1,1,0,0,1,.66.7l-.09,2.87a1,1,0,0,1-1,.93Zm.3-9.56a1,1,0,0,1-.93-1l.09-2.87a1,1,0,1,1,1.91.06l-.09,2.87a1,1,0,0,1-1,.93Zm.29-9.57a1,1,0,0,1-.92-1l.09-2.87a.93.93,0,0,1,.93-.93h.07a1,1,0,0,1,.93,1l-.09,2.86a1,1,0,0,1-1,.93Zm.3-9.56a1,1,0,0,1-.93-1l.09-2.87a.94.94,0,0,1,.94-.92h.06a1,1,0,0,1,.93,1l-.09,2.87a1,1,0,0,1-1,.93Zm.3-9.57a1,1,0,0,1-.93-1l.09-2.87a1,1,0,1,1,1.91.06l-.09,2.87a1,1,0,0,1-1,.92Zm.29-9.56a1,1,0,0,1-.92-1l.09-2.87a1,1,0,0,1,1.91.06l-.09,2.87a1,1,0,0,1-1,.93Zm.3-9.56a1,1,0,0,1-.93-1l.09-2.87a1,1,0,1,1,1.93.07l-.09,2.87A1,1,0,0,1,1280.06,174.46Zm.3-9.57a1,1,0,0,1-.93-1l.09-2.87a1,1,0,0,1,1-.93h0a1,1,0,0,1,.92,1l-.09,2.86a1,1,0,0,1-1,.93Zm.29-9.56a1,1,0,0,1-.92-1l.09-2.87a.91.91,0,0,1,.9-.92h.1a1,1,0,0,1,.93,1l-.09,2.87a1,1,0,0,1-1,.93Z" style="fill:#3d6e73"/><path d="M1222.73,232.59v-2.87a1,1,0,1,1,1.91-.59,1,1,0,0,1,0,.59v2.87a1,1,0,1,1-1.91.6A1,1,0,0,1,1222.73,232.59Zm0-9.57v-2.87a1,1,0,0,1,1.25-.65,1,1,0,0,1,.66.65v2.91a1,1,0,1,1-1.91.6,1,1,0,0,1,0-.6Zm0-9.57v-2.87a1,1,0,0,1,1.25-.65,1,1,0,0,1,.66.65v2.87a1,1,0,1,1-1.91.6A1,1,0,0,1,1222.73,213.45Zm0-9.56v-2.83a1,1,0,1,1,1.91-.59,1,1,0,0,1,0,.59v2.87a1,1,0,0,1-1.91,0Zm0-9.57v-2.87a1,1,0,1,1,1.91-.59,1,1,0,0,1,0,.59v2.87a1,1,0,0,1-1.91,0Z" style="fill:#3d6e73"/><path d="M1489.87,253.43a1.43,1.43,0,0,0,1.43-1.31L1506.72,70a1.44,1.44,0,0,0-2.86-.24l-15.42,182.14a1.44,1.44,0,0,0,1.3,1.56Z" style="fill:#4aa4c2"/><polygon points="1509.66 75.97 1505.22 70.69 1499.96 75.14 1500.3 71.03 1505.56 66.58 1510 71.84 1509.66 75.97" style="fill:#4aa4c2"/><path d="M1185.43,244.93h316a1.44,1.44,0,0,0,1.56-1.31,1.46,1.46,0,0,0-1.32-1.56H1185.43a1.44,1.44,0,0,0-1.55,1.32,1.43,1.43,0,0,0,1.31,1.55Z" style="fill:#4aa4c2"/><polygon points="1191.15 248.37 1186.28 243.5 1191.15 238.63 1187.01 238.63 1182.15 243.5 1187.01 248.37 1191.15 248.37" style="fill:#4aa4c2"/><path d="M1524.12,136.11l-91.82-33.33-7.08,14.82,88.26,33.26S1525.75,149.77,1524.12,136.11Z" style="fill:#071841"/><path d="M1432.29,102.78c2.7,8.19-7.08,14.82-7.08,14.82l-16.65-11.79a32.27,32.27,0,0,0,1.76-6.49Z" style="fill:#b5e3df"/><path d="M1410.32,99.32a32.27,32.27,0,0,1-1.76,6.49l-12.31-8.75Z" style="fill:#071841"/><path d="M1500,243.38c19.08,35.51,50.76,71.76,102.3,81.47,47.58,9,133,20,167.36,24.38a42,42,0,0,1,26.51,14.19c27,31.17,86.33,116.75,16.57,203-8.92-5-21.6-12.89-30.21-22.08,7.71-21.74,8.35-49.53-7.82-83.59a75.06,75.06,0,0,1-2.06,8c-22.28,70.56-23.48,129.31-23.42,142.83,0,1.84-1,3.93-2.8,4.17-38.59,5.26-111.08.92-111.08.92,13.38-66.53-37-183.53-50-212.15a18.54,18.54,0,0,0-9.25-9.2c-72-32.6-103.31-82.77-116-128C1471,252.61,1488.12,246.16,1500,243.38Z" style="fill:#4aa4c2"/><path d="M1460.06,267.36c-15.4-54.8-3.42-102.29-3.42-102.29h16.42A265.73,265.73,0,0,0,1500,243.38C1488.12,246.16,1471,252.61,1460.06,267.36Z" style="fill:#fca372"/><path d="M1467.28,173.81s25-32.38,16.87-49.25-36-15.23-36-15.23l-3.9,13.22a16.63,16.63,0,0,0,.39,10.59L1460,173.81Z" style="fill:#fca372"/><path d="M1718.93,284.42l5.65,57.73s-32.48,9.78-56.1-6.88l16.64-52.47Z" style="fill:#fca372"/><path d="M1681.25,218.62c-.79.74-33,64-33,64l36.5,17.62,39.43-55.4S1694.33,206.3,1681.25,218.62Z" style="fill:#fca372"/><path d="M1708,246.35a5.83,5.83,0,0,1-.44,5.11l-18.2,30.35a5.73,5.73,0,0,1-1,1.25c-2.17,2-9.58,7.88-15.32-.11-4.88-6.81-9.47-13-14.38-15.55a5.82,5.82,0,0,0-7.82,2.53l0,.06a218.22,218.22,0,0,0-12.46,29.55,5.79,5.79,0,0,0,3.37,7.11c7.39,3,22,8.41,35,10.2a5.83,5.83,0,0,0,5.51-2.34c5.58-7.64,21.3-29,26.66-34.34,5-5,14.18-3.09,18.33-1.9a5.88,5.88,0,0,0,4.65-.61c4.21-2.53,11.55-8.84,4.83-19.52a5.83,5.83,0,0,1,1.8-7.92c4.7-3.09,9.79-8.89,4.94-18.27s-13.69-10.36-19.67-9.63a6,6,0,0,1-6.34-3.53,3.88,3.88,0,0,0-3-2.37,5.65,5.65,0,0,1-4.58-6.54v-.09c1-5.38.26-12.37-8.33-17.09-15.75-8.66-29.54,5.45-33,17.36s14.1,20.33,25.18,21.74C1701.78,232.83,1706.25,241.71,1708,246.35Z" style="fill:#061e43"/><path d="M1702.05,291.32s7-20.5,16-19.74,16,9.68,4.91,19.72C1709.12,303.79,1702.05,291.32,1702.05,291.32Z" style="fill:#fca372"/><path d="M1782.48,544.33c8.61,9.19,21.29,17.13,30.21,22.08-13.32,16.46-25.38,28.82-49.24,45l-2.55,5.06-37.31,1.28S1768,585.06,1782.48,544.33Z" style="fill:#fca372"/><path d="M1581.48,574.53l-.28-2.35h0a.61.61,0,0,1,.53-.67h0a.61.61,0,0,1,.68.52h0l.27,2.41a.6.6,0,0,1-1.19.14Z" style="fill:#fff"/><path d="M1578.86,560.51l-.6-2.3h0a.69.69,0,0,1,.5-.85h0a.71.71,0,0,1,.86.5h0l.58,2.34a.69.69,0,0,1-1.33.34Z" style="fill:#fff"/><path d="M1574.6,546.89l-.86-2.22h0a.78.78,0,0,1,.39-1,.77.77,0,0,1,1,.38.36.36,0,0,1,0,.09h0l.84,2.25a.78.78,0,0,1-.46,1,.77.77,0,0,1-1-.43h0Z" style="fill:#fff"/><path d="M1568.8,533.87l-1.13-2.1h0a.87.87,0,0,1,.31-1.2.88.88,0,0,1,1.21.31l0,.06h0l1.12,2.15a.85.85,0,0,1-.37,1.16h0a.86.86,0,0,1-1.17-.36Z" style="fill:#fff"/><path d="M1561.38,521.72l-1.4-1.91h0a1,1,0,0,1,1.3-1.52,1,1,0,0,1,.27.37h0l1.4,2a1,1,0,0,1-1.55,1.12Z" style="fill:#fff"/><path d="M1552.3,510.81l-1.67-1.67h0a1.06,1.06,0,0,1,1.5-1.5h0l1.69,1.73a1,1,0,0,1-1.49,1.47Z" style="fill:#fff"/><path d="M1541.61,501.51l-1.93-1.36h0a1.15,1.15,0,0,1,1.2-2l.13.09h0l2,1.43a1.13,1.13,0,0,1-1.32,1.84h0Z" style="fill:#fff"/><path d="M1529.51,494.18l-2.12-1h0a1.23,1.23,0,0,1,1.06-2.23h0l2.17,1.07a1.23,1.23,0,0,1,.57,1.63,1.21,1.21,0,0,1-1.63.57h0Z" style="fill:#fff"/><path d="M1516.37,489l-2.27-.67h0a1.31,1.31,0,0,1-.89-1.64,1.33,1.33,0,0,1,1.64-.9h0l2.32.71a1.32,1.32,0,0,1,.89,1.64,1.31,1.31,0,0,1-1.64.88Z" style="fill:#fff"/><path d="M1502.57,485.78l-2.34-.34h0a1.37,1.37,0,0,1,.4-2.72h0l2.4.36a1.37,1.37,0,1,1-.41,2.71h0Z" style="fill:#fff"/><path d="M1488.45,484.46h-2.37a1.42,1.42,0,0,1-1.39-1.46,1.44,1.44,0,0,1,1.46-1.4h0l2.42.08a1.42,1.42,0,0,1,1.26,1.57,1.41,1.41,0,0,1-1.34,1.26Z" style="fill:#fff"/><path d="M1474.24,484.75l-2.37.18h0a1.5,1.5,0,0,1-.23-3h0l2.41-.17a1.47,1.47,0,0,1,.22,2.93Z" style="fill:#fff"/><path d="M1460.12,486.37l-2.35.38h0a1.53,1.53,0,0,1-1.6-1.45,1.55,1.55,0,0,1,1.11-1.55h0l2.39-.37a1.53,1.53,0,0,1,1.7,1.33,1.51,1.51,0,0,1-1.22,1.67Z" style="fill:#fff"/><path d="M1446.12,489.06l-2.32.55h0a1.58,1.58,0,0,1-1.84-1.27,1.6,1.6,0,0,1,1.11-1.8h0l2.35-.54a1.57,1.57,0,0,1,.7,3.06Z" style="fill:#fff"/><path d="M1432.31,492.73l-2.28.68h0a1.63,1.63,0,1,1-1-3.09l.09,0h0l2.31-.68a1.64,1.64,0,0,1,2,1.11,1.6,1.6,0,0,1-1.09,2h0Z" style="fill:#fff"/><path d="M1418.72,497.12l-2.24.79h0a1.68,1.68,0,0,1-1.12-3.17h0l2.27-.79a1.68,1.68,0,0,1,2.12,1,1.66,1.66,0,0,1-1,2.11Z" style="fill:#fff"/><path d="M1405.34,502.15l-2.22.91h0a1.73,1.73,0,0,1-1.53-3.1l.24-.1h0l2.23-.88a1.72,1.72,0,1,1,1.41,3.14l-.13.05Z" style="fill:#fff"/><path d="M1392.17,507.71l-2.18,1h0a1.78,1.78,0,0,1-1.46-3.25h0l2.2-1a1.78,1.78,0,0,1,2.34.9,1.76,1.76,0,0,1-.9,2.34Z" style="fill:#fff"/><path d="M1379.12,513.69l-2.2,1a1.82,1.82,0,1,1-1.47-3.33h0l2.18-1h0a1.82,1.82,0,0,1,1.67,3.24.85.85,0,0,1-.22.09Z" style="fill:#fff"/><path d="M1365.76,519.23l-2.24.86a1.84,1.84,0,1,1-1.49-3.36l.17-.07h0l2.23-.85h0a1.84,1.84,0,0,1,1.54,3.35l-.23.08Z" style="fill:#fff"/><path d="M1352.21,524.19l-2.28.77a1.83,1.83,0,0,1-2.34-1.15,1.85,1.85,0,0,1,1.14-2.35h0l2.25-.77h0a1.85,1.85,0,1,1,1.2,3.51Z" style="fill:#fff"/><path d="M1338.5,528.67l-2.3.71a1.85,1.85,0,0,1-2.32-1.23,1.87,1.87,0,0,1,1.23-2.33h0l2.28-.69h0a1.86,1.86,0,1,1,1.09,3.56Z" style="fill:#fff"/><path d="M1324.68,532.76l-2.32.65a1.88,1.88,0,0,1-1-3.62h0l2.29-.64h0a1.87,1.87,0,1,1,1,3.61Z" style="fill:#fff"/><path d="M1310.76,536.5l-2.32.59a1.88,1.88,0,0,1-.94-3.65h0l2.32-.58h0a1.88,1.88,0,0,1,.93,3.65Z" style="fill:#fff"/><path d="M1296.77,539.94l-2.33.54a1.9,1.9,0,0,1-.87-3.7h0l2.33-.54h0a1.9,1.9,0,0,1,.85,3.7Z" style="fill:#fff"/><path d="M1282.72,543.06l-2.35.5a1.91,1.91,0,0,1-.79-3.74h0l2.33-.49a1.91,1.91,0,0,1,1,3.69l-.2,0Z" style="fill:#fff"/><path d="M1268.62,546l-2.36.46a1.91,1.91,0,0,1-2.25-1.52,1.94,1.94,0,0,1,1.52-2.26h0l2.35-.45a1.92,1.92,0,1,1,.74,3.77Z" style="fill:#fff"/><path d="M1254.47,548.65l-2.35.41a1.94,1.94,0,0,1-.95-3.76l.27,0h0l2.36-.42a1.94,1.94,0,0,1,.68,3.81Z" style="fill:#fff"/><path d="M1240.28,551.06l-2.37.39a2,2,0,0,1-.62-3.85h0l2.36-.38a2,2,0,0,1,.89,3.8,1.17,1.17,0,0,1-.26,0Z" style="fill:#fff"/><path d="M1225.9,553.33l-2.38.35a2,2,0,0,1-1.89-2.1,2,2,0,0,1,1.32-1.78h0l2.37-.35a2,2,0,0,1,.57,3.88Z" style="fill:#fff"/><path d="M1211.38,555.37l-2.38.32a2,2,0,0,1-1.93-2.06,2,2,0,0,1,1.41-1.85h0l2.37-.31a2,2,0,0,1,.52,3.9Z" style="fill:#fff"/><path d="M1196.74,557.22l-2.38.28a2,2,0,0,1-2-2,2,2,0,0,1,1.51-1.93h0l2.38-.27a2,2,0,0,1,1,3.87,1.88,1.88,0,0,1-.58.06Z" style="fill:#fff"/><path d="M1182.44,558.83l-2.39.25a2,2,0,0,1-.41-4h0l2.37-.24a2,2,0,0,1,.42,4Z" style="fill:#fff"/><path d="M1168.12,560.24l-2.39.22a2,2,0,1,1-.36-4h0l2.38-.22a2,2,0,0,1,.36,4Z" style="fill:#fff"/><path d="M1153.77,561.46l-2.39.19a2,2,0,0,1-.31-4h0l2.38-.18a2,2,0,1,1,.31,4Z" style="fill:#fff"/><path d="M1139.42,562.49l-2.4.15a2,2,0,0,1-2.15-1.89,2,2,0,0,1,1.89-2.16h0l2.38-.15a2,2,0,1,1,.27,4Z" style="fill:#fff"/><path d="M1125.05,563.33l-2.4.12a2,2,0,0,1-.21-4.08h0l2.39-.12a2.05,2.05,0,0,1,2.15,1.94,2,2,0,0,1-1.94,2.14Z" style="fill:#fff"/><path d="M1110.67,564l-2.4.09a2.06,2.06,0,0,1-.15-4.11h0l2.39-.08a2.05,2.05,0,1,1,.16,4.1Z" style="fill:#fff"/><path d="M1096.28,564.41h-2.4a2.05,2.05,0,0,1-.09-4.1h2.39a2.05,2.05,0,1,1,.11,4.1Z" style="fill:#fff"/><path d="M1081.89,564.63h-2.4a2,2,0,0,1,0-4.07h2.39a2,2,0,1,1,0,4.07Z" style="fill:#fff"/><path d="M1067.49,564.65h-2.37a2,2,0,0,1,0-4h2.39a2,2,0,1,1,0,4Z" style="fill:#fff"/><path d="M1053.12,564.47l-2.39-.06a2,2,0,0,1,.09-4h2.38a2,2,0,1,1-.07,4Z" style="fill:#fff"/><path d="M1038.7,564.06l-2.4-.09a2,2,0,1,1,.16-4l2.38.09a2,2,0,1,1-.13,4Z" style="fill:#fff"/><path d="M1024.32,563.43l-2.4-.13a2,2,0,0,1,.22-4l2.38.13a2,2,0,1,1-.19,4Z" style="fill:#fff"/><path d="M1010,562.57l-2.4-.17a2,2,0,0,1,.28-3.94l2.38.16a2,2,0,0,1-.26,4Z" style="fill:#fff"/><path d="M995.59,561.46l-2.39-.21a2,2,0,0,1,.34-3.92l2.38.21a2,2,0,1,1,.41,4,1.8,1.8,0,0,1-.73-.06Z" style="fill:#fff"/><path d="M981.25,560.06l-2.39-.25a2,2,0,0,1,.42-3.89h0l2.37.25h0a2,2,0,0,1,1.28,2.53,2,2,0,0,1-1.69,1.36Z" style="fill:#fff"/><path d="M966.94,558.45l-2.38-.3a1.94,1.94,0,1,1,.44-3.85h0l2.37.29h0a1.94,1.94,0,1,1-.48,3.86Z" style="fill:#fff"/><path d="M952.66,556.52l-2.38-.35a1.93,1.93,0,0,1,.57-3.82h0l2.37.35h0a1.93,1.93,0,0,1-.56,3.82Z" style="fill:#fff"/><path d="M938.43,554.28l-2.37-.4a1.92,1.92,0,1,1,.43-3.81l.21,0h0l2.35.39h0a1.92,1.92,0,1,1-.42,3.82l-.22,0Z" style="fill:#fff"/><path d="M924.24,551.71l-2.35-.46a1.91,1.91,0,0,1,.47-3.79l.26,0h0L925,548h0a1.9,1.9,0,0,1-.72,3.74h0Z" style="fill:#fff"/><path d="M910.12,548.79l-2.35-.52a1.9,1.9,0,0,1,.83-3.7h0l2.33.52h0a1.89,1.89,0,1,1-.82,3.7Z" style="fill:#fff"/><path d="M896.12,545.49l-2.33-.6a1.86,1.86,0,0,1-1.36-2.26v0a1.9,1.9,0,0,1,2.29-1.37h0l2.32.58h0a1.89,1.89,0,0,1-.71,3.72l-.21-.06Z" style="fill:#fff"/><path d="M882.12,541.76l-2.32-.66a1.87,1.87,0,0,1-1.2-2.35,1.89,1.89,0,0,1,2.2-1.25h0l2.3.66h0a1.87,1.87,0,0,1-1,3.6Z" style="fill:#fff"/><path d="M868.34,537.58l-2.29-.74a1.86,1.86,0,0,1,1.15-3.54h0l2.27.73h0a1.86,1.86,0,1,1-1.14,3.55Z" style="fill:#fff"/><path d="M854.68,532.91l-2.25-.83a1.85,1.85,0,0,1,1.09-3.53l.18.06h0l2.24.81h0a1.85,1.85,0,0,1-1.09,3.54l-.18-.07Z" style="fill:#fff"/><path d="M841.22,527.69l-2.22-.93a1.84,1.84,0,0,1,1.41-3.39h0l2.2.91h0a1.84,1.84,0,0,1-1.18,3.49l-.23-.1Z" style="fill:#fff"/><path d="M828,521.86l-2.18-1a1.81,1.81,0,0,1,1.56-3.27h0l2.15,1h0a1.82,1.82,0,0,1-1.55,3.29Z" style="fill:#fff"/><path d="M815.12,515.35,813,514.19a1.78,1.78,0,0,1,1.7-3.12h0l2.09,1.12h0a1.78,1.78,0,1,1-1.69,3.14h0Z" style="fill:#fff"/><path d="M802.56,508.06l-2-1.28a1.76,1.76,0,0,1,1.85-3h0l2,1.25h0a1.76,1.76,0,1,1-1.85,3Z" style="fill:#fff"/><path d="M790.52,500.06l-2-1.43a1.71,1.71,0,1,1,1.71-3,1.94,1.94,0,0,1,.29.21h0l1.92,1.39h0a1.71,1.71,0,0,1-1.87,2.86.38.38,0,0,1-.13-.09Z" style="fill:#fff"/><path d="M779.12,491.14l-1.83-1.58a1.67,1.67,0,0,1,2.17-2.53h0l1.81,1.53h0a1.67,1.67,0,1,1-2.17,2.55h0Z" style="fill:#fff"/><path d="M768.44,481.29l-1.69-1.74a1.64,1.64,0,0,1,2.35-2.28h0l1.66,1.69h0a1.64,1.64,0,1,1-2.35,2.3Z" style="fill:#fff"/><path d="M758.75,470.47l-1.51-1.89a1.59,1.59,0,0,1,.26-2.24h0a1.58,1.58,0,0,1,2.22.24l0,0h0l1.48,1.85h0a1.61,1.61,0,0,1-2.51,2Z" style="fill:#fff"/><path d="M750.22,458.71l-1.29-2a1.56,1.56,0,0,1,2.64-1.67h0l1.28,2h0a1.57,1.57,0,1,1-2.54,1.85c0-.05-.07-.1-.1-.16Z" style="fill:#fff"/><path d="M743.06,446.06l-1-2.19a1.53,1.53,0,0,1,2.75-1.32h0l1,2.13h0A1.53,1.53,0,1,1,743,446h0Z" style="fill:#fff"/><path d="M737.41,432.66l-.78-2.29a1.5,1.5,0,0,1,2.82-1h0l.77,2.24h0a1.5,1.5,0,0,1-.9,1.91h0a1.51,1.51,0,0,1-1.91-.92Z" style="fill:#fff"/><path d="M733.38,418.7l-.52-2.36a1.46,1.46,0,0,1,2.82-.75l0,.13h0l.52,2.31h0a1.46,1.46,0,1,1-2.83.72s0-.06,0-.09Z" style="fill:#fff"/><path d="M731,404.39,730.7,402a1.42,1.42,0,1,1,2.8-.45.88.88,0,0,1,0,.16h0l.25,2.35h0a1.43,1.43,0,0,1-2.84.32Z" style="fill:#fff"/><path d="M730.06,389.91V387.5a1.39,1.39,0,0,1,2.77-.23.88.88,0,0,1,0,.23h0v2.37h0a1.39,1.39,0,1,1-2.78,0Z" style="fill:#fff"/><path d="M730.57,375.44l.21-2.41a1.35,1.35,0,0,1,1.45-1.22h0a1.35,1.35,0,0,1,1.23,1.46h0l-.2,2.37h0a1.35,1.35,0,1,1-2.7-.23h0Z" style="fill:#fff"/><path d="M732.33,361.06l.4-2.37a1.31,1.31,0,0,1,1.57-1,1.3,1.3,0,0,1,1,1.41h0l-.38,2.35h0a1.31,1.31,0,0,1-2.59-.43Z" style="fill:#fff"/><path d="M735.19,346.91l.57-2.34a1.24,1.24,0,1,1,2.42.58h0l-.54,2.32h0a1.25,1.25,0,1,1-2.44-.57Z" style="fill:#fff"/><path d="M739,333l.72-2.3a1.18,1.18,0,0,1,2.25.69h0l-.69,2.28h0A1.18,1.18,0,1,1,739,333h0Z" style="fill:#fff"/><path d="M743.6,319.3l.84-2.25a1.11,1.11,0,1,1,2.09.77h0l-.81,2.24h0a1.12,1.12,0,0,1-2.11-.76h0Z" style="fill:#fff"/><path d="M748.9,305.9l.94-2.21a1.06,1.06,0,0,1,1.38-.56,1,1,0,0,1,.56,1.37h0l-.91,2.2h0a1,1,0,0,1-1.27.62l-.11-.05a1.06,1.06,0,0,1-.58-1.38h0Z" style="fill:#fff"/><path d="M754.79,292.75l1-2.17a1,1,0,0,1,1.78.85h0l-1,2.17h0a1,1,0,0,1-1.36.4,1,1,0,0,1-.45-1.24Z" style="fill:#fff"/><path d="M761.21,279.86l1.11-2.13a.93.93,0,0,1,1.64.86l-1.09,2.12a.92.92,0,0,1-1.25.42.94.94,0,0,1-.42-1.26Z" style="fill:#fff"/><path d="M768.12,267.2l1.18-2.08a.87.87,0,0,1,1.18-.32.85.85,0,0,1,.32,1.17l-1.16,2.08a.85.85,0,0,1-1.16.36h0a.86.86,0,0,1-.35-1.17v0Z" style="fill:#fff"/><path d="M775.34,254.78l1.25-2.05a.82.82,0,0,1,1.1-.27.8.8,0,0,1,.27,1.1l-1.23,2.05a.81.81,0,0,1-1.08.39.82.82,0,0,1-.38-1.08.54.54,0,0,1,.07-.13Z" style="fill:#fff"/><path d="M783,242.58l1.3-2a.75.75,0,0,1,1-.14.73.73,0,0,1,.2.94l-1.28,2a.73.73,0,0,1-1.23-.77Z" style="fill:#fff"/><path d="M790.89,230.58l1.35-2a.67.67,0,0,1,.94-.15.65.65,0,0,1,.17.9l-1.33,2a.68.68,0,0,1-1.14-.73v0Z" style="fill:#fff"/><path d="M799.12,218.77l1.39-2a.62.62,0,0,1,.85-.14.6.6,0,0,1,.14.84h0l-1.37,2a.61.61,0,0,1-1-.68v-.07Z" style="fill:#fff"/><polygon points="800.61 186.49 808.87 206.87 819.12 192.5 800.61 186.49" style="fill:#4aa4c2"/><path d="M887.49,137.64,852,208.21a5.47,5.47,0,0,1-3.32,2.82,5.59,5.59,0,0,1-4.33-.44l-69.52-38.27a2.23,2.23,0,0,1,.49-4.1Z" style="fill:#73d0d9"/><polygon points="800.62 186.49 887.49 137.65 811.82 192.69 813.87 198.44 800.62 186.49" style="fill:#4aa4c2"/><polygon points="818.48 196.32 808.87 206.87 811.82 192.69 818.48 196.32" style="fill:#4aa4c2"/></g></svg>