<svg id="b11145c1-2d16-4a2f-95ed-043b557d7c94" data-name="Layer 1" xmlns="http://www.w3.org/2000/svg" xmlns:xlink="http://www.w3.org/1999/xlink" viewBox="0 0 2106.84 1445.8"><defs><style>.ad4baa4f-614c-4b75-864e-f43314ec697f{fill:#b5e3df;}.b377ac2e-30f3-4408-936b-fb22cc47caab{fill:#73d0d9;}.af3560f9-8972-44a2-a2d7-3b0d08d1987f,.af909290-80b3-4db6-a44d-eb8a70ed1525{fill:#fff;}.b50910e4-0051-44c0-b5d6-fcc79c9f3aae{fill:#66c2ab;}.ae07fade-adf6-4e70-bb77-485962d1a2c9{fill:url(#be86dc35-c2ab-447d-a4e5-b72a1de2a9d2);}.ff9ef93e-a632-44f6-9e9a-10318977468b{fill:#2d6375;}.a6039ef7-f6d9-44ae-8426-e085ef70e6cd{opacity:0.68;}.aa5dce65-1b6c-481e-958c-8e13e363d44b{fill:#5ecff5;}.b17f2d06-2cc9-41cb-b833-0d4f49a2c5b4{fill:#071841;}.a79438fd-6a1f-4b0f-b5f8-7db0216c761a,.b24a5365-4cbb-4511-8f8a-84b33a86498c,.eb8909a7-d8c6-43a9-8e26-530c3c9735b0{fill:#edf8f1;}.aae86b99-d4fa-470a-bcd9-0d1ab5ed2223{fill:#061e43;}.afd18e62-6bad-47c8-8eeb-702316853850{fill:#41b3a7;}.ba01f3c1-2c4b-4d75-bf87-105437a8b4f8{fill:#f9d8c7;}.ad22ed50-77f2-4487-9a0d-16b0da7225fc{fill:#fca372;}.a6ea17ad-8a06-4358-8444-6548a3ef8a39{fill:#ffd131;}.faec54b4-bdc4-4b17-9082-510f1c7abe5f{fill:#91b3fa;}.af3560f9-8972-44a2-a2d7-3b0d08d1987f{opacity:0.59;}.a79438fd-6a1f-4b0f-b5f8-7db0216c761a,.af3560f9-8972-44a2-a2d7-3b0d08d1987f,.b24a5365-4cbb-4511-8f8a-84b33a86498c{isolation:isolate;}.b24a5365-4cbb-4511-8f8a-84b33a86498c{opacity:0.73;}.bb0faf3e-b408-4fc8-b3d4-f7ac2ae3c7f5{fill:#4aa4c2;}.a8602da1-d66a-45dd-8974-6cf7ed038dee{fill:#af6641;}.a79438fd-6a1f-4b0f-b5f8-7db0216c761a{opacity:0.87;}.a2a7ae58-f96a-48bc-8e12-c91c396578b5{fill:#3d6e73;}.f047517a-1df7-4177-a39a-b1e6ed5f8124{fill:#efd0b1;}</style><linearGradient id="be86dc35-c2ab-447d-a4e5-b72a1de2a9d2" x1="1229.6" y1="770.3" x2="1634.14" y2="770.3" gradientTransform="matrix(1, 0, 0, -1, 0, 1446.69)" gradientUnits="userSpaceOnUse"><stop offset="0" stop-color="#dae3fe"/><stop offset="1" stop-color="#e9effd"/></linearGradient></defs><g id="a8a76315-2503-4d63-b3b6-47c5ac700865" data-name="fa7ee624-4fed-4eca-bb2a-8c02070bf5da"><path class="ad4baa4f-614c-4b75-864e-f43314ec697f" d="M2073.8,785.47a104.8,104.8,0,0,0-22.69-36.62c-30.46-31.5-83.83-36.34-110.45-71.06-25-32.52-19.38-95.15-23.21-134.93-9.49-98.34-9.77-200.53-60.61-288.19C1759,86,1530.64,43.12,1363.34,78.46c-174.11,36.79-323.83,156.41-500.93,182.29-72.68,10.59-150.09,3.83-216.8-31.27-89-46.83-160.39-117.64-265-113.45C211.86,122.79,80.08,183,42.53,375.81,16.51,509.7,57,593.34,116.16,706.6c38.43,73.51,40.71,165.26,17.75,244.61-10.35,35.78-22.4,60.6-23,100-1.33,85.53,18.06,138.25,73,200.23,47.59,53.65,109.4,96.32,175.11,123.21,118.6,48.55,251.36,53.27,377.2,30.59,159.2-28.69,312.09-99.83,473.77-99.83,146.09,0,285.61,58.19,429.65,83.11,73.26,12.67,165.45,18.1,226.52-33.56,48.75-41.24,25.28-117,51-170.1,28.37-58.66,80.82-100.71,114.75-155.64,25.21-40.82,39.51-87.89,47.27-135.5C2085,857.93,2086.15,818.41,2073.8,785.47Z"/><path class="b377ac2e-30f3-4408-936b-fb22cc47caab" d="M2039,671c-26.36,113.39-211,766.56-953.25,697.53,0,0-6.89-462.36,938.47-709.41C2032.45,657,2040.68,663.63,2039,671Z"/><path class="af909290-80b3-4db6-a44d-eb8a70ed1525" d="M1938.88,745.64c-24.21,32.73-49.75,64.33-75.87,95.49s-53.09,61.55-80.71,91.38a2346.39,2346.39,0,0,1-174.43,170.35q-46,40-94.35,77.36-48.63,36.9-99.78,70.33c-34.35,21.85-69.56,42.39-105.81,61A1031,1031,0,0,1,1195.66,1360a4.11,4.11,0,1,1-2.79-7.74h.06a1023.44,1023.44,0,0,0,111.53-47.49c36.08-18.34,71.18-38.58,105.46-60.16q51.07-32.91,99.67-69.53,48.33-36.87,94.41-76.64a2341.65,2341.65,0,0,0,174.89-169.1q41.56-44.46,81-90.84c26.2-31,51.89-62.43,76.14-94.9h0a1.75,1.75,0,0,1,2.81,2.08h0Z"/><path class="b50910e4-0051-44c0-b5d6-fcc79c9f3aae" d="M1688,55.7c43.14,128,259.25,881.33-517.48,1174.58,0,0-289.12-465.92,495.6-1179.41C1673,44.63,1685.23,47.34,1688,55.7Z"/><path class="ae07fade-adf6-4e70-bb77-485962d1a2c9" d="M1634.14,180.17c-1.63,22.75-4,45.37-6.66,68s-5.71,45.17-9.07,67.69q-10,67.56-24,134.45c-18.6,89.13-42.16,177.32-72.35,263.31s-67,169.83-113.45,248.41A954.68,954.68,0,0,1,1331,1074.72c-14.39,17.73-29.35,35-45.22,51.49s-32.5,32.18-49.83,47.12a3.82,3.82,0,1,1-5-5.78h0q25.77-22,49.48-46.4c15.78-16.23,30.67-33.32,45-50.84a948.72,948.72,0,0,0,77.52-111.58c46.52-77.92,83.49-161.35,114-246.88s54.3-173.5,73.23-262.4q14.11-66.69,24.48-134.12,5.16-33.69,9.32-67.54c2.72-22.55,5.2-45.17,6.92-67.78h0a1.61,1.61,0,0,1,3.22.24h0Z"/><path class="b377ac2e-30f3-4408-936b-fb22cc47caab" d="M805.91,997.46S612.39,410.21,184.61,139.88a9.06,9.06,0,0,0-13.85,6.37C156.41,249.46,93.78,904.72,805.91,997.46Z"/><path class="af909290-80b3-4db6-a44d-eb8a70ed1525" d="M248.06,307.58c14.32,32.94,30,65.44,46.92,97.21q25,47.85,52.81,94.1c18.59,30.78,37.84,61.17,58.21,90.77s41.28,58.84,63.53,87,45,56,69.19,82.53c3,3.34,5.94,6.73,9,10L557,779c6.19,6.5,12.21,13.16,18.55,19.52l19,19.07,4.73,4.79,4.88,4.63,9.77,9.28c12.83,12.57,26.5,24.21,39.81,36.28,6.76,5.91,13.73,11.57,20.59,17.37l10.33,8.65c3.47,2.85,7.08,5.53,10.58,8.34l21.19,16.68,21.78,15.9,10.91,7.94L760.28,955l22.33,15.25.06,0a2.53,2.53,0,1,1-2.7,4.28A1007.81,1007.81,0,0,1,604.91,846l-10.08-9.16-5-4.58-4.91-4.72-19.51-19c-6.49-6.34-12.67-13-19-19.48l-9.52-9.74c-3.11-3.3-6.14-6.68-9.21-10-24.75-26.57-47.89-54.57-70.4-83a1513.87,1513.87,0,0,1-121-180.65q-27-47.16-50.5-96.23Q274.07,385,263.35,360c-7.17-16.63-14-33.37-20.07-50.52a2.53,2.53,0,0,1,4.71-1.86h.07Z"/><path class="b50910e4-0051-44c0-b5d6-fcc79c9f3aae" d="M924.34,1354.8s-394.44-555.53-772.73-534a10.42,10.42,0,0,0-9.39,13.39C164.48,909.18,309.33,1299.46,924.34,1354.8Z"/><path class="af909290-80b3-4db6-a44d-eb8a70ed1525" d="M243.46,902c24.94,21.61,50.71,42.39,76.64,62.88,13,10.19,26,20.38,39.17,30.43s26.33,20,39.65,29.77,26.68,19.54,40.12,29.16l40.57,28.52c27.34,18.6,54.67,37.21,82.51,55,27.53,18.32,55.89,35.33,83.93,52.84l42.76,25.11c7.14,4.15,14.23,8.41,21.42,12.49l21.71,12c14.5,7.94,28.91,16,43.47,23.86l44.1,22.68c7.35,3.77,14.64,7.67,22,11.34l22.37,10.69,44.74,21.38h.06a2.42,2.42,0,1,1-2.06,4.39h0c-60.2-27.66-120-56.29-177.77-88.9l-21.8-11.93c-7.22-4.06-14.34-8.3-21.51-12.44l-43-25c-28.17-17.45-56.65-34.4-84.31-52.66Q474.74,1089.67,395,1030.11c-13.32-9.84-26.41-20-39.63-30s-26.12-20.38-39.13-30.64c-25.79-20.81-51.31-41.91-76.17-63.92a2.42,2.42,0,1,1,3.19-3.65h0Z"/><ellipse class="ff9ef93e-a632-44f6-9e9a-10318977468b" cx="1066.24" cy="788.78" rx="590.29" ry="637.16" transform="translate(231.52 1819.46) rotate(-87.49)"/><g class="a6039ef7-f6d9-44ae-8426-e085ef70e6cd"><path class="af909290-80b3-4db6-a44d-eb8a70ed1525" d="M1229.11,791.68c-.15,104.12-7.3,208.44-25.64,311.08-4.66,25.64-10,51.15-16.45,76.42a735.64,735.64,0,0,1-23,74.8c-9.17,24.42-19.82,48.49-34.26,70.49-7.27,10.92-15.53,21.38-25.71,30a73,73,0,0,1-16.83,10.84,50.29,50.29,0,0,1-19.65,4.63,49.43,49.43,0,0,1-19.86-3.65,67.89,67.89,0,0,1-17.22-10.25c-10.43-8.34-18.87-18.69-26.27-29.52-14.7-21.84-25.49-45.86-34.76-70.25a716.37,716.37,0,0,1-23.2-74.71c-6.48-25.26-11.92-50.76-16.61-76.39-9.34-51.27-15.72-103-20-155s-6.41-104-6.67-156.08c-.13-26,.58-52.08,1.5-78.1s2.41-52,4.33-78c3.85-51.93,9.6-103.74,18.16-155.13,4.29-25.69,9.29-51.27,15.31-76.62A734.32,734.32,0,0,1,964,331.15c4.37-12.28,9.15-24.44,14.6-36.31a264.78,264.78,0,0,1,18.7-34.45c7.17-10.93,15.42-21.36,25.69-29.71a65.77,65.77,0,0,1,17-10.18,48.19,48.19,0,0,1,19.54-3.47,52.14,52.14,0,0,1,19.3,4.52,76.19,76.19,0,0,1,16.76,10.52c10.25,8.33,18.73,18.51,26.25,29.2,15,21.52,26.23,45.27,36,69.42a717.09,717.09,0,0,1,24.67,74.18c7,25.12,12.83,50.52,17.92,76.07C1220.61,583.22,1228.8,687.56,1229.11,791.68Zm-7.71,0c.1-51.87-1.87-103.76-6.19-155.46S1204.53,533,1194.93,482c-4.79-25.49-10.37-50.82-17-75.88a710.82,710.82,0,0,0-23.71-74c-9.43-24.08-20.36-47.74-34.87-69.11-7.29-10.62-15.52-20.7-25.39-28.9a74.22,74.22,0,0,0-16.09-10.29,48.59,48.59,0,0,0-18.38-4.48,45.26,45.26,0,0,0-18.53,3.49,63.13,63.13,0,0,0-16.22,10c-9.85,8.19-17.83,18.49-24.77,29.32a259,259,0,0,0-18.1,34.18c-5.26,11.81-9.87,23.92-14.08,36.16A727.07,727.07,0,0,0,947,407.34c-5.72,25.29-10.42,50.81-14.41,76.43-8,51.27-13.13,103-16.41,154.74s-4.44,103.69-4.34,155.57q-.23,77.82,5.44,155.5c3.88,51.72,9.84,103.32,18.75,154.4,4.46,25.54,9.68,51,15.93,76.09a715.65,715.65,0,0,0,22.44,74.32c9,24.21,19.5,48,33.7,69.49,7.14,10.63,15.27,20.72,25.13,28.72a64.8,64.8,0,0,0,16.08,9.76,44.34,44.34,0,0,0,18.18,3.45,46.2,46.2,0,0,0,18-4.4,68.91,68.91,0,0,0,15.75-10.34c9.64-8.28,17.6-18.49,24.62-29.22,14-21.63,24.31-45.5,33.19-69.75a726.38,726.38,0,0,0,22.19-74.4c6.18-25.16,11.33-50.58,15.75-76.13,8.85-51.09,14.72-102.69,18.63-154.42S1221.42,843.57,1221.4,791.68Z"/><path class="af909290-80b3-4db6-a44d-eb8a70ed1525" d="M1491.75,791.68c-.36,67-9,134.12-26.94,198.78C1446.55,1055,1419,1117,1381.65,1172.74a523.86,523.86,0,0,1-63.52,77.78,444.77,444.77,0,0,1-78.19,63,376.67,376.67,0,0,1-91.23,41.71,341.13,341.13,0,0,1-198.37.09,377.1,377.1,0,0,1-91.3-41.65,446.07,446.07,0,0,1-78.3-62.9A524.69,524.69,0,0,1,717.1,1173c-37.45-55.72-65-117.8-83.38-182.34a723.87,723.87,0,0,1-20.19-98.55,740.86,740.86,0,0,1,.08-200.77,721.08,721.08,0,0,1,20.26-98.53c18.39-64.51,46-126.55,83.49-182.21A525.06,525.06,0,0,1,781,332.92a444.52,444.52,0,0,1,78.27-62.79,378.59,378.59,0,0,1,91.23-41.49,338.8,338.8,0,0,1,198.07.08,379.07,379.07,0,0,1,91.16,41.56,444.41,444.41,0,0,1,78.16,62.84,525.06,525.06,0,0,1,63.53,77.7c37.4,55.65,65,117.67,83.27,182.15C1482.67,657.58,1491.34,724.64,1491.75,791.68Zm-8.83,0c-.1-66.28-8.36-132.63-25.85-196.62s-44.06-125.56-80.52-181a520.08,520.08,0,0,0-62.08-77.55,435.28,435.28,0,0,0-76.79-63,371,371,0,0,0-90.07-41.63,330.29,330.29,0,0,0-196.09.08,370.62,370.62,0,0,0-90,41.71c-28,17.84-53.54,39.3-76.69,63a519.59,519.59,0,0,0-62,77.57c-36.38,55.46-62.8,117.11-80.3,181a727.11,727.11,0,0,0-19.31,97.39,757.24,757.24,0,0,0,.07,198.16,724.66,724.66,0,0,0,19.37,97.36c17.55,63.83,44,125.44,80.42,180.84a517.85,517.85,0,0,0,62,77.48c23.15,23.68,48.7,45.12,76.67,62.9a371.64,371.64,0,0,0,89.92,41.56,328,328,0,0,0,195.78.09,372.49,372.49,0,0,0,90-41.49c28-17.77,53.59-39.19,76.77-62.86a519.54,519.54,0,0,0,62.09-77.46c36.48-55.41,63-117,80.63-180.91S1482.77,858,1482.92,791.68Z"/><path class="af909290-80b3-4db6-a44d-eb8a70ed1525" d="M533.54,562.86l132.79-1.07,132.79-.61,265.61-.49,265.6.54,132.8.66,132.79,1.16a.4.4,0,0,1,.39.39h0a.38.38,0,0,1-.37.39h0L1463.13,565l-132.8.66-265.6.54-265.6-.49-132.8-.6L533.54,564a.57.57,0,0,1-.58-.58.59.59,0,0,1,.58-.58Z"/><path class="af909290-80b3-4db6-a44d-eb8a70ed1525" d="M687.61,340.43c31.43-.49,62.85-.71,94.28-1.07l94.28-.61c31.43-.26,62.86-.23,94.29-.31l94.28-.18,188.57.54,94.28.67c31.43.39,62.85.62,94.28,1.16a.4.4,0,0,1,.39.39h0a.4.4,0,0,1-.39.39c-31.43.53-62.85.76-94.28,1.15l-94.28.67-188.57.54-94.28-.18c-31.43-.08-62.86,0-94.29-.31l-94.28-.61c-31.43-.36-62.85-.58-94.28-1.07a.57.57,0,0,1-.51-.66.59.59,0,0,1,.51-.51Z"/><path class="af909290-80b3-4db6-a44d-eb8a70ed1525" d="M487.39,785.34l144.33-1.07,144.34-.61,288.67-.49,288.67.54,144.34.66,144.33,1.16a.4.4,0,0,1,.39.39.39.39,0,0,1-.39.39l-144.33,1.15-144.34.67-288.67.54-288.67-.49-144.34-.61L487.39,786.5a.58.58,0,1,1,0-1.16Z"/><path class="af909290-80b3-4db6-a44d-eb8a70ed1525" d="M533.54,1007.71l132.79-1.07,132.79-.61,265.61-.49,265.6.54,132.8.67,132.79,1.15a.41.41,0,0,1,.39.4.38.38,0,0,1-.38.38h0l-132.79,1.16-132.8.67-265.6.54-265.6-.49-132.8-.61-132.79-1.08a.57.57,0,0,1-.58-.58A.59.59,0,0,1,533.54,1007.71Z"/><path class="af909290-80b3-4db6-a44d-eb8a70ed1525" d="M1460.86,1232.76H706.61a2,2,0,1,1,0-4.08h754.26a2,2,0,1,1,0,4.08Z"/></g><path class="b377ac2e-30f3-4408-936b-fb22cc47caab" d="M1386.43,507.52l-7.41-6.28a42.07,42.07,0,0,0-.31-13.71l7.12-6.6a.76.76,0,0,0,.19-.91l-4.7-10.66a.79.79,0,0,0-.8-.47l-9.68.81a42.11,42.11,0,0,0-9.92-9.47l.37-9.71a.79.79,0,0,0-.51-.78l-10.86-4.21a.81.81,0,0,0-.9.23l-6.28,7.41a42.56,42.56,0,0,0-13.7.31l-6.61-7.12a.78.78,0,0,0-.9-.19l-10.67,4.7a.8.8,0,0,0-.47.8l.81,9.68a42.49,42.49,0,0,0-9.47,9.92l-9.71-.37a.81.81,0,0,0-.78.51L1287,482.27a.82.82,0,0,0,.23.9l7.42,6.27a42.62,42.62,0,0,0,.3,13.71l-7.12,6.61a.82.82,0,0,0-.19.9l4.71,10.67a.77.77,0,0,0,.79.47l9.69-.81a41.71,41.71,0,0,0,9.92,9.47l-.37,9.71a.78.78,0,0,0,.51.78l10.86,4.21a.81.81,0,0,0,.9-.23l6.28-7.42a42.07,42.07,0,0,0,13.71-.3l6.6,7.12a.78.78,0,0,0,.9.19l10.67-4.71a.78.78,0,0,0,.47-.79l-.81-9.68a42.3,42.3,0,0,0,9.47-9.92l9.7.37a.8.8,0,0,0,.79-.51l4.2-10.86A.78.78,0,0,0,1386.43,507.52Z"/><path class="af909290-80b3-4db6-a44d-eb8a70ed1525" d="M1336.87,506.64a11.3,11.3,0,1,1,6.93-2.38A11.29,11.29,0,0,1,1336.87,506.64Zm0-20.69a9.31,9.31,0,0,0-5.76,2,9.39,9.39,0,1,0,5.76-2Z"/><path class="aa5dce65-1b6c-481e-958c-8e13e363d44b" d="M1766.61,767.07a.84.84,0,0,1-.57-.19,1,1,0,0,1-.2-1.34c.77-1,1.58-2.06,2.41-3a1,1,0,0,1,1.38.28,1,1,0,0,1,.09,1q-1.21,1.5-2.34,3A1,1,0,0,1,1766.61,767.07Z"/><path class="aa5dce65-1b6c-481e-958c-8e13e363d44b" d="M1876,784.2a1,1,0,0,1-.9-.65,61.92,61.92,0,0,0-2.66-6.55,1,1,0,0,1,.46-1.28,1,1,0,0,1,1.27.45,67.09,67.09,0,0,1,2.75,6.77,1,1,0,0,1-.6,1.21A.7.7,0,0,1,1876,784.2Zm-8.66-16.69a1,1,0,0,1-.79-.39c-.39-.55-.81-1.09-1.22-1.63-1-1.32-2.13-2.61-3.26-3.84a1,1,0,0,1,.45-1.33,1,1,0,0,1,1,0c1.17,1.27,2.3,2.6,3.37,4,.43.55.86,1.11,1.27,1.67a1,1,0,0,1-.21,1.34A.88.88,0,0,1,1867.35,767.51Zm-90-11.62a.89.89,0,0,1-.74-.36.93.93,0,0,1,.12-1.32l0,0,1.06-.86c1.56-1.21,3.19-2.36,4.83-3.42a1,1,0,0,1,1.33.28,1,1,0,0,1-.29,1.33,54,54,0,0,0-4.7,3.32l-1,.83A.82.82,0,0,1,1777.35,755.89Zm76.77-1.75a.88.88,0,0,1-.58-.19,60.58,60.58,0,0,0-5.9-3.88,1,1,0,0,1-.36-1.31,1,1,0,0,1,1.32-.35,64.5,64.5,0,0,1,6.09,4,1,1,0,0,1,.2,1.34A1,1,0,0,1,1854.12,754.14Zm-60.58-7.8a1,1,0,0,1-.83-1.14,1,1,0,0,1,.47-.7,63.91,63.91,0,0,1,6.92-2.33,1,1,0,0,1,1,1,1,1,0,0,1-.47.82,62,62,0,0,0-6.7,2.25A.92.92,0,0,1,1793.54,746.34Zm44-1a.86.86,0,0,1-.32,0,64.56,64.56,0,0,0-6.8-2,1,1,0,0,1-.73-1.14,1,1,0,0,1,1.15-.73,68.83,68.83,0,0,1,7,2,1,1,0,0,1,.59,1.22,1,1,0,0,1-.91.65ZM1811.87,742a1,1,0,0,1-.72-1.22,1,1,0,0,1,.64-.69c1.66-.13,3.35-.19,5-.19h2.27a1,1,0,1,1-.08,1.92h-2.22c-1.61,0-3.25.06-4.86.19Z"/><path class="aa5dce65-1b6c-481e-958c-8e13e363d44b" d="M1879.14,799.39a1,1,0,0,1-1-.88c-.11-1.25-.23-2.51-.4-3.74a1,1,0,0,1,1.8-.86,1,1,0,0,1,.09.59c.17,1.27.32,2.57.41,3.86a1,1,0,0,1-.87,1Z"/><path class="af909290-80b3-4db6-a44d-eb8a70ed1525" d="M1336.66,524.34a29.08,29.08,0,1,1,26.56-40.81q.43,1,.78,2a30.46,30.46,0,0,1,1,3.47,2.46,2.46,0,0,0,.1.47v.2a1,1,0,0,1-.76.93.94.94,0,0,1-1.13-.71v0a28.09,28.09,0,0,0-1.77-5.51h0a27.22,27.22,0,0,0-28.6-16,27.64,27.64,0,0,0-6.69,1.83l-.27.12-.26.11a27.17,27.17,0,1,0,33.14,40.56,1,1,0,0,1,1.9.62,1,1,0,0,1-.34.48A29.07,29.07,0,0,1,1336.66,524.34Z"/><path class="b17f2d06-2cc9-41cb-b833-0d4f49a2c5b4" d="M356.88,430.83,468.8,712.34A33.32,33.32,0,0,0,504.53,733L798,712.44,692.3,412a18.7,18.7,0,0,0-17.91-12c-51.45,1.18-238.86,5.81-305.9,11.78a13.88,13.88,0,0,0-12.58,15.08A13.66,13.66,0,0,0,356.88,430.83Z"/><path class="eb8909a7-d8c6-43a9-8e26-530c3c9735b0" d="M494.61,720.2l-111.82-284a8.87,8.87,0,0,1,8-12.1l276.37-10.49a16.79,16.79,0,0,1,16.24,10.63L784.7,701.09Z"/><path class="b17f2d06-2cc9-41cb-b833-0d4f49a2c5b4" d="M897.8,723.82a9.5,9.5,0,0,1-9.5,9.5h-386a14.44,14.44,0,0,1-14.43-14.43h0l-6.07-7,400.81-3.48a15.43,15.43,0,0,1,15.22,15.42Z"/><path class="aae86b99-d4fa-470a-bcd9-0d1ab5ed2223" d="M742.7,460.16c-8.4-13.88-23.06-23-31.9-36.6-11.14-17.13-11.52-39.82-4.22-58.91,6-15.83,16.84-29.51,23-45.3,8.31-21.25,8.47-30.4,4.68-51.73-3.33-18.8-10.64-38.82-28.68-49.59-22.31-13.34-49.61-15.87-75.15-11-26.51,5-52.22,16.27-71.61,35s-32,45.07-31.72,72c.22,18.26,6.09,37.07.24,54.36a42.74,42.74,0,0,1-30.19,27.41c-15.37,3.59-31.33-1.66-47.11-1.46A68.63,68.63,0,0,0,407,410.5c-10.57,9-18.41,21.5-20.19,35.24s3,28.51,13.56,37.48c7.22,6.13,17.38,10.28,20,19.37,3,10.17-5.77,20.38-15.53,24.51s-20.75,4.49-30.68,8.19c-22.22,8.27-35.69,33.31-34,57s16.69,45.05,36.32,58.37,43.43,19.29,67.06,21.22,47.39,0,71.07-1.08c27.1-1.27,54.73-1.63,80.42-10.32,26-8.79,48.43-25.6,69.36-43.33,9.91-8.39,20-17.57,24.41-29.77,3.22-8.86,3.23-18.7,7-27.37,8-18.59,30.07-26.5,42.84-42.19C751.61,501.86,753.33,477.7,742.7,460.16Z"/><path class="afd18e62-6bad-47c8-8eeb-702316853850" d="M719.29,428.52C704,423.66,659.36,414.43,616.13,453a26.39,26.39,0,0,0-8,26.15c10.77,42.3,32.6,177.74,5.27,231.14,0,0,8.56-.07,103.69,1,0,0,24.41-99.11,55-142.3,21.13-29.82-31.1-113.75-44.31-134A15.84,15.84,0,0,0,719.29,428.52Z"/><path class="ba01f3c1-2c4b-4d75-bf87-105437a8b4f8" d="M678.18,344.17s-23.77,64-25.94,92.31a48.62,48.62,0,0,0,48.94-7.08s3.52-64.21,7.3-75.65Z"/><path class="ba01f3c1-2c4b-4d75-bf87-105437a8b4f8" d="M711.18,257s58.14,84.19,22.2,107.8-77.33-36.23-77.33-36.23-13.07-45.79,1.61-61S711.18,257,711.18,257Z"/><path class="aae86b99-d4fa-470a-bcd9-0d1ab5ed2223" d="M684,236.64s27.21,6.92,30.84,19.34-39.13,23.2-51.07,23.57l-10.4,49.79S625.68,282,637.34,255,684,236.64,684,236.64Z"/><path class="ba01f3c1-2c4b-4d75-bf87-105437a8b4f8" d="M667.67,322.61s-22.71-27.19-32.2-9.86,20.34,30.94,30.88,22.53Z"/><path class="ba01f3c1-2c4b-4d75-bf87-105437a8b4f8" d="M609.91,461.34s-73.62,59.21-93,141.42,104.69,93,104.69,93,17.15-18.55,37.07-11.51,2.08-32.84-21.34-33.11-12.87,18.42-45.77,2.88c-32-15.14-51.25-60.67,32.19-127.87a37.15,37.15,0,0,0,11.11-14.63C651.54,471.48,639.27,444.88,609.91,461.34Z"/><path class="ad22ed50-77f2-4487-9a0d-16b0da7225fc" d="M1355.35,939.86a4,4,0,0,1,7.32.78c3.56,12.8,12.17,35.13,30.22,43.06.91.4,1.77.8,2.6,1.21a9.13,9.13,0,0,0-1.13-8.3c-5.62-8.58,4.52-20.3,4.52-20.3s.67,10.32,8.52,16.82c6.75,5.6,10,18,5.38,28.27-9.77,38-24.41,88.17,32.6,124.85S1582.67,1057,1582.67,1057l-39.83,126.31s-61.51,45.39-133-18.44-24.12-156.68-24.12-156.68S1331.1,986.21,1355.35,939.86Z"/><path class="afd18e62-6bad-47c8-8eeb-702316853850" d="M1444.91,1125.67c-16.76-10.79-27.38-22.74-33.79-35.21-12.87,5.07-26.57,5.33-40.59,4.75,3.64,23.42,14.38,48.13,38.4,69.58,72.29,64.58,134.44,18.66,134.44,18.66l40.24-127.82S1502.51,1162.79,1444.91,1125.67Z"/><path class="b17f2d06-2cc9-41cb-b833-0d4f49a2c5b4" d="M1919.9,1068.08l-115.61,290.75a34.45,34.45,0,0,1-36.91,21.37l-303.17-22.38,109.19-309.19a19.33,19.33,0,0,1,18.5-12.45c53.15,1.23,246.75,6,316,12.17a14.35,14.35,0,0,1,12,19.73Z"/><path class="eb8909a7-d8c6-43a9-8e26-530c3c9735b0" d="M1777.61,1367l115.5-293.36a9.17,9.17,0,0,0-8.32-12.5l-285.5-10.8a17.33,17.33,0,0,0-16.77,11l-104.56,286Z"/><path class="b17f2d06-2cc9-41cb-b833-0d4f49a2c5b4" d="M1361.12,1370.74a9.81,9.81,0,0,0,9.81,9.81h398.72a14.89,14.89,0,0,0,14.95-14.85v-.06l6.28-7.29-414-3.54a15.93,15.93,0,0,0-15.72,15.93Z"/><path class="aae86b99-d4fa-470a-bcd9-0d1ab5ed2223" d="M1592.67,871.42S1576.15,797.34,1661,817c0,0,41.2-6.73,43.29,32.15,0,0,26.56,17.49,7.12,51.14,0,0,78.91-30.48,113.29,38.69s2.78,107.23-30.35,117.15c0,0,26.84,13.47,14.14,43.91s-77.06,51.88-115.07,14.87c0,0-108.16,14.3-106-62.1,0,0-50.31-32.49,2.53-95.62S1592.67,871.42,1592.67,871.42Z"/><path class="afd18e62-6bad-47c8-8eeb-702316853850" d="M1588,1043.15c17-5.11,66.7-14.55,113.93,29a29.28,29.28,0,0,1,8.43,29.15c-12.69,46.7-42.35,196.52-13,256.22,0,0-38.29,1.09-111.94-.78,0,0-25.31-110.33-58.47-158.77-22.89-33.43,36.51-125.56,51.53-147.82A17.6,17.6,0,0,1,1588,1043.15Z"/><path class="ad22ed50-77f2-4487-9a0d-16b0da7225fc" d="M1635.09,950.34s25.21,71.33,27.12,102.8a54,54,0,0,1-54.15-8.71s-2.76-71.26-6.73-84Z"/><path class="ad22ed50-77f2-4487-9a0d-16b0da7225fc" d="M1600.05,853.1s-66,92.31-26.53,119.13,86.39-38.79,86.39-38.79,15.31-50.53-.69-67.67S1600.05,853.1,1600.05,853.1Z"/><path class="aae86b99-d4fa-470a-bcd9-0d1ab5ed2223" d="M1630.61,831s-30.31,7.18-34.56,20.89,43,26.42,56.21,27l10.65,55.41s31.51-52.05,19-82.11S1630.61,831,1630.61,831Z"/><path class="ad22ed50-77f2-4487-9a0d-16b0da7225fc" d="M1647.13,926.64s25.68-29.73,35.89-10.35-23.11,33.94-34.65,24.43Z"/><path class="ad22ed50-77f2-4487-9a0d-16b0da7225fc" d="M1708.69,1081.5s80.57,67,100.56,158.46-117.73,101.21-117.73,101.21-18.69-20.87-40.89-13.43-1.72-36.44,24.25-36.32,13.94,20.65,50.68,4c35.8-16.21,57.92-66.35-33.4-142.35a41.41,41.41,0,0,1-12.06-16.43C1662.36,1092,1676.43,1062.73,1708.69,1081.5Z"/><path class="afd18e62-6bad-47c8-8eeb-702316853850" d="M1809.26,1239.65c-20.09-91.5-101-158.46-101-158.46-32.41-18.77-46.55,10.5-28.73,55.15a41.29,41.29,0,0,0,12.12,16.43c70.75,58.62,73.71,101.84,54.87,126,9.5,3,18.52,7.82,26.79,13.15,6.41,4.25,12.29,7.46,17.65,11.56C1806.41,1288.66,1815.5,1268.11,1809.26,1239.65Z"/><path class="aa5dce65-1b6c-481e-958c-8e13e363d44b" d="M999.42,898.87h-15.2c-2.69,0-4.88-1.29-4.94-2.9l-4.67-103.53c-.07-1.67,2.17-3.05,4.93-3.05H999.4c2.73,0,4.94,1.33,4.94,3V895.9C1004.37,897.54,1002.16,898.87,999.42,898.87Z"/><path class="aa5dce65-1b6c-481e-958c-8e13e363d44b" d="M973.75,781.21l.17,1.36c.16,1.29,1.89,2.3,4,2.37l21.92.68c2.44.07,4.49-1.1,4.49-2.57V781c0-1.38-1.8-2.51-4.09-2.57-5.46-.14-15.3-.31-22.59,0C975.33,778.55,973.61,779.78,973.75,781.21Z"/><path class="aa5dce65-1b6c-481e-958c-8e13e363d44b" d="M957.92,898.87H942.71c-2.69,0-4.87-1.29-4.94-2.9l-4.64-115.32c-.07-1.67,2.16-3,4.93-3h19.85c2.73,0,4.94,1.34,4.94,3V895.9C962.86,897.54,960.61,898.87,957.92,898.87Z"/><path class="aa5dce65-1b6c-481e-958c-8e13e363d44b" d="M932.24,769.42l.17,1.36c.17,1.29,1.9,2.31,4,2.37l21.93.68c2.44.08,4.48-1.09,4.48-2.57V769.2c0-1.38-1.8-2.51-4.08-2.57-5.47-.14-15.31-.31-22.6,0C933.83,766.77,932.05,768,932.24,769.42Z"/><path class="aa5dce65-1b6c-481e-958c-8e13e363d44b" d="M1041.18,898.87H1026c-2.69,0-4.88-1.29-4.94-2.9l-1.79-73.54c-.07-1.67,2.17-3,4.93-3H1044c2.72,0,4.94,1.33,4.94,3l-2.86,73.54C1046.13,897.54,1043.92,898.87,1041.18,898.87Z"/><path class="aa5dce65-1b6c-481e-958c-8e13e363d44b" d="M1018.36,811.2l.18,1.36c.16,1.29,1.89,2.3,4,2.37l21.93.68c2.44.07,4.49-1.1,4.49-2.57V811c0-1.38-1.8-2.51-4.09-2.57-5.46-.14-15.3-.31-22.59,0C1019.94,808.54,1018.17,809.78,1018.36,811.2Z"/><path class="aa5dce65-1b6c-481e-958c-8e13e363d44b" d="M877.51,898.87H862.29c-2.68,0-4.87-1.29-4.93-2.9l-4.65-103.53c-.07-1.67,2.17-3.05,4.93-3.05H877.5c2.73,0,4.94,1.33,4.94,3V895.9C882.44,897.54,880.24,898.87,877.51,898.87Z"/><path class="aa5dce65-1b6c-481e-958c-8e13e363d44b" d="M851.81,781.21l.19,1.36c.16,1.29,1.89,2.3,4,2.37l21.93.68c2.44.07,4.49-1.1,4.49-2.57V781c0-1.38-1.8-2.51-4.09-2.57-5.46-.14-15.3-.31-22.59,0C853.41,778.55,851.61,779.78,851.81,781.21Z"/><path class="aa5dce65-1b6c-481e-958c-8e13e363d44b" d="M919.27,898.87H904.06c-2.69,0-4.88-1.29-4.94-2.9l-1.79-73.54c-.07-1.67,2.16-3,4.94-3h19.86c2.72,0,4.93,1.33,4.93,3l-2.85,73.54C924.21,897.54,922,898.87,919.27,898.87Z"/><path class="aa5dce65-1b6c-481e-958c-8e13e363d44b" d="M896.43,811.2l.19,1.36c.16,1.29,1.89,2.3,4,2.37l21.93.68c2.44.07,4.49-1.1,4.49-2.57V811c0-1.38-1.81-2.51-4.09-2.57-5.46-.14-15.3-.31-22.59,0C898,808.54,896.26,809.78,896.43,811.2Z"/><rect class="ad4baa4f-614c-4b75-864e-f43314ec697f" x="1121.35" y="586.18" width="18.15" height="320.14"/><rect class="ad4baa4f-614c-4b75-864e-f43314ec697f" x="1151.67" y="586.18" width="18.15" height="320.14"/><rect class="ad4baa4f-614c-4b75-864e-f43314ec697f" x="1182" y="586.18" width="18.15" height="320.14"/><rect class="ad4baa4f-614c-4b75-864e-f43314ec697f" x="1212.33" y="586.18" width="18.15" height="320.14"/><rect class="ad4baa4f-614c-4b75-864e-f43314ec697f" x="1242.66" y="586.18" width="18.15" height="320.14"/><rect class="ad4baa4f-614c-4b75-864e-f43314ec697f" x="1272.98" y="586.18" width="18.15" height="320.14"/><rect class="ad4baa4f-614c-4b75-864e-f43314ec697f" x="1303.3" y="586.18" width="18.15" height="320.14"/><rect class="a6ea17ad-8a06-4358-8444-6548a3ef8a39" x="1121.35" y="738.77" width="18.15" height="167.54"/><rect class="a6ea17ad-8a06-4358-8444-6548a3ef8a39" x="1151.67" y="796.35" width="18.15" height="109.96"/><rect class="a6ea17ad-8a06-4358-8444-6548a3ef8a39" x="1182" y="654.05" width="18.15" height="252.27"/><rect class="a6ea17ad-8a06-4358-8444-6548a3ef8a39" x="1212.33" y="845.71" width="18.15" height="60.6"/><rect class="a6ea17ad-8a06-4358-8444-6548a3ef8a39" x="1242.66" y="687.77" width="18.15" height="218.54"/><rect class="a6ea17ad-8a06-4358-8444-6548a3ef8a39" x="1272.98" y="725.61" width="18.15" height="180.7"/><rect class="a6ea17ad-8a06-4358-8444-6548a3ef8a39" x="1303.3" y="766.74" width="18.15" height="139.57"/><circle class="b17f2d06-2cc9-41cb-b833-0d4f49a2c5b4" cx="1381.12" cy="772.6" r="35.88"/><path class="a6ea17ad-8a06-4358-8444-6548a3ef8a39" d="M1402.43,765a23,23,0,1,1-21.31-14.29h1.17v-5.84h-1.17A28.88,28.88,0,1,0,1410,773.75a29.19,29.19,0,0,0-2.21-11.07Z"/><path class="aa5dce65-1b6c-481e-958c-8e13e363d44b" d="M1410.61,823.66h-58.46a6.65,6.65,0,1,0-.52,13.29h59a6.65,6.65,0,1,0,.51-13.29Z"/><circle class="b17f2d06-2cc9-41cb-b833-0d4f49a2c5b4" cx="1380.97" cy="657.28" r="35.88"/><path class="a6ea17ad-8a06-4358-8444-6548a3ef8a39" d="M1393.17,678a23,23,0,1,1-12.28-42.54h1.16v-5.84h-1.16A28.88,28.88,0,1,0,1396.06,683Z"/><path class="aa5dce65-1b6c-481e-958c-8e13e363d44b" d="M1410.77,708.34H1352.3a6.65,6.65,0,0,0,0,13.29h58.47a6.65,6.65,0,0,0,0-13.29Z"/><circle class="b17f2d06-2cc9-41cb-b833-0d4f49a2c5b4" cx="1381.28" cy="888.53" r="35.88"/><path class="a6ea17ad-8a06-4358-8444-6548a3ef8a39" d="M1400.79,901.44a23,23,0,1,1-19.06-36h1.16V859.6h-1.16a28.89,28.89,0,1,0,23.79,45.27Z"/><path class="aa5dce65-1b6c-481e-958c-8e13e363d44b" d="M1352,951.67h58.46a6.65,6.65,0,1,0,.51-13.29h-59a6.65,6.65,0,0,0,0,13.29Z"/><circle class="b17f2d06-2cc9-41cb-b833-0d4f49a2c5b4" cx="950.92" cy="569.56" r="84.73"/><path class="faec54b4-bdc4-4b17-9082-510f1c7abe5f" d="M872.77,566.34h0a1,1,0,0,1-.92-1,80.17,80.17,0,0,1,1.16-10,1,1,0,0,1,1.88.34,77.4,77.4,0,0,0-1.12,9.71A1,1,0,0,1,872.77,566.34Z"/><circle class="b377ac2e-30f3-4408-936b-fb22cc47caab" cx="952.69" cy="571.4" r="71.71" transform="translate(-3.08 5.16) rotate(-0.31)"/><path class="af3560f9-8972-44a2-a2d7-3b0d08d1987f" d="M974.67,544.28c0,12.14-9.84,25.25-22,25.25s-22-13.11-22-25.25,9.84-20.76,22-20.76S974.67,532.13,974.67,544.28Z"/><path class="af3560f9-8972-44a2-a2d7-3b0d08d1987f" d="M925.4,616.28h53.67a13,13,0,0,0,12.37-9l2.89-9a13,13,0,0,0-7.84-16.15c-21.84-8-44.43-7-67.56.74a12.92,12.92,0,0,0-8.29,15.68l2.22,8.2A13,13,0,0,0,925.4,616.28Z"/><path class="b24a5365-4cbb-4511-8f8a-84b33a86498c" d="M950.87,714.34c-79.86,0-144.82-65-144.82-144.82s65-144.83,144.82-144.83,144.82,65,144.82,144.83S1030.72,714.34,950.87,714.34Zm0-244.23a99.41,99.41,0,1,0,99.4,99.42h0a99.53,99.53,0,0,0-99.4-99.4Z"/><path class="aa5dce65-1b6c-481e-958c-8e13e363d44b" d="M1095.29,558.69l-45.29,3.4c.18,2.46.27,4.93.27,7.44a99.05,99.05,0,0,1-5.9,33.75l42.72,15.42a144.07,144.07,0,0,0,8.59-49.17C1095.68,565.88,1095.54,562.27,1095.29,558.69Z"/><path class="a6ea17ad-8a06-4358-8444-6548a3ef8a39" d="M950.87,668.93a99.41,99.41,0,1,1,24.22-195.82l11.06-44a145.24,145.24,0,0,0-35.28-4.36c-79.86,0-144.82,65-144.82,144.83s65,144.76,144.82,144.76c62.6,0,116-39.93,136.22-95.65l-42.72-15.42A99.58,99.58,0,0,1,950.87,668.93Z"/><path class="b17f2d06-2cc9-41cb-b833-0d4f49a2c5b4" d="M1050,562.09l45.29-3.4a144,144,0,0,0-14.24-52.58L1040.22,526A99.11,99.11,0,0,1,1050,562.09Z"/><path class="b17f2d06-2cc9-41cb-b833-0d4f49a2c5b4" d="M1129.22,976l172.38-1a9,9,0,0,1,7.8,13.71l-.86,1.44a9.05,9.05,0,0,1-7.76,4.39H1129.27a9,9,0,0,1-9-9v-.53a9,9,0,0,1,8.93-9.06Z"/><path class="b17f2d06-2cc9-41cb-b833-0d4f49a2c5b4" d="M1105.14,985.34v.28a9,9,0,0,1-9,9h-38.27a9,9,0,0,1-8.74-6.71h0a9.07,9.07,0,0,1,8.68-11.39l38.26-.28a9.07,9.07,0,0,1,9.07,9Z"/><path class="b17f2d06-2cc9-41cb-b833-0d4f49a2c5b4" d="M1170.67,1008.52l130.93-1a9,9,0,0,1,7.8,13.71l-.86,1.44a9.05,9.05,0,0,1-7.76,4.39h-130a9,9,0,0,1-9-9v-.48a9,9,0,0,1,8.93-9.06Z"/><path class="b17f2d06-2cc9-41cb-b833-0d4f49a2c5b4" d="M1146.61,1017.77v.28a9,9,0,0,1-9,9h-38.27a9,9,0,0,1-8.74-6.71h0a9,9,0,0,1,6.4-11.08,9.13,9.13,0,0,1,2.27-.31l38.27-.28a9.07,9.07,0,0,1,9.07,9Z"/><path class="b17f2d06-2cc9-41cb-b833-0d4f49a2c5b4" d="M380.44,1046l123.1,309.59a36.66,36.66,0,0,0,39.3,22.75l322.77-23.84L749.38,1025.26a20.61,20.61,0,0,0-19.7-13.25c-56.6,1.3-262.74,6.39-336.49,13a15.29,15.29,0,0,0-13.83,16.6A14.92,14.92,0,0,0,380.44,1046Z"/><path class="eb8909a7-d8c6-43a9-8e26-530c3c9735b0" d="M532,1364.25,409,1051.89a9.73,9.73,0,0,1,5.48-12.63,10,10,0,0,1,3.36-.68l304-11.54a18.45,18.45,0,0,1,17.86,11.69L851,1343.23Z"/><path class="b17f2d06-2cc9-41cb-b833-0d4f49a2c5b4" d="M975.41,1368.23A10.45,10.45,0,0,1,965,1378.68H540.41a15.87,15.87,0,0,1-15.88-15.88h0l-6.67-7.76,440.81-3.77a17,17,0,0,1,16.74,17Z"/><path class="bb0faf3e-b408-4fc8-b3d4-f7ac2ae3c7f5" d="M771.43,1040c-78.77-1.3-165.67,20.68-165.67,20.68-23.48,137-4.11,295-4.11,295,113.88,1.91,127.4-4.42,127.4-4.42,10.13-57.26,59.79-223.77,59.79-223.77,38.48-4.77,70.18-15.88,96.29-30.56-19.91-23.08-29.3-52.45-33.38-69.82C823.9,1035.78,795.72,1040.4,771.43,1040Z"/><path class="a8602da1-d66a-45dd-8974-6cf7ed038dee" d="M1004.09,924c-7.74-9.34-17.54-4.92-17.54-4.92-11.58,49-72.37,88.66-134.81,108.06,4.08,17.37,13.47,46.74,33.38,69.82C988.75,1038.68,1004.09,924,1004.09,924Z"/><path class="a8602da1-d66a-45dd-8974-6cf7ed038dee" d="M1002.21,926.34c.81,2.57-8.57,6.49-14.09-4-.19-5-3.26-26.66-.24-30.77,16-21.89,47.18-49.33,47.18-49.33a7.42,7.42,0,0,1,.93,10.29l-15.1,15.73c3.16,5.71,7,10.53,8.81,17.43a21.16,21.16,0,0,1-2.11,15.58,185.17,185.17,0,0,1-9.68,15.84C1011.43,926.34,1002.21,926.34,1002.21,926.34Z"/><path class="a8602da1-d66a-45dd-8974-6cf7ed038dee" d="M1014.28,878.46l-13.76,11.66-4.32,11.62,12.27,13.61s4.12-23,7.19-28S1017.14,879.92,1014.28,878.46Z"/><path class="bb0faf3e-b408-4fc8-b3d4-f7ac2ae3c7f5" d="M636,1137l-30.22-76.27s-73.57,50-85.66,113.37c13.9,1,39.19,4.64,63.95,17.14C589.48,1161.26,636,1137,636,1137Z"/><path class="a8602da1-d66a-45dd-8974-6cf7ed038dee" d="M700.26,1208.71s-82.6,46.69-110.47,6.83c-5.79-8.28-7.17-16.51-5.75-24.35-24.76-12.5-50-16.12-63.95-17.14a87.49,87.49,0,0,0,9.5,60c48.83,89.3,181.6-4.94,181.6-4.94Z"/><path class="a6ea17ad-8a06-4358-8444-6548a3ef8a39" d="M694.72,1273.65a4.6,4.6,0,0,1-4.56-4.66,4.24,4.24,0,0,1,.18-1.22l45.08-157.43a4.59,4.59,0,0,1,3.88-3.31c8.17-1,31.83-3.62,59.16-5.93,32.92-2.79,71.14-5,94-3.13a4.61,4.61,0,0,1,4.22,5,4.56,4.56,0,0,1-.45,1.66c-13,26.28-66.43,133.18-93.18,168.2a4.59,4.59,0,0,1-3.71,1.82Z"/><path class="aae86b99-d4fa-470a-bcd9-0d1ab5ed2223" d="M803.14,1087.45l32.68-5.45a2.35,2.35,0,0,1,2.61,3l-3.23,9.8a2.34,2.34,0,0,1-1.92,1.59l-31.45,4.21a2.35,2.35,0,0,1-2.64-2,2.07,2.07,0,0,1,0-.82l2-8.56A2.31,2.31,0,0,1,803.14,1087.45Z"/><path class="aae86b99-d4fa-470a-bcd9-0d1ab5ed2223" d="M778.66,1115.12l2.7-14a3.23,3.23,0,0,1,2.85-2.61l66-6.7a3.24,3.24,0,0,1,3.55,2.89,3.19,3.19,0,0,1-.08,1.11l-4.19,17.48a3.23,3.23,0,0,1-3,2.48L782,1119a3.25,3.25,0,0,1-3.39-3.11A3,3,0,0,1,778.66,1115.12Z"/><path class="a8602da1-d66a-45dd-8974-6cf7ed038dee" d="M701.23,1229.74s-6.29-25.82-3.75-35,7.44-20.94,23.8-18.32,35.65,9.51,35.65,9.51-1,11.93-13.4,8.08l7.71,6s-1.1,9.55-11.6,4.45l7.17,7.91s-4.51,7.85-12.24,2.82S723.14,1232.85,701.23,1229.74Z"/><path class="a8602da1-d66a-45dd-8974-6cf7ed038dee" d="M691.61,976.06l-25,72.47a2.59,2.59,0,0,0,1.19,3.15c6.83,3.77,31.44,14.69,61.1-4.11a12.29,12.29,0,0,0,5.65-8.79l8.12-62.72Z"/><path class="a8602da1-d66a-45dd-8974-6cf7ed038dee" d="M746.18,908.94s27.52,51.8,24,72.73-37.63,19.42-67.42,2.43L682,928.16Z"/><path class="aae86b99-d4fa-470a-bcd9-0d1ab5ed2223" d="M704.07,956.63a2.13,2.13,0,0,0,1.09-2.82,2.29,2.29,0,0,0-.16-.31c-2.2-3.36-6.34-10.24-7.66-16.25,0,0-4.94-3.17,12.6-7.37s43.69-10.71,49.19-25.64c5.36-14.56-8.72-51.16-31.19-22a2.15,2.15,0,0,1-3,.39,2,2,0,0,1-.38-.39c-3.68-4.8-13.36-14.75-26.81-8.72-12.58,5.65-14,14.87-13.82,19.52a2.14,2.14,0,0,1-2.06,2.21,2.38,2.38,0,0,1-.46,0C675,894,659.77,893,652.65,908.61c-5.87,12.9-2,20.2,1.41,23.77a2.14,2.14,0,0,1,0,3,2.1,2.1,0,0,1-.86.51c-4.18,1.28-9.58,4.82-9,14.62.75,13.54,15.89,12.34,20.2,11.73a2.16,2.16,0,0,1,1.89.67c3.7,4.09,20.35,21.45,38.37,23.55a2.15,2.15,0,0,0,2.36-1.93,2.21,2.21,0,0,0-.1-.92L699.08,961a2.14,2.14,0,0,1,1.16-2.66Z"/><path class="a8602da1-d66a-45dd-8974-6cf7ed038dee" d="M707.2,959.85s-19.59-13.45-21-2.13,17.64,16.4,27.09,12.18Z"/><path class="b17f2d06-2cc9-41cb-b833-0d4f49a2c5b4" d="M1940.76,389.41,1834.21,657.34a31.73,31.73,0,0,1-34,19.69l-279.42-19.55,100.64-286a17.81,17.81,0,0,1,17-11.47c49,1.12,227.43,5.53,291.26,11.21a13.24,13.24,0,0,1,12,14.35A13,13,0,0,1,1940.76,389.41Z"/><path class="eb8909a7-d8c6-43a9-8e26-530c3c9735b0" d="M1809.61,664.9l106.45-270.37a8.44,8.44,0,0,0-7.65-11.52l-263.13-10a15.92,15.92,0,0,0-15.45,10.12L1533.45,646.7Z"/><path class="b17f2d06-2cc9-41cb-b833-0d4f49a2c5b4" d="M1425.77,668.34a9,9,0,0,0,9,9h367.49A13.75,13.75,0,0,0,1816,663.59l5.78-6.72-381.57-3.27A14.69,14.69,0,0,0,1425.77,668.34Z"/><path class="afd18e62-6bad-47c8-8eeb-702316853850" d="M1139.43,438.09l257.65-22.86a20.33,20.33,0,0,0,18.53-20.14l1-173.71A20.32,20.32,0,0,0,1396.39,201c-.5,0-1,0-1.51,0l-274.34,19.09a20.32,20.32,0,0,0-19,21.59c0,.16,0,.32,0,.48l15.75,177.48a20.33,20.33,0,0,0,22,18.46Z"/><path class="a79438fd-6a1f-4b0f-b5f8-7db0216c761a" d="M1401.44,238.2l1.7,150a12.55,12.55,0,0,1-11.31,12.65l-247,24.54a12.55,12.55,0,0,1-13.75-11.25c0-.05,0-.1,0-.15l-14.23-160.37A12.57,12.57,0,0,1,1128.21,240l.4,0,259.57-14.15a12.58,12.58,0,0,1,13.25,11.85C1401.44,237.83,1401.44,238,1401.44,238.2Z"/><path class="bb0faf3e-b408-4fc8-b3d4-f7ac2ae3c7f5" d="M1284.33,369.24l-139.82,8.2a2.56,2.56,0,0,0-2.39,2.72v0l.2,2.24a2.56,2.56,0,0,0,2.73,2.32l139.62-10.43a2.55,2.55,0,0,0,2.35-2.73v0h0A2.55,2.55,0,0,0,1284.33,369.24Z"/><path class="bb0faf3e-b408-4fc8-b3d4-f7ac2ae3c7f5" d="M1288.05,383.25l.08.95a2.54,2.54,0,0,1-2.31,2.76l-139.43,12.38a2.54,2.54,0,0,1-2.76-2.31l-.09-1a2.54,2.54,0,0,1,2.31-2.76l139.44-12.37a2.55,2.55,0,0,1,2.76,2.32Z"/><path class="bb0faf3e-b408-4fc8-b3d4-f7ac2ae3c7f5" d="M1246.84,399.5v.42a2.55,2.55,0,0,1-2.32,2.76l-97.08,8.66a2.53,2.53,0,0,1-2.75-2.3h0l-.18-2a2.56,2.56,0,0,1,2.34-2.76h0l97.26-7.06A2.55,2.55,0,0,1,1246.84,399.5Z"/><path class="ff9ef93e-a632-44f6-9e9a-10318977468b" d="M1161,376l304-6.18a23.91,23.91,0,0,0,23.34-22.14l15-203.69a23.9,23.9,0,0,0-22-25.61c-.58,0-1.16-.06-1.73-.07l-323.33.42a23.9,23.9,0,0,0-23.87,23.92c0,.15,0,.31,0,.46l4.26,209.46A23.87,23.87,0,0,0,1161,376Z"/><path class="a79438fd-6a1f-4b0f-b5f8-7db0216c761a" d="M1484.39,162.53l-10,176.08a14.78,14.78,0,0,1-14.3,13.93l-291.76,9a14.78,14.78,0,0,1-15.23-14.32v-.15l-3.85-189.27a14.75,14.75,0,0,1,14.46-15.06h.54l305.62,4.19a14.78,14.78,0,0,1,14.54,15C1484.4,162.12,1484.4,162.33,1484.39,162.53Z"/><path class="bb0faf3e-b408-4fc8-b3d4-f7ac2ae3c7f5" d="M1336.52,306.87l-164.66-1.53a3,3,0,0,0-3,3V311a3,3,0,0,0,3,2.93l164.61-1.07a3,3,0,0,0,3-3v-.06h0A3,3,0,0,0,1336.52,306.87Z"/><path class="bb0faf3e-b408-4fc8-b3d4-f7ac2ae3c7f5" d="M1339.76,323.6v1.13a3,3,0,0,1-2.94,3l-164.56,3.35a3,3,0,0,1-3-2.93v-1.13a3,3,0,0,1,2.93-3.05l164.56-3.35A3,3,0,0,1,1339.76,323.6Z"/><path class="bb0faf3e-b408-4fc8-b3d4-f7ac2ae3c7f5" d="M1290.12,339.34v.5a3,3,0,0,1-2.94,3.05l-114.57,2.36a3,3,0,0,1-3-2.93l-.06-2.33a3,3,0,0,1,3-3h0l114.66-.5A3,3,0,0,1,1290.12,339.34Z"/><path class="a6ea17ad-8a06-4358-8444-6548a3ef8a39" d="M1205.91,325.65h337.31a26.52,26.52,0,0,0,26.39-24l21.26-225.54A26.51,26.51,0,0,0,1567,47.23c-.66-.07-1.33-.1-2-.12l-358.57-6.83a26.52,26.52,0,0,0-27,26V299.14A26.5,26.5,0,0,0,1205.91,325.65Z"/><path class="eb8909a7-d8c6-43a9-8e26-530c3c9735b0" d="M1569.3,96.19l-15.07,195a16.4,16.4,0,0,1-16.18,15.15l-323.75,3.4a16.37,16.37,0,0,1-16.55-16.22V83.34a16.39,16.39,0,0,1,16.38-16.4h.56L1553.51,78.5a16.4,16.4,0,0,1,15.84,17C1569.34,95.7,1569.32,96,1569.3,96.19Z"/><path class="bb0faf3e-b408-4fc8-b3d4-f7ac2ae3c7f5" d="M1396.47,94.4l-182.56-5.46a3.32,3.32,0,0,0-3.42,3.22v3a3.3,3.3,0,0,0,3.27,3.32L1396.31,101a3.31,3.31,0,0,0,3.37-3.27v0h0A3.32,3.32,0,0,0,1396.47,94.4Z"/><rect class="bb0faf3e-b408-4fc8-b3d4-f7ac2ae3c7f5" x="1210.49" y="109.71" width="189.2" height="7.89" rx="3.32"/><path class="bb0faf3e-b408-4fc8-b3d4-f7ac2ae3c7f5" d="M1344.28,129.39v.55a3.32,3.32,0,0,1-3.32,3.32H1213.8a3.3,3.3,0,0,1-3.31-3.3v-2.62a3.31,3.31,0,0,1,3.31-3.32h.06L1341,126a3.33,3.33,0,0,1,3.27,3.35Z"/><path class="bb0faf3e-b408-4fc8-b3d4-f7ac2ae3c7f5" d="M1258.89,229.61a1.38,1.38,0,0,0,.9-.32l54.82-44.52,54,39.57a1.44,1.44,0,0,0,2-.24L1445.76,134c8.54,7.49,63.91,56,71.28,62.48a1.43,1.43,0,0,0,2-.3,1.45,1.45,0,0,0-.12-1.86c-8-7-72.39-63.45-72.39-63.45a1.43,1.43,0,0,0-2,.16l-75.23,90.25-53.83-39.43a1.44,1.44,0,0,0-1.76,0l-54.8,44.54-29.31-25.65a1.44,1.44,0,1,0-2.07,2,.9.9,0,0,0,.18.15l30.2,26.41A1.43,1.43,0,0,0,1258.89,229.61Z"/><path class="a2a7ae58-f96a-48bc-8e12-c91c396578b5" d="M1443.47,277.13v-2.87a1,1,0,0,1,1.24-.68,1,1,0,0,1,.68.68v2.87a1,1,0,0,1-1.24.68A1,1,0,0,1,1443.47,277.13Zm0-9.57v-2.87a1,1,0,0,1,1.24-.68,1,1,0,0,1,.68.68v2.87a1,1,0,0,1-1.24.68A1,1,0,0,1,1443.47,267.56Zm0-9.57v-2.87a1,1,0,0,1,1.24-.68,1,1,0,0,1,.68.68V258a1,1,0,0,1-1.24.68A1,1,0,0,1,1443.47,258Zm0-9.57v-2.87a1,1,0,0,1,1.24-.68,1,1,0,0,1,.68.68v2.87a1,1,0,0,1-1.24.68A1,1,0,0,1,1443.47,248.42Zm0-9.56V236a1,1,0,0,1,.68-1.24,1,1,0,0,1,1.24.68,1.06,1.06,0,0,1,0,.56v2.87a1,1,0,0,1-1.24.68A1,1,0,0,1,1443.47,238.86Zm0-9.57v-2.87a1,1,0,0,1,1.24-.68,1,1,0,0,1,.68.68v2.92a1,1,0,0,1-1.24.68,1,1,0,0,1-.68-.68Zm0-9.57v-2.87a1,1,0,0,1,1.24-.68,1,1,0,0,1,.68.68v2.87a1,1,0,0,1-1.24.68A1,1,0,0,1,1443.47,219.72Zm0-9.57v-2.87a1,1,0,0,1,1.24-.68,1,1,0,0,1,.68.68v2.87a1,1,0,0,1-1.24.68A1,1,0,0,1,1443.47,210.15Zm0-9.57v-2.87a1,1,0,0,1,1.24-.68,1,1,0,0,1,.68.68v2.87a1,1,0,0,1-1.24.68A1,1,0,0,1,1443.47,200.58Zm0-9.57v-2.87a1,1,0,0,1,1.24-.68,1,1,0,0,1,.68.68V191a1,1,0,0,1-1.24.68,1,1,0,0,1-.68-.68Zm0-9.57v-2.87a1,1,0,0,1,1.24-.68,1,1,0,0,1,.68.68v2.87a1,1,0,0,1-.68,1.24,1,1,0,0,1-1.24-.68A.89.89,0,0,1,1443.47,181.44Zm0-9.56V169a1,1,0,0,1,1.24-.68,1,1,0,0,1,.68.68v2.88a1,1,0,0,1-1.24.68A1,1,0,0,1,1443.47,171.88Zm0-9.57v-2.87a1,1,0,0,1,1.24-.68,1,1,0,0,1,.68.68v2.9a1,1,0,0,1-1.24.68,1,1,0,0,1-.68-.68Zm0-9.57v-2.87a1,1,0,0,1,.68-1.24,1,1,0,0,1,1.24.68,1.06,1.06,0,0,1,0,.56v2.87a1,1,0,0,1-1.24.68A1,1,0,0,1,1443.47,152.74Z"/><path class="a2a7ae58-f96a-48bc-8e12-c91c396578b5" d="M1368.51,278.89V276a1,1,0,0,1,.65-1.25,1,1,0,0,1,1.26.66,1,1,0,0,1,0,.59v2.87a1,1,0,0,1-.66,1.26,1,1,0,0,1-1.25-.66A1,1,0,0,1,1368.51,278.89Zm0-9.57v-2.87a1,1,0,0,1,.65-1.25,1,1,0,0,1,1.26.66,1,1,0,0,1,0,.59v2.89a1,1,0,0,1-.66,1.26,1,1,0,0,1-1.25-.66,1,1,0,0,1,0-.6Zm0-9.57v-2.87a1,1,0,0,1,1.91,0v2.87a1,1,0,0,1-.66,1.26,1,1,0,0,1-1.25-.66A1,1,0,0,1,1368.51,259.75Zm0-9.57v-2.84a1,1,0,0,1,1.91,0v2.87a1,1,0,0,1-.66,1.26,1,1,0,0,1-1.25-.66,1,1,0,0,1,0-.6Zm0-9.56v-2.87a1,1,0,0,1,.65-1.25,1,1,0,0,1,1.26.66,1,1,0,0,1,0,.59v2.87a1,1,0,0,1-1.26.66A1,1,0,0,1,1368.51,240.62Zm0-9.57v-2.87a1,1,0,0,1,.65-1.25,1,1,0,0,1,1.26.66,1,1,0,0,1,0,.59v2.87a1,1,0,0,1-1.26.66A1,1,0,0,1,1368.51,231.05Z"/><path class="a2a7ae58-f96a-48bc-8e12-c91c396578b5" d="M1312.47,281.68a.94.94,0,0,1-.93-.95v-.05l.09-2.87a.93.93,0,0,1,.91-.93h.09a1,1,0,0,1,.93,1l-.08,2.87a1,1,0,0,1-1,.92Zm.3-9.56a1,1,0,0,1-.93-1l.08-2.87a1,1,0,0,1,1.26-.64,1,1,0,0,1,.67.7l-.09,2.87a1,1,0,0,1-1,.93Zm.3-9.56a1,1,0,0,1-.93-1l.09-2.87a1,1,0,1,1,1.91.06l-.09,2.87a1,1,0,0,1-1,.93Zm.29-9.57a1,1,0,0,1-.92-1l.09-2.87a.92.92,0,0,1,.92-.93h.08a1,1,0,0,1,.93,1l-.09,2.86a1,1,0,0,1-1,.93Zm.3-9.56a1,1,0,0,1-.93-1l.09-2.87a.93.93,0,0,1,.93-.92h.07a1,1,0,0,1,.93,1l-.09,2.87a1,1,0,0,1-1,.93Zm.3-9.57a1,1,0,0,1-.93-1l.09-2.87a1,1,0,1,1,1.91.06l-.09,2.87a1,1,0,0,1-1,.92Zm.29-9.56a1,1,0,0,1-.92-1l.09-2.87a1,1,0,0,1,1.27-.62,1,1,0,0,1,.64.68l-.09,2.87a1,1,0,0,1-1,.93Zm.3-9.56a1,1,0,0,1-.93-1l.09-2.87a1,1,0,0,1,1-.93,1,1,0,0,1,.93,1l-.09,2.87A1,1,0,0,1,1314.55,214.74Zm.3-9.57a1,1,0,0,1-.93-1l.09-2.87a.93.93,0,0,1,.94-.93h.06a1,1,0,0,1,.92,1l-.09,2.86a1,1,0,0,1-1,.93Zm.29-9.56a1,1,0,0,1-.92-1l.09-2.87a.9.9,0,0,1,.89-.92h.11a1,1,0,0,1,.93,1l-.09,2.87a1,1,0,0,1-1,.93Z"/><path class="a2a7ae58-f96a-48bc-8e12-c91c396578b5" d="M1257.22,272.87V270a1,1,0,0,1,.65-1.25,1,1,0,0,1,1.26.66,1.18,1.18,0,0,1,0,.59v2.87a1,1,0,0,1-.66,1.26,1,1,0,0,1-1.25-.66A1,1,0,0,1,1257.22,272.87Zm0-9.57v-2.87a1,1,0,0,1,1.91,0v2.91a1,1,0,0,1-.66,1.26,1,1,0,0,1-1.25-.66,1,1,0,0,1,0-.6Zm0-9.57v-2.87a1,1,0,0,1,1.91,0v2.87a1,1,0,0,1-.66,1.26,1,1,0,0,1-1.25-.66A1,1,0,0,1,1257.22,253.73Zm0-9.56v-2.83a1,1,0,0,1,.65-1.25,1,1,0,0,1,1.26.66,1.18,1.18,0,0,1,0,.59v2.87a1,1,0,0,1-1.26.66,1,1,0,0,1-.65-.66Zm0-9.57v-2.87a1,1,0,0,1,.65-1.25,1,1,0,0,1,1.26.66,1.18,1.18,0,0,1,0,.59v2.87a1,1,0,0,1-1.26.66A1,1,0,0,1,1257.22,234.6Z"/><path class="bb0faf3e-b408-4fc8-b3d4-f7ac2ae3c7f5" d="M1524.36,293.71a1.44,1.44,0,0,0,1.43-1.31l15.42-182.15a1.45,1.45,0,0,0-1.44-1.44,1.43,1.43,0,0,0-1.42,1.2l-15.42,182.14a1.44,1.44,0,0,0,1.3,1.56Z"/><polygon class="bb0faf3e-b408-4fc8-b3d4-f7ac2ae3c7f5" points="1544.14 116.24 1539.7 110.97 1534.44 115.42 1534.79 111.3 1540.05 106.86 1544.48 112.12 1544.14 116.24"/><path class="bb0faf3e-b408-4fc8-b3d4-f7ac2ae3c7f5" d="M1219.92,285.21h316a1.44,1.44,0,1,0,.23-2.87H1219.92a1.45,1.45,0,0,0-1.56,1.32,1.43,1.43,0,0,0,1.32,1.55A1,1,0,0,0,1219.92,285.21Z"/><polygon class="bb0faf3e-b408-4fc8-b3d4-f7ac2ae3c7f5" points="1225.63 288.64 1220.77 283.77 1225.63 278.91 1221.49 278.91 1216.63 283.77 1221.49 288.64 1225.63 288.64"/><path class="b17f2d06-2cc9-41cb-b833-0d4f49a2c5b4" d="M1558.61,176.39l-91.82-33.33-7.08,14.82L1548,191.14S1560.24,190.05,1558.61,176.39Z"/><path class="ad4baa4f-614c-4b75-864e-f43314ec697f" d="M1466.78,143.06c2.7,8.19-7.08,14.82-7.08,14.82l-16.65-11.79a33.65,33.65,0,0,0,1.76-6.49Z"/><path class="b17f2d06-2cc9-41cb-b833-0d4f49a2c5b4" d="M1444.8,139.6a32.27,32.27,0,0,1-1.76,6.49l-12.3-8.75Z"/><path class="bb0faf3e-b408-4fc8-b3d4-f7ac2ae3c7f5" d="M1534.43,283.66c19.08,35.51,50.76,71.76,102.31,81.47,47.57,9,133,20,167.36,24.38a42,42,0,0,1,26.51,14.19c27,31.17,86.33,116.75,16.57,203-8.92-5-21.6-12.89-30.21-22.08,7.71-21.74,8.35-49.53-7.82-83.59a80.89,80.89,0,0,1-2.06,8c-22.29,70.56-23.48,129.31-23.42,142.83,0,1.84-1,3.93-2.8,4.17-38.59,5.26-111.08.92-111.08.92,13.38-66.53-37-183.53-50-212.15a18.62,18.62,0,0,0-9.25-9.2c-72-32.6-103.31-82.77-116-128C1505.53,292.89,1522.61,286.44,1534.43,283.66Z"/><path class="f047517a-1df7-4177-a39a-b1e6ed5f8124" d="M1494.54,307.64c-15.4-54.8-3.42-102.29-3.42-102.29h16.42a265.73,265.73,0,0,0,26.89,78.31C1522.61,286.44,1505.53,292.89,1494.54,307.64Z"/><path class="f047517a-1df7-4177-a39a-b1e6ed5f8124" d="M1501.77,214.09s25-32.38,16.87-49.25-36-15.23-36-15.23l-3.9,13.22a16.56,16.56,0,0,0,.39,10.59l15.39,40.67Z"/><path class="f047517a-1df7-4177-a39a-b1e6ed5f8124" d="M1753.42,324.7l5.65,57.73s-32.48,9.78-56.1-6.88l16.64-52.47Z"/><path class="f047517a-1df7-4177-a39a-b1e6ed5f8124" d="M1715.74,258.9c-.8.74-33,64-33,64l36.5,17.62,39.43-55.4S1728.81,246.58,1715.74,258.9Z"/><path class="aae86b99-d4fa-470a-bcd9-0d1ab5ed2223" d="M1742.53,286.63a5.86,5.86,0,0,1-.44,5.11l-18.2,30.35a6.38,6.38,0,0,1-1,1.25c-2.17,2-9.58,7.88-15.32-.11-4.88-6.81-9.47-13-14.38-15.55a5.81,5.81,0,0,0-7.82,2.53l0,.06a215.7,215.7,0,0,0-12.46,29.55,5.78,5.78,0,0,0,3.37,7.11c7.39,3,22,8.41,35,10.2a5.84,5.84,0,0,0,5.51-2.34c5.58-7.64,21.3-29,26.66-34.34,5-5,14.18-3.09,18.33-1.9a5.88,5.88,0,0,0,4.65-.61c4.21-2.53,11.55-8.84,4.83-19.52a5.82,5.82,0,0,1,1.8-7.92c4.7-3.09,9.79-8.89,4.94-18.27s-13.69-10.36-19.67-9.63a6,6,0,0,1-6.34-3.53,3.91,3.91,0,0,0-3-2.37,5.65,5.65,0,0,1-4.59-6.54l0-.09c1-5.38.26-12.37-8.33-17.09-15.75-8.66-29.54,5.45-33,17.36s14.1,20.33,25.18,21.74C1736.27,273.11,1740.74,282,1742.53,286.63Z"/><path class="f047517a-1df7-4177-a39a-b1e6ed5f8124" d="M1736.54,331.6s7-20.5,16-19.74,16,9.68,4.91,19.72C1743.61,344.07,1736.54,331.6,1736.54,331.6Z"/><path class="f047517a-1df7-4177-a39a-b1e6ed5f8124" d="M1817,584.61c8.61,9.19,21.29,17.13,30.21,22.08-13.32,16.46-25.38,28.82-49.24,45l-2.55,5.06L1758.08,658S1802.52,625.34,1817,584.61Z"/><path class="af909290-80b3-4db6-a44d-eb8a70ed1525" d="M1616,614.81l-.29-2.35h0a.62.62,0,0,1,.54-.68h0a.6.6,0,0,1,.67.51v0h0l.27,2.41a.61.61,0,0,1-.57.64.59.59,0,0,1-.62-.5Z"/><path class="af909290-80b3-4db6-a44d-eb8a70ed1525" d="M1613.35,600.79l-.6-2.3h0a.69.69,0,0,1,.49-.85h0a.72.72,0,0,1,.86.5h0l.57,2.34a.69.69,0,0,1-.58.79.68.68,0,0,1-.74-.45Z"/><path class="af909290-80b3-4db6-a44d-eb8a70ed1525" d="M1609.09,587.17l-.86-2.22h0a.78.78,0,0,1,.38-1.05.8.8,0,0,1,1.05.39l0,.09h0l.84,2.25a.78.78,0,0,1-1.45.57h0Z"/><path class="af909290-80b3-4db6-a44d-eb8a70ed1525" d="M1603.29,574.15l-1.13-2.1h0a.87.87,0,0,1,.3-1.2.88.88,0,0,1,1.21.31l0,.06h0l1.12,2.15a.87.87,0,0,1-.37,1.16h0a.86.86,0,0,1-1.17-.36Z"/><path class="af909290-80b3-4db6-a44d-eb8a70ed1525" d="M1595.87,562l-1.4-1.91h0a1,1,0,1,1,1.56-1.15h0l1.4,2a1,1,0,1,1-1.54,1.12Z"/><path class="af909290-80b3-4db6-a44d-eb8a70ed1525" d="M1586.79,551.09l-1.67-1.67h0a1.05,1.05,0,0,1,0-1.5,1.07,1.07,0,0,1,1.5,0h0l1.68,1.73a1,1,0,0,1-1.49,1.47Z"/><path class="af909290-80b3-4db6-a44d-eb8a70ed1525" d="M1576.1,541.79l-1.94-1.36h0a1.14,1.14,0,0,1-.37-1.58,1.15,1.15,0,0,1,1.58-.38l.12.09h0l2,1.43a1.13,1.13,0,0,1-1.32,1.84h0Z"/><path class="af909290-80b3-4db6-a44d-eb8a70ed1525" d="M1564,534.46l-2.12-1h0a1.23,1.23,0,1,1,1.06-2.23h0l2.17,1.07a1.23,1.23,0,0,1,.57,1.63,1.22,1.22,0,0,1-1.63.57h0Z"/><path class="af909290-80b3-4db6-a44d-eb8a70ed1525" d="M1550.86,529.24l-2.27-.67h0a1.31,1.31,0,0,1-.9-1.64,1.34,1.34,0,0,1,1.65-.9h0l2.31.71a1.31,1.31,0,1,1-.75,2.52Z"/><path class="af909290-80b3-4db6-a44d-eb8a70ed1525" d="M1537.05,526.06l-2.33-.34h0a1.37,1.37,0,1,1,.4-2.72h0l2.4.36a1.39,1.39,0,0,1,1.15,1.56,1.37,1.37,0,0,1-1.56,1.15h-.06Z"/><path class="af909290-80b3-4db6-a44d-eb8a70ed1525" d="M1522.93,524.74h-2.37a1.43,1.43,0,0,1,.07-2.86h0l2.42.08a1.42,1.42,0,0,1,1.26,1.57,1.41,1.41,0,0,1-1.33,1.26Z"/><path class="af909290-80b3-4db6-a44d-eb8a70ed1525" d="M1508.73,525l-2.37.18h0a1.5,1.5,0,0,1-1.62-1.38,1.52,1.52,0,0,1,1.39-1.62h0l2.41-.17a1.47,1.47,0,0,1,.22,2.93Z"/><path class="af909290-80b3-4db6-a44d-eb8a70ed1525" d="M1494.61,526.65l-2.35.38h0a1.53,1.53,0,0,1-.49-3h0l2.39-.37a1.52,1.52,0,0,1,.48,3Z"/><path class="af909290-80b3-4db6-a44d-eb8a70ed1525" d="M1480.61,529.34l-2.32.55h0a1.58,1.58,0,0,1-.73-3.07h0l2.35-.54a1.57,1.57,0,0,1,.7,3.06Z"/><path class="af909290-80b3-4db6-a44d-eb8a70ed1525" d="M1466.79,533l-2.28.68h0a1.62,1.62,0,0,1-2.06-1,1.65,1.65,0,0,1,1-2.07l.1,0h0l2.31-.68a1.65,1.65,0,0,1,2,1.11,1.61,1.61,0,0,1-1.09,2h0Z"/><path class="af909290-80b3-4db6-a44d-eb8a70ed1525" d="M1453.21,537.4l-2.24.79h0a1.68,1.68,0,1,1-1.12-3.17h0l2.27-.79a1.67,1.67,0,0,1,1.11,3.15Z"/><path class="af909290-80b3-4db6-a44d-eb8a70ed1525" d="M1439.83,542.43l-2.22.91h0a1.73,1.73,0,0,1-1.54-3.1l.24-.1h0l2.23-.88a1.73,1.73,0,0,1,2.28.87,1.71,1.71,0,0,1-.87,2.27l-.12.05Z"/><path class="af909290-80b3-4db6-a44d-eb8a70ed1525" d="M1426.66,548l-2.18,1h0a1.78,1.78,0,1,1-1.46-3.25h0l2.2-1a1.77,1.77,0,0,1,1.43,3.24Z"/><path class="af909290-80b3-4db6-a44d-eb8a70ed1525" d="M1413.61,554l-2.2,1a1.82,1.82,0,0,1-1.47-3.33h0l2.18-1h0a1.82,1.82,0,0,1,1.67,3.24l-.22.09Z"/><path class="af909290-80b3-4db6-a44d-eb8a70ed1525" d="M1400.25,559.51l-2.24.86a1.84,1.84,0,1,1-1.5-3.36l.18-.07h0l2.23-.85h0a1.84,1.84,0,0,1,1.54,3.35l-.23.08Z"/><path class="af909290-80b3-4db6-a44d-eb8a70ed1525" d="M1386.69,564.47l-2.28.77a1.85,1.85,0,0,1-1.19-3.5h0l2.25-.77h0a1.85,1.85,0,0,1,1.19,3.51Z"/><path class="af909290-80b3-4db6-a44d-eb8a70ed1525" d="M1373,569l-2.31.71a1.86,1.86,0,1,1-1.08-3.56h0l2.28-.69h0A1.86,1.86,0,0,1,1373,569Z"/><path class="af909290-80b3-4db6-a44d-eb8a70ed1525" d="M1359.17,573l-2.32.65a1.88,1.88,0,0,1-1-3.62h0l2.29-.64h0a1.87,1.87,0,0,1,1,3.61Z"/><path class="af909290-80b3-4db6-a44d-eb8a70ed1525" d="M1345.25,576.78l-2.32.59a1.88,1.88,0,1,1-.94-3.65h0l2.32-.58h0a1.88,1.88,0,0,1,.93,3.65Z"/><path class="af909290-80b3-4db6-a44d-eb8a70ed1525" d="M1331.26,580.22l-2.33.54a1.9,1.9,0,1,1-.87-3.7h0l2.33-.54h0a1.9,1.9,0,0,1,.85,3.7Z"/><path class="af909290-80b3-4db6-a44d-eb8a70ed1525" d="M1317.21,583.34l-2.35.5a1.91,1.91,0,0,1-.8-3.74h0l2.33-.49a1.91,1.91,0,1,1,1,3.69l-.2,0Z"/><path class="af909290-80b3-4db6-a44d-eb8a70ed1525" d="M1303.11,586.27l-2.36.46A1.92,1.92,0,1,1,1300,583h0l2.35-.45a1.92,1.92,0,0,1,.74,3.77Z"/><path class="af909290-80b3-4db6-a44d-eb8a70ed1525" d="M1289,588.93l-2.35.41a1.94,1.94,0,1,1-1-3.76l.27-.05h0l2.36-.42a1.94,1.94,0,0,1,.69,3.81Z"/><path class="af909290-80b3-4db6-a44d-eb8a70ed1525" d="M1274.77,591.34l-2.37.39a1.95,1.95,0,0,1-.62-3.85h0l2.36-.38a2,2,0,1,1,.88,3.8,1.09,1.09,0,0,1-.25,0Z"/><path class="af909290-80b3-4db6-a44d-eb8a70ed1525" d="M1260.39,593.61,1258,594a2,2,0,0,1-1.9-2.1,2,2,0,0,1,1.33-1.78h0l2.37-.35a2,2,0,0,1,.57,3.88Z"/><path class="af909290-80b3-4db6-a44d-eb8a70ed1525" d="M1245.87,595.65l-2.38.32a2,2,0,0,1-.52-3.91h0l2.37-.31a2,2,0,0,1,1.9,2.1,2,2,0,0,1-1.38,1.8Z"/><path class="af909290-80b3-4db6-a44d-eb8a70ed1525" d="M1231.23,597.5l-2.38.28a2,2,0,0,1-2-2,2,2,0,0,1,1.52-1.93h0l2.38-.27a2,2,0,0,1,1,3.87,1.91,1.91,0,0,1-.58.06Z"/><path class="af909290-80b3-4db6-a44d-eb8a70ed1525" d="M1216.92,599.11l-2.39.25a2,2,0,0,1-.41-4h0l2.37-.24a2,2,0,0,1,.42,4Z"/><path class="af909290-80b3-4db6-a44d-eb8a70ed1525" d="M1202.61,600.52l-2.39.22a2,2,0,1,1-.36-4h0l2.38-.22a2,2,0,0,1,.36,4Z"/><path class="af909290-80b3-4db6-a44d-eb8a70ed1525" d="M1188.26,601.74l-2.39.19a2,2,0,1,1-.32-4h0l2.38-.18a2,2,0,0,1,.32,4Z"/><path class="af909290-80b3-4db6-a44d-eb8a70ed1525" d="M1173.91,602.77l-2.4.15a2,2,0,0,1-2.16-1.89,2,2,0,0,1,1.9-2.16h0l2.38-.15a2,2,0,0,1,.27,4Z"/><path class="af909290-80b3-4db6-a44d-eb8a70ed1525" d="M1159.54,603.61l-2.4.12a2,2,0,1,1-.21-4.08h0l2.39-.12a2,2,0,0,1,.21,4.08Z"/><path class="af909290-80b3-4db6-a44d-eb8a70ed1525" d="M1145.16,604.25l-2.4.09a2.06,2.06,0,0,1-.15-4.11h0l2.39-.08a2.05,2.05,0,1,1,.16,4.1Z"/><path class="af909290-80b3-4db6-a44d-eb8a70ed1525" d="M1130.77,604.69h-2.4a2,2,0,0,1-2.1-2,2.06,2.06,0,0,1,2-2.1h2.39a2.05,2.05,0,0,1,.11,4.1Z"/><path class="af909290-80b3-4db6-a44d-eb8a70ed1525" d="M1116.38,604.91H1114a2,2,0,1,1,0-4.07h2.39a2,2,0,0,1,0,4.07Z"/><path class="af909290-80b3-4db6-a44d-eb8a70ed1525" d="M1102,604.93h-2.37a2,2,0,1,1,0-4H1102a2,2,0,0,1,0,4Z"/><path class="af909290-80b3-4db6-a44d-eb8a70ed1525" d="M1087.61,604.75l-2.39-.06a2,2,0,1,1,.08-4h2.38a2,2,0,1,1-.06,4Z"/><path class="af909290-80b3-4db6-a44d-eb8a70ed1525" d="M1073.18,604.34l-2.4-.09a2,2,0,0,1,.16-4l2.39.09a2,2,0,1,1-.14,4Z"/><path class="af909290-80b3-4db6-a44d-eb8a70ed1525" d="M1058.8,603.71l-2.4-.13a2,2,0,1,1,.22-4l2.38.13a2,2,0,1,1-.19,4Z"/><path class="af909290-80b3-4db6-a44d-eb8a70ed1525" d="M1044.43,602.85l-2.4-.17a2,2,0,0,1,.28-3.94l2.38.16a2,2,0,1,1-.26,4Z"/><path class="af909290-80b3-4db6-a44d-eb8a70ed1525" d="M1030.08,601.74l-2.4-.21a2,2,0,0,1,.34-3.92l2.38.21a2,2,0,1,1,.41,4,1.75,1.75,0,0,1-.72-.06Z"/><path class="af909290-80b3-4db6-a44d-eb8a70ed1525" d="M1015.74,600.34l-2.39-.25a2,2,0,0,1,.42-3.89h0l2.37.25h0a2,2,0,0,1,1.28,2.53,2,2,0,0,1-1.69,1.36Z"/><path class="af909290-80b3-4db6-a44d-eb8a70ed1525" d="M1001.42,598.73l-2.38-.3a1.94,1.94,0,0,1,.44-3.85h0l2.37.29h0a1.94,1.94,0,1,1-.48,3.86Z"/><path class="af909290-80b3-4db6-a44d-eb8a70ed1525" d="M987.15,596.8l-2.38-.35a1.93,1.93,0,1,1,.57-3.82h0l2.37.35h0a1.93,1.93,0,1,1-.57,3.82h0Z"/><path class="af909290-80b3-4db6-a44d-eb8a70ed1525" d="M972.92,594.56l-2.37-.4a1.92,1.92,0,1,1,.42-3.81l.22,0h0l2.35.39h0a1.92,1.92,0,0,1-.43,3.82l-.21,0Z"/><path class="af909290-80b3-4db6-a44d-eb8a70ed1525" d="M958.73,592l-2.35-.46a1.91,1.91,0,1,1,.46-3.79l.27,0h0l2.35.46h0a1.9,1.9,0,0,1-.72,3.74h0Z"/><path class="af909290-80b3-4db6-a44d-eb8a70ed1525" d="M944.61,589.07l-2.35-.52A1.89,1.89,0,0,1,941,586.2a1.91,1.91,0,0,1,2.12-1.35h0l2.32.52h0a1.89,1.89,0,1,1-.81,3.7Z"/><path class="af909290-80b3-4db6-a44d-eb8a70ed1525" d="M930.61,585.77l-2.33-.6a1.86,1.86,0,0,1-1.37-2.26v0a1.88,1.88,0,0,1,2.29-1.37h0l2.32.58h0a1.89,1.89,0,1,1-.72,3.72,1.17,1.17,0,0,1-.2-.06Z"/><path class="af909290-80b3-4db6-a44d-eb8a70ed1525" d="M916.61,582l-2.32-.66a1.86,1.86,0,0,1-1.2-2.35,1.88,1.88,0,0,1,2.2-1.25h0l2.3.66h0a1.87,1.87,0,0,1-1,3.6Z"/><path class="af909290-80b3-4db6-a44d-eb8a70ed1525" d="M902.83,577.86l-2.3-.74a1.86,1.86,0,0,1,1.15-3.54h0l2.28.73h0a1.87,1.87,0,1,1-1.15,3.55Z"/><path class="af909290-80b3-4db6-a44d-eb8a70ed1525" d="M889.17,573.19l-2.25-.83a1.85,1.85,0,1,1,1.09-3.53l.18.06h0l2.24.81h0a1.85,1.85,0,1,1-1.1,3.54l-.17-.07Z"/><path class="af909290-80b3-4db6-a44d-eb8a70ed1525" d="M875.71,568l-2.22-.93a1.84,1.84,0,0,1,1.41-3.39h0l2.2.91h0a1.84,1.84,0,1,1-1.19,3.49l-.23-.1Z"/><path class="af909290-80b3-4db6-a44d-eb8a70ed1525" d="M862.49,562.14l-2.19-1a1.81,1.81,0,0,1,1.57-3.27h0l2.15,1h0a1.82,1.82,0,0,1-1.55,3.29Z"/><path class="af909290-80b3-4db6-a44d-eb8a70ed1525" d="M849.61,555.63l-2.11-1.16a1.78,1.78,0,0,1,1.69-3.12h0l2.09,1.12h0a1.78,1.78,0,1,1-1.68,3.14h0Z"/><path class="af909290-80b3-4db6-a44d-eb8a70ed1525" d="M837,548.34l-2-1.28a1.76,1.76,0,0,1,1.85-3h0l2,1.25h0a1.76,1.76,0,1,1-1.85,3Z"/><path class="af909290-80b3-4db6-a44d-eb8a70ed1525" d="M825,540.34l-2-1.43a1.71,1.71,0,1,1,1.7-3,2,2,0,0,1,.3.21h0l1.92,1.39h0a1.73,1.73,0,0,1,.49,2.37,1.71,1.71,0,0,1-2.37.49l-.12-.09Z"/><path class="af909290-80b3-4db6-a44d-eb8a70ed1525" d="M813.61,531.42l-1.83-1.58a1.67,1.67,0,0,1,2.16-2.53h0l1.81,1.53h0a1.67,1.67,0,0,1-2.16,2.55h0Z"/><path class="af909290-80b3-4db6-a44d-eb8a70ed1525" d="M802.93,521.57l-1.69-1.74a1.63,1.63,0,0,1,.17-2.31,1.65,1.65,0,0,1,2.18,0h0l1.65,1.69h0a1.64,1.64,0,1,1-2.34,2.3Z"/><path class="af909290-80b3-4db6-a44d-eb8a70ed1525" d="M793.24,510.75l-1.51-1.89a1.59,1.59,0,0,1,.25-2.24h0a1.59,1.59,0,0,1,2.22.24l0,0h0l1.48,1.85h0a1.61,1.61,0,0,1-2.52,2Z"/><path class="af909290-80b3-4db6-a44d-eb8a70ed1525" d="M784.71,499l-1.29-2a1.55,1.55,0,0,1,.48-2.15,1.57,1.57,0,0,1,2.16.48h0l1.28,2h0a1.58,1.58,0,1,1-2.55,1.85l-.09-.16Z"/><path class="af909290-80b3-4db6-a44d-eb8a70ed1525" d="M777.55,486.34l-1-2.19a1.51,1.51,0,0,1,.87-2,1.54,1.54,0,0,1,1.88.65h0l1,2.13h0a1.53,1.53,0,0,1-2.76,1.34h0Z"/><path class="af909290-80b3-4db6-a44d-eb8a70ed1525" d="M771.9,472.94l-.79-2.29a1.5,1.5,0,0,1,2.82-1h0l.78,2.24h0a1.5,1.5,0,0,1-.91,1.91h0a1.5,1.5,0,0,1-1.91-.92Z"/><path class="af909290-80b3-4db6-a44d-eb8a70ed1525" d="M767.87,459l-.52-2.36a1.46,1.46,0,0,1,2.82-.75.59.59,0,0,1,0,.13h0l.53,2.31h0a1.46,1.46,0,0,1-2.84.72s0-.06,0-.09Z"/><path class="af909290-80b3-4db6-a44d-eb8a70ed1525" d="M765.44,444.67l-.25-2.41a1.41,1.41,0,0,1,1.17-1.63A1.43,1.43,0,0,1,768,441.8c0,.06,0,.12,0,.17h0l.25,2.35h0a1.43,1.43,0,0,1-2.84.32Z"/><path class="af909290-80b3-4db6-a44d-eb8a70ed1525" d="M764.55,430.19v-2.41a1.39,1.39,0,1,1,2.77-.23v.23h0v2.37h0a1.39,1.39,0,0,1-2.78,0Z"/><path class="af909290-80b3-4db6-a44d-eb8a70ed1525" d="M765.06,415.72l.21-2.41a1.34,1.34,0,0,1,1.44-1.22h0a1.36,1.36,0,0,1,1.23,1.46h0l-.2,2.37h0a1.36,1.36,0,0,1-1.47,1.24,1.34,1.34,0,0,1-1.23-1.47h0Z"/><path class="af909290-80b3-4db6-a44d-eb8a70ed1525" d="M766.82,401.34l.4-2.37a1.31,1.31,0,0,1,2.58.43h0l-.38,2.35h0a1.31,1.31,0,0,1-2.59-.43Z"/><path class="af909290-80b3-4db6-a44d-eb8a70ed1525" d="M769.68,387.19l.57-2.34a1.24,1.24,0,1,1,2.42.58h0l-.54,2.32h0a1.25,1.25,0,1,1-2.44-.57Z"/><path class="af909290-80b3-4db6-a44d-eb8a70ed1525" d="M773.48,373.26l.71-2.3a1.2,1.2,0,0,1,1.53-.67,1.18,1.18,0,0,1,.72,1.36h0l-.69,2.28h0a1.17,1.17,0,0,1-1.47.8,1.2,1.2,0,0,1-.8-1.48h0Z"/><path class="af909290-80b3-4db6-a44d-eb8a70ed1525" d="M778.09,359.58l.84-2.25a1.11,1.11,0,0,1,2.09.77h0l-.81,2.24h0a1.13,1.13,0,0,1-1.44.67,1.11,1.11,0,0,1-.68-1.43h0Z"/><path class="af909290-80b3-4db6-a44d-eb8a70ed1525" d="M783.39,346.18l.94-2.21a1.05,1.05,0,0,1,1.94.81h0l-.91,2.2h0a1,1,0,0,1-1.28.62l-.1-.05a1.05,1.05,0,0,1-.59-1.38h0Z"/><path class="af909290-80b3-4db6-a44d-eb8a70ed1525" d="M789.28,333l1-2.17a1,1,0,0,1,1.78.85h0l-1,2.17h0a1,1,0,0,1-1.81-.84Z"/><path class="af909290-80b3-4db6-a44d-eb8a70ed1525" d="M795.7,320.14l1.11-2.13a.92.92,0,0,1,1.28-.27.94.94,0,0,1,.36,1.13L797.36,321a.93.93,0,1,1-1.67-.84Z"/><path class="af909290-80b3-4db6-a44d-eb8a70ed1525" d="M802.61,307.48l1.18-2.08a.85.85,0,0,1,1.17-.32.87.87,0,0,1,.33,1.17l-1.16,2.08a.86.86,0,0,1-1.17.36h0a.85.85,0,0,1-.36-1.17v0Z"/><path class="af909290-80b3-4db6-a44d-eb8a70ed1525" d="M809.83,295.06l1.25-2.05a.8.8,0,1,1,1.36.83l-1.22,2.05a.81.81,0,1,1-1.47-.69.57.57,0,0,1,.08-.13Z"/><path class="af909290-80b3-4db6-a44d-eb8a70ed1525" d="M817.45,282.86l1.3-2a.74.74,0,0,1,1.24.8l-1.28,2a.73.73,0,1,1-1.23-.77Z"/><path class="af909290-80b3-4db6-a44d-eb8a70ed1525" d="M825.38,270.86l1.35-2a.67.67,0,0,1,1.11.75l-1.33,2a.68.68,0,0,1-.94.19.66.66,0,0,1-.2-.92v0Z"/><path class="af909290-80b3-4db6-a44d-eb8a70ed1525" d="M833.61,259.05,835,257.1a.62.62,0,0,1,.85-.14.61.61,0,0,1,.14.84h0l-1.37,2a.62.62,0,0,1-.86.16.6.6,0,0,1-.16-.84v-.07Z"/><polygon class="bb0faf3e-b408-4fc8-b3d4-f7ac2ae3c7f5" points="835.1 226.76 843.36 247.14 853.61 232.78 835.1 226.76"/><path class="b377ac2e-30f3-4408-936b-fb22cc47caab" d="M922,177.92l-35.46,70.57a5.56,5.56,0,0,1-7.65,2.38L809.35,212.6a2.23,2.23,0,0,1,.49-4.1Z"/><polygon class="bb0faf3e-b408-4fc8-b3d4-f7ac2ae3c7f5" points="835.11 226.76 921.98 177.92 846.3 232.97 848.36 238.72 835.11 226.76"/><polygon class="bb0faf3e-b408-4fc8-b3d4-f7ac2ae3c7f5" points="852.97 236.6 843.36 247.14 846.3 232.97 852.97 236.6"/></g></svg>